<?xml version="1.0" encoding="UTF-8" standalone="no"?>
<!-- Created with Inkscape (http://www.inkscape.org/) -->

<svg
   version="1.1"
   id="svg1"
   width="271.56717"
   height="173.84982"
   viewBox="0 0 271.56717 173.84982"
   xmlns="http://www.w3.org/2000/svg"
   xmlns:svg="http://www.w3.org/2000/svg">
  <defs
     id="defs1">
    <linearGradient
       x1="0"
       y1="0"
       x2="0"
       y2="100.00128"
       gradientUnits="userSpaceOnUse"
       id="linearGradient8">
      <stop
         style="stop-opacity:1;stop-color:#ff4c4c"
         offset="0"
         id="stop4" />
      <stop
         style="stop-opacity:1;stop-color:#ff4c4c"
         offset="0.25"
         id="stop5" />
      <stop
         style="stop-opacity:1;stop-color:#ffb3b3"
         offset="0.5"
         id="stop6" />
      <stop
         style="stop-opacity:1;stop-color:#ff6666"
         offset="0.75"
         id="stop7" />
      <stop
         style="stop-opacity:1;stop-color:#ff6666"
         offset="1"
         id="stop8" />
    </linearGradient>
    <clipPath
       clipPathUnits="userSpaceOnUse"
       id="clipPath9">
      <path
         d="M 28.497067,84.048867 C 35.83868,65.69484 51.609613,55.688227 66.292813,42.473333 80.976027,29.2584 89.405307,18.218907 104.08852,16.0164 c 14.6832,-2.202493 26.78335,2.637387 37.79575,15.11808 11.01241,12.48072 26.23948,32.24888 18.89789,49.134587 -7.34161,16.88572 -30.99803,26.783333 -56.69364,37.795743 -25.6956,11.01242 -60.908253,25.50524 -75.591453,18.89786 -14.683214,-6.60739 -7.3416,-34.55978 0,-52.913803 z"
         id="path9" />
    </clipPath>
    <linearGradient
       x1="0"
       y1="0"
       x2="0"
       y2="100.00128"
       gradientUnits="userSpaceOnUse"
       id="linearGradient15">
      <stop
         style="stop-opacity:1;stop-color:#ffb3b3"
         offset="0"
         id="stop11" />
      <stop
         style="stop-opacity:1;stop-color:#ffb3b3"
         offset="0.25"
         id="stop12" />
      <stop
         style="stop-opacity:1;stop-color:#ff8c8c"
         offset="0.5"
         id="stop13" />
      <stop
         style="stop-opacity:1;stop-color:#ff6666"
         offset="0.75"
         id="stop14" />
      <stop
         style="stop-opacity:1;stop-color:#ff6666"
         offset="1"
         id="stop15" />
    </linearGradient>
    <clipPath
       clipPathUnits="userSpaceOnUse"
       id="clipPath16">
      <path
         d="m 110.34984,68.93024 c 0,-3.458067 -2.80325,-6.261333 -6.26132,-6.261333 -3.45808,0 -6.261333,2.803266 -6.261333,6.261333 0,3.458067 2.803253,6.261333 6.261333,6.261333 3.45807,0 6.26132,-2.803266 6.26132,-6.261333 z"
         id="path16" />
    </clipPath>
  </defs>
  <g
     id="g1"
     transform="translate(-19.487518,-14.974387)">
    <path
       id="path1"
       d="m 7.3721484,-4.3481484 c 0,-1.59375 -1.0546875,-2.671875 -2.5429687,-2.671875 -2.1445313,0 -4.33593751,2.2617187 -4.33593751,4.5820312 0,1.65234376 1.11328121,2.66015626 2.54296871,2.66015626 2.109375,0 4.3359375,-2.17968746 4.3359375,-4.57031246 z m -4.2773437,4.31249996 c -0.984375,0 -1.6757813,-0.80859375 -1.6757813,-2.12109376 0,-0.4453125 0.140625,-1.8984375 0.9023438,-3.0585937 0.6914062,-1.0429688 1.6640625,-1.5585938 2.4492187,-1.5585938 0.8203125,0 1.7109375,0.5625 1.7109375,2.0390625 0,0.7148438 -0.2695312,2.2734375 -1.2539062,3.5039063 -0.4804688,0.59765621 -1.2890625,1.19531246 -2.1328125,1.19531246 z m 0,0"
       style="fill:#000000;fill-opacity:1;fill-rule:nonzero;stroke:none"
       aria-label="O"
       transform="matrix(1.3333333,0,0,1.3333333,79.94,188.528)" />
    <path
       id="path2"
       d="m 143.84749,42.5202 c 0,1.16722 -0.94623,2.11344 -2.11345,2.11344 -1.16722,0 -2.11344,-0.94622 -2.11344,-2.11344 0,-1.16722 0.94622,-2.11345 2.11344,-2.11345 1.16722,0 2.11345,0.94623 2.11345,2.11345 z"
       style="fill:#000000;fill-opacity:1;fill-rule:nonzero;stroke:none"
       transform="matrix(1.3333333,0,0,-1.3333333,85.190667,136.96267)" />
    <path
       id="path3"
       d="m 3.0227344,-3.1534453 h 1.6875 c 1.4179687,0 2.8007812,-1.03125 2.8007812,-2.1445313 0,-0.7734375 -0.65625,-1.5117187 -1.96875,-1.5117187 H 2.3196094 c -0.1875,0 -0.2929688,0 -0.2929688,0.1992187 0,0.1171875 0.082031,0.1171875 0.28125,0.1171875 0.1289063,0 0.3164063,0.011719 0.4335938,0.011719 0.1523437,0.023437 0.2109375,0.058594 0.2109375,0.1640625 0,0.035156 0,0.070312 -0.035156,0.1875 l -1.3359375,5.35546874 c -0.09375,0.38671875 -0.1171875,0.46875 -0.90234373,0.46875 -0.17578125,0 -0.28125,0 -0.28125,0.1875 0,0.1171875 0.1171875,0.1171875 0.15234375,0.1171875 0.28125,0 0.98437498,-0.03515625 1.26562498,-0.03515625 0.2109375,0 0.421875,0.01171875 0.6328125,0.01171875 0.2226563,0 0.4453125,0.0234375 0.6445313,0.0234375 0.070312,0 0.1992187,0 0.1992187,-0.19921875 0,-0.10546875 -0.082031,-0.10546875 -0.2695312,-0.10546875 -0.375,0 -0.65625,0 -0.65625,-0.1875 0,-0.0585937 0.023437,-0.10546875 0.035156,-0.1640625 z m 0.7148437,-2.9648438 c 0.082031,-0.3515625 0.1054688,-0.375 0.5390625,-0.375 h 0.9492188 c 0.8320312,0 1.359375,0.2695313 1.359375,0.9492188 0,0.3984375 -0.1992188,1.2539062 -0.5859375,1.6054687 -0.5039063,0.4453125 -1.1015625,0.5273438 -1.5351563,0.5273438 h -1.40625 z m 0,0"
       style="fill:#000000;fill-opacity:1;fill-rule:nonzero;stroke:none"
       aria-label="P"
       transform="matrix(1.3333333,0,0,1.3333333,281.04,73.396)" />
    <path
       id="path4"
       d="M -42.5202,39.68535 C -37.01399,53.45087 -25.18579,60.95583 -14.17339,70.867 -3.16098,80.7782 3.16098,89.05782 14.17339,90.7097 25.18579,92.36157 34.2609,88.73166 42.5202,79.37114 50.77951,70.0106 62.19981,55.18448 56.69362,42.5202 51.18741,29.85591 33.4451,22.4327 14.17339,14.17339 -5.09831,5.91408 -31.5078,-4.95554 -42.5202,0 c -11.01241,4.95554 -5.5062,25.91983 0,39.68535 z"
       style="fill:#f2f2f2;fill-opacity:1;fill-rule:nonzero;stroke:none"
       transform="matrix(1.3333333,0,0,-1.3333333,85.190667,136.96267)" />
    <g
       id="g8"
       clip-path="url(#clipPath9)">
      <path
         d="M 0,0 H 100 V 100 H 0 Z"
         transform="matrix(3.0865733,0,0,-2.59544,-63.35988,208.464)"
         style="fill:url(#linearGradient8);stroke:none"
         id="path8" />
    </g>
    <path
       id="path10"
       d="M -42.5202,39.68535 C -37.01399,53.45087 -25.18579,60.95583 -14.17339,70.867 -3.16098,80.7782 3.16098,89.05782 14.17339,90.7097 25.18579,92.36157 34.2609,88.73166 42.5202,79.37114 50.77951,70.0106 62.19981,55.18448 56.69362,42.5202 51.18741,29.85591 33.4451,22.4327 14.17339,14.17339 -5.09831,5.91408 -31.5078,-4.95554 -42.5202,0 c -11.01241,4.95554 -5.5062,25.91983 0,39.68535 z"
       style="fill:none;stroke:#4c4c4c;stroke-width:0.79701;stroke-linecap:butt;stroke-linejoin:miter;stroke-miterlimit:10;stroke-dasharray:none;stroke-opacity:1"
       transform="matrix(1.3333333,0,0,-1.3333333,85.190667,136.96267)" />
    <path
       id="path11"
       d="m 18.86938,51.02432 c 0,2.59355 -2.10244,4.696 -4.69599,4.696 -2.59356,0 -4.696,-2.10245 -4.696,-4.696 0,-2.59355 2.10244,-4.696 4.696,-4.696 2.59355,0 4.69599,2.10245 4.69599,4.696 z"
       style="fill:#ffffff;fill-opacity:1;fill-rule:nonzero;stroke:none"
       transform="matrix(1.3333333,0,0,-1.3333333,85.190667,136.96267)" />
    <g
       id="g15"
       clip-path="url(#clipPath16)">
      <path
         d="M 0,0 H 100 V 100 H 0 Z"
         transform="matrix(0.25046667,0,0,-0.25046667,91.565187,81.453573)"
         style="fill:url(#linearGradient15);stroke:none"
         id="path15" />
    </g>
    <path
       id="path17"
       d="m 18.86938,51.02432 c 0,2.59355 -2.10244,4.696 -4.69599,4.696 -2.59356,0 -4.696,-2.10245 -4.696,-4.696 0,-2.59355 2.10244,-4.696 4.696,-4.696 2.59355,0 4.69599,2.10245 4.69599,4.696 z"
       style="fill:none;stroke:#4c4c4c;stroke-width:0.79701;stroke-linecap:butt;stroke-linejoin:miter;stroke-miterlimit:10;stroke-dasharray:none;stroke-opacity:1"
       transform="matrix(1.3333333,0,0,-1.3333333,85.190667,136.96267)" />
    <g
       id="g17"
       aria-label="dq&#10;′"
       transform="matrix(1.3333333,0,0,1.3333333,95.565333,53.734667)">
      <path
         id="path18"
         d="m 5.1453359,-6.8088125 c 0,0 0,-0.1054688 -0.1289062,-0.1054688 -0.1523438,0 -1.1015625,0.09375 -1.265625,0.1054688 -0.082031,0.011719 -0.140625,0.070312 -0.140625,0.1992187 0,0.1171875 0.082031,0.1171875 0.234375,0.1171875 0.4804687,0 0.5039062,0.070312 0.5039062,0.1640625 l -0.035156,0.1992188 -0.5976563,2.3671875 c -0.1757812,-0.375 -0.46875,-0.6445313 -0.9140625,-0.6445313 -1.171875,0 -2.40234371,1.4648438 -2.40234371,2.9179688 0,0.9375 0.55078125,1.59375 1.32421871,1.59375 0.1992188,0 0.703125,-0.03515625 1.3007813,-0.73828125 C 3.0945547,-0.222875 3.4461172,0.10525 3.9265859,0.10525 c 0.3515625,0 0.5742188,-0.22265625 0.7382813,-0.5390625 0.1640625,-0.36328125 0.2929687,-0.9726563 0.2929687,-0.9960938 0,-0.09375 -0.082031,-0.09375 -0.1171875,-0.09375 -0.09375,0 -0.1054687,0.035156 -0.140625,0.1757813 -0.1640625,0.64453125 -0.3515625,1.2421875 -0.75,1.2421875 -0.2695312,0 -0.3046875,-0.2578125 -0.3046875,-0.45703125 0,-0.24609375 0.023437,-0.31640625 0.058594,-0.48046875 z m -2.0742187,5.625 c -0.046875,0.1757812 -0.046875,0.19921875 -0.1992188,0.36328125 -0.4453125,0.55078125 -0.84375,0.71484375 -1.125,0.71484375 -0.5039062,0 -0.6445312,-0.55078125 -0.6445312,-0.9375 0,-0.5039063 0.328125,-1.7226563 0.5507812,-2.1796875 0.3046875,-0.5976563 0.7617188,-0.9609375 1.1601563,-0.9609375 0.6445312,0 0.7851562,0.8203125 0.7851562,0.8789062 0,0.058594 -0.023437,0.1171875 -0.035156,0.1640625 z m 6.6152344,-3.1054688 c 0,-0.046875 -0.023437,-0.1054687 -0.09375,-0.1054687 -0.1171875,0 -0.515625,0.3984375 -0.6796875,0.6914062 -0.2226563,-0.5390625 -0.609375,-0.703125 -0.9257813,-0.703125 -1.171875,0 -2.4023437,1.4765625 -2.4023437,2.9179688 0,0.984375 0.5859375,1.59375 1.3125,1.59375 0.4335937,0 0.8203125,-0.234375 1.1835937,-0.59765625 -0.09375,0.3515625 -0.421875,1.69921875 -0.4570312,1.79296875 -0.082031,0.2695312 -0.1523438,0.3164062 -0.7148438,0.328125 -0.1289062,0 -0.2226562,0 -0.2226562,0.1992187 0,0 0,0.1054688 0.1289062,0.1054688 0.3164063,0 0.6679688,-0.035156 0.9960938,-0.035156 0.328125,0 0.6914062,0.035156 1.0195312,0.035156 0.046875,0 0.1757813,0 0.1757813,-0.1992188 0,-0.1054687 -0.09375,-0.1054687 -0.2578125,-0.1054687 -0.46875,0 -0.46875,-0.070312 -0.46875,-0.1640625 0,-0.070312 0.011719,-0.1289063 0.035156,-0.2226563 z m -2.7539063,4.1835938 c -0.5976562,0 -0.6445312,-0.7734375 -0.6445312,-0.9375 0,-0.4804688 0.2929687,-1.5703125 0.4570312,-1.9804688 0.3164063,-0.7382812 0.8320313,-1.1601562 1.2421875,-1.1601562 0.6445313,0 0.7851563,0.8085937 0.7851563,0.8789062 0,0.058594 -0.5507813,2.2382813 -0.5742188,2.2734375 -0.1523437,0.28125005 -0.7148437,0.9257813 -1.265625,0.9257813 z m 0,0"
         style="fill:#000000;fill-opacity:1;fill-rule:nonzero;stroke:none" />
      <path
         id="path19"
         d="m 12.018383,-6.9084219 c 0.04687,-0.1171875 0.05859,-0.1757812 0.05859,-0.2226562 0,-0.2109375 -0.199219,-0.3867188 -0.410157,-0.3867188 -0.269531,0 -0.351562,0.2226563 -0.386718,0.328125 l -0.914063,3.0234375 c -0.01172,0.011719 -0.03516,0.1054688 -0.03516,0.1171875 0,0.082031 0.210937,0.1523438 0.269531,0.1523438 0.04687,0 0.05859,-0.023437 0.105469,-0.1289063 z m 0,0"
         style="fill:#000000;fill-opacity:1;fill-rule:nonzero;stroke:none" />
    </g>
    <path
       id="path20"
       d="M 0,-28.3468 13.2996,41.35016"
       style="fill:none;stroke:#6b7280;stroke-width:0.79701;stroke-linecap:butt;stroke-linejoin:miter;stroke-miterlimit:10;stroke-dasharray:none;stroke-opacity:1"
       transform="matrix(1.3333333,0,0,-1.3333333,85.190667,136.96267)" />
    <path
       id="path21"
       d="M 4.66248,0 C 3.28098,0.25902 1.0361,1.0361 -0.51805,1.94269 V -1.94269 C 1.0361,-1.0361 3.28098,-0.25902 4.66248,0"
       style="fill:#6b7280;fill-opacity:1;fill-rule:nonzero;stroke:none"
       transform="matrix(0.24988,-1.3096533,-1.3096533,-0.24988,102.92345,81.829147)" />
    <g
       id="g21"
       aria-label="⃗r&#10;′"
       transform="matrix(1.3333333,0,0,1.3333333,99.174667,140.18533)">
      <path
         id="path22"
         d="m 5.3445859,-5.9309922 c -0.1289062,0.1289063 -0.4570312,0.4101563 -0.4570312,0.5859375 0,0.1054688 0.09375,0.1992188 0.1992187,0.1992188 0.082031,0 0.1289063,-0.070312 0.1875,-0.1289063 0.1171875,-0.140625 0.3398438,-0.421875 0.7851563,-0.6445312 0.070312,-0.035156 0.1640625,-0.09375 0.1640625,-0.2109375 0,-0.09375 -0.070312,-0.1523438 -0.140625,-0.1992188 -0.2109375,-0.1523437 -0.328125,-0.328125 -0.3984375,-0.5625 -0.023437,-0.09375 -0.070312,-0.2226562 -0.1992188,-0.2226562 -0.140625,0 -0.1992187,0.1289062 -0.1992187,0.2109375 0,0.046875 0.070312,0.3632812 0.234375,0.5742187 H 2.1570859 c -0.1640625,0 -0.3398437,0 -0.3398437,0.1992188 0,0.1992187 0.1757812,0.1992187 0.3398437,0.1992187 z m -4.1455078,5.34375001 c -0.035156,0.15234375 -0.09375,0.375 -0.09375,0.421875 0,0.1875 0.140625,0.26953125 0.2929688,0.26953125 0.1171875,0 0.2929687,-0.0703125 0.3632812,-0.26953125 0.023437,-0.046875 0.3632813,-1.39453121 0.3984375,-1.58203121 0.082031,-0.328125 0.2578125,-1.0195313 0.3164063,-1.2890625 0.046875,-0.1289063 0.328125,-0.5976563 0.5625,-0.8203125 0.082031,-0.070312 0.375,-0.328125 0.796875,-0.328125 0.2578125,0 0.4101562,0.1171875 0.421875,0.1171875 -0.3046875,0.046875 -0.515625,0.2929687 -0.515625,0.5507812 0,0.1640625 0.1054687,0.3515625 0.375,0.3515625 0.2695312,0 0.5507812,-0.234375 0.5507812,-0.5859375 0,-0.3515625 -0.328125,-0.65625 -0.8320312,-0.65625 -0.6445313,0 -1.0898438,0.4921875 -1.2773438,0.7734375 -0.082031,-0.4570312 -0.4335937,-0.7734375 -0.9023437,-0.7734375 -0.4570313,0 -0.6445313,0.3867188 -0.73828128,0.5742188 -0.17578125,0.3398437 -0.3046875,0.9375 -0.3046875,0.9609375 0,0.1054687 0.09375,0.1054687 0.1171875,0.1054687 0.09375,0 0.10546875,-0.011719 0.1640625,-0.234375 0.17578128,-0.703125 0.37499998,-1.1835937 0.72656248,-1.1835937 0.1757813,0 0.3164063,0.082031 0.3164063,0.4570312 0,0.2109375 -0.035156,0.3164063 -0.1640625,0.8320313 z m 0,0"
         style="fill:#6b7280;fill-opacity:1;fill-rule:nonzero;stroke:none" />
      <path
         id="path23"
         d="m 8.7781797,-6.9065781 c 0.046875,-0.1171875 0.058594,-0.1757813 0.058594,-0.2226563 0,-0.2109375 -0.1992187,-0.3867187 -0.4101562,-0.3867187 -0.2695313,0 -0.3515625,0.2226562 -0.3867188,0.328125 l -0.9140625,3.0234375 c -0.011719,0.011719 -0.035156,0.1054687 -0.035156,0.1171875 0,0.082031 0.2109375,0.1523437 0.2695312,0.1523437 0.046875,0 0.058594,-0.023437 0.1054688,-0.1289062 z m 0,0"
         style="fill:#6b7280;fill-opacity:1;fill-rule:nonzero;stroke:none" />
    </g>
    <path
       id="path24"
       d="M 19.2679,51.02432 134.77069,42.8493"
       style="fill:none;stroke:#ff0000;stroke-width:0.79701;stroke-linecap:butt;stroke-linejoin:miter;stroke-miterlimit:10;stroke-dasharray:none;stroke-opacity:1"
       transform="matrix(1.3333333,0,0,-1.3333333,85.190667,136.96267)" />
    <path
       id="path25"
       d="M 4.66248,0 C 3.28098,0.25902 1.0361,1.0361 -0.51805,1.94269 V -1.94269 C 1.0361,-1.0361 3.28098,-0.25902 4.66248,0"
       style="fill:#ff0000;fill-opacity:1;fill-rule:nonzero;stroke:none"
       transform="matrix(1.32996,0.09412,0.09412,-1.32996,264.88492,79.830267)" />
    <g
       id="g25"
       aria-label="⃗r−⃗r&#10;′"
       transform="matrix(1.3333333,0,0,1.3333333,173.10933,68.534667)">
      <path
         id="path26"
         d="M 5.3437812,-5.9293203 C 5.214875,-5.8004141 4.88675,-5.5191641 4.88675,-5.3433828 c 0,0.1054687 0.09375,0.1992187 0.1992187,0.1992187 0.082031,0 0.1289063,-0.070312 0.1875,-0.1289062 0.1171875,-0.140625 0.3398438,-0.421875 0.7851563,-0.6445313 0.070312,-0.035156 0.1640625,-0.09375 0.1640625,-0.2109375 0,-0.09375 -0.070312,-0.1523437 -0.140625,-0.1992187 -0.2109375,-0.1523438 -0.328125,-0.328125 -0.3984375,-0.5625 -0.023437,-0.09375 -0.070312,-0.2226563 -0.1992188,-0.2226563 -0.140625,0 -0.1992187,0.1289063 -0.1992187,0.2109375 0,0.046875 0.070312,0.3632813 0.234375,0.5742188 H 2.1562812 c -0.1640625,0 -0.3398437,0 -0.3398437,0.1992187 0,0.1992188 0.1757812,0.1992188 0.3398437,0.1992188 z m -4.1455078,5.34374999 c -0.035156,0.15234375 -0.09375,0.375 -0.09375,0.421875 0,0.1875 0.140625,0.26953125 0.2929688,0.26953125 0.1171875,0 0.2929687,-0.0703125 0.3632812,-0.26953125 0.023437,-0.046875 0.3632813,-1.39453129 0.3984375,-1.58203129 0.082031,-0.328125 0.2578125,-1.0195312 0.3164063,-1.2890625 0.046875,-0.1289062 0.328125,-0.5976562 0.5625,-0.8203125 0.082031,-0.070312 0.375,-0.328125 0.796875,-0.328125 0.2578125,0 0.4101562,0.1171875 0.421875,0.1171875 -0.3046875,0.046875 -0.515625,0.2929688 -0.515625,0.5507813 0,0.1640625 0.1054687,0.3515625 0.375,0.3515625 0.2695312,0 0.5507812,-0.234375 0.5507812,-0.5859375 0,-0.3515625 -0.328125,-0.65625 -0.8320312,-0.65625 -0.6445313,0 -1.0898438,0.4921875 -1.2773438,0.7734375 -0.082031,-0.4570313 -0.4335937,-0.7734375 -0.9023437,-0.7734375 -0.4570313,0 -0.6445313,0.3867187 -0.73828126,0.5742187 -0.17578125,0.3398438 -0.3046875,0.9375 -0.3046875,0.9609375 0,0.1054688 0.09375,0.1054688 0.1171875,0.1054688 0.09375,0 0.10546875,-0.011719 0.1640625,-0.234375 0.17578126,-0.703125 0.37499996,-1.1835938 0.72656246,-1.1835938 0.1757813,0 0.3164063,0.082031 0.3164063,0.4570313 0,0.2109375 -0.035156,0.3164062 -0.1640625,0.8320312 z m 0,0"
         style="fill:#ff0000;fill-opacity:1;fill-rule:nonzero;stroke:none" />
      <path
         id="path27"
         d="m 13.866242,-2.2965078 c 0.175781,0 0.351563,0 0.351563,-0.1992188 0,-0.1992187 -0.175782,-0.1992187 -0.351563,-0.1992187 H 8.4756172 c -0.1640625,0 -0.3398438,0 -0.3398438,0.1992187 0,0.1992188 0.1757813,0.1992188 0.3398438,0.1992188 z m 0,0"
         style="fill:#ff0000;fill-opacity:1;fill-rule:nonzero;stroke:none" />
      <path
         id="path28"
         d="m 22.292023,-5.9293203 c -0.128906,0.1289062 -0.457031,0.4101562 -0.457031,0.5859375 0,0.1054687 0.09375,0.1992187 0.199219,0.1992187 0.08203,0 0.128906,-0.070312 0.1875,-0.1289062 0.117187,-0.140625 0.339844,-0.421875 0.785156,-0.6445313 0.07031,-0.035156 0.164063,-0.09375 0.164063,-0.2109375 0,-0.09375 -0.07031,-0.1523437 -0.140625,-0.1992187 -0.210938,-0.1523438 -0.328125,-0.328125 -0.398438,-0.5625 -0.02344,-0.09375 -0.07031,-0.2226563 -0.199219,-0.2226563 -0.140625,0 -0.199218,0.1289063 -0.199218,0.2109375 0,0.046875 0.07031,0.3632813 0.234375,0.5742188 h -3.363282 c -0.164062,0 -0.339843,0 -0.339843,0.1992187 0,0.1992188 0.175781,0.1992188 0.339843,0.1992188 z m -4.145507,5.34374999 c -0.03516,0.15234375 -0.09375,0.375 -0.09375,0.421875 0,0.1875 0.140625,0.26953125 0.292968,0.26953125 0.117188,0 0.292969,-0.0703125 0.363282,-0.26953125 0.02344,-0.046875 0.363281,-1.39453129 0.398437,-1.58203129 0.08203,-0.328125 0.257813,-1.0195312 0.316406,-1.2890625 0.04687,-0.1289062 0.328125,-0.5976562 0.5625,-0.8203125 0.08203,-0.070312 0.375,-0.328125 0.796875,-0.328125 0.257813,0 0.410157,0.1171875 0.421875,0.1171875 -0.304687,0.046875 -0.515625,0.2929688 -0.515625,0.5507813 0,0.1640625 0.105469,0.3515625 0.375,0.3515625 0.269532,0 0.550782,-0.234375 0.550782,-0.5859375 0,-0.3515625 -0.328125,-0.65625 -0.832032,-0.65625 -0.644531,0 -1.089843,0.4921875 -1.277343,0.7734375 -0.08203,-0.4570313 -0.433594,-0.7734375 -0.902344,-0.7734375 -0.457031,0 -0.644531,0.3867187 -0.738281,0.5742187 -0.175782,0.3398438 -0.304688,0.9375 -0.304688,0.9609375 0,0.1054688 0.09375,0.1054688 0.117188,0.1054688 0.09375,0 0.105468,-0.011719 0.164062,-0.234375 0.175781,-0.703125 0.375,-1.1835938 0.726563,-1.1835938 0.175781,0 0.316406,0.082031 0.316406,0.4570313 0,0.2109375 -0.03516,0.3164062 -0.164063,0.8320312 z m 0,0"
         style="fill:#ff0000;fill-opacity:1;fill-rule:nonzero;stroke:none" />
      <path
         id="path29"
         d="m 25.725617,-6.9078359 c 0.04687,-0.1171875 0.05859,-0.1757813 0.05859,-0.2226563 0,-0.2109375 -0.199219,-0.3867187 -0.410156,-0.3867187 -0.269532,0 -0.351563,0.2226562 -0.386719,0.328125 l -0.914063,3.0234375 c -0.01172,0.011719 -0.03516,0.1054687 -0.03516,0.1171875 0,0.082031 0.210938,0.1523437 0.269531,0.1523437 0.04687,0 0.05859,-0.023437 0.105469,-0.1289062 z m 0,0"
         style="fill:#ff0000;fill-opacity:1;fill-rule:nonzero;stroke:none" />
    </g>
    <path
       id="path30"
       d="M 0,-28.3468 135.49571,39.4011"
       style="fill:none;stroke:#6b7280;stroke-width:0.79701;stroke-linecap:butt;stroke-linejoin:miter;stroke-miterlimit:10;stroke-dasharray:none;stroke-opacity:1"
       transform="matrix(1.3333333,0,0,-1.3333333,85.190667,136.96267)" />
    <path
       id="path31"
       d="M 4.66248,0 C 3.28098,0.25902 1.0361,1.0361 -0.51805,1.94269 V -1.94269 C 1.0361,-1.0361 3.28098,-0.25902 4.66248,0"
       style="fill:#6b7280;fill-opacity:1;fill-rule:nonzero;stroke:none"
       transform="matrix(1.19248,-0.59622667,-0.59622667,-1.19248,265.85161,84.427867)" />
    <path
       id="path32"
       d="m 5.3447031,-5.9294297 c -0.1289062,0.1289063 -0.4570312,0.4101563 -0.4570312,0.5859375 0,0.1054688 0.09375,0.1992188 0.1992187,0.1992188 0.082031,0 0.1289063,-0.070312 0.1875,-0.1289063 0.1171875,-0.140625 0.3398438,-0.421875 0.7851563,-0.6445312 0.070312,-0.035156 0.1640625,-0.09375 0.1640625,-0.2109375 0,-0.09375 -0.070312,-0.1523438 -0.140625,-0.1992188 -0.2109375,-0.1523437 -0.328125,-0.328125 -0.3984375,-0.5625 -0.023437,-0.09375 -0.070312,-0.2226562 -0.1992188,-0.2226562 -0.140625,0 -0.1992187,0.1289062 -0.1992187,0.2109375 0,0.046875 0.070312,0.3632812 0.234375,0.5742187 H 2.1572031 c -0.1640625,0 -0.3398437,0 -0.3398437,0.1992188 0,0.1992187 0.1757812,0.1992187 0.3398437,0.1992187 z m -4.1484375,5.34375001 c -0.035156,0.15234375 -0.09375,0.375 -0.09375,0.421875 0,0.1875 0.140625,0.26953125 0.2929688,0.26953125 0.1171875,0 0.2929687,-0.0703125 0.3632812,-0.26953125 0.023437,-0.046875 0.3632813,-1.39453121 0.3984375,-1.58203121 0.082031,-0.328125 0.2578125,-1.0195313 0.3164063,-1.2890625 0.046875,-0.1289063 0.328125,-0.5976563 0.5625,-0.8203125 0.082031,-0.070312 0.375,-0.328125 0.796875,-0.328125 0.2578125,0 0.4101562,0.1171875 0.421875,0.1171875 -0.3046875,0.046875 -0.515625,0.2929687 -0.515625,0.5507812 0,0.1640625 0.1054687,0.3515625 0.375,0.3515625 0.2695312,0 0.5507812,-0.234375 0.5507812,-0.5859375 0,-0.3515625 -0.328125,-0.65625 -0.8320312,-0.65625 -0.6445313,0 -1.0898438,0.4921875 -1.2773438,0.7734375 -0.082031,-0.4570312 -0.4335937,-0.7734375 -0.9023437,-0.7734375 -0.4570313,0 -0.6445313,0.3867188 -0.73828128,0.5742188 -0.17578125,0.3398437 -0.3046875,0.9375 -0.3046875,0.9609375 0,0.1054687 0.09375,0.1054687 0.1171875,0.1054687 0.09375,0 0.10546875,-0.011719 0.1640625,-0.234375 0.17578128,-0.703125 0.37499998,-1.1835937 0.72656248,-1.1835937 0.1757813,0 0.3164063,0.082031 0.3164063,0.4570312 0,0.2109375 -0.035156,0.3164063 -0.1640625,0.8320313 z m 0,0"
       style="fill:#6b7280;fill-opacity:1;fill-rule:nonzero;stroke:none"
       aria-label="⃗r"
       transform="matrix(1.3333333,0,0,1.3333333,182.83467,142.652)" />
    <g
       id="g32"
       aria-label="Q&#10;′"
       transform="matrix(1.3333333,0,0,1.3333333,28.942667,125.18533)">
      <path
         id="path33"
         d="m 4.3584297,-0.05989844 c 1.546875,-0.5859375 3.0117187,-2.36718746 3.0117187,-4.28906246 0,-1.59375 -1.0546875,-2.671875 -2.5429687,-2.671875 -2.1445313,0 -4.33593751,2.2617187 -4.33593751,4.5820312 0,1.65234376 1.11328121,2.66015626 2.54296871,2.66015626 0.2578125,0 0.5859375,-0.046875 0.984375,-0.15234375 -0.046875,0.62109375 -0.046875,0.6328125 -0.046875,0.76171875 0,0.32812504 0,1.10156254 0.8320313,1.10156254 1.1835937,0 1.6640625,-1.82812504 1.6640625,-1.93359379 0,-0.0703125 -0.070312,-0.10546875 -0.1171875,-0.10546875 -0.070312,0 -0.09375,0.05859375 -0.1171875,0.1171875 -0.234375,0.703125 -0.8203125,0.94921875 -1.1601563,0.94921875 -0.4570312,0 -0.609375,-0.2578125 -0.7148437,-1.01953125 z m -1.875,-0.08203125 c -0.7851563,-0.3046875 -1.125,-1.08984371 -1.125,-1.98046871 0,-0.6914063 0.2695312,-2.0976563 1.0195312,-3.1757813 0.7265625,-1.0195312 1.6640625,-1.4765625 2.390625,-1.4765625 0.9960938,0 1.7226563,0.7734375 1.7226563,2.109375 0,0.9960938 -0.5039063,3.328125 -2.1796875,4.26562501 -0.046875,-0.3515625 -0.1523438,-1.07812501 -0.8789063,-1.07812501 -0.5273437,0 -1.0078125,0.50390626 -1.0078125,1.01953126 0,0.19921875 0.058594,0.3046875 0.058594,0.31640625 z m 0.609375,0.10546875 c -0.140625,0 -0.4570313,0 -0.4570313,-0.421875 0,-0.3984375 0.3867188,-0.79687496 0.796875,-0.79687496 0.421875,0 0.609375,0.234375 0.609375,0.84374996 0,0.15234375 -0.011719,0.1640625 -0.1054687,0.19921875 -0.2578125,0.10546875 -0.5625,0.17578125 -0.84375,0.17578125 z m 0,0"
         style="fill:#000000;fill-opacity:1;fill-rule:nonzero;stroke:none" />
      <path
         id="path34"
         d="m 9.9043281,-6.9065781 c 0.046875,-0.1171875 0.058594,-0.1757813 0.058594,-0.2226563 0,-0.2109375 -0.1992188,-0.3867187 -0.4101563,-0.3867187 -0.2695312,0 -0.3515625,0.2226562 -0.3867187,0.328125 l -0.9140625,3.0234375 c -0.011719,0.011719 -0.035156,0.1054687 -0.035156,0.1171875 0,0.082031 0.2109375,0.1523437 0.2695313,0.1523437 0.046875,0 0.058594,-0.023437 0.1054687,-0.1289062 z m 0,0"
         style="fill:#000000;fill-opacity:1;fill-rule:nonzero;stroke:none" />
    </g>
  </g>
</svg>
