<?xml version="1.0" encoding="UTF-8" standalone="no"?>
<!-- Created with Inkscape (http://www.inkscape.org/) -->

<svg
   version="1.1"
   id="svg1"
   width="261.15488"
   height="120.51565"
   viewBox="0 0 261.15488 120.51565"
   xmlns="http://www.w3.org/2000/svg"
   xmlns:svg="http://www.w3.org/2000/svg">
  <defs
     id="defs1" />
  <g
     id="g1"
     transform="translate(-11.68932,-13.546854)">
    <path
       id="path1"
       d="M 48.56804,-2.12581 V 2.12581"
       style="fill:none;stroke:#808080;stroke-width:0.19925;stroke-linecap:butt;stroke-linejoin:miter;stroke-miterlimit:10;stroke-dasharray:none;stroke-opacity:1"
       transform="matrix(1.3333333,0,0,-1.3333333,13.814667,117.15867)" />
    <path
       id="path2"
       d="M 0,0 H 192.27963"
       style="fill:none;stroke:#000000;stroke-width:0.3985;stroke-linecap:butt;stroke-linejoin:miter;stroke-miterlimit:10;stroke-dasharray:none;stroke-opacity:1"
       transform="matrix(1.3333333,0,0,-1.3333333,13.814667,117.15867)" />
    <path
       id="path3"
       d="M 1.99252,0 -1.19551,1.59401 0,0 -1.19551,-1.59401"
       style="fill:#000000;fill-opacity:1;fill-rule:nonzero;stroke:none"
       transform="matrix(1.3333333,0,0,-1.3333333,270.18751,117.15867)" />
    <path
       id="path4"
       d="M 0,0 V 75.71634"
       style="fill:none;stroke:#000000;stroke-width:0.3985;stroke-linecap:butt;stroke-linejoin:miter;stroke-miterlimit:10;stroke-dasharray:none;stroke-opacity:1"
       transform="matrix(1.3333333,0,0,-1.3333333,13.814667,117.15867)" />
    <path
       id="path5"
       d="M 1.99252,0 -1.19551,1.59401 0,0 -1.19551,-1.59401"
       style="fill:#000000;fill-opacity:1;fill-rule:nonzero;stroke:none"
       transform="matrix(0,-1.3333333,-1.3333333,0,13.814667,16.203547)" />
    <path
       id="path6"
       d="m 3.7377031,-6.1159687 c 0.058594,-0.234375 0.082031,-0.3398438 0.28125,-0.3632813 0.082031,-0.011719 0.3984375,-0.011719 0.5976563,-0.011719 0.7148437,0 1.8164062,0 1.8164062,0.984375 0,0.3398437 -0.1523437,1.0195312 -0.5507812,1.4179687 -0.2578125,0.2578125 -0.7851563,0.5742188 -1.6757813,0.5742188 H 3.0931719 Z M 5.1673906,-3.3855 c 1.0078125,-0.2226562 2.1914063,-0.9140625 2.1914063,-1.921875 0,-0.8554687 -0.890625,-1.5 -2.203125,-1.5 H 2.3197344 c -0.1992188,0 -0.2929688,0 -0.2929688,0.1992188 0,0.1171875 0.09375,0.1171875 0.28125,0.1171875 0.023437,0 0.2109375,0 0.3867188,0.011719 0.1757812,0.023437 0.2578125,0.035156 0.2578125,0.1640625 0,0.035156 0,0.070312 -0.035156,0.1875 l -1.3359375,5.35546875 c -0.09375,0.38671875 -0.1171875,0.46875 -0.90234373,0.46875 -0.17578125,0 -0.26953125,0 -0.26953125,0.19921875 0,0.10546875 0.1171875,0.10546875 0.140625,0.10546875 0.28125,0 0.97265628,-0.03515625 1.25390628,-0.03515625 0.28125,0 0.984375,0.03515625 1.265625,0.03515625 0.082031,0 0.1992187,0 0.1992187,-0.19921875 0,-0.10546875 -0.09375,-0.10546875 -0.28125,-0.10546875 -0.3632812,0 -0.6445312,0 -0.6445312,-0.1875 0,-0.0585937 0.011719,-0.10546875 0.023437,-0.1640625 L 3.0228594,-3.29175 h 1.1953125 c 0.9023437,0 1.078125,0.5507813 1.078125,0.9023438 0,0.1523437 -0.082031,0.4570312 -0.140625,0.6914062 -0.070312,0.2695313 -0.1523438,0.6445313 -0.1523438,0.84375 0,1.078125 1.1953125,1.078125 1.3242188,1.078125 0.84375,0 1.1953125,-1.0078125 1.1953125,-1.1484375 0,-0.1171875 -0.1171875,-0.1171875 -0.1171875,-0.1171875 -0.09375,0 -0.1171875,0.0703125 -0.1289063,0.140625 -0.2578125,0.73828125 -0.6796875,0.90234375 -0.9140625,0.90234375 -0.328125,0 -0.3984375,-0.22265625 -0.3984375,-0.609375 0,-0.3046875 0.058594,-0.82031245 0.1054688,-1.13671875 0.011719,-0.140625 0.035156,-0.328125 0.035156,-0.46875 0,-0.7617187 -0.6679687,-1.078125 -0.9374998,-1.171875 z m 0,0"
       style="fill:#000000;fill-opacity:1;fill-rule:nonzero;stroke:none"
       aria-label="R"
       transform="matrix(1.3333333,0,0,1.3333333,73.477333,133.764)" />
    <path
       id="path7"
       d="M 0,0 H 48.56804"
       style="fill:none;stroke:#ff0000;stroke-width:0.79701;stroke-linecap:butt;stroke-linejoin:miter;stroke-miterlimit:10;stroke-dasharray:none;stroke-opacity:1"
       transform="matrix(1.3333333,0,0,-1.3333333,13.814667,117.15867)" />
    <g
       id="g7"
       aria-label="E&#10;I"
       transform="matrix(1.3333333,0,0,1.3333333,39.04,110.208)">
      <path
         id="path8"
         d="m 7.0539844,-2.3210391 c 0.023437,-0.046875 0.046875,-0.1171875 0.046875,-0.140625 0,-0.011719 0,-0.1054687 -0.1171875,-0.1054687 -0.09375,0 -0.1054688,0.058594 -0.1289063,0.1171875 -0.6445312,1.47656249 -1.0195312,2.14453124 -2.71875,2.14453124 h -1.453125 c -0.140625,0 -0.1640625,0 -0.2226562,-0.0117188 -0.1054688,-0.0117188 -0.1289063,-0.0234375 -0.1289063,-0.10546875 0,-0.0234375 0,-0.046875 0.046875,-0.22265625 L 3.0578906,-3.3640078 h 0.984375 c 0.84375,0 0.84375,0.2109375 0.84375,0.4570312 0,0.070312 0,0.1875 -0.070312,0.4804688 -0.011719,0.058594 -0.023437,0.082031 -0.023437,0.1171875 0,0.046875 0.035156,0.1054687 0.1289063,0.1054687 0.082031,0 0.1054687,-0.046875 0.1523437,-0.1992187 l 0.5625,-2.3320313 c 0,-0.058594 -0.046875,-0.1054687 -0.1171875,-0.1054687 -0.09375,0 -0.1054687,0.058594 -0.140625,0.1757812 -0.2109375,0.7617188 -0.3867187,0.984375 -1.3007812,0.984375 h -0.9375 l 0.5976562,-2.4023437 c 0.082031,-0.3398438 0.09375,-0.3867188 0.5390625,-0.3867188 h 1.40625 c 1.2070313,0 1.5117188,0.2929688 1.5117188,1.1132813 0,0.234375 0,0.2578125 -0.046875,0.5273437 0,0.058594 -0.011719,0.1289063 -0.011719,0.1757813 0,0.046875 0.035156,0.1171875 0.1289063,0.1171875 0.1054687,0 0.1171875,-0.058594 0.140625,-0.2460938 L 7.6047656,-6.5046328 C 7.6282031,-6.7741641 7.5813281,-6.7741641 7.3352344,-6.7741641 H 2.2961719 c -0.1992188,0 -0.2929688,0 -0.2929688,0.1992188 0,0.1054687 0.09375,0.1054687 0.28125,0.1054687 0.3632813,0 0.6445313,0 0.6445313,0.1875 0,0.035156 0,0.058594 -0.046875,0.234375 l -1.3242188,5.27343754 c -0.09375,0.38671875 -0.1171875,0.46875 -0.90234373,0.46875 -0.1640625,0 -0.28125,0 -0.28125,0.1875 0,0.1171874975 0.09375,0.1171874975 0.28125,0.1171874975 H 5.8235156 c 0.234375,0 0.2460938,-0.0117187475 0.3164063,-0.1640624975 z m 0,0"
         style="fill:#ff0000;fill-opacity:1;fill-rule:nonzero;stroke:none" />
      <path
         id="path9"
         d="m 9.1223437,-2.7018984 c 0,-0.234375 0,-0.3164063 0.5742188,-0.3164063 h 0.1757812 v -0.2460937 c -0.046875,0 -0.8085937,0.023437 -1.078125,0.023437 -0.28125,0 -1.0429687,-0.023437 -1.0898437,-0.023437 v 0.2460937 h 0.1875 c 0.5742187,0 0.5742187,0.082031 0.5742187,0.3164063 v 3.62109371 c 0,0.23437499 0,0.32812499 -0.5742187,0.32812499 h -0.1875 v 0.2460938 c 0.058594,0 0.8085937,-0.023437 1.0898437,-0.023437 0.2695313,0 1.0429688,0.023437 1.078125,0.023437 V 1.2473203 H 9.6965625 c -0.5742188,0 -0.5742188,-0.09375 -0.5742188,-0.32812499 z m 0,0"
         style="fill:#ff0000;fill-opacity:1;fill-rule:nonzero;stroke:none" />
    </g>
    <path
       id="path10"
       d="m 48.56804,38.85443 1.37347,-0.86355 1.37349,-0.82955 1.37349,-0.8004 1.37349,-0.77223 1.37352,-0.746 1.37348,-0.71881 1.3735,-0.69454 1.37349,-0.67216 1.37349,-0.64889 1.3735,-0.62844 1.37349,-0.60712 1.37349,-0.58768 1.37351,-0.57116 1.37347,-0.55365 1.37352,-0.53426 1.37347,-0.52064 1.37351,-0.50415 1.37349,-0.48957 1.37347,-0.47499 1.37352,-0.46333 1.37349,-0.44878 1.37349,-0.43516 1.37349,-0.42449 1.37349,-0.4138 1.3735,-0.40118 1.37351,-0.39145 1.37347,-0.38077 1.37351,-0.37106 1.37347,-0.36135 1.37352,-0.35066 1.37349,-0.34387 1.37349,-0.33511 1.37349,-0.32639 1.37351,-0.3186 1.37348,-0.31182 1.3735,-0.30208 1.37348,-0.29626 1.37349,-0.28946 1.37351,-0.28267 1.37349,-0.27586 1.3735,-0.27005 1.37348,-0.26324 1.3735,-0.25838 1.37349,-0.25158 1.3735,-0.24577 1.37349,-0.24184 1.37351,-0.23606 1.37347,-0.23021 1.37351,-0.22634 1.37348,-0.22146 1.37351,-0.21662 1.37349,-0.21174 1.37349,-0.20789 1.37349,-0.20496 1.37349,-0.19813 1.3735,-0.19623 1.37349,-0.19134 1.37349,-0.18749 1.37349,-0.18358 1.37352,-0.18165 1.37348,-0.17775 1.3735,-0.17291 1.37347,-0.17097 1.37351,-0.16706 1.3735,-0.16417 1.37349,-0.1622 1.37349,-0.15738 1.37349,-0.15541 1.37349,-0.1525 1.37352,-0.14961 1.37347,-0.14665 1.37349,-0.14571 1.37352,-0.14085 1.37348,-0.14084 1.3735,-0.13599 1.37348,-0.13504 1.3735,-0.13209 1.37351,-0.13016 1.37349,-0.12724 1.37349,-0.12627 1.37348,-0.12436 1.37349,-0.12142 1.37352,-0.12045 1.37348,-0.11656 1.3735,-0.1156 1.37349,-0.11461 1.37349,-0.11073 1.37351,-0.11074 1.37347,-0.10879 1.3735,-0.10686 1.37349,-0.1049 1.37349,-0.10391 1.37351,-0.10201 1.37349,-0.10005 1.37349,-0.09909 1.3735,-0.09712 1.37347,-0.09522 1.37353,-0.09517 1.37348,-0.09297"
       style="fill:none;stroke:#ff0000;stroke-width:0.79701;stroke-linecap:butt;stroke-linejoin:miter;stroke-miterlimit:10;stroke-dasharray:none;stroke-opacity:1"
       transform="matrix(1.3333333,0,0,-1.3333333,13.814667,117.15867)" />
    <g
       id="g10"
       aria-label="E&#10;II"
       transform="matrix(1.3333333,0,0,1.3333333,157.64533,108.43867)">
      <path
         id="path11"
         d="m 7.0540859,-2.3211875 c 0.023437,-0.046875 0.046875,-0.1171875 0.046875,-0.140625 0,-0.011719 0,-0.1054687 -0.1171875,-0.1054687 -0.09375,0 -0.1054687,0.058594 -0.1289062,0.1171875 -0.6445313,1.47656245 -1.0195313,2.1445312 -2.71875,2.1445312 h -1.453125 c -0.140625,0 -0.1640625,0 -0.2226563,-0.0117188 C 2.3548672,-0.329 2.3314297,-0.34071875 2.3314297,-0.42275 c 0,-0.0234375 0,-0.046875 0.046875,-0.22265625 L 3.0579922,-3.3641562 h 0.984375 c 0.84375,0 0.84375,0.2109375 0.84375,0.4570312 0,0.070312 0,0.1875 -0.070312,0.4804688 -0.011719,0.058594 -0.023437,0.082031 -0.023437,0.1171875 0,0.046875 0.035156,0.1054687 0.1289062,0.1054687 0.082031,0 0.1054688,-0.046875 0.1523438,-0.1992187 l 0.5625,-2.3320313 c 0,-0.058594 -0.046875,-0.1054687 -0.1171875,-0.1054687 -0.09375,0 -0.1054688,0.058594 -0.140625,0.1757812 -0.2109375,0.7617188 -0.3867188,0.984375 -1.3007813,0.984375 h -0.9375 L 3.7376797,-6.0829062 C 3.8197109,-6.42275 3.8314297,-6.469625 4.2767422,-6.469625 h 1.40625 c 1.2070312,0 1.5117187,0.2929688 1.5117187,1.1132813 0,0.234375 0,0.2578125 -0.046875,0.5273437 0,0.058594 -0.011719,0.1289063 -0.011719,0.1757813 0,0.046875 0.035156,0.1171875 0.1289062,0.1171875 0.1054688,0 0.1171875,-0.058594 0.140625,-0.2460938 L 7.6048672,-6.5047812 C 7.6283047,-6.7743125 7.5814297,-6.7743125 7.3353359,-6.7743125 H 2.2962734 c -0.1992187,0 -0.2929687,0 -0.2929687,0.1992188 0,0.1054687 0.09375,0.1054687 0.28125,0.1054687 0.3632812,0 0.6445312,0 0.6445312,0.1875 0,0.035156 0,0.058594 -0.046875,0.234375 l -1.3242187,5.2734375 c -0.09375,0.38671875 -0.1171875,0.46875 -0.90234376,0.46875 -0.1640625,0 -0.28125,0 -0.28125,0.1875 0,0.1171875 0.09375,0.1171875 0.28125,0.1171875 H 5.8236172 c 0.234375,0 0.2460937,-0.01171875 0.3164062,-0.1640625 z m 0,0"
         style="fill:#ff0000;fill-opacity:1;fill-rule:nonzero;stroke:none" />
      <path
         id="path12"
         d="m 9.1224453,-2.7020469 c 0,-0.234375 0,-0.3164062 0.5742188,-0.3164062 h 0.1757812 v -0.2460938 c -0.046875,0 -0.8085937,0.023437 -1.078125,0.023437 -0.28125,0 -1.0429687,-0.023437 -1.0898437,-0.023437 v 0.2460938 h 0.1875 c 0.5742187,0 0.5742187,0.082031 0.5742187,0.3164062 v 3.62109378 c 0,0.23437502 0,0.32812502 -0.5742187,0.32812502 h -0.1875 v 0.2460937 c 0.058594,0 0.8085937,-0.023437 1.0898437,-0.023437 0.2695313,0 1.0429688,0.023437 1.078125,0.023437 V 1.2471719 H 9.6966641 c -0.5742188,0 -0.5742188,-0.09375 -0.5742188,-0.32812502 z m 3.0966797,0 c 0,-0.234375 0,-0.3164062 0.574219,-0.3164062 h 0.175781 v -0.2460938 c -0.04687,0 -0.808594,0.023437 -1.078125,0.023437 -0.28125,0 -1.042969,-0.023437 -1.089844,-0.023437 v 0.2460938 h 0.1875 c 0.574219,0 0.574219,0.082031 0.574219,0.3164062 v 3.62109378 c 0,0.23437502 0,0.32812502 -0.574219,0.32812502 h -0.1875 v 0.2460937 c 0.05859,0 0.808594,-0.023437 1.089844,-0.023437 0.269531,0 1.042969,0.023437 1.078125,0.023437 V 1.2471719 h -0.175781 c -0.574219,0 -0.574219,-0.09375 -0.574219,-0.32812502 z m 0,0"
         style="fill:#ff0000;fill-opacity:1;fill-rule:nonzero;stroke:none" />
    </g>
    <path
       id="path13"
       d="M 48.56804,0 V 38.85443"
       style="fill:none;stroke:#ff0000;stroke-width:0.3985;stroke-linecap:butt;stroke-linejoin:miter;stroke-miterlimit:10;stroke-dasharray:2.98883, 2.98883;stroke-dashoffset:0;stroke-opacity:1"
       transform="matrix(1.3333333,0,0,-1.3333333,13.814667,117.15867)" />
    <g
       id="g13"
       aria-label="∝&#10;1"
       transform="matrix(1.3333333,0,0,1.3333333,148.02133,80.618667)">
      <path
         id="path14"
         d="m 7.1939609,-0.31751562 c -0.046875,0 -0.1992187,0.0117188 -0.234375,0.0117188 -0.7851562,0 -1.3125,-0.77343758 -1.6523437,-1.28906248 -0.09375,-0.1640625 -0.3632813,-0.5742188 -0.4804688,-0.7500001 0.2460938,-0.5390625 0.9140625,-1.7695312 2.0976563,-1.7695312 0.070312,0 0.1523437,0 0.2695312,0.023437 0,-0.2578125 -0.011719,-0.2578125 -0.035156,-0.28125 -0.070312,-0.023437 -0.2226563,-0.035156 -0.3046875,-0.035156 -1.265625,0 -2.0039063,1.21875 -2.2382813,1.7109375 -0.3984375,-0.5976562 -0.5390625,-0.8203125 -0.9140625,-1.125 -0.609375,-0.5273437 -1.1484375,-0.5859375 -1.40625,-0.5859375 -1.1015625,0 -1.73437496,1.1132812 -1.73437496,2.2617188 0,1.1132812 0.60937496,2.24999993 1.71093746,2.24999993 1.265625,0 2.0039063,-1.20703123 2.2382813,-1.71093743 0.3984375,0.60937493 0.5390625,0.83203118 0.9023437,1.13671868 0.609375,0.52734375 1.1601563,0.57421875 1.40625,0.57421875 0.1171875,0 0.28125,-0.01171875 0.375,-0.03515625 z m -2.90625,-1.64062498 c -0.234375,0.5390625 -0.9023437,1.78124998 -2.0859375,1.78124998 -0.9726562,0 -1.42968746,-1.05468748 -1.42968746,-1.96874998 0,-0.984375 0.56249996,-1.8515625 1.38281246,-1.8515625 0.796875,0 1.3242188,0.7734375 1.6640625,1.3007812 0.09375,0.1640625 0.3632813,0.5742188 0.46875,0.7382813 z m 0,0"
         style="fill:#000000;fill-opacity:1;fill-rule:nonzero;stroke:none" />
      <path
         id="path15"
         d="m 15.959586,-8.3507187 c 0,-0.1875 -0.01172,-0.1992188 -0.210938,-0.1992188 -0.445312,0.4335938 -1.078125,0.4453125 -1.359375,0.4453125 v 0.2460938 c 0.164063,0 0.621094,0 1.007813,-0.1875 V -4.49525 c 0,0.234375 0,0.328125 -0.691406,0.328125 h -0.269532 v 0.2460938 c 0.128907,-0.011719 0.984375,-0.023437 1.242188,-0.023437 0.210937,0 1.089844,0.011719 1.242187,0.023437 V -4.167125 h -0.257812 c -0.703125,0 -0.703125,-0.09375 -0.703125,-0.328125 z m 0,0"
         style="fill:#000000;fill-opacity:1;fill-rule:nonzero;stroke:none" />
    </g>
    <path
       id="path16"
       d="M 0,0 H 7.802"
       style="fill:none;stroke:#000000;stroke-width:0.398;stroke-linecap:butt;stroke-linejoin:miter;stroke-miterlimit:10;stroke-dasharray:none;stroke-opacity:1"
       transform="matrix(1.3333333,0,0,-1.3333333,163.636,77.298667)" />
    <g
       id="g16"
       aria-label="r&#10;2"
       transform="matrix(1.3333333,0,0,1.3333333,163.636,85.2)">
      <path
         id="path17"
         d="m 1.6411641,-1.4068359 c 0,-0.046875 0.1640625,-0.6679688 0.1757812,-0.703125 0.011719,-0.058594 0.2226563,-0.4101563 0.4453125,-0.5742188 0.070312,-0.058594 0.2578125,-0.1992187 0.5625,-0.1992187 0.070312,0 0.2460938,0.011719 0.3867188,0.1054687 -0.2226563,0.058594 -0.3046875,0.2578125 -0.3046875,0.375 0,0.1523438 0.1171875,0.2578125 0.2695312,0.2578125 0.1640625,0 0.3984375,-0.1289062 0.3984375,-0.421875 0,-0.3632812 -0.3867187,-0.5039062 -0.7382812,-0.5039062 -0.3632813,0 -0.6796875,0.140625 -0.984375,0.4921875 -0.1289063,-0.421875 -0.5507813,-0.4921875 -0.7265625,-0.4921875 -0.25781254,0 -0.42187504,0.1523437 -0.53906254,0.3515625 -0.1640625,0.2695312 -0.2578125,0.6796875 -0.2578125,0.7148437 0,0.082031 0.09375,0.082031 0.1171875,0.082031 0.09375,0 0.10546875,-0.011719 0.15234375,-0.1992188 0.10546875,-0.4335937 0.234375,-0.7617187 0.51562499,-0.7617187 0.1757813,0 0.2226563,0.1523437 0.2226563,0.3398437 0,0.140625 -0.058594,0.3984375 -0.1054688,0.5859375 -0.046875,0.1875 -0.1171875,0.46875 -0.1523437,0.6210938 l -0.22265629,0.90234371 c -0.0351563,0.0820313 -0.0703125,0.2578125 -0.0703125,0.28125 0,0.1523437525 0.1171875,0.22265625 0.23437499,0.22265625 0.1054688,0 0.2460938,-0.05859375 0.2929688,-0.19921875 0.023437,-0.046875 0.09375,-0.3515625 0.140625,-0.52734375 z m 0,0"
         style="fill:#000000;fill-opacity:1;fill-rule:nonzero;stroke:none" />
      <path
         id="path18"
         d="M 6.8442891,-2.9537109 H 6.6333516 c -0.011719,0.09375 -0.058594,0.3984375 -0.140625,0.4570312 -0.035156,0.023437 -0.4570313,0.023437 -0.5273438,0.023437 h -0.984375 c 0.328125,-0.2460937 0.703125,-0.515625 0.9960938,-0.7148437 0.4570312,-0.3164063 0.8671875,-0.5976563 0.8671875,-1.125 0,-0.6445313 -0.5976563,-0.9960938 -1.3125,-0.9960938 -0.6679688,0 -1.1601563,0.3867188 -1.1601563,0.8789063 0,0.2578125 0.2109375,0.3046875 0.28125,0.3046875 0.140625,0 0.2929688,-0.09375 0.2929688,-0.2929688 0,-0.1875 -0.1289063,-0.28125 -0.28125,-0.2929687 0.140625,-0.234375 0.4335937,-0.375 0.7617187,-0.375 0.4804688,0 0.890625,0.28125 0.890625,0.7734375 0,0.421875 -0.2929687,0.7382812 -0.6796875,1.0546875 l -1.2070312,1.03125 c -0.046875,0.046875 -0.058594,0.046875 -0.058594,0.082031 v 0.1523438 h 2.3085938 z m 0,0"
         style="fill:#000000;fill-opacity:1;fill-rule:nonzero;stroke:none" />
    </g>
    <path
       id="path19"
       d="m 0.87777344,-0.58730469 c -0.0351563,0.15234375 -0.09375,0.375 -0.09375,0.421875 0,0.1875 0.140625,0.26953125 0.29296876,0.26953125 0.1171875,0 0.2929687,-0.0703125 0.3632812,-0.26953125 0.023437,-0.046875 0.3632813,-1.39453121 0.3984375,-1.58203121 0.082031,-0.328125 0.2578125,-1.0195313 0.3164063,-1.2890625 0.046875,-0.1289063 0.328125,-0.5976563 0.5625,-0.8203125 0.082031,-0.070312 0.375,-0.328125 0.796875,-0.328125 0.2578125,0 0.4101562,0.1171875 0.421875,0.1171875 -0.3046875,0.046875 -0.515625,0.2929687 -0.515625,0.5507812 0,0.1640625 0.1054687,0.3515625 0.375,0.3515625 0.2695312,0 0.5507812,-0.234375 0.5507812,-0.5859375 0,-0.3515625 -0.328125,-0.65625 -0.8320312,-0.65625 -0.6445313,0 -1.0898438,0.4921875 -1.2773438,0.7734375 -0.082031,-0.4570312 -0.4335937,-0.7734375 -0.9023437,-0.7734375 -0.45703126,0 -0.64453126,0.3867188 -0.73828126,0.5742188 -0.17578125,0.3398437 -0.3046875,0.9375 -0.3046875,0.9609375 0,0.1054687 0.09375,0.1054687 0.1171875,0.1054687 0.09375,0 0.10546875,-0.011719 0.1640625,-0.234375 0.17578125,-0.703125 0.375,-1.1835937 0.72656246,-1.1835937 0.1757813,0 0.3164063,0.082031 0.3164063,0.4570312 0,0.2109375 -0.035156,0.3164063 -0.1640625,0.8320313 z m 0,0"
       style="fill:#000000;fill-opacity:1;fill-rule:nonzero;stroke:none"
       aria-label="r"
       transform="matrix(1.3333333,0,0,1.3333333,261.78667,112.46667)" />
    <path
       id="path20"
       d="m 7.0545469,-2.3190781 c 0.023437,-0.046875 0.046875,-0.1171875 0.046875,-0.140625 0,-0.011719 0,-0.1054688 -0.1171875,-0.1054688 -0.09375,0 -0.1054688,0.058594 -0.1289063,0.1171875 -0.6445312,1.47656253 -1.0195312,2.14453128 -2.71875,2.14453128 h -1.453125 c -0.140625,0 -0.1640625,0 -0.2226562,-0.0117188 -0.1054688,-0.0117188 -0.1289063,-0.0234375 -0.1289063,-0.10546875 0,-0.0234375 0,-0.046875 0.046875,-0.22265625 L 3.0584531,-3.3620469 h 0.984375 c 0.84375,0 0.84375,0.2109375 0.84375,0.4570313 0,0.070312 0,0.1875 -0.070312,0.4804687 -0.011719,0.058594 -0.023437,0.082031 -0.023437,0.1171875 0,0.046875 0.035156,0.1054688 0.1289063,0.1054688 0.082031,0 0.1054687,-0.046875 0.1523437,-0.1992188 l 0.5625,-2.3320312 c 0,-0.058594 -0.046875,-0.1054688 -0.1171875,-0.1054688 -0.09375,0 -0.1054687,0.058594 -0.140625,0.1757813 -0.2109375,0.7617187 -0.3867187,0.984375 -1.3007812,0.984375 h -0.9375 l 0.5976562,-2.4023438 c 0.082031,-0.3398437 0.09375,-0.3867187 0.5390625,-0.3867187 h 1.40625 c 1.2070313,0 1.5117188,0.2929687 1.5117188,1.1132812 0,0.234375 0,0.2578125 -0.046875,0.5273438 0,0.058594 -0.011719,0.1289062 -0.011719,0.1757812 0,0.046875 0.035156,0.1171875 0.1289063,0.1171875 0.1054687,0 0.1171875,-0.058594 0.140625,-0.2460937 L 7.6053281,-6.5026719 C 7.6287656,-6.7722031 7.5818906,-6.7722031 7.3357969,-6.7722031 H 2.2967344 c -0.1992188,0 -0.2929688,0 -0.2929688,0.1992187 0,0.1054688 0.09375,0.1054688 0.28125,0.1054688 0.3632813,0 0.6445313,0 0.6445313,0.1875 0,0.035156 0,0.058594 -0.046875,0.234375 l -1.3242188,5.27343748 c -0.09375,0.38671875 -0.1171875,0.46875 -0.90234373,0.46875 -0.1640625,0 -0.28125,0 -0.28125,0.1875 0,0.1171875 0.09375,0.1171875 0.28125,0.1171875 H 5.8240781 c 0.234375,0 0.2460938,-0.01171875 0.3164063,-0.1640625 z m 0,0"
       style="fill:#000000;fill-opacity:1;fill-rule:nonzero;stroke:none"
       aria-label="E"
       transform="matrix(1.3333333,0,0,1.3333333,18.508,27.318667)" />
  </g>
</svg>
