<?xml version="1.0" encoding="UTF-8" standalone="no"?>
<!-- Created with Inkscape (http://www.inkscape.org/) -->

<svg
   version="1.1"
   id="svg1"
   width="254.83583"
   height="265.10156"
   viewBox="0 0 254.83583 265.10156"
   xmlns="http://www.w3.org/2000/svg"
   xmlns:svg="http://www.w3.org/2000/svg">
  <defs
     id="defs1">
    <linearGradient
       x1="0"
       y1="0"
       x2="0"
       y2="100.00128"
       gradientUnits="userSpaceOnUse"
       id="linearGradient5">
      <stop
         style="stop-opacity:1;stop-color:#d3d5d9"
         offset="0"
         id="stop1" />
      <stop
         style="stop-opacity:1;stop-color:#d3d5d9"
         offset="0.25"
         id="stop2" />
      <stop
         style="stop-opacity:1;stop-color:#f0f1f2"
         offset="0.5"
         id="stop3" />
      <stop
         style="stop-opacity:1;stop-color:#d3d5d9"
         offset="0.75"
         id="stop4" />
      <stop
         style="stop-opacity:1;stop-color:#d3d5d9"
         offset="1"
         id="stop5" />
    </linearGradient>
    <clipPath
       clipPathUnits="userSpaceOnUse"
       id="clipPath6">
      <path
         d="m 255.43964,134.49467 c 0,-66.797657 -54.14865,-120.94631 -120.94631,-120.94631 -66.79765,0 -120.946303,54.148653 -120.946303,120.94631 0,66.79765 54.148653,120.9463 120.946303,120.9463 66.79766,0 120.94631,-54.14865 120.94631,-120.9463 z"
         id="path6" />
    </clipPath>
    <linearGradient
       x1="0"
       y1="0"
       x2="0"
       y2="100.00128"
       gradientUnits="userSpaceOnUse"
       id="linearGradient13">
      <stop
         style="stop-opacity:1;stop-color:#d3d5d9"
         offset="0"
         id="stop9" />
      <stop
         style="stop-opacity:1;stop-color:#d3d5d9"
         offset="0.25"
         id="stop10" />
      <stop
         style="stop-opacity:1;stop-color:#f0f1f2"
         offset="0.5"
         id="stop11" />
      <stop
         style="stop-opacity:1;stop-color:#d3d5d9"
         offset="0.75"
         id="stop12" />
      <stop
         style="stop-opacity:1;stop-color:#d3d5d9"
         offset="1"
         id="stop13" />
    </linearGradient>
    <clipPath
       clipPathUnits="userSpaceOnUse"
       id="clipPath14">
      <path
         d="m 172.28907,134.49467 c 0,-20.87427 -16.92147,-37.795737 -37.79574,-37.795737 -20.87426,0 -37.79573,16.921467 -37.79573,37.795737 0,20.87426 16.92147,37.79573 37.79573,37.79573 20.87427,0 37.79574,-16.92147 37.79574,-37.79573 z"
         id="path14" />
    </clipPath>
  </defs>
  <g
     id="g1"
     transform="translate(-13.28136,-13.2827)">
    <path
       id="path1"
       d="M 90.70973,0 C 90.70973,50.09824 50.09824,90.70973 0,90.70973 -50.09824,90.70973 -90.70973,50.09824 -90.70973,0 c 0,-50.09824 40.61149,-90.70973 90.70973,-90.70973 50.09824,0 90.70973,40.61149 90.70973,90.70973 z"
       style="fill:#d3d5d9;fill-opacity:1;fill-rule:nonzero;stroke:none"
       transform="matrix(1.3333333,0,0,-1.3333333,134.49333,134.49467)" />
    <g
       id="g5"
       clip-path="url(#clipPath6)">
      <path
         d="M 0,0 H 100 V 100 H 0 Z"
         transform="matrix(4.1636759,-2.4038867,-2.4038867,-4.1636759,46.50387,462.8728)"
         style="fill:url(#linearGradient5);stroke:none"
         id="path5" />
    </g>
    <path
       id="path7"
       d="M 90.70973,0 C 90.70973,50.09824 50.09824,90.70973 0,90.70973 -50.09824,90.70973 -90.70973,50.09824 -90.70973,0 c 0,-50.09824 40.61149,-90.70973 90.70973,-90.70973 50.09824,0 90.70973,40.61149 90.70973,90.70973 z"
       style="fill:none;stroke:#000000;stroke-width:0.3985;stroke-linecap:butt;stroke-linejoin:miter;stroke-miterlimit:10;stroke-dasharray:none;stroke-opacity:1"
       transform="matrix(1.3333333,0,0,-1.3333333,134.49333,134.49467)" />
    <path
       id="path8"
       d="M 56.69363,0 C 56.69363,31.31142 31.31142,56.69363 0,56.69363 -31.31142,56.69363 -56.69363,31.31142 -56.69363,0 c 0,-31.31142 25.38221,-56.69363 56.69363,-56.69363 31.31142,0 56.69363,25.38221 56.69363,56.69363 z"
       style="fill:#ffffff;fill-opacity:1;fill-rule:nonzero;stroke:#000000;stroke-width:0.3985;stroke-linecap:butt;stroke-linejoin:miter;stroke-miterlimit:10;stroke-dasharray:none;stroke-opacity:1"
       transform="matrix(1.3333333,0,0,-1.3333333,134.49333,134.49467)" />
    <path
       id="path9"
       d="M 28.3468,0 C 28.3468,15.6557 15.6557,28.3468 0,28.3468 -15.6557,28.3468 -28.3468,15.6557 -28.3468,0 c 0,-15.6557 12.6911,-28.3468 28.3468,-28.3468 15.6557,0 28.3468,12.6911 28.3468,28.3468 z"
       style="fill:#d3d5d9;fill-opacity:1;fill-rule:nonzero;stroke:none"
       transform="matrix(1.3333333,0,0,-1.3333333,134.49333,134.49467)" />
    <g
       id="g13"
       clip-path="url(#clipPath14)">
      <path
         d="M 0,0 H 100 V 100 H 0 Z"
         transform="matrix(1.3011466,-0.75121333,-0.75121333,-1.3011466,106.99667,237.11266)"
         style="fill:url(#linearGradient13);stroke:none"
         id="path13" />
    </g>
    <path
       id="path15"
       d="M 28.3468,0 C 28.3468,15.6557 15.6557,28.3468 0,28.3468 -15.6557,28.3468 -28.3468,15.6557 -28.3468,0 c 0,-15.6557 12.6911,-28.3468 28.3468,-28.3468 15.6557,0 28.3468,12.6911 28.3468,28.3468 z"
       style="fill:none;stroke:#000000;stroke-width:0.3985;stroke-linecap:butt;stroke-linejoin:miter;stroke-miterlimit:10;stroke-dasharray:none;stroke-opacity:1"
       transform="matrix(1.3333333,0,0,-1.3333333,134.49333,134.49467)" />
    <path
       id="path16"
       d="M 0,0 -18.22108,21.71469"
       style="fill:none;stroke:#000000;stroke-width:0.3985;stroke-linecap:butt;stroke-linejoin:miter;stroke-miterlimit:10;stroke-dasharray:none;stroke-opacity:1"
       transform="matrix(1.3333333,0,0,-1.3333333,134.49333,134.49467)" />
    <path
       id="path17"
       d="m 3.7375781,-6.1180234 c 0.058594,-0.234375 0.082031,-0.3398438 0.28125,-0.3632813 0.082031,-0.011719 0.3984375,-0.011719 0.5976563,-0.011719 0.7148437,0 1.8164062,0 1.8164062,0.984375 0,0.3398437 -0.1523437,1.0195312 -0.5507812,1.4179687 -0.2578125,0.2578125 -0.7851563,0.5742188 -1.6757813,0.5742188 H 3.0930469 Z m 1.4296875,2.7304687 c 1.0078125,-0.2226562 2.1914063,-0.9140625 2.1914063,-1.921875 0,-0.8554687 -0.890625,-1.5 -2.203125,-1.5 H 2.3196094 c -0.1992188,0 -0.2929688,0 -0.2929688,0.1992188 0,0.1171875 0.09375,0.1171875 0.28125,0.1171875 0.023437,0 0.2109375,0 0.3867188,0.011719 0.1757812,0.023437 0.2578125,0.035156 0.2578125,0.1640625 0,0.035156 0,0.070312 -0.035156,0.1875 l -1.3359375,5.35546876 c -0.09375,0.38671875 -0.1171875,0.46875 -0.90234372,0.46875 -0.17578125,0 -0.26953125,0 -0.26953125,0.19921875 0,0.1054687525 0.1171875,0.1054687525 0.140625,0.1054687525 0.28125,0 0.97265627,-0.0351562525 1.25390627,-0.0351562525 0.28125,0 0.984375,0.0351562525 1.265625,0.0351562525 0.082031,0 0.1992187,0 0.1992187,-0.1992187525 0,-0.10546875 -0.09375,-0.10546875 -0.28125,-0.10546875 -0.3632812,0 -0.6445312,0 -0.6445312,-0.1875 0,-0.0585938 0.011719,-0.10546875 0.023437,-0.1640625 l 0.65625,-2.63671876 h 1.1953125 c 0.9023437,0 1.078125,0.5507813 1.078125,0.9023438 0,0.1523437 -0.082031,0.4570312 -0.140625,0.6914062 -0.070312,0.2695313 -0.1523438,0.6445313 -0.1523438,0.84375001 0,1.078125 1.1953125,1.078125 1.3242188,1.078125 0.84375,0 1.1953125,-1.0078125 1.1953125,-1.1484375 0,-0.11718751 -0.1171875,-0.11718751 -0.1171875,-0.11718751 -0.09375,0 -0.1171875,0.0703125 -0.1289063,0.14062501 -0.2578125,0.73828125 -0.6796875,0.9023437525 -0.9140625,0.9023437525 -0.328125,0 -0.3984375,-0.2226562525 -0.3984375,-0.6093750025 0,-0.3046875 0.058594,-0.82031246 0.1054688,-1.13671876 0.011719,-0.140625 0.035156,-0.328125 0.035156,-0.46875 0,-0.7617187 -0.6679687,-1.078125 -0.9374996,-1.1718753 z m 0,0"
       style="fill:#000000;fill-opacity:1;fill-rule:nonzero;stroke:none"
       aria-label="R"
       transform="matrix(1.3333333,0,0,1.3333333,127.04,115.32533)" />
    <path
       id="path18"
       d="M 0,0 49.09824,28.3468"
       style="fill:none;stroke:#000000;stroke-width:0.3985;stroke-linecap:butt;stroke-linejoin:miter;stroke-miterlimit:10;stroke-dasharray:none;stroke-opacity:1"
       transform="matrix(1.3333333,0,0,-1.3333333,134.49333,134.49467)" />
    <path
       id="path19"
       d="m 3.7152109,-3.7619375 c -0.1757812,-0.375 -0.46875,-0.6445312 -0.9140625,-0.6445312 -1.171875,0 -2.40234371,1.4648437 -2.40234371,2.9179687 0,0.9375 0.55078125,1.59375 1.32421871,1.59375 0.1992188,0 0.703125,-0.03515625 1.3007813,-0.73828125 C 3.0941172,-0.222875 3.4456797,0.10525 3.9261484,0.10525 c 0.3515625,0 0.5742188,-0.22265625 0.7382813,-0.5390625 0.1640625,-0.36328125 0.2929687,-0.9726562 0.2929687,-0.9960937 0,-0.09375 -0.082031,-0.09375 -0.1171875,-0.09375 -0.09375,0 -0.1054687,0.035156 -0.140625,0.1757812 -0.1640625,0.64453125 -0.3515625,1.2421875 -0.75,1.2421875 -0.2695312,0 -0.3046875,-0.2578125 -0.3046875,-0.45703125 0,-0.22265625 0.023437,-0.3046875 0.1289063,-0.73828125 0.1171875,-0.421875 0.1289062,-0.5273437 0.2226562,-0.9023437 L 4.3480234,-3.597875 c 0.070312,-0.28125 0.070312,-0.2929687 0.070312,-0.3398437 0,-0.1640625 -0.1171875,-0.2695313 -0.28125,-0.2695313 -0.2460937,0 -0.3867187,0.2226563 -0.4218745,0.4453125 z m -0.6445312,2.578125 c -0.046875,0.1757813 -0.046875,0.19921875 -0.1992188,0.36328125 -0.4453125,0.55078125 -0.84375,0.71484375 -1.125,0.71484375 -0.5039062,0 -0.6445312,-0.55078125 -0.6445312,-0.9375 0,-0.5039062 0.328125,-1.7226562 0.5507812,-2.1796875 0.3046875,-0.5976562 0.7617188,-0.9609375 1.1601563,-0.9609375 0.6445312,0 0.7851562,0.8203125 0.7851562,0.8789063 0,0.058594 -0.023437,0.1171875 -0.035156,0.1640625 z m 0,0"
       style="fill:#000000;fill-opacity:1;fill-rule:nonzero;stroke:none"
       aria-label="a"
       transform="matrix(1.3333333,0,0,1.3333333,173.53467,105.23467)" />
    <path
       id="path20"
       d="M 0,0 -58.30743,-69.48697"
       style="fill:none;stroke:#000000;stroke-width:0.3985;stroke-linecap:butt;stroke-linejoin:miter;stroke-miterlimit:10;stroke-dasharray:none;stroke-opacity:1"
       transform="matrix(1.3333333,0,0,-1.3333333,134.49333,134.49467)" />
    <path
       id="path21"
       d="m 2.3781016,-6.808 c 0,0 0,-0.1054687 -0.1289063,-0.1054687 -0.2226562,0 -0.9492187,0.082031 -1.21875,0.1054687 -0.0703125,0 -0.18749999,0.011719 -0.18749999,0.1992188 0,0.1171875 0.09375,0.1171875 0.24609379,0.1171875 0.46875,0 0.4921875,0.070312 0.4921875,0.1640625 0,0.070312 -0.082031,0.4101562 -0.140625,0.6210937 l -0.80859379,3.2460938 c -0.12890625,0.5039062 -0.1640625,0.65625 -0.1640625,1.0078125 0,0.9492187 0.52734375,1.5585937 1.26562499,1.5585937 1.171875,0 2.4023438,-1.4765625 2.4023438,-2.9179687 0,-0.9023438 -0.5273438,-1.59375 -1.3242188,-1.59375 -0.4570312,0 -0.8671875,0.2929687 -1.171875,0.5976562 z m -0.9375,3.7734375 c 0.058594,-0.2226562 0.058594,-0.2460937 0.1523437,-0.3515625 0.4921875,-0.6445312 0.9375,-0.796875 1.1953125,-0.796875 0.3632813,0 0.6328125,0.2929688 0.6328125,0.9375 0,0.5859375 -0.328125,1.734375 -0.515625,2.109375 -0.328125,0.66796875 -0.7851562,1.03125 -1.171875,1.03125 -0.3398437,0 -0.6679687,-0.26953125 -0.6679687,-1.0078125 0,-0.1875 0,-0.3867187 0.1640625,-1.0078125 z m 0,0"
       style="fill:#000000;fill-opacity:1;fill-rule:nonzero;stroke:none"
       aria-label="b"
       transform="matrix(1.3333333,0,0,1.3333333,60.934667,205.07733)" />
    <path
       id="path22"
       d="m 0,-28.3468 v -14.1734 c 0,-8.50412 42.5202,-8.50412 42.5202,-28.3468"
       style="fill:none;stroke:#000000;stroke-width:0.3985;stroke-linecap:butt;stroke-linejoin:miter;stroke-miterlimit:10;stroke-dasharray:2.98883, 2.98883;stroke-dashoffset:0;stroke-opacity:1"
       transform="matrix(1.3333333,0,0,-1.3333333,134.49333,134.49467)" />
    <path
       id="path23"
       d="M 42.5202,-70.867 V -99.21382"
       style="fill:none;stroke:#000000;stroke-width:0.3985;stroke-linecap:butt;stroke-linejoin:miter;stroke-miterlimit:10;stroke-dasharray:none;stroke-opacity:1"
       transform="matrix(1.3333333,0,0,-1.3333333,134.49333,134.49467)" />
    <path
       id="path24"
       d="m 1.49442,-28.3468 c 0,0.82535 -0.66909,1.49441 -1.49442,1.49441 -0.82533,0 -1.49442,-0.66906 -1.49442,-1.49441 0,-0.82535 0.66909,-1.49442 1.49442,-1.49442 0.82533,0 1.49442,0.66907 1.49442,1.49442 z"
       style="fill:#000000;fill-opacity:1;fill-rule:nonzero;stroke:none"
       transform="matrix(1.3333333,0,0,-1.3333333,134.49333,134.49467)" />
    <path
       id="path25"
       d="M 28.3468,-99.21382 H 56.69362"
       style="fill:none;stroke:#000000;stroke-width:0.3985;stroke-linecap:butt;stroke-linejoin:miter;stroke-miterlimit:10;stroke-dasharray:none;stroke-opacity:1"
       transform="matrix(1.3333333,0,0,-1.3333333,134.49333,134.49467)" />
    <path
       id="path26"
       d="M 34.01608,-103.46567 H 51.02432"
       style="fill:none;stroke:#000000;stroke-width:0.3985;stroke-linecap:butt;stroke-linejoin:miter;stroke-miterlimit:10;stroke-dasharray:none;stroke-opacity:1"
       transform="matrix(1.3333333,0,0,-1.3333333,134.49333,134.49467)" />
    <path
       id="path27"
       d="m 39.68535,-107.71794 h 5.66971"
       style="fill:none;stroke:#000000;stroke-width:0.3985;stroke-linecap:butt;stroke-linejoin:miter;stroke-miterlimit:10;stroke-dasharray:none;stroke-opacity:1"
       transform="matrix(1.3333333,0,0,-1.3333333,134.49333,134.49467)" />
    <path
       id="path28"
       d="m 5.4501563,-6.4575 c 0.070312,-0.1054687 0.070312,-0.1171875 0.070312,-0.1875 0,-0.1640625 -0.058594,-0.1640625 -0.2578125,-0.1640625 H 0.7978125 l -0.10546875,2.25 H 0.9384375 c 0.0703125,-1.125 0.3632813,-1.9335937 2.0039063,-1.9335937 H 4.5009375 L 0.63375,-0.36375 c -0.0703125,0.10546875 -0.0703125,0.1171875 -0.0703125,0.19921875 0,0.1640625 0.046875,0.1640625 0.2578125,0.1640625 H 5.415 L 5.5790625,-2.660625 H 5.3329688 c -0.082031,1.3828125 -0.2695313,2.3203125 -2.109375,2.3203125 h -1.640625 z m 3.5683593,0.082031 c 0,-0.234375 0,-0.2578125 -0.234375,-0.2578125 -0.609375,0.6328125 -1.4882812,0.6328125 -1.8046875,0.6328125 v 0.3164062 c 0.1992188,0 0.7851563,0 1.3007813,-0.2578125 v 5.15625 c 0,0.3515625 -0.035156,0.48046875 -0.9257813,0.48046875 H 7.0380469 v 0.3046875 C 7.3896094,-0.035625 8.2450781,-0.035625 8.6435156,-0.035625 c 0.3984375,0 1.265625,0 1.6171874,0.03515625 v -0.3046875 H 9.9442969 c -0.9023438,0 -0.9257813,-0.1171875 -0.9257813,-0.48046875 z m 0,0"
       style="fill:#ff0000;fill-opacity:1;fill-rule:nonzero;stroke:none"
       aria-label="Z1"
       transform="matrix(1.3333333,0,0,1.3333333,152.28,137.36)" />
    <path
       id="path29"
       d="m 5.4489297,-6.4576406 c 0.070312,-0.1054688 0.070312,-0.1171875 0.070312,-0.1875 0,-0.1640625 -0.058594,-0.1640625 -0.2578125,-0.1640625 H 0.79658594 l -0.10546875,2.25 h 0.24609375 c 0.0703125,-1.125 0.36328126,-1.9335938 2.00390626,-1.9335938 h 1.5585937 l -3.86718746,6.12890628 c -0.0703125,0.10546875 -0.0703125,0.1171875 -0.0703125,0.19921875 0,0.164062495 0.046875,0.164062495 0.2578125,0.164062495 H 5.4137734 L 5.5778359,-2.6607656 H 5.3317422 c -0.082031,1.3828125 -0.2695313,2.32031248 -2.109375,2.32031248 h -1.640625 z m 1.9042969,5.69531248 1.0546875,-1.03124998 c 1.5585937,-1.3710938 2.1562499,-1.9101563 2.1562499,-2.90625 0,-1.1367188 -0.9023437,-1.9335938 -2.1210937,-1.9335938 -1.125,0 -1.8515625,0.9140625 -1.8515625,1.8046875 0,0.5507813 0.4921875,0.5507813 0.5273438,0.5507813 0.1640625,0 0.515625,-0.1171875 0.515625,-0.5273438 0,-0.2578125 -0.1875,-0.515625 -0.5273438,-0.515625 -0.082031,0 -0.1054687,0 -0.1289062,0.011719 0.2226562,-0.6445313 0.7617187,-1.0195313 1.3359375,-1.0195313 0.9140625,0 1.3359375,0.8085938 1.3359375,1.6289063 0,0.796875 -0.4921875,1.5820312 -1.0429688,2.203125 L 6.6969766,-0.36389062 C 6.5915078,-0.25842187 6.5915078,-0.23498437 6.5915078,-6.09375e-4 h 3.6914062 l 0.28125,-1.734375025 h -0.257812 c -0.04687,0.3046875 -0.117188,0.73828128 -0.210938,0.89062503 -0.07031,0.0820313 -0.7265624,0.0820313 -0.9492187,0.0820313 z m 0,0"
       style="fill:#ff0000;fill-opacity:1;fill-rule:nonzero;stroke:none"
       aria-label="Z2"
       transform="matrix(1.3333333,0,0,1.3333333,181.73867,154.368)" />
    <path
       id="path30"
       d="m 5.4488594,-6.4558437 c 0.070312,-0.1054688 0.070312,-0.1171875 0.070312,-0.1875 0,-0.1640625 -0.058594,-0.1640625 -0.2578125,-0.1640625 H 0.79651563 l -0.10546875,2.25 H 0.93714063 C 1.0074531,-5.6824062 1.3004219,-6.491 2.9410469,-6.491 h 1.5585937 l -3.86718747,6.12890625 c -0.0703125,0.10546875 -0.0703125,0.1171875 -0.0703125,0.19921875 0,0.1640625 0.046875,0.1640625 0.2578125,0.1640625 H 5.4137031 L 5.5777656,-2.6589687 H 5.3316719 c -0.082031,1.3828125 -0.2695313,2.32031245 -2.109375,2.32031245 h -1.640625 z m 3.5332031,2.953125 C 9.7906563,-3.77225 10.376594,-4.475375 10.376594,-5.2605312 c 0,-0.8203125 -0.8789065,-1.3710938 -1.839844,-1.3710938 -1.0078125,0 -1.7578125,0.5976563 -1.7578125,1.3476563 0,0.3398437 0.2109375,0.5273437 0.5039063,0.5273437 0.3046875,0 0.5039062,-0.2226562 0.5039062,-0.515625 0,-0.4921875 -0.46875,-0.4921875 -0.609375,-0.4921875 0.3046875,-0.4921875 0.9609375,-0.6210937 1.3242188,-0.6210937 0.4101562,0 0.9492187,0.2226562 0.9492187,1.1132812 0,0.1289063 -0.011719,0.703125 -0.2695312,1.1367188 -0.3046875,0.4804687 -0.6445313,0.515625 -0.890625,0.515625 -0.082031,0.011719 -0.3164063,0.035156 -0.3867188,0.035156 -0.082031,0.011719 -0.1523437,0.023437 -0.1523437,0.1171875 0,0.1171875 0.070312,0.1171875 0.234375,0.1171875 h 0.4453125 c 0.8085937,0 1.1835937,0.6679688 1.1835937,1.6523438 0,1.3476562 -0.6914062,1.64062495 -1.125,1.64062495 -0.4335937,0 -1.171875,-0.17578125 -1.5234375,-0.76171875 0.3515625,0.0585938 0.65625,-0.1640625 0.65625,-0.5390625 0,-0.3632812 -0.2695312,-0.5625 -0.5625,-0.5625 -0.234375,0 -0.5507812,0.140625 -0.5507812,0.5742188 0,0.91406245 0.9257812,1.57031245 2.0039062,1.57031245 1.21875,0 2.1210935,-0.9140625 2.1210935,-1.92187495 0,-0.8203125 -0.621093,-1.59375 -1.6523435,-1.8046873 z m 0,0"
       style="fill:#ff0000;fill-opacity:1;fill-rule:nonzero;stroke:none"
       aria-label="Z3"
       transform="matrix(1.3333333,0,0,1.3333333,217.74267,175.15467)" />
    <path
       id="path31"
       d="m 5.4477891,-6.4579766 c 0.070312,-0.1054687 0.070312,-0.1171875 0.070312,-0.1875 0,-0.1640625 -0.058594,-0.1640625 -0.2578125,-0.1640625 H 0.79544531 l -0.10546875,2.25 h 0.24609375 c 0.0703125,-1.125 0.36328129,-1.9335937 2.00390629,-1.9335937 h 1.5585937 l -3.86718749,6.12890624 c -0.0703125,0.10546875 -0.0703125,0.1171875 -0.0703125,0.19921875 0,0.1640624975 0.046875,0.1640624975 0.2578125,0.1640624975 H 5.4126328 L 5.5766953,-2.6611016 H 5.3306016 c -0.082031,1.3828125 -0.2695313,2.32031254 -2.109375,2.32031254 h -1.640625 z m 3.571289,4.8164063 v 0.86718749 c 0,0.3515625 -0.023437,0.46875 -0.7617187,0.46875 H 8.0464219 V -9.453125e-4 C 8.4565781,-0.03610156 8.9839219,-0.03610156 9.3940781,-0.03610156 c 0.421875,0 0.9492189,0 1.3593749,0.0351562475 V -0.30563281 h -0.210937 c -0.7382816,0 -0.7617191,-0.1171875 -0.7617191,-0.46875 V -1.6415703 H 10.776891 V -1.9579766 H 9.7807969 v -4.5234375 c 0,-0.1992187 0,-0.2578125 -0.1523438,-0.2578125 -0.09375,0 -0.1171875,0 -0.1992187,0.1171875 l -3.0585938,4.6640625 v 0.3164063 z m 0.058594,-0.3164063 H 6.6518906 l 2.4257813,-3.7148437 z m 0,0"
       style="fill:#ff0000;fill-opacity:1;fill-rule:nonzero;stroke:none"
       aria-label="Z4"
       transform="matrix(1.3333333,0,0,1.3333333,253.748,195.94267)" />
  </g>
</svg>
