<?xml version="1.0" encoding="UTF-8" standalone="no"?>
<!-- Created with Inkscape (http://www.inkscape.org/) -->

<svg
   version="1.1"
   id="svg1"
   width="420.754"
   height="264.54904"
   viewBox="0 0 420.754 264.54904"
   xmlns="http://www.w3.org/2000/svg"
   xmlns:svg="http://www.w3.org/2000/svg">
  <defs
     id="defs1" />
  <g
     id="g1"
     transform="translate(-13.281168,-13.822807)">
    <path
       id="path1"
       d="m -70.867,0 v 0 c 0,12.52458 10.15292,22.67752 22.67753,22.67752 H 48.18947 C 60.71408,22.67752 70.867,12.52458 70.867,0 v 0 c 0,-12.52458 -10.15292,-22.67752 -22.67753,-22.67752 H -48.18947 C -60.71408,-22.67752 -70.867,-12.52458 -70.867,0 Z"
       style="fill:none;stroke:#009900;stroke-width:0.79701;stroke-linecap:butt;stroke-linejoin:miter;stroke-miterlimit:10;stroke-dasharray:2.98883, 2.98883;stroke-dashoffset:0;stroke-opacity:1"
       transform="matrix(1.3333333,0,0,-1.3333333,183.89333,146.09733)" />
    <path
       id="path2"
       d="m -90.7097,0 v 0 c 0,23.48354 19.03667,42.5202 42.52023,42.5202 H 48.18947 C 71.67303,42.5202 90.7097,23.48354 90.7097,0 v 0 c 0,-23.48354 -19.03667,-42.5202 -42.52023,-42.5202 h -96.37894 c -23.48356,0 -42.52023,19.03666 -42.52023,42.5202 z"
       style="fill:none;stroke:#009900;stroke-width:0.79701;stroke-linecap:butt;stroke-linejoin:miter;stroke-miterlimit:10;stroke-dasharray:2.98883, 2.98883;stroke-dashoffset:0;stroke-opacity:1"
       transform="matrix(1.3333333,0,0,-1.3333333,183.89333,146.09733)" />
    <path
       id="path3"
       d="m -127.56062,2e-5 v -4e-5 c 0,39.13927 31.72775,70.86702 70.86703,70.86702 H 56.69359 c 39.13928,0 70.86703,-31.72775 70.86703,-70.86702 v 4e-5 c 0,-39.13927 -31.72775,-70.86702 -70.86703,-70.86702 H -56.69359 c -39.13928,0 -70.86703,31.72775 -70.86703,70.86702 z"
       style="fill:none;stroke:#009900;stroke-width:0.79701;stroke-linecap:butt;stroke-linejoin:miter;stroke-miterlimit:10;stroke-dasharray:2.98883, 2.98883;stroke-dashoffset:0;stroke-opacity:1"
       transform="matrix(1.3333333,0,0,-1.3333333,183.89333,146.09733)" />
    <g
       id="g3"
       aria-label="V&#10;1&#10;&gt;V&#10;2&#10;&gt;V&#10;3"
       transform="matrix(1.3333333,0,0,1.3333333,358.66533,149.64)">
      <path
         id="path4"
         d="M 6.2568594,-5.6714063 C 6.7373281,-6.4448438 7.1592031,-6.48 7.5342031,-6.4917188 c 0.1171875,-0.011719 0.1289063,-0.1875 0.1289063,-0.1875 0,-0.082031 -0.058594,-0.1289062 -0.1289063,-0.1289062 -0.2578125,0 -0.5507812,0.035156 -0.8203125,0.035156 -0.328125,0 -0.6679687,-0.035156 -0.984375,-0.035156 -0.058594,0 -0.1875,0 -0.1875,0.1992187 0,0.1054688 0.082031,0.1171875 0.1523438,0.1171875 0.2695312,0.011719 0.4570312,0.1171875 0.4570312,0.328125 0,0.1523438 -0.140625,0.3632813 -0.140625,0.375 L 2.9521719,-0.9253125 2.2724844,-6.19875 c 0,-0.1640625 0.2226562,-0.2929688 0.6796875,-0.2929688 0.140625,0 0.2578125,0 0.2578125,-0.1992187 0,-0.09375 -0.082031,-0.1171875 -0.140625,-0.1171875 -0.3984375,0 -0.8320313,0.035156 -1.2421875,0.035156 -0.1757813,0 -0.3632813,-0.011719 -0.5390625,-0.011719 -0.1875,0 -0.37500002,-0.023437 -0.53906252,-0.023437 -0.0703125,0 -0.1875,0 -0.1875,0.1992187 0,0.1171875 0.0820313,0.1171875 0.24609375,0.1171875 0.55078127,0 0.56249997,0.082031 0.59765627,0.3398438 l 0.7851562,6.140625 c 0.035156,0.19921875 0.070312,0.234375 0.1992188,0.234375 0.1640625,0 0.1992187,-0.0585938 0.28125,-0.1875 z m 0,0"
         style="fill:#009900;fill-opacity:1;fill-rule:nonzero;stroke:none" />
      <path
         id="path5"
         d="m 8.1435781,-2.9350781 c 0,-0.1875 -0.011719,-0.1992188 -0.2109375,-0.1992188 -0.4453125,0.4335938 -1.078125,0.4453125 -1.359375,0.4453125 v 0.2460938 c 0.1640625,0 0.6210938,0 1.0078125,-0.1875 v 3.55078122 c 0,0.23437498 0,0.32812498 -0.6914062,0.32812498 H 6.6201406 v 0.2460938 c 0.1289063,-0.011719 0.984375,-0.023437 1.2421875,-0.023437 0.2109375,0 1.0898438,0.011719 1.2421875,0.023437 V 1.2485156 H 8.8467031 c -0.703125,0 -0.703125,-0.09375 -0.703125,-0.32812498 z m 0,0"
         style="fill:#009900;fill-opacity:1;fill-rule:nonzero;stroke:none" />
      <path
         id="path6"
         d="m 19.774438,-2.2729688 c 0.105468,-0.046875 0.1875,-0.09375 0.1875,-0.2226562 0,-0.1171875 -0.08203,-0.1640625 -0.1875,-0.2109375 L 14.254906,-5.308125 C 14.126,-5.378437 14.102563,-5.378437 14.079125,-5.378437 c -0.117187,0 -0.199219,0.09375 -0.199219,0.1992187 0,0.09375 0.04687,0.1523438 0.1875,0.2226563 l 5.226563,2.4609375 -5.226563,2.47265625 c -0.140625,0.0703125 -0.1875,0.12890625 -0.1875,0.22265625 0,0.10546875 0.08203,0.19921875 0.199219,0.19921875 0.02344,0 0.04687,0 0.175781,-0.0703125 z m 10.048828,-3.3984375 c 0.480468,-0.7734375 0.902343,-0.8085937 1.277343,-0.8203125 0.117188,-0.011719 0.128907,-0.1875 0.128907,-0.1875 0,-0.082031 -0.05859,-0.1289062 -0.128907,-0.1289062 -0.257812,0 -0.550781,0.035156 -0.820312,0.035156 -0.328125,0 -0.667969,-0.035156 -0.984375,-0.035156 -0.05859,0 -0.1875,0 -0.1875,0.1992187 0,0.1054688 0.08203,0.1171875 0.152344,0.1171875 0.269531,0.011719 0.457031,0.1171875 0.457031,0.328125 0,0.1523438 -0.140625,0.3632813 -0.140625,0.375 L 26.518578,-0.9253125 25.838891,-6.19875 c 0,-0.1640625 0.222656,-0.2929688 0.679687,-0.2929688 0.140625,0 0.257813,0 0.257813,-0.1992187 0,-0.09375 -0.08203,-0.1171875 -0.140625,-0.1171875 -0.398438,0 -0.832032,0.035156 -1.242188,0.035156 -0.175781,0 -0.363281,-0.011719 -0.539062,-0.011719 -0.1875,0 -0.375,-0.023437 -0.539063,-0.023437 -0.07031,0 -0.1875,0 -0.1875,0.1992187 0,0.1171875 0.08203,0.1171875 0.246094,0.1171875 0.550781,0 0.5625,0.082031 0.597656,0.3398438 l 0.785156,6.140625 c 0.03516,0.19921875 0.07031,0.234375 0.199219,0.234375 0.164063,0 0.199219,-0.0585938 0.28125,-0.1875 z m 0,0"
         style="fill:#009900;fill-opacity:1;fill-rule:nonzero;stroke:none" />
      <path
         id="path7"
         d="m 32.890648,0.22898437 h -0.234375 c -0.02344,0.15234375 -0.08203,0.5625 -0.175781,0.6328125 -0.05859,0.0351563 -0.597656,0.0351563 -0.691406,0.0351563 h -1.289063 c 0.738282,-0.64453125 0.984375,-0.84375 1.394532,-1.171875 0.515625,-0.41015625 0.996093,-0.84374997 0.996093,-1.50000007 0,-0.84375 -0.738281,-1.359375 -1.628906,-1.359375 -0.867187,0 -1.453125,0.609375 -1.453125,1.2421875 0,0.3632813 0.304688,0.3984375 0.375,0.3984375 0.164063,0 0.375,-0.1171875 0.375,-0.375 0,-0.1289062 -0.05859,-0.3632812 -0.421875,-0.3632812 0.222656,-0.5039063 0.691406,-0.65625 1.019531,-0.65625 0.703125,0 1.066407,0.5507812 1.066407,1.1132813 0,0.609375 -0.433594,1.08984372 -0.65625,1.33593747 l -1.6875,1.66406253 c -0.07031,0.058594 -0.07031,0.070312 -0.07031,0.2695312 h 2.882813 z m 0,0"
         style="fill:#009900;fill-opacity:1;fill-rule:nonzero;stroke:none" />
      <path
         id="path8"
         d="m 43.337914,-2.2729688 c 0.105469,-0.046875 0.1875,-0.09375 0.1875,-0.2226562 0,-0.1171875 -0.08203,-0.1640625 -0.1875,-0.2109375 L 37.818383,-5.308125 c -0.128906,-0.070312 -0.152344,-0.070312 -0.175781,-0.070312 -0.117188,0 -0.199219,0.09375 -0.199219,0.1992187 0,0.09375 0.04687,0.1523438 0.1875,0.2226563 l 5.226562,2.4609375 -5.226562,2.47265625 c -0.140625,0.0703125 -0.1875,0.12890625 -0.1875,0.22265625 0,0.10546875 0.08203,0.19921875 0.199219,0.19921875 0.02344,0 0.04687,0 0.175781,-0.0703125 z m 10.051758,-3.3984375 c 0.480469,-0.7734375 0.902344,-0.8085937 1.277344,-0.8203125 0.117187,-0.011719 0.128906,-0.1875 0.128906,-0.1875 0,-0.082031 -0.05859,-0.1289062 -0.128906,-0.1289062 -0.257813,0 -0.550782,0.035156 -0.820313,0.035156 -0.328125,0 -0.667969,-0.035156 -0.984375,-0.035156 -0.05859,0 -0.1875,0 -0.1875,0.1992187 0,0.1054688 0.08203,0.1171875 0.152344,0.1171875 0.269531,0.011719 0.457031,0.1171875 0.457031,0.328125 0,0.1523438 -0.140625,0.3632813 -0.140625,0.375 L 50.084984,-0.9253125 49.405297,-6.19875 c 0,-0.1640625 0.222656,-0.2929688 0.679687,-0.2929688 0.140625,0 0.257813,0 0.257813,-0.1992187 0,-0.09375 -0.08203,-0.1171875 -0.140625,-0.1171875 -0.398438,0 -0.832031,0.035156 -1.242188,0.035156 -0.175781,0 -0.363281,-0.011719 -0.539062,-0.011719 -0.1875,0 -0.375,-0.023437 -0.539063,-0.023437 -0.07031,0 -0.1875,0 -0.1875,0.1992187 0,0.1171875 0.08203,0.1171875 0.246094,0.1171875 0.550781,0 0.5625,0.082031 0.597656,0.3398438 l 0.785157,6.140625 c 0.03516,0.19921875 0.07031,0.234375 0.199218,0.234375 0.164063,0 0.199219,-0.0585938 0.28125,-0.1875 z m 0,0"
         style="fill:#009900;fill-opacity:1;fill-rule:nonzero;stroke:none" />
      <path
         id="path9"
         d="m 54.839867,-0.83742188 c 0.550781,0 0.9375,0.375 0.9375,1.125 0,0.86718748 -0.503906,1.12499998 -0.902344,1.12499998 -0.28125,0 -0.890625,-0.082031 -1.183593,-0.49218748 0.328125,-0.0117188 0.398437,-0.24609375 0.398437,-0.38671875 0,-0.22265625 -0.164062,-0.38671875 -0.386719,-0.38671875 -0.1875,0 -0.386718,0.1171875 -0.386718,0.41015625 0,0.65625003 0.726562,1.07812503 1.570312,1.07812503 0.972656,0 1.640625,-0.64453128 1.640625,-1.34765628 0,-0.5390625 -0.445312,-1.08984375 -1.21875,-1.2421875 0.738281,-0.26953122 0.996094,-0.79687502 0.996094,-1.21875002 0,-0.5507812 -0.632813,-0.9609375 -1.40625,-0.9609375 -0.773438,0 -1.359375,0.375 -1.359375,0.9375 0,0.234375 0.152344,0.3632813 0.363281,0.3632813 0.210938,0 0.351563,-0.1640625 0.351563,-0.3515625 0,-0.1992188 -0.140625,-0.3515625 -0.351563,-0.3632813 0.234375,-0.3046875 0.714844,-0.3867187 0.972656,-0.3867187 0.316407,0 0.761719,0.1523437 0.761719,0.7617187 0,0.2929688 -0.105469,0.609375 -0.28125,0.8320313 -0.234375,0.2578125 -0.421875,0.28125 -0.773437,0.2929687 -0.175782,0.023437 -0.1875,0.023437 -0.222657,0.023437 -0.01172,0 -0.07031,0.011719 -0.07031,0.09375 0,0.09375 0.05859,0.09375 0.175781,0.09375 z m 0,0"
         style="fill:#009900;fill-opacity:1;fill-rule:nonzero;stroke:none" />
    </g>
    <path
       id="path10"
       d="M -14.64091,17.5301 H -2.36732 V 27.8249 H -14.64091 Z"
       style="fill:#ffffff;fill-opacity:1;fill-rule:nonzero;stroke:none"
       transform="matrix(1.3333333,0,0,-1.3333333,183.89333,146.09733)" />
    <g
       id="g10"
       aria-label="V&#10;1"
       transform="matrix(1.3333333,0,0,1.3333333,165.70133,119.404)">
      <path
         id="path11"
         d="M 6.2591562,-5.6731172 C 6.739625,-6.4465547 7.1615,-6.4817109 7.5365,-6.4934297 c 0.1171875,-0.011719 0.1289062,-0.1875 0.1289062,-0.1875 0,-0.082031 -0.058594,-0.1289062 -0.1289062,-0.1289062 -0.2578125,0 -0.5507813,0.035156 -0.8203125,0.035156 -0.328125,0 -0.6679688,-0.035156 -0.984375,-0.035156 -0.058594,0 -0.1875,0 -0.1875,0.1992187 0,0.1054688 0.082031,0.1171875 0.1523437,0.1171875 0.2695313,0.011719 0.4570313,0.1171875 0.4570313,0.328125 0,0.1523438 -0.140625,0.3632813 -0.140625,0.375 L 2.9544687,-0.92702344 2.2747812,-6.2004609 c 0,-0.1640625 0.2226563,-0.2929688 0.6796875,-0.2929688 0.140625,0 0.2578125,0 0.2578125,-0.1992187 0,-0.09375 -0.082031,-0.1171875 -0.140625,-0.1171875 -0.3984375,0 -0.8320312,0.035156 -1.2421875,0.035156 -0.1757812,0 -0.3632812,-0.011719 -0.5390625,-0.011719 -0.1875,0 -0.37499995,-0.023437 -0.53906245,-0.023437 -0.0703125,0 -0.1875,0 -0.1875,0.1992187 0,0.1171875 0.0820313,0.1171875 0.24609375,0.1171875 0.5507812,0 0.5625,0.082031 0.5976562,0.3398438 L 2.19275,-0.01296094 c 0.035156,0.19921875 0.070312,0.234375 0.1992187,0.234375 0.1640625,0 0.1992188,-0.0585938 0.28125,-0.1875 z m 0,0"
         style="fill:#009900;fill-opacity:1;fill-rule:nonzero;stroke:none" />
      <path
         id="path12"
         d="m 8.1429453,-2.9367891 c 0,-0.1875 -0.011719,-0.1992187 -0.2109375,-0.1992187 -0.4453125,0.4335937 -1.078125,0.4453125 -1.359375,0.4453125 v 0.2460937 c 0.1640625,0 0.6210938,0 1.0078125,-0.1875 v 3.55078129 c 0,0.23437501 0,0.32812501 -0.6914062,0.32812501 H 6.6195078 v 0.2460937 c 0.1289063,-0.011719 0.984375,-0.023437 1.2421875,-0.023437 0.2109375,0 1.0898438,0.011719 1.2421875,0.023437 V 1.2468047 H 8.8460703 c -0.703125,0 -0.703125,-0.09375 -0.703125,-0.32812501 z m 0,0"
         style="fill:#009900;fill-opacity:1;fill-rule:nonzero;stroke:none" />
    </g>
    <path
       id="path13"
       d="m -14.64091,37.37279 h 12.27359 v 10.2948 h -12.27359 z"
       style="fill:#ffffff;fill-opacity:1;fill-rule:nonzero;stroke:none"
       transform="matrix(1.3333333,0,0,-1.3333333,183.89333,146.09733)" />
    <g
       id="g13"
       aria-label="V&#10;2"
       transform="matrix(1.3333333,0,0,1.3333333,165.70133,92.946667)">
      <path
         id="path14"
         d="M 6.2591562,-5.6728906 C 6.739625,-6.4463281 7.1615,-6.4814844 7.5365,-6.4932031 c 0.1171875,-0.011719 0.1289062,-0.1875 0.1289062,-0.1875 0,-0.082031 -0.058594,-0.1289063 -0.1289062,-0.1289063 -0.2578125,0 -0.5507813,0.035156 -0.8203125,0.035156 -0.328125,0 -0.6679688,-0.035156 -0.984375,-0.035156 -0.058594,0 -0.1875,0 -0.1875,0.1992188 0,0.1054687 0.082031,0.1171875 0.1523437,0.1171875 0.2695313,0.011719 0.4570313,0.1171875 0.4570313,0.328125 0,0.1523437 -0.140625,0.3632812 -0.140625,0.375 L 2.9544687,-0.92679688 2.2747812,-6.2002344 c 0,-0.1640625 0.2226563,-0.2929687 0.6796875,-0.2929687 0.140625,0 0.2578125,0 0.2578125,-0.1992188 0,-0.09375 -0.082031,-0.1171875 -0.140625,-0.1171875 -0.3984375,0 -0.8320312,0.035156 -1.2421875,0.035156 -0.1757812,0 -0.3632812,-0.011719 -0.5390625,-0.011719 -0.1875,0 -0.37499995,-0.023437 -0.53906245,-0.023437 -0.0703125,0 -0.1875,0 -0.1875,0.1992188 0,0.1171875 0.0820313,0.1171875 0.24609375,0.1171875 0.5507812,0 0.5625,0.082031 0.5976562,0.3398437 L 2.19275,-0.01273438 c 0.035156,0.19921875 0.070312,0.234375 0.1992187,0.234375 0.1640625,0 0.1992188,-0.0585938 0.28125,-0.1875 z m 0,0"
         style="fill:#009900;fill-opacity:1;fill-rule:nonzero;stroke:none" />
      <path
         id="path15"
         d="m 9.3265391,0.23042969 h -0.234375 c -0.023437,0.15234375 -0.082031,0.5625 -0.1757813,0.6328125 -0.058594,0.0351563 -0.5976562,0.0351563 -0.6914062,0.0351563 H 6.9359141 c 0.7382812,-0.64453125 0.984375,-0.84375 1.3945312,-1.171875 0.515625,-0.41015625 0.9960938,-0.84374999 0.9960938,-1.49999999 0,-0.84375 -0.7382813,-1.359375 -1.6289063,-1.359375 -0.8671875,0 -1.453125,0.609375 -1.453125,1.2421875 0,0.3632813 0.3046875,0.3984375 0.375,0.3984375 0.1640625,0 0.375,-0.1171875 0.375,-0.375 0,-0.1289062 -0.058594,-0.3632812 -0.421875,-0.3632812 0.2226563,-0.5039063 0.6914063,-0.65625 1.0195313,-0.65625 0.703125,0 1.0664062,0.5507812 1.0664062,1.1132812 0,0.609375 -0.4335937,1.08984374 -0.65625,1.33593749 l -1.6875,1.66406251 c -0.070312,0.058594 -0.070312,0.070312 -0.070312,0.2695313 h 2.8828125 z m 0,0"
         style="fill:#009900;fill-opacity:1;fill-rule:nonzero;stroke:none" />
    </g>
    <path
       id="path16"
       d="M -14.64091,65.7196 H -2.36732 V 76.0144 H -14.64091 Z"
       style="fill:#ffffff;fill-opacity:1;fill-rule:nonzero;stroke:none"
       transform="matrix(1.3333333,0,0,-1.3333333,183.89333,146.09733)" />
    <g
       id="g16"
       aria-label="V&#10;3"
       transform="matrix(1.3333333,0,0,1.3333333,165.70133,55.152)">
      <path
         id="path17"
         d="M 6.2591562,-5.6716172 C 6.739625,-6.4450547 7.1615,-6.4802109 7.5365,-6.4919297 c 0.1171875,-0.011719 0.1289062,-0.1875 0.1289062,-0.1875 0,-0.082031 -0.058594,-0.1289062 -0.1289062,-0.1289062 -0.2578125,0 -0.5507813,0.035156 -0.8203125,0.035156 -0.328125,0 -0.6679688,-0.035156 -0.984375,-0.035156 -0.058594,0 -0.1875,0 -0.1875,0.1992187 0,0.1054688 0.082031,0.1171875 0.1523437,0.1171875 0.2695313,0.011719 0.4570313,0.1171875 0.4570313,0.328125 0,0.1523438 -0.140625,0.3632813 -0.140625,0.375 L 2.9544687,-0.92552344 2.2747812,-6.1989609 c 0,-0.1640625 0.2226563,-0.2929688 0.6796875,-0.2929688 0.140625,0 0.2578125,0 0.2578125,-0.1992187 0,-0.09375 -0.082031,-0.1171875 -0.140625,-0.1171875 -0.3984375,0 -0.8320312,0.035156 -1.2421875,0.035156 -0.1757812,0 -0.3632812,-0.011719 -0.5390625,-0.011719 -0.1875,0 -0.37499995,-0.023437 -0.53906245,-0.023437 -0.0703125,0 -0.1875,0 -0.1875,0.1992187 0,0.1171875 0.0820313,0.1171875 0.24609375,0.1171875 0.5507812,0 0.5625,0.082031 0.5976562,0.3398438 L 2.19275,-0.01146094 c 0.035156,0.19921875 0.070312,0.234375 0.1992187,0.234375 0.1640625,0 0.1992188,-0.0585938 0.28125,-0.1875 z m 0,0"
         style="fill:#009900;fill-opacity:1;fill-rule:nonzero;stroke:none" />
      <path
         id="path18"
         d="m 7.7093516,-0.83763281 c 0.5507812,0 0.9375,0.375 0.9375,1.125 0,0.86718751 -0.5039063,1.12500001 -0.9023438,1.12500001 -0.28125,0 -0.890625,-0.082031 -1.1835937,-0.49218751 0.328125,-0.0117188 0.3984375,-0.24609375 0.3984375,-0.38671875 0,-0.22265625 -0.1640625,-0.38671875 -0.3867188,-0.38671875 -0.1875,0 -0.3867187,0.1171875 -0.3867187,0.41015625 0,0.65624996 0.7265625,1.07812496 1.5703125,1.07812496 0.9726562,0 1.640625,-0.64453121 1.640625,-1.34765621 0,-0.5390625 -0.4453125,-1.08984375 -1.21875,-1.2421875 0.7382812,-0.26953129 0.9960937,-0.79687499 0.9960937,-1.21874999 0,-0.5507813 -0.6328125,-0.9609375 -1.40625,-0.9609375 -0.7734375,0 -1.359375,0.375 -1.359375,0.9375 0,0.234375 0.1523438,0.3632812 0.3632813,0.3632812 0.2109375,0 0.3515625,-0.1640625 0.3515625,-0.3515625 0,-0.1992187 -0.140625,-0.3515625 -0.3515625,-0.3632812 0.234375,-0.3046875 0.7148437,-0.3867188 0.9726562,-0.3867188 0.3164063,0 0.7617188,0.1523438 0.7617188,0.7617188 0,0.2929687 -0.1054688,0.609375 -0.28125,0.8320312 -0.234375,0.2578125 -0.421875,0.28125 -0.7734375,0.2929688 -0.1757813,0.023437 -0.1875,0.023437 -0.2226563,0.023437 -0.011719,0 -0.070312,0.011719 -0.070312,0.09375 0,0.09375 0.058594,0.09375 0.1757813,0.09375 z m 0,0"
         style="fill:#009900;fill-opacity:1;fill-rule:nonzero;stroke:none" />
    </g>
    <path
       id="path19"
       d="m -62.36288,-4.25183 v 8.50366 c 0,1.56566 1.26919,2.83486 2.83485,2.83486 H 59.52803 c 1.56566,0 2.83485,-1.2692 2.83485,-2.83486 v -8.50366 c 0,-1.56566 -1.26919,-2.83486 -2.83485,-2.83486 H -59.52803 c -1.56566,0 -2.83485,1.2692 -2.83485,2.83486 z"
       style="fill:#ffe6e6;fill-opacity:1;fill-rule:nonzero;stroke:#ff8080;stroke-width:0.3985;stroke-linecap:butt;stroke-linejoin:miter;stroke-miterlimit:10;stroke-dasharray:none;stroke-opacity:1"
       transform="matrix(1.3333333,0,0,-1.3333333,183.89333,146.09733)" />
    <path
       id="path20"
       d="m -46.48892,0 c 0,2.50485 -2.03055,4.5354 -4.5354,4.5354 -2.50487,0 -4.5354,-2.03055 -4.5354,-4.5354 0,-2.50485 2.03053,-4.5354 4.5354,-4.5354 2.50485,0 4.5354,2.03055 4.5354,4.5354 z"
       style="fill:#fad7da;fill-opacity:1;fill-rule:nonzero;stroke:#e63946;stroke-width:1.19553;stroke-linecap:butt;stroke-linejoin:miter;stroke-miterlimit:10;stroke-dasharray:none;stroke-opacity:1"
       transform="matrix(1.3333333,0,0,-1.3333333,183.89333,146.09733)" />
    <path
       id="path21"
       d="m 4.0739062,-2.2868164 h 2.7832032 c 0.1464843,0 0.3222656,0 0.3222656,-0.2050781 0,-0.2050782 -0.1757813,-0.2050782 -0.3222656,-0.2050782 H 4.0739062 v -2.7832031 c 0,-0.1464844 0,-0.3222656 -0.2050781,-0.3222656 -0.2050781,0 -0.2050781,0.1757812 -0.2050781,0.3222656 v 2.7832031 H 0.88054687 c -0.14648437,0 -0.32226562,0 -0.32226562,0.2050782 0,0.2050781 0.17578125,0.2050781 0.32226562,0.2050781 H 3.66375 v 2.78320312 c 0,0.14648437 0,0.32226562 0.2050781,0.32226562 0.2050781,0 0.2050781,-0.17578125 0.2050781,-0.32226562 z m 0,0"
       style="fill:#000000;fill-opacity:1;fill-rule:nonzero;stroke:none"
       aria-label="+"
       transform="matrix(0.53333333,0,0,0.53333333,113.796,147.42667)" />
    <path
       id="path22"
       d="m -29.48067,0 c 0,2.50485 -2.03055,4.5354 -4.53541,4.5354 -2.50486,0 -4.5354,-2.03055 -4.5354,-4.5354 0,-2.50485 2.03054,-4.5354 4.5354,-4.5354 2.50486,0 4.53541,2.03055 4.53541,4.5354 z"
       style="fill:#fad7da;fill-opacity:1;fill-rule:nonzero;stroke:#e63946;stroke-width:1.19553;stroke-linecap:butt;stroke-linejoin:miter;stroke-miterlimit:10;stroke-dasharray:none;stroke-opacity:1"
       transform="matrix(1.3333333,0,0,-1.3333333,183.89333,146.09733)" />
    <path
       id="path23"
       d="m 4.0709961,-2.2868164 h 2.7832031 c 0.1464844,0 0.3222656,0 0.3222656,-0.2050781 0,-0.2050782 -0.1757812,-0.2050782 -0.3222656,-0.2050782 H 4.0709961 v -2.7832031 c 0,-0.1464844 0,-0.3222656 -0.2050781,-0.3222656 -0.2050782,0 -0.2050782,0.1757812 -0.2050782,0.3222656 v 2.7832031 H 0.87763672 c -0.14648438,0 -0.32226563,0 -0.32226563,0.2050782 0,0.2050781 0.17578125,0.2050781 0.32226563,0.2050781 H 3.6608398 v 2.78320312 c 0,0.14648437 0,0.32226562 0.2050782,0.32226562 0.2050781,0 0.2050781,-0.17578125 0.2050781,-0.32226562 z m 0,0"
       style="fill:#000000;fill-opacity:1;fill-rule:nonzero;stroke:none"
       aria-label="+"
       transform="matrix(0.53333333,0,0,0.53333333,136.47333,147.42667)" />
    <path
       id="path24"
       d="m -12.47284,0 c 0,2.50485 -2.03053,4.5354 -4.5354,4.5354 -2.50486,0 -4.5354,-2.03055 -4.5354,-4.5354 0,-2.50485 2.03054,-4.5354 4.5354,-4.5354 2.50487,0 4.5354,2.03055 4.5354,4.5354 z"
       style="fill:#fad7da;fill-opacity:1;fill-rule:nonzero;stroke:#e63946;stroke-width:1.19553;stroke-linecap:butt;stroke-linejoin:miter;stroke-miterlimit:10;stroke-dasharray:none;stroke-opacity:1"
       transform="matrix(1.3333333,0,0,-1.3333333,183.89333,146.09733)" />
    <path
       id="path25"
       d="m 4.0705859,-2.2868164 h 2.7832032 c 0.1464843,0 0.3222656,0 0.3222656,-0.2050781 0,-0.2050782 -0.1757813,-0.2050782 -0.3222656,-0.2050782 H 4.0705859 v -2.7832031 c 0,-0.1464844 0,-0.3222656 -0.2050781,-0.3222656 -0.2050781,0 -0.2050781,0.1757812 -0.2050781,0.3222656 v 2.7832031 H 0.87722656 c -0.14648437,0 -0.32226562,0 -0.32226562,0.2050782 0,0.2050781 0.17578125,0.2050781 0.32226562,0.2050781 H 3.6604297 v 2.78320312 c 0,0.14648437 0,0.32226562 0.2050781,0.32226562 0.2050781,0 0.2050781,-0.17578125 0.2050781,-0.32226562 z m 0,0"
       style="fill:#000000;fill-opacity:1;fill-rule:nonzero;stroke:none"
       aria-label="+"
       transform="matrix(0.53333333,0,0,0.53333333,159.14933,147.42667)" />
    <path
       id="path26"
       d="M 4.5354,0 C 4.5354,2.50485 2.50485,4.5354 0,4.5354 -2.50485,4.5354 -4.5354,2.50485 -4.5354,0 c 0,-2.50485 2.03055,-4.5354 4.5354,-4.5354 2.50485,0 4.5354,2.03055 4.5354,4.5354 z"
       style="fill:#fad7da;fill-opacity:1;fill-rule:nonzero;stroke:#e63946;stroke-width:1.19553;stroke-linecap:butt;stroke-linejoin:miter;stroke-miterlimit:10;stroke-dasharray:none;stroke-opacity:1"
       transform="matrix(1.3333333,0,0,-1.3333333,183.89333,146.09733)" />
    <path
       id="path27"
       d="m 4.075,-2.2868164 h 2.7832031 c 0.1464844,0 0.3222656,0 0.3222656,-0.2050781 0,-0.2050782 -0.1757812,-0.2050782 -0.3222656,-0.2050782 H 4.075 v -2.7832031 c 0,-0.1464844 0,-0.3222656 -0.2050781,-0.3222656 -0.2050782,0 -0.2050782,0.1757812 -0.2050782,0.3222656 v 2.7832031 H 0.88164062 c -0.14648437,0 -0.32226562,0 -0.32226562,0.2050782 0,0.2050781 0.17578125,0.2050781 0.32226562,0.2050781 H 3.6648437 v 2.78320312 c 0,0.14648437 0,0.32226562 0.2050782,0.32226562 C 4.075,0.81865234 4.075,0.64287109 4.075,0.49638672 Z m 0,0"
       style="fill:#000000;fill-opacity:1;fill-rule:nonzero;stroke:none"
       aria-label="+"
       transform="matrix(0.53333333,0,0,0.53333333,181.82667,147.42667)" />
    <path
       id="path28"
       d="m 21.54364,0 c 0,2.50485 -2.03054,4.5354 -4.5354,4.5354 -2.50487,0 -4.5354,-2.03055 -4.5354,-4.5354 0,-2.50485 2.03053,-4.5354 4.5354,-4.5354 2.50486,0 4.5354,2.03055 4.5354,4.5354 z"
       style="fill:#fad7da;fill-opacity:1;fill-rule:nonzero;stroke:#e63946;stroke-width:1.19553;stroke-linecap:butt;stroke-linejoin:miter;stroke-miterlimit:10;stroke-dasharray:none;stroke-opacity:1"
       transform="matrix(1.3333333,0,0,-1.3333333,183.89333,146.09733)" />
    <path
       id="path29"
       d="M 4.0720898,-2.2868164 H 6.855293 c 0.1464843,0 0.3222656,0 0.3222656,-0.2050781 0,-0.2050782 -0.1757813,-0.2050782 -0.3222656,-0.2050782 H 4.0720898 v -2.7832031 c 0,-0.1464844 0,-0.3222656 -0.2050781,-0.3222656 -0.2050781,0 -0.2050781,0.1757812 -0.2050781,0.3222656 v 2.7832031 H 0.87873047 c -0.14648438,0 -0.32226563,0 -0.32226563,0.2050782 0,0.2050781 0.17578125,0.2050781 0.32226563,0.2050781 H 3.6619336 v 2.78320312 c 0,0.14648437 0,0.32226562 0.2050781,0.32226562 0.2050781,0 0.2050781,-0.17578125 0.2050781,-0.32226562 z m 0,0"
       style="fill:#000000;fill-opacity:1;fill-rule:nonzero;stroke:none"
       aria-label="+"
       transform="matrix(0.53333333,0,0,0.53333333,204.504,147.42667)" />
    <path
       id="path30"
       d="m 38.55148,0 c 0,2.50485 -2.03054,4.5354 -4.5354,4.5354 -2.50486,0 -4.53541,-2.03055 -4.53541,-4.5354 0,-2.50485 2.03055,-4.5354 4.53541,-4.5354 2.50486,0 4.5354,2.03055 4.5354,4.5354 z"
       style="fill:#fad7da;fill-opacity:1;fill-rule:nonzero;stroke:#e63946;stroke-width:1.19553;stroke-linecap:butt;stroke-linejoin:miter;stroke-miterlimit:10;stroke-dasharray:none;stroke-opacity:1"
       transform="matrix(1.3333333,0,0,-1.3333333,183.89333,146.09733)" />
    <path
       id="path31"
       d="m 4.0691797,-2.2868164 h 2.7832031 c 0.1464844,0 0.3222656,0 0.3222656,-0.2050781 0,-0.2050782 -0.1757812,-0.2050782 -0.3222656,-0.2050782 H 4.0691797 v -2.7832031 c 0,-0.1464844 0,-0.3222656 -0.2050781,-0.3222656 -0.2050782,0 -0.2050782,0.1757812 -0.2050782,0.3222656 v 2.7832031 H 0.87582031 c -0.14648437,0 -0.32226562,0 -0.32226562,0.2050782 0,0.2050781 0.17578125,0.2050781 0.32226562,0.2050781 H 3.6590234 v 2.78320312 c 0,0.14648437 0,0.32226562 0.2050782,0.32226562 0.2050781,0 0.2050781,-0.17578125 0.2050781,-0.32226562 z m 0,0"
       style="fill:#000000;fill-opacity:1;fill-rule:nonzero;stroke:none"
       aria-label="+"
       transform="matrix(0.53333333,0,0,0.53333333,227.18133,147.42667)" />
    <path
       id="path32"
       d="m 55.55972,0 c 0,2.50485 -2.03053,4.5354 -4.5354,4.5354 -2.50485,0 -4.5354,-2.03055 -4.5354,-4.5354 0,-2.50485 2.03055,-4.5354 4.5354,-4.5354 2.50487,0 4.5354,2.03055 4.5354,4.5354 z"
       style="fill:#fad7da;fill-opacity:1;fill-rule:nonzero;stroke:#e63946;stroke-width:1.19553;stroke-linecap:butt;stroke-linejoin:miter;stroke-miterlimit:10;stroke-dasharray:none;stroke-opacity:1"
       transform="matrix(1.3333333,0,0,-1.3333333,183.89333,146.09733)" />
    <path
       id="path33"
       d="m 4.0735937,-2.2868164 h 2.7832032 c 0.1464843,0 0.3222656,0 0.3222656,-0.2050781 0,-0.2050782 -0.1757813,-0.2050782 -0.3222656,-0.2050782 H 4.0735937 v -2.7832031 c 0,-0.1464844 0,-0.3222656 -0.2050781,-0.3222656 -0.2050781,0 -0.2050781,0.1757812 -0.2050781,0.3222656 v 2.7832031 H 0.88023437 c -0.14648437,0 -0.32226562,0 -0.32226562,0.2050782 0,0.2050781 0.17578125,0.2050781 0.32226562,0.2050781 H 3.6634375 v 2.78320312 c 0,0.14648437 0,0.32226562 0.2050781,0.32226562 0.2050781,0 0.2050781,-0.17578125 0.2050781,-0.32226562 z m 0,0"
       style="fill:#000000;fill-opacity:1;fill-rule:nonzero;stroke:none"
       aria-label="+"
       transform="matrix(0.53333333,0,0,0.53333333,249.85867,147.42667)" />
    <path
       id="path34"
       d="M -34.01608,8.50412 V 95.10347"
       style="fill:none;stroke:#ff0000;stroke-width:0.79701;stroke-linecap:butt;stroke-linejoin:miter;stroke-miterlimit:10;stroke-dasharray:none;stroke-opacity:1"
       transform="matrix(1.3333333,0,0,-1.3333333,183.89333,146.09733)" />
    <path
       id="path35"
       d="M 5.44046,0 1.28699,1.5706 2.66432,0 1.28699,-1.5706 Z"
       style="fill:#ff0000;fill-opacity:1;fill-rule:nonzero;stroke:#ff0000;stroke-width:0.79701;stroke-linecap:butt;stroke-linejoin:miter;stroke-miterlimit:10;stroke-dasharray:none;stroke-opacity:1"
       transform="matrix(0,-1.3333333,-1.3333333,0,138.53856,22.579493)" />
    <path
       id="path36"
       d="M -34.01608,-8.50412 V -95.10347"
       style="fill:none;stroke:#ff0000;stroke-width:0.79701;stroke-linecap:butt;stroke-linejoin:miter;stroke-miterlimit:10;stroke-dasharray:none;stroke-opacity:1"
       transform="matrix(1.3333333,0,0,-1.3333333,183.89333,146.09733)" />
    <path
       id="path37"
       d="M 5.44046,0 1.28699,1.5706 2.66432,0 1.28699,-1.5706 Z"
       style="fill:#ff0000;fill-opacity:1;fill-rule:nonzero;stroke:#ff0000;stroke-width:0.79701;stroke-linecap:butt;stroke-linejoin:miter;stroke-miterlimit:10;stroke-dasharray:none;stroke-opacity:1"
       transform="matrix(0,1.3333333,1.3333333,0,138.53856,269.61517)" />
    <path
       id="path38"
       d="M -17.00824,8.50412 V 95.10347"
       style="fill:none;stroke:#ff0000;stroke-width:0.79701;stroke-linecap:butt;stroke-linejoin:miter;stroke-miterlimit:10;stroke-dasharray:none;stroke-opacity:1"
       transform="matrix(1.3333333,0,0,-1.3333333,183.89333,146.09733)" />
    <path
       id="path39"
       d="M 5.44046,0 1.28699,1.5706 2.66432,0 1.28699,-1.5706 Z"
       style="fill:#ff0000;fill-opacity:1;fill-rule:nonzero;stroke:#ff0000;stroke-width:0.79701;stroke-linecap:butt;stroke-linejoin:miter;stroke-miterlimit:10;stroke-dasharray:none;stroke-opacity:1"
       transform="matrix(0,-1.3333333,-1.3333333,0,161.21568,22.579493)" />
    <path
       id="path40"
       d="M -17.00824,-8.50412 V -95.10347"
       style="fill:none;stroke:#ff0000;stroke-width:0.79701;stroke-linecap:butt;stroke-linejoin:miter;stroke-miterlimit:10;stroke-dasharray:none;stroke-opacity:1"
       transform="matrix(1.3333333,0,0,-1.3333333,183.89333,146.09733)" />
    <path
       id="path41"
       d="M 5.44046,0 1.28699,1.5706 2.66432,0 1.28699,-1.5706 Z"
       style="fill:#ff0000;fill-opacity:1;fill-rule:nonzero;stroke:#ff0000;stroke-width:0.79701;stroke-linecap:butt;stroke-linejoin:miter;stroke-miterlimit:10;stroke-dasharray:none;stroke-opacity:1"
       transform="matrix(0,1.3333333,1.3333333,0,161.21568,269.61517)" />
    <path
       id="path42"
       d="M 0,8.50412 V 95.10347"
       style="fill:none;stroke:#ff0000;stroke-width:0.79701;stroke-linecap:butt;stroke-linejoin:miter;stroke-miterlimit:10;stroke-dasharray:none;stroke-opacity:1"
       transform="matrix(1.3333333,0,0,-1.3333333,183.89333,146.09733)" />
    <path
       id="path43"
       d="M 5.44046,0 1.28699,1.5706 2.66432,0 1.28699,-1.5706 Z"
       style="fill:#ff0000;fill-opacity:1;fill-rule:nonzero;stroke:#ff0000;stroke-width:0.79701;stroke-linecap:butt;stroke-linejoin:miter;stroke-miterlimit:10;stroke-dasharray:none;stroke-opacity:1"
       transform="matrix(0,-1.3333333,-1.3333333,0,183.89333,22.579493)" />
    <path
       id="path44"
       d="M 0,-8.50412 V -95.10347"
       style="fill:none;stroke:#ff0000;stroke-width:0.79701;stroke-linecap:butt;stroke-linejoin:miter;stroke-miterlimit:10;stroke-dasharray:none;stroke-opacity:1"
       transform="matrix(1.3333333,0,0,-1.3333333,183.89333,146.09733)" />
    <path
       id="path45"
       d="M 5.44046,0 1.28699,1.5706 2.66432,0 1.28699,-1.5706 Z"
       style="fill:#ff0000;fill-opacity:1;fill-rule:nonzero;stroke:#ff0000;stroke-width:0.79701;stroke-linecap:butt;stroke-linejoin:miter;stroke-miterlimit:10;stroke-dasharray:none;stroke-opacity:1"
       transform="matrix(0,1.3333333,1.3333333,0,183.89333,269.61517)" />
    <path
       id="path46"
       d="M 17.00824,8.50412 V 95.10347"
       style="fill:none;stroke:#ff0000;stroke-width:0.79701;stroke-linecap:butt;stroke-linejoin:miter;stroke-miterlimit:10;stroke-dasharray:none;stroke-opacity:1"
       transform="matrix(1.3333333,0,0,-1.3333333,183.89333,146.09733)" />
    <path
       id="path47"
       d="M 5.44046,0 1.28699,1.5706 2.66432,0 1.28699,-1.5706 Z"
       style="fill:#ff0000;fill-opacity:1;fill-rule:nonzero;stroke:#ff0000;stroke-width:0.79701;stroke-linecap:butt;stroke-linejoin:miter;stroke-miterlimit:10;stroke-dasharray:none;stroke-opacity:1"
       transform="matrix(0,-1.3333333,-1.3333333,0,206.57099,22.579493)" />
    <path
       id="path48"
       d="M 17.00824,-8.50412 V -95.10347"
       style="fill:none;stroke:#ff0000;stroke-width:0.79701;stroke-linecap:butt;stroke-linejoin:miter;stroke-miterlimit:10;stroke-dasharray:none;stroke-opacity:1"
       transform="matrix(1.3333333,0,0,-1.3333333,183.89333,146.09733)" />
    <path
       id="path49"
       d="M 5.44046,0 1.28699,1.5706 2.66432,0 1.28699,-1.5706 Z"
       style="fill:#ff0000;fill-opacity:1;fill-rule:nonzero;stroke:#ff0000;stroke-width:0.79701;stroke-linecap:butt;stroke-linejoin:miter;stroke-miterlimit:10;stroke-dasharray:none;stroke-opacity:1"
       transform="matrix(0,1.3333333,1.3333333,0,206.57099,269.61517)" />
    <path
       id="path50"
       d="M 34.01608,8.50412 V 95.10347"
       style="fill:none;stroke:#ff0000;stroke-width:0.79701;stroke-linecap:butt;stroke-linejoin:miter;stroke-miterlimit:10;stroke-dasharray:none;stroke-opacity:1"
       transform="matrix(1.3333333,0,0,-1.3333333,183.89333,146.09733)" />
    <path
       id="path51"
       d="M 5.44046,0 1.28699,1.5706 2.66432,0 1.28699,-1.5706 Z"
       style="fill:#ff0000;fill-opacity:1;fill-rule:nonzero;stroke:#ff0000;stroke-width:0.79701;stroke-linecap:butt;stroke-linejoin:miter;stroke-miterlimit:10;stroke-dasharray:none;stroke-opacity:1"
       transform="matrix(0,-1.3333333,-1.3333333,0,229.24811,22.579493)" />
    <path
       id="path52"
       d="M 34.01608,-8.50412 V -95.10347"
       style="fill:none;stroke:#ff0000;stroke-width:0.79701;stroke-linecap:butt;stroke-linejoin:miter;stroke-miterlimit:10;stroke-dasharray:none;stroke-opacity:1"
       transform="matrix(1.3333333,0,0,-1.3333333,183.89333,146.09733)" />
    <path
       id="path53"
       d="M 5.44046,0 1.28699,1.5706 2.66432,0 1.28699,-1.5706 Z"
       style="fill:#ff0000;fill-opacity:1;fill-rule:nonzero;stroke:#ff0000;stroke-width:0.79701;stroke-linecap:butt;stroke-linejoin:miter;stroke-miterlimit:10;stroke-dasharray:none;stroke-opacity:1"
       transform="matrix(0,1.3333333,1.3333333,0,229.24811,269.61517)" />
    <path
       id="path54"
       d="m 65.19774,0 h 58.25253"
       style="fill:none;stroke:#ff0000;stroke-width:0.79701;stroke-linecap:butt;stroke-linejoin:miter;stroke-miterlimit:10;stroke-dasharray:none;stroke-opacity:1"
       transform="matrix(1.3333333,0,0,-1.3333333,183.89333,146.09733)" />
    <path
       id="path55"
       d="M 5.44046,0 1.28699,1.5706 2.66432,0 1.28699,-1.5706 Z"
       style="fill:#ff0000;fill-opacity:1;fill-rule:nonzero;stroke:#ff0000;stroke-width:0.79701;stroke-linecap:butt;stroke-linejoin:miter;stroke-miterlimit:10;stroke-dasharray:none;stroke-opacity:1"
       transform="matrix(1.3333333,0,0,-1.3333333,345.20693,146.09733)" />
    <path
       id="path56"
       d="m 59.52846,5.66927 c 25.51196,17.00825 25.51196,17.00825 51.77481,61.65506"
       style="fill:none;stroke:#ff0000;stroke-width:0.79701;stroke-linecap:butt;stroke-linejoin:miter;stroke-miterlimit:10;stroke-dasharray:none;stroke-opacity:1"
       transform="matrix(1.3333333,0,0,-1.3333333,183.89333,146.09733)" />
    <path
       id="path57"
       d="M 5.44046,0 1.28699,1.5706 2.66432,0 1.28699,-1.5706 Z"
       style="fill:#ff0000;fill-opacity:1;fill-rule:nonzero;stroke:#ff0000;stroke-width:0.79701;stroke-linecap:butt;stroke-linejoin:miter;stroke-miterlimit:10;stroke-dasharray:none;stroke-opacity:1"
       transform="matrix(0.676,-1.1492,-1.1492,-0.676,330.63129,59.164413)" />
    <path
       id="path58"
       d="m 59.52846,-5.66927 c 25.51196,-17.00825 25.51196,-17.00825 51.77481,-61.65506"
       style="fill:none;stroke:#ff0000;stroke-width:0.79701;stroke-linecap:butt;stroke-linejoin:miter;stroke-miterlimit:10;stroke-dasharray:none;stroke-opacity:1"
       transform="matrix(1.3333333,0,0,-1.3333333,183.89333,146.09733)" />
    <path
       id="path59"
       d="M 5.44046,0 1.28699,1.5706 2.66432,0 1.28699,-1.5706 Z"
       style="fill:#ff0000;fill-opacity:1;fill-rule:nonzero;stroke:#ff0000;stroke-width:0.79701;stroke-linecap:butt;stroke-linejoin:miter;stroke-miterlimit:10;stroke-dasharray:none;stroke-opacity:1"
       transform="matrix(0.676,1.1492,1.1492,-0.676,330.63129,233.03025)" />
    <path
       id="path60"
       d="M 51.02432,8.50412 C 62.36288,42.5202 62.36288,42.5202 78.19008,95.27701"
       style="fill:none;stroke:#ff0000;stroke-width:0.79701;stroke-linecap:butt;stroke-linejoin:miter;stroke-miterlimit:10;stroke-dasharray:none;stroke-opacity:1"
       transform="matrix(1.3333333,0,0,-1.3333333,183.89333,146.09733)" />
    <path
       id="path61"
       d="M 5.44046,0 1.28699,1.5706 2.66432,0 1.28699,-1.5706 Z"
       style="fill:#ff0000;fill-opacity:1;fill-rule:nonzero;stroke:#ff0000;stroke-width:0.79701;stroke-linecap:butt;stroke-linejoin:miter;stroke-miterlimit:10;stroke-dasharray:none;stroke-opacity:1"
       transform="matrix(0.38312,-1.27704,-1.27704,-0.38312,287.20236,22.209307)" />
    <path
       id="path62"
       d="M 51.02432,-8.50412 C 62.36288,-42.5202 62.36288,-42.5202 78.19008,-95.27701"
       style="fill:none;stroke:#ff0000;stroke-width:0.79701;stroke-linecap:butt;stroke-linejoin:miter;stroke-miterlimit:10;stroke-dasharray:none;stroke-opacity:1"
       transform="matrix(1.3333333,0,0,-1.3333333,183.89333,146.09733)" />
    <path
       id="path63"
       d="M 5.44046,0 1.28699,1.5706 2.66432,0 1.28699,-1.5706 Z"
       style="fill:#ff0000;fill-opacity:1;fill-rule:nonzero;stroke:#ff0000;stroke-width:0.79701;stroke-linecap:butt;stroke-linejoin:miter;stroke-miterlimit:10;stroke-dasharray:none;stroke-opacity:1"
       transform="matrix(0.38312,1.27704,1.27704,-0.38312,287.20236,269.98536)" />
    <path
       id="path64"
       d="m -65.19774,0 h -58.25253"
       style="fill:none;stroke:#ff0000;stroke-width:0.79701;stroke-linecap:butt;stroke-linejoin:miter;stroke-miterlimit:10;stroke-dasharray:none;stroke-opacity:1"
       transform="matrix(1.3333333,0,0,-1.3333333,183.89333,146.09733)" />
    <path
       id="path65"
       d="M 5.44046,0 1.28699,1.5706 2.66432,0 1.28699,-1.5706 Z"
       style="fill:#ff0000;fill-opacity:1;fill-rule:nonzero;stroke:#ff0000;stroke-width:0.79701;stroke-linecap:butt;stroke-linejoin:miter;stroke-miterlimit:10;stroke-dasharray:none;stroke-opacity:1"
       transform="matrix(-1.3333333,0,0,1.3333333,22.579733,146.09733)" />
    <path
       id="path66"
       d="m -59.52846,5.66927 c -25.51196,17.00825 -25.51196,17.00825 -51.77481,61.65506"
       style="fill:none;stroke:#ff0000;stroke-width:0.79701;stroke-linecap:butt;stroke-linejoin:miter;stroke-miterlimit:10;stroke-dasharray:none;stroke-opacity:1"
       transform="matrix(1.3333333,0,0,-1.3333333,183.89333,146.09733)" />
    <path
       id="path67"
       d="M 5.44046,0 1.28699,1.5706 2.66432,0 1.28699,-1.5706 Z"
       style="fill:#ff0000;fill-opacity:1;fill-rule:nonzero;stroke:#ff0000;stroke-width:0.79701;stroke-linecap:butt;stroke-linejoin:miter;stroke-miterlimit:10;stroke-dasharray:none;stroke-opacity:1"
       transform="matrix(-0.676,-1.1492,-1.1492,0.676,37.155373,59.164413)" />
    <path
       id="path68"
       d="m -59.52846,-5.66927 c -25.51196,-17.00825 -25.51196,-17.00825 -51.77481,-61.65506"
       style="fill:none;stroke:#ff0000;stroke-width:0.79701;stroke-linecap:butt;stroke-linejoin:miter;stroke-miterlimit:10;stroke-dasharray:none;stroke-opacity:1"
       transform="matrix(1.3333333,0,0,-1.3333333,183.89333,146.09733)" />
    <path
       id="path69"
       d="M 5.44046,0 1.28699,1.5706 2.66432,0 1.28699,-1.5706 Z"
       style="fill:#ff0000;fill-opacity:1;fill-rule:nonzero;stroke:#ff0000;stroke-width:0.79701;stroke-linecap:butt;stroke-linejoin:miter;stroke-miterlimit:10;stroke-dasharray:none;stroke-opacity:1"
       transform="matrix(-0.676,1.1492,1.1492,0.676,37.155373,233.03025)" />
    <path
       id="path70"
       d="M -51.02432,8.50412 C -62.36288,42.5202 -62.36288,42.5202 -78.19008,95.27701"
       style="fill:none;stroke:#ff0000;stroke-width:0.79701;stroke-linecap:butt;stroke-linejoin:miter;stroke-miterlimit:10;stroke-dasharray:none;stroke-opacity:1"
       transform="matrix(1.3333333,0,0,-1.3333333,183.89333,146.09733)" />
    <path
       id="path71"
       d="M 5.44046,0 1.28699,1.5706 2.66432,0 1.28699,-1.5706 Z"
       style="fill:#ff0000;fill-opacity:1;fill-rule:nonzero;stroke:#ff0000;stroke-width:0.79701;stroke-linecap:butt;stroke-linejoin:miter;stroke-miterlimit:10;stroke-dasharray:none;stroke-opacity:1"
       transform="matrix(-0.38312,-1.27704,-1.27704,0.38312,80.584307,22.209307)" />
    <path
       id="path72"
       d="M -51.02432,-8.50412 C -62.36288,-42.5202 -62.36288,-42.5202 -78.19008,-95.27701"
       style="fill:none;stroke:#ff0000;stroke-width:0.79701;stroke-linecap:butt;stroke-linejoin:miter;stroke-miterlimit:10;stroke-dasharray:none;stroke-opacity:1"
       transform="matrix(1.3333333,0,0,-1.3333333,183.89333,146.09733)" />
    <path
       id="path73"
       d="M 5.44046,0 1.28699,1.5706 2.66432,0 1.28699,-1.5706 Z"
       style="fill:#ff0000;fill-opacity:1;fill-rule:nonzero;stroke:#ff0000;stroke-width:0.79701;stroke-linecap:butt;stroke-linejoin:miter;stroke-miterlimit:10;stroke-dasharray:none;stroke-opacity:1"
       transform="matrix(-0.38312,1.27704,1.27704,0.38312,80.584307,269.98536)" />
    <path
       id="path74"
       d="m 5.3428984,-5.929625 c -0.1289062,0.1289063 -0.4570312,0.4101563 -0.4570312,0.5859375 0,0.1054688 0.09375,0.1992188 0.1992187,0.1992188 0.082031,0 0.1289063,-0.070312 0.1875,-0.1289063 0.1171875,-0.140625 0.3398438,-0.421875 0.7851563,-0.6445312 0.070312,-0.035156 0.1640625,-0.09375 0.1640625,-0.2109375 0,-0.09375 -0.070312,-0.1523438 -0.140625,-0.1992188 -0.2109375,-0.1523437 -0.328125,-0.328125 -0.3984375,-0.5625 -0.023437,-0.09375 -0.070312,-0.2226562 -0.1992188,-0.2226562 -0.140625,0 -0.1992187,0.1289062 -0.1992187,0.2109375 0,0.046875 0.070312,0.3632812 0.234375,0.5742187 H 2.1553984 c -0.1640625,0 -0.3398437,0 -0.3398437,0.1992188 0,0.1992187 0.1757812,0.1992187 0.3398437,0.1992187 z M 5.51575,0.19928125 c 0.023437,-0.046875 0.046875,-0.1171875 0.046875,-0.140625 0,-0.01171875 0,-0.10546875 -0.1171875,-0.10546875 -0.09375,0 -0.1054688,0.05859375 -0.1289063,0.1171875 C 4.672,1.5469375 4.297,2.2149063 2.5977812,2.2149063 h -1.453125 c -0.140625,0 -0.16406245,0 -0.2226562,-0.011719 C 0.81653125,2.1914688 0.79309375,2.17975 0.79309375,2.0977188 c 0,-0.023437 0,-0.046875 0.046875,-0.2226563 l 0.67968745,-2.71875 h 0.984375 c 0.84375,0 0.84375,0.2109375 0.84375,0.45703125 0,0.0703125 0,0.1875 -0.070312,0.48046875 C 3.26575,0.15240625 3.2540312,0.17584375 3.2540312,0.211 c 0,0.046875 0.035156,0.10546875 0.1289063,0.10546875 0.082031,0 0.1054687,-0.046875 0.1523437,-0.19921875 l 0.5625,-2.3320312 c 0,-0.058594 -0.046875,-0.1054688 -0.1171875,-0.1054688 -0.09375,0 -0.1054687,0.058594 -0.140625,0.1757813 -0.2109375,0.7617187 -0.3867187,0.984375 -1.3007812,0.984375 h -0.9375 l 0.5976562,-2.4023438 c 0.082031,-0.3398437 0.09375,-0.3867187 0.5390625,-0.3867187 h 1.40625 c 1.2070313,0 1.5117188,0.2929687 1.5117188,1.1132812 0,0.234375 0,0.2578125 -0.046875,0.5273438 0,0.058594 -0.011719,0.1289062 -0.011719,0.1757812 0,0.046875 0.035156,0.1171875 0.1289063,0.1171875 0.1054687,0 0.1171875,-0.058594 0.140625,-0.2460937 L 6.0665312,-3.9843125 C 6.0899687,-4.2538437 6.0430937,-4.2538437 5.797,-4.2538437 H 0.7579375 c -0.19921875,0 -0.29296875,0 -0.29296875,0.1992187 0,0.1054688 0.09375,0.1054688 0.28125,0.1054688 0.36328125,0 0.64453125,0 0.64453125,0.1875 0,0.035156 0,0.058594 -0.046875,0.234375 L 0.01965625,1.7461563 c -0.09375,0.3867187 -0.1171875,0.46875 -0.90234375,0.46875 -0.1640625,0 -0.28125,0 -0.28125,0.1875 0,0.1171875 0.09375,0.1171875 0.28125,0.1171875 h 5.1679687 c 0.234375,0 0.2460938,-0.011719 0.3164063,-0.1640625 z m 0,0"
       style="fill:#ff0000;fill-opacity:1;fill-rule:nonzero;stroke:none"
       aria-label="⃗&#10;E"
       transform="matrix(1.3333333,0,0,1.3333333,239.77067,28.218667)" />
  </g>
</svg>
