<?xml version="1.0" encoding="UTF-8" standalone="no"?>
<!-- Created with Inkscape (http://www.inkscape.org/) -->

<svg
   version="1.1"
   id="svg1"
   width="342.30896"
   height="140.0648"
   viewBox="0 0 342.30896 140.06481"
   xmlns="http://www.w3.org/2000/svg"
   xmlns:svg="http://www.w3.org/2000/svg">
  <defs
     id="defs1">
    <linearGradient
       x1="0"
       y1="0"
       x2="0"
       y2="100.00128"
       gradientUnits="userSpaceOnUse"
       id="linearGradient5">
      <stop
         style="stop-opacity:1;stop-color:#f8c4c8"
         offset="0"
         id="stop1" />
      <stop
         style="stop-opacity:1;stop-color:#f8c4c8"
         offset="0.25"
         id="stop2" />
      <stop
         style="stop-opacity:1;stop-color:#fdebec"
         offset="0.5"
         id="stop3" />
      <stop
         style="stop-opacity:1;stop-color:#f8c4c8"
         offset="0.75"
         id="stop4" />
      <stop
         style="stop-opacity:1;stop-color:#f8c4c8"
         offset="1"
         id="stop5" />
    </linearGradient>
    <clipPath
       clipPathUnits="userSpaceOnUse"
       id="clipPath6">
      <path
         d="M 34.54748,34.547347 C 45.559893,25.370333 59.495387,17.484867 72.343187,15.649467 85.191,13.81408 89.677573,15.9214 100.68999,25.0984 c 11.01242,9.177013 26.51142,23.112533 28.34684,37.795747 1.83536,14.683213 -7.88548,24.947906 -18.8979,37.795703 -11.012397,12.84782 -21.277117,26.51143 -37.795743,28.3468 C 55.82456,130.87205 36.11096,122.9866 25.098533,110.1388 14.08612,97.290987 13.814213,77.57736 15.6496,62.894147 c 1.8354,-14.683214 7.885467,-19.1698 18.89788,-28.3468 z"
         id="path6" />
    </clipPath>
    <linearGradient
       x1="0"
       y1="0"
       x2="0"
       y2="100.00128"
       gradientUnits="userSpaceOnUse"
       id="linearGradient14">
      <stop
         style="stop-opacity:1;stop-color:#c7d7e2"
         offset="0"
         id="stop10" />
      <stop
         style="stop-opacity:1;stop-color:#c7d7e2"
         offset="0.25"
         id="stop11" />
      <stop
         style="stop-opacity:1;stop-color:#ecf2f5"
         offset="0.5"
         id="stop12" />
      <stop
         style="stop-opacity:1;stop-color:#c7d7e2"
         offset="0.75"
         id="stop13" />
      <stop
         style="stop-opacity:1;stop-color:#c7d7e2"
         offset="1"
         id="stop14" />
    </linearGradient>
    <clipPath
       clipPathUnits="userSpaceOnUse"
       id="clipPath15">
      <path
         d="m 261.32203,34.547347 c 11.0124,-9.177014 24.9479,-17.06248 37.7957,-18.89788 12.84783,-1.835387 17.3344,0.271933 28.34683,9.448933 11.01241,9.177013 26.51141,23.112533 28.34683,37.795747 1.83538,14.683213 -7.88548,24.947906 -18.8979,37.795703 -11.01241,12.84782 -21.27712,26.51143 -37.79576,28.3468 -16.51858,1.8354 -36.23224,-6.05005 -47.24464,-18.89785 -11.01242,-12.847813 -11.28434,-32.56144 -9.44896,-47.244653 1.83542,-14.683214 7.88548,-19.1698 18.8979,-28.3468 z"
         id="path15" />
    </clipPath>
  </defs>
  <g
     id="g1"
     transform="translate(-14.256808,-14.51333)">
    <path
       id="path1"
       d="m -14.17339,35.43349 c 8.25931,6.88276 18.71093,12.79686 28.34678,14.17341 9.63586,1.37654 13.00079,-0.20395 21.2601,-7.0867 C 43.69281,35.63744 55.31706,25.1858 56.69362,14.17339 58.07014,3.16098 50.77951,-4.53754 42.5202,-14.17339 c -8.2593,-9.63586 -15.95784,-19.88357 -28.34681,-21.2601 -12.38897,-1.37655 -27.17417,4.53754 -35.43349,14.17339 -8.25931,9.63586 -8.46324,24.42108 -7.0867,35.43349 1.37655,11.01241 5.9141,14.37735 14.17341,21.2601 z"
       style="fill:#f8c4c8;fill-opacity:1;fill-rule:nonzero;stroke:none"
       transform="matrix(1.3333333,0,0,-1.3333333,53.445333,81.792)" />
    <g
       id="g5"
       clip-path="url(#clipPath6)">
      <path
         d="M 0,0 H 100 V 100 H 0 Z"
         transform="matrix(2.0149054,-1.1633,-1.1633,-2.0149054,29.76293,231.25334)"
         style="fill:url(#linearGradient5);stroke:none"
         id="path5" />
    </g>
    <path
       id="path7"
       d="m -14.17339,35.43349 c 8.25931,6.88276 18.71093,12.79686 28.34678,14.17341 9.63586,1.37654 13.00079,-0.20395 21.2601,-7.0867 C 43.69281,35.63744 55.31706,25.1858 56.69362,14.17339 58.07014,3.16098 50.77951,-4.53754 42.5202,-14.17339 c -8.2593,-9.63586 -15.95784,-19.88357 -28.34681,-21.2601 -12.38897,-1.37655 -27.17417,4.53754 -35.43349,14.17339 -8.25931,9.63586 -8.46324,24.42108 -7.0867,35.43349 1.37655,11.01241 5.9141,14.37735 14.17341,21.2601 z"
       style="fill:none;stroke:#000000;stroke-width:0.79701;stroke-linecap:butt;stroke-linejoin:miter;stroke-miterlimit:10;stroke-dasharray:none;stroke-opacity:1"
       transform="matrix(1.3333333,0,0,-1.3333333,53.445333,81.792)" />
    <g
       id="g7"
       aria-label="+Q"
       transform="matrix(1.3333333,0,0,1.3333333,61.926667,66.141333)">
      <path
         id="path8"
         d="m 4.0774609,-2.2974062 h 2.7773438 c 0.140625,0 0.328125,0 0.328125,-0.1992188 0,-0.1992187 -0.1875,-0.1992187 -0.328125,-0.1992187 H 4.0774609 v -2.7890625 c 0,-0.1289063 0,-0.328125 -0.1992187,-0.328125 -0.1992188,0 -0.1992188,0.1992187 -0.1992188,0.328125 v 2.7890625 H 0.88996094 c -0.140625,0 -0.328125,0 -0.328125,0.1992187 0,0.1992188 0.1875,0.1992188 0.328125,0.1992188 H 3.6790234 V 0.503375 c 0,0.12890625 0,0.328125 0.1992188,0.328125 0.1992187,0 0.1992187,-0.19921875 0.1992187,-0.328125 z m 0,0"
         style="fill:#000000;fill-opacity:1;fill-rule:nonzero;stroke:none" />
      <path
         id="path9"
         d="m 12.107734,-0.059125 c 1.546875,-0.5859375 3.011719,-2.3671875 3.011719,-4.2890625 0,-1.59375 -1.054687,-2.671875 -2.542969,-2.671875 -2.144531,0 -4.3359371,2.2617188 -4.3359371,4.5820313 0,1.6523437 1.1132812,2.6601562 2.5429691,2.6601562 0.257812,0 0.585937,-0.046875 0.984375,-0.15234375 -0.04687,0.62109375 -0.04687,0.6328125 -0.04687,0.76171875 0,0.328125 0,1.1015625 0.832031,1.1015625 1.183594,0 1.664062,-1.828125 1.664062,-1.93359375 0,-0.0703125 -0.07031,-0.10546875 -0.117187,-0.10546875 -0.07031,0 -0.09375,0.05859375 -0.117188,0.1171875 -0.234375,0.703125 -0.820312,0.94921875 -1.160156,0.94921875 -0.457031,0 -0.609375,-0.2578125 -0.714844,-1.01953125 z m -1.875,-0.08203125 C 9.4475781,-0.44584375 9.1077344,-1.231 9.1077344,-2.121625 c 0,-0.6914062 0.2695312,-2.0976562 1.0195316,-3.1757812 0.726562,-1.0195313 1.664062,-1.4765625 2.390625,-1.4765625 0.996093,0 1.722656,0.7734375 1.722656,2.109375 0,0.9960937 -0.503906,3.328125 -2.179688,4.26562495 -0.04687,-0.3515625 -0.152343,-1.07812495 -0.878906,-1.07812495 -0.527344,0 -1.007812,0.5039062 -1.007812,1.0195312 0,0.19921875 0.05859,0.3046875 0.05859,0.31640625 z m 0.609375,0.10546875 c -0.140625,0 -0.457031,0 -0.457031,-0.421875 0,-0.3984375 0.386719,-0.796875 0.796875,-0.796875 0.421875,0 0.609375,0.234375 0.609375,0.84375 0,0.15234375 -0.01172,0.1640625 -0.105469,0.19921875 -0.257812,0.10546875 -0.5625,0.17578125 -0.84375,0.17578125 z m 0,0"
         style="fill:#000000;fill-opacity:1;fill-rule:nonzero;stroke:none" />
    </g>
    <path
       id="path10"
       d="m 155.90752,35.43349 c 8.2593,6.88276 18.71093,12.79686 28.34678,14.17341 9.63587,1.37654 13.0008,-0.20395 21.26012,-7.0867 8.25931,-6.88276 19.88356,-17.3344 21.26012,-28.34681 1.37654,-11.01241 -5.91411,-18.71093 -14.17342,-28.34678 -8.25931,-9.63586 -15.95784,-19.88357 -28.34682,-21.2601 -12.38894,-1.37655 -27.17418,4.53754 -35.43348,14.17339 -8.25932,9.63586 -8.46326,24.42108 -7.08672,35.43349 1.37656,11.01241 5.91411,14.37735 14.17342,21.2601 z"
       style="fill:#c7d7e2;fill-opacity:1;fill-rule:nonzero;stroke:none"
       transform="matrix(1.3333333,0,0,-1.3333333,53.445333,81.792)" />
    <g
       id="g14"
       clip-path="url(#clipPath15)">
      <path
         d="M 0,0 H 100 V 100 H 0 Z"
         transform="matrix(2.0149054,-1.1633,-1.1633,-2.0149054,256.53746,231.25334)"
         style="fill:url(#linearGradient14);stroke:none"
         id="path14" />
    </g>
    <path
       id="path16"
       d="m 155.90752,35.43349 c 8.2593,6.88276 18.71093,12.79686 28.34678,14.17341 9.63587,1.37654 13.0008,-0.20395 21.26012,-7.0867 8.25931,-6.88276 19.88356,-17.3344 21.26012,-28.34681 1.37654,-11.01241 -5.91411,-18.71093 -14.17342,-28.34678 -8.25931,-9.63586 -15.95784,-19.88357 -28.34682,-21.2601 -12.38894,-1.37655 -27.17418,4.53754 -35.43348,14.17339 -8.25932,9.63586 -8.46326,24.42108 -7.08672,35.43349 1.37656,11.01241 5.91411,14.37735 14.17342,21.2601 z"
       style="fill:none;stroke:#000000;stroke-width:0.79701;stroke-linecap:butt;stroke-linejoin:miter;stroke-miterlimit:10;stroke-dasharray:none;stroke-opacity:1"
       transform="matrix(1.3333333,0,0,-1.3333333,53.445333,81.792)" />
    <g
       id="g16"
       aria-label="−Q"
       transform="matrix(1.3333333,0,0,1.3333333,288.69867,66.141333)">
      <path
         id="path17"
         d="m 6.5629141,-2.2974062 c 0.1757812,0 0.3515625,0 0.3515625,-0.1992188 0,-0.1992187 -0.1757813,-0.1992187 -0.3515625,-0.1992187 h -5.390625 c -0.1640625,0 -0.33984379,0 -0.33984379,0.1992187 0,0.1992188 0.17578129,0.1992188 0.33984379,0.1992188 z m 0,0"
         style="fill:#000000;fill-opacity:1;fill-rule:nonzero;stroke:none" />
      <path
         id="path18"
         d="m 12.108812,-0.059125 c 1.546875,-0.5859375 3.011719,-2.3671875 3.011719,-4.2890625 0,-1.59375 -1.054687,-2.671875 -2.542969,-2.671875 -2.144531,0 -4.335937,2.2617188 -4.335937,4.5820313 0,1.6523437 1.1132812,2.6601562 2.542969,2.6601562 0.257812,0 0.585937,-0.046875 0.984375,-0.15234375 -0.04687,0.62109375 -0.04687,0.6328125 -0.04687,0.76171875 0,0.328125 0,1.1015625 0.832031,1.1015625 1.183594,0 1.664062,-1.828125 1.664062,-1.93359375 0,-0.0703125 -0.07031,-0.10546875 -0.117187,-0.10546875 -0.07031,0 -0.09375,0.05859375 -0.117188,0.1171875 -0.234375,0.703125 -0.820312,0.94921875 -1.160156,0.94921875 -0.457031,0 -0.609375,-0.2578125 -0.714844,-1.01953125 z m -1.875,-0.08203125 C 9.4486562,-0.44584375 9.1088125,-1.231 9.1088125,-2.121625 c 0,-0.6914062 0.2695312,-2.0976562 1.0195315,-3.1757812 0.726562,-1.0195313 1.664062,-1.4765625 2.390625,-1.4765625 0.996093,0 1.722656,0.7734375 1.722656,2.109375 0,0.9960937 -0.503906,3.328125 -2.179688,4.26562495 -0.04687,-0.3515625 -0.152343,-1.07812495 -0.878906,-1.07812495 -0.527344,0 -1.007812,0.5039062 -1.007812,1.0195312 0,0.19921875 0.05859,0.3046875 0.05859,0.31640625 z m 0.609375,0.10546875 c -0.140625,0 -0.457031,0 -0.457031,-0.421875 0,-0.3984375 0.386719,-0.796875 0.796875,-0.796875 0.421875,0 0.609375,0.234375 0.609375,0.84375 0,0.15234375 -0.01172,0.1640625 -0.105469,0.19921875 -0.257812,0.10546875 -0.5625,0.17578125 -0.84375,0.17578125 z m 0,0"
         style="fill:#000000;fill-opacity:1;fill-rule:nonzero;stroke:none" />
    </g>
    <path
       id="path19"
       d="m 56.69362,14.17339 36.56735,-2e-5 m 11.9057,0 36.56737,2e-5"
       style="fill:none;stroke:#000000;stroke-width:0.3985;stroke-linecap:butt;stroke-linejoin:miter;stroke-miterlimit:10;stroke-dasharray:none;stroke-opacity:1"
       transform="matrix(1.3333333,0,0,-1.3333333,53.445333,81.792)" />
    <path
       id="path20"
       d="m 101.17827,14.17337 h 3.9884 m -7.9173,0 h -3.9884"
       style="fill:none;stroke:#000000;stroke-width:0.3985;stroke-linecap:butt;stroke-linejoin:miter;stroke-miterlimit:10;stroke-dasharray:none;stroke-opacity:1"
       transform="matrix(1.3333333,0,0,-1.3333333,53.445333,81.792)" />
    <path
       id="path21"
       d="M 101.17827,20.12622 V 8.22052 m -3.9289,17.85857 V 2.26765"
       style="fill:none;stroke:#000000;stroke-width:0.797;stroke-linecap:butt;stroke-linejoin:miter;stroke-miterlimit:10;stroke-dasharray:none;stroke-opacity:1"
       transform="matrix(1.3333333,0,0,-1.3333333,53.445333,81.792)" />
    <path
       id="path22"
       d="m 4.0775781,-2.2954141 h 2.7773438 c 0.140625,0 0.328125,0 0.328125,-0.1992187 0,-0.1992188 -0.1875,-0.1992188 -0.328125,-0.1992188 H 4.0775781 v -2.7890625 c 0,-0.1289062 0,-0.328125 -0.1992187,-0.328125 -0.1992188,0 -0.1992188,0.1992188 -0.1992188,0.328125 v 2.7890625 H 0.89007813 c -0.140625,0 -0.328125,0 -0.328125,0.1992188 0,0.1992187 0.1875,0.1992187 0.328125,0.1992187 H 3.6791406 v 2.80078129 c 0,0.12890625 0,0.328125 0.1992188,0.328125 0.1992187,0 0.1992187,-0.19921875 0.1992187,-0.328125 z m 0,0"
       style="fill:#000000;fill-opacity:1;fill-rule:nonzero;stroke:none"
       aria-label="+"
       transform="matrix(1.3333333,0,0,1.3333333,170.08667,84.361333)" />
    <path
       id="path23"
       d="m 6.5617969,-2.2954141 c 0.1757812,0 0.3515625,0 0.3515625,-0.1992187 0,-0.1992188 -0.1757813,-0.1992188 -0.3515625,-0.1992188 h -5.390625 c -0.1640625,0 -0.33984377,0 -0.33984377,0.1992188 0,0.1992187 0.17578127,0.1992187 0.33984377,0.1992187 z m 0,0"
       style="fill:#000000;fill-opacity:1;fill-rule:nonzero;stroke:none"
       aria-label="−"
       transform="matrix(1.3333333,0,0,1.3333333,191.04,84.361333)" />
    <g
       id="g23"
       aria-label="∆V"
       transform="matrix(1.3333333,0,0,1.3333333,174.844,96.214667)">
      <path
         id="path24"
         d="m 4.4060625,-6.9490859 c -0.070312,-0.1289063 -0.09375,-0.1875 -0.2578125,-0.1875 -0.1757812,0 -0.1992187,0.058594 -0.2578125,0.1875 l -3.375,6.74999996 c -0.046875,0.09375 -0.046875,0.10546875 -0.046875,0.1171875 0,0.0820312525 0.0585938,0.0820312525 0.22265625,0.0820312525 H 7.6052813 c 0.1523437,0 0.2109375,0 0.2109375,-0.0820312525 0,-0.01171875 0,-0.0234375 -0.046875,-0.1171875 z M 3.820125,-6.1404922 6.5037188,-0.76158594 H 1.1365313 Z m 0,0"
         style="fill:#000000;fill-opacity:1;fill-rule:nonzero;stroke:none" />
      <path
         id="path25"
         d="m 14.560359,-5.6717422 c 0.480469,-0.7734375 0.902344,-0.8085937 1.277344,-0.8203125 0.117188,-0.011719 0.128906,-0.1875 0.128906,-0.1875 0,-0.082031 -0.05859,-0.1289062 -0.128906,-0.1289062 -0.257812,0 -0.550781,0.035156 -0.820312,0.035156 -0.328125,0 -0.667969,-0.035156 -0.984375,-0.035156 -0.05859,0 -0.1875,0 -0.1875,0.1992187 0,0.1054688 0.08203,0.1171875 0.152343,0.1171875 0.269532,0.011719 0.457032,0.1171875 0.457032,0.328125 0,0.1523438 -0.140625,0.3632813 -0.140625,0.375 l -3.058594,4.86328126 -0.679688,-5.27343746 c 0,-0.1640625 0.222657,-0.2929688 0.679688,-0.2929688 0.140625,0 0.257812,0 0.257812,-0.1992187 0,-0.09375 -0.08203,-0.1171875 -0.140625,-0.1171875 -0.398437,0 -0.832031,0.035156 -1.242187,0.035156 -0.1757814,0 -0.3632814,-0.011719 -0.5390626,-0.011719 -0.1875,0 -0.375,-0.023437 -0.5390625,-0.023437 -0.070312,0 -0.1875,0 -0.1875,0.1992187 0,0.1171875 0.082031,0.1171875 0.2460937,0.1171875 0.5507813,0 0.5625,0.082031 0.5976563,0.3398438 l 0.7851561,6.14062496 c 0.03516,0.19921875 0.07031,0.234375 0.199219,0.234375 0.164062,0 0.199219,-0.0585938 0.28125,-0.1875 z m 0,0"
         style="fill:#000000;fill-opacity:1;fill-rule:nonzero;stroke:none" />
    </g>
    <path
       id="path26"
       d="m 1.1590156,-2.1668437 c 0,-1.6289063 0.8203125,-2.0507813 1.3476563,-2.0507813 0.09375,0 0.7148437,0.011719 1.0664062,0.375 -0.4101562,0.023437 -0.46875,0.328125 -0.46875,0.4570313 0,0.2578125 0.1875,0.4570312 0.4570313,0.4570312 0.2578125,0 0.4570312,-0.1640625 0.4570312,-0.46875 0,-0.6796875 -0.75,-1.0664062 -1.5234375,-1.0664062 -1.2421875,0 -2.15624997,1.078125 -2.15624997,2.3085937 0,1.27734375 0.98437497,2.26171875 2.14453127,2.26171875 1.3359375,0 1.6523437,-1.19531245 1.6523437,-1.28906245 0,-0.1054688 -0.1054687,-0.1054688 -0.1289062,-0.1054688 -0.09375,0 -0.1171875,0.046875 -0.1289063,0.1054688 -0.2929687,0.9257812 -0.9375,1.0429687 -1.3125,1.0429687 -0.5273437,0 -1.40625,-0.421875 -1.40625,-2.0273437 z m 7.9570313,0.035156 c 0,-1.2773437 -0.9960938,-2.3320312 -2.1914063,-2.3320312 -1.2539062,0 -2.2148437,1.0898437 -2.2148437,2.3320312 0,1.2890625 1.03125,2.23828125 2.203125,2.23828125 1.2070312,0 2.203125,-0.97265625 2.203125,-2.23828125 z M 6.9246406,-0.1395 c -0.4335937,0 -0.8671875,-0.2109375 -1.1367187,-0.66796875 C 5.5301094,-1.2410625 5.5301094,-1.8504375 5.5301094,-2.2137187 c 0,-0.3867188 0,-0.9257813 0.2460937,-1.359375 0.2695313,-0.4570313 0.7382813,-0.6679688 1.1367188,-0.6679688 0.4335937,0 0.8671875,0.2226563 1.125,0.6445313 0.2578125,0.4335937 0.2578125,1.0078125 0.2578125,1.3828125 0,0.3632812 0,0.9023437 -0.2226563,1.33593745 C 7.8504219,-0.43246875 7.4168281,-0.1395 6.9246406,-0.1395 Z m 3.5859374,-3.28125 v 2.66015625 c 0,0.45703125 -0.117187,0.45703125 -0.7851561,0.45703125 V 0.001125 c 0.3515621,-0.01171875 0.8554691,-0.03515625 1.1250001,-0.03515625 0.257812,0 0.785156,0.0234375 1.113281,0.03515625 v -0.3046875 c -0.65625,0 -0.773437,0 -0.773437,-0.45703125 V -2.5887187 c 0,-1.03125 0.714843,-1.59375 1.347656,-1.59375 0.621094,0 0.738281,0.5390625 0.738281,1.1015625 v 2.32031245 c 0,0.45703125 -0.117187,0.45703125 -0.773437,0.45703125 V 0.001125 c 0.339843,-0.01171875 0.855468,-0.03515625 1.125,-0.03515625 0.257812,0 0.773437,0.0234375 1.113281,0.03515625 v -0.3046875 c -0.515625,0 -0.773438,0 -0.785156,-0.3046875 v -1.8984375 c 0,-0.8554687 0,-1.171875 -0.304688,-1.5234375 -0.140625,-0.1757812 -0.46875,-0.375 -1.042969,-0.375 -0.726562,0 -1.195312,0.4335938 -1.476562,1.0546875 V -4.405125 L 9.7254219,-4.2879375 V -3.98325 c 0.7031251,0 0.7851561,0.070312 0.7851561,0.5625 z m 8.217774,2.87109375 v 0.65625 L 20.193195,0.001125 v -0.3046875 c -0.703125,0 -0.773437,-0.0703125 -0.773437,-0.5625 v -6.046875 l -1.441406,0.1054688 v 0.3164062 c 0.703125,0 0.785156,0.070312 0.785156,0.5507813 v 2.15625 c -0.292969,-0.3632813 -0.726563,-0.6210938 -1.265625,-0.6210938 -1.171875,0 -2.214844,0.984375 -2.214844,2.2617188 0,1.26562495 0.972656,2.24999995 2.109375,2.24999995 0.644531,0 1.089844,-0.33984375 1.335938,-0.65625 z m 0,-2.67187495 V -1.17075 c 0,0.17578125 0,0.19921875 -0.105469,0.36328125 -0.304688,0.48046875 -0.75,0.703125 -1.183594,0.703125 -0.445312,0 -0.796875,-0.2578125 -1.042969,-0.64453125 -0.257812,-0.4101562 -0.292968,-0.9726562 -0.292968,-1.3828125 0,-0.3632812 0.02344,-0.9609375 0.316406,-1.4179687 0.210937,-0.3046875 0.585937,-0.6328125 1.125,-0.6328125 0.351562,0 0.761719,0.1523437 1.078125,0.5976562 0.105469,0.1640625 0.105469,0.1875 0.105469,0.3632813 z m 5.642578,2.43749995 v 0.890625 L 25.812336,0.001125 v -0.3046875 c -0.703125,0 -0.785156,-0.0703125 -0.785156,-0.5625 V -4.405125 l -1.453125,0.1171875 V -3.98325 c 0.691406,0 0.773437,0.070312 0.773437,0.5625 v 1.7695313 c 0,0.86718745 -0.480469,1.54687495 -1.207031,1.54687495 -0.832031,0 -0.878906,-0.46875 -0.878906,-0.99609375 V -4.405125 l -1.464844,0.1171875 V -3.98325 c 0.785156,0 0.785156,0.035156 0.785156,0.9140625 v 1.5 c 0,0.7734375 0,1.67578125 1.511719,1.67578125 0.550781,0 0.996094,-0.26953125 1.277344,-0.890625 z m 2.803711,-1.38281245 c 0,-1.6289063 0.820312,-2.0507813 1.347656,-2.0507813 0.09375,0 0.714844,0.011719 1.066406,0.375 -0.410156,0.023437 -0.46875,0.328125 -0.46875,0.4570313 0,0.2578125 0.1875,0.4570312 0.457031,0.4570312 0.257813,0 0.457032,-0.1640625 0.457032,-0.46875 0,-0.6796875 -0.75,-1.0664062 -1.523438,-1.0664062 -1.242187,0 -2.15625,1.078125 -2.15625,2.3085937 0,1.27734375 0.984375,2.26171875 2.144531,2.26171875 1.335938,0 1.652344,-1.19531245 1.652344,-1.28906245 0,-0.1054688 -0.105469,-0.1054688 -0.128906,-0.1054688 -0.09375,0 -0.117188,0.046875 -0.128906,0.1054688 -0.292969,0.9257812 -0.9375,1.0429687 -1.3125,1.0429687 -0.527344,0 -1.40625,-0.421875 -1.40625,-2.0273437 z M 32.163898,-3.98325 h 1.429688 v -0.3046875 h -1.429688 v -1.8398437 h -0.246093 c -0.01172,0.8203125 -0.316407,1.8867187 -1.289063,1.921875 V -3.98325 h 0.84375 v 2.7539063 c 0,1.21874995 0.925781,1.33593745 1.289063,1.33593745 0.703125,0 0.984375,-0.703125 0.984375,-1.33593745 v -0.5742188 h -0.246094 v 0.5507813 c 0,0.7382812 -0.304688,1.1132812 -0.667969,1.1132812 -0.667969,0 -0.667969,-0.9023437 -0.667969,-1.078125 z m 6.840821,1.8515625 c 0,-1.2773437 -0.996094,-2.3320312 -2.191406,-2.3320312 -1.253907,0 -2.214844,1.0898437 -2.214844,2.3320312 0,1.2890625 1.03125,2.23828125 2.203125,2.23828125 1.207031,0 2.203125,-0.97265625 2.203125,-2.23828125 z M 36.813313,-0.1395 c -0.433594,0 -0.867188,-0.2109375 -1.136719,-0.66796875 -0.257813,-0.43359375 -0.257813,-1.04296875 -0.257813,-1.40624995 0,-0.3867188 0,-0.9257813 0.246094,-1.359375 0.269531,-0.4570313 0.738281,-0.6679688 1.136719,-0.6679688 0.433594,0 0.867187,0.2226563 1.125,0.6445313 0.257812,0.4335937 0.257812,1.0078125 0.257812,1.3828125 0,0.3632812 0,0.9023437 -0.222656,1.33593745 C 37.739094,-0.43246875 37.3055,-0.1395 36.813313,-0.1395 Z M 40.96175,-3.3035625 V -4.405125 l -1.382812,0.1171875 V -3.98325 c 0.691406,0 0.773437,0.070312 0.773437,0.5625 v 2.66015625 c 0,0.45703125 -0.105469,0.45703125 -0.773437,0.45703125 V 0.001125 c 0.386718,-0.01171875 0.855468,-0.03515625 1.136718,-0.03515625 0.398438,0 0.867188,0 1.265625,0.03515625 v -0.3046875 h -0.210937 c -0.738281,0 -0.761719,-0.1171875 -0.761719,-0.46875 v -1.5351562 c 0,-0.984375 0.421875,-1.875 1.183594,-1.875 0.05859,0 0.08203,0 0.105469,0.011719 -0.03516,0.011719 -0.234375,0.1289063 -0.234375,0.3867188 0,0.28125 0.210937,0.4335937 0.433593,0.4335937 0.175782,0 0.421875,-0.1289062 0.421875,-0.4453125 0,-0.3164062 -0.304687,-0.609375 -0.726562,-0.609375 -0.738281,0 -1.089844,0.6679688 -1.230469,1.1015622 z m 8.484375,-3.0703125 c 0,-0.234375 0,-0.2578125 -0.234375,-0.2578125 -0.609375,0.6328125 -1.488281,0.6328125 -1.804687,0.6328125 v 0.3164063 c 0.199218,0 0.785156,0 1.300781,-0.2578125 v 5.15624995 c 0,0.3515625 -0.03516,0.48046875 -0.925781,0.48046875 H 47.465656 V 0.001125 c 0.351563,-0.03515625 1.207032,-0.03515625 1.605469,-0.03515625 0.398438,0 1.265625,0 1.617188,0.03515625 v -0.3046875 h -0.316407 c -0.902343,0 -0.925781,-0.1171875 -0.925781,-0.48046875 z m 0,0"
       style="fill:#000000;fill-opacity:1;fill-rule:nonzero;stroke:none"
       aria-label="conductor1"
       transform="matrix(1.3333333,0,0,1.3333333,38.009333,154.436)" />
    <path
       id="path27"
       d="m 1.1610938,-2.1668437 c 0,-1.6289063 0.8203125,-2.0507813 1.3476562,-2.0507813 0.09375,0 0.7148438,0.011719 1.0664063,0.375 -0.4101563,0.023437 -0.46875,0.328125 -0.46875,0.4570313 0,0.2578125 0.1875,0.4570312 0.4570312,0.4570312 0.2578125,0 0.4570313,-0.1640625 0.4570313,-0.46875 0,-0.6796875 -0.75,-1.0664062 -1.5234375,-1.0664062 -1.2421875,0 -2.15625005,1.078125 -2.15625005,2.3085937 0,1.27734375 0.98437505,2.26171875 2.14453125,2.26171875 1.3359375,0 1.6523438,-1.19531245 1.6523438,-1.28906245 0,-0.1054688 -0.1054688,-0.1054688 -0.1289063,-0.1054688 -0.09375,0 -0.1171875,0.046875 -0.1289062,0.1054688 -0.2929688,0.9257812 -0.9375,1.0429687 -1.3125,1.0429687 -0.5273438,0 -1.40625,-0.421875 -1.40625,-2.0273437 z m 7.9541015,0.035156 c 0,-1.2773437 -0.9960937,-2.3320312 -2.1914062,-2.3320312 -1.2539063,0 -2.2148438,1.0898437 -2.2148438,2.3320312 0,1.2890625 1.03125,2.23828125 2.203125,2.23828125 1.2070313,0 2.203125,-0.97265625 2.203125,-2.23828125 z M 6.9237891,-0.1395 c -0.4335938,0 -0.8671875,-0.2109375 -1.1367188,-0.66796875 C 5.5292578,-1.2410625 5.5292578,-1.8504375 5.5292578,-2.2137187 c 0,-0.3867188 0,-0.9257813 0.2460938,-1.359375 0.2695312,-0.4570313 0.7382812,-0.6679688 1.1367187,-0.6679688 0.4335938,0 0.8671875,0.2226563 1.125,0.6445313 0.2578125,0.4335937 0.2578125,1.0078125 0.2578125,1.3828125 0,0.3632812 0,0.9023437 -0.2226562,1.33593745 C 7.8495703,-0.43246875 7.4159766,-0.1395 6.9237891,-0.1395 Z m 3.5859379,-3.28125 v 2.66015625 c 0,0.45703125 -0.117188,0.45703125 -0.7851567,0.45703125 V 0.001125 c 0.3515627,-0.01171875 0.8554687,-0.03515625 1.1249997,-0.03515625 0.257813,0 0.785157,0.0234375 1.113282,0.03515625 v -0.3046875 c -0.65625,0 -0.773438,0 -0.773438,-0.45703125 V -2.5887187 c 0,-1.03125 0.714844,-1.59375 1.347656,-1.59375 0.621094,0 0.738282,0.5390625 0.738282,1.1015625 v 2.32031245 c 0,0.45703125 -0.117188,0.45703125 -0.773438,0.45703125 V 0.001125 c 0.339844,-0.01171875 0.855469,-0.03515625 1.125,-0.03515625 0.257813,0 0.773438,0.0234375 1.113281,0.03515625 v -0.3046875 c -0.515625,0 -0.773437,0 -0.785156,-0.3046875 v -1.8984375 c 0,-0.8554687 0,-1.171875 -0.304687,-1.5234375 -0.140625,-0.1757812 -0.46875,-0.375 -1.042969,-0.375 -0.726563,0 -1.195313,0.4335938 -1.476563,1.0546875 V -4.405125 L 9.7245703,-4.2879375 V -3.98325 c 0.7031247,0 0.7851567,0.070312 0.7851567,0.5625 z m 8.220703,2.87109375 v 0.65625 L 20.195273,0.001125 v -0.3046875 c -0.703125,0 -0.773437,-0.0703125 -0.773437,-0.5625 v -6.046875 l -1.441406,0.1054688 v 0.3164062 c 0.703125,0 0.785156,0.070312 0.785156,0.5507813 v 2.15625 c -0.292969,-0.3632813 -0.726563,-0.6210938 -1.265625,-0.6210938 -1.171875,0 -2.214844,0.984375 -2.214844,2.2617188 0,1.26562495 0.972656,2.24999995 2.109375,2.24999995 0.644531,0 1.089844,-0.33984375 1.335938,-0.65625 z m 0,-2.67187495 V -1.17075 c 0,0.17578125 0,0.19921875 -0.105469,0.36328125 -0.304688,0.48046875 -0.75,0.703125 -1.183594,0.703125 -0.445312,0 -0.796875,-0.2578125 -1.042969,-0.64453125 -0.257812,-0.4101562 -0.292968,-0.9726562 -0.292968,-1.3828125 0,-0.3632812 0.02344,-0.9609375 0.316406,-1.4179687 0.210937,-0.3046875 0.585937,-0.6328125 1.125,-0.6328125 0.351562,0 0.761719,0.1523437 1.078125,0.5976562 0.105469,0.1640625 0.105469,0.1875 0.105469,0.3632813 z m 5.639648,2.43749995 v 0.890625 L 25.811484,0.001125 v -0.3046875 c -0.703125,0 -0.785156,-0.0703125 -0.785156,-0.5625 V -4.405125 l -1.453125,0.1171875 V -3.98325 c 0.691406,0 0.773438,0.070312 0.773438,0.5625 v 1.7695313 c 0,0.86718745 -0.480469,1.54687495 -1.207032,1.54687495 -0.832031,0 -0.878906,-0.46875 -0.878906,-0.99609375 V -4.405125 l -1.464844,0.1171875 V -3.98325 c 0.785157,0 0.785157,0.035156 0.785157,0.9140625 v 1.5 c 0,0.7734375 0,1.67578125 1.511718,1.67578125 0.550782,0 0.996094,-0.26953125 1.277344,-0.890625 z m 2.803711,-1.38281245 c 0,-1.6289063 0.820313,-2.0507813 1.347656,-2.0507813 0.09375,0 0.714844,0.011719 1.066407,0.375 -0.410157,0.023437 -0.46875,0.328125 -0.46875,0.4570313 0,0.2578125 0.1875,0.4570312 0.457031,0.4570312 0.257812,0 0.457031,-0.1640625 0.457031,-0.46875 0,-0.6796875 -0.75,-1.0664062 -1.523437,-1.0664062 -1.242188,0 -2.15625,1.078125 -2.15625,2.3085937 0,1.27734375 0.984375,2.26171875 2.144531,2.26171875 1.335937,0 1.652344,-1.19531245 1.652344,-1.28906245 0,-0.1054688 -0.105469,-0.1054688 -0.128907,-0.1054688 -0.09375,0 -0.117187,0.046875 -0.128906,0.1054688 -0.292969,0.9257812 -0.9375,1.0429687 -1.3125,1.0429687 -0.527344,0 -1.40625,-0.421875 -1.40625,-2.0273437 z M 32.163047,-3.98325 h 1.429687 v -0.3046875 h -1.429687 v -1.8398437 h -0.246094 c -0.01172,0.8203125 -0.316406,1.8867187 -1.289062,1.921875 V -3.98325 h 0.84375 v 2.7539063 c 0,1.21874995 0.925781,1.33593745 1.289062,1.33593745 0.703125,0 0.984375,-0.703125 0.984375,-1.33593745 v -0.5742188 h -0.246094 v 0.5507813 c 0,0.7382812 -0.304687,1.1132812 -0.667968,1.1132812 -0.667969,0 -0.667969,-0.9023437 -0.667969,-1.078125 z m 6.84082,1.8515625 c 0,-1.2773437 -0.996094,-2.3320312 -2.191406,-2.3320312 -1.253906,0 -2.214844,1.0898437 -2.214844,2.3320312 0,1.2890625 1.03125,2.23828125 2.203125,2.23828125 1.207031,0 2.203125,-0.97265625 2.203125,-2.23828125 z M 36.812461,-0.1395 c -0.433594,0 -0.867188,-0.2109375 -1.136719,-0.66796875 C 35.41793,-1.2410625 35.41793,-1.8504375 35.41793,-2.2137187 c 0,-0.3867188 0,-0.9257813 0.246093,-1.359375 0.269532,-0.4570313 0.738282,-0.6679688 1.136719,-0.6679688 0.433594,0 0.867188,0.2226563 1.125,0.6445313 0.257813,0.4335937 0.257813,1.0078125 0.257813,1.3828125 0,0.3632812 0,0.9023437 -0.222657,1.33593745 C 37.738242,-0.43246875 37.304648,-0.1395 36.812461,-0.1395 Z m 4.148437,-3.1640625 V -4.405125 l -1.382812,0.1171875 V -3.98325 c 0.691406,0 0.773437,0.070312 0.773437,0.5625 v 2.66015625 c 0,0.45703125 -0.105468,0.45703125 -0.773437,0.45703125 V 0.001125 c 0.386719,-0.01171875 0.855469,-0.03515625 1.136719,-0.03515625 0.398437,0 0.867187,0 1.265625,0.03515625 v -0.3046875 h -0.210938 c -0.738281,0 -0.761719,-0.1171875 -0.761719,-0.46875 v -1.5351562 c 0,-0.984375 0.421875,-1.875 1.183594,-1.875 0.05859,0 0.08203,0 0.105469,0.011719 -0.03516,0.011719 -0.234375,0.1289063 -0.234375,0.3867188 0,0.28125 0.210937,0.4335937 0.433594,0.4335937 0.175781,0 0.421875,-0.1289062 0.421875,-0.4453125 0,-0.3164062 -0.304688,-0.609375 -0.726563,-0.609375 -0.738281,0 -1.089844,0.6679688 -1.230469,1.1015622 z m 6.823243,2.54296875 1.054687,-1.03124995 c 1.558594,-1.3710938 2.15625,-1.9101563 2.15625,-2.90625 0,-1.1367188 -0.902344,-1.9335938 -2.121094,-1.9335938 -1.125,0 -1.851562,0.9140625 -1.851562,1.8046875 0,0.5507813 0.492187,0.5507813 0.527344,0.5507813 0.164062,0 0.515625,-0.1171875 0.515625,-0.5273438 0,-0.2578125 -0.1875,-0.515625 -0.527344,-0.515625 -0.08203,0 -0.105469,0 -0.128906,0.011719 C 47.631797,-5.952 48.170859,-6.327 48.745078,-6.327 c 0.914063,0 1.335938,0.8085938 1.335938,1.6289063 0,0.796875 -0.492188,1.5820312 -1.042969,2.203125 l -1.910156,2.13281245 C 47.022422,-0.2566875 47.022422,-0.23325 47.022422,0.001125 h 3.691406 l 0.28125,-1.734375 h -0.257812 c -0.04687,0.3046875 -0.117188,0.73828125 -0.210938,0.890625 -0.07031,0.0820313 -0.726562,0.0820313 -0.949219,0.0820313 z m 0,0"
       style="fill:#000000;fill-opacity:1;fill-rule:nonzero;stroke:none"
       aria-label="conductor2"
       transform="matrix(1.3333333,0,0,1.3333333,264.78,154.436)" />
  </g>
</svg>
