<?xml version="1.0" encoding="UTF-8" standalone="no"?>
<!-- Created with Inkscape (http://www.inkscape.org/) -->

<svg
   version="1.1"
   id="svg1"
   width="140.33594"
   height="285.70416"
   viewBox="0 0 140.33594 285.70417"
   xmlns="http://www.w3.org/2000/svg"
   xmlns:svg="http://www.w3.org/2000/svg">
  <defs
     id="defs1" />
  <g
     id="g1"
     transform="translate(-18.460938,-14.07691)">
    <path
       id="path1"
       d="m 5.3433516,-5.9294219 c -0.1289063,0.1289063 -0.4570313,0.4101563 -0.4570313,0.5859375 0,0.1054688 0.09375,0.1992188 0.1992188,0.1992188 0.082031,0 0.1289062,-0.070312 0.1875,-0.1289063 0.1171875,-0.140625 0.3398437,-0.421875 0.7851562,-0.6445312 0.070312,-0.035156 0.1640625,-0.09375 0.1640625,-0.2109375 0,-0.09375 -0.070312,-0.1523438 -0.140625,-0.1992188 -0.2109375,-0.1523437 -0.328125,-0.328125 -0.3984375,-0.5625 -0.023437,-0.09375 -0.070312,-0.2226562 -0.1992187,-0.2226562 -0.140625,0 -0.1992188,0.1289062 -0.1992188,0.2109375 0,0.046875 0.070312,0.3632812 0.234375,0.5742187 H 2.1558516 c -0.1640625,0 -0.3398438,0 -0.3398438,0.1992188 0,0.1992187 0.1757813,0.1992187 0.3398438,0.1992187 z m 0.1728515,6.12890628 c 0.023437,-0.046875 0.046875,-0.1171875 0.046875,-0.140625 0,-0.01171875 0,-0.10546875 -0.1171875,-0.10546875 -0.09375,0 -0.1054687,0.05859375 -0.1289062,0.1171875 C 4.6724531,1.5471406 4.2974531,2.2151094 2.5982344,2.2151094 h -1.453125 c -0.140625,0 -0.16406253,0 -0.22265628,-0.011719 -0.10546875,-0.011719 -0.12890625,-0.023437 -0.12890625,-0.1054687 0,-0.023437 0,-0.046875 0.046875,-0.2226563 L 1.5201094,-0.84348437 h 0.984375 c 0.84375,0 0.84375,0.2109375 0.84375,0.45703125 0,0.0703125 0,0.1875 -0.070312,0.48046875 -0.011719,0.05859375 -0.023437,0.08203125 -0.023437,0.1171875 0,0.046875 0.035156,0.10546875 0.1289062,0.10546875 0.082031,0 0.1054688,-0.046875 0.1523438,-0.19921875 l 0.5625,-2.33203123 c 0,-0.058594 -0.046875,-0.1054688 -0.1171875,-0.1054688 -0.09375,0 -0.1054688,0.058594 -0.140625,0.1757813 -0.2109375,0.7617187 -0.3867188,0.984375 -1.3007813,0.984375 h -0.9375 l 0.5976563,-2.4023438 c 0.082031,-0.3398437 0.09375,-0.3867187 0.5390625,-0.3867187 h 1.40625 c 1.2070312,0 1.5117187,0.2929687 1.5117187,1.1132812 0,0.234375 0,0.2578125 -0.046875,0.5273438 0,0.058594 -0.011719,0.1289062 -0.011719,0.1757812 0,0.046875 0.035156,0.1171875 0.1289062,0.1171875 0.1054688,0 0.1171875,-0.058594 0.140625,-0.2460937 L 6.0669844,-3.9841094 C 6.0904219,-4.2536406 6.0435469,-4.2536406 5.7974531,-4.2536406 H 0.75839062 c -0.19921875,0 -0.29296875,0 -0.29296875,0.1992187 0,0.1054688 0.09375,0.1054688 0.28125,0.1054688 0.36328123,0 0.64453123,0 0.64453123,0.1875 0,0.035156 0,0.058594 -0.046875,0.234375 L 0.02010937,1.7463594 c -0.09375,0.3867187 -0.1171875,0.46875 -0.90234375,0.46875 -0.16406252,0 -0.28125002,0 -0.28125002,0.1875 0,0.1171875 0.09375,0.1171875 0.28125002,0.1171875 H 4.2857344 c 0.234375,0 0.2460937,-0.011719 0.3164062,-0.1640625 z m 0,0"
       style="fill:#ff0000;fill-opacity:1;fill-rule:nonzero;stroke:none"
       aria-label="⃗&#10;E"
       transform="matrix(1.3333333,0,0,1.3333333,85.356,53.429333)" />
    <path
       id="path2"
       d="M 0,-10.20491 V 180.28532"
       style="fill:none;stroke:#e63946;stroke-width:1.19553;stroke-linecap:butt;stroke-linejoin:miter;stroke-miterlimit:10;stroke-dasharray:none;stroke-opacity:1"
       transform="matrix(1.3333333,0,0,-1.3333333,43.237333,254.45733)" />
    <path
       id="path3"
       d="M 68.03217,-10.20491 V 180.28532"
       style="fill:none;stroke:#457b9d;stroke-width:1.19553;stroke-linecap:butt;stroke-linejoin:miter;stroke-miterlimit:10;stroke-dasharray:none;stroke-opacity:1"
       transform="matrix(1.3333333,0,0,-1.3333333,43.237333,254.45733)" />
    <path
       id="path4"
       d="M 3.4018,0 H 32.7554"
       style="fill:none;stroke:#ff8080;stroke-width:0.79701;stroke-linecap:butt;stroke-linejoin:miter;stroke-miterlimit:10;stroke-dasharray:none;stroke-opacity:1"
       transform="matrix(1.3333333,0,0,-1.3333333,43.237333,254.45733)" />
    <path
       id="path5"
       d="M 4.66248,0 C 3.28098,0.25902 1.0361,1.0361 -0.51805,1.94269 V -1.94269 C 1.0361,-1.0361 3.28098,-0.25902 4.66248,0"
       style="fill:#ff8080;fill-opacity:1;fill-rule:nonzero;stroke:none"
       transform="matrix(1.3333333,0,0,-1.3333333,86.9112,254.45733)" />
    <path
       id="path6"
       d="M 3.4018,34.01608 H 32.7554"
       style="fill:none;stroke:#ff8080;stroke-width:0.79701;stroke-linecap:butt;stroke-linejoin:miter;stroke-miterlimit:10;stroke-dasharray:none;stroke-opacity:1"
       transform="matrix(1.3333333,0,0,-1.3333333,43.237333,254.45733)" />
    <path
       id="path7"
       d="M 4.66248,0 C 3.28098,0.25902 1.0361,1.0361 -0.51805,1.94269 V -1.94269 C 1.0361,-1.0361 3.28098,-0.25902 4.66248,0"
       style="fill:#ff8080;fill-opacity:1;fill-rule:nonzero;stroke:none"
       transform="matrix(1.3333333,0,0,-1.3333333,86.9112,209.10256)" />
    <path
       id="path8"
       d="M 3.4018,68.03217 H 32.7554"
       style="fill:none;stroke:#ff8080;stroke-width:0.79701;stroke-linecap:butt;stroke-linejoin:miter;stroke-miterlimit:10;stroke-dasharray:none;stroke-opacity:1"
       transform="matrix(1.3333333,0,0,-1.3333333,43.237333,254.45733)" />
    <path
       id="path9"
       d="M 4.66248,0 C 3.28098,0.25902 1.0361,1.0361 -0.51805,1.94269 V -1.94269 C 1.0361,-1.0361 3.28098,-0.25902 4.66248,0"
       style="fill:#ff8080;fill-opacity:1;fill-rule:nonzero;stroke:none"
       transform="matrix(1.3333333,0,0,-1.3333333,86.9112,163.74777)" />
    <path
       id="path10"
       d="M 3.4018,102.04825 H 32.7554"
       style="fill:none;stroke:#ff8080;stroke-width:0.79701;stroke-linecap:butt;stroke-linejoin:miter;stroke-miterlimit:10;stroke-dasharray:none;stroke-opacity:1"
       transform="matrix(1.3333333,0,0,-1.3333333,43.237333,254.45733)" />
    <path
       id="path11"
       d="M 4.66248,0 C 3.28098,0.25902 1.0361,1.0361 -0.51805,1.94269 V -1.94269 C 1.0361,-1.0361 3.28098,-0.25902 4.66248,0"
       style="fill:#ff8080;fill-opacity:1;fill-rule:nonzero;stroke:none"
       transform="matrix(1.3333333,0,0,-1.3333333,86.9112,118.393)" />
    <path
       id="path12"
       d="M 3.4018,136.06433 H 32.7554"
       style="fill:none;stroke:#ff8080;stroke-width:0.79701;stroke-linecap:butt;stroke-linejoin:miter;stroke-miterlimit:10;stroke-dasharray:none;stroke-opacity:1"
       transform="matrix(1.3333333,0,0,-1.3333333,43.237333,254.45733)" />
    <path
       id="path13"
       d="M 4.66248,0 C 3.28098,0.25902 1.0361,1.0361 -0.51805,1.94269 V -1.94269 C 1.0361,-1.0361 3.28098,-0.25902 4.66248,0"
       style="fill:#ff8080;fill-opacity:1;fill-rule:nonzero;stroke:none"
       transform="matrix(1.3333333,0,0,-1.3333333,86.9112,73.038227)" />
    <path
       id="path14"
       d="M 3.4018,170.08041 H 32.7554"
       style="fill:none;stroke:#ff8080;stroke-width:0.79701;stroke-linecap:butt;stroke-linejoin:miter;stroke-miterlimit:10;stroke-dasharray:none;stroke-opacity:1"
       transform="matrix(1.3333333,0,0,-1.3333333,43.237333,254.45733)" />
    <path
       id="path15"
       d="M 4.66248,0 C 3.28098,0.25902 1.0361,1.0361 -0.51805,1.94269 V -1.94269 C 1.0361,-1.0361 3.28098,-0.25902 4.66248,0"
       style="fill:#ff8080;fill-opacity:1;fill-rule:nonzero;stroke:none"
       transform="matrix(1.3333333,0,0,-1.3333333,86.9112,27.683453)" />
    <path
       id="path16"
       d="M 34.01608,0 H 64.63033"
       style="fill:none;stroke:#ff8080;stroke-width:0.79701;stroke-linecap:butt;stroke-linejoin:miter;stroke-miterlimit:10;stroke-dasharray:none;stroke-opacity:1"
       transform="matrix(1.3333333,0,0,-1.3333333,43.237333,254.45733)" />
    <path
       id="path17"
       d="M 34.01608,34.01608 H 64.63033"
       style="fill:none;stroke:#ff8080;stroke-width:0.79701;stroke-linecap:butt;stroke-linejoin:miter;stroke-miterlimit:10;stroke-dasharray:none;stroke-opacity:1"
       transform="matrix(1.3333333,0,0,-1.3333333,43.237333,254.45733)" />
    <path
       id="path18"
       d="M 34.01608,68.03217 H 64.63033"
       style="fill:none;stroke:#ff8080;stroke-width:0.79701;stroke-linecap:butt;stroke-linejoin:miter;stroke-miterlimit:10;stroke-dasharray:none;stroke-opacity:1"
       transform="matrix(1.3333333,0,0,-1.3333333,43.237333,254.45733)" />
    <path
       id="path19"
       d="M 34.01608,102.04825 H 64.63033"
       style="fill:none;stroke:#ff8080;stroke-width:0.79701;stroke-linecap:butt;stroke-linejoin:miter;stroke-miterlimit:10;stroke-dasharray:none;stroke-opacity:1"
       transform="matrix(1.3333333,0,0,-1.3333333,43.237333,254.45733)" />
    <path
       id="path20"
       d="M 34.01608,136.06433 H 64.63033"
       style="fill:none;stroke:#ff8080;stroke-width:0.79701;stroke-linecap:butt;stroke-linejoin:miter;stroke-miterlimit:10;stroke-dasharray:none;stroke-opacity:1"
       transform="matrix(1.3333333,0,0,-1.3333333,43.237333,254.45733)" />
    <path
       id="path21"
       d="M 34.01608,170.08041 H 64.63033"
       style="fill:none;stroke:#ff8080;stroke-width:0.79701;stroke-linecap:butt;stroke-linejoin:miter;stroke-miterlimit:10;stroke-dasharray:none;stroke-opacity:1"
       transform="matrix(1.3333333,0,0,-1.3333333,43.237333,254.45733)" />
    <path
       id="path22"
       d="M 0.96207,-27.21295 H 67.07008"
       style="fill:none;stroke:#6b7280;stroke-width:0.79701;stroke-linecap:butt;stroke-linejoin:miter;stroke-miterlimit:10;stroke-dasharray:none;stroke-opacity:1"
       transform="matrix(1.3333333,0,0,-1.3333333,43.237333,254.45733)" />
    <path
       id="path23"
       d="M 0,3.08846 3.08846,0 0,-3.08846"
       style="fill:none;stroke:#6b7280;stroke-width:0.79701;stroke-linecap:butt;stroke-linejoin:miter;stroke-miterlimit:10;stroke-dasharray:none;stroke-opacity:1"
       transform="matrix(-1.3333333,0,0,1.3333333,48.106693,290.74127)" />
    <path
       id="path24"
       d="M 0,3.08846 3.08846,0 0,-3.08846"
       style="fill:none;stroke:#6b7280;stroke-width:0.79701;stroke-linecap:butt;stroke-linejoin:miter;stroke-miterlimit:10;stroke-dasharray:none;stroke-opacity:1"
       transform="matrix(1.3333333,0,0,-1.3333333,129.07751,290.74127)" />
    <path
       id="path25"
       d="m 28.10277,-33.9928 h 11.82661 v 13.55971 H 28.10277 Z"
       style="fill:#ffffff;fill-opacity:1;fill-rule:nonzero;stroke:none"
       transform="matrix(1.3333333,0,0,-1.3333333,43.237333,254.45733)" />
    <path
       id="path26"
       d="m 5.1431406,-6.8099219 c 0,0 0,-0.1054687 -0.1289062,-0.1054687 -0.1523438,0 -1.1015625,0.09375 -1.265625,0.1054687 -0.082031,0.011719 -0.140625,0.070312 -0.140625,0.1992188 0,0.1171875 0.082031,0.1171875 0.234375,0.1171875 0.4804687,0 0.5039062,0.070312 0.5039062,0.1640625 l -0.035156,0.1992187 -0.5976563,2.3671875 c -0.1757812,-0.375 -0.46875,-0.6445312 -0.9140625,-0.6445312 -1.171875,0 -2.40234373,1.4648437 -2.40234373,2.9179687 0,0.93750003 0.55078125,1.59375003 1.32421873,1.59375003 0.1992188,0 0.703125,-0.03515625 1.3007813,-0.73828125 0.070312,0.41015625 0.421875,0.73828125 0.9023437,0.73828125 0.3515625,0 0.5742188,-0.22265625 0.7382813,-0.5390625 0.1640625,-0.36328125 0.2929687,-0.97265623 0.2929687,-0.99609373 0,-0.09375 -0.082031,-0.09375 -0.1171875,-0.09375 -0.09375,0 -0.1054687,0.035156 -0.140625,0.1757812 -0.1640625,0.64453128 -0.3515625,1.24218753 -0.75,1.24218753 -0.2695312,0 -0.3046875,-0.2578125 -0.3046875,-0.45703125 0,-0.24609375 0.023437,-0.31640625 0.058594,-0.48046878 z m -2.0742187,5.625 c -0.046875,0.1757813 -0.046875,0.19921878 -0.1992188,0.36328128 -0.4453125,0.55078125 -0.84375,0.71484375 -1.125,0.71484375 -0.5039062,0 -0.6445312,-0.55078125 -0.6445312,-0.93750003 0,-0.5039062 0.328125,-1.7226562 0.5507812,-2.1796875 0.3046875,-0.5976562 0.7617188,-0.9609375 1.1601563,-0.9609375 0.6445312,0 0.7851562,0.8203125 0.7851562,0.8789063 0,0.058594 -0.023437,0.1171875 -0.035156,0.1640625 z m 0,0"
       style="fill:#6b7280;fill-opacity:1;fill-rule:nonzero;stroke:none"
       aria-label="d"
       transform="matrix(1.3333333,0,0,1.3333333,85.134667,295.35333)" />
    <g
       id="g26"
       aria-label="+Q"
       transform="matrix(1.3333333,0,0,1.3333333,17.710667,144.31867)">
      <path
         id="path27"
         d="m 4.0783281,-2.2956406 h 2.7773438 c 0.140625,0 0.328125,0 0.328125,-0.1992188 0,-0.1992187 -0.1875,-0.1992187 -0.328125,-0.1992187 H 4.0783281 v -2.7890625 c 0,-0.1289063 0,-0.328125 -0.1992187,-0.328125 -0.1992188,0 -0.1992188,0.1992187 -0.1992188,0.328125 v 2.7890625 H 0.89082812 c -0.140625,0 -0.328125,0 -0.328125,0.1992187 0,0.1992188 0.1875,0.1992188 0.328125,0.1992188 H 3.6798906 v 2.80078123 c 0,0.12890625 0,0.328125 0.1992188,0.328125 0.1992187,0 0.1992187,-0.19921875 0.1992187,-0.328125 z m 0,0"
         style="fill:#000000;fill-opacity:1;fill-rule:nonzero;stroke:none" />
      <path
         id="path28"
         d="m 12.108602,-0.05735937 c 1.546875,-0.5859375 3.011718,-2.36718753 3.011718,-4.28906253 0,-1.59375 -1.054687,-2.671875 -2.542968,-2.671875 -2.144532,0 -4.3359379,2.2617188 -4.3359379,4.5820313 0,1.65234373 1.1132812,2.66015623 2.5429689,2.66015623 0.257812,0 0.585937,-0.046875 0.984375,-0.15234375 -0.04687,0.62109375 -0.04687,0.6328125 -0.04687,0.76171875 0,0.32812497 0,1.10156247 0.832031,1.10156247 1.183594,0 1.664063,-1.82812497 1.664063,-1.93359372 0,-0.0703125 -0.07031,-0.10546875 -0.117188,-0.10546875 -0.07031,0 -0.09375,0.05859375 -0.117187,0.1171875 -0.234375,0.703125 -0.820313,0.94921875 -1.160157,0.94921875 -0.457031,0 -0.609375,-0.2578125 -0.714843,-1.01953125 z m -1.875,-0.08203125 C 9.4484453,-0.44407812 9.1086016,-1.2292344 9.1086016,-2.1198594 c 0,-0.6914062 0.2695312,-2.0976562 1.0195314,-3.1757812 0.726562,-1.0195313 1.664062,-1.4765625 2.390625,-1.4765625 0.996094,0 1.722656,0.7734375 1.722656,2.109375 0,0.9960937 -0.503906,3.328125 -2.179687,4.26562498 -0.04687,-0.3515625 -0.152344,-1.07812498 -0.878907,-1.07812498 -0.527343,0 -1.007812,0.50390623 -1.007812,1.01953123 0,0.19921875 0.05859,0.3046875 0.05859,0.31640625 z m 0.609375,0.10546875 c -0.140625,0 -0.457032,0 -0.457032,-0.421875 0,-0.3984375 0.386719,-0.79687503 0.796875,-0.79687503 0.421875,0 0.609375,0.234375 0.609375,0.84375003 0,0.15234375 -0.01172,0.1640625 -0.105468,0.19921875 -0.257813,0.10546875 -0.5625,0.17578125 -0.84375,0.17578125 z m 0,0"
         style="fill:#000000;fill-opacity:1;fill-rule:nonzero;stroke:none" />
    </g>
    <g
       id="g28"
       aria-label="−Q"
       transform="matrix(1.3333333,0,0,1.3333333,138.63867,144.31867)">
      <path
         id="path29"
         d="m 6.5610391,-2.2956406 c 0.1757812,0 0.3515625,0 0.3515625,-0.1992188 0,-0.1992187 -0.1757813,-0.1992187 -0.3515625,-0.1992187 h -5.390625 c -0.1640625,0 -0.33984379,0 -0.33984379,0.1992187 0,0.1992188 0.17578129,0.1992188 0.33984379,0.1992188 z m 0,0"
         style="fill:#000000;fill-opacity:1;fill-rule:nonzero;stroke:none" />
      <path
         id="path30"
         d="m 12.106938,-0.05735937 c 1.546875,-0.5859375 3.011718,-2.36718753 3.011718,-4.28906253 0,-1.59375 -1.054687,-2.671875 -2.542968,-2.671875 -2.144532,0 -4.335938,2.2617188 -4.335938,4.5820313 0,1.65234373 1.1132813,2.66015623 2.542969,2.66015623 0.257812,0 0.585937,-0.046875 0.984375,-0.15234375 -0.04687,0.62109375 -0.04687,0.6328125 -0.04687,0.76171875 0,0.32812497 0,1.10156247 0.832031,1.10156247 1.183594,0 1.664063,-1.82812497 1.664063,-1.93359372 0,-0.0703125 -0.07031,-0.10546875 -0.117188,-0.10546875 -0.07031,0 -0.09375,0.05859375 -0.117187,0.1171875 -0.234375,0.703125 -0.820313,0.94921875 -1.160157,0.94921875 -0.457031,0 -0.609375,-0.2578125 -0.714843,-1.01953125 z m -1.875,-0.08203125 C 9.4467813,-0.44407812 9.1069375,-1.2292344 9.1069375,-2.1198594 c 0,-0.6914062 0.2695313,-2.0976562 1.0195315,-3.1757812 0.726562,-1.0195313 1.664062,-1.4765625 2.390625,-1.4765625 0.996094,0 1.722656,0.7734375 1.722656,2.109375 0,0.9960937 -0.503906,3.328125 -2.179687,4.26562498 -0.04687,-0.3515625 -0.152344,-1.07812498 -0.878907,-1.07812498 -0.527343,0 -1.007812,0.50390623 -1.007812,1.01953123 0,0.19921875 0.05859,0.3046875 0.05859,0.31640625 z m 0.609375,0.10546875 c -0.140625,0 -0.457032,0 -0.457032,-0.421875 0,-0.3984375 0.386719,-0.79687503 0.796875,-0.79687503 0.421875,0 0.609375,0.234375 0.609375,0.84375003 0,0.15234375 -0.01172,0.1640625 -0.105468,0.19921875 -0.257813,0.10546875 -0.5625,0.17578125 -0.84375,0.17578125 z m 0,0"
         style="fill:#000000;fill-opacity:1;fill-rule:nonzero;stroke:none" />
    </g>
  </g>
</svg>
