<?xml version="1.0" encoding="UTF-8" standalone="no"?>
<!-- Created with Inkscape (http://www.inkscape.org/) -->

<svg
   version="1.1"
   id="svg1"
   width="227.83716"
   height="265.02078"
   viewBox="0 0 227.83716 265.02078"
   xmlns="http://www.w3.org/2000/svg"
   xmlns:svg="http://www.w3.org/2000/svg">
  <defs
     id="defs1">
    <linearGradient
       x1="0"
       y1="0"
       x2="0"
       y2="100.00128"
       gradientUnits="userSpaceOnUse"
       id="linearGradient5">
      <stop
         style="stop-opacity:1;stop-color:#f8c4c8"
         offset="0"
         id="stop1" />
      <stop
         style="stop-opacity:1;stop-color:#f8c4c8"
         offset="0.25"
         id="stop2" />
      <stop
         style="stop-opacity:1;stop-color:#fdebec"
         offset="0.5"
         id="stop3" />
      <stop
         style="stop-opacity:1;stop-color:#f8c4c8"
         offset="0.75"
         id="stop4" />
      <stop
         style="stop-opacity:1;stop-color:#f8c4c8"
         offset="1"
         id="stop5" />
    </linearGradient>
    <clipPath
       clipPathUnits="userSpaceOnUse"
       id="clipPath6">
      <path
         d="m 13.810587,240.58667 56.6936,-28.34679 V 13.812187 l -56.6936,28.346826 V 240.58667"
         id="path6" />
    </clipPath>
    <linearGradient
       x1="0"
       y1="0"
       x2="0"
       y2="100.00128"
       gradientUnits="userSpaceOnUse"
       id="linearGradient11">
      <stop
         style="stop-opacity:1;stop-color:#c7d7e2"
         offset="0"
         id="stop7" />
      <stop
         style="stop-opacity:1;stop-color:#c7d7e2"
         offset="0.25"
         id="stop8" />
      <stop
         style="stop-opacity:1;stop-color:#ecf2f5"
         offset="0.5"
         id="stop9" />
      <stop
         style="stop-opacity:1;stop-color:#c7d7e2"
         offset="0.75"
         id="stop10" />
      <stop
         style="stop-opacity:1;stop-color:#c7d7e2"
         offset="1"
         id="stop11" />
    </linearGradient>
    <clipPath
       clipPathUnits="userSpaceOnUse"
       id="clipPath12">
      <path
         d="m 183.89144,240.58667 56.69363,-28.34679 V 13.812187 L 183.89144,42.159013 V 240.58667"
         id="path12" />
    </clipPath>
  </defs>
  <g
     id="g1"
     transform="translate(-13.279257,-12.952469)">
    <path
       id="path1"
       d="m 5.3433828,-5.9307656 c -0.1289062,0.1289062 -0.4570312,0.4101562 -0.4570312,0.5859375 0,0.1054687 0.09375,0.1992187 0.1992187,0.1992187 0.082031,0 0.1289063,-0.070312 0.1875,-0.1289062 0.1171875,-0.140625 0.3398438,-0.421875 0.7851563,-0.6445313 0.070312,-0.035156 0.1640625,-0.09375 0.1640625,-0.2109375 0,-0.09375 -0.070312,-0.1523437 -0.140625,-0.1992187 -0.2109375,-0.1523438 -0.328125,-0.328125 -0.3984375,-0.5625 -0.023437,-0.09375 -0.070312,-0.2226563 -0.1992188,-0.2226563 -0.140625,0 -0.1992187,0.1289063 -0.1992187,0.2109375 0,0.046875 0.070312,0.3632813 0.234375,0.5742188 H 2.1558828 c -0.1640625,0 -0.3398437,0 -0.3398437,0.1992187 0,0.1992188 0.1757812,0.1992188 0.3398437,0.1992188 z m 0.1728516,6.12890623 c 0.023437,-0.046875 0.046875,-0.1171875 0.046875,-0.140625 0,-0.01171875 0,-0.10546875 -0.1171875,-0.10546875 -0.09375,0 -0.1054688,0.05859375 -0.1289063,0.1171875 C 4.6724844,1.5457969 4.2974844,2.2137656 2.5982656,2.2137656 h -1.453125 c -0.140625,0 -0.16406248,0 -0.22265623,-0.011719 -0.10546875,-0.011719 -0.12890625,-0.023437 -0.12890625,-0.1054688 0,-0.023437 0,-0.046875 0.046875,-0.2226562 L 1.5201406,-0.84482812 h 0.984375 c 0.84375,0 0.84375,0.2109375 0.84375,0.45703125 0,0.0703125 0,0.1875 -0.070312,0.48046875 -0.011719,0.05859375 -0.023437,0.08203125 -0.023437,0.1171875 0,0.046875 0.035156,0.10546875 0.1289063,0.10546875 0.082031,0 0.1054687,-0.046875 0.1523437,-0.19921875 l 0.5625,-2.33203128 c 0,-0.058594 -0.046875,-0.1054687 -0.1171875,-0.1054687 -0.09375,0 -0.1054687,0.058594 -0.140625,0.1757812 -0.2109375,0.7617188 -0.3867187,0.984375 -1.3007812,0.984375 h -0.9375 l 0.5976562,-2.4023437 c 0.082031,-0.3398438 0.09375,-0.3867188 0.5390625,-0.3867188 h 1.40625 c 1.2070313,0 1.5117188,0.2929688 1.5117188,1.1132813 0,0.234375 0,0.2578125 -0.046875,0.5273437 0,0.058594 -0.011719,0.1289063 -0.011719,0.1757813 0,0.046875 0.035156,0.1171875 0.1289063,0.1171875 0.1054687,0 0.1171875,-0.058594 0.140625,-0.2460938 L 6.0670156,-3.9854531 C 6.0904531,-4.2549844 6.0435781,-4.2549844 5.7974844,-4.2549844 H 0.75842187 c -0.19921875,0 -0.29296875,0 -0.29296875,0.1992188 0,0.1054687 0.09375,0.1054687 0.28125,0.1054687 0.36328128,0 0.64453128,0 0.64453128,0.1875 0,0.035156 0,0.058594 -0.046875,0.234375 L 0.02014062,1.7450156 c -0.09375,0.3867188 -0.1171875,0.46875 -0.90234375,0.46875 -0.16406247,0 -0.28124997,0 -0.28124997,0.1875 0,0.1171875 0.09375,0.1171875 0.28124997,0.1171875 H 4.2857656 c 0.234375,0 0.2460938,-0.011719 0.3164063,-0.1640625 z m 0,0"
       style="fill:#ff0000;fill-opacity:1;fill-rule:nonzero;stroke:none"
       aria-label="⃗&#10;E"
       transform="matrix(1.3333333,0,0,1.3333333,123.96533,45.228)" />
    <g
       id="g5"
       clip-path="url(#clipPath6)">
      <path
         d="M 0,0 H 100 V 100 H 0 Z"
         transform="matrix(1.9131666,-0.69635028,-1.2373733,-3.399584,8.3677256,331.99615)"
         style="fill:url(#linearGradient5);stroke:none"
         id="path5" />
    </g>
    <path
       id="path7"
       d="m -212.60106,0 42.5202,21.26009 v 148.82077 l -42.5202,-21.26012 V 0"
       style="fill:none;stroke:#000000;stroke-width:0.79701;stroke-linecap:butt;stroke-linejoin:miter;stroke-miterlimit:10;stroke-dasharray:none;stroke-opacity:1"
       transform="matrix(1.3333333,0,0,-1.3333333,297.27867,240.58667)" />
    <g
       id="g11"
       clip-path="url(#clipPath12)">
      <path
         d="M 0,0 H 100 V 100 H 0 Z"
         transform="matrix(1.9131666,-0.69635028,-1.2373733,-3.399584,178.44861,331.99615)"
         style="fill:url(#linearGradient11);stroke:none"
         id="path11" />
    </g>
    <path
       id="path13"
       d="M -85.04042,0 -42.5202,21.26009 V 170.08086 L -85.04042,148.82074 V 0"
       style="fill:none;stroke:#000000;stroke-width:0.79701;stroke-linecap:butt;stroke-linejoin:miter;stroke-miterlimit:10;stroke-dasharray:none;stroke-opacity:1"
       transform="matrix(1.3333333,0,0,-1.3333333,297.27867,240.58667)" />
    <path
       id="path14"
       d="m -191.34094,42.5202 h 59.66995"
       style="fill:none;stroke:#ff0000;stroke-width:0.79701;stroke-linecap:butt;stroke-linejoin:miter;stroke-miterlimit:10;stroke-dasharray:none;stroke-opacity:1"
       transform="matrix(1.3333333,0,0,-1.3333333,297.27867,240.58667)" />
    <path
       id="path15"
       d="M 5.44046,0 1.28699,1.5706 2.66432,0 1.28699,-1.5706 Z"
       style="fill:#ff0000;fill-opacity:1;fill-rule:nonzero;stroke:#ff0000;stroke-width:0.79701;stroke-linecap:butt;stroke-linejoin:miter;stroke-miterlimit:10;stroke-dasharray:none;stroke-opacity:1"
       transform="matrix(1.3333333,0,0,-1.3333333,118.43059,183.89307)" />
    <path
       id="path16"
       d="m -191.34094,85.04042 h 59.66995"
       style="fill:none;stroke:#ff0000;stroke-width:0.79701;stroke-linecap:butt;stroke-linejoin:miter;stroke-miterlimit:10;stroke-dasharray:none;stroke-opacity:1"
       transform="matrix(1.3333333,0,0,-1.3333333,297.27867,240.58667)" />
    <path
       id="path17"
       d="M 5.44046,0 1.28699,1.5706 2.66432,0 1.28699,-1.5706 Z"
       style="fill:#ff0000;fill-opacity:1;fill-rule:nonzero;stroke:#ff0000;stroke-width:0.79701;stroke-linecap:butt;stroke-linejoin:miter;stroke-miterlimit:10;stroke-dasharray:none;stroke-opacity:1"
       transform="matrix(1.3333333,0,0,-1.3333333,118.43059,127.19944)" />
    <path
       id="path18"
       d="m -191.34094,127.56062 h 59.66995"
       style="fill:none;stroke:#ff0000;stroke-width:0.79701;stroke-linecap:butt;stroke-linejoin:miter;stroke-miterlimit:10;stroke-dasharray:none;stroke-opacity:1"
       transform="matrix(1.3333333,0,0,-1.3333333,297.27867,240.58667)" />
    <path
       id="path19"
       d="M 5.44046,0 1.28699,1.5706 2.66432,0 1.28699,-1.5706 Z"
       style="fill:#ff0000;fill-opacity:1;fill-rule:nonzero;stroke:#ff0000;stroke-width:0.79701;stroke-linecap:butt;stroke-linejoin:miter;stroke-miterlimit:10;stroke-dasharray:none;stroke-opacity:1"
       transform="matrix(1.3333333,0,0,-1.3333333,118.43059,70.50584)" />
    <path
       id="path20"
       d="m -127.56062,42.5202 h 42.5202"
       style="fill:none;stroke:#ff0000;stroke-width:0.79701;stroke-linecap:butt;stroke-linejoin:miter;stroke-miterlimit:10;stroke-dasharray:none;stroke-opacity:1"
       transform="matrix(1.3333333,0,0,-1.3333333,297.27867,240.58667)" />
    <path
       id="path21"
       d="m -127.56062,85.04042 h 42.5202"
       style="fill:none;stroke:#ff0000;stroke-width:0.79701;stroke-linecap:butt;stroke-linejoin:miter;stroke-miterlimit:10;stroke-dasharray:none;stroke-opacity:1"
       transform="matrix(1.3333333,0,0,-1.3333333,297.27867,240.58667)" />
    <path
       id="path22"
       d="m -127.56062,127.56062 h 42.5202"
       style="fill:none;stroke:#ff0000;stroke-width:0.79701;stroke-linecap:butt;stroke-linejoin:miter;stroke-miterlimit:10;stroke-dasharray:none;stroke-opacity:1"
       transform="matrix(1.3333333,0,0,-1.3333333,297.27867,240.58667)" />
    <path
       id="path23"
       d="M -85.04042,42.5202 H -63.7803"
       style="fill:none;stroke:#ff0000;stroke-width:0.79701;stroke-linecap:butt;stroke-linejoin:miter;stroke-miterlimit:10;stroke-dasharray:2.98883, 2.98883;stroke-dashoffset:0;stroke-opacity:1"
       transform="matrix(1.3333333,0,0,-1.3333333,297.27867,240.58667)" />
    <path
       id="path24"
       d="M -85.04042,85.04042 H -63.7803"
       style="fill:none;stroke:#ff0000;stroke-width:0.79701;stroke-linecap:butt;stroke-linejoin:miter;stroke-miterlimit:10;stroke-dasharray:2.98883, 2.98883;stroke-dashoffset:0;stroke-opacity:1"
       transform="matrix(1.3333333,0,0,-1.3333333,297.27867,240.58667)" />
    <path
       id="path25"
       d="M -85.04042,127.56062 H -63.7803"
       style="fill:none;stroke:#ff0000;stroke-width:0.79701;stroke-linecap:butt;stroke-linejoin:miter;stroke-miterlimit:10;stroke-dasharray:2.98883, 2.98883;stroke-dashoffset:0;stroke-opacity:1"
       transform="matrix(1.3333333,0,0,-1.3333333,297.27867,240.58667)" />
    <path
       id="path26"
       d="M -190.37886,-21.26009 H -64.74237"
       style="fill:none;stroke:#6b7280;stroke-width:0.79701;stroke-linecap:butt;stroke-linejoin:miter;stroke-miterlimit:10;stroke-dasharray:none;stroke-opacity:1"
       transform="matrix(1.3333333,0,0,-1.3333333,297.27867,240.58667)" />
    <path
       id="path27"
       d="M 0,3.08846 3.08846,0 0,-3.08846"
       style="fill:none;stroke:#6b7280;stroke-width:0.79701;stroke-linecap:butt;stroke-linejoin:miter;stroke-miterlimit:10;stroke-dasharray:none;stroke-opacity:1"
       transform="matrix(-1.3333333,0,0,1.3333333,47.0268,268.93345)" />
    <path
       id="path28"
       d="M 0,3.08846 3.08846,0 0,-3.08846"
       style="fill:none;stroke:#6b7280;stroke-width:0.79701;stroke-linecap:butt;stroke-linejoin:miter;stroke-miterlimit:10;stroke-dasharray:none;stroke-opacity:1"
       transform="matrix(1.3333333,0,0,-1.3333333,207.36888,268.93345)" />
    <path
       id="path29"
       d="m -133.47394,-28.03993 h 11.82661 v 13.55971 h -11.82661 z"
       style="fill:#ffffff;fill-opacity:1;fill-rule:nonzero;stroke:none"
       transform="matrix(1.3333333,0,0,-1.3333333,297.27867,240.58667)" />
    <path
       id="path30"
       d="m 5.1431719,-6.8074375 c 0,0 0,-0.1054687 -0.1289063,-0.1054687 -0.1523437,0 -1.1015625,0.09375 -1.265625,0.1054687 -0.082031,0.011719 -0.140625,0.070312 -0.140625,0.1992188 0,0.1171875 0.082031,0.1171875 0.234375,0.1171875 0.4804688,0 0.5039063,0.070312 0.5039063,0.1640625 L 4.3111406,-6.12775 3.7134844,-3.7605625 c -0.1757813,-0.375 -0.46875,-0.6445312 -0.9140625,-0.6445312 -1.171875,0 -2.40234377,1.4648437 -2.40234377,2.9179687 0,0.9375 0.55078125,1.59375 1.32421877,1.59375 0.1992187,0 0.703125,-0.03515625 1.3007812,-0.73828125 C 3.0923906,-0.2215 3.4439531,0.106625 3.9244219,0.106625 c 0.3515625,0 0.5742187,-0.22265625 0.7382812,-0.5390625 0.1640625,-0.36328125 0.2929688,-0.9726562 0.2929688,-0.9960937 0,-0.09375 -0.082031,-0.09375 -0.1171875,-0.09375 -0.09375,0 -0.1054688,0.035156 -0.140625,0.1757812 -0.1640625,0.64453125 -0.3515625,1.2421875 -0.75,1.2421875 -0.2695313,0 -0.3046875,-0.2578125 -0.3046875,-0.45703125 0,-0.24609375 0.023437,-0.31640625 0.058594,-0.48046875 z m -2.0742188,5.625 c -0.046875,0.1757813 -0.046875,0.19921875 -0.1992187,0.36328125 -0.4453125,0.55078125 -0.84375,0.71484375 -1.125,0.71484375 -0.5039063,0 -0.6445313,-0.55078125 -0.6445313,-0.9375 0,-0.5039062 0.328125,-1.7226562 0.5507813,-2.1796875 0.3046875,-0.5976562 0.7617187,-0.9609375 1.1601562,-0.9609375 0.6445313,0 0.7851563,0.8203125 0.7851563,0.8789063 0,0.058594 -0.023437,0.1171875 -0.035156,0.1640625 z m 0,0"
       style="fill:#6b7280;fill-opacity:1;fill-rule:nonzero;stroke:none"
       aria-label="d"
       transform="matrix(1.3333333,0,0,1.3333333,123.744,273.54533)" />
    <g
       id="g30"
       aria-label="+Q"
       transform="matrix(1.3333333,0,0,1.3333333,31.745333,102.10133)">
      <path
         id="path31"
         d="m 4.0786953,-2.2967031 h 2.7773438 c 0.140625,0 0.328125,0 0.328125,-0.1992188 0,-0.1992187 -0.1875,-0.1992187 -0.328125,-0.1992187 H 4.0786953 v -2.7890625 c 0,-0.1289063 0,-0.328125 -0.1992187,-0.328125 -0.1992188,0 -0.1992188,0.1992187 -0.1992188,0.328125 v 2.7890625 H 0.89119531 c -0.140625,0 -0.328125,0 -0.328125,0.1992187 0,0.1992188 0.1875,0.1992188 0.328125,0.1992188 H 3.6802578 v 2.80078123 c 0,0.12890625 0,0.328125 0.1992188,0.328125 0.1992187,0 0.1992187,-0.19921875 0.1992187,-0.328125 z m 0,0"
         style="fill:#000000;fill-opacity:1;fill-rule:nonzero;stroke:none" />
      <path
         id="path32"
         d="m 12.106039,-0.05842187 c 1.546875,-0.5859375 3.011719,-2.36718753 3.011719,-4.28906253 0,-1.59375 -1.054688,-2.671875 -2.542969,-2.671875 -2.144531,0 -4.3359374,2.2617188 -4.3359374,4.5820313 0,1.65234373 1.1132812,2.66015623 2.5429684,2.66015623 0.257813,0 0.585938,-0.046875 0.984375,-0.15234375 -0.04687,0.62109375 -0.04687,0.6328125 -0.04687,0.76171875 0,0.32812497 0,1.10156247 0.832032,1.10156247 1.183593,0 1.664062,-1.82812497 1.664062,-1.933593725 0,-0.070312495 -0.07031,-0.105468745 -0.117187,-0.105468745 -0.07031,0 -0.09375,0.05859375 -0.117188,0.1171875 -0.234375,0.703125 -0.820312,0.94921875 -1.160156,0.94921875 -0.457031,0 -0.609375,-0.2578125 -0.714844,-1.01953125 z m -1.875,-0.08203125 C 9.4458828,-0.44514062 9.1060391,-1.2302969 9.1060391,-2.1209219 c 0,-0.6914062 0.2695312,-2.0976562 1.0195309,-3.1757812 0.726563,-1.0195313 1.664063,-1.4765625 2.390625,-1.4765625 0.996094,0 1.722657,0.7734375 1.722657,2.109375 0,0.9960937 -0.503907,3.328125 -2.179688,4.26562498 -0.04687,-0.3515625 -0.152344,-1.07812498 -0.878906,-1.07812498 -0.527344,0 -1.007813,0.50390623 -1.007813,1.01953123 0,0.19921875 0.05859,0.3046875 0.05859,0.31640625 z m 0.609375,0.10546875 c -0.140625,0 -0.457031,0 -0.457031,-0.421875 0,-0.3984375 0.386719,-0.79687503 0.796875,-0.79687503 0.421875,0 0.609375,0.234375 0.609375,0.84375003 0,0.15234375 -0.01172,0.1640625 -0.105469,0.19921875 -0.257812,0.10546875 -0.5625,0.17578125 -0.84375,0.17578125 z m 0,0"
         style="fill:#000000;fill-opacity:1;fill-rule:nonzero;stroke:none" />
    </g>
    <g
       id="g32"
       aria-label="−Q"
       transform="matrix(1.3333333,0,0,1.3333333,201.824,102.10133)">
      <path
         id="path33"
         d="m 6.5626641,-2.2967031 c 0.1757812,0 0.3515625,0 0.3515625,-0.1992188 0,-0.1992187 -0.1757813,-0.1992187 -0.3515625,-0.1992187 h -5.390625 c -0.1640625,0 -0.33984379,0 -0.33984379,0.1992187 0,0.1992188 0.17578129,0.1992188 0.33984379,0.1992188 z m 0,0"
         style="fill:#000000;fill-opacity:1;fill-rule:nonzero;stroke:none" />
      <path
         id="path34"
         d="m 12.108563,-0.05842187 c 1.546875,-0.5859375 3.011718,-2.36718753 3.011718,-4.28906253 0,-1.59375 -1.054687,-2.671875 -2.542968,-2.671875 -2.144532,0 -4.335938,2.2617188 -4.335938,4.5820313 0,1.65234373 1.1132813,2.66015623 2.542969,2.66015623 0.257812,0 0.585937,-0.046875 0.984375,-0.15234375 -0.04687,0.62109375 -0.04687,0.6328125 -0.04687,0.76171875 0,0.32812497 0,1.10156247 0.832031,1.10156247 1.183594,0 1.664063,-1.82812497 1.664063,-1.933593725 0,-0.070312495 -0.07031,-0.105468745 -0.117188,-0.105468745 -0.07031,0 -0.09375,0.05859375 -0.117187,0.1171875 -0.234375,0.703125 -0.820313,0.94921875 -1.160157,0.94921875 -0.457031,0 -0.609375,-0.2578125 -0.714843,-1.01953125 z m -1.875,-0.08203125 C 9.4484063,-0.44514062 9.1085625,-1.2302969 9.1085625,-2.1209219 c 0,-0.6914062 0.2695313,-2.0976562 1.0195315,-3.1757812 0.726562,-1.0195313 1.664062,-1.4765625 2.390625,-1.4765625 0.996094,0 1.722656,0.7734375 1.722656,2.109375 0,0.9960937 -0.503906,3.328125 -2.179687,4.26562498 -0.04687,-0.3515625 -0.152344,-1.07812498 -0.878907,-1.07812498 -0.527343,0 -1.007812,0.50390623 -1.007812,1.01953123 0,0.19921875 0.05859,0.3046875 0.05859,0.31640625 z m 0.609375,0.10546875 c -0.140625,0 -0.457032,0 -0.457032,-0.421875 0,-0.3984375 0.386719,-0.79687503 0.796875,-0.79687503 0.421875,0 0.609375,0.234375 0.609375,0.84375003 0,0.15234375 -0.01172,0.1640625 -0.105468,0.19921875 -0.257813,0.10546875 -0.5625,0.17578125 -0.84375,0.17578125 z m 0,0"
         style="fill:#000000;fill-opacity:1;fill-rule:nonzero;stroke:none" />
    </g>
    <path
       id="path35"
       d="m 1.7810156,-1.1484062 c -0.3984375,0.6679687 -0.78515623,0.8085937 -1.21874998,0.84374995 -0.12890625,0 -0.2109375,0 -0.2109375,0.19921875 0,0.05859375 0.046875,0.10546875 0.12890625,0.10546875 0.26953125,0 0.57421873,-0.03515625 0.85546873,-0.03515625 0.328125,0 0.6796875,0.03515625 0.9960938,0.03515625 0.058594,0 0.1875,0 0.1875,-0.1875 0,-0.1171875 -0.09375,-0.1171875 -0.1640625,-0.1171875 -0.2226563,-0.0234375 -0.4570313,-0.10546875 -0.4570313,-0.3515625 0,-0.1171875 0.058594,-0.234375 0.1289063,-0.37499995 l 0.7617187,-1.265625 h 2.4960938 c 0.023437,0.1992187 0.1640625,1.5585937 0.1640625,1.66406245 0,0.29296875 -0.515625,0.328125 -0.7148438,0.328125 -0.140625,0 -0.2460937,0 -0.2460937,0.19921875 0,0.10546875 0.1289062,0.10546875 0.140625,0.10546875 0.4101562,0 0.84375,-0.03515625 1.2539062,-0.03515625 0.2460938,0 0.8671875,0.03515625 1.125,0.03515625 0.058594,0 0.1757813,0 0.1757813,-0.19921875 0,-0.10546875 -0.1054688,-0.10546875 -0.234375,-0.10546875 -0.609375,0 -0.609375,-0.0703125 -0.6445313,-0.36328125 l -0.609375,-6.2226562 c -0.011719,-0.1992188 -0.011719,-0.2460938 -0.1875,-0.2460938 -0.1640625,0 -0.1992187,0.070312 -0.2578125,0.1757813 z m 1.1953125,-1.4648438 1.96875,-3.28125 0.3164063,3.28125 z m 0,0"
       style="fill:#000000;fill-opacity:1;fill-rule:nonzero;stroke:none"
       aria-label="A"
       transform="matrix(1.3333333,0,0,1.3333333,37.18,211.10933)" />
    <path
       id="path36"
       d="m 1.7806094,-1.1484062 c -0.3984375,0.6679687 -0.78515628,0.8085937 -1.21875003,0.84374995 -0.12890625,0 -0.2109375,0 -0.2109375,0.19921875 0,0.05859375 0.046875,0.10546875 0.12890625,0.10546875 0.26953125,0 0.57421878,-0.03515625 0.85546878,-0.03515625 0.328125,0 0.6796875,0.03515625 0.9960937,0.03515625 0.058594,0 0.1875,0 0.1875,-0.1875 0,-0.1171875 -0.09375,-0.1171875 -0.1640625,-0.1171875 -0.2226562,-0.0234375 -0.4570312,-0.10546875 -0.4570312,-0.3515625 0,-0.1171875 0.058594,-0.234375 0.1289062,-0.37499995 l 0.7617188,-1.265625 h 2.4960937 c 0.023437,0.1992187 0.1640625,1.5585937 0.1640625,1.66406245 0,0.29296875 -0.515625,0.328125 -0.7148437,0.328125 -0.140625,0 -0.2460938,0 -0.2460938,0.19921875 0,0.10546875 0.1289063,0.10546875 0.140625,0.10546875 0.4101563,0 0.84375,-0.03515625 1.2539063,-0.03515625 0.2460937,0 0.8671875,0.03515625 1.125,0.03515625 0.058594,0 0.1757812,0 0.1757812,-0.19921875 0,-0.10546875 -0.1054687,-0.10546875 -0.234375,-0.10546875 -0.609375,0 -0.609375,-0.0703125 -0.6445312,-0.36328125 l -0.609375,-6.2226562 c -0.011719,-0.1992188 -0.011719,-0.2460938 -0.1875,-0.2460938 -0.1640625,0 -0.1992188,0.070312 -0.2578125,0.1757813 z m 1.1953125,-1.4648438 1.96875,-3.28125 0.3164062,3.28125 z m 0,0"
       style="fill:#000000;fill-opacity:1;fill-rule:nonzero;stroke:none"
       aria-label="A"
       transform="matrix(1.3333333,0,0,1.3333333,207.25867,211.10933)" />
  </g>
</svg>
