<?xml version="1.0" encoding="UTF-8" standalone="no"?>
<!-- Created with Inkscape (http://www.inkscape.org/) -->

<svg
   version="1.1"
   id="svg1"
   width="181.26172"
   height="146.40962"
   viewBox="0 0 181.26172 146.40962"
   xmlns="http://www.w3.org/2000/svg"
   xmlns:svg="http://www.w3.org/2000/svg">
  <defs
     id="defs1" />
  <g
     id="g1"
     transform="translate(-16.101562,-13.281779)">
    <path
       id="path1"
       d="M 85.04042,85.04042 V 70.867 l -2e-5,-24.37834 m 0,-7.93695 2e-5,-24.37832 V 0 m 0,85.04042 h 85.04044 V 70.867 46.48866 m 0,-7.93695 V 14.17339 0 H 155.90744 131.5291 m -7.93695,0 H 99.21382 92.1271 m 0,0 h -7.08668"
       style="fill:none;stroke:#000000;stroke-width:0.3985;stroke-linecap:butt;stroke-linejoin:miter;stroke-miterlimit:10;stroke-dasharray:none;stroke-opacity:1"
       transform="matrix(1.3333333,0,0,-1.3333333,-62.898667,126.93467)" />
    <path
       id="path2"
       d="M 96.94612,46.48866 H 73.13469 M 96.94612,38.55171 H 73.13469"
       style="fill:none;stroke:#000000;stroke-width:0.797;stroke-linecap:butt;stroke-linejoin:miter;stroke-miterlimit:10;stroke-dasharray:none;stroke-opacity:1"
       transform="matrix(1.3333333,0,0,-1.3333333,-62.898667,126.93467)" />
    <g
       id="g2"
       aria-label="C&#10;0"
       transform="matrix(1.3333333,0,0,1.3333333,15.428,73.101333)">
      <path
         id="path3"
         d="m 7.5715781,-6.9256094 c 0,-0.023437 -0.023437,-0.09375 -0.1054687,-0.09375 -0.035156,0 -0.046875,0.011719 -0.1523438,0.1171875 l -0.703125,0.7617188 c -0.082031,-0.140625 -0.5390625,-0.8789063 -1.6523437,-0.8789063 -2.2148438,0 -4.45312503,2.203125 -4.45312503,4.5117188 0,1.64062497 1.17187503,2.73046872 2.69531253,2.73046872 0.8671875,0 1.6171875,-0.3984375 2.1445312,-0.85546875 0.9375,-0.82031247 1.1015625,-1.72265627 1.1015625,-1.75781247 0,-0.1054688 -0.1054687,-0.1054688 -0.1171875,-0.1054688 -0.058594,0 -0.1171875,0.023437 -0.1289062,0.1054688 -0.09375,0.2929687 -0.3164063,0.9960937 -1.0078125,1.57031247 -0.6914063,0.5625 -1.3125,0.7265625 -1.8398438,0.7265625 -0.890625,0 -1.9453125,-0.515625 -1.9453125,-2.06249997 0,-0.5742188 0.2109375,-2.1914063 1.2070313,-3.3515625 0.609375,-0.703125 1.5351562,-1.2070313 2.4257812,-1.2070313 1.0195313,0 1.6054688,0.7734375 1.6054688,1.921875 0,0.3984375 -0.035156,0.4101563 -0.035156,0.5039063 0,0.1054687 0.1171875,0.1054687 0.1523438,0.1054687 0.1289062,0 0.1289062,-0.023437 0.1757812,-0.1992187 z m 0,0"
         style="fill:#000000;fill-opacity:1;fill-rule:nonzero;stroke:none" />
      <path
         id="path4"
         d="m 10.718062,-0.73225 c 0,-0.7617188 -0.09375,-1.3125 -0.410156,-1.8046875 -0.222656,-0.3164063 -0.644531,-0.5976563 -1.207031,-0.5976563 -1.6171875,0 -1.6171875,1.8984375 -1.6171875,2.4023438 0,0.50390625 0,2.3671875 1.6171875,2.3671875 1.617187,0 1.617187,-1.86328125 1.617187,-2.3671875 z M 9.100875,1.4357187 c -0.3164063,0 -0.75,-0.1875 -0.890625,-0.7617187 C 8.1165,0.26384375 8.1165,-0.310375 8.1165,-0.826 c 0,-0.5039063 0,-1.03125 0.1054687,-1.4179688 C 8.3743125,-2.79475 8.819625,-2.935375 9.100875,-2.935375 c 0.375,0 0.7382812,0.2226562 0.8671875,0.6328125 0.1054685,0.375 0.1171875,0.8789062 0.1171875,1.4765625 0,0.515625 0,1.04296875 -0.09375,1.4765625 C 9.850875,1.283375 9.382125,1.4357187 9.100875,1.4357187 Z m 0,0"
         style="fill:#000000;fill-opacity:1;fill-rule:nonzero;stroke:none" />
    </g>
    <path
       id="path5"
       d="m 181.98657,46.48866 h -23.81143 m 23.81143,-7.93695 h -23.81143"
       style="fill:none;stroke:#000000;stroke-width:0.797;stroke-linecap:butt;stroke-linejoin:miter;stroke-miterlimit:10;stroke-dasharray:none;stroke-opacity:1"
       transform="matrix(1.3333333,0,0,-1.3333333,-62.898667,126.93467)" />
    <g
       id="g5"
       aria-label="C&#10;1"
       transform="matrix(1.3333333,0,0,1.3333333,183.48,73.101333)">
      <path
         id="path6"
         d="m 7.5706641,-6.9256094 c 0,-0.023437 -0.023437,-0.09375 -0.1054688,-0.09375 -0.035156,0 -0.046875,0.011719 -0.1523437,0.1171875 l -0.703125,0.7617188 c -0.082031,-0.140625 -0.5390625,-0.8789063 -1.6523438,-0.8789063 -2.2148437,0 -4.45312499,2.203125 -4.45312499,4.5117188 0,1.64062497 1.17187499,2.73046872 2.69531249,2.73046872 0.8671875,0 1.6171875,-0.3984375 2.1445313,-0.85546875 0.9375,-0.82031247 1.1015625,-1.72265627 1.1015625,-1.75781247 0,-0.1054688 -0.1054688,-0.1054688 -0.1171875,-0.1054688 -0.058594,0 -0.1171875,0.023437 -0.1289063,0.1054688 -0.09375,0.2929687 -0.3164062,0.9960937 -1.0078125,1.57031247 -0.6914062,0.5625 -1.3125,0.7265625 -1.8398437,0.7265625 -0.890625,0 -1.9453125,-0.515625 -1.9453125,-2.06249997 0,-0.5742188 0.2109375,-2.1914063 1.2070312,-3.3515625 0.609375,-0.703125 1.5351563,-1.2070313 2.4257813,-1.2070313 1.0195312,0 1.6054687,0.7734375 1.6054687,1.921875 0,0.3984375 -0.035156,0.4101563 -0.035156,0.5039063 0,0.1054687 0.1171875,0.1054687 0.1523437,0.1054687 0.1289063,0 0.1289063,-0.023437 0.1757813,-0.1992187 z m 0,0"
         style="fill:#000000;fill-opacity:1;fill-rule:nonzero;stroke:none" />
      <path
         id="path7"
         d="m 9.4515234,-2.935375 c 0,-0.1875 -0.011719,-0.1992188 -0.2109375,-0.1992188 -0.4453125,0.4335938 -1.078125,0.4453125 -1.359375,0.4453125 v 0.2460938 c 0.1640625,0 0.6210938,0 1.0078125,-0.1875 v 3.55078125 c 0,0.23437495 0,0.32812495 -0.6914062,0.32812495 H 7.9280859 v 0.2460938 c 0.1289063,-0.011719 0.984375,-0.023437 1.2421875,-0.023437 0.2109375,0 1.0898436,0.011719 1.2421876,0.023437 V 1.2482187 h -0.257813 c -0.7031246,0 -0.7031246,-0.09375 -0.7031246,-0.32812495 z m 0,0"
         style="fill:#000000;fill-opacity:1;fill-rule:nonzero;stroke:none" />
    </g>
    <path
       id="path8"
       d="m 131.5291,-11.90572 v 23.81144 m -7.93695,-23.81144 v 23.81144"
       style="fill:none;stroke:#000000;stroke-width:0.797;stroke-linecap:butt;stroke-linejoin:miter;stroke-miterlimit:10;stroke-dasharray:none;stroke-opacity:1"
       transform="matrix(1.3333333,0,0,-1.3333333,-62.898667,126.93467)" />
    <g
       id="g8"
       aria-label="C&#10;2"
       transform="matrix(1.3333333,0,0,1.3333333,99.453333,157.69867)">
      <path
         id="path9"
         d="m 7.5701562,-6.9253672 c 0,-0.023437 -0.023437,-0.09375 -0.1054687,-0.09375 -0.035156,0 -0.046875,0.011719 -0.1523438,0.1171875 l -0.703125,0.7617188 c -0.082031,-0.140625 -0.5390625,-0.8789063 -1.6523437,-0.8789063 -2.2148438,0 -4.453125,2.203125 -4.453125,4.5117188 0,1.64062496 1.171875,2.73046871 2.6953125,2.73046871 0.8671875,0 1.6171875,-0.3984375 2.1445312,-0.85546875 0.9375,-0.82031246 1.1015625,-1.72265626 1.1015625,-1.75781246 0,-0.1054688 -0.1054687,-0.1054688 -0.1171875,-0.1054688 -0.058594,0 -0.1171875,0.023437 -0.1289062,0.1054688 -0.09375,0.2929687 -0.3164063,0.9960937 -1.0078125,1.57031246 -0.6914063,0.5625 -1.3125,0.7265625 -1.8398438,0.7265625 -0.890625,0 -1.9453125,-0.515625 -1.9453125,-2.06249996 0,-0.5742188 0.2109375,-2.1914063 1.2070313,-3.3515625 0.609375,-0.703125 1.5351562,-1.2070313 2.4257812,-1.2070313 1.0195313,0 1.6054688,0.7734375 1.6054688,1.921875 0,0.3984375 -0.035156,0.4101563 -0.035156,0.5039063 0,0.1054687 0.1171875,0.1054687 0.1523438,0.1054687 0.1289062,0 0.1289062,-0.023437 0.1757812,-0.1992187 z m 0,0"
         style="fill:#000000;fill-opacity:1;fill-rule:nonzero;stroke:none" />
      <path
         id="path10"
         d="m 10.637539,0.22892969 h -0.234375 c -0.02344,0.15234375 -0.08203,0.5625 -0.175781,0.6328125 -0.05859,0.0351563 -0.5976564,0.0351563 -0.6914064,0.0351563 H 8.2469141 c 0.7382812,-0.64453125 0.984375,-0.84375 1.3945312,-1.171875 0.5156247,-0.41015625 0.9960937,-0.84374999 0.9960937,-1.49999999 0,-0.8437501 -0.7382812,-1.3593751 -1.6289062,-1.3593751 -0.8671875,0 -1.453125,0.609375 -1.453125,1.2421876 0,0.3632813 0.3046875,0.3984375 0.375,0.3984375 0.1640625,0 0.375,-0.1171875 0.375,-0.375 0,-0.1289062 -0.058594,-0.3632812 -0.421875,-0.3632812 0.2226563,-0.5039064 0.6914063,-0.65625 1.0195313,-0.65625 0.703125,0 1.0664062,0.5507811 1.0664062,1.1132812 0,0.609375 -0.4335937,1.08984374 -0.65625,1.33593749 l -1.6875,1.66406251 c -0.070312,0.058594 -0.070312,0.070312 -0.070312,0.2695313 H 10.43832 Z m 0,0"
         style="fill:#000000;fill-opacity:1;fill-rule:nonzero;stroke:none" />
    </g>
  </g>
</svg>
