<?xml version="1.0" encoding="UTF-8" standalone="no"?>
<!-- Created with Inkscape (http://www.inkscape.org/) -->

<svg
   version="1.1"
   id="svg1"
   width="322.43707"
   height="303.42865"
   viewBox="0 0 322.43707 303.42865"
   xmlns="http://www.w3.org/2000/svg"
   xmlns:svg="http://www.w3.org/2000/svg">
  <defs
     id="defs1">
    <linearGradient
       x1="0"
       y1="0"
       x2="0"
       y2="100.00128"
       gradientUnits="userSpaceOnUse"
       id="linearGradient5">
      <stop
         style="stop-opacity:1;stop-color:#c7d7e2"
         offset="0"
         id="stop1" />
      <stop
         style="stop-opacity:1;stop-color:#c7d7e2"
         offset="0.25"
         id="stop2" />
      <stop
         style="stop-opacity:1;stop-color:#ecf2f5"
         offset="0.5"
         id="stop3" />
      <stop
         style="stop-opacity:1;stop-color:#c7d7e2"
         offset="0.75"
         id="stop4" />
      <stop
         style="stop-opacity:1;stop-color:#c7d7e2"
         offset="1"
         id="stop5" />
    </linearGradient>
    <clipPath
       clipPathUnits="userSpaceOnUse"
       id="clipPath6">
      <path
         d="m 316.17899,164.996 c 0,-83.497107 -67.68588,-151.182987 -151.18299,-151.182987 -83.497107,0 -151.182987,67.68588 -151.182987,151.182987 0,83.49711 67.68588,151.18299 151.182987,151.18299 83.49711,0 151.18299,-67.68588 151.18299,-151.18299 z"
         id="path6" />
    </clipPath>
    <linearGradient
       x1="0"
       y1="0"
       x2="0"
       y2="100.00128"
       gradientUnits="userSpaceOnUse"
       id="linearGradient12">
      <stop
         style="stop-opacity:1;stop-color:#f8c4c8"
         offset="0"
         id="stop8" />
      <stop
         style="stop-opacity:1;stop-color:#f8c4c8"
         offset="0.25"
         id="stop9" />
      <stop
         style="stop-opacity:1;stop-color:#fdebec"
         offset="0.5"
         id="stop10" />
      <stop
         style="stop-opacity:1;stop-color:#f8c4c8"
         offset="0.75"
         id="stop11" />
      <stop
         style="stop-opacity:1;stop-color:#f8c4c8"
         offset="1"
         id="stop12" />
    </linearGradient>
    <clipPath
       clipPathUnits="userSpaceOnUse"
       id="clipPath13">
      <path
         d="m 240.58749,164.996 c 0,-41.74856 -33.84293,-75.591493 -75.59149,-75.591493 -41.74856,0 -75.591493,33.842933 -75.591493,75.591493 0,41.74856 33.842933,75.59149 75.591493,75.59149 41.74856,0 75.59149,-33.84293 75.59149,-75.59149 z"
         id="path13" />
    </clipPath>
  </defs>
  <g
     id="g1"
     transform="translate(-13.281677,-13.281677)">
    <path
       id="path1"
       d="M 113.38724,0 C 113.38724,62.62283 62.62283,113.38724 0,113.38724 -62.62283,113.38724 -113.38724,62.62283 -113.38724,0 c 0,-62.62283 50.76441,-113.38724 113.38724,-113.38724 62.62283,0 113.38724,50.76441 113.38724,113.38724 z"
       style="fill:#c7d7e2;fill-opacity:1;fill-rule:nonzero;stroke:none"
       transform="matrix(1.3333333,0,0,-1.3333333,164.996,164.996)" />
    <g
       id="g5"
       clip-path="url(#clipPath6)">
      <path
         d="M 0,0 H 100 V 100 H 0 Z"
         transform="matrix(5.2046209,-3.0048733,-3.0048733,-5.2046209,55.008621,575.47071)"
         style="fill:url(#linearGradient5);stroke:none"
         id="path5" />
    </g>
    <path
       id="path7"
       d="M 85.04042,0 C 85.04042,46.96713 46.96713,85.04042 0,85.04042 -46.96713,85.04042 -85.04042,46.96713 -85.04042,0 c 0,-46.96713 38.07329,-85.04042 85.04042,-85.04042 46.96713,0 85.04042,38.07329 85.04042,85.04042 z"
       style="fill:#ffffff;fill-opacity:1;fill-rule:nonzero;stroke:none"
       transform="matrix(1.3333333,0,0,-1.3333333,164.996,164.996)" />
    <path
       id="path8"
       d="m 56.69362,0 c 0,31.31142 -25.3822,56.69362 -56.69362,56.69362 -31.31142,0 -56.69362,-25.3822 -56.69362,-56.69362 0,-31.31142 25.3822,-56.69362 56.69362,-56.69362 31.31142,0 56.69362,25.3822 56.69362,56.69362 z"
       style="fill:#f8c4c8;fill-opacity:1;fill-rule:nonzero;stroke:none"
       transform="matrix(1.3333333,0,0,-1.3333333,164.996,164.996)" />
    <g
       id="g12"
       clip-path="url(#clipPath13)">
      <path
         d="M 0,0 H 100 V 100 H 0 Z"
         transform="matrix(2.6023047,-1.5024333,-1.5024333,-2.6023047,110.00243,370.2329)"
         style="fill:url(#linearGradient12);stroke:none"
         id="path12" />
    </g>
    <path
       id="path14"
       d="M 28.3468,0 C 28.3468,15.6557 15.6557,28.3468 0,28.3468 -15.6557,28.3468 -28.3468,15.6557 -28.3468,0 c 0,-15.6557 12.6911,-28.3468 28.3468,-28.3468 15.6557,0 28.3468,12.6911 28.3468,28.3468 z"
       style="fill:#ffffff;fill-opacity:1;fill-rule:nonzero;stroke:#000000;stroke-width:0.79701;stroke-linecap:butt;stroke-linejoin:miter;stroke-miterlimit:10;stroke-dasharray:none;stroke-opacity:1"
       transform="matrix(1.3333333,0,0,-1.3333333,164.996,164.996)" />
    <path
       id="path15"
       d="m 56.69362,0 c 0,31.31142 -25.3822,56.69362 -56.69362,56.69362 -31.31142,0 -56.69362,-25.3822 -56.69362,-56.69362 0,-31.31142 25.3822,-56.69362 56.69362,-56.69362 31.31142,0 56.69362,25.3822 56.69362,56.69362 z"
       style="fill:none;stroke:#000000;stroke-width:0.79701;stroke-linecap:butt;stroke-linejoin:miter;stroke-miterlimit:10;stroke-dasharray:none;stroke-opacity:1"
       transform="matrix(1.3333333,0,0,-1.3333333,164.996,164.996)" />
    <path
       id="path16"
       d="M 85.04042,0 C 85.04042,46.96713 46.96713,85.04042 0,85.04042 -46.96713,85.04042 -85.04042,46.96713 -85.04042,0 c 0,-46.96713 38.07329,-85.04042 85.04042,-85.04042 46.96713,0 85.04042,38.07329 85.04042,85.04042 z"
       style="fill:none;stroke:#000000;stroke-width:0.79701;stroke-linecap:butt;stroke-linejoin:miter;stroke-miterlimit:10;stroke-dasharray:none;stroke-opacity:1"
       transform="matrix(1.3333333,0,0,-1.3333333,164.996,164.996)" />
    <path
       id="path17"
       d="M 113.38724,0 C 113.38724,62.62283 62.62283,113.38724 0,113.38724 -62.62283,113.38724 -113.38724,62.62283 -113.38724,0 c 0,-62.62283 50.76441,-113.38724 113.38724,-113.38724 62.62283,0 113.38724,50.76441 113.38724,113.38724 z"
       style="fill:none;stroke:#000000;stroke-width:0.79701;stroke-linecap:butt;stroke-linejoin:miter;stroke-miterlimit:10;stroke-dasharray:none;stroke-opacity:1"
       transform="matrix(1.3333333,0,0,-1.3333333,164.996,164.996)" />
    <path
       id="path18"
       d="m 3.7390391,-6.118625 c 0.058594,-0.234375 0.082031,-0.3398437 0.28125,-0.3632812 0.082031,-0.011719 0.3984375,-0.011719 0.5976562,-0.011719 0.7148438,0 1.8164063,0 1.8164063,0.984375 0,0.3398438 -0.1523438,1.0195313 -0.5507813,1.4179688 -0.2578125,0.2578125 -0.7851562,0.5742187 -1.6757812,0.5742187 H 3.0945078 Z m 1.4296875,2.7304688 c 1.0078125,-0.2226563 2.1914062,-0.9140625 2.1914062,-1.921875 0,-0.8554688 -0.890625,-1.5 -2.203125,-1.5 H 2.3210703 c -0.1992187,0 -0.2929687,0 -0.2929687,0.1992187 0,0.1171875 0.09375,0.1171875 0.28125,0.1171875 0.023437,0 0.2109375,0 0.3867187,0.011719 0.1757813,0.023437 0.2578125,0.035156 0.2578125,0.1640625 0,0.035156 0,0.070312 -0.035156,0.1875 L 1.5827891,-0.774875 c -0.09375,0.38671875 -0.1171875,0.46875 -0.90234379,0.46875 -0.17578125,0 -0.26953125,0 -0.26953125,0.19921875 0,0.10546875 0.1171875,0.10546875 0.140625,0.10546875 0.28125,0 0.97265624,-0.03515625 1.25390624,-0.03515625 0.28125,0 0.984375,0.03515625 1.265625,0.03515625 0.082031,0 0.1992188,0 0.1992188,-0.19921875 0,-0.10546875 -0.09375,-0.10546875 -0.28125,-0.10546875 -0.3632813,0 -0.6445313,0 -0.6445313,-0.1875 0,-0.0585938 0.011719,-0.10546875 0.023437,-0.1640625 l 0.65625,-2.6367187 h 1.1953125 c 0.9023438,0 1.078125,0.5507812 1.078125,0.9023437 0,0.1523438 -0.082031,0.4570313 -0.140625,0.6914063 -0.070312,0.2695312 -0.1523437,0.6445312 -0.1523437,0.84374995 0,1.078125 1.1953125,1.078125 1.3242187,1.078125 0.84375,0 1.1953125,-1.0078125 1.1953125,-1.1484375 0,-0.11718745 -0.1171875,-0.11718745 -0.1171875,-0.11718745 -0.09375,0 -0.1171875,0.0703125 -0.1289062,0.14062495 -0.257812,0.73828125 -0.679687,0.90234375 -0.914062,0.90234375 -0.328125,0 -0.3984375,-0.22265625 -0.3984375,-0.609375 0,-0.3046875 0.058594,-0.8203125 0.1054687,-1.1367187 0.011719,-0.140625 0.035156,-0.328125 0.035156,-0.46875 0,-0.7617188 -0.6679688,-1.078125 -0.9374997,-1.171875 z m 0,0"
       style="fill:#000000;fill-opacity:1;fill-rule:nonzero;stroke:none"
       aria-label="R"
       transform="matrix(1.3333333,0,0,1.3333333,159.90133,140.97067)" />
    <g
       id="g18"
       aria-label="2R"
       transform="matrix(1.3333333,0,0,1.3333333,156.58,103.176)">
      <path
         id="path19"
         d="M 1.2642187,-0.76188281 2.3189062,-1.7931328 c 1.5585938,-1.3710938 2.15625,-1.9101563 2.15625,-2.90625 0,-1.1367188 -0.9023437,-1.9335938 -2.1210937,-1.9335938 -1.125,0 -1.8515625,0.9140625 -1.8515625,1.8046875 0,0.5507813 0.4921875,0.5507813 0.5273437,0.5507813 0.1640625,0 0.515625,-0.1171875 0.515625,-0.5273438 0,-0.2578125 -0.1875,-0.515625 -0.5273437,-0.515625 -0.0820313,0 -0.10546875,0 -0.12890625,0.011719 0.22265625,-0.6445313 0.76171875,-1.0195313 1.33593745,-1.0195313 0.9140625,0 1.3359375,0.8085938 1.3359375,1.6289063 0,0.796875 -0.4921875,1.5820312 -1.0429687,2.203125 L 0.60796875,-0.36344531 C 0.5025,-0.25797656 0.5025,-0.23453906 0.5025,-1.640625e-4 H 4.1939062 L 4.4751562,-1.7345391 H 4.2173437 c -0.046875,0.3046875 -0.1171875,0.73828129 -0.2109375,0.89062504 -0.070312,0.0820313 -0.7265625,0.0820313 -0.9492187,0.0820313 z m 0,0"
         style="fill:#000000;fill-opacity:1;fill-rule:nonzero;stroke:none" />
      <path
         id="path20"
         d="m 8.7202734,-6.1173516 c 0.058594,-0.234375 0.082031,-0.3398437 0.28125,-0.3632812 0.082031,-0.011719 0.3984375,-0.011719 0.5976563,-0.011719 0.7148433,0 1.8164063,0 1.8164063,0.984375 0,0.3398438 -0.152344,1.0195313 -0.550781,1.4179688 -0.257813,0.2578125 -0.785157,0.5742187 -1.6757816,0.5742187 H 8.0757422 Z m 1.4296876,2.7304688 c 1.007812,-0.2226563 2.191406,-0.9140625 2.191406,-1.921875 0,-0.8554688 -0.890625,-1.5 -2.203125,-1.5 H 7.3023047 c -0.1992188,0 -0.2929688,0 -0.2929688,0.1992187 0,0.1171875 0.09375,0.1171875 0.28125,0.1171875 0.023437,0 0.2109375,0 0.3867188,0.011719 0.1757812,0.023437 0.2578125,0.035156 0.2578125,0.1640625 0,0.035156 0,0.070312 -0.035156,0.1875 l -1.3359375,5.35546874 c -0.09375,0.38671875 -0.1171875,0.46875 -0.9023437,0.46875 -0.1757813,0 -0.2695313,0 -0.2695313,0.19921875 0,0.1054687475 0.1171875,0.1054687475 0.140625,0.1054687475 0.28125,0 0.9726563,-0.0351562475 1.2539063,-0.0351562475 0.28125,0 0.984375,0.0351562475 1.265625,0.0351562475 0.082031,0 0.1992187,0 0.1992187,-0.1992187475 0,-0.10546875 -0.09375,-0.10546875 -0.28125,-0.10546875 -0.3632812,0 -0.6445312,0 -0.6445312,-0.1875 0,-0.0585938 0.011719,-0.10546875 0.023437,-0.1640625 l 0.65625,-2.63671874 H 9.200742 c 0.902344,0 1.078125,0.5507812 1.078125,0.9023437 0,0.1523438 -0.08203,0.4570313 -0.140625,0.6914063 -0.07031,0.2695312 -0.1523438,0.6445312 -0.1523438,0.84374999 0,1.078125 1.1953128,1.078125 1.3242188,1.078125 0.84375,0 1.195313,-1.0078125 1.195313,-1.1484375 0,-0.11718749 -0.117188,-0.11718749 -0.117188,-0.11718749 -0.09375,0 -0.117187,0.0703125 -0.128906,0.14062499 -0.257813,0.73828125 -0.679688,0.9023437475 -0.914063,0.9023437475 -0.328125,0 -0.398437,-0.2226562475 -0.398437,-0.6093749975 0,-0.3046875 0.05859,-0.82031254 0.105469,-1.13671874 0.01172,-0.140625 0.03516,-0.328125 0.03516,-0.46875 0,-0.7617188 -0.667969,-1.078125 -0.9375,-1.171875 z m 0,0"
         style="fill:#000000;fill-opacity:1;fill-rule:nonzero;stroke:none" />
    </g>
    <g
       id="g20"
       aria-label="3R"
       transform="matrix(1.3333333,0,0,1.3333333,156.58,65.38)">
      <path
         id="path21"
         d="m 2.893125,-3.5047266 c 0.8085937,-0.2695312 1.3945312,-0.9726562 1.3945312,-1.7578125 0,-0.8203125 -0.8789062,-1.3710937 -1.8398437,-1.3710937 C 1.44,-6.6336328 0.69,-6.0359766 0.69,-5.2859766 c 0,0.3398438 0.2109375,0.5273438 0.5039062,0.5273438 0.3046875,0 0.5039063,-0.2226563 0.5039063,-0.515625 0,-0.4921875 -0.46875,-0.4921875 -0.609375,-0.4921875 0.3046875,-0.4921875 0.9609375,-0.6210938 1.3242187,-0.6210938 0.4101563,0 0.9492188,0.2226563 0.9492188,1.1132813 0,0.1289062 -0.011719,0.703125 -0.2695313,1.1367187 -0.3046875,0.4804688 -0.6445312,0.515625 -0.890625,0.515625 -0.082031,0.011719 -0.3164062,0.035156 -0.3867187,0.035156 -0.082031,0.011719 -0.1523438,0.023437 -0.1523438,0.1171875 0,0.1171875 0.070312,0.1171875 0.234375,0.1171875 h 0.4453125 c 0.8085938,0 1.1835938,0.6679687 1.1835938,1.6523437 0,1.34765629 -0.6914063,1.64062504 -1.125,1.64062504 -0.4335938,0 -1.171875,-0.17578125 -1.5234375,-0.76171875 0.3515625,0.0585938 0.65625,-0.1640625 0.65625,-0.53906249 0,-0.3632813 -0.2695313,-0.5625 -0.5625,-0.5625 -0.234375,0 -0.55078125,0.140625 -0.55078125,0.5742187 0,0.91406254 0.92578125,1.57031254 2.00390625,1.57031254 1.21875,0 2.1210937,-0.9140625 2.1210937,-1.92187504 0,-0.8203125 -0.6210937,-1.59375 -1.6523437,-1.8046872 z m 0,0"
         style="fill:#000000;fill-opacity:1;fill-rule:nonzero;stroke:none" />
      <path
         id="path22"
         d="m 8.7202734,-6.1180078 c 0.058594,-0.234375 0.082031,-0.3398438 0.28125,-0.3632813 0.082031,-0.011719 0.3984375,-0.011719 0.5976563,-0.011719 0.7148433,0 1.8164063,0 1.8164063,0.984375 0,0.3398437 -0.152344,1.0195312 -0.550781,1.4179687 -0.257813,0.2578125 -0.785157,0.5742188 -1.6757816,0.5742188 H 8.0757422 Z m 1.4296876,2.7304687 c 1.007812,-0.2226562 2.191406,-0.9140625 2.191406,-1.921875 0,-0.8554687 -0.890625,-1.5 -2.203125,-1.5 H 7.3023047 c -0.1992188,0 -0.2929688,0 -0.2929688,0.1992188 0,0.1171875 0.09375,0.1171875 0.28125,0.1171875 0.023437,0 0.2109375,0 0.3867188,0.011719 0.1757812,0.023437 0.2578125,0.035156 0.2578125,0.1640625 0,0.035156 0,0.070312 -0.035156,0.1875 l -1.3359375,5.35546879 c -0.09375,0.38671875 -0.1171875,0.46875 -0.9023437,0.46875 -0.1757813,0 -0.2695313,0 -0.2695313,0.19921875 0,0.1054687475 0.1171875,0.1054687475 0.140625,0.1054687475 0.28125,0 0.9726563,-0.0351562475 1.2539063,-0.0351562475 0.28125,0 0.984375,0.0351562475 1.265625,0.0351562475 0.082031,0 0.1992187,0 0.1992187,-0.1992187475 0,-0.10546875 -0.09375,-0.10546875 -0.28125,-0.10546875 -0.3632812,0 -0.6445312,0 -0.6445312,-0.1875 0,-0.0585938 0.011719,-0.10546875 0.023437,-0.1640625 l 0.65625,-2.63671879 H 9.200742 c 0.902344,0 1.078125,0.5507813 1.078125,0.9023438 0,0.1523437 -0.08203,0.4570312 -0.140625,0.6914062 -0.07031,0.2695313 -0.1523438,0.6445313 -0.1523438,0.84375004 0,1.078125 1.1953128,1.078125 1.3242188,1.078125 0.84375,0 1.195313,-1.0078125 1.195313,-1.1484375 0,-0.11718754 -0.117188,-0.11718754 -0.117188,-0.11718754 -0.09375,0 -0.117187,0.0703125 -0.128906,0.14062504 -0.257813,0.73828125 -0.679688,0.9023437475 -0.914063,0.9023437475 -0.328125,0 -0.398437,-0.2226562475 -0.398437,-0.6093749975 0,-0.3046875 0.05859,-0.82031249 0.105469,-1.13671879 0.01172,-0.140625 0.03516,-0.328125 0.03516,-0.46875 0,-0.7617187 -0.667969,-1.078125 -0.9375,-1.171875 z m 0,0"
         style="fill:#000000;fill-opacity:1;fill-rule:nonzero;stroke:none" />
    </g>
    <g
       id="g22"
       aria-label="4R"
       transform="matrix(1.3333333,0,0,1.3333333,156.58,27.585333)">
      <path
         id="path23"
         d="m 2.9282812,-1.6401719 v 0.86718753 c 0,0.3515625 -0.023437,0.46875 -0.7617187,0.46875 H 1.955625 V 4.53125e-4 c 0.4101562,-0.035156245 0.9375,-0.035156245 1.3476562,-0.035156245 0.421875,0 0.9492188,0 1.359375,0.035156245 V -0.30423437 H 4.4517187 c -0.7382812,0 -0.7617187,-0.1171875 -0.7617187,-0.46875 V -1.6401719 H 4.6860937 V -1.9565781 H 3.69 v -4.5234375 c 0,-0.1992188 0,-0.2578125 -0.1523438,-0.2578125 -0.09375,0 -0.1171875,0 -0.1992187,0.1171875 l -3.05859375,4.6640625 v 0.3164062 z M 2.986875,-1.9565781 H 0.56109375 L 2.986875,-5.6714219 Z m 0,0"
         style="fill:#000000;fill-opacity:1;fill-rule:nonzero;stroke:none" />
      <path
         id="path24"
         d="m 8.7202734,-6.1167344 c 0.058594,-0.234375 0.082031,-0.3398437 0.28125,-0.3632812 0.082031,-0.011719 0.3984375,-0.011719 0.5976563,-0.011719 0.7148433,0 1.8164063,0 1.8164063,0.984375 0,0.3398438 -0.152344,1.0195313 -0.550781,1.4179688 -0.257813,0.2578125 -0.785157,0.5742187 -1.6757816,0.5742187 H 8.0757422 Z m 1.4296876,2.7304688 c 1.007812,-0.2226563 2.191406,-0.9140625 2.191406,-1.921875 0,-0.8554688 -0.890625,-1.5 -2.203125,-1.5 H 7.3023047 c -0.1992188,0 -0.2929688,0 -0.2929688,0.1992187 0,0.1171875 0.09375,0.1171875 0.28125,0.1171875 0.023437,0 0.2109375,0 0.3867188,0.011719 0.1757812,0.023437 0.2578125,0.035156 0.2578125,0.1640625 0,0.035156 0,0.070312 -0.035156,0.1875 l -1.3359375,5.35546873 c -0.09375,0.38671875 -0.1171875,0.46875 -0.9023437,0.46875 -0.1757813,0 -0.2695313,0 -0.2695313,0.19921875 0,0.105468745 0.1171875,0.105468745 0.140625,0.105468745 0.28125,0 0.9726563,-0.035156245 1.2539063,-0.035156245 0.28125,0 0.984375,0.035156245 1.265625,0.035156245 0.082031,0 0.1992187,0 0.1992187,-0.199218745 0,-0.10546875 -0.09375,-0.10546875 -0.28125,-0.10546875 -0.3632812,0 -0.6445312,0 -0.6445312,-0.1875 0,-0.0585938 0.011719,-0.10546875 0.023437,-0.1640625 l 0.65625,-2.63671873 H 9.200742 c 0.902344,0 1.078125,0.5507812 1.078125,0.9023437 0,0.1523438 -0.08203,0.4570313 -0.140625,0.6914063 -0.07031,0.2695312 -0.1523438,0.6445312 -0.1523438,0.84374998 0,1.078125 1.1953128,1.078125 1.3242188,1.078125 0.84375,0 1.195313,-1.0078125 1.195313,-1.1484375 0,-0.11718748 -0.117188,-0.11718748 -0.117188,-0.11718748 -0.09375,0 -0.117187,0.0703125 -0.128906,0.14062498 -0.257813,0.73828125 -0.679688,0.902343745 -0.914063,0.902343745 -0.328125,0 -0.398437,-0.222656245 -0.398437,-0.609374995 0,-0.3046875 0.05859,-0.82031253 0.105469,-1.13671873 0.01172,-0.140625 0.03516,-0.328125 0.03516,-0.46875 0,-0.7617188 -0.667969,-1.078125 -0.9375,-1.171875 z m 0,0"
         style="fill:#000000;fill-opacity:1;fill-rule:nonzero;stroke:none" />
    </g>
    <g
       id="g24"
       aria-label="K&#10;1"
       transform="matrix(1.3333333,0,0,1.3333333,99.682667,168.53867)">
      <path
         id="path25"
         d="m 5.0749141,-4.0192344 c -0.011719,-0.035156 -0.058594,-0.1171875 -0.058594,-0.140625 0,-0.011719 0.1875,-0.1523437 0.2929688,-0.234375 l 1.7460937,-1.3476562 c 0.9375,-0.6796875 1.3242188,-0.7265625 1.6171875,-0.75 0.082031,-0.011719 0.1875,-0.023437 0.1875,-0.1992188 0,-0.046875 -0.035156,-0.1171875 -0.1171875,-0.1171875 -0.2109375,0 -0.46875,0.035156 -0.703125,0.035156 -0.3632812,0 -0.75,-0.035156 -1.1015625,-0.035156 -0.070312,0 -0.1992187,0 -0.1992187,0.1992188 0,0.070312 0.058594,0.1054687 0.1289062,0.1171875 0.2109375,0.011719 0.3046875,0.070312 0.3046875,0.2109375 0,0.1757812 -0.2929687,0.3984375 -0.3632812,0.4570312 l -3.8789063,2.9882813 0.796875,-3.1992188 c 0.09375,-0.3632812 0.1054688,-0.4570312 0.8320313,-0.4570312 0.2578125,0 0.3398437,0 0.3398437,-0.1992188 0,-0.09375 -0.082031,-0.1171875 -0.140625,-0.1171875 -0.2695312,0 -0.9960937,0.035156 -1.265625,0.035156 -0.2929687,0 -0.9960937,-0.035156 -1.2890625,-0.035156 -0.070312,0 -0.1992187,0 -0.1992187,0.1992188 0,0.1171875 0.09375,0.1171875 0.2929687,0.1171875 0.1289063,0 0.3046875,0.011719 0.421875,0.011719 0.1640625,0.023437 0.2226563,0.058594 0.2226563,0.1640625 0,0.035156 -0.011719,0.070312 -0.046875,0.1875 l -1.3359375,5.35546878 c -0.09375,0.38671875 -0.1171875,0.46875 -0.90234379,0.46875 -0.1640625,0 -0.28125,0 -0.28125,0.1875 0,0.117187495 0.12890625,0.117187495 0.15234375,0.117187495 0.28125,0 0.98437504,-0.035156245 1.26562504,-0.035156245 0.2109375,0 0.4335937,0.01171875 0.6328125,0.01171875 0.2226562,0 0.4453125,0.023437495 0.65625,0.023437495 0.070312,0 0.1992187,0 0.1992187,-0.199218745 0,-0.10546875 -0.09375,-0.10546875 -0.28125,-0.10546875 -0.375,0 -0.6445312,0 -0.6445312,-0.1875 0,-0.0703125 0.058594,-0.28125 0.082031,-0.43359375 0.140625,-0.51562503 0.2695313,-1.04296873 0.3984375,-1.57031253 l 1.4882813,-1.1484375 1.1601562,2.68359378 c 0.1171875,0.2578125 0.1171875,0.28125 0.1171875,0.33984375 0,0.3046875 -0.4335937,0.31640625 -0.515625,0.31640625 -0.1171875,0 -0.2226562,0 -0.2226562,0.19921875 0,0.105468745 0.1171875,0.105468745 0.140625,0.105468745 0.3984375,0 0.8085937,-0.035156245 1.2070312,-0.035156245 0.2226563,0 0.7617188,0.035156245 0.984375,0.035156245 0.046875,0 0.1757813,0 0.1757813,-0.199218745 0,-0.10546875 -0.1054688,-0.10546875 -0.1992188,-0.10546875 -0.4101562,-0.0117188 -0.5390625,-0.10546875 -0.6914062,-0.45703125 z m 0,0"
         style="fill:#000000;fill-opacity:1;fill-rule:nonzero;stroke:none" />
      <path
         id="path26"
         d="m 10.793664,-2.93525 c 0,-0.1875 -0.01172,-0.1992187 -0.210937,-0.1992187 -0.445313,0.4335937 -1.0781254,0.4453125 -1.3593754,0.4453125 v 0.2460937 c 0.1640625,0 0.6210937,0 1.0078124,-0.1875 v 3.55078125 c 0,0.23437505 0,0.32812505 -0.6914062,0.32812505 H 9.2702266 V 1.4944375 C 9.3991328,1.4827188 10.254602,1.471 10.512414,1.471 c 0.210938,0 1.089844,0.011719 1.242188,0.023437 V 1.2483438 h -0.257813 c -0.703125,0 -0.703125,-0.09375 -0.703125,-0.32812505 z m 0,0"
         style="fill:#000000;fill-opacity:1;fill-rule:nonzero;stroke:none" />
    </g>
    <g
       id="g26"
       aria-label="K&#10;2"
       transform="matrix(1.3333333,0,0,1.3333333,24.092,168.53867)">
      <path
         id="path27"
         d="m 5.0755312,-4.0192344 c -0.011719,-0.035156 -0.058594,-0.1171875 -0.058594,-0.140625 0,-0.011719 0.1875,-0.1523437 0.2929687,-0.234375 L 7.056,-5.7418906 c 0.9375,-0.6796875 1.3242187,-0.7265625 1.6171875,-0.75 0.082031,-0.011719 0.1875,-0.023437 0.1875,-0.1992188 0,-0.046875 -0.035156,-0.1171875 -0.1171875,-0.1171875 -0.2109375,0 -0.46875,0.035156 -0.703125,0.035156 -0.3632813,0 -0.75,-0.035156 -1.1015625,-0.035156 -0.070312,0 -0.1992188,0 -0.1992188,0.1992188 0,0.070312 0.058594,0.1054687 0.1289063,0.1171875 0.2109375,0.011719 0.3046875,0.070312 0.3046875,0.2109375 0,0.1757812 -0.2929688,0.3984375 -0.3632813,0.4570312 L 2.931,-2.8356406 3.727875,-6.0348594 c 0.09375,-0.3632812 0.1054687,-0.4570312 0.8320312,-0.4570312 0.2578125,0 0.3398438,0 0.3398438,-0.1992188 0,-0.09375 -0.082031,-0.1171875 -0.140625,-0.1171875 -0.2695313,0 -0.9960938,0.035156 -1.265625,0.035156 -0.2929688,0 -0.9960938,-0.035156 -1.2890625,-0.035156 -0.070312,0 -0.1992188,0 -0.1992188,0.1992188 0,0.1171875 0.09375,0.1171875 0.2929688,0.1171875 0.1289062,0 0.3046875,0.011719 0.421875,0.011719 0.1640625,0.023437 0.2226562,0.058594 0.2226562,0.1640625 0,0.035156 -0.011719,0.070312 -0.046875,0.1875 l -1.3359375,5.35546878 c -0.09375,0.38671875 -0.1171875,0.46875 -0.9023437,0.46875 -0.1640625,0 -0.28125,0 -0.28125,0.1875 0,0.117187495 0.12890625,0.117187495 0.15234375,0.117187495 0.28125,0 0.98437495,-0.035156245 1.26562495,-0.035156245 0.2109375,0 0.4335938,0.01171875 0.6328125,0.01171875 0.2226563,0 0.4453125,0.023437495 0.65625,0.023437495 0.070312,0 0.1992188,0 0.1992188,-0.199218745 0,-0.10546875 -0.09375,-0.10546875 -0.28125,-0.10546875 -0.375,0 -0.6445313,0 -0.6445313,-0.1875 0,-0.0703125 0.058594,-0.28125 0.082031,-0.43359375 C 2.5794375,-1.4411094 2.7083437,-1.9684531 2.83725,-2.4957969 l 1.4882812,-1.1484375 1.1601563,2.68359378 c 0.1171875,0.2578125 0.1171875,0.28125 0.1171875,0.33984375 0,0.3046875 -0.4335938,0.31640625 -0.515625,0.31640625 -0.1171875,0 -0.2226563,0 -0.2226563,0.19921875 0,0.105468745 0.1171875,0.105468745 0.140625,0.105468745 0.3984375,0 0.8085938,-0.035156245 1.2070313,-0.035156245 0.2226562,0 0.7617187,0.035156245 0.984375,0.035156245 0.046875,0 0.1757812,0 0.1757812,-0.199218745 0,-0.10546875 -0.1054687,-0.10546875 -0.1992187,-0.10546875 C 6.7630312,-0.31610937 6.634125,-0.40985937 6.4817812,-0.76142187 Z m 0,0"
         style="fill:#000000;fill-opacity:1;fill-rule:nonzero;stroke:none" />
      <path
         id="path28"
         d="M 11.977875,0.2288125 H 11.7435 c -0.02344,0.15234375 -0.08203,0.5625 -0.175781,0.6328125 -0.05859,0.0351563 -0.597657,0.0351563 -0.691407,0.0351563 H 9.58725 c 0.738281,-0.64453125 0.984375,-0.84375 1.394531,-1.171875 0.515625,-0.41015625 0.996094,-0.8437499 0.996094,-1.5 0,-0.84375 -0.738281,-1.359375 -1.628906,-1.359375 -0.8671878,0 -1.4531253,0.609375 -1.4531253,1.2421875 0,0.3632813 0.3046875,0.3984375 0.375,0.3984375 0.1640625,0 0.375,-0.1171875 0.375,-0.375 0,-0.1289062 -0.058594,-0.3632813 -0.421875,-0.3632813 0.2226563,-0.5039062 0.6914063,-0.65625 1.0195313,-0.65625 0.703125,0 1.066406,0.5507813 1.066406,1.1132813 0,0.609375 -0.433594,1.08984375 -0.65625,1.3359375 L 8.9661562,1.2249063 C 8.8958437,1.2835 8.8958437,1.2952188 8.8958437,1.4944375 h 2.8828123 z m 0,0"
         style="fill:#000000;fill-opacity:1;fill-rule:nonzero;stroke:none" />
    </g>
    <path
       id="path29"
       d="m 56.69362,0 h 28.3468"
       style="fill:none;stroke:#000000;stroke-width:1.59404;stroke-linecap:butt;stroke-linejoin:miter;stroke-miterlimit:10;stroke-dasharray:none;stroke-opacity:1"
       transform="matrix(1.3333333,0,0,-1.3333333,164.996,164.996)" />
    <path
       id="path30"
       d="m -56.69362,0 h -28.3468"
       style="fill:none;stroke:#000000;stroke-width:1.59404;stroke-linecap:butt;stroke-linejoin:miter;stroke-miterlimit:10;stroke-dasharray:none;stroke-opacity:1"
       transform="matrix(1.3333333,0,0,-1.3333333,164.996,164.996)" />
    <path
       id="path31"
       d="m 30.46024,0 c 0,1.16722 -0.94622,2.11343 -2.11344,2.11343 -1.16722,0 -2.11343,-0.94621 -2.11343,-2.11343 0,-1.16722 0.94621,-2.11343 2.11343,-2.11343 1.16722,0 2.11344,0.94621 2.11344,2.11343 z"
       style="fill:#000000;fill-opacity:1;fill-rule:nonzero;stroke:none"
       transform="matrix(1.3333333,0,0,-1.3333333,164.996,164.996)" />
    <g
       id="g31"
       aria-label="V&#10;1"
       transform="matrix(1.3333333,0,0,1.3333333,209.664,156.13067)">
      <path
         id="path32"
         d="m 6.2578594,-5.6731953 c 0.4804687,-0.7734375 0.9023437,-0.8085938 1.2773437,-0.8203125 0.1171875,-0.011719 0.1289063,-0.1875 0.1289063,-0.1875 0,-0.082031 -0.058594,-0.1289063 -0.1289063,-0.1289063 -0.2578125,0 -0.5507812,0.035156 -0.8203125,0.035156 -0.328125,0 -0.6679687,-0.035156 -0.984375,-0.035156 -0.058594,0 -0.1875,0 -0.1875,0.1992188 0,0.1054687 0.082031,0.1171875 0.1523438,0.1171875 0.2695312,0.011719 0.4570312,0.1171875 0.4570312,0.328125 0,0.1523437 -0.140625,0.3632812 -0.140625,0.375 L 2.9531719,-0.92710156 2.2734844,-6.2005391 c 0,-0.1640625 0.2226562,-0.2929687 0.6796875,-0.2929687 0.140625,0 0.2578125,0 0.2578125,-0.1992188 0,-0.09375 -0.082031,-0.1171875 -0.140625,-0.1171875 -0.3984375,0 -0.8320313,0.035156 -1.2421875,0.035156 -0.1757813,0 -0.3632813,-0.011719 -0.5390625,-0.011719 -0.1875,0 -0.37500002,-0.023437 -0.53906252,-0.023437 -0.0703125,0 -0.1875,0 -0.1875,0.1992188 0,0.1171875 0.0820313,0.1171875 0.24609375,0.1171875 0.55078127,0 0.56249997,0.082031 0.59765627,0.3398437 l 0.7851562,6.14062504 c 0.035156,0.19921875 0.070312,0.234375 0.1992188,0.234375 0.1640625,0 0.1992187,-0.0585938 0.28125,-0.1875 z m 0,0"
         style="fill:#000000;fill-opacity:1;fill-rule:nonzero;stroke:none" />
      <path
         id="path33"
         d="m 8.1445781,-2.9368672 c 0,-0.1875 -0.011719,-0.1992187 -0.2109375,-0.1992187 -0.4453125,0.4335937 -1.078125,0.4453125 -1.359375,0.4453125 v 0.2460937 c 0.1640625,0 0.6210938,0 1.0078125,-0.1875 v 3.55078126 c 0,0.23437504 0,0.32812504 -0.6914062,0.32812504 H 6.6211406 v 0.2460937 c 0.1289063,-0.011719 0.984375,-0.023437 1.2421875,-0.023437 0.2109375,0 1.0898438,0.011719 1.2421875,0.023437 V 1.2467266 H 8.8477031 c -0.703125,0 -0.703125,-0.09375 -0.703125,-0.32812504 z m 0,0"
         style="fill:#000000;fill-opacity:1;fill-rule:nonzero;stroke:none" />
    </g>
    <path
       id="path34"
       d="m 58.80705,0 c 0,1.16722 -0.94621,2.11343 -2.11343,2.11343 -1.16724,0 -2.11345,-0.94621 -2.11345,-2.11343 0,-1.16722 0.94621,-2.11343 2.11345,-2.11343 1.16722,0 2.11343,0.94621 2.11343,2.11343 z"
       style="fill:#000000;fill-opacity:1;fill-rule:nonzero;stroke:none"
       transform="matrix(1.3333333,0,0,-1.3333333,164.996,164.996)" />
    <g
       id="g34"
       aria-label="V&#10;2"
       transform="matrix(1.3333333,0,0,1.3333333,247.46,156.13067)">
      <path
         id="path35"
         d="m 6.2585156,-5.6731953 c 0.4804688,-0.7734375 0.9023438,-0.8085938 1.2773438,-0.8203125 0.1171875,-0.011719 0.1289062,-0.1875 0.1289062,-0.1875 0,-0.082031 -0.058594,-0.1289063 -0.1289062,-0.1289063 -0.2578125,0 -0.5507813,0.035156 -0.8203125,0.035156 -0.328125,0 -0.6679688,-0.035156 -0.984375,-0.035156 -0.058594,0 -0.1875,0 -0.1875,0.1992188 0,0.1054687 0.082031,0.1171875 0.1523437,0.1171875 0.2695313,0.011719 0.4570313,0.1171875 0.4570313,0.328125 0,0.1523437 -0.140625,0.3632812 -0.140625,0.375 L 2.9538281,-0.92710156 2.2741406,-6.2005391 c 0,-0.1640625 0.2226563,-0.2929687 0.6796875,-0.2929687 0.140625,0 0.2578125,0 0.2578125,-0.1992188 0,-0.09375 -0.082031,-0.1171875 -0.140625,-0.1171875 -0.3984375,0 -0.8320312,0.035156 -1.2421875,0.035156 -0.1757812,0 -0.3632812,-0.011719 -0.5390625,-0.011719 -0.1875,0 -0.37499997,-0.023437 -0.53906247,-0.023437 -0.0703125,0 -0.1875,0 -0.1875,0.1992188 0,0.1171875 0.0820313,0.1171875 0.24609375,0.1171875 0.55078122,0 0.56250002,0.082031 0.59765622,0.3398437 l 0.7851563,6.14062504 c 0.035156,0.19921875 0.070312,0.234375 0.1992187,0.234375 0.1640625,0 0.1992188,-0.0585938 0.28125,-0.1875 z m 0,0"
         style="fill:#000000;fill-opacity:1;fill-rule:nonzero;stroke:none" />
      <path
         id="path36"
         d="m 9.3258984,0.22719531 h -0.234375 c -0.023437,0.15234375 -0.082031,0.5625 -0.1757812,0.6328125 -0.058594,0.0351563 -0.5976563,0.0351563 -0.6914063,0.0351563 H 6.9352734 c 0.7382813,-0.64453125 0.984375,-0.84375 1.3945313,-1.171875 0.515625,-0.41015625 0.9960937,-0.84374991 0.9960937,-1.49999991 0,-0.84375 -0.7382812,-1.359375 -1.6289062,-1.359375 -0.8671875,0 -1.453125,0.609375 -1.453125,1.2421875 0,0.3632812 0.3046875,0.3984375 0.375,0.3984375 0.1640625,0 0.375,-0.1171875 0.375,-0.375 0,-0.1289063 -0.058594,-0.3632814 -0.421875,-0.3632814 0.2226562,-0.5039061 0.6914062,-0.65625 1.0195312,-0.65625 0.703125,0 1.0664063,0.5507814 1.0664063,1.1132814 0,0.609375 -0.4335938,1.08984366 -0.65625,1.33593741 l -1.6875,1.66406249 c -0.070312,0.058594 -0.070312,0.070312 -0.070312,0.2695313 h 2.8828125 z m 0,0"
         style="fill:#000000;fill-opacity:1;fill-rule:nonzero;stroke:none" />
    </g>
    <path
       id="path37"
       d="m 87.15385,0 c 0,1.16722 -0.94621,2.11343 -2.11343,2.11343 -1.16722,0 -2.11343,-0.94621 -2.11343,-2.11343 0,-1.16722 0.94621,-2.11343 2.11343,-2.11343 1.16722,0 2.11343,0.94621 2.11343,2.11343 z"
       style="fill:#000000;fill-opacity:1;fill-rule:nonzero;stroke:none"
       transform="matrix(1.3333333,0,0,-1.3333333,164.996,164.996)" />
    <g
       id="g37"
       aria-label="V&#10;3"
       transform="matrix(1.3333333,0,0,1.3333333,285.25467,156.13067)">
      <path
         id="path38"
         d="m 6.2572422,-5.6731953 c 0.4804687,-0.7734375 0.9023437,-0.8085938 1.2773437,-0.8203125 0.1171875,-0.011719 0.1289063,-0.1875 0.1289063,-0.1875 0,-0.082031 -0.058594,-0.1289063 -0.1289063,-0.1289063 -0.2578125,0 -0.5507812,0.035156 -0.8203125,0.035156 -0.328125,0 -0.6679687,-0.035156 -0.984375,-0.035156 -0.058594,0 -0.1875,0 -0.1875,0.1992188 0,0.1054687 0.082031,0.1171875 0.1523438,0.1171875 0.2695312,0.011719 0.4570312,0.1171875 0.4570312,0.328125 0,0.1523437 -0.140625,0.3632812 -0.140625,0.375 L 2.9525547,-0.92710156 2.2728672,-6.2005391 c 0,-0.1640625 0.2226562,-0.2929687 0.6796875,-0.2929687 0.140625,0 0.2578125,0 0.2578125,-0.1992188 0,-0.09375 -0.082031,-0.1171875 -0.140625,-0.1171875 -0.3984375,0 -0.8320313,0.035156 -1.2421875,0.035156 -0.1757813,0 -0.3632813,-0.011719 -0.5390625,-0.011719 -0.1875,0 -0.37500001,-0.023437 -0.53906251,-0.023437 -0.0703125,0 -0.1875,0 -0.1875,0.1992188 0,0.1171875 0.0820313,0.1171875 0.24609375,0.1171875 0.55078126,0 0.56249996,0.082031 0.59765626,0.3398437 l 0.7851562,6.14062504 c 0.035156,0.19921875 0.070312,0.234375 0.1992188,0.234375 0.1640625,0 0.1992187,-0.0585938 0.28125,-0.1875 z m 0,0"
         style="fill:#000000;fill-opacity:1;fill-rule:nonzero;stroke:none" />
      <path
         id="path39"
         d="m 7.7103672,-0.83921094 c 0.5507812,0 0.9375,0.375 0.9375,1.125 0,0.86718754 -0.5039063,1.12500004 -0.9023438,1.12500004 -0.28125,0 -0.890625,-0.082031 -1.1835937,-0.49218754 0.328125,-0.0117188 0.3984375,-0.24609375 0.3984375,-0.38671875 0,-0.22265625 -0.1640625,-0.38671875 -0.3867188,-0.38671875 -0.1875,0 -0.3867187,0.1171875 -0.3867187,0.41015625 0,0.65624999 0.7265625,1.07812499 1.5703125,1.07812499 0.9726562,0 1.640625,-0.64453124 1.640625,-1.34765624 0,-0.5390625 -0.4453125,-1.08984375 -1.21875,-1.2421875 0.7382812,-0.26953126 0.9960937,-0.79687496 0.9960937,-1.21874996 0,-0.5507813 -0.6328125,-0.9609375 -1.40625,-0.9609375 -0.7734375,0 -1.359375,0.375 -1.359375,0.9375 0,0.234375 0.1523438,0.3632812 0.3632813,0.3632812 0.2109375,0 0.3515625,-0.1640625 0.3515625,-0.3515625 0,-0.1992187 -0.140625,-0.3515625 -0.3515625,-0.3632812 0.234375,-0.3046875 0.7148437,-0.3867188 0.9726562,-0.3867188 0.3164063,0 0.7617188,0.1523438 0.7617188,0.7617188 0,0.2929687 -0.1054688,0.609375 -0.28125,0.8320312 -0.234375,0.2578125 -0.421875,0.28125 -0.7734375,0.2929688 -0.1757813,0.023437 -0.1875,0.023437 -0.2226563,0.023437 -0.011719,0 -0.070312,0.011719 -0.070312,0.09375 0,0.09375 0.058594,0.09375 0.1757813,0.09375 z m 0,0"
         style="fill:#000000;fill-opacity:1;fill-rule:nonzero;stroke:none" />
    </g>
    <path
       id="path40"
       d="m 115.50067,0 c 0,1.16722 -0.94621,2.11343 -2.11343,2.11343 -1.16724,0 -2.11345,-0.94621 -2.11345,-2.11343 0,-1.16722 0.94621,-2.11343 2.11345,-2.11343 1.16722,0 2.11343,0.94621 2.11343,2.11343 z"
       style="fill:#000000;fill-opacity:1;fill-rule:nonzero;stroke:none"
       transform="matrix(1.3333333,0,0,-1.3333333,164.996,164.996)" />
    <g
       id="g40"
       aria-label="V&#10;4"
       transform="matrix(1.3333333,0,0,1.3333333,323.05067,156.13067)">
      <path
         id="path41"
         d="m 6.2578984,-5.6731953 c 0.4804688,-0.7734375 0.9023438,-0.8085938 1.2773438,-0.8203125 0.1171875,-0.011719 0.1289062,-0.1875 0.1289062,-0.1875 0,-0.082031 -0.058594,-0.1289063 -0.1289062,-0.1289063 -0.2578125,0 -0.5507813,0.035156 -0.8203125,0.035156 -0.328125,0 -0.6679688,-0.035156 -0.984375,-0.035156 -0.058594,0 -0.1875,0 -0.1875,0.1992188 0,0.1054687 0.082031,0.1171875 0.1523437,0.1171875 0.2695313,0.011719 0.4570313,0.1171875 0.4570313,0.328125 0,0.1523437 -0.140625,0.3632812 -0.140625,0.375 L 2.9532109,-0.92710156 2.2735234,-6.2005391 c 0,-0.1640625 0.2226563,-0.2929687 0.6796875,-0.2929687 0.140625,0 0.2578125,0 0.2578125,-0.1992188 0,-0.09375 -0.082031,-0.1171875 -0.140625,-0.1171875 -0.3984375,0 -0.8320312,0.035156 -1.2421875,0.035156 -0.1757812,0 -0.3632812,-0.011719 -0.5390625,-0.011719 -0.1875,0 -0.37499996,-0.023437 -0.53906246,-0.023437 -0.0703125,0 -0.1875,0 -0.1875,0.1992188 0,0.1171875 0.0820313,0.1171875 0.24609375,0.1171875 0.55078121,0 0.56250001,0.082031 0.59765621,0.3398437 l 0.7851563,6.14062504 c 0.035156,0.19921875 0.070312,0.234375 0.1992187,0.234375 0.1640625,0 0.1992188,-0.0585938 0.28125,-0.1875 z m 0,0"
         style="fill:#000000;fill-opacity:1;fill-rule:nonzero;stroke:none" />
      <path
         id="path42"
         d="M 9.5010625,0.34438281 V 0.09828906 H 8.727625 V -3.0071797 c 0,-0.1523437 0,-0.1992187 -0.1523437,-0.1992187 -0.09375,0 -0.1171875,0 -0.1875,0.09375 L 6.0791875,0.09828906 v 0.24609375 h 2.0507813 v 0.57421875 c 0,0.23437504 0,0.32812504 -0.5625,0.32812504 h -0.1875 v 0.2460937 c 0.3515625,-0.011719 0.796875,-0.023437 1.0429687,-0.023437 0.2578125,0 0.703125,0.011719 1.0546875,0.023437 V 1.2467266 h -0.1875 c -0.5625,0 -0.5625,-0.09375 -0.5625,-0.32812504 V 0.34438281 Z M 8.1768438,-2.4563984 V 0.09828906 H 6.337 Z m 0,0"
         style="fill:#000000;fill-opacity:1;fill-rule:nonzero;stroke:none" />
    </g>
  </g>
</svg>
