<?xml version="1.0" encoding="UTF-8" standalone="no"?>
<!-- Created with Inkscape (http://www.inkscape.org/) -->

<svg
   version="1.1"
   id="svg1"
   width="151.18298"
   height="91.353836"
   viewBox="0 0 151.18298 91.353838"
   xmlns="http://www.w3.org/2000/svg"
   xmlns:svg="http://www.w3.org/2000/svg">
  <defs
     id="defs1" />
  <g
     id="g1"
     transform="translate(-13.548509,-13.548508)">
    <path
       id="path1"
       d="m 0,0 h -28.3468 m 0,0 h -28.34682"
       style="fill:none;stroke:#000000;stroke-width:0.3985;stroke-linecap:butt;stroke-linejoin:miter;stroke-miterlimit:10;stroke-dasharray:none;stroke-opacity:1"
       transform="matrix(1.3333333,0,0,-1.3333333,89.14,89.14)" />
    <path
       id="path2"
       d="m 1.1017578,-3.4209297 v 2.66015626 c 0,0.45703125 -0.11718749,0.45703125 -0.78515624,0.45703125 V 9.453125e-4 C 0.66816406,-0.01077344 1.1720703,-0.03421094 1.4416016,-0.03421094 c 0.2578125,0 0.7851562,0.0234375 1.1132812,0.0351562525 V -0.30374219 c -0.65625,0 -0.7734375,0 -0.7734375,-0.45703125 V -2.5888984 c 0,-1.03125 0.7148438,-1.59375 1.3476563,-1.59375 0.6210937,0 0.7382812,0.5390625 0.7382812,1.1015625 v 2.32031246 c 0,0.45703125 -0.1171875,0.45703125 -0.7734375,0.45703125 V 9.453125e-4 c 0.3398438,-0.0117187525 0.8554688,-0.0351562525 1.125,-0.0351562525 0.2578125,0 0.7734375,0.0234375 1.1132813,0.0351562525 V -0.30374219 c -0.515625,0 -0.7734375,0 -0.7851563,-0.3046875 V -2.5068672 c 0,-0.8554687 0,-1.171875 -0.3046875,-1.5234375 -0.140625,-0.1757812 -0.46875,-0.375 -1.0429687,-0.375 -0.7265625,0 -1.1953125,0.4335938 -1.4765625,1.0546875 v -1.0546875 l -1.40625004,0.1171875 v 0.3046875 c 0.70312504,0 0.78515624,0.070312 0.78515624,0.5625 z m 9.1201172,1.2890625 c 0,-1.2773437 -0.9960937,-2.3320312 -2.1914062,-2.3320312 -1.2539063,0 -2.2148438,1.0898437 -2.2148438,2.3320312 0,1.28906251 1.03125,2.23828126 2.203125,2.23828126 1.2070313,0 2.203125,-0.97265625 2.203125,-2.23828126 z m -2.1914062,1.99218751 c -0.4335938,0 -0.8671875,-0.2109375 -1.1367188,-0.66796875 C 6.6359375,-1.2412422 6.6359375,-1.8506172 6.6359375,-2.2138984 c 0,-0.3867188 0,-0.9257813 0.2460938,-1.359375 0.2695312,-0.4570313 0.7382812,-0.6679688 1.1367187,-0.6679688 0.4335938,0 0.8671875,0.2226563 1.125,0.6445313 0.2578125,0.4335937 0.2578125,1.0078125 0.2578125,1.3828125 0,0.3632812 0,0.9023437 -0.2226562,1.33593746 -0.2226563,0.4453125 -0.65625,0.73828125 -1.1484375,0.73828125 z M 14.58125,-0.54983594 v 0.65625 L 16.046094,9.453125e-4 V -0.30374219 c -0.703125,0 -0.773438,-0.0703125 -0.773438,-0.5625 V -6.9131172 l -1.441406,0.1054688 v 0.3164062 c 0.703125,0 0.785156,0.070312 0.785156,0.5507813 v 2.15625 c -0.292968,-0.3632813 -0.726562,-0.6210938 -1.265625,-0.6210938 -1.171875,0 -2.214843,0.984375 -2.214843,2.2617188 0,1.26562496 0.972656,2.24999996 2.109375,2.24999996 0.644531,0 1.089843,-0.33984375 1.335937,-0.65625 z m 0,-2.67187496 v 2.0507812 c 0,0.17578126 0,0.19921876 -0.105469,0.36328126 -0.304687,0.48046875 -0.75,0.703125 -1.183593,0.703125 -0.445313,0 -0.796875,-0.2578125 -1.042969,-0.64453125 C 11.991406,-1.1592109 11.95625,-1.7217109 11.95625,-2.1318672 c 0,-0.3632812 0.02344,-0.9609375 0.316406,-1.4179687 0.210938,-0.3046875 0.585938,-0.6328125 1.125,-0.6328125 0.351563,0 0.761719,0.1523437 1.078125,0.5976562 0.105469,0.1640625 0.105469,0.1875 0.105469,0.3632813 z m 6.436523,1.0898437 c 0,-1.2773437 -0.996093,-2.3320312 -2.191406,-2.3320312 -1.253906,0 -2.214844,1.0898437 -2.214844,2.3320312 0,1.28906251 1.03125,2.23828126 2.203125,2.23828126 1.207032,0 2.203125,-0.97265625 2.203125,-2.23828126 z m -2.191406,1.99218751 c -0.433594,0 -0.867187,-0.2109375 -1.136719,-0.66796875 -0.257812,-0.43359376 -0.257812,-1.04296876 -0.257812,-1.40624996 0,-0.3867188 0,-0.9257813 0.246094,-1.359375 0.269531,-0.4570313 0.738281,-0.6679688 1.136718,-0.6679688 0.433594,0 0.867188,0.2226563 1.125,0.6445313 0.257813,0.4335937 0.257813,1.0078125 0.257813,1.3828125 0,0.3632812 0,0.9023437 -0.222656,1.33593746 -0.222657,0.4453125 -0.65625,0.73828125 -1.148438,0.73828125 z m 0,0"
       style="fill:#000000;fill-opacity:1;fill-rule:nonzero;stroke:none"
       aria-label="nodo"
       transform="matrix(1.3333333,0,0,1.3333333,74.933333,103.05733)" />
    <path
       id="path3"
       d="M 1.58714,0 C 1.58714,0.87656 0.87656,1.58714 0,1.58714 -0.87656,1.58714 -1.58714,0.87656 -1.58714,0 c 0,-0.87656 0.71058,-1.58714 1.58714,-1.58714 0.87656,0 1.58714,0.71058 1.58714,1.58714 z"
       style="fill:#000000;fill-opacity:1;fill-rule:nonzero;stroke:#000000;stroke-width:0.3985;stroke-linecap:butt;stroke-linejoin:miter;stroke-miterlimit:10;stroke-dasharray:none;stroke-opacity:1"
       transform="matrix(1.3333333,0,0,-1.3333333,89.14,89.14)" />
    <path
       id="path4"
       d="M -26.61058,0 V 1.98425 L -30.82713,0 l 4.21655,-1.98425 z"
       style="fill:#000000;fill-opacity:1;fill-rule:nonzero;stroke:#000000;stroke-width:0.3985;stroke-linecap:butt;stroke-linejoin:miter;stroke-miterlimit:10;stroke-dasharray:none;stroke-opacity:1"
       transform="matrix(1.3333333,0,0,-1.3333333,89.14,89.14)" />
    <g
       id="g4"
       aria-label="I&#10;2"
       transform="matrix(1.3333333,0,0,1.3333333,45.445333,102.90933)">
      <path
         id="path5"
         d="m 3.7265469,-6.0345391 c 0.09375,-0.3632812 0.1171875,-0.4570312 0.9023437,-0.4570312 0.2460938,0 0.3164063,0 0.3164063,-0.1875 0,-0.1289063 -0.1054688,-0.1289063 -0.140625,-0.1289063 -0.2929688,0 -1.03125,0.035156 -1.3125,0.035156 -0.3046875,0 -1.03125,-0.035156 -1.3359375,-0.035156 -0.058594,0 -0.1992188,0 -0.1992188,0.1992188 0,0.1171875 0.09375,0.1171875 0.28125,0.1171875 0.421875,0 0.6914063,0 0.6914063,0.1875 0,0.046875 0,0.070312 -0.023437,0.1640625 l -1.3476563,5.36718749 c -0.082031,0.36328125 -0.1171875,0.46875 -0.90234372,0.46875 -0.22265625,0 -0.31640625,0 -0.31640625,0.19921875 0,0.1054687475 0.1171875,0.1054687475 0.15234375,0.1054687475 0.28125,0 1.00781252,-0.0351562475 1.30078122,-0.0351562475 0.3046875,0 1.03125,0.0351562475 1.3359375,0.0351562475 0.082031,0 0.1992188,0 0.1992188,-0.1874999975 0,-0.1171875 -0.082031,-0.1171875 -0.3046875,-0.1171875 -0.1757813,0 -0.2226563,0 -0.421875,-0.0234375 -0.2109375,-0.0234375 -0.2460938,-0.0585938 -0.2460938,-0.17578125 0,-0.0703125 0.011719,-0.15234375 0.035156,-0.22265625 z m 0,0"
         style="fill:#000000;fill-opacity:1;fill-rule:nonzero;stroke:none" />
      <path
         id="path6"
         d="m 7.8954922,0.22913281 h -0.234375 c -0.023437,0.15234375 -0.082031,0.5625 -0.1757813,0.6328125 -0.058594,0.0351563 -0.5976562,0.0351563 -0.6914062,0.0351563 H 5.5048672 c 0.7382812,-0.64453125 0.984375,-0.84375 1.3945312,-1.171875 0.515625,-0.41015625 0.9960938,-0.84374991 0.9960938,-1.49999991 0,-0.8437501 -0.7382813,-1.3593751 -1.6289063,-1.3593751 -0.8671875,0 -1.453125,0.609375 -1.453125,1.2421875 0,0.3632812 0.3046875,0.3984375 0.375,0.3984375 0.1640625,0 0.375,-0.1171875 0.375,-0.375 0,-0.1289062 -0.058594,-0.3632813 -0.421875,-0.3632813 0.2226563,-0.5039062 0.6914063,-0.65625 1.0195313,-0.65625 0.703125,0 1.0664062,0.5507813 1.0664062,1.1132813 0,0.609375 -0.4335937,1.08984376 -0.65625,1.33593751 l -1.6875,1.66406249 c -0.070312,0.058594 -0.070312,0.070312 -0.070312,0.2695312 h 2.8828125 z m 0,0"
         style="fill:#000000;fill-opacity:1;fill-rule:nonzero;stroke:none" />
    </g>
    <path
       id="path7"
       d="M 0,56.69362 V 28.3468 m 0,0 V 0"
       style="fill:none;stroke:#000000;stroke-width:0.3985;stroke-linecap:butt;stroke-linejoin:miter;stroke-miterlimit:10;stroke-dasharray:none;stroke-opacity:1"
       transform="matrix(1.3333333,0,0,-1.3333333,89.14,89.14)" />
    <path
       id="path8"
       d="M 0,30.08302 H -1.98425 L 0,25.86647 1.98425,30.08302 Z"
       style="fill:#000000;fill-opacity:1;fill-rule:nonzero;stroke:#000000;stroke-width:0.3985;stroke-linecap:butt;stroke-linejoin:miter;stroke-miterlimit:10;stroke-dasharray:none;stroke-opacity:1"
       transform="matrix(1.3333333,0,0,-1.3333333,89.14,89.14)" />
    <g
       id="g8"
       aria-label="I&#10;1"
       transform="matrix(1.3333333,0,0,1.3333333,93.833333,54.886667)">
      <path
         id="path9"
         d="m 3.7255859,-6.0351172 c 0.09375,-0.3632812 0.1171875,-0.4570312 0.9023438,-0.4570312 0.2460937,0 0.3164062,0 0.3164062,-0.1875 0,-0.1289063 -0.1054687,-0.1289063 -0.140625,-0.1289063 -0.2929687,0 -1.03125,0.035156 -1.3125,0.035156 -0.3046875,0 -1.03125,-0.035156 -1.3359375,-0.035156 -0.058594,0 -0.1992187,0 -0.1992187,0.1992188 0,0.1171875 0.09375,0.1171875 0.28125,0.1171875 0.421875,0 0.6914062,0 0.6914062,0.1875 0,0.046875 0,0.070312 -0.023437,0.1640625 l -1.3476562,5.36718746 c -0.082031,0.36328125 -0.1171875,0.46875 -0.90234376,0.46875 -0.22265625,0 -0.31640625,0 -0.31640625,0.19921875 0,0.1054687525 0.1171875,0.1054687525 0.15234375,0.1054687525 0.28125,0 1.00781246,-0.0351562525 1.30078126,-0.0351562525 0.3046875,0 1.03125,0.0351562525 1.3359375,0.0351562525 0.082031,0 0.1992187,0 0.1992187,-0.1875000025 0,-0.1171875 -0.082031,-0.1171875 -0.3046875,-0.1171875 -0.1757812,0 -0.2226562,0 -0.421875,-0.0234375 -0.2109375,-0.0234375 -0.2460937,-0.0585938 -0.2460937,-0.17578125 0,-0.0703125 0.011719,-0.15234375 0.035156,-0.22265625 z m 0,0"
         style="fill:#000000;fill-opacity:1;fill-rule:nonzero;stroke:none" />
      <path
         id="path10"
         d="m 6.7109375,-2.9355078 c 0,-0.1875 -0.011719,-0.1992188 -0.2109375,-0.1992188 -0.4453125,0.4335938 -1.078125,0.4453125 -1.359375,0.4453125 v 0.2460938 c 0.1640625,0 0.6210938,0 1.0078125,-0.1875 v 3.55078124 c 0,0.23437496 0,0.32812496 -0.6914062,0.32812496 H 5.1875 v 0.2460938 c 0.1289063,-0.011719 0.984375,-0.023437 1.2421875,-0.023437 0.2109375,0 1.0898438,0.011719 1.2421875,0.023437 V 1.2480859 H 7.4140625 c -0.703125,0 -0.703125,-0.09375 -0.703125,-0.32812496 z m 0,0"
         style="fill:#000000;fill-opacity:1;fill-rule:nonzero;stroke:none" />
    </g>
    <path
       id="path11"
       d="m 0,0 h 28.3468 m 0,0 h 28.34682"
       style="fill:none;stroke:#000000;stroke-width:0.3985;stroke-linecap:butt;stroke-linejoin:miter;stroke-miterlimit:10;stroke-dasharray:none;stroke-opacity:1"
       transform="matrix(1.3333333,0,0,-1.3333333,89.14,89.14)" />
    <path
       id="path12"
       d="M 26.61058,0 V -1.98425 L 30.82713,0 26.61058,1.98425 Z"
       style="fill:#000000;fill-opacity:1;fill-rule:nonzero;stroke:#000000;stroke-width:0.3985;stroke-linecap:butt;stroke-linejoin:miter;stroke-miterlimit:10;stroke-dasharray:none;stroke-opacity:1"
       transform="matrix(1.3333333,0,0,-1.3333333,89.14,89.14)" />
    <g
       id="g12"
       aria-label="I&#10;3"
       transform="matrix(1.3333333,0,0,1.3333333,121.036,82.454667)">
      <path
         id="path13"
         d="m 3.7259297,-6.0363125 c 0.09375,-0.3632813 0.1171875,-0.4570313 0.9023437,-0.4570313 0.2460938,0 0.3164063,0 0.3164063,-0.1875 0,-0.1289062 -0.1054688,-0.1289062 -0.140625,-0.1289062 -0.2929688,0 -1.03125,0.035156 -1.3125,0.035156 -0.3046875,0 -1.03125,-0.035156 -1.3359375,-0.035156 -0.058594,0 -0.1992188,0 -0.1992188,0.1992187 0,0.1171875 0.09375,0.1171875 0.28125,0.1171875 0.421875,0 0.6914063,0 0.6914063,0.1875 0,0.046875 0,0.070312 -0.023437,0.1640625 l -1.3476563,5.36718755 c -0.082031,0.36328125 -0.1171875,0.46875 -0.90234371,0.46875 -0.22265625,0 -0.31640625,0 -0.31640625,0.19921875 0,0.10546875 0.1171875,0.10546875 0.15234375,0.10546875 0.28125,0 1.00781251,-0.03515625 1.30078121,-0.03515625 0.3046875,0 1.03125,0.03515625 1.3359375,0.03515625 0.082031,0 0.1992188,0 0.1992188,-0.1875 0,-0.1171875 -0.082031,-0.1171875 -0.3046875,-0.1171875 -0.1757813,0 -0.2226563,0 -0.421875,-0.0234375 -0.2109375,-0.0234375 -0.2460938,-0.0585938 -0.2460938,-0.17578125 0,-0.0703125 0.011719,-0.15234375 0.035156,-0.22265625 z m 0,0"
         style="fill:#000000;fill-opacity:1;fill-rule:nonzero;stroke:none" />
      <path
         id="path14"
         d="m 6.2776875,-0.83904688 c 0.5507813,0 0.9375,0.375 0.9375,1.125 0,0.86718748 -0.5039062,1.12499998 -0.9023437,1.12499998 -0.28125,0 -0.890625,-0.082031 -1.1835938,-0.49218748 0.328125,-0.0117188 0.3984375,-0.24609375 0.3984375,-0.38671875 0,-0.22265625 -0.1640625,-0.38671875 -0.3867187,-0.38671875 -0.1875,0 -0.3867188,0.1171875 -0.3867188,0.41015625 0,0.65625003 0.7265625,1.07812503 1.5703125,1.07812503 0.9726563,0 1.640625,-0.64453128 1.640625,-1.34765628 0,-0.5390625 -0.4453125,-1.08984375 -1.21875,-1.2421875 0.7382813,-0.26953122 0.9960938,-0.79687502 0.9960938,-1.21875002 0,-0.5507812 -0.6328125,-0.9609375 -1.40625,-0.9609375 -0.7734375,0 -1.359375,0.375 -1.359375,0.9375 0,0.234375 0.1523437,0.3632813 0.3632812,0.3632813 0.2109375,0 0.3515625,-0.1640625 0.3515625,-0.3515625 0,-0.1992188 -0.140625,-0.3515625 -0.3515625,-0.3632813 0.234375,-0.3046875 0.7148438,-0.3867187 0.9726563,-0.3867187 0.3164062,0 0.7617187,0.1523437 0.7617187,0.7617187 0,0.2929688 -0.1054687,0.609375 -0.28125,0.8320313 -0.234375,0.2578125 -0.421875,0.28125 -0.7734375,0.2929687 -0.1757812,0.023437 -0.1875,0.023437 -0.2226562,0.023437 -0.011719,0 -0.070312,0.011719 -0.070312,0.09375 0,0.09375 0.058594,0.09375 0.1757812,0.09375 z m 0,0"
         style="fill:#000000;fill-opacity:1;fill-rule:nonzero;stroke:none" />
    </g>
  </g>
</svg>
