<?xml version="1.0" encoding="UTF-8" standalone="no"?>
<!-- Created with Inkscape (http://www.inkscape.org/) -->

<svg
   version="1.1"
   id="svg1"
   width="723.31641"
   height="259.78906"
   viewBox="0 0 723.3164 259.78906"
   xmlns="http://www.w3.org/2000/svg"
   xmlns:svg="http://www.w3.org/2000/svg">
  <defs
     id="defs1">
    <clipPath
       clipPathUnits="userSpaceOnUse"
       id="clipPath16">
      <path
         d="M 2.4999999e-7,2.5000001e-6 H 194.27217 V 161.39576 H 2.4999999e-7 Z"
         id="path16" />
    </clipPath>
    <clipPath
       clipPathUnits="userSpaceOnUse"
       id="clipPath41">
      <path
         d="M -2.5000002e-6,2.5000001e-6 H 194.27216 V 161.39576 H -2.5000002e-6 Z"
         id="path41" />
    </clipPath>
  </defs>
  <g
     id="g1"
     transform="translate(-18.273438,-17.703125)">
    <path
       id="path1"
       d="M 32.3787,-2.12627 V 2.12627"
       style="fill:none;stroke:#808080;stroke-width:0.19925;stroke-linecap:butt;stroke-linejoin:miter;stroke-miterlimit:10;stroke-dasharray:none;stroke-opacity:1"
       transform="matrix(1.3333333,0,0,-1.3333333,82.573333,261.63867)" />
    <path
       id="path2"
       d="m -2.12587,84.73276 h 4.25174 m -4.25174,51.10866 h 4.25174"
       style="fill:none;stroke:#808080;stroke-width:0.19925;stroke-linecap:butt;stroke-linejoin:miter;stroke-miterlimit:10;stroke-dasharray:none;stroke-opacity:1"
       transform="matrix(1.3333333,0,0,-1.3333333,82.573333,261.63867)" />
    <path
       id="path3"
       d="M 0,0 H 192.27963"
       style="fill:none;stroke:#000000;stroke-width:0.3985;stroke-linecap:butt;stroke-linejoin:miter;stroke-miterlimit:10;stroke-dasharray:none;stroke-opacity:1"
       transform="matrix(1.3333333,0,0,-1.3333333,82.573333,261.63867)" />
    <path
       id="path4"
       d="M 1.99252,0 -1.19551,1.59401 0,0 -1.19551,-1.59401"
       style="fill:#000000;fill-opacity:1;fill-rule:nonzero;stroke:none"
       transform="matrix(1.3333333,0,0,-1.3333333,338.94617,261.63867)" />
    <path
       id="path5"
       d="M 0,0 V 159.40323"
       style="fill:none;stroke:#000000;stroke-width:0.3985;stroke-linecap:butt;stroke-linejoin:miter;stroke-miterlimit:10;stroke-dasharray:none;stroke-opacity:1"
       transform="matrix(1.3333333,0,0,-1.3333333,82.573333,261.63867)" />
    <path
       id="path6"
       d="M 1.99252,0 -1.19551,1.59401 0,0 -1.19551,-1.59401"
       style="fill:#000000;fill-opacity:1;fill-rule:nonzero;stroke:none"
       transform="matrix(0,-1.3333333,-1.3333333,0,82.573333,49.101027)" />
    <g
       id="g6"
       aria-label="t=τ"
       transform="matrix(1.3333333,0,0,1.3333333,110.83467,277.33733)">
      <path
         id="path7"
         d="m 2.0517344,-3.9854219 h 0.9375 c 0.1992187,0 0.3046875,0 0.3046875,-0.1992187 0,-0.1054688 -0.1054688,-0.1054688 -0.28125,-0.1054688 H 2.1337656 c 0.3632813,-1.4179687 0.4101563,-1.6171875 0.4101563,-1.6757812 0,-0.1757813 -0.1171875,-0.2695313 -0.2929688,-0.2695313 -0.023437,0 -0.3046875,0.011719 -0.3984375,0.3515625 l -0.3867187,1.59375 H 0.52829687 c -0.19921875,0 -0.29296875,0 -0.29296875,0.1875 0,0.1171875 0.0703125,0.1171875 0.26953125,0.1171875 H 1.3837656 c -0.71484373,2.8242188 -0.74999998,3.00000003 -0.74999998,3.17578128 0,0.5390625 0.37499998,0.9140625 0.91406248,0.9140625 1.0078125,0 1.5820313,-1.45312498 1.5820313,-1.53515628 0,-0.09375 -0.082031,-0.09375 -0.1171875,-0.09375 -0.09375,0 -0.1054688,0.023437 -0.1523438,0.140625 -0.4335937,1.03125003 -0.9609375,1.27734378 -1.3007812,1.27734378 -0.1992188,0 -0.3046875,-0.12890625 -0.3046875,-0.45703125 0,-0.24609375 0.023437,-0.31640625 0.058594,-0.48046873 z m 0,0"
         style="fill:#000000;fill-opacity:1;fill-rule:nonzero;stroke:none" />
      <path
         id="path8"
         d="m 13.207984,-3.2588594 c 0.152344,0 0.339844,0 0.339844,-0.1992187 0,-0.1992188 -0.1875,-0.1992188 -0.328125,-0.1992188 H 7.2548594 c -0.140625,0 -0.328125,0 -0.328125,0.1992188 0,0.1992187 0.1875,0.1992187 0.3398437,0.1992187 z m 0.01172,1.9335938 c 0.140625,0 0.328125,0 0.328125,-0.1992188 0,-0.1992187 -0.1875,-0.1992187 -0.339844,-0.1992187 H 7.2665781 c -0.1523437,0 -0.3398437,0 -0.3398437,0.1992187 0,0.1992188 0.1875,0.1992188 0.328125,0.1992188 z m 0,0"
         style="fill:#000000;fill-opacity:1;fill-rule:nonzero;stroke:none" />
      <path
         id="path9"
         d="m 19.8115,-3.7158906 h 1.675781 c 0.128906,0 0.480469,0 0.480469,-0.3398438 0,-0.234375 -0.199219,-0.234375 -0.398438,-0.234375 H 18.78025 c -0.199219,0 -0.585938,0 -1.019531,0.46875 -0.328125,0.3515625 -0.609375,0.8320313 -0.609375,0.890625 0,0.011719 0,0.1054688 0.117187,0.1054688 0.08203,0 0.105469,-0.046875 0.164063,-0.1289063 0.480468,-0.7617187 1.054687,-0.7617187 1.265625,-0.7617187 h 0.820312 l -0.972656,3.19921873 c -0.03516,0.1171875 -0.105469,0.328125 -0.105469,0.36328125 0,0.1171875 0.07031,0.26953125 0.292969,0.26953125 0.328125,0 0.375,-0.28125 0.410156,-0.421875 z m 0,0"
         style="fill:#000000;fill-opacity:1;fill-rule:nonzero;stroke:none" />
    </g>
    <g
       id="g9"
       aria-label="63%Q&#10;m´ax"
       transform="matrix(1.3333333,0,0,1.3333333,17.710667,152.35333)">
      <path
         id="path10"
         d="m 1.3127031,-3.2708594 v -0.234375 c 0,-2.5195312 1.2421875,-2.8828125 1.7460938,-2.8828125 0.234375,0 0.65625,0.058594 0.8789062,0.3984375 -0.1523437,0 -0.5507812,0 -0.5507812,0.4453125 0,0.3164063 0.234375,0.4570313 0.4570312,0.4570313 0.1640625,0 0.4570313,-0.082031 0.4570313,-0.46875 0,-0.5976563 -0.4335938,-1.078125 -1.265625,-1.078125 -1.2773438,0 -2.61328128,1.2890625 -2.61328128,3.4804687 0,2.66015627 1.14843748,3.37500002 2.07421878,3.37500002 1.1132812,0 2.0507812,-0.9375 2.0507812,-2.25000002 0,-1.265625 -0.8789062,-2.2265625 -1.9921875,-2.2265625 -0.6679687,0 -1.0429687,0.5039063 -1.2421875,0.984375 z m 1.1835938,3.21093752 c -0.6210938,0 -0.9257813,-0.59765625 -0.984375,-0.75 C 1.3361406,-1.2786719 1.3361406,-2.0755469 1.3361406,-2.2513281 c 0,-0.7734375 0.3164063,-1.7695313 1.21875,-1.7695313 0.1523438,0 0.609375,0 0.9257813,0.609375 0.1757812,0.375 0.1757812,0.8789063 0.1757812,1.3710938 0,0.4804687 0,0.9726562 -0.1640625,1.33593747 -0.3046875,0.59765625 -0.7617187,0.64453125 -0.9960937,0.64453125 z M 7.8752031,-3.5052344 c 0.8085938,-0.2695312 1.3945313,-0.9726562 1.3945313,-1.7578125 0,-0.8203125 -0.8789063,-1.3710937 -1.8398438,-1.3710937 -1.0078125,0 -1.7578125,0.5976562 -1.7578125,1.3476562 0,0.3398438 0.2109375,0.5273438 0.5039063,0.5273438 0.3046875,0 0.5039062,-0.2226563 0.5039062,-0.515625 0,-0.4921875 -0.46875,-0.4921875 -0.609375,-0.4921875 0.3046875,-0.4921875 0.9609375,-0.6210938 1.3242188,-0.6210938 0.4101562,0 0.9492187,0.2226563 0.9492187,1.1132813 0,0.1289062 -0.011719,0.703125 -0.2695312,1.1367187 -0.3046875,0.4804688 -0.6445313,0.515625 -0.890625,0.515625 -0.082031,0.011719 -0.3164063,0.035156 -0.3867188,0.035156 -0.082031,0.011719 -0.1523437,0.023437 -0.1523437,0.1171875 0,0.1171875 0.070312,0.1171875 0.234375,0.1171875 h 0.4453125 c 0.8085937,0 1.1835937,0.6679687 1.1835937,1.6523437 0,1.34765627 -0.6914062,1.64062502 -1.125,1.64062502 -0.4335937,0 -1.171875,-0.17578125 -1.5234375,-0.76171875 0.3515625,0.0585938 0.65625,-0.1640625 0.65625,-0.53906247 0,-0.3632813 -0.2695312,-0.5625 -0.5625,-0.5625 -0.234375,0 -0.5507812,0.140625 -0.5507812,0.5742187 0,0.91406252 0.9257812,1.57031252 2.0039062,1.57031252 1.21875,0 2.1210938,-0.9140625 2.1210938,-1.92187502 0,-0.8203125 -0.6210938,-1.59375 -1.6523438,-1.8046872 z m 8.9062499,-3.5859375 c 0.05859,-0.09375 0.08203,-0.1171875 0.08203,-0.1875 0,-0.1054687 -0.09375,-0.1992187 -0.199218,-0.1992187 -0.09375,0 -0.152344,0.070312 -0.210938,0.140625 -0.492187,0.6796875 -1.160156,0.9492187 -1.886719,0.9492187 -0.703125,0 -1.3125,-0.2460937 -1.863281,-0.7617187 -0.1875,-0.1757813 -0.398437,-0.328125 -0.714844,-0.328125 -0.761718,0 -1.464843,0.84375 -1.464843,2.0039062 0,1.2070313 0.714843,2.015625 1.464843,2.015625 0.726563,0 1.289063,-0.890625 1.289063,-2.0039062 0,-0.140625 0,-0.609375 -0.210938,-1.125 0.644532,0.375 1.148438,0.421875 1.511719,0.421875 0.75,0 1.265625,-0.3164063 1.324219,-0.3515625 v 0.011719 l -4.464844,6.66796877 c -0.09375,0.12890625 -0.09375,0.17578125 -0.09375,0.19921875 0,0.10546875 0.105469,0.19921875 0.199219,0.19921875 0.105469,0 0.117187,-0.046875 0.199219,-0.15234375 z m -4.792969,3.4101563 c -0.199218,0 -0.855468,-0.1289063 -0.855468,-1.78125 0,-1.6640625 0.65625,-1.7929688 0.855468,-1.7929688 0.527344,0 1.042969,0.7382813 1.042969,1.78125 0,1.078125 -0.515625,1.7929688 -1.042969,1.7929688 z m 4.417969,4.01953122 c -0.199219,0 -0.855469,-0.12890625 -0.855469,-1.78125002 0,-1.6640625 0.644532,-1.7929687 0.855469,-1.7929687 0.527344,0 1.03125,0.7382812 1.03125,1.78125 0,1.07812497 -0.515625,1.79296872 -1.03125,1.79296872 z m 1.289063,-1.78125002 c 0,-1.1484375 -0.597657,-2.015625 -1.300782,-2.015625 -0.75,0 -1.464843,0.8320313 -1.464843,2.0039063 0,1.20703122 0.714843,2.01562497 1.464843,2.01562497 0.726563,0 1.300782,-0.890625 1.300782,-2.00390627 z m 0,0"
         style="fill:#000000;fill-opacity:1;fill-rule:nonzero;stroke:none" />
      <path
         id="path11"
         d="m 24.284383,-0.05992188 c 1.546875,-0.5859375 3.011719,-2.36718752 3.011719,-4.28906252 0,-1.59375 -1.054688,-2.671875 -2.542969,-2.671875 -2.144531,0 -4.335938,2.2617188 -4.335938,4.5820313 0,1.65234372 1.113282,2.66015622 2.542969,2.66015622 0.257813,0 0.585938,-0.046875 0.984375,-0.15234375 -0.04687,0.62109375 -0.04687,0.6328125 -0.04687,0.76171875 0,0.32812498 0,1.10156248 0.832031,1.10156248 1.183594,0 1.664063,-1.82812498 1.664063,-1.93359373 0,-0.0703125 -0.07031,-0.10546875 -0.117188,-0.10546875 -0.07031,0 -0.09375,0.05859375 -0.117187,0.1171875 -0.234375,0.703125 -0.820313,0.94921875 -1.160156,0.94921875 -0.457032,0 -0.609375,-0.2578125 -0.714844,-1.01953125 z m -1.875,-0.08203125 c -0.785156,-0.3046875 -1.125,-1.08984377 -1.125,-1.98046877 0,-0.6914062 0.269531,-2.0976562 1.019531,-3.1757812 0.726563,-1.0195313 1.664063,-1.4765625 2.390625,-1.4765625 0.996094,0 1.722656,0.7734375 1.722656,2.109375 0,0.9960937 -0.503906,3.328125 -2.179687,4.26562497 -0.04687,-0.3515625 -0.152344,-1.07812497 -0.878906,-1.07812497 -0.527344,0 -1.007813,0.50390622 -1.007813,1.01953122 0,0.19921875 0.05859,0.3046875 0.05859,0.31640625 z m 0.609375,0.10546875 c -0.140625,0 -0.457031,0 -0.457031,-0.421875 0,-0.3984375 0.386718,-0.79687502 0.796875,-0.79687502 0.421875,0 0.609375,0.234375 0.609375,0.84375002 0,0.15234375 -0.01172,0.1640625 -0.105469,0.19921875 -0.257813,0.10546875 -0.5625,0.17578125 -0.84375,0.17578125 z m 0,0"
         style="fill:#000000;fill-opacity:1;fill-rule:nonzero;stroke:none" />
      <path
         id="path12"
         d="m 33.530477,-0.6165625 c 0,-0.609375 -0.292969,-0.9609375 -1.042969,-0.9609375 -0.550781,0 -0.925781,0.2929687 -1.113281,0.64453125 C 31.233602,-1.4251563 30.858602,-1.5775 30.342977,-1.5775 c -0.574219,0 -0.9375,0.3046875 -1.136719,0.66796875 V -1.5775 l -1.03125,0.070312 v 0.2578125 c 0.46875,0 0.527344,0.046875 0.527344,0.38671875 v 1.8046875 c 0,0.30468745 -0.07031,0.30468745 -0.527344,0.30468745 V 1.492812 c 0.01172,0 0.503906,-0.023437 0.796875,-0.023437 0.257812,0 0.738281,0.011719 0.796875,0.023437 V 1.2467187 c -0.445313,0 -0.515625,0 -0.515625,-0.30468745 V -0.311875 c 0,-0.7382813 0.574219,-1.078125 1.03125,-1.078125 0.492187,0 0.550781,0.3867187 0.550781,0.73828125 v 1.59375 c 0,0.30468745 -0.07031,0.30468745 -0.515625,0.30468745 v 0.2460938 c 0.01172,0 0.503906,-0.023437 0.796875,-0.023437 0.257813,0 0.738281,0.011719 0.796875,0.023437 V 1.2467187 c -0.457031,0 -0.527344,0 -0.527344,-0.30468745 V -0.311875 c 0,-0.7382813 0.585938,-1.078125 1.042969,-1.078125 0.492188,0 0.550781,0.3867187 0.550781,0.73828125 v 1.59375 c 0,0.30468745 -0.07031,0.30468745 -0.527343,0.30468745 v 0.2460938 c 0.02344,0 0.503906,-0.023437 0.796875,-0.023437 0.257812,0 0.738281,0.011719 0.808593,0.023437 V 1.2467187 c -0.457031,0 -0.527343,0 -0.527343,-0.30468745 z m 2.61914,-1.4179688 c 0.539063,-0.3984375 0.960938,-0.6914062 1.101563,-0.796875 0.105468,-0.070312 0.164062,-0.1289062 0.164062,-0.2578125 0,-0.1289062 -0.117187,-0.28125 -0.28125,-0.28125 -0.117187,0 -0.164062,0.058594 -0.234375,0.140625 l -0.914062,1.0078125 z m 1.306641,1.66406255 c 0,-0.375 0,-0.64453125 -0.316406,-0.90234375 -0.28125,-0.234375 -0.621094,-0.3398438 -1.03125,-0.3398438 -0.667969,0 -1.125,0.2460938 -1.125,0.6679688 0,0.22265625 0.152343,0.33984375 0.328125,0.33984375 0.1875,0 0.328125,-0.12890625 0.328125,-0.31640625 0,-0.1289063 -0.05859,-0.2695313 -0.246094,-0.328125 0.257812,-0.1757813 0.65625,-0.1757813 0.703125,-0.1757813 0.386719,0 0.808594,0.2578125 0.808594,0.84375005 V -0.35875 c -0.375,0.0117188 -0.84375,0.0351563 -1.347657,0.22265625 -0.632812,0.22265625 -0.820312,0.609375 -0.820312,0.92578125 0,0.5976562 0.726562,0.7734375 1.21875,0.7734375 0.550781,0 0.878906,-0.3164063 1.03125,-0.5859375 0.02344,0.28125 0.210937,0.5507812 0.539062,0.5507812 0.01172,0 0.691407,0 0.691407,-0.6679687 V 0.485 H 37.971883 V 0.86 c 0,0.0703125 0,0.3984375 -0.257813,0.3984375 -0.257812,0 -0.257812,-0.328125 -0.257812,-0.41015625 z M 36.905477,0.5084375 c 0,0.6679687 -0.585938,0.8554687 -0.890625,0.8554687 -0.363282,0 -0.691407,-0.234375 -0.691407,-0.5742187 0,-0.38671875 0.328125,-0.92578125 1.582032,-0.97265625 z m 3.782226,-0.57421875 c -0.01172,-0.01171875 -0.05859,-0.0703125 -0.05859,-0.0703125 0,-0.0234375 0.457032,-0.515625 0.527344,-0.5859375 0.234375,-0.26953125 0.480469,-0.52734375 1.03125,-0.53906255 v -0.2460937 c -0.1875,0.011719 -0.398437,0.023437 -0.585937,0.023437 -0.210938,0 -0.480469,-0.011719 -0.691407,-0.023437 v 0.2460937 c 0.117188,0.023437 0.140625,0.09375 0.140625,0.1640625 0,0.011719 0,0.11718755 -0.105468,0.23437505 L 40.465047,-0.311875 39.879109,-0.97984375 c -0.07031,-0.0703126 -0.07031,-0.10546875 -0.07031,-0.14062505 0,-0.09375 0.09375,-0.140625 0.1875,-0.140625 v -0.2460937 c -0.257813,0.011719 -0.527344,0.023437 -0.785156,0.023437 -0.210938,0 -0.46875,-0.011719 -0.679688,-0.023437 v 0.2460937 c 0.328125,0 0.503906,0 0.691406,0.2109375 l 0.867188,1.00781255 c 0.01172,0 0.05859,0.05859375 0.05859,0.05859375 0,0.0234375 -0.527344,0.59765625 -0.597657,0.6796875 -0.257812,0.26953125 -0.492187,0.5273437 -1.054687,0.5507812 v 0.2460938 c 0.210937,-0.011719 0.363281,-0.023437 0.585937,-0.023437 0.210938,0 0.492188,0 0.691407,0.023437 V 1.2467187 c -0.08203,-0.023437 -0.140625,-0.070312 -0.140625,-0.1640625 0,-0.1289062 0.08203,-0.2226562 0.199218,-0.3398437 L 40.312703,0.20375 40.922078,0.89515625 c 0.128906,0.14062495 0.128906,0.16406245 0.128906,0.19921875 0,0.140625 -0.152343,0.1523437 -0.1875,0.1523437 v 0.2460938 c 0.07031,-0.011719 0.5625,-0.023437 0.785157,-0.023437 0.222656,0 0.445312,0 0.679687,0.023437 V 1.2467187 c -0.46875,0 -0.527344,-0.046875 -0.691406,-0.2226562 z m 0,0"
         style="fill:#000000;fill-opacity:1;fill-rule:nonzero;stroke:none" />
    </g>
    <g
       id="g12"
       aria-label="Q&#10;m´ax"
       transform="matrix(1.3333333,0,0,1.3333333,44.277333,83.766667)">
      <path
         id="path13"
         d="m 4.3593828,-0.059375 c 1.546875,-0.5859375 3.0117188,-2.3671875 3.0117188,-4.2890625 0,-1.59375 -1.0546875,-2.671875 -2.5429688,-2.671875 -2.1445312,0 -4.33593749,2.2617188 -4.33593749,4.5820313 0,1.6523437 1.11328129,2.6601562 2.54296879,2.6601562 0.2578125,0 0.5859375,-0.046875 0.984375,-0.15234375 -0.046875,0.62109375 -0.046875,0.6328125 -0.046875,0.76171875 0,0.328125 0,1.1015625 0.8320312,1.1015625 1.1835938,0 1.6640625,-1.828125 1.6640625,-1.93359375 0,-0.0703125 -0.070312,-0.10546875 -0.1171875,-0.10546875 -0.070312,0 -0.09375,0.05859375 -0.1171875,0.1171875 -0.234375,0.703125 -0.8203125,0.94921875 -1.1601562,0.94921875 -0.4570313,0 -0.609375,-0.2578125 -0.7148438,-1.01953125 z m -1.875,-0.08203125 c -0.7851562,-0.3046875 -1.125,-1.08984375 -1.125,-1.98046875 0,-0.6914062 0.2695313,-2.0976562 1.0195313,-3.1757812 0.7265625,-1.0195313 1.6640625,-1.4765625 2.390625,-1.4765625 0.9960937,0 1.7226562,0.7734375 1.7226562,2.109375 0,0.9960937 -0.5039062,3.328125 -2.1796875,4.26562495 -0.046875,-0.3515625 -0.1523437,-1.07812495 -0.8789062,-1.07812495 -0.5273438,0 -1.0078125,0.5039062 -1.0078125,1.0195312 0,0.19921875 0.058594,0.3046875 0.058594,0.31640625 z m 0.609375,0.10546875 c -0.140625,0 -0.4570312,0 -0.4570312,-0.421875 0,-0.3984375 0.3867187,-0.796875 0.796875,-0.796875 0.421875,0 0.609375,0.234375 0.609375,0.84375 0,0.15234375 -0.011719,0.1640625 -0.1054688,0.19921875 -0.2578125,0.10546875 -0.5625,0.17578125 -0.84375,0.17578125 z m 0,0"
         style="fill:#000000;fill-opacity:1;fill-rule:nonzero;stroke:none" />
      <path
         id="path14"
         d="m 13.605477,-0.61601562 c 0,-0.60937498 -0.292969,-0.96093748 -1.042969,-0.96093748 -0.550781,0 -0.925781,0.2929687 -1.113281,0.64453123 -0.140625,-0.49218753 -0.515625,-0.64453123 -1.03125,-0.64453123 -0.5742192,0 -0.9375004,0.3046875 -1.1367192,0.66796873 V -1.5769531 l -1.03125,0.070312 v 0.2578125 c 0.46875,0 0.5273438,0.046875 0.5273438,0.38671873 v 1.8046875 c 0,0.30468747 -0.070312,0.30468747 -0.5273438,0.30468747 v 0.2460938 c 0.011719,0 0.5039063,-0.023437 0.796875,-0.023437 0.2578125,0 0.7382813,0.011719 0.796875,0.023437 V 1.2472656 c -0.4453125,0 -0.515625,0 -0.515625,-0.30468747 v -1.25390625 c 0,-0.73828128 0.5742188,-1.07812498 1.0312502,-1.07812498 0.492187,0 0.550781,0.3867187 0.550781,0.73828123 v 1.59375 c 0,0.30468747 -0.07031,0.30468747 -0.515625,0.30468747 v 0.2460938 c 0.01172,0 0.503906,-0.023437 0.796875,-0.023437 0.257813,0 0.738281,0.011719 0.796875,0.023437 V 1.2472656 c -0.457031,0 -0.527344,0 -0.527344,-0.30468747 v -1.25390625 c 0,-0.73828128 0.585938,-1.07812498 1.042969,-1.07812498 0.492188,0 0.550781,0.3867187 0.550781,0.73828123 v 1.59375 c 0,0.30468747 -0.07031,0.30468747 -0.527343,0.30468747 v 0.2460938 c 0.02344,0 0.503906,-0.023437 0.796875,-0.023437 0.257812,0 0.738281,0.011719 0.808593,0.023437 V 1.2472656 c -0.457031,0 -0.527343,0 -0.527343,-0.30468747 z m 2.61914,-1.41796878 c 0.539063,-0.3984375 0.960938,-0.6914062 1.101563,-0.796875 0.105468,-0.070312 0.164062,-0.1289062 0.164062,-0.2578125 0,-0.1289062 -0.117187,-0.28125 -0.28125,-0.28125 -0.117187,0 -0.164062,0.058594 -0.234375,0.140625 l -0.914062,1.0078125 z m 1.306641,1.66406253 c 0,-0.375 0,-0.64453123 -0.316406,-0.90234373 -0.28125,-0.234375 -0.621094,-0.3398438 -1.03125,-0.3398438 -0.667969,0 -1.125,0.2460938 -1.125,0.66796878 0,0.22265625 0.152343,0.33984375 0.328125,0.33984375 0.1875,0 0.328125,-0.12890625 0.328125,-0.31640625 0,-0.12890628 -0.05859,-0.26953128 -0.246094,-0.32812498 0.257812,-0.1757813 0.65625,-0.1757813 0.703125,-0.1757813 0.386719,0 0.808594,0.2578125 0.808594,0.84375003 v 0.22265625 c -0.375,0.0117188 -0.84375,0.0351563 -1.347657,0.22265625 -0.632812,0.22265625 -0.820312,0.609375 -0.820312,0.92578125 0,0.59765622 0.726562,0.77343752 1.21875,0.77343752 0.550781,0 0.878906,-0.3164063 1.03125,-0.58593752 0.02344,0.28125002 0.210937,0.55078122 0.539062,0.55078122 0.01172,0 0.691407,0 0.691407,-0.66796872 v -0.375 h -0.246094 v 0.375 c 0,0.0703125 0,0.39843752 -0.257813,0.39843752 -0.257812,0 -0.257812,-0.32812502 -0.257812,-0.41015627 z m -0.550781,0.87890625 c 0,0.66796872 -0.585938,0.85546872 -0.890625,0.85546872 -0.363282,0 -0.691407,-0.234375 -0.691407,-0.57421872 0,-0.38671875 0.328125,-0.92578125 1.582032,-0.97265625 z m 3.782226,-0.57421875 c -0.01172,-0.01171875 -0.05859,-0.0703125 -0.05859,-0.0703125 0,-0.0234375 0.457032,-0.515625 0.527344,-0.5859375 0.234375,-0.26953125 0.480469,-0.52734373 1.03125,-0.53906253 v -0.2460937 c -0.1875,0.011719 -0.398437,0.023437 -0.585937,0.023437 -0.210938,0 -0.480469,-0.011719 -0.691407,-0.023437 v 0.2460937 c 0.117188,0.023437 0.140625,0.09375 0.140625,0.1640625 0,0.011719 0,0.11718753 -0.105468,0.23437503 l -0.480469,0.55078125 -0.585938,-0.66796875 c -0.07031,-0.0703125 -0.07031,-0.10546873 -0.07031,-0.14062503 0,-0.09375 0.09375,-0.140625 0.1875,-0.140625 v -0.2460937 c -0.257813,0.011719 -0.527344,0.023437 -0.785156,0.023437 -0.210938,0 -0.46875,-0.011719 -0.679688,-0.023437 v 0.2460937 c 0.328125,0 0.503906,0 0.691406,0.2109375 l 0.867188,1.00781253 c 0.01172,0 0.05859,0.05859375 0.05859,0.05859375 0,0.0234375 -0.527344,0.59765625 -0.597657,0.6796875 -0.257812,0.26953125 -0.492187,0.52734372 -1.054687,0.55078122 v 0.2460938 c 0.210937,-0.011719 0.363281,-0.023437 0.585937,-0.023437 0.210938,0 0.492188,0 0.691407,0.023437 V 1.2472656 c -0.08203,-0.023437 -0.140625,-0.070312 -0.140625,-0.1640625 0,-0.12890622 0.08203,-0.22265622 0.199218,-0.33984372 l 0.480469,-0.5390625 0.609375,0.69140625 c 0.128906,0.14062497 0.128906,0.16406247 0.128906,0.19921877 0,0.140625 -0.152343,0.1523437 -0.1875,0.1523437 v 0.2460938 c 0.07031,-0.011719 0.5625,-0.023437 0.785157,-0.023437 0.222656,0 0.445312,0 0.679687,0.023437 V 1.2472656 c -0.46875,0 -0.527344,-0.046875 -0.691406,-0.2226562 z m 0,0"
         style="fill:#000000;fill-opacity:1;fill-rule:nonzero;stroke:none" />
    </g>
    <path
       id="path15"
       d="m 0,0 1.79875,7.24666 1.79875,6.87546 1.79879,6.49618 1.79875,6.16129 1.79878,5.82502 1.79875,5.50359 1.79878,5.20505 1.79875,4.92525 1.79879,4.66703 1.79875,4.41149 1.79878,4.17205 1.79875,3.94077 1.79877,3.72688 1.79877,3.53861 1.79875,3.33552 1.79878,3.16066 1.79876,2.98717 1.79878,2.82578 1.79875,2.67645 1.79878,2.52991 1.79875,2.39537 1.79879,2.27298 1.79875,2.1385 1.79878,2.01746 1.79875,1.92331 1.79877,1.81567 1.79877,1.7108 1.79876,1.62741 1.79877,1.53191 1.79875,1.45391 1.79878,1.37322 1.79876,1.28982 1.79878,1.23737 1.79875,1.15802 1.79878,1.10422 1.79875,1.03425 1.79879,0.98319 1.79875,0.92801 1.79877,0.88768 1.79876,0.83388 1.79877,0.78007 1.79877,0.74567 1.79876,0.70486 1.79877,0.66678 1.79877,0.6306 1.79877,0.59663 1.79875,0.56444 1.79878,0.53394 1.79875,0.50505 1.79879,0.47761 1.79875,0.45197 1.79876,0.42755 1.79877,0.4044 1.79877,0.38248 1.79876,0.36191 1.79877,0.34231 1.79877,0.32392 1.79876,0.30629 1.79877,0.2897 1.79875,0.27419 1.79879,0.25929 1.79875,0.24528 1.79878,0.23203 1.79875,0.21945 1.79877,0.20764 1.79877,0.19641 1.79876,0.18587 1.79877,0.17574 1.79877,0.16621 1.79876,0.15731 1.79877,0.14878 1.79877,0.14075 1.79876,0.13307 1.79877,0.12595 1.79875,0.11914 1.79878,0.1127 1.79876,0.10661 1.79877,0.10082 1.79877,0.0954 1.79876,0.0903 1.79877,0.0854 1.79877,0.0807 1.79876,0.0763 1.79877,0.0723 1.79877,0.0683 1.79876,0.0647 1.79877,0.0611 1.79877,0.0579 1.79876,0.0547 1.79876,0.0518 1.79876,0.049 1.79877,0.0463 1.79877,0.0438 1.79876,0.0414 1.79877,0.0392 1.79877,0.0371 1.79877,0.0351 1.79876,0.0332 1.79877,0.0314"
       style="fill:none;stroke:#800080;stroke-width:1.59404;stroke-linecap:butt;stroke-linejoin:miter;stroke-miterlimit:10;stroke-dasharray:none;stroke-opacity:1"
       transform="matrix(1.3333333,0,0,-1.3333333,82.573333,261.63867)"
       clip-path="url(#clipPath16)" />
    <path
       id="path17"
       d="M 0,84.73276 H 32.3787 V 0"
       style="fill:none;stroke:#000000;stroke-width:0.3985;stroke-linecap:butt;stroke-linejoin:miter;stroke-miterlimit:10;stroke-dasharray:2.98883, 2.98883;stroke-dashoffset:0;stroke-opacity:1"
       transform="matrix(1.3333333,0,0,-1.3333333,82.573333,261.63867)"
       clip-path="url(#clipPath16)" />
    <path
       id="path18"
       d="M 0,135.84142 H 187.79642"
       style="fill:none;stroke:#000000;stroke-width:0.3985;stroke-linecap:butt;stroke-linejoin:miter;stroke-miterlimit:10;stroke-dasharray:2.98883, 2.98883;stroke-dashoffset:0;stroke-opacity:1"
       transform="matrix(1.3333333,0,0,-1.3333333,82.573333,261.63867)"
       clip-path="url(#clipPath16)" />
    <path
       id="path19"
       d="m 34.37125,84.73276 c 0,1.10048 -0.89209,1.99255 -1.99255,1.99255 -1.10049,0 -1.99256,-0.89207 -1.99256,-1.99255 0,-1.10046 0.89207,-1.99256 1.99256,-1.99256 1.10046,0 1.99255,0.8921 1.99255,1.99256 z"
       style="fill:#800080;fill-opacity:1;fill-rule:nonzero;stroke:#800080;stroke-width:0.3985;stroke-linecap:butt;stroke-linejoin:miter;stroke-miterlimit:10;stroke-dasharray:none;stroke-opacity:1"
       transform="matrix(1.3333333,0,0,-1.3333333,82.573333,261.63867)" />
    <path
       id="path20"
       d="m 2.0513516,-3.9853828 h 0.9375 c 0.1992187,0 0.3046875,0 0.3046875,-0.1992188 0,-0.1054687 -0.1054688,-0.1054687 -0.28125,-0.1054687 H 2.1333828 c 0.3632813,-1.4179688 0.4101563,-1.6171875 0.4101563,-1.6757813 0,-0.1757812 -0.1171875,-0.2695312 -0.2929688,-0.2695312 -0.023437,0 -0.3046875,0.011719 -0.3984375,0.3515625 l -0.3867187,1.59375 H 0.52791406 c -0.19921875,0 -0.29296875,0 -0.29296875,0.1875 0,0.1171875 0.0703125,0.1171875 0.26953125,0.1171875 H 1.3833828 c -0.71484374,2.8242187 -0.74999999,2.99999999 -0.74999999,3.17578124 0,0.5390625 0.37499999,0.9140625 0.91406249,0.9140625 1.0078125,0 1.5820313,-1.45312504 1.5820313,-1.53515624 0,-0.09375 -0.082031,-0.09375 -0.1171875,-0.09375 -0.09375,0 -0.1054688,0.023437 -0.1523438,0.140625 -0.4335937,1.03124999 -0.9609375,1.27734374 -1.3007812,1.27734374 -0.1992188,0 -0.3046875,-0.12890625 -0.3046875,-0.45703125 0,-0.24609375 0.023437,-0.31640625 0.058594,-0.48046879 z m 0,0"
       style="fill:#000000;fill-opacity:1;fill-rule:nonzero;stroke:none"
       aria-label="t"
       transform="matrix(1.3333333,0,0,1.3333333,359.24533,265.724)" />
    <g
       id="g20"
       aria-label="q(t)"
       transform="matrix(1.3333333,0,0,1.3333333,71.805333,27.673333)">
      <path
         id="path21"
         d="m 4.4995156,-4.2901563 c 0,-0.046875 -0.023437,-0.1054687 -0.09375,-0.1054687 -0.1171875,0 -0.515625,0.3984375 -0.6796875,0.6914062 -0.2226562,-0.5390625 -0.609375,-0.703125 -0.9257812,-0.703125 -1.171875,0 -2.40234377,1.4765625 -2.40234377,2.9179688 0,0.984375 0.5859375,1.59375 1.31249997,1.59375 0.4335938,0 0.8203125,-0.234375 1.1835938,-0.59765625 -0.09375,0.3515625 -0.421875,1.69921875 -0.4570313,1.79296875 -0.082031,0.2695312 -0.1523437,0.3164062 -0.7148437,0.328125 -0.1289063,0 -0.2226563,0 -0.2226563,0.1992187 0,0 0,0.1054688 0.1289063,0.1054688 0.3164062,0 0.6679687,-0.035156 0.9960937,-0.035156 0.328125,0 0.6914063,0.035156 1.0195313,0.035156 0.046875,0 0.1757812,0 0.1757812,-0.1992188 0,-0.1054687 -0.09375,-0.1054687 -0.2578125,-0.1054687 -0.46875,0 -0.46875,-0.070312 -0.46875,-0.1640625 0,-0.070312 0.011719,-0.1289063 0.035156,-0.2226563 z m -2.7539062,4.1835938 c -0.5976563,0 -0.6445313,-0.7734375 -0.6445313,-0.9375 0,-0.4804688 0.2929688,-1.5703125 0.4570313,-1.9804688 0.3164062,-0.7382812 0.8320312,-1.1601562 1.2421875,-1.1601562 0.6445312,0 0.7851562,0.8085937 0.7851562,0.8789062 0,0.058594 -0.5507812,2.2382813 -0.5742187,2.2734375 -0.1523438,0.28125005 -0.7148438,0.9257813 -1.265625,0.9257813 z m 0,0"
         style="fill:#000000;fill-opacity:1;fill-rule:nonzero;stroke:none" />
      <path
         id="path22"
         d="m 8.0971719,2.3895312 c 0,-0.035156 0,-0.046875 -0.1640625,-0.2226562 -1.2421875,-1.25390625 -1.5703125,-3.12890625 -1.5703125,-4.6640625 0,-1.7226563 0.3867187,-3.4570313 1.6054687,-4.7109375 0.1289063,-0.1171875 0.1289063,-0.1289063 0.1289063,-0.1640625 0,-0.070312 -0.035156,-0.1054688 -0.09375,-0.1054688 -0.1054688,0 -0.9960938,0.6796875 -1.5820313,1.9453125 -0.515625,1.1015625 -0.6328125,2.203125 -0.6328125,3.0351563 0,0.7851562 0.1171875,1.9921875 0.65625,3.1171875 0.5976563,1.21875 1.453125,1.875 1.5585938,1.875 0.058594,0 0.09375,-0.035156 0.09375,-0.1054688 z m 0,0"
         style="fill:#000000;fill-opacity:1;fill-rule:nonzero;stroke:none" />
      <path
         id="path23"
         d="m 10.730961,-3.9854688 h 0.9375 c 0.199219,0 0.304687,0 0.304687,-0.1992187 0,-0.1054688 -0.105468,-0.1054688 -0.28125,-0.1054688 h -0.878906 c 0.363281,-1.4179687 0.410156,-1.6171875 0.410156,-1.6757812 0,-0.1757813 -0.117187,-0.2695313 -0.292968,-0.2695313 -0.02344,0 -0.304688,0.011719 -0.398438,0.3515625 l -0.386719,1.59375 H 9.2075234 c -0.1992187,0 -0.2929687,0 -0.2929687,0.1875 0,0.1171875 0.070312,0.1171875 0.2695312,0.1171875 h 0.8789061 c -0.7148436,2.8242188 -0.7499998,3.00000005 -0.7499998,3.1757813 0,0.5390625 0.375,0.9140625 0.9140628,0.9140625 1.007812,0 1.582031,-1.453125 1.582031,-1.5351563 0,-0.09375 -0.08203,-0.09375 -0.117188,-0.09375 -0.09375,0 -0.105468,0.023437 -0.152343,0.140625 -0.433594,1.03125005 -0.960938,1.2773438 -1.300782,1.2773438 -0.199218,0 -0.3046871,-0.12890625 -0.3046871,-0.45703125 0,-0.24609375 0.023437,-0.31640625 0.058594,-0.48046875 z m 0,0"
         style="fill:#000000;fill-opacity:1;fill-rule:nonzero;stroke:none" />
      <path
         id="path24"
         d="m 15.160648,-2.4971875 c 0,-0.7734375 -0.117187,-1.9804688 -0.65625,-3.1054688 -0.597656,-1.21875 -1.464843,-1.875 -1.558593,-1.875 -0.05859,0 -0.105469,0.046875 -0.105469,0.1054688 0,0.035156 0,0.046875 0.199219,0.234375 0.972656,0.984375 1.535156,2.5664062 1.535156,4.640625 0,1.7109375 -0.363281,3.45703125 -1.59375,4.7226562 -0.140625,0.1171875 -0.140625,0.1289063 -0.140625,0.1640625 0,0.058594 0.04687,0.1054688 0.105469,0.1054688 0.09375,0 0.996093,-0.6796875 1.582031,-1.9453125 0.503906,-1.1015625 0.632812,-2.203125 0.632812,-3.046875 z m 0,0"
         style="fill:#000000;fill-opacity:1;fill-rule:nonzero;stroke:none" />
    </g>
    <path
       id="path25"
       d="M 32.3787,-2.12627 V 2.12627"
       style="fill:none;stroke:#808080;stroke-width:0.19925;stroke-linecap:butt;stroke-linejoin:miter;stroke-miterlimit:10;stroke-dasharray:none;stroke-opacity:1"
       transform="matrix(1.3333333,0,0,-1.3333333,460.52667,261.63867)" />
    <path
       id="path26"
       d="m -2.12587,49.76369 h 4.25174 m -4.25174,84.73277 h 4.25174"
       style="fill:none;stroke:#808080;stroke-width:0.19925;stroke-linecap:butt;stroke-linejoin:miter;stroke-miterlimit:10;stroke-dasharray:none;stroke-opacity:1"
       transform="matrix(1.3333333,0,0,-1.3333333,460.52667,261.63867)" />
    <path
       id="path27"
       d="M 0,0 H 192.27963"
       style="fill:none;stroke:#000000;stroke-width:0.3985;stroke-linecap:butt;stroke-linejoin:miter;stroke-miterlimit:10;stroke-dasharray:none;stroke-opacity:1"
       transform="matrix(1.3333333,0,0,-1.3333333,460.52667,261.63867)" />
    <path
       id="path28"
       d="M 1.99252,0 -1.19551,1.59401 0,0 -1.19551,-1.59401"
       style="fill:#000000;fill-opacity:1;fill-rule:nonzero;stroke:none"
       transform="matrix(1.3333333,0,0,-1.3333333,716.89951,261.63867)" />
    <path
       id="path29"
       d="M 0,0 V 159.40323"
       style="fill:none;stroke:#000000;stroke-width:0.3985;stroke-linecap:butt;stroke-linejoin:miter;stroke-miterlimit:10;stroke-dasharray:none;stroke-opacity:1"
       transform="matrix(1.3333333,0,0,-1.3333333,460.52667,261.63867)" />
    <path
       id="path30"
       d="M 1.99252,0 -1.19551,1.59401 0,0 -1.19551,-1.59401"
       style="fill:#000000;fill-opacity:1;fill-rule:nonzero;stroke:none"
       transform="matrix(0,-1.3333333,-1.3333333,0,460.52667,49.101027)" />
    <g
       id="g30"
       aria-label="t=τ"
       transform="matrix(1.3333333,0,0,1.3333333,488.788,277.33733)">
      <path
         id="path31"
         d="m 2.0515781,-3.9854219 h 0.9375 c 0.1992188,0 0.3046875,0 0.3046875,-0.1992187 0,-0.1054688 -0.1054687,-0.1054688 -0.28125,-0.1054688 H 2.1336094 c 0.3632812,-1.4179687 0.4101562,-1.6171875 0.4101562,-1.6757812 0,-0.1757813 -0.1171875,-0.2695313 -0.2929687,-0.2695313 -0.023437,0 -0.3046875,0.011719 -0.3984375,0.3515625 l -0.3867188,1.59375 H 0.52814063 c -0.19921875,0 -0.29296875,0 -0.29296875,0.1875 0,0.1171875 0.0703125,0.1171875 0.26953125,0.1171875 H 1.3836094 c -0.71484377,2.8242188 -0.75000002,3.00000003 -0.75000002,3.17578128 0,0.5390625 0.37500002,0.9140625 0.91406252,0.9140625 1.0078125,0 1.5820312,-1.45312498 1.5820312,-1.53515628 0,-0.09375 -0.082031,-0.09375 -0.1171875,-0.09375 -0.09375,0 -0.1054687,0.023437 -0.1523437,0.140625 -0.4335938,1.03125003 -0.9609375,1.27734378 -1.3007813,1.27734378 -0.1992187,0 -0.3046875,-0.12890625 -0.3046875,-0.45703125 0,-0.24609375 0.023437,-0.31640625 0.058594,-0.48046873 z m 0,0"
         style="fill:#000000;fill-opacity:1;fill-rule:nonzero;stroke:none" />
      <path
         id="path32"
         d="m 13.207828,-3.2588594 c 0.152344,0 0.339844,0 0.339844,-0.1992187 0,-0.1992188 -0.1875,-0.1992188 -0.328125,-0.1992188 H 7.2547031 c -0.140625,0 -0.328125,0 -0.328125,0.1992188 0,0.1992187 0.1875,0.1992187 0.3398438,0.1992187 z m 0.01172,1.9335938 c 0.140625,0 0.328125,0 0.328125,-0.1992188 0,-0.1992187 -0.1875,-0.1992187 -0.339844,-0.1992187 H 7.2664219 c -0.1523438,0 -0.3398438,0 -0.3398438,0.1992187 0,0.1992188 0.1875,0.1992188 0.328125,0.1992188 z m 0,0"
         style="fill:#000000;fill-opacity:1;fill-rule:nonzero;stroke:none" />
      <path
         id="path33"
         d="m 19.811344,-3.7158906 h 1.675781 c 0.128906,0 0.480469,0 0.480469,-0.3398438 0,-0.234375 -0.199219,-0.234375 -0.398438,-0.234375 h -2.789062 c -0.199219,0 -0.585938,0 -1.019531,0.46875 -0.328125,0.3515625 -0.609375,0.8320313 -0.609375,0.890625 0,0.011719 0,0.1054688 0.117187,0.1054688 0.08203,0 0.105469,-0.046875 0.164063,-0.1289063 0.480468,-0.7617187 1.054687,-0.7617187 1.265625,-0.7617187 h 0.820312 l -0.972656,3.19921873 c -0.03516,0.1171875 -0.105469,0.328125 -0.105469,0.36328125 0,0.1171875 0.07031,0.26953125 0.292969,0.26953125 0.328125,0 0.375,-0.28125 0.410156,-0.421875 z m 0,0"
         style="fill:#000000;fill-opacity:1;fill-rule:nonzero;stroke:none" />
    </g>
    <g
       id="g33"
       aria-label="37%I&#10;0"
       transform="matrix(1.3333333,0,0,1.3333333,414.63333,199.27333)">
      <path
         id="path34"
         d="m 2.8941406,-3.5038281 c 0.8085938,-0.2695313 1.3945313,-0.9726563 1.3945313,-1.7578125 0,-0.8203125 -0.8789063,-1.3710938 -1.8398438,-1.3710938 -1.0078125,0 -1.75781247,0.5976563 -1.75781247,1.3476563 0,0.3398437 0.2109375,0.5273437 0.50390627,0.5273437 0.3046875,0 0.5039062,-0.2226562 0.5039062,-0.515625 0,-0.4921875 -0.46875,-0.4921875 -0.609375,-0.4921875 0.3046875,-0.4921875 0.9609375,-0.6210937 1.3242188,-0.6210937 0.4101562,0 0.9492187,0.2226562 0.9492187,1.1132812 0,0.1289063 -0.011719,0.703125 -0.2695312,1.1367188 -0.3046875,0.4804687 -0.6445313,0.515625 -0.890625,0.515625 -0.082031,0.011719 -0.3164063,0.035156 -0.3867188,0.035156 -0.082031,0.011719 -0.1523437,0.023437 -0.1523437,0.1171875 0,0.1171875 0.070312,0.1171875 0.234375,0.1171875 h 0.4453125 c 0.8085937,0 1.1835937,0.6679688 1.1835937,1.6523438 0,1.34765622 -0.6914062,1.64062497 -1.125,1.64062497 -0.4335937,0 -1.171875,-0.17578125 -1.52343747,-0.76171875 0.35156247,0.0585938 0.65624997,-0.1640625 0.65624997,-0.53906252 0,-0.3632812 -0.2695312,-0.5625 -0.56249997,-0.5625 -0.234375,0 -0.55078125,0.140625 -0.55078125,0.5742188 0,0.91406247 0.92578122,1.57031247 2.00390622,1.57031247 1.21875,0 2.1210938,-0.9140625 2.1210938,-1.92187497 0,-0.8203125 -0.6210938,-1.59375 -1.6523438,-1.8046873 z m 6.8320313,-2.5664063 c 0.082031,-0.1171875 0.082031,-0.140625 0.082031,-0.3398437 H 7.3941406 c -1.21875,0 -1.2421875,-0.1289063 -1.2773437,-0.328125 H 5.8707031 l -0.328125,2.0507812 h 0.2460938 c 0.023437,-0.1523437 0.1171875,-0.7851562 0.2460937,-0.9023437 0.070312,-0.058594 0.84375,-0.058594 0.9726563,-0.058594 h 2.0625 c -0.1054688,0.1640625 -0.890625,1.2421875 -1.1132813,1.5703125 -0.890625,1.3476563 -1.21875,2.7304688 -1.21875,3.75000002 0,0.09375 0,0.55078125 0.4570313,0.55078125 0.4570312,0 0.4570312,-0.45703125 0.4570312,-0.55078125 v -0.50390625 c 0,-0.55078127 0.023437,-1.10156247 0.1054688,-1.64062497 0.046875,-0.2226563 0.1757812,-1.078125 0.6210937,-1.6992188 z m 7.0576171,-1.0195312 c 0.05859,-0.09375 0.08203,-0.1171875 0.08203,-0.1875 0,-0.1054688 -0.09375,-0.1992188 -0.199218,-0.1992188 -0.09375,0 -0.152344,0.070312 -0.210938,0.140625 -0.492187,0.6796875 -1.160156,0.9492188 -1.886719,0.9492188 -0.703125,0 -1.3125,-0.2460938 -1.863281,-0.7617188 -0.1875,-0.1757812 -0.398437,-0.328125 -0.714844,-0.328125 -0.761718,0 -1.464843,0.84375 -1.464843,2.0039063 0,1.2070312 0.714843,2.015625 1.464843,2.015625 0.726563,0 1.289063,-0.890625 1.289063,-2.0039063 0,-0.140625 0,-0.609375 -0.210938,-1.125 0.644532,0.375 1.148438,0.421875 1.511719,0.421875 0.75,0 1.265625,-0.3164062 1.324219,-0.3515625 v 0.011719 l -4.464844,6.66796872 c -0.09375,0.12890625 -0.09375,0.17578125 -0.09375,0.19921875 0,0.10546875 0.105469,0.19921875 0.199219,0.19921875 0.105469,0 0.117187,-0.046875 0.199219,-0.15234375 z m -4.792969,3.4101562 c -0.199218,0 -0.855468,-0.1289062 -0.855468,-1.78125 0,-1.6640625 0.65625,-1.7929687 0.855468,-1.7929687 0.527344,0 1.042969,0.7382812 1.042969,1.78125 0,1.078125 -0.515625,1.7929687 -1.042969,1.7929687 z m 4.417969,4.01953127 c -0.199219,0 -0.855469,-0.12890625 -0.855469,-1.78124997 0,-1.6640625 0.644532,-1.7929688 0.855469,-1.7929688 0.527344,0 1.03125,0.7382813 1.03125,1.78125 0,1.07812502 -0.515625,1.79296877 -1.03125,1.79296877 z m 1.289063,-1.78124997 c 0,-1.1484375 -0.597657,-2.015625 -1.300782,-2.015625 -0.75,0 -1.464843,0.8320312 -1.464843,2.0039062 0,1.20703127 0.714843,2.01562502 1.464843,2.01562502 0.726563,0 1.300782,-0.890625 1.300782,-2.00390622 z m 0,0"
         style="fill:#000000;fill-opacity:1;fill-rule:nonzero;stroke:none" />
      <path
         id="path35"
         d="m 23.650977,-6.0350781 c 0.09375,-0.3632813 0.117187,-0.4570313 0.902343,-0.4570313 0.246094,0 0.316407,0 0.316407,-0.1875 0,-0.1289062 -0.105469,-0.1289062 -0.140625,-0.1289062 -0.292969,0 -1.03125,0.035156 -1.3125,0.035156 -0.304688,0 -1.03125,-0.035156 -1.335938,-0.035156 -0.05859,0 -0.199219,0 -0.199219,0.1992187 0,0.1171875 0.09375,0.1171875 0.28125,0.1171875 0.421875,0 0.691407,0 0.691407,0.1875 0,0.046875 0,0.070312 -0.02344,0.1640625 l -1.347656,5.36718752 c -0.08203,0.36328125 -0.117188,0.46875 -0.902344,0.46875 -0.222656,0 -0.316406,0 -0.316406,0.19921875 0,0.105468755 0.117187,0.105468755 0.152344,0.105468755 0.28125,0 1.007812,-0.035156255 1.300781,-0.035156255 0.304687,0 1.03125,0.035156255 1.335937,0.035156255 0.08203,0 0.199219,0 0.199219,-0.187500005 0,-0.1171875 -0.08203,-0.1171875 -0.304687,-0.1171875 -0.175782,0 -0.222657,0 -0.421875,-0.0234375 -0.210938,-0.0234375 -0.246094,-0.0585938 -0.246094,-0.17578125 0,-0.0703125 0.01172,-0.15234375 0.03516,-0.22265625 z m 0,0"
         style="fill:#000000;fill-opacity:1;fill-rule:nonzero;stroke:none" />
      <path
         id="path36"
         d="m 27.901953,-0.73234375 c 0,-0.76171875 -0.09375,-1.31250005 -0.410156,-1.80468755 -0.222656,-0.3164062 -0.644531,-0.5976562 -1.207031,-0.5976562 -1.617188,0 -1.617188,1.8984375 -1.617188,2.40234375 0,0.50390625 0,2.36718745 1.617188,2.36718745 1.617187,0 1.617187,-1.8632812 1.617187,-2.36718745 z M 26.284766,1.435625 c -0.316407,0 -0.75,-0.1875 -0.890625,-0.76171875 -0.09375,-0.41015625 -0.09375,-0.984375 -0.09375,-1.5 0,-0.50390625 0,-1.03125005 0.105468,-1.41796875 0.152344,-0.5507813 0.597657,-0.6914063 0.878907,-0.6914063 0.375,0 0.738281,0.2226563 0.867187,0.6328125 0.105469,0.375 0.117188,0.8789063 0.117188,1.47656255 0,0.515625 0,1.04296875 -0.09375,1.4765625 C 27.034766,1.2832812 26.566016,1.435625 26.284766,1.435625 Z m 0,0"
         style="fill:#000000;fill-opacity:1;fill-rule:nonzero;stroke:none" />
    </g>
    <g
       id="g36"
       aria-label="I&#10;0"
       transform="matrix(1.3333333,0,0,1.3333333,441.2,85.854667)">
      <path
         id="path37"
         d="m 3.7259766,-6.0345547 c 0.09375,-0.3632812 0.1171875,-0.4570312 0.9023437,-0.4570312 0.2460938,0 0.3164063,0 0.3164063,-0.1875 0,-0.1289063 -0.1054688,-0.1289063 -0.140625,-0.1289063 -0.2929688,0 -1.03125,0.035156 -1.3125,0.035156 -0.3046875,0 -1.03125,-0.035156 -1.3359375,-0.035156 -0.058594,0 -0.1992188,0 -0.1992188,0.1992188 0,0.1171875 0.09375,0.1171875 0.28125,0.1171875 0.421875,0 0.6914063,0 0.6914063,0.1875 0,0.046875 0,0.070312 -0.023437,0.1640625 l -1.3476563,5.36718746 c -0.082031,0.36328125 -0.1171875,0.46875 -0.90234374,0.46875 -0.22265625,0 -0.31640625,0 -0.31640625,0.19921875 0,0.1054687525 0.1171875,0.1054687525 0.15234375,0.1054687525 0.28125,0 1.00781254,-0.0351562525 1.30078124,-0.0351562525 0.3046875,0 1.03125,0.0351562525 1.3359375,0.0351562525 0.082031,0 0.1992188,0 0.1992188,-0.1875000025 0,-0.1171875 -0.082031,-0.1171875 -0.3046875,-0.1171875 -0.1757813,0 -0.2226563,0 -0.421875,-0.0234375 -0.2109375,-0.0234375 -0.2460938,-0.0585938 -0.2460938,-0.17578125 0,-0.0703125 0.011719,-0.15234375 0.035156,-0.22265625 z m 0,0"
         style="fill:#000000;fill-opacity:1;fill-rule:nonzero;stroke:none" />
      <path
         id="path38"
         d="m 7.9769531,-0.73182031 c 0,-0.76171879 -0.09375,-1.31249999 -0.4101562,-1.80468749 -0.2226563,-0.3164063 -0.6445313,-0.5976563 -1.2070313,-0.5976563 -1.6171875,0 -1.6171875,1.8984375 -1.6171875,2.40234379 0,0.50390625 0,2.36718751 1.6171875,2.36718751 1.6171875,0 1.6171875,-1.86328126 1.6171875,-2.36718751 z M 6.3597656,1.4361484 c -0.3164062,0 -0.75,-0.1875 -0.890625,-0.76171871 -0.09375,-0.41015625 -0.09375,-0.984375 -0.09375,-1.5 0,-0.50390629 0,-1.03124999 0.1054688,-1.41796879 0.1523437,-0.5507812 0.5976562,-0.6914062 0.8789062,-0.6914062 0.375,0 0.7382813,0.2226562 0.8671875,0.6328125 0.1054688,0.375 0.1171875,0.8789062 0.1171875,1.47656249 0,0.515625 0,1.04296875 -0.09375,1.4765625 C 7.1097656,1.2838047 6.6410156,1.4361484 6.3597656,1.4361484 Z m 0,0"
         style="fill:#000000;fill-opacity:1;fill-rule:nonzero;stroke:none" />
    </g>
    <path
       id="path39"
       d="m 0,134.49646 1.79875,-7.24667 1.79875,-6.87548 1.79879,-6.49618 1.79875,-6.16127 1.79878,-5.82504 1.79875,-5.50359 1.79878,-5.20502 1.79875,-4.92526 1.79879,-4.66702 1.79875,-4.4115 1.79878,-4.17208 1.79875,-3.94075 1.79877,-3.7269 1.79877,-3.53858 1.79875,-3.33552 1.79878,-3.16067 1.79876,-2.98717 1.79878,-2.82577 1.79875,-2.67647 1.79878,-2.52989 1.79875,-2.39539 1.79879,-2.27298 1.79875,-2.13848 1.79878,-2.01746 1.79875,-1.92328 1.79877,-1.81572 1.79877,-1.7108 1.79876,-1.6274 1.79877,-1.53192 1.79875,-1.4539 1.79878,-1.37321 1.79876,-1.28981 1.79878,-1.2374 1.79875,-1.15799 1.79878,-1.10422 1.79875,-1.03427 1.79879,-0.98317 1.79875,-0.92804 1.79877,-0.88768 1.79876,-0.83388 1.79877,-0.78006 1.79877,-0.74566 1.79876,-0.70488 1.79877,-0.66678 1.79877,-0.63059 1.79877,-0.59663 1.79875,-0.56443 1.79878,-0.53391 1.79875,-0.5051 1.79879,-0.47761 1.79875,-0.45195 1.79876,-0.42756 1.79877,-0.40441 1.79877,-0.38248 1.79876,-0.36191 1.79877,-0.34231 1.79877,-0.32389 1.79876,-0.30632 1.79877,-0.28967 1.79875,-0.27418 1.79879,-0.2593 1.79875,-0.24531 1.79878,-0.232 1.79875,-0.21947 1.79877,-0.20764 1.79877,-0.19642 1.79876,-0.18587 1.79877,-0.17571 1.79877,-0.16621 1.79876,-0.15733 1.79877,-0.14876 1.79877,-0.14075 1.79876,-0.13309 1.79877,-0.12594 1.79875,-0.11914 1.79878,-0.11272 1.79876,-0.10661 1.79877,-0.1008 1.79877,-0.0954 1.79876,-0.09024 1.79877,-0.08537 1.79877,-0.08077 1.79876,-0.07632 1.79877,-0.07225 1.79877,-0.06838 1.79876,-0.06466 1.79877,-0.06116 1.79877,-0.05788 1.79876,-0.05472 1.79876,-0.05177 1.79876,-0.04896 1.79877,-0.04633 1.79877,-0.04384 1.79876,-0.04146 1.79877,-0.03922 1.79877,-0.0371 1.79877,-0.0351 1.79876,-0.0332 1.79877,-0.0314"
       style="fill:none;stroke:#800080;stroke-width:1.59404;stroke-linecap:butt;stroke-linejoin:miter;stroke-miterlimit:10;stroke-dasharray:none;stroke-opacity:1"
       transform="matrix(1.3333333,0,0,-1.3333333,460.52667,261.63867)" />
    <path
       id="path40"
       d="M 0,49.76369 H 32.3787 V 0"
       style="fill:none;stroke:#000000;stroke-width:0.3985;stroke-linecap:butt;stroke-linejoin:miter;stroke-miterlimit:10;stroke-dasharray:2.98883, 2.98883;stroke-dashoffset:0;stroke-opacity:1"
       transform="matrix(1.3333333,0,0,-1.3333333,460.52667,261.63867)"
       clip-path="url(#clipPath41)" />
    <path
       id="path42"
       d="m 34.37125,49.76369 c 0,1.10046 -0.89209,1.99255 -1.99255,1.99255 -1.10049,0 -1.99256,-0.89209 -1.99256,-1.99255 0,-1.10048 0.89207,-1.99256 1.99256,-1.99256 1.10046,0 1.99255,0.89208 1.99255,1.99256 z"
       style="fill:#800080;fill-opacity:1;fill-rule:nonzero;stroke:#800080;stroke-width:0.3985;stroke-linecap:butt;stroke-linejoin:miter;stroke-miterlimit:10;stroke-dasharray:none;stroke-opacity:1"
       transform="matrix(1.3333333,0,0,-1.3333333,460.52667,261.63867)" />
    <path
       id="path43"
       d="m 2.0521953,-3.9853828 h 0.9375 c 0.1992188,0 0.3046875,0 0.3046875,-0.1992188 0,-0.1054687 -0.1054687,-0.1054687 -0.28125,-0.1054687 H 2.1342266 c 0.3632812,-1.4179688 0.4101562,-1.6171875 0.4101562,-1.6757813 0,-0.1757812 -0.1171875,-0.2695312 -0.2929687,-0.2695312 -0.023437,0 -0.3046875,0.011719 -0.3984375,0.3515625 l -0.3867188,1.59375 H 0.52875781 c -0.19921875,0 -0.29296875,0 -0.29296875,0.1875 0,0.1171875 0.0703125,0.1171875 0.26953125,0.1171875 H 1.3842266 c -0.71484379,2.8242187 -0.75000004,2.99999999 -0.75000004,3.17578124 0,0.5390625 0.37500004,0.9140625 0.91406254,0.9140625 1.0078125,0 1.5820312,-1.45312504 1.5820312,-1.53515624 0,-0.09375 -0.082031,-0.09375 -0.1171875,-0.09375 -0.09375,0 -0.1054687,0.023437 -0.1523437,0.140625 -0.4335938,1.03124999 -0.9609375,1.27734374 -1.3007813,1.27734374 -0.1992187,0 -0.3046875,-0.12890625 -0.3046875,-0.45703125 0,-0.24609375 0.023437,-0.31640625 0.058594,-0.48046879 z m 0,0"
       style="fill:#000000;fill-opacity:1;fill-rule:nonzero;stroke:none"
       aria-label="t"
       transform="matrix(1.3333333,0,0,1.3333333,737.19733,265.724)" />
    <g
       id="g43"
       aria-label="I(t)"
       transform="matrix(1.3333333,0,0,1.3333333,449.52133,27.673333)">
      <path
         id="path44"
         d="m 3.7252109,-6.03625 c 0.09375,-0.3632813 0.1171875,-0.4570313 0.9023438,-0.4570313 0.2460937,0 0.3164062,0 0.3164062,-0.1875 0,-0.1289062 -0.1054687,-0.1289062 -0.140625,-0.1289062 -0.2929687,0 -1.03125,0.035156 -1.3125,0.035156 -0.3046875,0 -1.03125,-0.035156 -1.3359375,-0.035156 -0.058594,0 -0.1992187,0 -0.1992187,0.1992187 0,0.1171875 0.09375,0.1171875 0.28125,0.1171875 0.421875,0 0.6914062,0 0.6914062,0.1875 0,0.046875 0,0.070312 -0.023437,0.1640625 l -1.3476562,5.36718755 c -0.082031,0.36328125 -0.1171875,0.46875 -0.90234376,0.46875 -0.22265625,0 -0.31640625,0 -0.31640625,0.19921875 0,0.10546875 0.1171875,0.10546875 0.15234375,0.10546875 0.28125,0 1.00781246,-0.03515625 1.30078126,-0.03515625 0.3046875,0 1.03125,0.03515625 1.3359375,0.03515625 0.082031,0 0.1992187,0 0.1992187,-0.1875 0,-0.1171875 -0.082031,-0.1171875 -0.3046875,-0.1171875 -0.1757812,0 -0.2226562,0 -0.421875,-0.0234375 C 2.3892734,-0.35265625 2.3541172,-0.3878125 2.3541172,-0.505 c 0,-0.0703125 0.011719,-0.15234375 0.035156,-0.22265625 z m 0,0"
         style="fill:#000000;fill-opacity:1;fill-rule:nonzero;stroke:none" />
      <path
         id="path45"
         d="m 8.4537266,2.3895312 c 0,-0.035156 0,-0.046875 -0.1640625,-0.2226562 -1.2421875,-1.25390625 -1.5703125,-3.12890625 -1.5703125,-4.6640625 0,-1.7226563 0.3867187,-3.4570313 1.6054687,-4.7109375 0.1289063,-0.1171875 0.1289063,-0.1289063 0.1289063,-0.1640625 0,-0.070312 -0.035156,-0.1054688 -0.09375,-0.1054688 -0.1054688,0 -0.9960938,0.6796875 -1.5820313,1.9453125 -0.515625,1.1015625 -0.6328125,2.203125 -0.6328125,3.0351563 0,0.7851562 0.1171875,1.9921875 0.65625,3.1171875 0.5976563,1.21875 1.453125,1.875 1.5585938,1.875 0.058594,0 0.09375,-0.035156 0.09375,-0.1054688 z m 0,0"
         style="fill:#000000;fill-opacity:1;fill-rule:nonzero;stroke:none" />
      <path
         id="path46"
         d="m 11.084586,-3.9854688 h 0.9375 c 0.199219,0 0.304687,0 0.304687,-0.1992187 0,-0.1054688 -0.105468,-0.1054688 -0.28125,-0.1054688 h -0.878906 c 0.363281,-1.4179687 0.410156,-1.6171875 0.410156,-1.6757812 0,-0.1757813 -0.117187,-0.2695313 -0.292968,-0.2695313 -0.02344,0 -0.304688,0.011719 -0.398438,0.3515625 l -0.386719,1.59375 H 9.5611484 c -0.1992187,0 -0.2929687,0 -0.2929687,0.1875 0,0.1171875 0.070312,0.1171875 0.2695312,0.1171875 h 0.8789061 c -0.7148436,2.8242188 -0.7499998,3.00000005 -0.7499998,3.1757813 0,0.5390625 0.3749998,0.9140625 0.9140628,0.9140625 1.007812,0 1.582031,-1.453125 1.582031,-1.5351563 0,-0.09375 -0.08203,-0.09375 -0.117188,-0.09375 -0.09375,0 -0.105468,0.023437 -0.152343,0.140625 -0.433594,1.03125005 -0.960938,1.2773438 -1.300782,1.2773438 -0.199218,0 -0.304687,-0.12890625 -0.304687,-0.45703125 0,-0.24609375 0.02344,-0.31640625 0.05859,-0.48046875 z m 0,0"
         style="fill:#000000;fill-opacity:1;fill-rule:nonzero;stroke:none" />
      <path
         id="path47"
         d="m 15.517203,-2.4971875 c 0,-0.7734375 -0.117187,-1.9804688 -0.65625,-3.1054688 -0.597656,-1.21875 -1.464844,-1.875 -1.558594,-1.875 -0.05859,0 -0.105468,0.046875 -0.105468,0.1054688 0,0.035156 0,0.046875 0.199218,0.234375 0.972657,0.984375 1.535157,2.5664062 1.535157,4.640625 0,1.7109375 -0.363282,3.45703125 -1.59375,4.7226562 -0.140625,0.1171875 -0.140625,0.1289063 -0.140625,0.1640625 0,0.058594 0.04687,0.1054688 0.105468,0.1054688 0.09375,0 0.996094,-0.6796875 1.582032,-1.9453125 0.503906,-1.1015625 0.632812,-2.203125 0.632812,-3.046875 z m 0,0"
         style="fill:#000000;fill-opacity:1;fill-rule:nonzero;stroke:none" />
    </g>
  </g>
</svg>
