<?xml version="1.0" encoding="UTF-8" standalone="no"?>
<!-- Created with Inkscape (http://www.inkscape.org/) -->

<svg
   version="1.1"
   id="svg1"
   width="361.91016"
   height="143.86719"
   viewBox="0 0 361.91015 143.86719"
   xmlns="http://www.w3.org/2000/svg"
   xmlns:svg="http://www.w3.org/2000/svg">
  <defs
     id="defs1">
    <linearGradient
       x1="0"
       y1="0"
       x2="0"
       y2="100.00128"
       gradientUnits="userSpaceOnUse"
       id="linearGradient19">
      <stop
         style="stop-opacity:1;stop-color:#ff4c4c"
         offset="0"
         id="stop15" />
      <stop
         style="stop-opacity:1;stop-color:#ff4c4c"
         offset="0.25"
         id="stop16" />
      <stop
         style="stop-opacity:1;stop-color:#ffe6e6"
         offset="0.5"
         id="stop17" />
      <stop
         style="stop-opacity:1;stop-color:#ff6666"
         offset="0.75"
         id="stop18" />
      <stop
         style="stop-opacity:1;stop-color:#ff6666"
         offset="1"
         id="stop19" />
    </linearGradient>
    <clipPath
       clipPathUnits="userSpaceOnUse"
       id="clipPath20">
      <path
         d="m 48.414347,146.08323 v 3.5739 c 0,1.10047 0.89212,1.99256 1.99256,1.99256 H 348.78776 c 1.10044,0 1.99256,-0.89209 1.99256,-1.99256 v -3.5739 c 0,-1.10047 -0.89212,-1.99256 -1.99256,-1.99256 H 50.406907 c -1.10044,0 -1.99256,0.89209 -1.99256,1.99256 z"
         id="path20" />
    </clipPath>
  </defs>
  <g
     id="g1"
     transform="translate(-18.820313,-17.554687)">
    <path
       id="path1"
       d="m -127.56062,-2.83484 h 14.17338"
       style="fill:none;stroke:#000000;stroke-width:0.3985;stroke-linecap:butt;stroke-linejoin:miter;stroke-miterlimit:10;stroke-dasharray:2.98883, 2.98883;stroke-dashoffset:0;stroke-opacity:1"
       transform="matrix(1.3333333,0,0,-1.3333333,199.59733,144.09067)" />
    <path
       id="path2"
       d="m 113.38724,-2.83484 h 14.17338"
       style="fill:none;stroke:#000000;stroke-width:0.3985;stroke-linecap:butt;stroke-linejoin:miter;stroke-miterlimit:10;stroke-dasharray:2.98883, 2.98883;stroke-dashoffset:0;stroke-opacity:1"
       transform="matrix(1.3333333,0,0,-1.3333333,199.59733,144.09067)" />
    <path
       id="path3"
       d="m 6.5627031,-2.2975 c 0.1757813,0 0.3515625,0 0.3515625,-0.1992188 0,-0.1992187 -0.1757812,-0.1992187 -0.3515625,-0.1992187 h -5.390625 c -0.1640625,0 -0.33984373,0 -0.33984373,0.1992187 0,0.1992188 0.17578123,0.1992188 0.33984373,0.1992188 z M 12.811727,-2.6959375 C 12.272664,-3.375625 12.155477,-3.5279688 11.83907,-3.7740625 11.288289,-4.219375 10.725789,-4.406875 10.221883,-4.406875 c -1.1718752,0 -1.9218752,1.1015625 -1.9218752,2.2617187 0,1.14843755 0.7382813,2.25000005 1.8750002,2.25000005 1.148437,0 1.980469,-0.90234375 2.460937,-1.69921875 0.539063,0.6796875 0.65625,0.83203125 0.972657,1.078125 0.550781,0.4453125 1.113281,0.62109375 1.617187,0.62109375 1.171875,0 1.921875,-1.08984375 1.921875,-2.26171875 0,-1.1367188 -0.726562,-2.25 -1.875,-2.25 -1.148437,0 -1.980469,0.9140625 -2.460937,1.7109375 z m 0.257812,0.3398437 c 0.410156,-0.7265625 1.148438,-1.734375 2.273438,-1.734375 1.054687,0 1.59375,1.0429688 1.59375,1.9335938 0,0.984375 -0.667969,1.79296875 -1.546875,1.79296875 -0.574219,0 -1.03125,-0.421875 -1.230469,-0.6328125 C 13.90157,-1.26625 13.678914,-1.5709375 13.069539,-2.3560938 Z m -0.691406,0.421875 c -0.410156,0.7148438 -1.136719,1.7226563 -2.273438,1.7226563 -1.0546872,0 -1.5937497,-1.03125 -1.5937497,-1.9335938 0,-0.9726562 0.6679688,-1.78125 1.5468747,-1.78125 0.585938,0 1.03125,0.421875 1.242188,0.6328125 0.246094,0.2695313 0.46875,0.5742188 1.078125,1.359375 z m 0,0"
       style="fill:#000000;fill-opacity:1;fill-rule:nonzero;stroke:none"
       aria-label="−∞"
       transform="matrix(1.3333333,0,0,1.3333333,17.710667,160.31333)" />
    <g
       id="g3"
       aria-label="+∞"
       transform="matrix(1.3333333,0,0,1.3333333,357.868,160.31333)">
      <path
         id="path4"
         d="m 4.0775156,-2.2975 h 2.7773438 c 0.140625,0 0.328125,0 0.328125,-0.1992188 0,-0.1992187 -0.1875,-0.1992187 -0.328125,-0.1992187 H 4.0775156 V -5.485 c 0,-0.1289063 0,-0.328125 -0.1992187,-0.328125 -0.1992188,0 -0.1992188,0.1992187 -0.1992188,0.328125 v 2.7890625 H 0.89001562 c -0.140625,0 -0.328125,0 -0.328125,0.1992187 0,0.1992188 0.1875,0.1992188 0.328125,0.1992188 H 3.6790781 v 2.80078125 c 0,0.12890625 0,0.328125 0.1992188,0.328125 0.1992187,0 0.1992187,-0.19921875 0.1992187,-0.328125 z m 0,0"
         style="fill:#000000;fill-opacity:1;fill-rule:nonzero;stroke:none" />
      <path
         id="path5"
         d="M 12.810914,-2.6959375 C 12.271852,-3.375625 12.154664,-3.5279688 11.838258,-3.7740625 11.287477,-4.219375 10.724977,-4.406875 10.22107,-4.406875 c -1.1718747,0 -1.9218747,1.1015625 -1.9218747,2.2617187 0,1.14843755 0.7382813,2.25000005 1.8749997,2.25000005 1.148438,0 1.980469,-0.90234375 2.460938,-1.69921875 0.539062,0.6796875 0.65625,0.83203125 0.972656,1.078125 0.550781,0.4453125 1.113281,0.62109375 1.617188,0.62109375 1.171875,0 1.921875,-1.08984375 1.921875,-2.26171875 0,-1.1367188 -0.726563,-2.25 -1.875,-2.25 -1.148438,0 -1.980469,0.9140625 -2.460938,1.7109375 z m 0.257813,0.3398437 c 0.410156,-0.7265625 1.148437,-1.734375 2.273437,-1.734375 1.054688,0 1.59375,1.0429688 1.59375,1.9335938 0,0.984375 -0.667969,1.79296875 -1.546875,1.79296875 -0.574219,0 -1.03125,-0.421875 -1.230469,-0.6328125 C 13.900758,-1.26625 13.678102,-1.5709375 13.068727,-2.3560938 Z m -0.691407,0.421875 c -0.410156,0.7148438 -1.136718,1.7226563 -2.273437,1.7226563 -1.0546877,0 -1.5937502,-1.03125 -1.5937502,-1.9335938 0,-0.9726562 0.6679688,-1.78125 1.5468752,-1.78125 0.585937,0 1.03125,0.421875 1.242187,0.6328125 0.246094,0.2695313 0.46875,0.5742188 1.078125,1.359375 z m 0,0"
         style="fill:#000000;fill-opacity:1;fill-rule:nonzero;stroke:none" />
    </g>
    <path
       id="path6"
       d="M 0,0 V 81.45387"
       style="fill:none;stroke:#000000;stroke-width:0.3985;stroke-linecap:butt;stroke-linejoin:miter;stroke-miterlimit:10;stroke-dasharray:none;stroke-opacity:1"
       transform="matrix(1.3333333,0,0,-1.3333333,199.59733,144.09067)" />
    <path
       id="path7"
       d="M 3.58653,0 C 2.52383,0.19925 0.797,0.797 -0.3985,1.49438 V -1.49438 C 0.797,-0.797 2.52383,-0.19925 3.58653,0"
       style="fill:#000000;fill-opacity:1;fill-rule:nonzero;stroke:none"
       transform="matrix(0,-1.3333333,-1.3333333,0,199.59733,35.485507)" />
    <path
       id="path8"
       d="m 4.8390156,-3.7966094 c 0.046875,-0.140625 0.046875,-0.1523437 0.046875,-0.2226562 0,-0.1875 -0.140625,-0.2695313 -0.2929687,-0.2695313 -0.1054688,0 -0.2578125,0.058594 -0.3515625,0.1992188 -0.023437,0.058594 -0.09375,0.3632812 -0.140625,0.5390625 -0.070312,0.2578125 -0.140625,0.5273437 -0.1992188,0.796875 l -0.4453125,1.79296872 c -0.035156,0.15234375 -0.46875,0.85546875 -1.125,0.85546875 -0.5039062,0 -0.6210937,-0.4453125 -0.6210937,-0.80859375 0,-0.45703122 0.1757812,-1.07812502 0.515625,-1.95703122 0.1523437,-0.4101563 0.1992187,-0.515625 0.1992187,-0.7148438 0,-0.4453125 -0.328125,-0.8203125 -0.8203125,-0.8203125 -0.94921872,0 -1.31249997,1.453125 -1.31249997,1.5351563 0,0.1054687 0.09375,0.1054687 0.1171875,0.1054687 0.09375,0 0.10546875,-0.023437 0.15234375,-0.1875 0.26953125,-0.9375 0.66796872,-1.2304687 1.00781252,-1.2304687 0.082031,0 0.2578125,0 0.2578125,0.3164062 0,0.2460938 -0.1054688,0.515625 -0.1757813,0.703125 -0.3984375,1.0546875 -0.5742187,1.6171875 -0.5742187,2.0859375 0,0.89062502 0.6210937,1.18359377 1.21875,1.18359377 0.3867187,0 0.7265625,-0.1640625 0.9960937,-0.4453125 -0.1289062,0.515625 -0.2460937,1.0078125 -0.6445312,1.53515623 -0.2578125,0.3398438 -0.6328125,0.6328125 -1.0898438,0.6328125 -0.140625,0 -0.59765622,-0.035156 -0.76171872,-0.421875 0.1640625,0 0.29296872,0 0.43359372,-0.1171875 0.09375,-0.09375 0.1992188,-0.2226562 0.1992188,-0.41015623 0,-0.31640625 -0.2695313,-0.3515625 -0.375,-0.3515625 -0.22265627,0 -0.55078127,0.1640625 -0.55078127,0.64453123 0,0.5039063 0.43359375,0.8671875 1.05468747,0.8671875 1.0195313,0 2.0507813,-0.9023437 2.3320313,-2.02734373 z m 0,0"
       style="fill:#000000;fill-opacity:1;fill-rule:nonzero;stroke:none"
       aria-label="y"
       transform="matrix(1.3333333,0,0,1.3333333,196.10267,23.429333)" />
    <path
       id="path9"
       d="M -14.17339,0.96207 V 55.73154"
       style="fill:none;stroke:#6b7280;stroke-width:0.79701;stroke-linecap:butt;stroke-linejoin:miter;stroke-miterlimit:10;stroke-dasharray:none;stroke-opacity:1"
       transform="matrix(1.3333333,0,0,-1.3333333,199.59733,144.09067)" />
    <path
       id="path10"
       d="M 0,3.08846 3.08846,0 0,-3.08846"
       style="fill:none;stroke:#6b7280;stroke-width:0.79701;stroke-linecap:butt;stroke-linejoin:miter;stroke-miterlimit:10;stroke-dasharray:none;stroke-opacity:1"
       transform="matrix(0,1.3333333,1.3333333,0,180.69948,139.22131)" />
    <path
       id="path11"
       d="M 0,3.08846 3.08846,0 0,-3.08846"
       style="fill:none;stroke:#6b7280;stroke-width:0.79701;stroke-linecap:butt;stroke-linejoin:miter;stroke-miterlimit:10;stroke-dasharray:none;stroke-opacity:1"
       transform="matrix(0,-1.3333333,-1.3333333,0,180.69948,73.36856)" />
    <path
       id="path12"
       d="M -20.12706,22.88148 H -8.21973 V 33.81211 H -20.12706 Z"
       style="fill:#ffffff;fill-opacity:1;fill-rule:nonzero;stroke:none"
       transform="matrix(1.3333333,0,0,-1.3333333,199.59733,144.09067)" />
    <path
       id="path13"
       d="m 3.7134688,-3.7615313 c -0.1757813,-0.375 -0.46875,-0.6445312 -0.9140625,-0.6445312 -1.171875,0 -2.4023438,1.4648437 -2.4023438,2.9179687 0,0.93750005 0.55078125,1.59375005 1.3242188,1.59375005 0.1992187,0 0.703125,-0.03515625 1.3007812,-0.73828125 0.070312,0.41015625 0.421875,0.73828125 0.9023438,0.73828125 0.3515625,0 0.5742187,-0.22265625 0.7382812,-0.5390625 C 4.82675,-0.7966875 4.9556563,-1.4060625 4.9556563,-1.4295 c 0,-0.09375 -0.082031,-0.09375 -0.1171875,-0.09375 -0.09375,0 -0.1054688,0.035156 -0.140625,0.1757812 -0.1640625,0.6445313 -0.3515625,1.24218755 -0.75,1.24218755 -0.2695313,0 -0.3046875,-0.2578125 -0.3046875,-0.45703125 0,-0.22265625 0.023437,-0.3046875 0.1289062,-0.7382813 0.1171875,-0.421875 0.1289063,-0.5273437 0.2226563,-0.9023437 l 0.3515625,-1.3945313 c 0.070312,-0.28125 0.070312,-0.2929687 0.070312,-0.3398437 0,-0.1640625 -0.1171875,-0.2695313 -0.28125,-0.2695313 -0.2460938,0 -0.3867188,0.2226563 -0.4218745,0.4453125 z m -0.6445313,2.578125 c -0.046875,0.1757813 -0.046875,0.1992188 -0.1992187,0.3632813 -0.4453125,0.55078125 -0.84375,0.71484375 -1.125,0.71484375 -0.5039063,0 -0.6445313,-0.55078125 -0.6445313,-0.93750005 0,-0.5039062 0.328125,-1.7226562 0.5507813,-2.1796875 0.3046875,-0.5976562 0.7617187,-0.9609375 1.1601562,-0.9609375 0.6445313,0 0.7851563,0.8203125 0.7851563,0.8789063 0,0.058594 -0.023437,0.1171875 -0.035156,0.1640625 z m 0,0"
       style="fill:#6b7280;fill-opacity:1;fill-rule:nonzero;stroke:none"
       aria-label="a"
       transform="matrix(1.3333333,0,0,1.3333333,177.18933,109.156)" />
    <path
       id="path14"
       d="m 2.11343,56.69362 c 0,1.16722 -0.94621,2.11343 -2.11343,2.11343 -1.16722,0 -2.11343,-0.94621 -2.11343,-2.11343 0,-1.16724 0.94621,-2.11345 2.11343,-2.11345 1.16722,0 2.11343,0.94621 2.11343,2.11345 z"
       style="fill:#000000;fill-opacity:1;fill-rule:nonzero;stroke:none"
       transform="matrix(1.3333333,0,0,-1.3333333,199.59733,144.09067)" />
    <path
       id="path15"
       d="m 3.0222344,-3.1520469 h 1.6875 c 1.4179687,0 2.8007812,-1.03125 2.8007812,-2.1445312 0,-0.7734375 -0.65625,-1.5117188 -1.96875,-1.5117188 H 2.3191094 c -0.1875,0 -0.2929688,0 -0.2929688,0.1992188 0,0.1171875 0.082031,0.1171875 0.28125,0.1171875 0.1289063,0 0.3164063,0.011719 0.4335938,0.011719 0.1523437,0.023437 0.2109375,0.058594 0.2109375,0.1640625 0,0.035156 0,0.070312 -0.035156,0.1875 l -1.3359375,5.35546877 c -0.09375,0.38671875 -0.1171875,0.46875 -0.90234372,0.46875 -0.17578125,0 -0.28125,0 -0.28125,0.1875 0,0.117187505 0.1171875,0.117187505 0.15234375,0.117187505 0.28125,0 0.98437497,-0.035156255 1.26562497,-0.035156255 0.2109375,0 0.421875,0.01171875 0.6328125,0.01171875 0.2226563,0 0.4453125,0.023437505 0.6445313,0.023437505 0.070312,0 0.1992187,0 0.1992187,-0.199218755 0,-0.10546875 -0.082031,-0.10546875 -0.2695312,-0.10546875 -0.375,0 -0.65625,0 -0.65625,-0.1875 0,-0.0585938 0.023437,-0.10546875 0.035156,-0.1640625 z m 0.7148437,-2.9648437 c 0.082031,-0.3515625 0.1054688,-0.375 0.5390625,-0.375 h 0.9492188 c 0.8320312,0 1.359375,0.2695312 1.359375,0.9492187 0,0.3984375 -0.1992188,1.2539063 -0.5859375,1.6054688 -0.5039063,0.4453125 -1.1015625,0.5273437 -1.5351563,0.5273437 h -1.40625 z m 0,0"
       style="fill:#000000;fill-opacity:1;fill-rule:nonzero;stroke:none"
       aria-label="P"
       transform="matrix(1.3333333,0,0,1.3333333,204.29067,73.038667)" />
    <g
       id="g19"
       clip-path="url(#clipPath20)">
      <path
         d="M 0,0 H 100 V 100 H 0 Z"
         transform="matrix(6.0480533,0,0,-0.15118667,-102.80533,155.42951)"
         style="fill:url(#linearGradient19);stroke:none"
         id="path19" />
    </g>
    <path
       id="path21"
       d="m -113.38724,-1.49442 v -2.68043 c 0,-0.82535 0.66909,-1.49442 1.49442,-1.49442 h 223.78564 c 0.82533,0 1.49442,0.66907 1.49442,1.49442 v 2.68043 C 113.38724,-0.66907 112.71815,0 111.89282,0 h -223.78564 c -0.82533,0 -1.49442,-0.66907 -1.49442,-1.49442 z"
       style="fill:none;stroke:#4c4c4c;stroke-width:0.3985;stroke-linecap:butt;stroke-linejoin:miter;stroke-miterlimit:10;stroke-dasharray:none;stroke-opacity:1"
       transform="matrix(1.3333333,0,0,-1.3333333,199.59733,144.09067)" />
  </g>
</svg>
