<?xml version="1.0" encoding="UTF-8" standalone="no"?>
<!-- Created with Inkscape (http://www.inkscape.org/) -->

<svg
   version="1.1"
   id="svg1"
   width="304.99219"
   height="190.11562"
   viewBox="0 0 304.99219 190.11561"
   xmlns="http://www.w3.org/2000/svg"
   xmlns:svg="http://www.w3.org/2000/svg">
  <defs
     id="defs1" />
  <g
     id="g1"
     transform="translate(-18.335938,-13.282286)">
    <path
       id="path1"
       d="M -6.80309,61.22903 C 19.62555,67.26988 45.379,59.32309 68.03217,44.221 90.68532,29.1189 101.28596,16.60518 95.24512,-6.80309 89.20425,-30.2114 69.51321,-53.67798 40.81917,-61.22903 c -28.69402,-7.55103 -54.44744,3.0424 -74.83525,20.40986 -20.38779,17.36743 -23.04889,35.17406 -17.00803,57.82718 6.04085,22.65317 17.79233,38.18016 44.22102,44.22102 z"
       style="fill:#fff2e6;fill-opacity:1;fill-rule:nonzero;stroke:#cc6600;stroke-width:0.79701;stroke-linecap:butt;stroke-linejoin:miter;stroke-miterlimit:10;stroke-dasharray:2.98883, 2.98883;stroke-dashoffset:0;stroke-opacity:1"
       transform="matrix(1.3333333,0,0,-1.3333333,149.56933,117.93333)" />
    <path
       id="path2"
       d="m 7.5947344,-8.3080781 c 0,-0.1054688 -0.082031,-0.1054688 -0.1054688,-0.1054688 -0.058594,0 -0.070312,0.011719 -0.2109375,0.1875 -0.070312,0.082031 -0.5625,0.703125 -0.5742187,0.7148438 -0.3867188,-0.7734375 -1.1835938,-0.9023438 -1.6875,-0.9023438 -1.5117188,0 -2.8828125,1.3828125 -2.8828125,2.7304688 0,0.9023437 0.5273437,1.4296875 1.1132812,1.6289062 0.140625,0.046875 0.84375,0.2460938 1.1953125,0.328125 0.609375,0.1640625 0.7734375,0.2109375 1.0195313,0.4804688 0.046875,0.058594 0.2929687,0.328125 0.2929687,0.890625 0,1.1132812 -1.03125,2.26171873 -2.2265625,2.26171873 -0.984375,0 -2.0742187,-0.421875 -2.0742187,-1.75781253 0,-0.2226562 0.058594,-0.515625 0.09375,-0.6328125 0,-0.035156 0.011719,-0.09375 0.011719,-0.1171875 0,-0.046875 -0.023437,-0.1171875 -0.1289062,-0.1171875 -0.1054688,0 -0.1171875,0.023437 -0.1640625,0.234375 l -0.60937502,2.44921878 c 0,0.01171875 -0.046875,0.1640625 -0.046875,0.17578125 0,0.10546875 0.09375,0.10546875 0.1171875,0.10546875 0.046875,0 0.0585938,-0.0117188 0.2109375,-0.1875 L 1.4775469,-0.65573437 c 0.2929687,0.43359375 0.9140625,0.90234375 2.0273437,0.90234375 1.5351563,0 2.953125,-1.48828128 2.953125,-2.98828128 0,-0.4921875 -0.1171875,-0.9375 -0.5742187,-1.3828125 -0.2578125,-0.2460937 -0.46875,-0.3046875 -1.5703125,-0.5976562 -0.796875,-0.2109375 -0.9023438,-0.2460938 -1.125,-0.4453125 -0.1992188,-0.1992188 -0.3515625,-0.4804688 -0.3515625,-0.890625 0,-1.0078125 1.0078125,-2.0390625 2.1445312,-2.0390625 1.171875,0 1.7226563,0.7265625 1.7226563,1.8632812 0,0.3046875 -0.058594,0.6328125 -0.058594,0.6796875 0,0.1054688 0.09375,0.1054688 0.1289063,0.1054688 0.1171875,0 0.1289062,-0.035156 0.1757812,-0.234375 z m 0,0"
       style="fill:#cc6600;fill-opacity:1;fill-rule:nonzero;stroke:none"
       aria-label="S"
       transform="matrix(1.3333333,0,0,1.3333333,225.944,177.804)" />
    <path
       id="path3"
       d="m 3.25452,13.6062 c 0,5.55475 -4.50287,10.05763 -10.05761,10.05763 -5.55474,0 -10.05763,-4.50288 -10.05763,-10.05763 0,-5.55473 4.50289,-10.05763 10.05763,-10.05763 5.55474,0 10.05761,4.5029 10.05761,10.05763 z"
       style="fill:#ffcccc;fill-opacity:1;fill-rule:nonzero;stroke:#ff0000;stroke-width:0.79701;stroke-linecap:butt;stroke-linejoin:miter;stroke-miterlimit:10;stroke-dasharray:none;stroke-opacity:1"
       transform="matrix(1.3333333,0,0,-1.3333333,149.56933,117.93333)" />
    <g
       id="g3"
       aria-label="q&#10;1"
       transform="matrix(1.3333333,0,0,1.3333333,134.55467,101.36)">
      <path
         id="path4"
         d="m 4.5000156,-4.2895312 c 0,-0.046875 -0.023437,-0.1054688 -0.09375,-0.1054688 -0.1171875,0 -0.515625,0.3984375 -0.6796875,0.6914063 -0.2226562,-0.5390625 -0.609375,-0.703125 -0.9257812,-0.703125 -1.171875,0 -2.40234377,1.4765625 -2.40234377,2.9179687 0,0.984375 0.5859375,1.59375 1.31249997,1.59375 0.4335938,0 0.8203125,-0.234375 1.1835938,-0.59765625 -0.09375,0.3515625 -0.421875,1.69921875 -0.4570313,1.79296875 -0.082031,0.2695313 -0.1523437,0.3164063 -0.7148437,0.328125 -0.1289063,0 -0.2226563,0 -0.2226563,0.1992188 0,0 0,0.1054687 0.1289063,0.1054687 0.3164062,0 0.6679687,-0.035156 0.9960937,-0.035156 0.328125,0 0.6914063,0.035156 1.0195313,0.035156 0.046875,0 0.1757812,0 0.1757812,-0.1992187 0,-0.1054688 -0.09375,-0.1054688 -0.2578125,-0.1054688 -0.46875,0 -0.46875,-0.070312 -0.46875,-0.1640625 0,-0.070312 0.011719,-0.1289062 0.035156,-0.2226562 z m -2.7539062,4.1835937 c -0.5976563,0 -0.6445313,-0.7734375 -0.6445313,-0.9375 0,-0.4804687 0.2929688,-1.5703125 0.4570313,-1.9804687 0.3164062,-0.7382813 0.8320312,-1.1601563 1.2421875,-1.1601563 0.6445312,0 0.7851562,0.8085938 0.7851562,0.8789063 0,0.058594 -0.5507812,2.2382812 -0.5742187,2.2734375 -0.1523438,0.28124995 -0.7148438,0.9257812 -1.265625,0.9257812 z m 0,0"
         style="fill:#000000;fill-opacity:1;fill-rule:nonzero;stroke:none" />
      <path
         id="path5"
         d="m 6.7793125,-2.9360156 c 0,-0.1875 -0.011719,-0.1992188 -0.2109375,-0.1992188 C 6.1230625,-2.7016406 5.49025,-2.6899219 5.209,-2.6899219 v 0.2460938 c 0.1640625,0 0.6210938,0 1.0078125,-0.1875 v 3.55078123 c 0,0.23437497 0,0.32812497 -0.6914062,0.32812497 H 5.255875 v 0.2460938 c 0.1289063,-0.011719 0.984375,-0.023437 1.2421875,-0.023437 0.2109375,0 1.0898438,0.011719 1.2421875,0.023437 V 1.2475781 H 7.4824375 c -0.703125,0 -0.703125,-0.09375 -0.703125,-0.32812497 z m 0,0"
         style="fill:#000000;fill-opacity:1;fill-rule:nonzero;stroke:none" />
    </g>
    <g
       id="g5"
       aria-label="+5µC"
       transform="matrix(1.3333333,0,0,1.3333333,124.868,125.68667)">
      <path
         id="path6"
         d="m 3.4681406,-1.8040625 h 2.34375 c 0.1171875,0 0.2929688,0 0.2929688,-0.1875 0,-0.1875 -0.1757813,-0.1875 -0.2929688,-0.1875 h -2.34375 v -2.34375 c 0,-0.1171875 0,-0.2929688 -0.1757812,-0.2929688 -0.1875,0 -0.1875,0.1757813 -0.1875,0.2929688 v 2.34375 H 0.76110938 c -0.1171875,0 -0.29296875,0 -0.29296875,0.1875 0,0.1875 0.17578125,0.1875 0.29296875,0.1875 H 3.1048594 v 2.34375 c 0,0.1171875 0,0.29296875 0.1875,0.29296875 0.1757812,0 0.1757812,-0.17578125 0.1757812,-0.29296875 z m 4.2304688,-2.671875 c 0.1054687,0.035156 0.421875,0.1054687 0.7617187,0.1054687 0.9960938,0 1.5937499,-0.6914062 1.5937499,-0.8203125 0,-0.082031 -0.04687,-0.1054687 -0.09375,-0.1054687 -0.011719,0 -0.023437,0 -0.1054687,0.035156 -0.3046875,0.1171875 -0.6679688,0.2226563 -1.1015625,0.2226563 -0.46875,0 -0.8554688,-0.1289063 -1.1132813,-0.2226563 -0.070312,-0.035156 -0.09375,-0.035156 -0.09375,-0.035156 -0.1054687,0 -0.1054687,0.082031 -0.1054687,0.234375 v 2.3320312 c 0,0.140625 0,0.234375 0.1289062,0.234375 0.058594,0 0.082031,-0.035156 0.1289063,-0.09375 0.09375,-0.1171875 0.3984375,-0.5273437 1.0664062,-0.5273437 0.4453125,0 0.6679688,0.3632812 0.7382813,0.515625 0.1289062,0.2929687 0.1523437,0.65625 0.1523437,0.9726562 0,0.2929688 -0.011719,0.7148438 -0.234375,1.0664063 -0.1523437,0.24609375 -0.46875,0.4921875 -0.890625,0.4921875 -0.515625,0 -1.03125,-0.328125 -1.2070312,-0.84375 0.023437,0 0.070312,0 0.070312,0 0.2226562,0 0.3984375,-0.140625 0.3984375,-0.3867188 0,-0.2929687 -0.2226563,-0.3984375 -0.3867188,-0.3984375 -0.140625,0 -0.3984375,0.082031 -0.3984375,0.421875 0,0.7148438 0.6210938,1.4414063 1.5351563,1.4414063 0.9960937,0 1.8398432,-0.7734375 1.8398432,-1.7578125 0,-0.9257813 -0.6679682,-1.7460938 -1.6054682,-1.7460938 -0.3984375,0 -0.7734375,0.1289063 -1.078125,0.3984375 z m 0,0"
         style="fill:#cc0000;fill-opacity:1;fill-rule:nonzero;stroke:none" />
      <path
         id="path7"
         d="m 14.16443,-2.811875 c 0.03516,-0.1523438 0.09375,-0.4101563 0.09375,-0.4570313 0,-0.1640625 -0.117188,-0.2460937 -0.257813,-0.2460937 -0.269531,0 -0.339844,0.2695312 -0.363281,0.375 l -1.113281,4.4179687 c -0.03516,0.1289063 -0.03516,0.1757813 -0.03516,0.1875 0,0.1992188 0.164063,0.2460938 0.257813,0.2460938 0.04687,0 0.222656,0 0.328125,-0.2109375 0.02344,-0.070312 0.257812,-1.01953125 0.410156,-1.65234375 0.140625,0.10546875 0.410156,0.234375 0.820313,0.234375 0.65625,0 1.078125,-0.5390625 1.101562,-0.5625 0.152344,0.5390625 0.691406,0.5625 0.785156,0.5625 0.363282,0 0.550782,-0.3046875 0.609375,-0.4453125 0.164063,-0.28125 0.269532,-0.75000005 0.269532,-0.77343755 0,-0.046875 -0.02344,-0.1054687 -0.117188,-0.1054687 -0.105469,0 -0.117187,0.046875 -0.164062,0.24609375 C 16.672242,-0.561875 16.531617,-0.14 16.215211,-0.14 c -0.1875,0 -0.257813,-0.15234375 -0.257813,-0.375 0,-0.140625 0.09375,-0.48046875 0.140625,-0.7148438 l 0.210938,-0.8085937 c 0.04687,-0.2109375 0.09375,-0.375 0.152344,-0.609375 0.03516,-0.1757813 0.117187,-0.4921875 0.117187,-0.5390625 0,-0.1992188 -0.152344,-0.2460938 -0.246094,-0.2460938 -0.28125,0 -0.328125,0.1992188 -0.421875,0.5625 l -0.164062,0.65625 -0.246094,0.9960938 -0.08203,0.31640625 c -0.01172,0.046875 -0.234375,0.3515625 -0.410156,0.50390625 C 14.867555,-0.29234375 14.63318,-0.14 14.340211,-0.14 c -0.375,0 -0.632813,-0.19921875 -0.632813,-0.69140625 0,-0.21093755 0.07031,-0.44531255 0.117188,-0.64453125 z m 0,0"
         style="fill:#cc0000;fill-opacity:1;fill-rule:nonzero;stroke:none" />
      <path
         id="path8"
         d="m 22.962281,-5.4017188 c 0,-0.1289062 0,-0.2109375 -0.105468,-0.2109375 -0.05859,0 -0.07031,0.011719 -0.140625,0.1171875 l -0.398438,0.5859375 c -0.292969,-0.3046875 -0.820312,-0.703125 -1.582031,-0.703125 -1.605469,0 -2.941406,1.2890625 -2.941406,2.8828125 0,1.6171875 1.335937,2.8945313 2.953125,2.8945313 1.335937,0 2.214843,-1.0546875 2.214843,-2.0273438 0,-0.082031 0,-0.1523437 -0.128906,-0.1523437 -0.09375,0 -0.117187,0.035156 -0.117187,0.1171875 -0.07031,1.23046875 -1.054688,1.8046875 -1.898438,1.8046875 -0.679687,0 -2.191406,-0.421875 -2.191406,-2.6367188 0,-2.1328125 1.429687,-2.6132812 2.191406,-2.6132812 0.75,0 1.675781,0.5273437 1.875,1.8984375 0.01172,0.070312 0.02344,0.1171875 0.128906,0.1171875 0.140625,0 0.140625,-0.046875 0.140625,-0.1992188 z m 0,0"
         style="fill:#cc0000;fill-opacity:1;fill-rule:nonzero;stroke:none" />
    </g>
    <path
       id="path9"
       d="m 50.8768,6.80309 c 0,5.55474 -4.50288,10.05763 -10.05763,10.05763 -5.55474,0 -10.05762,-4.50289 -10.05762,-10.05763 0,-5.55474 4.50288,-10.05761 10.05762,-10.05761 5.55475,0 10.05763,4.50287 10.05763,10.05761 z"
       style="fill:#ccccff;fill-opacity:1;fill-rule:nonzero;stroke:#0000ff;stroke-width:0.79701;stroke-linecap:butt;stroke-linejoin:miter;stroke-miterlimit:10;stroke-dasharray:none;stroke-opacity:1"
       transform="matrix(1.3333333,0,0,-1.3333333,149.56933,117.93333)" />
    <g
       id="g9"
       aria-label="q&#10;2"
       transform="matrix(1.3333333,0,0,1.3333333,198.04933,110.43067)">
      <path
         id="path10"
         d="m 4.5010859,-4.2897969 c 0,-0.046875 -0.023437,-0.1054687 -0.09375,-0.1054687 -0.1171875,0 -0.515625,0.3984375 -0.6796875,0.6914062 -0.2226562,-0.5390625 -0.609375,-0.703125 -0.9257812,-0.703125 -1.171875,0 -2.40234376,1.4765625 -2.40234376,2.9179688 0,0.98437498 0.5859375,1.59374998 1.31249996,1.59374998 0.4335938,0 0.8203125,-0.234375 1.1835938,-0.59765625 -0.09375,0.3515625 -0.421875,1.69921877 -0.4570313,1.79296877 -0.082031,0.2695312 -0.1523437,0.3164062 -0.7148437,0.328125 -0.1289063,0 -0.2226563,0 -0.2226563,0.1992187 0,0 0,0.1054688 0.1289063,0.1054688 0.3164062,0 0.6679687,-0.035156 0.9960937,-0.035156 0.328125,0 0.6914063,0.035156 1.0195313,0.035156 0.046875,0 0.1757812,0 0.1757812,-0.1992188 0,-0.1054687 -0.09375,-0.1054687 -0.2578125,-0.1054687 -0.46875,0 -0.46875,-0.070312 -0.46875,-0.1640625 0,-0.070312 0.011719,-0.1289063 0.035156,-0.2226563 z m -2.7539062,4.18359378 c -0.5976563,0 -0.6445313,-0.7734375 -0.6445313,-0.93749998 0,-0.4804688 0.2929688,-1.5703125 0.4570313,-1.9804688 0.3164062,-0.7382812 0.8320312,-1.1601562 1.2421875,-1.1601562 0.6445312,0 0.7851562,0.8085937 0.7851562,0.8789062 0,0.058594 -0.5507812,2.2382813 -0.5742187,2.2734375 -0.1523438,0.28125003 -0.7148438,0.92578128 -1.265625,0.92578128 z m 0,0"
         style="fill:#000000;fill-opacity:1;fill-rule:nonzero;stroke:none" />
      <path
         id="path11"
         d="M 7.9639766,0.22778125 H 7.7296016 C 7.7061641,0.380125 7.6475703,0.79028125 7.5538203,0.86059375 7.4952266,0.89575 6.9561641,0.89575 6.8624141,0.89575 H 5.5733516 C 6.3116328,0.25121875 6.5577266,0.052 6.9678828,-0.276125 c 0.515625,-0.41015625 0.9960938,-0.84375 0.9960938,-1.5 0,-0.84375 -0.7382813,-1.359375 -1.6289063,-1.359375 -0.8671875,0 -1.453125,0.609375 -1.453125,1.2421875 0,0.3632813 0.3046875,0.3984375 0.375,0.3984375 0.1640625,0 0.375,-0.1171875 0.375,-0.375 0,-0.1289062 -0.058594,-0.3632812 -0.421875,-0.3632812 0.2226563,-0.5039063 0.6914063,-0.65625 1.0195313,-0.65625 0.703125,0 1.0664062,0.5507812 1.0664062,1.1132812 0,0.609375 -0.4335937,1.08984375 -0.65625,1.3359375 l -1.6875,1.6640625 c -0.070312,0.058594 -0.070312,0.070312 -0.070312,0.2695313 h 2.8828125 z m 0,0"
         style="fill:#000000;fill-opacity:1;fill-rule:nonzero;stroke:none" />
    </g>
    <g
       id="g11"
       aria-label="−2µC"
       transform="matrix(1.3333333,0,0,1.3333333,188.376,134.75867)">
      <path
         id="path12"
         d="m 5.5656563,-1.8053281 c 0.1289062,0 0.3046875,0 0.3046875,-0.1875 0,-0.1875 -0.1757813,-0.1875 -0.3046875,-0.1875 H 1.0070625 c -0.12890625,0 -0.3046875,0 -0.3046875,0.1875 0,0.1875 0.17578125,0.1875 0.3046875,0.1875 z m 0,0"
         style="fill:#0000cc;fill-opacity:1;fill-rule:nonzero;stroke:none" />
      <path
         id="path13"
         d="m 8.8381172,-1.6295469 c 0.1289062,-0.1171875 0.4570312,-0.375 0.5859375,-0.4921875 0.4921875,-0.4570312 0.9609373,-0.890625 0.9609373,-1.6171875 0,-0.9492187 -0.7968748,-1.5585937 -1.7929686,-1.5585937 -0.9492187,0 -1.5820312,0.7265625 -1.5820312,1.4296875 0,0.3984375 0.3164062,0.4453125 0.421875,0.4453125 0.1640625,0 0.4101562,-0.1171875 0.4101562,-0.421875 0,-0.4101563 -0.3984375,-0.4101563 -0.4921875,-0.4101563 0.234375,-0.5859375 0.7734375,-0.7851562 1.1601563,-0.7851562 0.7382812,0 1.125,0.6328125 1.125,1.3007812 0,0.8320313 -0.5859375,1.4296875 -1.5234375,2.4023438 l -1.0078125,1.03124997 c -0.09375,0.09375 -0.09375,0.10546875 -0.09375,0.304687505 H 10.162336 L 10.384992,-1.4303281 h -0.246094 c -0.02344,0.1640625 -0.08203,0.56249997 -0.1757808,0.71484372 -0.046875,0.0585938 -0.65625,0.0585938 -0.7851563,0.0585938 H 7.7599922 Z m 0,0"
         style="fill:#0000cc;fill-opacity:1;fill-rule:nonzero;stroke:none" />
      <path
         id="path14"
         d="m 14.164289,-2.8131406 c 0.03516,-0.1523438 0.09375,-0.4101563 0.09375,-0.4570313 0,-0.1640625 -0.117187,-0.2460937 -0.257812,-0.2460937 -0.269532,0 -0.339844,0.2695312 -0.363282,0.375 l -1.113281,4.4179687 c -0.03516,0.1289063 -0.03516,0.1757813 -0.03516,0.1875 0,0.1992188 0.164062,0.2460938 0.257812,0.2460938 0.04687,0 0.222657,0 0.328125,-0.2109375 0.02344,-0.070312 0.257813,-1.01953128 0.410157,-1.65234378 0.140625,0.10546875 0.410156,0.234375 0.820312,0.234375 0.65625,0 1.078125,-0.5390625 1.101563,-0.5625 0.152343,0.5390625 0.691406,0.5625 0.785156,0.5625 0.363281,0 0.550781,-0.3046875 0.609375,-0.4453125 0.164062,-0.28125 0.269531,-0.75000002 0.269531,-0.77343752 0,-0.046875 -0.02344,-0.1054687 -0.117187,-0.1054687 -0.105469,0 -0.117188,0.046875 -0.164063,0.24609372 -0.117187,0.43359375 -0.257812,0.85546875 -0.574219,0.85546875 -0.1875,0 -0.257812,-0.15234375 -0.257812,-0.375 0,-0.140625 0.09375,-0.48046875 0.140625,-0.71484377 l 0.210937,-0.8085937 c 0.04687,-0.2109375 0.09375,-0.375 0.152344,-0.609375 0.03516,-0.1757813 0.117188,-0.4921875 0.117188,-0.5390625 0,-0.1992188 -0.152344,-0.2460938 -0.246094,-0.2460938 -0.28125,0 -0.328125,0.1992188 -0.421875,0.5625 l -0.164063,0.65625 -0.246093,0.9960938 -0.08203,0.31640622 c -0.01172,0.046875 -0.234375,0.3515625 -0.410156,0.50390625 -0.140625,0.10546875 -0.375,0.2578125 -0.667969,0.2578125 -0.375,0 -0.632812,-0.19921875 -0.632812,-0.69140625 0,-0.21093752 0.07031,-0.44531252 0.117187,-0.64453122 z m 0,0"
         style="fill:#0000cc;fill-opacity:1;fill-rule:nonzero;stroke:none" />
      <path
         id="path15"
         d="m 22.96507,-5.4029844 c 0,-0.1289062 0,-0.2109375 -0.105468,-0.2109375 -0.05859,0 -0.07031,0.011719 -0.140625,0.1171875 l -0.398438,0.5859375 c -0.292969,-0.3046875 -0.820312,-0.703125 -1.582031,-0.703125 -1.605469,0 -2.941406,1.2890625 -2.941406,2.8828125 0,1.6171875 1.335937,2.89453127 2.953125,2.89453127 1.335937,0 2.214843,-1.0546875 2.214843,-2.02734377 0,-0.082031 0,-0.1523437 -0.128906,-0.1523437 -0.09375,0 -0.117187,0.035156 -0.117187,0.1171875 -0.07031,1.23046872 -1.054688,1.80468747 -1.898438,1.80468747 -0.679687,0 -2.191406,-0.421875 -2.191406,-2.63671877 0,-2.1328125 1.429687,-2.6132812 2.191406,-2.6132812 0.75,0 1.675781,0.5273437 1.875,1.8984375 0.01172,0.070312 0.02344,0.1171875 0.128906,0.1171875 0.140625,0 0.140625,-0.046875 0.140625,-0.1992188 z m 0,0"
         style="fill:#0000cc;fill-opacity:1;fill-rule:nonzero;stroke:none" />
    </g>
    <path
       id="path16"
       d="m -74.98256,68.03217 c 0,5.55473 -4.5029,10.05761 -10.05763,10.05761 -5.55475,0 -10.05763,-4.50288 -10.05763,-10.05761 0,-5.55475 4.50288,-10.05764 10.05763,-10.05764 5.55473,0 10.05763,4.50289 10.05763,10.05764 z"
       style="fill:#ffcccc;fill-opacity:1;fill-rule:nonzero;stroke:#ff0000;stroke-width:0.79701;stroke-linecap:butt;stroke-linejoin:miter;stroke-miterlimit:10;stroke-dasharray:none;stroke-opacity:1"
       transform="matrix(1.3333333,0,0,-1.3333333,149.56933,117.93333)" />
    <g
       id="g16"
       aria-label="q&#10;3"
       transform="matrix(1.3333333,0,0,1.3333333,30.238667,28.793333)">
      <path
         id="path17"
         d="m 4.4997109,-4.2893359 c 0,-0.046875 -0.023437,-0.1054688 -0.09375,-0.1054688 -0.1171875,0 -0.515625,0.3984375 -0.6796875,0.6914063 -0.2226562,-0.5390625 -0.609375,-0.703125 -0.9257812,-0.703125 -1.171875,0 -2.40234376,1.4765625 -2.40234376,2.9179687 0,0.98437501 0.5859375,1.59375001 1.31249996,1.59375001 0.4335938,0 0.8203125,-0.234375 1.1835938,-0.59765625 -0.09375,0.3515625 -0.421875,1.69921874 -0.4570313,1.79296874 -0.082031,0.2695313 -0.1523437,0.3164063 -0.7148437,0.328125 -0.1289063,0 -0.2226563,0 -0.2226563,0.1992188 0,0 0,0.1054687 0.1289063,0.1054687 0.3164062,0 0.6679687,-0.035156 0.9960937,-0.035156 0.328125,0 0.6914063,0.035156 1.0195313,0.035156 0.046875,0 0.1757812,0 0.1757812,-0.1992187 0,-0.1054688 -0.09375,-0.1054688 -0.2578125,-0.1054688 -0.46875,0 -0.46875,-0.070312 -0.46875,-0.1640625 0,-0.070312 0.011719,-0.1289062 0.035156,-0.2226562 z m -2.7539062,4.18359371 c -0.5976563,0 -0.6445313,-0.7734375 -0.6445313,-0.93750001 0,-0.4804687 0.2929688,-1.5703125 0.4570313,-1.9804687 0.3164062,-0.7382813 0.8320312,-1.1601563 1.2421875,-1.1601563 0.6445312,0 0.7851562,0.8085938 0.7851562,0.8789063 0,0.058594 -0.5507812,2.2382812 -0.5742187,2.2734375 -0.1523438,0.28124996 -0.7148438,0.92578121 -1.265625,0.92578121 z m 0,0"
         style="fill:#000000;fill-opacity:1;fill-rule:nonzero;stroke:none" />
      <path
         id="path18"
         d="m 6.3454141,-0.83816406 c 0.5507812,0 0.9375,0.375 0.9375,1.125 0,0.86718746 -0.5039063,1.12499996 -0.9023438,1.12499996 -0.28125,0 -0.890625,-0.082031 -1.1835937,-0.49218746 0.328125,-0.0117188 0.3984375,-0.24609375 0.3984375,-0.38671875 0,-0.22265625 -0.1640625,-0.38671875 -0.3867188,-0.38671875 -0.1875,0 -0.3867187,0.1171875 -0.3867187,0.41015625 0,0.65625001 0.7265625,1.07812501 1.5703125,1.07812501 0.9726562,0 1.640625,-0.64453126 1.640625,-1.34765626 0,-0.5390625 -0.4453125,-1.08984375 -1.21875,-1.2421875 0.7382812,-0.26953124 0.9960937,-0.79687504 0.9960937,-1.21875004 0,-0.5507812 -0.6328125,-0.9609375 -1.40625,-0.9609375 -0.7734375,0 -1.359375,0.375 -1.359375,0.9375 0,0.234375 0.1523438,0.3632813 0.3632813,0.3632813 0.2109375,0 0.3515625,-0.1640625 0.3515625,-0.3515625 0,-0.1992188 -0.140625,-0.3515625 -0.3515625,-0.3632813 0.234375,-0.3046875 0.7148437,-0.3867187 0.9726562,-0.3867187 0.3164063,0 0.7617188,0.1523437 0.7617188,0.7617187 0,0.2929688 -0.1054688,0.609375 -0.28125,0.8320313 -0.234375,0.2578125 -0.421875,0.28125 -0.7734375,0.2929687 -0.1757813,0.023437 -0.1875,0.023437 -0.2226563,0.023437 -0.011719,0 -0.070312,0.011719 -0.070312,0.09375 0,0.09375 0.058594,0.09375 0.1757813,0.09375 z m 0,0"
         style="fill:#000000;fill-opacity:1;fill-rule:nonzero;stroke:none" />
    </g>
    <g
       id="g18"
       aria-label="+10µC"
       transform="matrix(1.3333333,0,0,1.3333333,17.710667,53.105333)">
      <path
         id="path19"
         d="m 3.4689531,-1.8045859 h 2.34375 c 0.1171875,0 0.2929688,0 0.2929688,-0.1875 0,-0.1875 -0.1757813,-0.1875 -0.2929688,-0.1875 h -2.34375 v -2.34375 c 0,-0.1171875 0,-0.2929688 -0.1757812,-0.2929688 -0.1875,0 -0.1875,0.1757813 -0.1875,0.2929688 v 2.34375 H 0.76192188 c -0.1171875,0 -0.29296875,0 -0.29296875,0.1875 0,0.1875 0.17578125,0.1875 0.29296875,0.1875 H 3.1056719 v 2.34374996 c 0,0.1171875 0,0.29296875 0.1875,0.29296875 0.1757812,0 0.1757812,-0.17578125 0.1757812,-0.29296875 z m 5.625,-3.2695313 c 0,-0.2226562 -0.023437,-0.2226562 -0.234375,-0.2226562 -0.328125,0.3164062 -0.75,0.5039062 -1.5117187,0.5039062 v 0.2695313 c 0.2226562,0 0.6445312,0 1.1132812,-0.2226563 v 4.08984376 c 0,0.29296875 -0.023437,0.3984375 -0.7851562,0.3984375 h -0.28125 V 1.015625e-4 C 7.7228594,-0.02333594 8.4142656,-0.02333594 8.7658281,-0.02333594 c 0.3632813,0 1.0546875,0 1.3828129,0.0234375025 V -0.25771094 H 9.8673906 c -0.75,0 -0.7734375,-0.10546875 -0.7734375,-0.3984375 z m 5.6308599,2.53125 c 0,-0.8554687 -0.09375,-1.3710937 -0.351563,-1.875 -0.351562,-0.703125 -0.996094,-0.8789062 -1.441406,-0.8789062 -0.996094,0 -1.371094,0.75 -1.476563,0.9726562 -0.292968,0.5742188 -0.304687,1.3710938 -0.304687,1.78125 0,0.5273438 0.02344,1.3359375 0.410156,1.96875001 0.363281,0.5859375 0.949219,0.73828125 1.371094,0.73828125 0.386719,0 1.066406,-0.1171875 1.464844,-0.90234375 0.292968,-0.57421871 0.328125,-1.28906251 0.328125,-1.80468751 z m -1.792969,2.48437501 c -0.269531,0 -0.820313,-0.12890625 -0.984375,-0.96093751 -0.09375,-0.4570312 -0.09375,-1.2070312 -0.09375,-1.6171875 0,-0.5507812 0,-1.1132812 0.09375,-1.546875 0.164062,-0.8085937 0.785156,-0.890625 0.984375,-0.890625 0.269531,0 0.820312,0.1289063 0.984375,0.8554688 0.09375,0.4453125 0.09375,1.0429687 0.09375,1.5820312 0,0.46875 0,1.1835938 -0.09375,1.6289063 -0.164063,0.84374996 -0.714844,0.94921871 -0.984375,0.94921871 z m 0,0"
         style="fill:#cc0000;fill-opacity:1;fill-rule:nonzero;stroke:none" />
      <path
         id="path20"
         d="m 18.398641,-2.8123984 c 0.03516,-0.1523438 0.09375,-0.4101563 0.09375,-0.4570313 0,-0.1640625 -0.117188,-0.2460937 -0.257813,-0.2460937 -0.269531,0 -0.339844,0.2695312 -0.363281,0.375 l -1.113281,4.4179687 c -0.03516,0.1289063 -0.03516,0.1757813 -0.03516,0.1875 0,0.1992188 0.164063,0.2460938 0.257813,0.2460938 0.04687,0 0.222656,0 0.328125,-0.2109375 0.02344,-0.070312 0.257812,-1.01953129 0.410156,-1.65234379 0.140625,0.10546875 0.410156,0.234375 0.820313,0.234375 0.65625,0 1.078125,-0.5390625 1.101562,-0.5625 0.152344,0.5390625 0.691406,0.5625 0.785156,0.5625 0.363282,0 0.550782,-0.3046875 0.609375,-0.4453125 0.164063,-0.28125 0.269532,-0.75000001 0.269532,-0.77343751 0,-0.046875 -0.02344,-0.1054687 -0.117188,-0.1054687 -0.105469,0 -0.117187,0.046875 -0.164062,0.24609371 -0.117188,0.43359375 -0.257813,0.85546875 -0.574219,0.85546875 -0.1875,0 -0.257813,-0.15234375 -0.257813,-0.375 0,-0.140625 0.09375,-0.48046875 0.140625,-0.71484376 l 0.210938,-0.8085937 c 0.04687,-0.2109375 0.09375,-0.375 0.152344,-0.609375 0.03516,-0.1757813 0.117187,-0.4921875 0.117187,-0.5390625 0,-0.1992188 -0.152344,-0.2460938 -0.246094,-0.2460938 -0.28125,0 -0.328125,0.1992188 -0.421875,0.5625 l -0.164062,0.65625 -0.246094,0.9960938 -0.08203,0.31640621 c -0.01172,0.046875 -0.234375,0.3515625 -0.410156,0.50390625 -0.140625,0.10546875 -0.375,0.2578125 -0.667969,0.2578125 -0.375,0 -0.632813,-0.19921875 -0.632813,-0.69140625 0,-0.21093751 0.07031,-0.44531251 0.117188,-0.64453121 z m 0,0"
         style="fill:#cc0000;fill-opacity:1;fill-rule:nonzero;stroke:none" />
      <path
         id="path21"
         d="m 27.196492,-5.4022422 c 0,-0.1289062 0,-0.2109375 -0.105469,-0.2109375 -0.05859,0 -0.07031,0.011719 -0.140625,0.1171875 l -0.398437,0.5859375 c -0.292969,-0.3046875 -0.820313,-0.703125 -1.582031,-0.703125 -1.605469,0 -2.941407,1.2890625 -2.941407,2.8828125 0,1.6171875 1.335938,2.89453126 2.953125,2.89453126 1.335938,0 2.214844,-1.0546875 2.214844,-2.02734376 0,-0.082031 0,-0.1523437 -0.128906,-0.1523437 -0.09375,0 -0.117188,0.035156 -0.117188,0.1171875 -0.07031,1.23046871 -1.054687,1.80468746 -1.898437,1.80468746 -0.679688,0 -2.191406,-0.421875 -2.191406,-2.63671876 0,-2.1328125 1.429687,-2.6132812 2.191406,-2.6132812 0.75,0 1.675781,0.5273437 1.875,1.8984375 0.01172,0.070312 0.02344,0.1171875 0.128906,0.1171875 0.140625,0 0.140625,-0.046875 0.140625,-0.1992188 z m 0,0"
         style="fill:#cc0000;fill-opacity:1;fill-rule:nonzero;stroke:none" />
    </g>
    <path
       id="path22"
       d="m 129.1139,27.21295 c 0,5.55473 -4.50288,10.05762 -10.05763,10.05762 -5.55473,0 -10.05763,-4.50289 -10.05763,-10.05762 0,-5.55475 4.5029,-10.05763 10.05763,-10.05763 5.55475,0 10.05763,4.50288 10.05763,10.05763 z"
       style="fill:#ccccff;fill-opacity:1;fill-rule:nonzero;stroke:#0000ff;stroke-width:0.79701;stroke-linecap:butt;stroke-linejoin:miter;stroke-miterlimit:10;stroke-dasharray:none;stroke-opacity:1"
       transform="matrix(1.3333333,0,0,-1.3333333,149.56933,117.93333)" />
    <g
       id="g22"
       aria-label="q&#10;4"
       transform="matrix(1.3333333,0,0,1.3333333,302.364,83.217333)">
      <path
         id="path23"
         d="m 4.4994609,-4.288 c 0,-0.046875 -0.023437,-0.1054687 -0.09375,-0.1054687 -0.1171875,0 -0.515625,0.3984375 -0.6796875,0.6914062 -0.2226562,-0.5390625 -0.609375,-0.703125 -0.9257812,-0.703125 -1.171875,0 -2.40234376,1.4765625 -2.40234376,2.9179688 0,0.98437495 0.5859375,1.59374995 1.31249996,1.59374995 0.4335938,0 0.8203125,-0.234375 1.1835938,-0.59765625 -0.09375,0.3515625 -0.421875,1.6992188 -0.4570313,1.7929688 -0.082031,0.2695312 -0.1523437,0.3164062 -0.7148437,0.328125 -0.1289063,0 -0.2226563,0 -0.2226563,0.1992187 0,0 0,0.1054688 0.1289063,0.1054688 0.3164062,0 0.6679687,-0.035156 0.9960937,-0.035156 0.328125,0 0.6914063,0.035156 1.0195313,0.035156 0.046875,0 0.1757812,0 0.1757812,-0.1992188 0,-0.1054687 -0.09375,-0.1054687 -0.2578125,-0.1054687 -0.46875,0 -0.46875,-0.070312 -0.46875,-0.1640625 0,-0.070312 0.011719,-0.1289063 0.035156,-0.2226563 z m -2.7539062,4.18359375 c -0.5976563,0 -0.6445313,-0.7734375 -0.6445313,-0.93749995 0,-0.4804688 0.2929688,-1.5703125 0.4570313,-1.9804688 0.3164062,-0.7382812 0.8320312,-1.1601562 1.2421875,-1.1601562 0.6445312,0 0.7851562,0.8085937 0.7851562,0.8789062 0,0.058594 -0.5507812,2.2382813 -0.5742187,2.2734375 -0.1523438,0.28125 -0.7148438,0.92578125 -1.265625,0.92578125 z m 0,0"
         style="fill:#000000;fill-opacity:1;fill-rule:nonzero;stroke:none" />
      <path
         id="path24"
         d="M 8.1381328,0.34676563 V 0.10067188 H 7.3646953 V -3.0047969 c 0,-0.1523437 0,-0.1992187 -0.1523437,-0.1992187 -0.09375,0 -0.1171875,0 -0.1875,0.09375 L 4.7162578,0.10067188 v 0.24609375 h 2.0507813 v 0.57421875 c 0,0.23437502 0,0.32812502 -0.5625,0.32812502 h -0.1875 v 0.2460937 c 0.3515625,-0.011719 0.796875,-0.023437 1.0429687,-0.023437 0.2578125,0 0.703125,0.011719 1.0546875,0.023437 V 1.2491094 h -0.1875 c -0.5625,0 -0.5625,-0.09375 -0.5625,-0.32812502 V 0.34676563 Z M 6.8139141,-2.4540156 V 0.10067188 H 4.9740703 Z m 0,0"
         style="fill:#000000;fill-opacity:1;fill-rule:nonzero;stroke:none" />
    </g>
    <g
       id="g24"
       aria-label="−4µC"
       transform="matrix(1.3333333,0,0,1.3333333,292.71067,107.54133)">
      <path
         id="path25"
         d="m 5.5666094,-1.8034609 c 0.1289062,0 0.3046875,0 0.3046875,-0.1875 0,-0.1875 -0.1757813,-0.1875 -0.3046875,-0.1875 H 1.0080156 c -0.12890622,0 -0.30468747,0 -0.30468747,0.1875 0,0.1875 0.17578125,0.1875 0.30468747,0.1875 z m 0,0"
         style="fill:#0000cc;fill-opacity:1;fill-rule:nonzero;stroke:none" />
      <path
         id="path26"
         d="m 9.7267656,-5.1550234 c 0,-0.1640625 0,-0.2226563 -0.1640625,-0.2226563 -0.1054687,0 -0.1171875,0.011719 -0.1992187,0.1171875 l -2.5429688,3.6914063 v 0.2578125 h 2.25 v 0.66796871 c 0,0.29296875 -0.023437,0.38671875 -0.6328125,0.38671875 h -0.1875 v 0.2578125 c 0.6796875,-0.0234375 0.6914063,-0.0234375 1.1484375,-0.0234375 0.4570313,0 0.46875,0 1.1484374,0.0234375 v -0.2578125 h -0.1875 c -0.6093749,0 -0.6328124,-0.09375 -0.6328124,-0.38671875 V -1.3112734 H 10.570516 V -1.5690859 H 9.7267656 Z m -0.5976562,0.6445312 v 2.9414063 H 7.1017656 Z m 0,0"
         style="fill:#0000cc;fill-opacity:1;fill-rule:nonzero;stroke:none" />
      <path
         id="path27"
         d="m 14.165242,-2.8112734 c 0.03516,-0.1523438 0.09375,-0.4101563 0.09375,-0.4570313 0,-0.1640625 -0.117187,-0.2460937 -0.257812,-0.2460937 -0.269532,0 -0.339844,0.2695312 -0.363282,0.375 l -1.113281,4.4179687 c -0.03516,0.1289063 -0.03516,0.1757813 -0.03516,0.1875 0,0.1992188 0.164062,0.2460938 0.257812,0.2460938 0.04687,0 0.222657,0 0.328125,-0.2109375 0.02344,-0.070312 0.257813,-1.01953129 0.410157,-1.65234379 0.140625,0.10546875 0.410156,0.234375 0.820312,0.234375 0.65625,0 1.078125,-0.5390625 1.101563,-0.5625 0.152343,0.5390625 0.691406,0.5625 0.785156,0.5625 0.363281,0 0.550781,-0.3046875 0.609375,-0.4453125 0.164062,-0.28125 0.269531,-0.75000001 0.269531,-0.77343751 0,-0.046875 -0.02344,-0.1054687 -0.117187,-0.1054687 -0.105469,0 -0.117188,0.046875 -0.164063,0.24609371 -0.117187,0.43359375 -0.257812,0.85546875 -0.574219,0.85546875 -0.1875,0 -0.257812,-0.15234375 -0.257812,-0.375 0,-0.140625 0.09375,-0.48046875 0.140625,-0.71484376 l 0.210937,-0.8085937 c 0.04687,-0.2109375 0.09375,-0.375 0.152344,-0.609375 0.03516,-0.1757813 0.117188,-0.4921875 0.117188,-0.5390625 0,-0.1992188 -0.152344,-0.2460938 -0.246094,-0.2460938 -0.28125,0 -0.328125,0.1992188 -0.421875,0.5625 l -0.164063,0.65625 -0.246093,0.9960938 -0.08203,0.31640621 c -0.01172,0.046875 -0.234375,0.3515625 -0.410156,0.50390625 -0.140625,0.10546875 -0.375,0.2578125 -0.667969,0.2578125 -0.375,0 -0.632812,-0.19921875 -0.632812,-0.69140625 0,-0.21093751 0.07031,-0.44531251 0.117187,-0.64453121 z m 0,0"
         style="fill:#0000cc;fill-opacity:1;fill-rule:nonzero;stroke:none" />
      <path
         id="path28"
         d="m 22.963094,-5.4011172 c 0,-0.1289062 0,-0.2109375 -0.105469,-0.2109375 -0.05859,0 -0.07031,0.011719 -0.140625,0.1171875 l -0.398437,0.5859375 c -0.292969,-0.3046875 -0.820313,-0.703125 -1.582032,-0.703125 -1.605468,0 -2.941406,1.2890625 -2.941406,2.8828125 0,1.6171875 1.335938,2.89453126 2.953125,2.89453126 1.335938,0 2.214844,-1.0546875 2.214844,-2.02734376 0,-0.082031 0,-0.1523437 -0.128906,-0.1523437 -0.09375,0 -0.117188,0.035156 -0.117188,0.1171875 -0.07031,1.23046871 -1.054687,1.80468746 -1.898437,1.80468746 -0.679688,0 -2.191407,-0.421875 -2.191407,-2.63671876 0,-2.1328125 1.429688,-2.6132812 2.191407,-2.6132812 0.75,0 1.675781,0.5273437 1.875,1.8984375 0.01172,0.070312 0.02344,0.1171875 0.128906,0.1171875 0.140625,0 0.140625,-0.046875 0.140625,-0.1992188 z m 0,0"
         style="fill:#0000cc;fill-opacity:1;fill-rule:nonzero;stroke:none" />
    </g>
  </g>
</svg>
