<?xml version="1.0" encoding="UTF-8" standalone="no"?>
<!-- Created with Inkscape (http://www.inkscape.org/) -->

<svg
   version="1.1"
   id="svg1"
   width="156.57687"
   height="152.24567"
   viewBox="0 0 156.57687 152.24567"
   xmlns="http://www.w3.org/2000/svg"
   xmlns:svg="http://www.w3.org/2000/svg">
  <defs
     id="defs1" />
  <g
     id="g1"
     transform="translate(-13.282501,-13.282501)">
    <path
       id="path1"
       d="m 56.69362,0 c 0,31.31142 -25.3822,56.69362 -56.69362,56.69362 -31.31142,0 -56.69362,-25.3822 -56.69362,-56.69362 0,-31.31142 25.3822,-56.69362 56.69362,-56.69362 31.31142,0 56.69362,25.3822 56.69362,56.69362 z"
       style="fill:none;stroke:#000000;stroke-width:0.79701;stroke-linecap:butt;stroke-linejoin:miter;stroke-miterlimit:10;stroke-dasharray:none;stroke-opacity:1"
       transform="matrix(1.3333333,0,0,-1.3333333,89.405333,89.405333)" />
    <path
       id="path2"
       d="M 42.5202,0 H 53.85875"
       style="fill:none;stroke:#e63946;stroke-width:0.79701;stroke-linecap:butt;stroke-linejoin:miter;stroke-miterlimit:10;stroke-dasharray:none;stroke-opacity:1"
       transform="matrix(1.3333333,0,0,-1.3333333,89.405333,89.405333)" />
    <path
       id="path3"
       d="M 48.18947,-5.66927 V 5.66927"
       style="fill:none;stroke:#e63946;stroke-width:0.79701;stroke-linecap:butt;stroke-linejoin:miter;stroke-miterlimit:10;stroke-dasharray:none;stroke-opacity:1"
       transform="matrix(1.3333333,0,0,-1.3333333,89.405333,89.405333)" />
    <path
       id="path4"
       d="M 39.61398,16.48184 H 50.95253"
       style="fill:none;stroke:#e63946;stroke-width:0.79701;stroke-linecap:butt;stroke-linejoin:miter;stroke-miterlimit:10;stroke-dasharray:none;stroke-opacity:1"
       transform="matrix(1.3333333,0,0,-1.3333333,89.405333,89.405333)" />
    <path
       id="path5"
       d="M 45.28325,10.81256 V 22.15111"
       style="fill:none;stroke:#e63946;stroke-width:0.79701;stroke-linecap:butt;stroke-linejoin:miter;stroke-miterlimit:10;stroke-dasharray:none;stroke-opacity:1"
       transform="matrix(1.3333333,0,0,-1.3333333,89.405333,89.405333)" />
    <path
       id="path6"
       d="M 31.24522,30.97575 H 42.58377"
       style="fill:none;stroke:#e63946;stroke-width:0.79701;stroke-linecap:butt;stroke-linejoin:miter;stroke-miterlimit:10;stroke-dasharray:none;stroke-opacity:1"
       transform="matrix(1.3333333,0,0,-1.3333333,89.405333,89.405333)" />
    <path
       id="path7"
       d="M 36.9145,25.30649 V 36.64503"
       style="fill:none;stroke:#e63946;stroke-width:0.79701;stroke-linecap:butt;stroke-linejoin:miter;stroke-miterlimit:10;stroke-dasharray:none;stroke-opacity:1"
       transform="matrix(1.3333333,0,0,-1.3333333,89.405333,89.405333)" />
    <path
       id="path8"
       d="M 18.42525,41.7334 H 29.7638"
       style="fill:none;stroke:#e63946;stroke-width:0.79701;stroke-linecap:butt;stroke-linejoin:miter;stroke-miterlimit:10;stroke-dasharray:none;stroke-opacity:1"
       transform="matrix(1.3333333,0,0,-1.3333333,89.405333,89.405333)" />
    <path
       id="path9"
       d="M 24.09451,36.06413 V 47.40268"
       style="fill:none;stroke:#e63946;stroke-width:0.79701;stroke-linecap:butt;stroke-linejoin:miter;stroke-miterlimit:10;stroke-dasharray:none;stroke-opacity:1"
       transform="matrix(1.3333333,0,0,-1.3333333,89.405333,89.405333)" />
    <path
       id="path10"
       d="M 2.69817,47.45763 H 14.03671"
       style="fill:none;stroke:#e63946;stroke-width:0.79701;stroke-linecap:butt;stroke-linejoin:miter;stroke-miterlimit:10;stroke-dasharray:none;stroke-opacity:1"
       transform="matrix(1.3333333,0,0,-1.3333333,89.405333,89.405333)" />
    <path
       id="path11"
       d="M 8.36743,41.78835 V 53.12689"
       style="fill:none;stroke:#e63946;stroke-width:0.79701;stroke-linecap:butt;stroke-linejoin:miter;stroke-miterlimit:10;stroke-dasharray:none;stroke-opacity:1"
       transform="matrix(1.3333333,0,0,-1.3333333,89.405333,89.405333)" />
    <path
       id="path12"
       d="M -14.03671,47.45763 H -2.69817"
       style="fill:none;stroke:#e63946;stroke-width:0.79701;stroke-linecap:butt;stroke-linejoin:miter;stroke-miterlimit:10;stroke-dasharray:none;stroke-opacity:1"
       transform="matrix(1.3333333,0,0,-1.3333333,89.405333,89.405333)" />
    <path
       id="path13"
       d="M -8.36743,41.78835 V 53.12689"
       style="fill:none;stroke:#e63946;stroke-width:0.79701;stroke-linecap:butt;stroke-linejoin:miter;stroke-miterlimit:10;stroke-dasharray:none;stroke-opacity:1"
       transform="matrix(1.3333333,0,0,-1.3333333,89.405333,89.405333)" />
    <path
       id="path14"
       d="m -29.7638,41.7334 h 11.33855"
       style="fill:none;stroke:#e63946;stroke-width:0.79701;stroke-linecap:butt;stroke-linejoin:miter;stroke-miterlimit:10;stroke-dasharray:none;stroke-opacity:1"
       transform="matrix(1.3333333,0,0,-1.3333333,89.405333,89.405333)" />
    <path
       id="path15"
       d="M -24.09451,36.06413 V 47.40268"
       style="fill:none;stroke:#e63946;stroke-width:0.79701;stroke-linecap:butt;stroke-linejoin:miter;stroke-miterlimit:10;stroke-dasharray:none;stroke-opacity:1"
       transform="matrix(1.3333333,0,0,-1.3333333,89.405333,89.405333)" />
    <path
       id="path16"
       d="m -42.58377,30.97575 h 11.33855"
       style="fill:none;stroke:#e63946;stroke-width:0.79701;stroke-linecap:butt;stroke-linejoin:miter;stroke-miterlimit:10;stroke-dasharray:none;stroke-opacity:1"
       transform="matrix(1.3333333,0,0,-1.3333333,89.405333,89.405333)" />
    <path
       id="path17"
       d="M -36.9145,25.30649 V 36.64503"
       style="fill:none;stroke:#e63946;stroke-width:0.79701;stroke-linecap:butt;stroke-linejoin:miter;stroke-miterlimit:10;stroke-dasharray:none;stroke-opacity:1"
       transform="matrix(1.3333333,0,0,-1.3333333,89.405333,89.405333)" />
    <path
       id="path18"
       d="m -50.95253,16.48184 h 11.33855"
       style="fill:none;stroke:#e63946;stroke-width:0.79701;stroke-linecap:butt;stroke-linejoin:miter;stroke-miterlimit:10;stroke-dasharray:none;stroke-opacity:1"
       transform="matrix(1.3333333,0,0,-1.3333333,89.405333,89.405333)" />
    <path
       id="path19"
       d="M -45.28325,10.81256 V 22.15111"
       style="fill:none;stroke:#e63946;stroke-width:0.79701;stroke-linecap:butt;stroke-linejoin:miter;stroke-miterlimit:10;stroke-dasharray:none;stroke-opacity:1"
       transform="matrix(1.3333333,0,0,-1.3333333,89.405333,89.405333)" />
    <path
       id="path20"
       d="M -53.85875,0 H -42.5202"
       style="fill:none;stroke:#e63946;stroke-width:0.79701;stroke-linecap:butt;stroke-linejoin:miter;stroke-miterlimit:10;stroke-dasharray:none;stroke-opacity:1"
       transform="matrix(1.3333333,0,0,-1.3333333,89.405333,89.405333)" />
    <path
       id="path21"
       d="M -48.18947,-5.66927 V 5.66927"
       style="fill:none;stroke:#e63946;stroke-width:0.79701;stroke-linecap:butt;stroke-linejoin:miter;stroke-miterlimit:10;stroke-dasharray:none;stroke-opacity:1"
       transform="matrix(1.3333333,0,0,-1.3333333,89.405333,89.405333)" />
    <path
       id="path22"
       d="m -50.95253,-16.48184 h 11.33855"
       style="fill:none;stroke:#e63946;stroke-width:0.79701;stroke-linecap:butt;stroke-linejoin:miter;stroke-miterlimit:10;stroke-dasharray:none;stroke-opacity:1"
       transform="matrix(1.3333333,0,0,-1.3333333,89.405333,89.405333)" />
    <path
       id="path23"
       d="m -45.28325,-22.15111 v 11.33855"
       style="fill:none;stroke:#e63946;stroke-width:0.79701;stroke-linecap:butt;stroke-linejoin:miter;stroke-miterlimit:10;stroke-dasharray:none;stroke-opacity:1"
       transform="matrix(1.3333333,0,0,-1.3333333,89.405333,89.405333)" />
    <path
       id="path24"
       d="m -42.58377,-30.97575 h 11.33855"
       style="fill:none;stroke:#e63946;stroke-width:0.79701;stroke-linecap:butt;stroke-linejoin:miter;stroke-miterlimit:10;stroke-dasharray:none;stroke-opacity:1"
       transform="matrix(1.3333333,0,0,-1.3333333,89.405333,89.405333)" />
    <path
       id="path25"
       d="m -36.9145,-36.64503 v 11.33854"
       style="fill:none;stroke:#e63946;stroke-width:0.79701;stroke-linecap:butt;stroke-linejoin:miter;stroke-miterlimit:10;stroke-dasharray:none;stroke-opacity:1"
       transform="matrix(1.3333333,0,0,-1.3333333,89.405333,89.405333)" />
    <path
       id="path26"
       d="m -29.7638,-41.7334 h 11.33855"
       style="fill:none;stroke:#e63946;stroke-width:0.79701;stroke-linecap:butt;stroke-linejoin:miter;stroke-miterlimit:10;stroke-dasharray:none;stroke-opacity:1"
       transform="matrix(1.3333333,0,0,-1.3333333,89.405333,89.405333)" />
    <path
       id="path27"
       d="m -24.09451,-47.40268 v 11.33855"
       style="fill:none;stroke:#e63946;stroke-width:0.79701;stroke-linecap:butt;stroke-linejoin:miter;stroke-miterlimit:10;stroke-dasharray:none;stroke-opacity:1"
       transform="matrix(1.3333333,0,0,-1.3333333,89.405333,89.405333)" />
    <path
       id="path28"
       d="M -14.03671,-47.45763 H -2.69817"
       style="fill:none;stroke:#e63946;stroke-width:0.79701;stroke-linecap:butt;stroke-linejoin:miter;stroke-miterlimit:10;stroke-dasharray:none;stroke-opacity:1"
       transform="matrix(1.3333333,0,0,-1.3333333,89.405333,89.405333)" />
    <path
       id="path29"
       d="m -8.36743,-53.12689 v 11.33854"
       style="fill:none;stroke:#e63946;stroke-width:0.79701;stroke-linecap:butt;stroke-linejoin:miter;stroke-miterlimit:10;stroke-dasharray:none;stroke-opacity:1"
       transform="matrix(1.3333333,0,0,-1.3333333,89.405333,89.405333)" />
    <path
       id="path30"
       d="M 2.69817,-47.45763 H 14.03671"
       style="fill:none;stroke:#e63946;stroke-width:0.79701;stroke-linecap:butt;stroke-linejoin:miter;stroke-miterlimit:10;stroke-dasharray:none;stroke-opacity:1"
       transform="matrix(1.3333333,0,0,-1.3333333,89.405333,89.405333)" />
    <path
       id="path31"
       d="m 8.36743,-53.12689 v 11.33854"
       style="fill:none;stroke:#e63946;stroke-width:0.79701;stroke-linecap:butt;stroke-linejoin:miter;stroke-miterlimit:10;stroke-dasharray:none;stroke-opacity:1"
       transform="matrix(1.3333333,0,0,-1.3333333,89.405333,89.405333)" />
    <path
       id="path32"
       d="M 18.42525,-41.7334 H 29.7638"
       style="fill:none;stroke:#e63946;stroke-width:0.79701;stroke-linecap:butt;stroke-linejoin:miter;stroke-miterlimit:10;stroke-dasharray:none;stroke-opacity:1"
       transform="matrix(1.3333333,0,0,-1.3333333,89.405333,89.405333)" />
    <path
       id="path33"
       d="m 24.09451,-47.40268 v 11.33855"
       style="fill:none;stroke:#e63946;stroke-width:0.79701;stroke-linecap:butt;stroke-linejoin:miter;stroke-miterlimit:10;stroke-dasharray:none;stroke-opacity:1"
       transform="matrix(1.3333333,0,0,-1.3333333,89.405333,89.405333)" />
    <path
       id="path34"
       d="M 31.24522,-30.97575 H 42.58377"
       style="fill:none;stroke:#e63946;stroke-width:0.79701;stroke-linecap:butt;stroke-linejoin:miter;stroke-miterlimit:10;stroke-dasharray:none;stroke-opacity:1"
       transform="matrix(1.3333333,0,0,-1.3333333,89.405333,89.405333)" />
    <path
       id="path35"
       d="m 36.9145,-36.64503 v 11.33854"
       style="fill:none;stroke:#e63946;stroke-width:0.79701;stroke-linecap:butt;stroke-linejoin:miter;stroke-miterlimit:10;stroke-dasharray:none;stroke-opacity:1"
       transform="matrix(1.3333333,0,0,-1.3333333,89.405333,89.405333)" />
    <path
       id="path36"
       d="M 39.61398,-16.48184 H 50.95253"
       style="fill:none;stroke:#e63946;stroke-width:0.79701;stroke-linecap:butt;stroke-linejoin:miter;stroke-miterlimit:10;stroke-dasharray:none;stroke-opacity:1"
       transform="matrix(1.3333333,0,0,-1.3333333,89.405333,89.405333)" />
    <path
       id="path37"
       d="m 45.28325,-22.15111 v 11.33855"
       style="fill:none;stroke:#e63946;stroke-width:0.79701;stroke-linecap:butt;stroke-linejoin:miter;stroke-miterlimit:10;stroke-dasharray:none;stroke-opacity:1"
       transform="matrix(1.3333333,0,0,-1.3333333,89.405333,89.405333)" />
    <path
       id="path38"
       d="M 0,0 49.09824,28.3468"
       style="fill:none;stroke:#000000;stroke-width:0.79701;stroke-linecap:butt;stroke-linejoin:miter;stroke-miterlimit:10;stroke-dasharray:none;stroke-opacity:1"
       transform="matrix(1.3333333,0,0,-1.3333333,89.405333,89.405333)" />
    <path
       id="path39"
       d="m 3.738375,-6.1169297 c 0.058594,-0.234375 0.082031,-0.3398437 0.28125,-0.3632812 0.082031,-0.011719 0.3984375,-0.011719 0.5976563,-0.011719 0.7148437,0 1.8164062,0 1.8164062,0.984375 0,0.3398438 -0.1523437,1.0195313 -0.5507812,1.4179688 C 5.6250938,-3.8317734 5.09775,-3.5153672 4.207125,-3.5153672 H 3.0938438 Z m 1.4296875,2.7304688 c 1.0078125,-0.2226563 2.1914063,-0.9140625 2.1914063,-1.921875 0,-0.8554688 -0.890625,-1.5 -2.203125,-1.5 H 2.3204063 c -0.1992188,0 -0.2929688,0 -0.2929688,0.1992187 0,0.1171875 0.09375,0.1171875 0.28125,0.1171875 0.023437,0 0.2109375,0 0.3867188,0.011719 0.1757812,0.023437 0.2578125,0.035156 0.2578125,0.1640625 0,0.035156 0,0.070312 -0.035156,0.1875 L 1.582125,-0.77317969 c -0.09375,0.38671875 -0.1171875,0.46875 -0.90234375,0.46875 -0.17578125,0 -0.26953125,0 -0.26953125,0.19921875 0,0.1054687525 0.1171875,0.1054687525 0.140625,0.1054687525 0.28125,0 0.9726563,-0.0351562525 1.2539063,-0.0351562525 0.28125,0 0.984375,0.0351562525 1.265625,0.0351562525 0.082031,0 0.1992187,0 0.1992187,-0.1992187525 0,-0.10546875 -0.09375,-0.10546875 -0.28125,-0.10546875 -0.3632812,0 -0.6445312,0 -0.6445312,-0.1875 0,-0.0585938 0.011719,-0.10546875 0.023437,-0.1640625 l 0.65625,-2.63671871 h 1.1953125 c 0.9023437,0 1.078125,0.5507812 1.078125,0.9023437 0,0.1523438 -0.082031,0.4570313 -0.140625,0.6914063 C 5.0860313,-1.4294297 5.004,-1.0544297 5.004,-0.85521094 c 0,1.078125 1.1953125,1.078125 1.3242188,1.078125 0.84375,0 1.1953125,-1.0078125 1.1953125,-1.1484375 0,-0.11718746 -0.1171875,-0.11718746 -0.1171875,-0.11718746 -0.09375,0 -0.1171875,0.0703125 -0.1289063,0.14062496 C 7.019625,-0.16380469 6.59775,2.578125e-4 6.363375,2.578125e-4 c -0.328125,0 -0.3984375,-0.2226562525 -0.3984375,-0.6093750025 0,-0.3046875 0.058594,-0.82031251 0.1054688,-1.13671871 0.011719,-0.140625 0.035156,-0.328125 0.035156,-0.46875 0,-0.7617188 -0.6679687,-1.078125 -0.9374998,-1.171875 z m 0,0"
       style="fill:#000000;fill-opacity:1;fill-rule:nonzero;stroke:none"
       aria-label="R"
       transform="matrix(1.3333333,0,0,1.3333333,159.828,46.652)" />
    <path
       id="path40"
       d="M 28.3468,0 C 28.3468,15.6557 15.6557,28.3468 0,28.3468 -15.6557,28.3468 -28.3468,15.6557 -28.3468,0 c 0,-15.6557 12.6911,-28.3468 28.3468,-28.3468 15.6557,0 28.3468,12.6911 28.3468,28.3468 z"
       style="fill:none;stroke:#f73bc5;stroke-width:0.79701;stroke-linecap:butt;stroke-linejoin:miter;stroke-miterlimit:10;stroke-dasharray:2.98883, 2.98883;stroke-dashoffset:0;stroke-opacity:1"
       transform="matrix(1.3333333,0,0,-1.3333333,89.405333,89.405333)" />
    <path
       id="path41"
       d="M 0,0 24.5491,-14.17339"
       style="fill:none;stroke:#f73bc5;stroke-width:0.79701;stroke-linecap:butt;stroke-linejoin:miter;stroke-miterlimit:10;stroke-dasharray:none;stroke-opacity:1"
       transform="matrix(1.3333333,0,0,-1.3333333,89.405333,89.405333)" />
    <path
       id="path42"
       d="m 0.87975781,-0.58703906 c -0.0351563,0.15234375 -0.09375,0.375 -0.09375,0.421875 0,0.1875 0.140625,0.26953125 0.29296879,0.26953125 0.1171875,0 0.2929687,-0.0703125 0.3632812,-0.26953125 0.023437,-0.046875 0.3632813,-1.39453124 0.3984375,-1.58203124 0.082031,-0.328125 0.2578125,-1.0195313 0.3164063,-1.2890625 0.046875,-0.1289063 0.328125,-0.5976563 0.5625,-0.8203125 0.082031,-0.070312 0.375,-0.328125 0.796875,-0.328125 0.2578125,0 0.4101562,0.1171875 0.421875,0.1171875 -0.3046875,0.046875 -0.515625,0.2929687 -0.515625,0.5507812 0,0.1640625 0.1054687,0.3515625 0.375,0.3515625 0.2695312,0 0.5507812,-0.234375 0.5507812,-0.5859375 0,-0.3515625 -0.328125,-0.65625 -0.8320312,-0.65625 -0.6445313,0 -1.0898438,0.4921875 -1.2773438,0.7734375 -0.082031,-0.4570312 -0.4335937,-0.7734375 -0.9023437,-0.7734375 -0.45703129,0 -0.64453129,0.3867188 -0.73828129,0.5742188 -0.17578125,0.3398437 -0.3046875,0.9375 -0.3046875,0.9609375 0,0.1054687 0.09375,0.1054687 0.1171875,0.1054687 0.09375,0 0.10546875,-0.011719 0.1640625,-0.234375 0.17578125,-0.703125 0.375,-1.1835937 0.72656249,-1.1835937 0.1757813,0 0.3164063,0.082031 0.3164063,0.4570312 0,0.2109375 -0.035156,0.3164063 -0.1640625,0.8320313 z m 0,0"
       style="fill:#f73bc5;fill-opacity:1;fill-rule:nonzero;stroke:none"
       aria-label="r"
       transform="matrix(1.3333333,0,0,1.3333333,110.72933,93.896)" />
    <path
       id="path43"
       d="M 1.4174,0 C 1.4174,0.78282 0.78282,1.4174 0,1.4174 -0.78282,1.4174 -1.4174,0.78282 -1.4174,0 c 0,-0.78282 0.63458,-1.4174 1.4174,-1.4174 0.78282,0 1.4174,0.63458 1.4174,1.4174 z"
       style="fill:#000000;fill-opacity:1;fill-rule:nonzero;stroke:none"
       transform="matrix(1.3333333,0,0,-1.3333333,89.405333,89.405333)" />
  </g>
</svg>
