<?xml version="1.0" encoding="UTF-8" standalone="no"?>
<!-- Created with Inkscape (http://www.inkscape.org/) -->

<svg
   version="1.1"
   id="svg1"
   width="152.24567"
   height="152.24567"
   viewBox="0 0 152.24567 152.24567"
   xmlns="http://www.w3.org/2000/svg"
   xmlns:svg="http://www.w3.org/2000/svg">
  <defs
     id="defs1" />
  <g
     id="g1"
     transform="translate(-13.282501,-13.282501)">
    <path
       id="path1"
       d="m 56.69362,0 c 0,31.31142 -25.3822,56.69362 -56.69362,56.69362 -31.31142,0 -56.69362,-25.3822 -56.69362,-56.69362 0,-31.31142 25.3822,-56.69362 56.69362,-56.69362 31.31142,0 56.69362,25.3822 56.69362,56.69362 z"
       style="fill:none;stroke:#000000;stroke-width:0.79701;stroke-linecap:butt;stroke-linejoin:miter;stroke-miterlimit:10;stroke-dasharray:none;stroke-opacity:1"
       transform="matrix(1.3333333,0,0,-1.3333333,89.405333,89.405333)" />
    <path
       id="path2"
       d="M 42.5202,0 H 53.85875"
       style="fill:none;stroke:#e63946;stroke-width:0.79701;stroke-linecap:butt;stroke-linejoin:miter;stroke-miterlimit:10;stroke-dasharray:none;stroke-opacity:1"
       transform="matrix(1.3333333,0,0,-1.3333333,89.405333,89.405333)" />
    <path
       id="path3"
       d="M 48.18947,-5.66927 V 5.66927"
       style="fill:none;stroke:#e63946;stroke-width:0.79701;stroke-linecap:butt;stroke-linejoin:miter;stroke-miterlimit:10;stroke-dasharray:none;stroke-opacity:1"
       transform="matrix(1.3333333,0,0,-1.3333333,89.405333,89.405333)" />
    <path
       id="path4"
       d="M 39.61398,16.48184 H 50.95253"
       style="fill:none;stroke:#e63946;stroke-width:0.79701;stroke-linecap:butt;stroke-linejoin:miter;stroke-miterlimit:10;stroke-dasharray:none;stroke-opacity:1"
       transform="matrix(1.3333333,0,0,-1.3333333,89.405333,89.405333)" />
    <path
       id="path5"
       d="M 45.28325,10.81256 V 22.15111"
       style="fill:none;stroke:#e63946;stroke-width:0.79701;stroke-linecap:butt;stroke-linejoin:miter;stroke-miterlimit:10;stroke-dasharray:none;stroke-opacity:1"
       transform="matrix(1.3333333,0,0,-1.3333333,89.405333,89.405333)" />
    <path
       id="path6"
       d="M 31.24522,30.97575 H 42.58377"
       style="fill:none;stroke:#e63946;stroke-width:0.79701;stroke-linecap:butt;stroke-linejoin:miter;stroke-miterlimit:10;stroke-dasharray:none;stroke-opacity:1"
       transform="matrix(1.3333333,0,0,-1.3333333,89.405333,89.405333)" />
    <path
       id="path7"
       d="M 36.9145,25.30649 V 36.64503"
       style="fill:none;stroke:#e63946;stroke-width:0.79701;stroke-linecap:butt;stroke-linejoin:miter;stroke-miterlimit:10;stroke-dasharray:none;stroke-opacity:1"
       transform="matrix(1.3333333,0,0,-1.3333333,89.405333,89.405333)" />
    <path
       id="path8"
       d="M 18.42525,41.7334 H 29.7638"
       style="fill:none;stroke:#e63946;stroke-width:0.79701;stroke-linecap:butt;stroke-linejoin:miter;stroke-miterlimit:10;stroke-dasharray:none;stroke-opacity:1"
       transform="matrix(1.3333333,0,0,-1.3333333,89.405333,89.405333)" />
    <path
       id="path9"
       d="M 24.09451,36.06413 V 47.40268"
       style="fill:none;stroke:#e63946;stroke-width:0.79701;stroke-linecap:butt;stroke-linejoin:miter;stroke-miterlimit:10;stroke-dasharray:none;stroke-opacity:1"
       transform="matrix(1.3333333,0,0,-1.3333333,89.405333,89.405333)" />
    <path
       id="path10"
       d="M 2.69817,47.45763 H 14.03671"
       style="fill:none;stroke:#e63946;stroke-width:0.79701;stroke-linecap:butt;stroke-linejoin:miter;stroke-miterlimit:10;stroke-dasharray:none;stroke-opacity:1"
       transform="matrix(1.3333333,0,0,-1.3333333,89.405333,89.405333)" />
    <path
       id="path11"
       d="M 8.36743,41.78835 V 53.12689"
       style="fill:none;stroke:#e63946;stroke-width:0.79701;stroke-linecap:butt;stroke-linejoin:miter;stroke-miterlimit:10;stroke-dasharray:none;stroke-opacity:1"
       transform="matrix(1.3333333,0,0,-1.3333333,89.405333,89.405333)" />
    <path
       id="path12"
       d="M -14.03671,47.45763 H -2.69817"
       style="fill:none;stroke:#e63946;stroke-width:0.79701;stroke-linecap:butt;stroke-linejoin:miter;stroke-miterlimit:10;stroke-dasharray:none;stroke-opacity:1"
       transform="matrix(1.3333333,0,0,-1.3333333,89.405333,89.405333)" />
    <path
       id="path13"
       d="M -8.36743,41.78835 V 53.12689"
       style="fill:none;stroke:#e63946;stroke-width:0.79701;stroke-linecap:butt;stroke-linejoin:miter;stroke-miterlimit:10;stroke-dasharray:none;stroke-opacity:1"
       transform="matrix(1.3333333,0,0,-1.3333333,89.405333,89.405333)" />
    <path
       id="path14"
       d="m -29.7638,41.7334 h 11.33855"
       style="fill:none;stroke:#e63946;stroke-width:0.79701;stroke-linecap:butt;stroke-linejoin:miter;stroke-miterlimit:10;stroke-dasharray:none;stroke-opacity:1"
       transform="matrix(1.3333333,0,0,-1.3333333,89.405333,89.405333)" />
    <path
       id="path15"
       d="M -24.09451,36.06413 V 47.40268"
       style="fill:none;stroke:#e63946;stroke-width:0.79701;stroke-linecap:butt;stroke-linejoin:miter;stroke-miterlimit:10;stroke-dasharray:none;stroke-opacity:1"
       transform="matrix(1.3333333,0,0,-1.3333333,89.405333,89.405333)" />
    <path
       id="path16"
       d="m -42.58377,30.97575 h 11.33855"
       style="fill:none;stroke:#e63946;stroke-width:0.79701;stroke-linecap:butt;stroke-linejoin:miter;stroke-miterlimit:10;stroke-dasharray:none;stroke-opacity:1"
       transform="matrix(1.3333333,0,0,-1.3333333,89.405333,89.405333)" />
    <path
       id="path17"
       d="M -36.9145,25.30649 V 36.64503"
       style="fill:none;stroke:#e63946;stroke-width:0.79701;stroke-linecap:butt;stroke-linejoin:miter;stroke-miterlimit:10;stroke-dasharray:none;stroke-opacity:1"
       transform="matrix(1.3333333,0,0,-1.3333333,89.405333,89.405333)" />
    <path
       id="path18"
       d="m -50.95253,16.48184 h 11.33855"
       style="fill:none;stroke:#e63946;stroke-width:0.79701;stroke-linecap:butt;stroke-linejoin:miter;stroke-miterlimit:10;stroke-dasharray:none;stroke-opacity:1"
       transform="matrix(1.3333333,0,0,-1.3333333,89.405333,89.405333)" />
    <path
       id="path19"
       d="M -45.28325,10.81256 V 22.15111"
       style="fill:none;stroke:#e63946;stroke-width:0.79701;stroke-linecap:butt;stroke-linejoin:miter;stroke-miterlimit:10;stroke-dasharray:none;stroke-opacity:1"
       transform="matrix(1.3333333,0,0,-1.3333333,89.405333,89.405333)" />
    <path
       id="path20"
       d="M -53.85875,0 H -42.5202"
       style="fill:none;stroke:#e63946;stroke-width:0.79701;stroke-linecap:butt;stroke-linejoin:miter;stroke-miterlimit:10;stroke-dasharray:none;stroke-opacity:1"
       transform="matrix(1.3333333,0,0,-1.3333333,89.405333,89.405333)" />
    <path
       id="path21"
       d="M -48.18947,-5.66927 V 5.66927"
       style="fill:none;stroke:#e63946;stroke-width:0.79701;stroke-linecap:butt;stroke-linejoin:miter;stroke-miterlimit:10;stroke-dasharray:none;stroke-opacity:1"
       transform="matrix(1.3333333,0,0,-1.3333333,89.405333,89.405333)" />
    <path
       id="path22"
       d="m -50.95253,-16.48184 h 11.33855"
       style="fill:none;stroke:#e63946;stroke-width:0.79701;stroke-linecap:butt;stroke-linejoin:miter;stroke-miterlimit:10;stroke-dasharray:none;stroke-opacity:1"
       transform="matrix(1.3333333,0,0,-1.3333333,89.405333,89.405333)" />
    <path
       id="path23"
       d="m -45.28325,-22.15111 v 11.33855"
       style="fill:none;stroke:#e63946;stroke-width:0.79701;stroke-linecap:butt;stroke-linejoin:miter;stroke-miterlimit:10;stroke-dasharray:none;stroke-opacity:1"
       transform="matrix(1.3333333,0,0,-1.3333333,89.405333,89.405333)" />
    <path
       id="path24"
       d="m -42.58377,-30.97575 h 11.33855"
       style="fill:none;stroke:#e63946;stroke-width:0.79701;stroke-linecap:butt;stroke-linejoin:miter;stroke-miterlimit:10;stroke-dasharray:none;stroke-opacity:1"
       transform="matrix(1.3333333,0,0,-1.3333333,89.405333,89.405333)" />
    <path
       id="path25"
       d="m -36.9145,-36.64503 v 11.33854"
       style="fill:none;stroke:#e63946;stroke-width:0.79701;stroke-linecap:butt;stroke-linejoin:miter;stroke-miterlimit:10;stroke-dasharray:none;stroke-opacity:1"
       transform="matrix(1.3333333,0,0,-1.3333333,89.405333,89.405333)" />
    <path
       id="path26"
       d="m -29.7638,-41.7334 h 11.33855"
       style="fill:none;stroke:#e63946;stroke-width:0.79701;stroke-linecap:butt;stroke-linejoin:miter;stroke-miterlimit:10;stroke-dasharray:none;stroke-opacity:1"
       transform="matrix(1.3333333,0,0,-1.3333333,89.405333,89.405333)" />
    <path
       id="path27"
       d="m -24.09451,-47.40268 v 11.33855"
       style="fill:none;stroke:#e63946;stroke-width:0.79701;stroke-linecap:butt;stroke-linejoin:miter;stroke-miterlimit:10;stroke-dasharray:none;stroke-opacity:1"
       transform="matrix(1.3333333,0,0,-1.3333333,89.405333,89.405333)" />
    <path
       id="path28"
       d="M -14.03671,-47.45763 H -2.69817"
       style="fill:none;stroke:#e63946;stroke-width:0.79701;stroke-linecap:butt;stroke-linejoin:miter;stroke-miterlimit:10;stroke-dasharray:none;stroke-opacity:1"
       transform="matrix(1.3333333,0,0,-1.3333333,89.405333,89.405333)" />
    <path
       id="path29"
       d="m -8.36743,-53.12689 v 11.33854"
       style="fill:none;stroke:#e63946;stroke-width:0.79701;stroke-linecap:butt;stroke-linejoin:miter;stroke-miterlimit:10;stroke-dasharray:none;stroke-opacity:1"
       transform="matrix(1.3333333,0,0,-1.3333333,89.405333,89.405333)" />
    <path
       id="path30"
       d="M 2.69817,-47.45763 H 14.03671"
       style="fill:none;stroke:#e63946;stroke-width:0.79701;stroke-linecap:butt;stroke-linejoin:miter;stroke-miterlimit:10;stroke-dasharray:none;stroke-opacity:1"
       transform="matrix(1.3333333,0,0,-1.3333333,89.405333,89.405333)" />
    <path
       id="path31"
       d="m 8.36743,-53.12689 v 11.33854"
       style="fill:none;stroke:#e63946;stroke-width:0.79701;stroke-linecap:butt;stroke-linejoin:miter;stroke-miterlimit:10;stroke-dasharray:none;stroke-opacity:1"
       transform="matrix(1.3333333,0,0,-1.3333333,89.405333,89.405333)" />
    <path
       id="path32"
       d="M 18.42525,-41.7334 H 29.7638"
       style="fill:none;stroke:#e63946;stroke-width:0.79701;stroke-linecap:butt;stroke-linejoin:miter;stroke-miterlimit:10;stroke-dasharray:none;stroke-opacity:1"
       transform="matrix(1.3333333,0,0,-1.3333333,89.405333,89.405333)" />
    <path
       id="path33"
       d="m 24.09451,-47.40268 v 11.33855"
       style="fill:none;stroke:#e63946;stroke-width:0.79701;stroke-linecap:butt;stroke-linejoin:miter;stroke-miterlimit:10;stroke-dasharray:none;stroke-opacity:1"
       transform="matrix(1.3333333,0,0,-1.3333333,89.405333,89.405333)" />
    <path
       id="path34"
       d="M 31.24522,-30.97575 H 42.58377"
       style="fill:none;stroke:#e63946;stroke-width:0.79701;stroke-linecap:butt;stroke-linejoin:miter;stroke-miterlimit:10;stroke-dasharray:none;stroke-opacity:1"
       transform="matrix(1.3333333,0,0,-1.3333333,89.405333,89.405333)" />
    <path
       id="path35"
       d="m 36.9145,-36.64503 v 11.33854"
       style="fill:none;stroke:#e63946;stroke-width:0.79701;stroke-linecap:butt;stroke-linejoin:miter;stroke-miterlimit:10;stroke-dasharray:none;stroke-opacity:1"
       transform="matrix(1.3333333,0,0,-1.3333333,89.405333,89.405333)" />
    <path
       id="path36"
       d="M 39.61398,-16.48184 H 50.95253"
       style="fill:none;stroke:#e63946;stroke-width:0.79701;stroke-linecap:butt;stroke-linejoin:miter;stroke-miterlimit:10;stroke-dasharray:none;stroke-opacity:1"
       transform="matrix(1.3333333,0,0,-1.3333333,89.405333,89.405333)" />
    <path
       id="path37"
       d="m 45.28325,-22.15111 v 11.33855"
       style="fill:none;stroke:#e63946;stroke-width:0.79701;stroke-linecap:butt;stroke-linejoin:miter;stroke-miterlimit:10;stroke-dasharray:none;stroke-opacity:1"
       transform="matrix(1.3333333,0,0,-1.3333333,89.405333,89.405333)" />
    <path
       id="path38"
       d="M 0,0 49.09824,28.3468"
       style="fill:none;stroke:#000000;stroke-width:0.79701;stroke-linecap:butt;stroke-linejoin:miter;stroke-miterlimit:10;stroke-dasharray:none;stroke-opacity:1"
       transform="matrix(1.3333333,0,0,-1.3333333,89.405333,89.405333)" />
    <path
       id="path39"
       d="m 3.7374922,-6.1161016 c 0.058594,-0.234375 0.082031,-0.3398437 0.28125,-0.3632812 0.082031,-0.011719 0.3984375,-0.011719 0.5976562,-0.011719 0.7148438,0 1.8164063,0 1.8164063,0.984375 0,0.3398438 -0.1523438,1.0195313 -0.5507813,1.4179688 -0.2578125,0.2578125 -0.7851562,0.5742187 -1.6757812,0.5742187 H 3.0929609 Z m 1.4296875,2.7304688 c 1.0078125,-0.2226563 2.1914062,-0.9140625 2.1914062,-1.921875 0,-0.8554688 -0.890625,-1.5 -2.203125,-1.5 H 2.3195234 c -0.1992187,0 -0.2929687,0 -0.2929687,0.1992187 0,0.1171875 0.09375,0.1171875 0.28125,0.1171875 0.023437,0 0.2109375,0 0.3867187,0.011719 0.1757813,0.023437 0.2578125,0.035156 0.2578125,0.1640625 0,0.035156 0,0.070312 -0.035156,0.1875 l -1.3359375,5.35546874 c -0.09375,0.38671875 -0.1171875,0.46875 -0.90234376,0.46875 -0.17578125,0 -0.26953125,0 -0.26953125,0.19921875 0,0.10546875 0.1171875,0.10546875 0.140625,0.10546875 0.28125,0 0.97265621,-0.03515625 1.25390621,-0.03515625 0.28125,0 0.984375,0.03515625 1.265625,0.03515625 0.082031,0 0.1992188,0 0.1992188,-0.19921875 0,-0.10546875 -0.09375,-0.10546875 -0.28125,-0.10546875 -0.3632813,0 -0.6445313,0 -0.6445313,-0.1875 0,-0.0585938 0.011719,-0.10546875 0.023437,-0.1640625 l 0.65625,-2.63671874 h 1.1953125 c 0.9023438,0 1.078125,0.5507812 1.078125,0.9023437 0,0.1523438 -0.082031,0.4570313 -0.140625,0.6914063 -0.070312,0.2695312 -0.1523437,0.6445312 -0.1523437,0.84374999 0,1.078125 1.1953125,1.078125 1.3242187,1.078125 0.84375,0 1.1953125,-1.0078125 1.1953125,-1.1484375 0,-0.11718749 -0.1171875,-0.11718749 -0.1171875,-0.11718749 -0.09375,0 -0.1171875,0.0703125 -0.1289062,0.14062499 -0.2578125,0.73828125 -0.6796875,0.90234375 -0.9140625,0.90234375 -0.328125,0 -0.3984375,-0.22265625 -0.3984375,-0.609375 0,-0.3046875 0.058594,-0.82031254 0.1054687,-1.13671874 0.011719,-0.140625 0.035156,-0.328125 0.035156,-0.46875 0,-0.7617188 -0.6679688,-1.078125 -0.9374994,-1.1718752 z m 0,0"
       style="fill:#000000;fill-opacity:1;fill-rule:nonzero;stroke:none"
       aria-label="R"
       transform="matrix(1.3333333,0,0,1.3333333,106.98933,65.549333)" />
    <path
       id="path40"
       d="M 1.4174,0 C 1.4174,0.78282 0.78282,1.4174 0,1.4174 -0.78282,1.4174 -1.4174,0.78282 -1.4174,0 c 0,-0.78282 0.63458,-1.4174 1.4174,-1.4174 0.78282,0 1.4174,0.63458 1.4174,1.4174 z"
       style="fill:#000000;fill-opacity:1;fill-rule:nonzero;stroke:none"
       transform="matrix(1.3333333,0,0,-1.3333333,89.405333,89.405333)" />
  </g>
</svg>
