<?xml version="1.0" encoding="UTF-8" standalone="no"?>
<!-- Created with Inkscape (http://www.inkscape.org/) -->

<svg
   version="1.1"
   id="svg1"
   width="228.36772"
   height="228.34032"
   viewBox="0 0 228.36772 228.34031"
   xmlns="http://www.w3.org/2000/svg"
   xmlns:svg="http://www.w3.org/2000/svg">
  <defs
     id="defs1" />
  <g
     id="g1"
     transform="translate(-13.283222,-13.310687)">
    <path
       id="path1"
       d="M 31.18166,0 H 42.5202"
       style="fill:none;stroke:#fad7da;stroke-width:0.79701;stroke-linecap:butt;stroke-linejoin:miter;stroke-miterlimit:10;stroke-dasharray:none;stroke-opacity:1"
       transform="matrix(1.3333333,0,0,-1.3333333,127.46667,127.46667)" />
    <path
       id="path2"
       d="M 36.85092,-5.66927 V 5.66927"
       style="fill:none;stroke:#fad7da;stroke-width:0.79701;stroke-linecap:butt;stroke-linejoin:miter;stroke-miterlimit:10;stroke-dasharray:none;stroke-opacity:1"
       transform="matrix(1.3333333,0,0,-1.3333333,127.46667,127.46667)" />
    <path
       id="path3"
       d="M 26.24423,18.42523 H 37.58278"
       style="fill:none;stroke:#fad7da;stroke-width:0.79701;stroke-linecap:butt;stroke-linejoin:miter;stroke-miterlimit:10;stroke-dasharray:none;stroke-opacity:1"
       transform="matrix(1.3333333,0,0,-1.3333333,127.46667,127.46667)" />
    <path
       id="path4"
       d="M 31.91351,12.75595 V 24.0945"
       style="fill:none;stroke:#fad7da;stroke-width:0.79701;stroke-linecap:butt;stroke-linejoin:miter;stroke-miterlimit:10;stroke-dasharray:none;stroke-opacity:1"
       transform="matrix(1.3333333,0,0,-1.3333333,127.46667,127.46667)" />
    <path
       id="path5"
       d="M 12.75595,31.91351 H 24.0945"
       style="fill:none;stroke:#fad7da;stroke-width:0.79701;stroke-linecap:butt;stroke-linejoin:miter;stroke-miterlimit:10;stroke-dasharray:none;stroke-opacity:1"
       transform="matrix(1.3333333,0,0,-1.3333333,127.46667,127.46667)" />
    <path
       id="path6"
       d="M 18.42523,26.24423 V 37.58278"
       style="fill:none;stroke:#fad7da;stroke-width:0.79701;stroke-linecap:butt;stroke-linejoin:miter;stroke-miterlimit:10;stroke-dasharray:none;stroke-opacity:1"
       transform="matrix(1.3333333,0,0,-1.3333333,127.46667,127.46667)" />
    <path
       id="path7"
       d="M -5.66927,36.85092 H 5.66927"
       style="fill:none;stroke:#fad7da;stroke-width:0.79701;stroke-linecap:butt;stroke-linejoin:miter;stroke-miterlimit:10;stroke-dasharray:none;stroke-opacity:1"
       transform="matrix(1.3333333,0,0,-1.3333333,127.46667,127.46667)" />
    <path
       id="path8"
       d="M 0,31.18166 V 42.5202"
       style="fill:none;stroke:#fad7da;stroke-width:0.79701;stroke-linecap:butt;stroke-linejoin:miter;stroke-miterlimit:10;stroke-dasharray:none;stroke-opacity:1"
       transform="matrix(1.3333333,0,0,-1.3333333,127.46667,127.46667)" />
    <path
       id="path9"
       d="m -24.0945,31.91351 h 11.33855"
       style="fill:none;stroke:#fad7da;stroke-width:0.79701;stroke-linecap:butt;stroke-linejoin:miter;stroke-miterlimit:10;stroke-dasharray:none;stroke-opacity:1"
       transform="matrix(1.3333333,0,0,-1.3333333,127.46667,127.46667)" />
    <path
       id="path10"
       d="M -18.42523,26.24423 V 37.58278"
       style="fill:none;stroke:#fad7da;stroke-width:0.79701;stroke-linecap:butt;stroke-linejoin:miter;stroke-miterlimit:10;stroke-dasharray:none;stroke-opacity:1"
       transform="matrix(1.3333333,0,0,-1.3333333,127.46667,127.46667)" />
    <path
       id="path11"
       d="m -37.58278,18.42523 h 11.33855"
       style="fill:none;stroke:#fad7da;stroke-width:0.79701;stroke-linecap:butt;stroke-linejoin:miter;stroke-miterlimit:10;stroke-dasharray:none;stroke-opacity:1"
       transform="matrix(1.3333333,0,0,-1.3333333,127.46667,127.46667)" />
    <path
       id="path12"
       d="M -31.91351,12.75595 V 24.0945"
       style="fill:none;stroke:#fad7da;stroke-width:0.79701;stroke-linecap:butt;stroke-linejoin:miter;stroke-miterlimit:10;stroke-dasharray:none;stroke-opacity:1"
       transform="matrix(1.3333333,0,0,-1.3333333,127.46667,127.46667)" />
    <path
       id="path13"
       d="m -42.5202,0 h 11.33854"
       style="fill:none;stroke:#fad7da;stroke-width:0.79701;stroke-linecap:butt;stroke-linejoin:miter;stroke-miterlimit:10;stroke-dasharray:none;stroke-opacity:1"
       transform="matrix(1.3333333,0,0,-1.3333333,127.46667,127.46667)" />
    <path
       id="path14"
       d="M -36.85092,-5.66927 V 5.66927"
       style="fill:none;stroke:#fad7da;stroke-width:0.79701;stroke-linecap:butt;stroke-linejoin:miter;stroke-miterlimit:10;stroke-dasharray:none;stroke-opacity:1"
       transform="matrix(1.3333333,0,0,-1.3333333,127.46667,127.46667)" />
    <path
       id="path15"
       d="m -37.58278,-18.42523 h 11.33855"
       style="fill:none;stroke:#fad7da;stroke-width:0.79701;stroke-linecap:butt;stroke-linejoin:miter;stroke-miterlimit:10;stroke-dasharray:none;stroke-opacity:1"
       transform="matrix(1.3333333,0,0,-1.3333333,127.46667,127.46667)" />
    <path
       id="path16"
       d="m -31.91351,-24.0945 v 11.33855"
       style="fill:none;stroke:#fad7da;stroke-width:0.79701;stroke-linecap:butt;stroke-linejoin:miter;stroke-miterlimit:10;stroke-dasharray:none;stroke-opacity:1"
       transform="matrix(1.3333333,0,0,-1.3333333,127.46667,127.46667)" />
    <path
       id="path17"
       d="m -24.0945,-31.91351 h 11.33855"
       style="fill:none;stroke:#fad7da;stroke-width:0.79701;stroke-linecap:butt;stroke-linejoin:miter;stroke-miterlimit:10;stroke-dasharray:none;stroke-opacity:1"
       transform="matrix(1.3333333,0,0,-1.3333333,127.46667,127.46667)" />
    <path
       id="path18"
       d="m -18.42523,-37.58278 v 11.33855"
       style="fill:none;stroke:#fad7da;stroke-width:0.79701;stroke-linecap:butt;stroke-linejoin:miter;stroke-miterlimit:10;stroke-dasharray:none;stroke-opacity:1"
       transform="matrix(1.3333333,0,0,-1.3333333,127.46667,127.46667)" />
    <path
       id="path19"
       d="M -5.66927,-36.85092 H 5.66927"
       style="fill:none;stroke:#fad7da;stroke-width:0.79701;stroke-linecap:butt;stroke-linejoin:miter;stroke-miterlimit:10;stroke-dasharray:none;stroke-opacity:1"
       transform="matrix(1.3333333,0,0,-1.3333333,127.46667,127.46667)" />
    <path
       id="path20"
       d="m 0,-42.5202 v 11.33854"
       style="fill:none;stroke:#fad7da;stroke-width:0.79701;stroke-linecap:butt;stroke-linejoin:miter;stroke-miterlimit:10;stroke-dasharray:none;stroke-opacity:1"
       transform="matrix(1.3333333,0,0,-1.3333333,127.46667,127.46667)" />
    <path
       id="path21"
       d="M 12.75595,-31.91351 H 24.0945"
       style="fill:none;stroke:#fad7da;stroke-width:0.79701;stroke-linecap:butt;stroke-linejoin:miter;stroke-miterlimit:10;stroke-dasharray:none;stroke-opacity:1"
       transform="matrix(1.3333333,0,0,-1.3333333,127.46667,127.46667)" />
    <path
       id="path22"
       d="m 18.42523,-37.58278 v 11.33855"
       style="fill:none;stroke:#fad7da;stroke-width:0.79701;stroke-linecap:butt;stroke-linejoin:miter;stroke-miterlimit:10;stroke-dasharray:none;stroke-opacity:1"
       transform="matrix(1.3333333,0,0,-1.3333333,127.46667,127.46667)" />
    <path
       id="path23"
       d="M 26.24423,-18.42523 H 37.58278"
       style="fill:none;stroke:#fad7da;stroke-width:0.79701;stroke-linecap:butt;stroke-linejoin:miter;stroke-miterlimit:10;stroke-dasharray:none;stroke-opacity:1"
       transform="matrix(1.3333333,0,0,-1.3333333,127.46667,127.46667)" />
    <path
       id="path24"
       d="m 31.91351,-24.0945 v 11.33855"
       style="fill:none;stroke:#fad7da;stroke-width:0.79701;stroke-linecap:butt;stroke-linejoin:miter;stroke-miterlimit:10;stroke-dasharray:none;stroke-opacity:1"
       transform="matrix(1.3333333,0,0,-1.3333333,127.46667,127.46667)" />
    <path
       id="path25"
       d="M 14.17339,0 H 25.51193"
       style="fill:none;stroke:#fad7da;stroke-width:0.79701;stroke-linecap:butt;stroke-linejoin:miter;stroke-miterlimit:10;stroke-dasharray:none;stroke-opacity:1"
       transform="matrix(1.3333333,0,0,-1.3333333,127.46667,127.46667)" />
    <path
       id="path26"
       d="M 19.84267,-5.66927 V 5.66927"
       style="fill:none;stroke:#fad7da;stroke-width:0.79701;stroke-linecap:butt;stroke-linejoin:miter;stroke-miterlimit:10;stroke-dasharray:none;stroke-opacity:1"
       transform="matrix(1.3333333,0,0,-1.3333333,127.46667,127.46667)" />
    <path
       id="path27"
       d="M 7.08539,15.1998 H 18.42393"
       style="fill:none;stroke:#fad7da;stroke-width:0.79701;stroke-linecap:butt;stroke-linejoin:miter;stroke-miterlimit:10;stroke-dasharray:none;stroke-opacity:1"
       transform="matrix(1.3333333,0,0,-1.3333333,127.46667,127.46667)" />
    <path
       id="path28"
       d="M 12.75467,9.53052 V 20.86906"
       style="fill:none;stroke:#fad7da;stroke-width:0.79701;stroke-linecap:butt;stroke-linejoin:miter;stroke-miterlimit:10;stroke-dasharray:none;stroke-opacity:1"
       transform="matrix(1.3333333,0,0,-1.3333333,127.46667,127.46667)" />
    <path
       id="path29"
       d="M -9.11443,19.5412 H 2.2241"
       style="fill:none;stroke:#fad7da;stroke-width:0.79701;stroke-linecap:butt;stroke-linejoin:miter;stroke-miterlimit:10;stroke-dasharray:none;stroke-opacity:1"
       transform="matrix(1.3333333,0,0,-1.3333333,127.46667,127.46667)" />
    <path
       id="path30"
       d="M -3.44516,13.87192 V 25.21046"
       style="fill:none;stroke:#fad7da;stroke-width:0.79701;stroke-linecap:butt;stroke-linejoin:miter;stroke-miterlimit:10;stroke-dasharray:none;stroke-opacity:1"
       transform="matrix(1.3333333,0,0,-1.3333333,127.46667,127.46667)" />
    <path
       id="path31"
       d="m -22.85356,9.92111 h 11.33855"
       style="fill:none;stroke:#fad7da;stroke-width:0.79701;stroke-linecap:butt;stroke-linejoin:miter;stroke-miterlimit:10;stroke-dasharray:none;stroke-opacity:1"
       transform="matrix(1.3333333,0,0,-1.3333333,127.46667,127.46667)" />
    <path
       id="path32"
       d="M -17.1843,4.25183 V 15.59038"
       style="fill:none;stroke:#fad7da;stroke-width:0.79701;stroke-linecap:butt;stroke-linejoin:miter;stroke-miterlimit:10;stroke-dasharray:none;stroke-opacity:1"
       transform="matrix(1.3333333,0,0,-1.3333333,127.46667,127.46667)" />
    <path
       id="path33"
       d="m -24.3151,-6.7865 h 11.33855"
       style="fill:none;stroke:#fad7da;stroke-width:0.79701;stroke-linecap:butt;stroke-linejoin:miter;stroke-miterlimit:10;stroke-dasharray:none;stroke-opacity:1"
       transform="matrix(1.3333333,0,0,-1.3333333,127.46667,127.46667)" />
    <path
       id="path34"
       d="M -18.64583,-12.45578 V -1.11723"
       style="fill:none;stroke:#fad7da;stroke-width:0.79701;stroke-linecap:butt;stroke-linejoin:miter;stroke-miterlimit:10;stroke-dasharray:none;stroke-opacity:1"
       transform="matrix(1.3333333,0,0,-1.3333333,127.46667,127.46667)" />
    <path
       id="path35"
       d="M -12.45578,-18.64583 H -1.11723"
       style="fill:none;stroke:#fad7da;stroke-width:0.79701;stroke-linecap:butt;stroke-linejoin:miter;stroke-miterlimit:10;stroke-dasharray:none;stroke-opacity:1"
       transform="matrix(1.3333333,0,0,-1.3333333,127.46667,127.46667)" />
    <path
       id="path36"
       d="m -6.7865,-24.3151 v 11.33855"
       style="fill:none;stroke:#fad7da;stroke-width:0.79701;stroke-linecap:butt;stroke-linejoin:miter;stroke-miterlimit:10;stroke-dasharray:none;stroke-opacity:1"
       transform="matrix(1.3333333,0,0,-1.3333333,127.46667,127.46667)" />
    <path
       id="path37"
       d="M 4.25183,-17.1843 H 15.59038"
       style="fill:none;stroke:#fad7da;stroke-width:0.79701;stroke-linecap:butt;stroke-linejoin:miter;stroke-miterlimit:10;stroke-dasharray:none;stroke-opacity:1"
       transform="matrix(1.3333333,0,0,-1.3333333,127.46667,127.46667)" />
    <path
       id="path38"
       d="m 9.92111,-22.85356 v 11.33855"
       style="fill:none;stroke:#fad7da;stroke-width:0.79701;stroke-linecap:butt;stroke-linejoin:miter;stroke-miterlimit:10;stroke-dasharray:none;stroke-opacity:1"
       transform="matrix(1.3333333,0,0,-1.3333333,127.46667,127.46667)" />
    <path
       id="path39"
       d="M -5.66927,0 H 5.66927"
       style="fill:none;stroke:#fad7da;stroke-width:0.79701;stroke-linecap:butt;stroke-linejoin:miter;stroke-miterlimit:10;stroke-dasharray:none;stroke-opacity:1"
       transform="matrix(1.3333333,0,0,-1.3333333,127.46667,127.46667)" />
    <path
       id="path40"
       d="M 0,-5.66927 V 5.66927"
       style="fill:none;stroke:#fad7da;stroke-width:0.79701;stroke-linecap:butt;stroke-linejoin:miter;stroke-miterlimit:10;stroke-dasharray:none;stroke-opacity:1"
       transform="matrix(1.3333333,0,0,-1.3333333,127.46667,127.46667)" />
    <path
       id="path41"
       d="M -5.66927,0 H 5.66927"
       style="fill:none;stroke:#fad7da;stroke-width:0.79701;stroke-linecap:butt;stroke-linejoin:miter;stroke-miterlimit:10;stroke-dasharray:none;stroke-opacity:1"
       transform="matrix(1.3333333,0,0,-1.3333333,127.46667,127.46667)" />
    <path
       id="path42"
       d="M 0,-5.66927 V 5.66927"
       style="fill:none;stroke:#fad7da;stroke-width:0.79701;stroke-linecap:butt;stroke-linejoin:miter;stroke-miterlimit:10;stroke-dasharray:none;stroke-opacity:1"
       transform="matrix(1.3333333,0,0,-1.3333333,127.46667,127.46667)" />
    <path
       id="path43"
       d="M -5.66927,0 H 5.66927"
       style="fill:none;stroke:#fad7da;stroke-width:0.79701;stroke-linecap:butt;stroke-linejoin:miter;stroke-miterlimit:10;stroke-dasharray:none;stroke-opacity:1"
       transform="matrix(1.3333333,0,0,-1.3333333,127.46667,127.46667)" />
    <path
       id="path44"
       d="M 0,-5.66927 V 5.66927"
       style="fill:none;stroke:#fad7da;stroke-width:0.79701;stroke-linecap:butt;stroke-linejoin:miter;stroke-miterlimit:10;stroke-dasharray:none;stroke-opacity:1"
       transform="matrix(1.3333333,0,0,-1.3333333,127.46667,127.46667)" />
    <path
       id="path45"
       d="M -5.66927,0 H 5.66927"
       style="fill:none;stroke:#fad7da;stroke-width:0.79701;stroke-linecap:butt;stroke-linejoin:miter;stroke-miterlimit:10;stroke-dasharray:none;stroke-opacity:1"
       transform="matrix(1.3333333,0,0,-1.3333333,127.46667,127.46667)" />
    <path
       id="path46"
       d="M 0,-5.66927 V 5.66927"
       style="fill:none;stroke:#fad7da;stroke-width:0.79701;stroke-linecap:butt;stroke-linejoin:miter;stroke-miterlimit:10;stroke-dasharray:none;stroke-opacity:1"
       transform="matrix(1.3333333,0,0,-1.3333333,127.46667,127.46667)" />
    <path
       id="path47"
       d="M -5.66927,0 H 5.66927"
       style="fill:none;stroke:#fad7da;stroke-width:0.79701;stroke-linecap:butt;stroke-linejoin:miter;stroke-miterlimit:10;stroke-dasharray:none;stroke-opacity:1"
       transform="matrix(1.3333333,0,0,-1.3333333,127.46667,127.46667)" />
    <path
       id="path48"
       d="M 0,-5.66927 V 5.66927"
       style="fill:none;stroke:#fad7da;stroke-width:0.79701;stroke-linecap:butt;stroke-linejoin:miter;stroke-miterlimit:10;stroke-dasharray:none;stroke-opacity:1"
       transform="matrix(1.3333333,0,0,-1.3333333,127.46667,127.46667)" />
    <path
       id="path49"
       d="M -5.66927,0 H 5.66927"
       style="fill:none;stroke:#fad7da;stroke-width:0.79701;stroke-linecap:butt;stroke-linejoin:miter;stroke-miterlimit:10;stroke-dasharray:none;stroke-opacity:1"
       transform="matrix(1.3333333,0,0,-1.3333333,127.46667,127.46667)" />
    <path
       id="path50"
       d="M 0,-5.66927 V 5.66927"
       style="fill:none;stroke:#fad7da;stroke-width:0.79701;stroke-linecap:butt;stroke-linejoin:miter;stroke-miterlimit:10;stroke-dasharray:none;stroke-opacity:1"
       transform="matrix(1.3333333,0,0,-1.3333333,127.46667,127.46667)" />
    <path
       id="path51"
       d="M -5.66927,0 H 5.66927"
       style="fill:none;stroke:#fad7da;stroke-width:0.79701;stroke-linecap:butt;stroke-linejoin:miter;stroke-miterlimit:10;stroke-dasharray:none;stroke-opacity:1"
       transform="matrix(1.3333333,0,0,-1.3333333,127.46667,127.46667)" />
    <path
       id="path52"
       d="M 0,-5.66927 V 5.66927"
       style="fill:none;stroke:#fad7da;stroke-width:0.79701;stroke-linecap:butt;stroke-linejoin:miter;stroke-miterlimit:10;stroke-dasharray:none;stroke-opacity:1"
       transform="matrix(1.3333333,0,0,-1.3333333,127.46667,127.46667)" />
    <path
       id="path53"
       d="M 42.5202,0 C 42.5202,23.48355 23.48355,42.5202 0,42.5202 -23.48355,42.5202 -42.5202,23.48355 -42.5202,0 c 0,-23.48355 19.03665,-42.5202 42.5202,-42.5202 23.48355,0 42.5202,19.03665 42.5202,42.5202 z"
       style="fill:none;stroke:#000000;stroke-width:0.79701;stroke-linecap:butt;stroke-linejoin:miter;stroke-miterlimit:10;stroke-dasharray:none;stroke-opacity:1"
       transform="matrix(1.3333333,0,0,-1.3333333,127.46667,127.46667)" />
    <path
       id="path54"
       d="M 0,0 36.82367,21.2601"
       style="fill:none;stroke:#000000;stroke-width:0.79701;stroke-linecap:butt;stroke-linejoin:miter;stroke-miterlimit:10;stroke-dasharray:none;stroke-opacity:1"
       transform="matrix(1.3333333,0,0,-1.3333333,127.46667,127.46667)" />
    <path
       id="path55"
       d="m 3.7152109,-3.7607656 c -0.1757812,-0.375 -0.46875,-0.6445313 -0.9140625,-0.6445313 -1.171875,0 -2.40234371,1.4648438 -2.40234371,2.9179688 0,0.93749997 0.55078125,1.59374997 1.32421871,1.59374997 0.1992188,0 0.703125,-0.03515625 1.3007813,-0.73828125 0.070312,0.41015625 0.421875,0.73828125 0.9023437,0.73828125 0.3515625,0 0.5742188,-0.22265625 0.7382813,-0.5390625 0.1640625,-0.36328125 0.2929687,-0.97265627 0.2929687,-0.99609377 0,-0.09375 -0.082031,-0.09375 -0.1171875,-0.09375 -0.09375,0 -0.1054687,0.035156 -0.140625,0.1757813 -0.1640625,0.64453122 -0.3515625,1.24218747 -0.75,1.24218747 -0.2695312,0 -0.3046875,-0.2578125 -0.3046875,-0.45703125 0,-0.22265625 0.023437,-0.3046875 0.1289063,-0.73828122 0.1171875,-0.421875 0.1289062,-0.5273438 0.2226562,-0.9023438 l 0.3515625,-1.3945312 c 0.070312,-0.28125 0.070312,-0.2929688 0.070312,-0.3398438 0,-0.1640625 -0.1171875,-0.2695312 -0.28125,-0.2695312 -0.2460937,0 -0.3867187,0.2226562 -0.4218745,0.4453125 z m -0.6445312,2.578125 c -0.046875,0.1757812 -0.046875,0.19921872 -0.1992188,0.36328122 -0.4453125,0.55078125 -0.84375,0.71484375 -1.125,0.71484375 -0.5039062,0 -0.6445312,-0.55078125 -0.6445312,-0.93749997 0,-0.5039063 0.328125,-1.7226563 0.5507812,-2.1796875 0.3046875,-0.5976563 0.7617188,-0.9609375 1.1601563,-0.9609375 0.6445312,0 0.7851562,0.8203125 0.7851562,0.8789062 0,0.058594 -0.023437,0.1171875 -0.035156,0.1640625 z m 0,0"
       style="fill:#000000;fill-opacity:1;fill-rule:nonzero;stroke:none"
       aria-label="a"
       transform="matrix(1.3333333,0,0,1.3333333,140.03467,108.33467)" />
    <path
       id="path56"
       d="m 85.04045,0 c 0,46.96715 -38.0733,85.04045 -85.04045,85.04045 -46.96715,0 -85.04045,-38.0733 -85.04045,-85.04045 0,-46.96715 38.0733,-85.04045 85.04045,-85.04045 46.96715,0 85.04045,38.0733 85.04045,85.04045 z"
       style="fill:none;stroke:#f73bc5;stroke-width:1.19553;stroke-linecap:butt;stroke-linejoin:miter;stroke-miterlimit:10;stroke-dasharray:2.98883, 2.98883;stroke-dashoffset:0;stroke-opacity:1"
       transform="matrix(1.3333333,0,0,-1.3333333,127.46667,127.46667)" />
    <path
       id="path57"
       d="M 0,0 -73.64735,42.5202"
       style="fill:none;stroke:#f73bc5;stroke-width:0.79701;stroke-linecap:butt;stroke-linejoin:miter;stroke-miterlimit:10;stroke-dasharray:none;stroke-opacity:1"
       transform="matrix(1.3333333,0,0,-1.3333333,127.46667,127.46667)" />
    <path
       id="path58"
       d="m 0.87782031,-0.58632812 c -0.0351563,0.15234375 -0.09375,0.375 -0.09375,0.421875 0,0.1875 0.140625,0.26953125 0.29296879,0.26953125 0.1171875,0 0.2929687,-0.0703125 0.3632812,-0.26953125 0.023437,-0.046875 0.3632813,-1.39453128 0.3984375,-1.58203128 0.082031,-0.328125 0.2578125,-1.0195312 0.3164063,-1.2890625 0.046875,-0.1289062 0.328125,-0.5976562 0.5625,-0.8203125 0.082031,-0.070312 0.375,-0.328125 0.796875,-0.328125 0.2578125,0 0.4101562,0.1171875 0.421875,0.1171875 -0.3046875,0.046875 -0.515625,0.2929688 -0.515625,0.5507813 0,0.1640625 0.1054687,0.3515625 0.375,0.3515625 0.2695312,0 0.5507812,-0.234375 0.5507812,-0.5859375 0,-0.3515625 -0.328125,-0.65625 -0.8320312,-0.65625 -0.6445313,0 -1.0898438,0.4921875 -1.2773438,0.7734375 -0.082031,-0.4570313 -0.4335937,-0.7734375 -0.9023437,-0.7734375 -0.45703129,0 -0.64453129,0.3867187 -0.73828129,0.5742187 -0.17578125,0.3398438 -0.3046875,0.9375 -0.3046875,0.9609375 0,0.1054688 0.09375,0.1054688 0.1171875,0.1054688 0.09375,0 0.10546875,-0.011719 0.1640625,-0.234375 0.17578125,-0.703125 0.375,-1.1835938 0.72656249,-1.1835938 0.1757813,0 0.3164063,0.082031 0.3164063,0.4570313 0,0.2109375 -0.035156,0.3164062 -0.1640625,0.8320312 z m 0,0"
       style="fill:#f73bc5;fill-opacity:1;fill-rule:nonzero;stroke:none"
       aria-label="r"
       transform="matrix(1.3333333,0,0,1.3333333,17.950667,73.633333)" />
  </g>
</svg>
