<?xml version="1.0" encoding="UTF-8" standalone="no"?>
<!-- Created with Inkscape (http://www.inkscape.org/) -->

<svg
   version="1.1"
   id="svg1"
   width="340.13974"
   height="340.13974"
   viewBox="0 0 340.13974 340.13974"
   xmlns="http://www.w3.org/2000/svg"
   xmlns:svg="http://www.w3.org/2000/svg">
  <defs
     id="defs1" />
  <g
     id="g1"
     transform="translate(-13.823466,-13.823466)">
    <path
       id="path1"
       d="M 34.0161,0 C 34.0161,18.78679 18.78679,34.0161 0,34.0161 -18.78679,34.0161 -34.0161,18.78679 -34.0161,0 c 0,-18.78679 15.22931,-34.0161 34.0161,-34.0161 18.78679,0 34.0161,15.22931 34.0161,34.0161 z"
       style="fill:none;stroke:#009900;stroke-width:0.79701;stroke-linecap:butt;stroke-linejoin:miter;stroke-miterlimit:10;stroke-dasharray:2.98883, 2.98883;stroke-dashoffset:0;stroke-opacity:1"
       transform="matrix(1.3333333,0,0,-1.3333333,183.89333,183.89333)" />
    <path
       id="path2"
       d="M 65.19777,0 C 65.19777,36.0082 36.0082,65.19777 0,65.19777 -36.0082,65.19777 -65.19777,36.0082 -65.19777,0 c 0,-36.0082 29.18957,-65.19777 65.19777,-65.19777 36.0082,0 65.19777,29.18957 65.19777,65.19777 z"
       style="fill:none;stroke:#009900;stroke-width:0.79701;stroke-linecap:butt;stroke-linejoin:miter;stroke-miterlimit:10;stroke-dasharray:2.98883, 2.98883;stroke-dashoffset:0;stroke-opacity:1"
       transform="matrix(1.3333333,0,0,-1.3333333,183.89333,183.89333)" />
    <path
       id="path3"
       d="M 99.21387,0 C 99.21387,54.79501 54.79501,99.21387 0,99.21387 -54.79501,99.21387 -99.21387,54.79501 -99.21387,0 c 0,-54.79501 44.41886,-99.21387 99.21387,-99.21387 54.79501,0 99.21387,44.41886 99.21387,99.21387 z"
       style="fill:none;stroke:#009900;stroke-width:0.79701;stroke-linecap:butt;stroke-linejoin:miter;stroke-miterlimit:10;stroke-dasharray:2.98883, 2.98883;stroke-dashoffset:0;stroke-opacity:1"
       transform="matrix(1.3333333,0,0,-1.3333333,183.89333,183.89333)" />
    <path
       id="path4"
       d="m -48.27919,-13.06206 h 11.51799 v 9.11589 h -11.51799 z"
       style="fill:#ffffff;fill-opacity:1;fill-rule:nonzero;stroke:none"
       transform="matrix(1.3333333,0,0,-1.3333333,183.89333,183.89333)" />
    <g
       id="g4"
       aria-label="V&#10;1"
       transform="matrix(1.3333333,0,0,1.3333333,120.85067,198.652)">
      <path
         id="path5"
         d="m 5.7897344,-5.0622422 c 0.375,-0.5742187 0.6796875,-0.75 1.1015625,-0.7851562 0.1054687,-0.011719 0.1875,-0.011719 0.1875,-0.1640625 0,-0.070312 -0.058594,-0.1054688 -0.1171875,-0.1054688 -0.035156,0 -0.2695313,0.023437 -0.7382813,0.023437 -0.2929687,0 -0.5976562,-0.023437 -0.8671875,-0.023437 -0.070312,0 -0.1640625,0.011719 -0.1640625,0.1523438 0,0.1054687 0.09375,0.1171875 0.1289063,0.1171875 0.082031,0.011719 0.4101562,0.035156 0.4101562,0.2929687 0,0.070312 -0.023437,0.1289063 -0.070312,0.1992188 -0.035156,0.070312 -0.046875,0.1054687 -0.082031,0.1757812 l -2.8125,4.34765626 -0.6796875,-4.74609376 c 0,-0.082031 0.070312,-0.2695312 0.6210937,-0.2695312 0.1054688,0 0.2109375,0 0.2109375,-0.1640625 0,-0.09375 -0.082031,-0.1054688 -0.140625,-0.1054688 -0.1640625,0 -0.3515625,0.011719 -0.515625,0.011719 -0.1875,0 -0.375,0.011719 -0.5625,0.011719 -0.1640625,0 -0.421875,0 -0.4921875,-0.011719 -0.082031,0 -0.44531248,-0.011719 -0.51562498,-0.011719 -0.0351563,0 -0.1640625,0 -0.1640625,0.1523438 0,0.1171875 0.10546875,0.1171875 0.2109375,0.1171875 0.50390628,0 0.50390628,0.082031 0.53906248,0.3046875 l 0.796875,5.50781246 c 0.023437,0.1640625 0.035156,0.234375 0.1875,0.234375 0.140625,0 0.1992188,-0.0703125 0.2578125,-0.17578125 z m 0,0"
         style="fill:#009900;fill-opacity:1;fill-rule:nonzero;stroke:none" />
      <path
         id="path6"
         d="m 7.51825,-2.8005234 c 0,-0.1757813 -0.023437,-0.1757813 -0.1992188,-0.1757813 -0.3984375,0.375 -1.0078125,0.375 -1.21875,0.375 v 0.234375 c 0.1523438,0 0.5507813,0 0.9023438,-0.1640625 v 3.02343751 c 0,0.1875 0,0.26953125 -0.609375,0.26953125 H 6.1354375 v 0.234375 c 0.328125,-0.0234375 0.796875,-0.0234375 1.125,-0.0234375 0.3398437,0 0.796875,0 1.1367187,0.0234375 v -0.234375 H 8.1393437 C 7.51825,0.76197656 7.51825,0.67994531 7.51825,0.49244531 Z m 0,0"
         style="fill:#009900;fill-opacity:1;fill-rule:nonzero;stroke:none" />
    </g>
    <path
       id="path7"
       d="m -79.46086,-18.73134 h 11.51799 v 9.11589 h -11.51799 z"
       style="fill:#ffffff;fill-opacity:1;fill-rule:nonzero;stroke:none"
       transform="matrix(1.3333333,0,0,-1.3333333,183.89333,183.89333)" />
    <g
       id="g7"
       aria-label="V&#10;2"
       transform="matrix(1.3333333,0,0,1.3333333,79.276,206.21067)">
      <path
         id="path8"
         d="m 5.7900703,-5.0622969 c 0.375,-0.5742187 0.6796875,-0.75 1.1015625,-0.7851562 0.1054688,-0.011719 0.1875,-0.011719 0.1875,-0.1640625 0,-0.070312 -0.058594,-0.1054688 -0.1171875,-0.1054688 -0.035156,0 -0.2695312,0.023437 -0.7382812,0.023437 -0.2929688,0 -0.5976563,-0.023437 -0.8671875,-0.023437 -0.070312,0 -0.1640625,0.011719 -0.1640625,0.1523438 0,0.1054687 0.09375,0.1171875 0.1289062,0.1171875 0.082031,0.011719 0.4101563,0.035156 0.4101563,0.2929687 0,0.070312 -0.023437,0.1289063 -0.070312,0.1992188 -0.035156,0.070312 -0.046875,0.1054687 -0.082031,0.1757812 l -2.8125,4.34765627 -0.6796875,-4.74609377 c 0,-0.082031 0.070312,-0.2695312 0.6210938,-0.2695312 0.1054687,0 0.2109375,0 0.2109375,-0.1640625 0,-0.09375 -0.082031,-0.1054688 -0.140625,-0.1054688 -0.1640625,0 -0.3515625,0.011719 -0.515625,0.011719 -0.1875,0 -0.375,0.011719 -0.5625,0.011719 -0.1640625,0 -0.421875,0 -0.4921875,-0.011719 -0.082031,0 -0.44531254,-0.011719 -0.51562504,-0.011719 -0.0351563,0 -0.1640625,0 -0.1640625,0.1523438 0,0.1171875 0.10546875,0.1171875 0.2109375,0.1171875 0.50390624,0 0.50390624,0.082031 0.53906254,0.3046875 l 0.796875,5.50781247 c 0.023437,0.1640625 0.035156,0.234375 0.1875,0.234375 0.140625,0 0.1992187,-0.0703125 0.2578125,-0.17578125 z m 0,0"
         style="fill:#009900;fill-opacity:1;fill-rule:nonzero;stroke:none" />
      <path
         id="path9"
         d="M 8.5849922,-0.11698438 H 8.3740547 c -0.023437,0.08203125 -0.082031,0.46875 -0.1640625,0.5390625 -0.046875,0.0351563 -0.5273438,0.0351563 -0.609375,0.0351563 h -1.125 l 0.7734375,-0.62109375 c 0.1992187,-0.1640625 0.7265625,-0.5390625 0.9140625,-0.7265625 0.1757812,-0.17578117 0.421875,-0.48046867 0.421875,-0.90234367 0,-0.7500001 -0.6679688,-1.1835939 -1.4765625,-1.1835939 -0.7617188,0 -1.3007813,0.5039063 -1.3007813,1.0664063 0,0.3046875 0.2578125,0.3398438 0.3164063,0.3398438 0.1523437,0 0.328125,-0.1054688 0.328125,-0.3164063 0,-0.140625 -0.082031,-0.328125 -0.3398438,-0.328125 0.1289063,-0.3046875 0.5039063,-0.5273438 0.9140625,-0.5273438 0.6210938,0 0.9609375,0.46875 0.9609375,0.9492188 0,0.421875 -0.28125,0.85546877 -0.703125,1.24218752 l -1.4179687,1.3007812 c -0.058594,0.0585938 -0.058594,0.0585938 -0.058594,0.24609375 h 2.6015625 z m 0,0"
         style="fill:#009900;fill-opacity:1;fill-rule:nonzero;stroke:none" />
    </g>
    <path
       id="path10"
       d="m -113.47694,-24.4006 h 11.51799 v 9.11589 h -11.51799 z"
       style="fill:#ffffff;fill-opacity:1;fill-rule:nonzero;stroke:none"
       transform="matrix(1.3333333,0,0,-1.3333333,183.89333,183.89333)" />
    <g
       id="g10"
       aria-label="V&#10;3"
       transform="matrix(1.3333333,0,0,1.3333333,33.921333,213.77067)">
      <path
         id="path11"
         d="m 5.7894687,-5.0633516 c 0.375,-0.5742187 0.6796875,-0.75 1.1015625,-0.7851562 0.1054688,-0.011719 0.1875,-0.011719 0.1875,-0.1640625 0,-0.070312 -0.058594,-0.1054688 -0.1171875,-0.1054688 -0.035156,0 -0.2695312,0.023437 -0.7382812,0.023437 -0.2929688,0 -0.5976563,-0.023437 -0.8671875,-0.023437 -0.070312,0 -0.1640625,0.011719 -0.1640625,0.1523438 0,0.1054687 0.09375,0.1171875 0.1289062,0.1171875 0.082031,0.011719 0.4101563,0.035156 0.4101563,0.2929687 0,0.070312 -0.023437,0.1289063 -0.070312,0.1992188 -0.035156,0.070312 -0.046875,0.1054687 -0.082031,0.1757812 l -2.8125,4.34765629 -0.6796875,-4.74609379 c 0,-0.082031 0.070312,-0.2695312 0.6210938,-0.2695312 0.1054687,0 0.2109375,0 0.2109375,-0.1640625 0,-0.09375 -0.082031,-0.1054688 -0.140625,-0.1054688 -0.1640625,0 -0.3515625,0.011719 -0.515625,0.011719 -0.1875,0 -0.375,0.011719 -0.5625,0.011719 -0.1640625,0 -0.421875,0 -0.4921875,-0.011719 -0.082031,0 -0.4453125,-0.011719 -0.515625,-0.011719 -0.0351563,0 -0.1640625,0 -0.1640625,0.1523438 0,0.1171875 0.10546875,0.1171875 0.2109375,0.1171875 0.5039062,0 0.5039062,0.082031 0.5390625,0.3046875 l 0.796875,5.50781249 c 0.023437,0.1640625 0.035156,0.234375 0.1875,0.234375 0.140625,0 0.1992187,-0.0703125 0.2578125,-0.17578125 z m 0,0"
         style="fill:#009900;fill-opacity:1;fill-rule:nonzero;stroke:none" />
      <path
         id="path12"
         d="m 7.1312656,-0.98522656 c 0.5039063,0 0.84375,0.33984375 0.84375,0.94921875 0,0.65625 -0.3867187,0.9375 -0.8320312,0.9375 -0.1523438,0 -0.7734375,-0.0351563 -1.0429688,-0.375 0.234375,-0.0234375 0.328125,-0.1875 0.328125,-0.33984375 0,-0.2109375 -0.140625,-0.33984375 -0.3398437,-0.33984375 -0.1640625,0 -0.3398438,0.09375 -0.3398438,0.3515625 0,0.5859375 0.65625,0.92578121 1.4179688,0.92578121 0.8789062,0 1.4765625,-0.57421871 1.4765625,-1.16015621 0,-0.43359375 -0.3398438,-0.90234375 -1.0429688,-1.07812499 0.46875,-0.1523438 0.8554688,-0.5390625 0.8554688,-1.03125 0,-0.4804688 -0.5625,-0.8320313 -1.2773438,-0.8320313 -0.703125,0 -1.2421875,0.3164063 -1.2421875,0.8085938 0,0.2578125 0.1992188,0.328125 0.3164063,0.328125 0.1640625,0 0.328125,-0.1054688 0.328125,-0.3164063 0,-0.1875 -0.140625,-0.2929687 -0.2929688,-0.3164062 0.2695313,-0.3046875 0.8203125,-0.3046875 0.8671875,-0.3046875 0.3046875,0 0.6914063,0.140625 0.6914063,0.6328125 0,0.328125 -0.1875,0.9023437 -0.7851563,0.9375 -0.1054687,0.011719 -0.2695312,0.023437 -0.3164062,0.023437 -0.058594,0 -0.1289063,0.011719 -0.1289063,0.1054687 0,0.09375 0.070312,0.09375 0.1640625,0.09375 z m 0,0"
         style="fill:#009900;fill-opacity:1;fill-rule:nonzero;stroke:none" />
    </g>
    <g
       id="g12"
       aria-label="V&#10;1&#10;&gt;V&#10;2&#10;&gt;V&#10;3"
       transform="matrix(1.3333333,0,0,1.3333333,272.73333,329.94667)">
      <path
         id="path13"
         d="m 6.2585937,-5.6728906 c 0.4804688,-0.7734375 0.9023438,-0.8085938 1.2773438,-0.8203125 0.1171875,-0.011719 0.1289062,-0.1875 0.1289062,-0.1875 0,-0.082031 -0.058594,-0.1289063 -0.1289062,-0.1289063 -0.2578125,0 -0.5507813,0.035156 -0.8203125,0.035156 -0.328125,0 -0.6679688,-0.035156 -0.984375,-0.035156 -0.058594,0 -0.1875,0 -0.1875,0.1992188 0,0.1054687 0.082031,0.1171875 0.1523437,0.1171875 0.2695313,0.011719 0.4570313,0.1171875 0.4570313,0.328125 0,0.1523437 -0.140625,0.3632812 -0.140625,0.375 L 2.9539062,-0.92679688 2.2742187,-6.2002344 c 0,-0.1640625 0.2226563,-0.2929687 0.6796875,-0.2929687 0.140625,0 0.2578125,0 0.2578125,-0.1992188 0,-0.09375 -0.082031,-0.1171875 -0.140625,-0.1171875 -0.3984375,0 -0.8320312,0.035156 -1.2421875,0.035156 -0.1757812,0 -0.3632812,-0.011719 -0.5390625,-0.011719 -0.1875,0 -0.37499995,-0.023437 -0.53906245,-0.023437 -0.0703125,0 -0.1875,0 -0.1875,0.1992188 0,0.1171875 0.0820313,0.1171875 0.24609375,0.1171875 0.5507812,0 0.5625,0.082031 0.5976562,0.3398437 l 0.7851563,6.14062502 c 0.035156,0.19921875 0.070312,0.234375 0.1992187,0.234375 0.1640625,0 0.1992188,-0.0585938 0.28125,-0.1875 z m 0,0"
         style="fill:#009900;fill-opacity:1;fill-rule:nonzero;stroke:none" />
      <path
         id="path14"
         d="m 8.1423828,-2.9365625 c 0,-0.1875 -0.011719,-0.1992188 -0.2109375,-0.1992188 -0.4453125,0.4335938 -1.078125,0.4453125 -1.359375,0.4453125 v 0.2460938 c 0.1640625,0 0.6210938,0 1.0078125,-0.1875 v 3.55078125 c 0,0.23437495 0,0.32812495 -0.6914062,0.32812495 H 6.6189453 V 1.493125 c 0.1289063,-0.011719 0.984375,-0.023437 1.2421875,-0.023437 0.2109375,0 1.0898438,0.011719 1.2421875,0.023437 V 1.2470312 H 8.8455078 c -0.703125,0 -0.703125,-0.09375 -0.703125,-0.32812495 z m 0,0"
         style="fill:#009900;fill-opacity:1;fill-rule:nonzero;stroke:none" />
      <path
         id="path15"
         d="m 19.773242,-2.2744531 c 0.105469,-0.046875 0.1875,-0.09375 0.1875,-0.2226563 0,-0.1171875 -0.08203,-0.1640625 -0.1875,-0.2109375 l -5.519531,-2.6015625 c -0.128906,-0.070312 -0.152344,-0.070312 -0.175781,-0.070312 -0.117188,0 -0.199219,0.09375 -0.199219,0.1992188 0,0.09375 0.04687,0.1523437 0.1875,0.2226562 l 5.226562,2.4609375 -5.226562,2.47265627 c -0.140625,0.0703125 -0.1875,0.12890625 -0.1875,0.22265625 0,0.10546875 0.08203,0.19921875 0.199219,0.19921875 0.02344,0 0.04687,0 0.175781,-0.0703125 z M 29.825,-5.6728906 c 0.480469,-0.7734375 0.902344,-0.8085938 1.277344,-0.8203125 0.117187,-0.011719 0.128906,-0.1875 0.128906,-0.1875 0,-0.082031 -0.05859,-0.1289063 -0.128906,-0.1289063 -0.257813,0 -0.550782,0.035156 -0.820313,0.035156 -0.328125,0 -0.667969,-0.035156 -0.984375,-0.035156 -0.05859,0 -0.1875,0 -0.1875,0.1992188 0,0.1054687 0.08203,0.1171875 0.152344,0.1171875 0.269531,0.011719 0.457031,0.1171875 0.457031,0.328125 0,0.1523437 -0.140625,0.3632812 -0.140625,0.375 l -3.058594,4.86328122 -0.679687,-5.27343752 c 0,-0.1640625 0.222656,-0.2929687 0.679687,-0.2929687 0.140625,0 0.257813,0 0.257813,-0.1992188 0,-0.09375 -0.08203,-0.1171875 -0.140625,-0.1171875 -0.398438,0 -0.832031,0.035156 -1.242188,0.035156 -0.175781,0 -0.363281,-0.011719 -0.539062,-0.011719 -0.1875,0 -0.375,-0.023437 -0.539063,-0.023437 -0.07031,0 -0.1875,0 -0.1875,0.1992188 0,0.1171875 0.08203,0.1171875 0.246094,0.1171875 0.550781,0 0.5625,0.082031 0.597656,0.3398437 l 0.785157,6.14062502 c 0.03516,0.19921875 0.07031,0.234375 0.199218,0.234375 0.164063,0 0.199219,-0.0585938 0.28125,-0.1875 z m 0,0"
         style="fill:#009900;fill-opacity:1;fill-rule:nonzero;stroke:none" />
      <path
         id="path16"
         d="M 32.892383,0.2275 H 32.658008 C 32.634568,0.37984375 32.575978,0.79 32.482227,0.8603125 32.423637,0.8954688 31.88457,0.8954688 31.79082,0.8954688 h -1.289062 c 0.738281,-0.64453125 0.984375,-0.84375 1.394531,-1.171875 0.515625,-0.41015625 0.996094,-0.84375 0.996094,-1.5 0,-0.8437501 -0.738281,-1.3593751 -1.628906,-1.3593751 -0.867188,0 -1.453125,0.609375 -1.453125,1.2421876 0,0.3632813 0.304687,0.3984375 0.375,0.3984375 0.164062,0 0.375,-0.1171875 0.375,-0.375 0,-0.1289062 -0.05859,-0.3632812 -0.421875,-0.3632812 0.222656,-0.5039064 0.691406,-0.65625 1.019531,-0.65625 0.703125,0 1.066406,0.5507811 1.066406,1.1132812 0,0.609375 -0.433594,1.08984375 -0.65625,1.3359375 l -1.6875,1.6640625 c -0.07031,0.058594 -0.07031,0.070312 -0.07031,0.2695313 h 2.882812 z m 0,0"
         style="fill:#009900;fill-opacity:1;fill-rule:nonzero;stroke:none" />
      <path
         id="path17"
         d="m 43.339648,-2.2744531 c 0.105469,-0.046875 0.1875,-0.09375 0.1875,-0.2226563 0,-0.1171875 -0.08203,-0.1640625 -0.1875,-0.2109375 l -5.519531,-2.6015625 c -0.128906,-0.070312 -0.152344,-0.070312 -0.175781,-0.070312 -0.117188,0 -0.199219,0.09375 -0.199219,0.1992188 0,0.09375 0.04687,0.1523437 0.1875,0.2226562 l 5.226563,2.4609375 -5.226563,2.47265627 c -0.140625,0.0703125 -0.1875,0.12890625 -0.1875,0.22265625 0,0.10546875 0.08203,0.19921875 0.199219,0.19921875 0.02344,0 0.04687,0 0.175781,-0.0703125 z m 10.048829,-3.3984375 c 0.480468,-0.7734375 0.902343,-0.8085938 1.277343,-0.8203125 0.117188,-0.011719 0.128907,-0.1875 0.128907,-0.1875 0,-0.082031 -0.05859,-0.1289063 -0.128907,-0.1289063 -0.257812,0 -0.550781,0.035156 -0.820312,0.035156 -0.328125,0 -0.667969,-0.035156 -0.984375,-0.035156 -0.05859,0 -0.1875,0 -0.1875,0.1992188 0,0.1054687 0.08203,0.1171875 0.152344,0.1171875 0.269531,0.011719 0.457031,0.1171875 0.457031,0.328125 0,0.1523437 -0.140625,0.3632812 -0.140625,0.375 l -3.058594,4.86328122 -0.679687,-5.27343752 c 0,-0.1640625 0.222656,-0.2929687 0.679687,-0.2929687 0.140625,0 0.257813,0 0.257813,-0.1992188 0,-0.09375 -0.08203,-0.1171875 -0.140625,-0.1171875 -0.398438,0 -0.832032,0.035156 -1.242188,0.035156 -0.175781,0 -0.363281,-0.011719 -0.539062,-0.011719 -0.1875,0 -0.375,-0.023437 -0.539063,-0.023437 -0.07031,0 -0.1875,0 -0.1875,0.1992188 0,0.1171875 0.08203,0.1171875 0.246094,0.1171875 0.550781,0 0.5625,0.082031 0.597656,0.3398437 l 0.785156,6.14062502 c 0.03516,0.19921875 0.07031,0.234375 0.199219,0.234375 0.164063,0 0.199219,-0.0585938 0.28125,-0.1875 z m 0,0"
         style="fill:#009900;fill-opacity:1;fill-rule:nonzero;stroke:none" />
      <path
         id="path18"
         d="m 54.838672,-0.83890625 c 0.550781,0 0.9375,0.375 0.9375,1.125 0,0.86718745 -0.503906,1.12499995 -0.902344,1.12499995 -0.28125,0 -0.890625,-0.082031 -1.183594,-0.49218745 0.328125,-0.0117188 0.398438,-0.24609375 0.398438,-0.38671875 0,-0.22265625 -0.164063,-0.38671875 -0.386719,-0.38671875 -0.1875,0 -0.386719,0.1171875 -0.386719,0.41015625 0,0.65625 0.726563,1.078125 1.570313,1.078125 0.972656,0 1.640625,-0.64453125 1.640625,-1.34765625 0,-0.5390625 -0.445313,-1.08984375 -1.21875,-1.2421875 0.738281,-0.26953125 0.996094,-0.79687505 0.996094,-1.21875005 0,-0.5507812 -0.632813,-0.9609375 -1.40625,-0.9609375 -0.773438,0 -1.359375,0.375 -1.359375,0.9375 0,0.234375 0.152343,0.3632813 0.363281,0.3632813 0.210937,0 0.351562,-0.1640625 0.351562,-0.3515625 0,-0.1992188 -0.140625,-0.3515625 -0.351562,-0.3632813 0.234375,-0.3046875 0.714844,-0.3867187 0.972656,-0.3867187 0.316406,0 0.761719,0.1523437 0.761719,0.7617187 0,0.2929688 -0.105469,0.609375 -0.28125,0.8320313 -0.234375,0.2578125 -0.421875,0.28125 -0.773438,0.2929687 -0.175781,0.023437 -0.1875,0.023437 -0.222656,0.023437 -0.01172,0 -0.07031,0.011719 -0.07031,0.0937501 0,0.09375 0.05859,0.09375 0.175781,0.09375 z m 0,0"
         style="fill:#009900;fill-opacity:1;fill-rule:nonzero;stroke:none" />
    </g>
    <path
       id="path19"
       d="M 9.92155,0 H 123.45033"
       style="fill:none;stroke:#ff0000;stroke-width:0.79701;stroke-linecap:butt;stroke-linejoin:miter;stroke-miterlimit:10;stroke-dasharray:none;stroke-opacity:1"
       transform="matrix(1.3333333,0,0,-1.3333333,183.89333,183.89333)" />
    <path
       id="path20"
       d="M 5.44046,0 1.28699,1.5706 2.66432,0 1.28699,-1.5706 Z"
       style="fill:#ff0000;fill-opacity:1;fill-rule:nonzero;stroke:#ff0000;stroke-width:0.79701;stroke-linecap:butt;stroke-linejoin:miter;stroke-miterlimit:10;stroke-dasharray:none;stroke-opacity:1"
       transform="matrix(1.3333333,0,0,-1.3333333,345.20701,183.89333)" />
    <path
       id="path21"
       d="M 9.16595,3.79657 114.04884,47.23961"
       style="fill:none;stroke:#ff0000;stroke-width:0.79701;stroke-linecap:butt;stroke-linejoin:miter;stroke-miterlimit:10;stroke-dasharray:none;stroke-opacity:1"
       transform="matrix(1.3333333,0,0,-1.3333333,183.89333,183.89333)" />
    <path
       id="path22"
       d="M 5.44046,0 1.28699,1.5706 2.66432,0 1.28699,-1.5706 Z"
       style="fill:#ff0000;fill-opacity:1;fill-rule:nonzero;stroke:#ff0000;stroke-width:0.79701;stroke-linecap:butt;stroke-linejoin:miter;stroke-miterlimit:10;stroke-dasharray:none;stroke-opacity:1"
       transform="matrix(1.2317733,-0.51017333,-0.51017333,-1.2317733,332.92204,122.1648)" />
    <path
       id="path23"
       d="M 7.0156,7.0156 87.29266,87.29266"
       style="fill:none;stroke:#ff0000;stroke-width:0.79701;stroke-linecap:butt;stroke-linejoin:miter;stroke-miterlimit:10;stroke-dasharray:none;stroke-opacity:1"
       transform="matrix(1.3333333,0,0,-1.3333333,183.89333,183.89333)" />
    <path
       id="path24"
       d="M 5.44046,0 1.28699,1.5706 2.66432,0 1.28699,-1.5706 Z"
       style="fill:#ff0000;fill-opacity:1;fill-rule:nonzero;stroke:#ff0000;stroke-width:0.79701;stroke-linecap:butt;stroke-linejoin:miter;stroke-miterlimit:10;stroke-dasharray:none;stroke-opacity:1"
       transform="matrix(0.9428,-0.9428,-0.9428,-0.9428,297.95945,69.827213)" />
    <path
       id="path25"
       d="M 3.79657,9.16595 47.23961,114.04884"
       style="fill:none;stroke:#ff0000;stroke-width:0.79701;stroke-linecap:butt;stroke-linejoin:miter;stroke-miterlimit:10;stroke-dasharray:none;stroke-opacity:1"
       transform="matrix(1.3333333,0,0,-1.3333333,183.89333,183.89333)" />
    <path
       id="path26"
       d="M 5.44046,0 1.28699,1.5706 2.66432,0 1.28699,-1.5706 Z"
       style="fill:#ff0000;fill-opacity:1;fill-rule:nonzero;stroke:#ff0000;stroke-width:0.79701;stroke-linecap:butt;stroke-linejoin:miter;stroke-miterlimit:10;stroke-dasharray:none;stroke-opacity:1"
       transform="matrix(0.51017333,-1.2317733,-1.2317733,-0.51017333,245.62187,34.864627)" />
    <path
       id="path27"
       d="M 0,9.92155 V 123.45033"
       style="fill:none;stroke:#ff0000;stroke-width:0.79701;stroke-linecap:butt;stroke-linejoin:miter;stroke-miterlimit:10;stroke-dasharray:none;stroke-opacity:1"
       transform="matrix(1.3333333,0,0,-1.3333333,183.89333,183.89333)" />
    <path
       id="path28"
       d="M 5.44046,0 1.28699,1.5706 2.66432,0 1.28699,-1.5706 Z"
       style="fill:#ff0000;fill-opacity:1;fill-rule:nonzero;stroke:#ff0000;stroke-width:0.79701;stroke-linecap:butt;stroke-linejoin:miter;stroke-miterlimit:10;stroke-dasharray:none;stroke-opacity:1"
       transform="matrix(0,-1.3333333,-1.3333333,0,183.89333,22.579653)" />
    <path
       id="path29"
       d="M -3.79657,9.16595 -47.23961,114.04884"
       style="fill:none;stroke:#ff0000;stroke-width:0.79701;stroke-linecap:butt;stroke-linejoin:miter;stroke-miterlimit:10;stroke-dasharray:none;stroke-opacity:1"
       transform="matrix(1.3333333,0,0,-1.3333333,183.89333,183.89333)" />
    <path
       id="path30"
       d="M 5.44046,0 1.28699,1.5706 2.66432,0 1.28699,-1.5706 Z"
       style="fill:#ff0000;fill-opacity:1;fill-rule:nonzero;stroke:#ff0000;stroke-width:0.79701;stroke-linecap:butt;stroke-linejoin:miter;stroke-miterlimit:10;stroke-dasharray:none;stroke-opacity:1"
       transform="matrix(-0.51017333,-1.2317733,-1.2317733,0.51017333,122.1648,34.864627)" />
    <path
       id="path31"
       d="M -7.0156,7.0156 -87.29266,87.29266"
       style="fill:none;stroke:#ff0000;stroke-width:0.79701;stroke-linecap:butt;stroke-linejoin:miter;stroke-miterlimit:10;stroke-dasharray:none;stroke-opacity:1"
       transform="matrix(1.3333333,0,0,-1.3333333,183.89333,183.89333)" />
    <path
       id="path32"
       d="M 5.44046,0 1.28699,1.5706 2.66432,0 1.28699,-1.5706 Z"
       style="fill:#ff0000;fill-opacity:1;fill-rule:nonzero;stroke:#ff0000;stroke-width:0.79701;stroke-linecap:butt;stroke-linejoin:miter;stroke-miterlimit:10;stroke-dasharray:none;stroke-opacity:1"
       transform="matrix(-0.9428,-0.9428,-0.9428,0.9428,69.827213,69.827213)" />
    <path
       id="path33"
       d="M -9.16595,3.79657 -114.04884,47.23961"
       style="fill:none;stroke:#ff0000;stroke-width:0.79701;stroke-linecap:butt;stroke-linejoin:miter;stroke-miterlimit:10;stroke-dasharray:none;stroke-opacity:1"
       transform="matrix(1.3333333,0,0,-1.3333333,183.89333,183.89333)" />
    <path
       id="path34"
       d="M 5.44046,0 1.28699,1.5706 2.66432,0 1.28699,-1.5706 Z"
       style="fill:#ff0000;fill-opacity:1;fill-rule:nonzero;stroke:#ff0000;stroke-width:0.79701;stroke-linecap:butt;stroke-linejoin:miter;stroke-miterlimit:10;stroke-dasharray:none;stroke-opacity:1"
       transform="matrix(-1.2317733,-0.51017333,-0.51017333,1.2317733,34.864627,122.1648)" />
    <path
       id="path35"
       d="M -9.92155,0 H -123.45033"
       style="fill:none;stroke:#ff0000;stroke-width:0.79701;stroke-linecap:butt;stroke-linejoin:miter;stroke-miterlimit:10;stroke-dasharray:none;stroke-opacity:1"
       transform="matrix(1.3333333,0,0,-1.3333333,183.89333,183.89333)" />
    <path
       id="path36"
       d="M 5.44046,0 1.28699,1.5706 2.66432,0 1.28699,-1.5706 Z"
       style="fill:#ff0000;fill-opacity:1;fill-rule:nonzero;stroke:#ff0000;stroke-width:0.79701;stroke-linecap:butt;stroke-linejoin:miter;stroke-miterlimit:10;stroke-dasharray:none;stroke-opacity:1"
       transform="matrix(-1.3333333,0,0,1.3333333,22.579653,183.89333)" />
    <path
       id="path37"
       d="M -9.16595,-3.79657 -114.04884,-47.23961"
       style="fill:none;stroke:#ff0000;stroke-width:0.79701;stroke-linecap:butt;stroke-linejoin:miter;stroke-miterlimit:10;stroke-dasharray:none;stroke-opacity:1"
       transform="matrix(1.3333333,0,0,-1.3333333,183.89333,183.89333)" />
    <path
       id="path38"
       d="M 5.44046,0 1.28699,1.5706 2.66432,0 1.28699,-1.5706 Z"
       style="fill:#ff0000;fill-opacity:1;fill-rule:nonzero;stroke:#ff0000;stroke-width:0.79701;stroke-linecap:butt;stroke-linejoin:miter;stroke-miterlimit:10;stroke-dasharray:none;stroke-opacity:1"
       transform="matrix(-1.2317733,0.51017333,0.51017333,1.2317733,34.864627,245.62187)" />
    <path
       id="path39"
       d="M -7.0156,-7.0156 -87.29266,-87.29266"
       style="fill:none;stroke:#ff0000;stroke-width:0.79701;stroke-linecap:butt;stroke-linejoin:miter;stroke-miterlimit:10;stroke-dasharray:none;stroke-opacity:1"
       transform="matrix(1.3333333,0,0,-1.3333333,183.89333,183.89333)" />
    <path
       id="path40"
       d="M 5.44046,0 1.28699,1.5706 2.66432,0 1.28699,-1.5706 Z"
       style="fill:#ff0000;fill-opacity:1;fill-rule:nonzero;stroke:#ff0000;stroke-width:0.79701;stroke-linecap:butt;stroke-linejoin:miter;stroke-miterlimit:10;stroke-dasharray:none;stroke-opacity:1"
       transform="matrix(-0.9428,0.9428,0.9428,0.9428,69.827213,297.95945)" />
    <path
       id="path41"
       d="M -3.79657,-9.16595 -47.23961,-114.04884"
       style="fill:none;stroke:#ff0000;stroke-width:0.79701;stroke-linecap:butt;stroke-linejoin:miter;stroke-miterlimit:10;stroke-dasharray:none;stroke-opacity:1"
       transform="matrix(1.3333333,0,0,-1.3333333,183.89333,183.89333)" />
    <path
       id="path42"
       d="M 5.44046,0 1.28699,1.5706 2.66432,0 1.28699,-1.5706 Z"
       style="fill:#ff0000;fill-opacity:1;fill-rule:nonzero;stroke:#ff0000;stroke-width:0.79701;stroke-linecap:butt;stroke-linejoin:miter;stroke-miterlimit:10;stroke-dasharray:none;stroke-opacity:1"
       transform="matrix(-0.51017333,1.2317733,1.2317733,0.51017333,122.1648,332.92204)" />
    <path
       id="path43"
       d="M 0,-9.92155 V -123.45033"
       style="fill:none;stroke:#ff0000;stroke-width:0.79701;stroke-linecap:butt;stroke-linejoin:miter;stroke-miterlimit:10;stroke-dasharray:none;stroke-opacity:1"
       transform="matrix(1.3333333,0,0,-1.3333333,183.89333,183.89333)" />
    <path
       id="path44"
       d="M 5.44046,0 1.28699,1.5706 2.66432,0 1.28699,-1.5706 Z"
       style="fill:#ff0000;fill-opacity:1;fill-rule:nonzero;stroke:#ff0000;stroke-width:0.79701;stroke-linecap:butt;stroke-linejoin:miter;stroke-miterlimit:10;stroke-dasharray:none;stroke-opacity:1"
       transform="matrix(0,1.3333333,1.3333333,0,183.89333,345.20701)" />
    <path
       id="path45"
       d="M 3.79657,-9.16595 47.23961,-114.04884"
       style="fill:none;stroke:#ff0000;stroke-width:0.79701;stroke-linecap:butt;stroke-linejoin:miter;stroke-miterlimit:10;stroke-dasharray:none;stroke-opacity:1"
       transform="matrix(1.3333333,0,0,-1.3333333,183.89333,183.89333)" />
    <path
       id="path46"
       d="M 5.44046,0 1.28699,1.5706 2.66432,0 1.28699,-1.5706 Z"
       style="fill:#ff0000;fill-opacity:1;fill-rule:nonzero;stroke:#ff0000;stroke-width:0.79701;stroke-linecap:butt;stroke-linejoin:miter;stroke-miterlimit:10;stroke-dasharray:none;stroke-opacity:1"
       transform="matrix(0.51017333,1.2317733,1.2317733,-0.51017333,245.62187,332.92204)" />
    <path
       id="path47"
       d="M 7.0156,-7.0156 87.29266,-87.29266"
       style="fill:none;stroke:#ff0000;stroke-width:0.79701;stroke-linecap:butt;stroke-linejoin:miter;stroke-miterlimit:10;stroke-dasharray:none;stroke-opacity:1"
       transform="matrix(1.3333333,0,0,-1.3333333,183.89333,183.89333)" />
    <path
       id="path48"
       d="M 5.44046,0 1.28699,1.5706 2.66432,0 1.28699,-1.5706 Z"
       style="fill:#ff0000;fill-opacity:1;fill-rule:nonzero;stroke:#ff0000;stroke-width:0.79701;stroke-linecap:butt;stroke-linejoin:miter;stroke-miterlimit:10;stroke-dasharray:none;stroke-opacity:1"
       transform="matrix(0.9428,0.9428,0.9428,-0.9428,297.95945,297.95945)" />
    <path
       id="path49"
       d="M 9.16595,-3.79657 114.04884,-47.23961"
       style="fill:none;stroke:#ff0000;stroke-width:0.79701;stroke-linecap:butt;stroke-linejoin:miter;stroke-miterlimit:10;stroke-dasharray:none;stroke-opacity:1"
       transform="matrix(1.3333333,0,0,-1.3333333,183.89333,183.89333)" />
    <path
       id="path50"
       d="M 5.44046,0 1.28699,1.5706 2.66432,0 1.28699,-1.5706 Z"
       style="fill:#ff0000;fill-opacity:1;fill-rule:nonzero;stroke:#ff0000;stroke-width:0.79701;stroke-linecap:butt;stroke-linejoin:miter;stroke-miterlimit:10;stroke-dasharray:none;stroke-opacity:1"
       transform="matrix(1.2317733,0.51017333,0.51017333,-1.2317733,332.92204,245.62187)" />
    <path
       id="path51"
       d="m 5.3446328,-5.9288203 c -0.1289062,0.1289062 -0.4570312,0.4101562 -0.4570312,0.5859375 0,0.1054687 0.09375,0.1992187 0.1992187,0.1992187 0.082031,0 0.1289063,-0.070312 0.1875,-0.1289062 0.1171875,-0.140625 0.3398438,-0.421875 0.7851563,-0.6445313 0.070312,-0.035156 0.1640625,-0.09375 0.1640625,-0.2109375 0,-0.09375 -0.070312,-0.1523437 -0.140625,-0.1992187 -0.2109375,-0.1523438 -0.328125,-0.328125 -0.3984375,-0.5625 -0.023437,-0.09375 -0.070312,-0.2226563 -0.1992188,-0.2226563 -0.140625,0 -0.1992187,0.1289063 -0.1992187,0.2109375 0,0.046875 0.070312,0.3632813 0.234375,0.5742188 H 2.1571328 c -0.1640625,0 -0.3398437,0 -0.3398437,0.1992187 0,0.1992188 0.1757812,0.1992188 0.3398437,0.1992188 z m 0.1728516,6.12597655 c 0.023437,-0.046875 0.046875,-0.1171875 0.046875,-0.140625 0,-0.01171875 0,-0.10546875 -0.1171875,-0.10546875 -0.09375,0 -0.1054688,0.05859375 -0.1289063,0.1171875 -0.6445312,1.4765625 -1.0195312,2.1445313 -2.71875,2.1445313 h -1.453125 c -0.140625,0 -0.16406247,0 -0.22265622,-0.011719 C 0.81826563,2.1893438 0.79482813,2.177625 0.79482813,2.0955938 c 0,-0.023437 0,-0.046875 0.046875,-0.2226563 l 0.67968747,-2.71875 h 0.984375 c 0.84375,0 0.84375,0.2109375 0.84375,0.45703125 0,0.0703125 0,0.1875 -0.070312,0.48046875 -0.011719,0.05859375 -0.023437,0.08203125 -0.023437,0.1171875 0,0.046875 0.035156,0.10546875 0.1289063,0.10546875 0.082031,0 0.1054687,-0.046875 0.1523437,-0.19921875 l 0.5625,-2.3320312 c 0,-0.058594 -0.046875,-0.1054688 -0.1171875,-0.1054688 -0.09375,0 -0.1054687,0.058594 -0.140625,0.1757813 -0.2109375,0.7617187 -0.3867187,0.984375 -1.3007812,0.984375 h -0.9375 l 0.5976562,-2.4023438 c 0.082031,-0.3398437 0.09375,-0.3867187 0.5390625,-0.3867187 h 1.40625 c 1.2070313,0 1.5117188,0.2929687 1.5117188,1.1132812 0,0.234375 0,0.2578125 -0.046875,0.5273438 0,0.058594 -0.011719,0.1289062 -0.011719,0.1757812 0,0.046875 0.035156,0.1171875 0.1289063,0.1171875 0.1054687,0 0.1171875,-0.058594 0.140625,-0.2460937 L 6.0682656,-3.9864375 C 6.0917031,-4.2559687 6.0448281,-4.2559687 5.7987344,-4.2559687 H 0.75967188 c -0.19921875,0 -0.29296875,0 -0.29296875,0.1992187 0,0.1054688 0.09375,0.1054688 0.28125,0.1054688 0.36328127,0 0.64453127,0 0.64453127,0.1875 0,0.035156 0,0.058594 -0.046875,0.234375 L 0.02139063,1.7440313 c -0.09375,0.3867187 -0.1171875,0.46875 -0.90234375,0.46875 -0.16406248,0 -0.28124998,0 -0.28124998,0.1875 0,0.1171875 0.09375,0.1171875 0.28124998,0.1171875 H 4.2870156 c 0.234375,0 0.2460938,-0.011719 0.3164063,-0.1640625 z m 0,0"
       style="fill:#ff0000;fill-opacity:1;fill-rule:nonzero;stroke:none"
       aria-label="⃗&#10;E"
       transform="matrix(1.3333333,0,0,1.3333333,331.83867,168.284)" />
    <path
       id="path52"
       d="m 5.3432344,-5.9306797 c -0.1289063,0.1289063 -0.4570313,0.4101563 -0.4570313,0.5859375 0,0.1054688 0.09375,0.1992188 0.1992188,0.1992188 0.082031,0 0.1289062,-0.070312 0.1875,-0.1289063 0.1171875,-0.140625 0.3398437,-0.421875 0.7851562,-0.6445312 0.070312,-0.035156 0.1640625,-0.09375 0.1640625,-0.2109375 0,-0.09375 -0.070312,-0.1523438 -0.140625,-0.1992188 -0.2109375,-0.1523437 -0.328125,-0.328125 -0.3984375,-0.5625 -0.023437,-0.09375 -0.070312,-0.2226562 -0.1992187,-0.2226562 -0.140625,0 -0.1992188,0.1289062 -0.1992188,0.2109375 0,0.046875 0.070312,0.3632812 0.234375,0.5742187 H 2.1557344 c -0.1640625,0 -0.3398438,0 -0.3398438,0.1992188 0,0.1992187 0.1757813,0.1992187 0.3398438,0.1992187 z m 0.1728515,6.12890626 c 0.023437,-0.046875 0.046875,-0.1171875 0.046875,-0.140625 0,-0.01171875 0,-0.10546875 -0.1171875,-0.10546875 -0.09375,0 -0.1054687,0.05859375 -0.1289062,0.1171875 C 4.6723359,1.5458828 4.2973359,2.2138516 2.5981172,2.2138516 h -1.453125 c -0.140625,0 -0.16406251,0 -0.22265626,-0.011719 -0.10546875,-0.011719 -0.12890625,-0.023437 -0.12890625,-0.1054687 0,-0.023437 0,-0.046875 0.046875,-0.2226563 L 1.5199922,-0.84474219 h 0.984375 c 0.84375,0 0.84375,0.2109375 0.84375,0.45703125 0,0.0703125 0,0.1875 -0.070312,0.48046875 -0.011719,0.05859375 -0.023437,0.08203125 -0.023437,0.1171875 0,0.046875 0.035156,0.10546875 0.1289062,0.10546875 0.082031,0 0.1054688,-0.046875 0.1523438,-0.19921875 l 0.5625,-2.33203121 c 0,-0.058594 -0.046875,-0.1054688 -0.1171875,-0.1054688 -0.09375,0 -0.1054688,0.058594 -0.140625,0.1757813 -0.2109375,0.7617187 -0.3867188,0.984375 -1.3007813,0.984375 h -0.9375 l 0.5976563,-2.4023438 c 0.082031,-0.3398437 0.09375,-0.3867187 0.5390625,-0.3867187 h 1.40625 c 1.2070312,0 1.5117187,0.2929687 1.5117187,1.1132812 0,0.234375 0,0.2578125 -0.046875,0.5273438 0,0.058594 -0.011719,0.1289062 -0.011719,0.1757812 0,0.046875 0.035156,0.1171875 0.1289062,0.1171875 0.1054688,0 0.1171875,-0.058594 0.140625,-0.2460937 L 6.0668672,-3.9853672 C 6.0903047,-4.2548984 6.0434297,-4.2548984 5.7973359,-4.2548984 H 0.75827344 c -0.19921875,0 -0.29296875,0 -0.29296875,0.1992187 0,0.1054688 0.09375,0.1054688 0.28125,0.1054688 0.36328121,0 0.64453121,0 0.64453121,0.1875 0,0.035156 0,0.058594 -0.046875,0.234375 L 0.01999219,1.7451016 c -0.09375,0.3867187 -0.1171875,0.46875 -0.90234375,0.46875 -0.16406254,0 -0.28125004,0 -0.28125004,0.1875 0,0.1171875 0.09375,0.1171875 0.28125004,0.1171875 H 4.2856172 c 0.234375,0 0.2460937,-0.011719 0.3164062,-0.1640625 z m 0,0"
       style="fill:#ff0000;fill-opacity:1;fill-rule:nonzero;stroke:none"
       aria-label="⃗&#10;E"
       transform="matrix(1.3333333,0,0,1.3333333,198.196,35.778667)" />
    <path
       id="path53"
       d="M 11.98499,0 C 11.98499,6.6192 6.6192,11.98499 0,11.98499 -6.6192,11.98499 -11.98499,6.6192 -11.98499,0 c 0,-6.6192 5.36579,-11.98499 11.98499,-11.98499 6.6192,0 11.98499,5.36579 11.98499,11.98499 z"
       style="fill:#fad7da;fill-opacity:1;fill-rule:nonzero;stroke:#e63946;stroke-width:1.19553;stroke-linecap:butt;stroke-linejoin:miter;stroke-miterlimit:10;stroke-dasharray:none;stroke-opacity:1"
       transform="matrix(1.3333333,0,0,-1.3333333,183.89333,183.89333)" />
    <g
       id="g53"
       aria-label="+q"
       transform="matrix(1.3333333,0,0,1.3333333,175.524,186.476)">
      <path
         id="path54"
         d="m 4.0777031,-2.2964531 h 2.7773438 c 0.140625,0 0.328125,0 0.328125,-0.1992188 0,-0.1992187 -0.1875,-0.1992187 -0.328125,-0.1992187 H 4.0777031 v -2.7890625 c 0,-0.1289063 0,-0.328125 -0.1992187,-0.328125 -0.1992188,0 -0.1992188,0.1992187 -0.1992188,0.328125 v 2.7890625 H 0.89020312 c -0.140625,0 -0.328125,0 -0.328125,0.1992187 0,0.1992188 0.1875,0.1992188 0.328125,0.1992188 H 3.6792656 v 2.80078123 c 0,0.12890625 0,0.328125 0.1992188,0.328125 0.1992187,0 0.1992187,-0.19921875 0.1992187,-0.328125 z m 0,0"
         style="fill:#000000;fill-opacity:1;fill-rule:nonzero;stroke:none" />
      <path
         id="path55"
         d="m 12.248602,-4.2886406 c 0,-0.046875 -0.02344,-0.1054688 -0.09375,-0.1054688 -0.117188,0 -0.515625,0.3984375 -0.679688,0.6914063 -0.222656,-0.5390625 -0.609375,-0.703125 -0.925781,-0.703125 -1.1718752,0 -2.4023439,1.4765625 -2.4023439,2.9179687 0,0.98437503 0.5859375,1.59375003 1.3125,1.59375003 0.4335937,0 0.8203129,-0.234375 1.1835939,-0.59765625 -0.09375,0.3515625 -0.421875,1.69921872 -0.457031,1.79296872 -0.08203,0.2695313 -0.152344,0.3164063 -0.7148442,0.328125 -0.1289062,0 -0.2226562,0 -0.2226562,0.1992188 0,0 0,0.1054687 0.1289062,0.1054687 0.3164063,0 0.6679692,-0.035156 0.9960942,-0.035156 0.328125,0 0.691406,0.035156 1.019531,0.035156 0.04687,0 0.175781,0 0.175781,-0.1992187 0,-0.1054688 -0.09375,-0.1054688 -0.257812,-0.1054688 -0.46875,0 -0.46875,-0.070312 -0.46875,-0.1640625 0,-0.070312 0.01172,-0.1289062 0.03516,-0.2226562 z m -2.7539067,4.18359373 c -0.5976562,0 -0.6445312,-0.7734375 -0.6445312,-0.93750003 0,-0.4804687 0.2929687,-1.5703125 0.4570312,-1.9804687 0.3164063,-0.7382813 0.8320317,-1.1601563 1.2421877,-1.1601563 0.644531,0 0.785156,0.8085938 0.785156,0.8789063 0,0.058594 -0.550781,2.2382812 -0.574219,2.2734375 -0.152343,0.28124998 -0.714843,0.92578123 -1.2656247,0.92578123 z m 0,0"
         style="fill:#000000;fill-opacity:1;fill-rule:nonzero;stroke:none" />
    </g>
  </g>
</svg>
