<?xml version="1.0" encoding="UTF-8" standalone="no"?>
<!-- Created with Inkscape (http://www.inkscape.org/) -->

<svg
   version="1.1"
   id="svg1"
   width="189.51007"
   height="189.51007"
   viewBox="0 0 189.51007 189.51007"
   xmlns="http://www.w3.org/2000/svg"
   xmlns:svg="http://www.w3.org/2000/svg">
  <defs
     id="defs1" />
  <g
     id="g1"
     transform="translate(-13.282292,-13.282292)">
    <path
       id="path1"
       d="M 70.86703,0 C 70.86703,39.13928 39.13928,70.86703 0,70.86703 -39.13928,70.86703 -70.86703,39.13928 -70.86703,0 c 0,-39.13928 31.72775,-70.86703 70.86703,-70.86703 39.13928,0 70.86703,31.72775 70.86703,70.86703 z"
       style="fill:#c7d7e2;fill-opacity:1;fill-rule:nonzero;stroke:#000000;stroke-width:0.3985;stroke-linecap:butt;stroke-linejoin:miter;stroke-miterlimit:10;stroke-dasharray:none;stroke-opacity:1"
       transform="matrix(1.3333333,0,0,-1.3333333,108.03733,108.03733)" />
    <path
       id="path2"
       d="M 62.3629,0 C 62.3629,34.4425 34.4425,62.3629 0,62.3629 -34.4425,62.3629 -62.3629,34.4425 -62.3629,0 c 0,-34.4425 27.9204,-62.3629 62.3629,-62.3629 34.4425,0 62.3629,27.9204 62.3629,62.3629 z"
       style="fill:#e6e6e6;fill-opacity:1;fill-rule:nonzero;stroke:#e6e6e6;stroke-width:0.3985;stroke-linecap:butt;stroke-linejoin:miter;stroke-miterlimit:10;stroke-dasharray:none;stroke-opacity:1"
       transform="matrix(1.3333333,0,0,-1.3333333,108.03733,108.03733)" />
    <path
       id="path3"
       d="M 36.85094,0 C 36.85094,20.35246 20.35246,36.85094 0,36.85094 -20.35246,36.85094 -36.85094,20.35246 -36.85094,0 c 0,-20.35246 16.49848,-36.85094 36.85094,-36.85094 20.35246,0 36.85094,16.49848 36.85094,36.85094 z"
       style="fill:#f8c4c8;fill-opacity:1;fill-rule:nonzero;stroke:#f8c4c8;stroke-width:0.3985;stroke-linecap:butt;stroke-linejoin:miter;stroke-miterlimit:10;stroke-dasharray:none;stroke-opacity:1"
       transform="matrix(1.3333333,0,0,-1.3333333,108.03733,108.03733)" />
    <path
       id="path4"
       d="M 28.3468,0 C 28.3468,15.6557 15.6557,28.3468 0,28.3468 -15.6557,28.3468 -28.3468,15.6557 -28.3468,0 c 0,-15.6557 12.6911,-28.3468 28.3468,-28.3468 15.6557,0 28.3468,12.6911 28.3468,28.3468 z"
       style="fill:#ffffff;fill-opacity:1;fill-rule:nonzero;stroke:#000000;stroke-width:0.3985;stroke-linecap:butt;stroke-linejoin:miter;stroke-miterlimit:10;stroke-dasharray:none;stroke-opacity:1"
       transform="matrix(1.3333333,0,0,-1.3333333,108.03733,108.03733)" />
    <path
       id="path5"
       d="M 0,0 24.5491,14.17339"
       style="fill:none;stroke:#000000;stroke-width:0.3985;stroke-linecap:butt;stroke-linejoin:miter;stroke-miterlimit:10;stroke-dasharray:none;stroke-opacity:1"
       transform="matrix(1.3333333,0,0,-1.3333333,108.03733,108.03733)" />
    <path
       id="path6"
       d="m 3.7138125,-3.7628203 c -0.1757812,-0.375 -0.46875,-0.6445313 -0.9140625,-0.6445313 -1.171875,0 -2.40234375,1.4648438 -2.40234375,2.9179688 0,0.93749999 0.55078125,1.59374999 1.32421875,1.59374999 0.1992188,0 0.703125,-0.03515625 1.3007813,-0.73828125 0.070312,0.41015625 0.421875,0.73828125 0.9023437,0.73828125 0.3515625,0 0.5742188,-0.22265625 0.7382813,-0.5390625 C 4.8270938,-0.79797656 4.956,-1.4073516 4.956,-1.4307891 c 0,-0.09375 -0.082031,-0.09375 -0.1171875,-0.09375 -0.09375,0 -0.1054687,0.035156 -0.140625,0.1757813 -0.1640625,0.64453124 -0.3515625,1.24218749 -0.75,1.24218749 -0.2695312,0 -0.3046875,-0.2578125 -0.3046875,-0.45703125 0,-0.22265625 0.023437,-0.3046875 0.1289063,-0.73828124 0.1171875,-0.421875 0.1289062,-0.5273438 0.2226562,-0.9023438 L 4.346625,-3.5987578 c 0.070312,-0.28125 0.070312,-0.2929688 0.070312,-0.3398438 0,-0.1640625 -0.1171875,-0.2695312 -0.28125,-0.2695312 -0.2460937,0 -0.3867187,0.2226562 -0.4218745,0.4453125 z m -0.6445312,2.578125 c -0.046875,0.1757812 -0.046875,0.19921874 -0.1992188,0.36328124 -0.4453125,0.55078125 -0.84375,0.71484375 -1.125,0.71484375 -0.5039062,0 -0.6445312,-0.55078125 -0.6445312,-0.93749999 0,-0.5039063 0.328125,-1.7226563 0.5507812,-2.1796875 0.3046875,-0.5976563 0.7617188,-0.9609375 1.1601563,-0.9609375 0.6445312,0 0.7851562,0.8203125 0.7851562,0.8789062 0,0.058594 -0.023437,0.1171875 -0.035156,0.1640625 z m 0,0"
       style="fill:#000000;fill-opacity:1;fill-rule:nonzero;stroke:none"
       aria-label="a"
       transform="matrix(1.3333333,0,0,1.3333333,120.892,93.896)" />
    <path
       id="path7"
       d="M 0,0 -24.23833,-66.59352"
       style="fill:none;stroke:#000000;stroke-width:0.3985;stroke-linecap:butt;stroke-linejoin:miter;stroke-miterlimit:10;stroke-dasharray:none;stroke-opacity:1"
       transform="matrix(1.3333333,0,0,-1.3333333,108.03733,108.03733)" />
    <path
       id="path8"
       d="m 2.3788828,-6.8080859 c 0,0 0,-0.1054688 -0.1289062,-0.1054688 -0.2226563,0 -0.9492188,0.082031 -1.21875,0.1054688 -0.0703125,0 -0.18750004,0.011719 -0.18750004,0.1992187 0,0.1171875 0.09375,0.1171875 0.24609374,0.1171875 0.46875,0 0.4921875,0.070312 0.4921875,0.1640625 0,0.070312 -0.082031,0.4101563 -0.140625,0.6210938 l -0.80859374,3.2460937 c -0.12890625,0.5039063 -0.1640625,0.65625 -0.1640625,1.0078125 0,0.94921876 0.52734375,1.55859376 1.26562504,1.55859376 1.171875,0 2.4023437,-1.47656246 2.4023437,-2.91796876 0,-0.9023437 -0.5273437,-1.59375 -1.3242187,-1.59375 -0.4570313,0 -0.8671875,0.2929688 -1.171875,0.5976563 z m -0.9375,3.7734375 c 0.058594,-0.2226563 0.058594,-0.2460938 0.1523438,-0.3515625 0.4921875,-0.6445313 0.9375,-0.796875 1.1953125,-0.796875 0.3632812,0 0.6328125,0.2929687 0.6328125,0.9375 0,0.5859375 -0.328125,1.734375 -0.515625,2.109375 -0.328125,0.66796871 -0.7851563,1.03124996 -1.171875,1.03124996 -0.3398438,0 -0.6679688,-0.26953125 -0.6679688,-1.00781246 0,-0.1875 0,-0.3867188 0.1640625,-1.0078125 z m 0,0"
       style="fill:#000000;fill-opacity:1;fill-rule:nonzero;stroke:none"
       aria-label="b"
       transform="matrix(1.3333333,0,0,1.3333333,75.668,173.02667)" />
    <path
       id="path9"
       d="m 28.3468,0 h 15.30724 m 11.9057,0 H 70.867"
       style="fill:none;stroke:#000000;stroke-width:0.3985;stroke-linecap:butt;stroke-linejoin:miter;stroke-miterlimit:10;stroke-dasharray:none;stroke-opacity:1"
       transform="matrix(1.3333333,0,0,-1.3333333,108.03733,108.03733)" />
    <path
       id="path10"
       d="m 51.57133,0 h 3.98841 m -7.9173,0 h -3.9884"
       style="fill:none;stroke:#000000;stroke-width:0.3985;stroke-linecap:butt;stroke-linejoin:miter;stroke-miterlimit:10;stroke-dasharray:none;stroke-opacity:1"
       transform="matrix(1.3333333,0,0,-1.3333333,108.03733,108.03733)" />
    <path
       id="path11"
       d="M 51.57133,5.95285 V -5.95285 M 47.64244,11.90572 V -11.90572"
       style="fill:none;stroke:#000000;stroke-width:0.797;stroke-linecap:butt;stroke-linejoin:miter;stroke-miterlimit:10;stroke-dasharray:none;stroke-opacity:1"
       transform="matrix(1.3333333,0,0,-1.3333333,108.03733,108.03733)" />
    <path
       id="path12"
       d="m 4.0774922,-2.2979453 h 2.7773437 c 0.140625,0 0.328125,0 0.328125,-0.1992188 0,-0.1992187 -0.1875,-0.1992187 -0.328125,-0.1992187 H 4.0774922 v -2.7890625 c 0,-0.1289063 0,-0.328125 -0.1992188,-0.328125 -0.1992187,0 -0.1992187,0.1992187 -0.1992187,0.328125 v 2.7890625 H 0.88999219 c -0.140625,0 -0.328125,0 -0.328125,0.1992187 0,0.1992188 0.1875,0.1992188 0.328125,0.1992188 H 3.6790547 v 2.80078124 c 0,0.12890625 0,0.328125 0.1992187,0.328125 0.1992188,0 0.1992188,-0.19921875 0.1992188,-0.328125 z m 0,0"
       style="fill:#000000;fill-opacity:1;fill-rule:nonzero;stroke:none"
       aria-label="+"
       transform="matrix(1.3333333,0,0,1.3333333,158.536,129.50533)" />
    <path
       id="path13"
       d="m 6.5636406,-2.2979453 c 0.1757813,0 0.3515625,0 0.3515625,-0.1992188 0,-0.1992187 -0.1757812,-0.1992187 -0.3515625,-0.1992187 h -5.390625 c -0.1640625,0 -0.33984372,0 -0.33984372,0.1992187 0,0.1992188 0.17578122,0.1992188 0.33984372,0.1992188 z m 0,0"
       style="fill:#000000;fill-opacity:1;fill-rule:nonzero;stroke:none"
       aria-label="−"
       transform="matrix(1.3333333,0,0,1.3333333,179.49067,129.50533)" />
    <g
       id="g13"
       aria-label="∆V"
       transform="matrix(1.3333333,0,0,1.3333333,163.29333,141.35867)">
      <path
         id="path14"
         d="m 4.4059766,-6.9486875 c -0.070312,-0.1289063 -0.09375,-0.1875 -0.2578125,-0.1875 -0.1757813,0 -0.1992188,0.058594 -0.2578125,0.1875 l -3.37500004,6.75 c -0.046875,0.09375 -0.046875,0.10546875 -0.046875,0.1171875 0,0.08203125 0.0585938,0.08203125 0.22265625,0.08203125 H 7.6051953 c 0.1523438,0 0.2109375,0 0.2109375,-0.08203125 0,-0.01171875 0,-0.0234375 -0.046875,-0.1171875 z m -0.5859375,0.8085937 2.6835937,5.3789063 H 1.1364453 Z m 0,0"
         style="fill:#000000;fill-opacity:1;fill-rule:nonzero;stroke:none" />
      <path
         id="path15"
         d="m 14.560273,-5.6713438 c 0.480469,-0.7734375 0.902344,-0.8085937 1.277344,-0.8203125 0.117188,-0.011719 0.128906,-0.1875 0.128906,-0.1875 0,-0.082031 -0.05859,-0.1289062 -0.128906,-0.1289062 -0.257812,0 -0.550781,0.035156 -0.820312,0.035156 -0.328125,0 -0.667969,-0.035156 -0.984375,-0.035156 -0.05859,0 -0.1875,0 -0.1875,0.1992187 0,0.1054688 0.08203,0.1171875 0.152343,0.1171875 0.269532,0.011719 0.457032,0.1171875 0.457032,0.328125 0,0.1523438 -0.140625,0.3632813 -0.140625,0.375 L 11.255586,-0.92525 10.575898,-6.1986875 c 0,-0.1640625 0.222657,-0.2929688 0.679688,-0.2929688 0.140625,0 0.257812,0 0.257812,-0.1992187 0,-0.09375 -0.08203,-0.1171875 -0.140625,-0.1171875 -0.398437,0 -0.832031,0.035156 -1.242187,0.035156 -0.1757813,0 -0.3632813,-0.011719 -0.5390626,-0.011719 -0.1875,0 -0.375,-0.023437 -0.5390625,-0.023437 -0.070312,0 -0.1875,0 -0.1875,0.1992187 0,0.1171875 0.082031,0.1171875 0.2460938,0.1171875 0.5507812,0 0.5625,0.082031 0.5976562,0.3398438 l 0.7851561,6.140625 c 0.03516,0.19921875 0.07031,0.234375 0.199219,0.234375 0.164062,0 0.199219,-0.0585938 0.28125,-0.1875 z m 0,0"
         style="fill:#000000;fill-opacity:1;fill-rule:nonzero;stroke:none" />
    </g>
    <g
       id="g15"
       aria-label="+Q"
       transform="matrix(1.3333333,0,0,1.3333333,97.621333,62.966667)">
      <path
         id="path16"
         d="m 4.0779453,-2.2982422 h 2.7773438 c 0.140625,0 0.328125,0 0.328125,-0.1992187 0,-0.1992188 -0.1875,-0.1992188 -0.328125,-0.1992188 H 4.0779453 v -2.7890625 c 0,-0.1289062 0,-0.328125 -0.1992187,-0.328125 -0.1992188,0 -0.1992188,0.1992188 -0.1992188,0.328125 v 2.7890625 H 0.89044531 c -0.140625,0 -0.328125,0 -0.328125,0.1992188 0,0.1992187 0.1875,0.1992187 0.328125,0.1992187 H 3.6795078 v 2.80078126 c 0,0.12890625 0,0.328125 0.1992188,0.328125 0.1992187,0 0.1992187,-0.19921875 0.1992187,-0.328125 z m 0,0"
         style="fill:#000000;fill-opacity:1;fill-rule:nonzero;stroke:none" />
      <path
         id="path17"
         d="m 12.108219,-0.05996094 c 1.546875,-0.5859375 3.011719,-2.36718746 3.011719,-4.28906246 0,-1.59375 -1.054688,-2.671875 -2.542969,-2.671875 -2.144531,0 -4.3359377,2.2617187 -4.3359377,4.5820312 0,1.65234376 1.1132812,2.66015626 2.5429687,2.66015626 0.257813,0 0.585938,-0.046875 0.984375,-0.15234375 -0.04687,0.62109375 -0.04687,0.6328125 -0.04687,0.76171875 0,0.32812504 0,1.10156254 0.832031,1.10156254 1.183594,0 1.664063,-1.82812504 1.664063,-1.93359379 0,-0.0703125 -0.07031,-0.10546875 -0.117188,-0.10546875 -0.07031,0 -0.09375,0.05859375 -0.117187,0.1171875 -0.234375,0.703125 -0.820313,0.94921875 -1.160156,0.94921875 -0.457032,0 -0.609375,-0.2578125 -0.714844,-1.01953125 z m -1.875,-0.08203125 C 9.4480625,-0.44667969 9.1082188,-1.2318359 9.1082188,-2.1224609 c 0,-0.6914063 0.2695312,-2.0976563 1.0195312,-3.1757813 0.726563,-1.0195312 1.664063,-1.4765625 2.390625,-1.4765625 0.996094,0 1.722656,0.7734375 1.722656,2.109375 0,0.9960938 -0.503906,3.328125 -2.179687,4.26562501 -0.04687,-0.3515625 -0.152344,-1.07812501 -0.878906,-1.07812501 -0.527344,0 -1.007813,0.50390626 -1.007813,1.01953126 0,0.19921875 0.05859,0.3046875 0.05859,0.31640625 z m 0.609375,0.10546875 c -0.140625,0 -0.457031,0 -0.457031,-0.421875 0,-0.3984375 0.386718,-0.79687496 0.796875,-0.79687496 0.421875,0 0.609375,0.234375 0.609375,0.84374996 0,0.15234375 -0.01172,0.1640625 -0.105469,0.19921875 -0.257813,0.10546875 -0.5625,0.17578125 -0.84375,0.17578125 z m 0,0"
         style="fill:#000000;fill-opacity:1;fill-rule:nonzero;stroke:none" />
    </g>
    <g
       id="g17"
       aria-label="−Q"
       transform="matrix(1.3333333,0,0,1.3333333,18.242667,111.284)">
      <path
         id="path18"
         d="m 6.5621406,-2.2960078 c 0.1757813,0 0.3515625,0 0.3515625,-0.1992188 0,-0.1992187 -0.1757812,-0.1992187 -0.3515625,-0.1992187 h -5.390625 c -0.1640625,0 -0.33984372,0 -0.33984372,0.1992187 0,0.1992188 0.17578122,0.1992188 0.33984372,0.1992188 z m 0,0"
         style="fill:#000000;fill-opacity:1;fill-rule:nonzero;stroke:none" />
      <path
         id="path19"
         d="m 12.108039,-0.05772656 c 1.546875,-0.5859375 3.011719,-2.36718754 3.011719,-4.28906254 0,-1.59375 -1.054688,-2.671875 -2.542969,-2.671875 -2.144531,0 -4.3359374,2.2617188 -4.3359374,4.5820313 0,1.65234374 1.1132812,2.66015624 2.5429684,2.66015624 0.257813,0 0.585938,-0.046875 0.984375,-0.15234375 -0.04687,0.62109375 -0.04687,0.6328125 -0.04687,0.76171875 0,0.32812496 0,1.10156246 0.832032,1.10156246 1.183593,0 1.664062,-1.82812496 1.664062,-1.9335937125 0,-0.0703124975 -0.07031,-0.1054687475 -0.117187,-0.1054687475 -0.07031,0 -0.09375,0.05859375 -0.117188,0.1171875 -0.234375,0.703125 -0.820312,0.94921875 -1.160156,0.94921875 -0.457031,0 -0.609375,-0.2578125 -0.714844,-1.01953125 z m -1.875,-0.08203125 C 9.4478828,-0.44444531 9.1080391,-1.2296016 9.1080391,-2.1202266 c 0,-0.6914062 0.2695312,-2.0976562 1.0195309,-3.1757812 0.726563,-1.0195313 1.664063,-1.4765625 2.390625,-1.4765625 0.996094,0 1.722657,0.7734375 1.722657,2.109375 0,0.9960937 -0.503907,3.328125 -2.179688,4.26562499 -0.04687,-0.3515625 -0.152344,-1.07812499 -0.878906,-1.07812499 -0.527344,0 -1.007813,0.50390624 -1.007813,1.01953124 0,0.19921875 0.05859,0.3046875 0.05859,0.31640625 z m 0.609375,0.10546875 c -0.140625,0 -0.457031,0 -0.457031,-0.421875 0,-0.3984375 0.386719,-0.79687504 0.796875,-0.79687504 0.421875,0 0.609375,0.234375 0.609375,0.84375004 0,0.15234375 -0.01172,0.1640625 -0.105469,0.19921875 -0.257812,0.10546875 -0.5625,0.17578125 -0.84375,0.17578125 z m 0,0"
         style="fill:#000000;fill-opacity:1;fill-rule:nonzero;stroke:none" />
    </g>
  </g>
</svg>
