<?xml version="1.0" encoding="UTF-8" standalone="no"?>
<!-- Created with Inkscape (http://www.inkscape.org/) -->

<svg
   version="1.1"
   id="svg1"
   width="327.93939"
   height="249.76666"
   viewBox="0 0 327.93939 249.76666"
   xmlns="http://www.w3.org/2000/svg"
   xmlns:svg="http://www.w3.org/2000/svg">
  <defs
     id="defs1" />
  <g
     id="g1"
     transform="translate(-18.460938,-13.811461)">
    <g
       id="g2"
       aria-label="⃗&#10;E&#10;0"
       transform="matrix(1.3333333,0,0,1.3333333,75.2,46.386667)">
      <path
         id="path2"
         d="m 5.3431641,-5.9296484 c -0.1289063,0.1289062 -0.4570313,0.4101562 -0.4570313,0.5859375 0,0.1054687 0.09375,0.1992187 0.1992188,0.1992187 0.082031,0 0.1289062,-0.070312 0.1875,-0.1289062 0.1171875,-0.140625 0.3398437,-0.421875 0.7851562,-0.6445313 0.070312,-0.035156 0.1640625,-0.09375 0.1640625,-0.2109375 0,-0.09375 -0.070312,-0.1523437 -0.140625,-0.1992187 -0.2109375,-0.1523438 -0.328125,-0.328125 -0.3984375,-0.5625 -0.023437,-0.09375 -0.070312,-0.2226563 -0.1992187,-0.2226563 -0.140625,0 -0.1992188,0.1289063 -0.1992188,0.2109375 0,0.046875 0.070312,0.3632813 0.234375,0.5742188 H 2.1556641 c -0.1640625,0 -0.3398438,0 -0.3398438,0.1992187 0,0.1992188 0.1757813,0.1992188 0.3398438,0.1992188 z m 0.1728515,6.12597652 c 0.023437,-0.046875 0.046875,-0.1171875 0.046875,-0.140625 0,-0.01171875 0,-0.10546875 -0.1171875,-0.10546875 -0.09375,0 -0.1054687,0.05859375 -0.1289062,0.1171875 C 4.6722656,1.5439844 4.2972656,2.2119531 2.5980469,2.2119531 h -1.453125 c -0.140625,0 -0.16406253,0 -0.22265628,-0.011719 -0.10546875,-0.011719 -0.12890625,-0.023437 -0.12890625,-0.1054688 0,-0.023437 0,-0.046875 0.046875,-0.2226562 L 1.5199219,-0.84664063 h 0.984375 c 0.84375,0 0.84375,0.2109375 0.84375,0.45703125 0,0.0703125 0,0.1875 -0.070312,0.48046875 -0.011719,0.05859375 -0.023437,0.08203125 -0.023437,0.1171875 0,0.046875 0.035156,0.10546875 0.1289062,0.10546875 0.082031,0 0.1054688,-0.046875 0.1523438,-0.19921875 l 0.5625,-2.33203127 c 0,-0.058594 -0.046875,-0.1054687 -0.1171875,-0.1054687 -0.09375,0 -0.1054688,0.058594 -0.140625,0.1757812 -0.2109375,0.7617188 -0.3867188,0.984375 -1.3007813,0.984375 h -0.9375 l 0.5976563,-2.4023437 c 0.082031,-0.3398438 0.09375,-0.3867188 0.5390625,-0.3867188 h 1.40625 c 1.2070312,0 1.5117187,0.2929688 1.5117187,1.1132813 0,0.234375 0,0.2578125 -0.046875,0.5273437 0,0.058594 -0.011719,0.1289063 -0.011719,0.1757813 0,0.046875 0.035156,0.1171875 0.1289062,0.1171875 0.1054688,0 0.1171875,-0.058594 0.140625,-0.2460938 L 6.0667969,-3.9872656 C 6.0902344,-4.2567969 6.0433594,-4.2567969 5.7972656,-4.2567969 H 0.75820312 c -0.19921875,0 -0.29296875,0 -0.29296875,0.1992188 0,0.1054687 0.09375,0.1054687 0.28125,0.1054687 0.36328123,0 0.64453123,0 0.64453123,0.1875 0,0.035156 0,0.058594 -0.046875,0.234375 L 0.01992187,1.7432031 c -0.09375,0.3867188 -0.1171875,0.46875 -0.90234375,0.46875 -0.16406252,0 -0.28125002,0 -0.28125002,0.1875 0,0.1171875 0.09375,0.1171875 0.28125002,0.1171875 H 4.2855469 c 0.234375,0 0.2460937,-0.011719 0.3164062,-0.1640625 z m 0,0"
         style="fill:#ff0000;fill-opacity:1;fill-rule:nonzero;stroke:none" />
      <path
         id="path3"
         d="m 9.4154297,1.7871484 c 0,-0.7617187 -0.09375,-1.31249996 -0.4101563,-1.80468746 -0.2226562,-0.31640625 -0.6445312,-0.59765625 -1.2070312,-0.59765625 -1.6171875,0 -1.6171875,1.89843751 -1.6171875,2.40234371 0,0.5039063 0,2.3671875 1.6171875,2.3671875 1.6171875,0 1.6171875,-1.8632812 1.6171875,-2.3671875 z M 7.7982422,3.9551172 c -0.3164063,0 -0.75,-0.1875 -0.890625,-0.7617188 -0.09375,-0.4101562 -0.09375,-0.984375 -0.09375,-1.5 0,-0.5039062 0,-1.03124996 0.1054687,-1.41796871 0.1523438,-0.55078125 0.5976563,-0.69140625 0.8789063,-0.69140625 0.375,0 0.7382812,0.22265625 0.8671875,0.6328125 0.1054687,0.375 0.1171875,0.87890626 0.1171875,1.47656246 0,0.515625 0,1.0429688 -0.09375,1.4765625 -0.140625,0.6328125 -0.609375,0.7851563 -0.890625,0.7851563 z m 0,0"
         style="fill:#ff0000;fill-opacity:1;fill-rule:nonzero;stroke:none" />
    </g>
    <path
       id="path4"
       d="M 0,-8.50412 V 150.23816"
       style="fill:none;stroke:#e63946;stroke-width:1.19553;stroke-linecap:butt;stroke-linejoin:miter;stroke-miterlimit:10;stroke-dasharray:none;stroke-opacity:1"
       transform="matrix(1.3333333,0,0,-1.3333333,43.237333,214.39467)" />
    <path
       id="path5"
       d="M 56.69362,-8.50412 V 150.23816"
       style="fill:none;stroke:#457b9d;stroke-width:1.19553;stroke-linecap:butt;stroke-linejoin:miter;stroke-miterlimit:10;stroke-dasharray:none;stroke-opacity:1"
       transform="matrix(1.3333333,0,0,-1.3333333,43.237333,214.39467)" />
    <path
       id="path6"
       d="M 2.83484,0 H 26.51918"
       style="fill:none;stroke:#ff8080;stroke-width:0.79701;stroke-linecap:butt;stroke-linejoin:miter;stroke-miterlimit:10;stroke-dasharray:none;stroke-opacity:1"
       transform="matrix(1.3333333,0,0,-1.3333333,43.237333,214.39467)" />
    <path
       id="path7"
       d="M 4.66248,0 C 3.28098,0.25902 1.0361,1.0361 -0.51805,1.94269 V -1.94269 C 1.0361,-1.0361 3.28098,-0.25902 4.66248,0"
       style="fill:#ff8080;fill-opacity:1;fill-rule:nonzero;stroke:none"
       transform="matrix(1.3333333,0,0,-1.3333333,78.59624,214.39467)" />
    <path
       id="path8"
       d="M 2.83484,28.3468 H 26.51918"
       style="fill:none;stroke:#ff8080;stroke-width:0.79701;stroke-linecap:butt;stroke-linejoin:miter;stroke-miterlimit:10;stroke-dasharray:none;stroke-opacity:1"
       transform="matrix(1.3333333,0,0,-1.3333333,43.237333,214.39467)" />
    <path
       id="path9"
       d="M 4.66248,0 C 3.28098,0.25902 1.0361,1.0361 -0.51805,1.94269 V -1.94269 C 1.0361,-1.0361 3.28098,-0.25902 4.66248,0"
       style="fill:#ff8080;fill-opacity:1;fill-rule:nonzero;stroke:none"
       transform="matrix(1.3333333,0,0,-1.3333333,78.59624,176.59893)" />
    <path
       id="path10"
       d="M 2.83484,56.69362 H 26.51918"
       style="fill:none;stroke:#ff8080;stroke-width:0.79701;stroke-linecap:butt;stroke-linejoin:miter;stroke-miterlimit:10;stroke-dasharray:none;stroke-opacity:1"
       transform="matrix(1.3333333,0,0,-1.3333333,43.237333,214.39467)" />
    <path
       id="path11"
       d="M 4.66248,0 C 3.28098,0.25902 1.0361,1.0361 -0.51805,1.94269 V -1.94269 C 1.0361,-1.0361 3.28098,-0.25902 4.66248,0"
       style="fill:#ff8080;fill-opacity:1;fill-rule:nonzero;stroke:none"
       transform="matrix(1.3333333,0,0,-1.3333333,78.59624,138.80317)" />
    <path
       id="path12"
       d="M 2.83484,85.04042 H 26.51918"
       style="fill:none;stroke:#ff8080;stroke-width:0.79701;stroke-linecap:butt;stroke-linejoin:miter;stroke-miterlimit:10;stroke-dasharray:none;stroke-opacity:1"
       transform="matrix(1.3333333,0,0,-1.3333333,43.237333,214.39467)" />
    <path
       id="path13"
       d="M 4.66248,0 C 3.28098,0.25902 1.0361,1.0361 -0.51805,1.94269 V -1.94269 C 1.0361,-1.0361 3.28098,-0.25902 4.66248,0"
       style="fill:#ff8080;fill-opacity:1;fill-rule:nonzero;stroke:none"
       transform="matrix(1.3333333,0,0,-1.3333333,78.59624,101.00744)" />
    <path
       id="path14"
       d="M 2.83484,113.38724 H 26.51918"
       style="fill:none;stroke:#ff8080;stroke-width:0.79701;stroke-linecap:butt;stroke-linejoin:miter;stroke-miterlimit:10;stroke-dasharray:none;stroke-opacity:1"
       transform="matrix(1.3333333,0,0,-1.3333333,43.237333,214.39467)" />
    <path
       id="path15"
       d="M 4.66248,0 C 3.28098,0.25902 1.0361,1.0361 -0.51805,1.94269 V -1.94269 C 1.0361,-1.0361 3.28098,-0.25902 4.66248,0"
       style="fill:#ff8080;fill-opacity:1;fill-rule:nonzero;stroke:none"
       transform="matrix(1.3333333,0,0,-1.3333333,78.59624,63.21168)" />
    <path
       id="path16"
       d="M 2.83484,141.73404 H 26.51918"
       style="fill:none;stroke:#ff8080;stroke-width:0.79701;stroke-linecap:butt;stroke-linejoin:miter;stroke-miterlimit:10;stroke-dasharray:none;stroke-opacity:1"
       transform="matrix(1.3333333,0,0,-1.3333333,43.237333,214.39467)" />
    <path
       id="path17"
       d="M 4.66248,0 C 3.28098,0.25902 1.0361,1.0361 -0.51805,1.94269 V -1.94269 C 1.0361,-1.0361 3.28098,-0.25902 4.66248,0"
       style="fill:#ff8080;fill-opacity:1;fill-rule:nonzero;stroke:none"
       transform="matrix(1.3333333,0,0,-1.3333333,78.59624,25.415947)" />
    <path
       id="path18"
       d="M 28.3468,0 H 53.85875"
       style="fill:none;stroke:#ff8080;stroke-width:0.79701;stroke-linecap:butt;stroke-linejoin:miter;stroke-miterlimit:10;stroke-dasharray:none;stroke-opacity:1"
       transform="matrix(1.3333333,0,0,-1.3333333,43.237333,214.39467)" />
    <path
       id="path19"
       d="M 28.3468,28.3468 H 53.85875"
       style="fill:none;stroke:#ff8080;stroke-width:0.79701;stroke-linecap:butt;stroke-linejoin:miter;stroke-miterlimit:10;stroke-dasharray:none;stroke-opacity:1"
       transform="matrix(1.3333333,0,0,-1.3333333,43.237333,214.39467)" />
    <path
       id="path20"
       d="M 28.3468,56.69362 H 53.85875"
       style="fill:none;stroke:#ff8080;stroke-width:0.79701;stroke-linecap:butt;stroke-linejoin:miter;stroke-miterlimit:10;stroke-dasharray:none;stroke-opacity:1"
       transform="matrix(1.3333333,0,0,-1.3333333,43.237333,214.39467)" />
    <path
       id="path21"
       d="M 28.3468,85.04042 H 53.85875"
       style="fill:none;stroke:#ff8080;stroke-width:0.79701;stroke-linecap:butt;stroke-linejoin:miter;stroke-miterlimit:10;stroke-dasharray:none;stroke-opacity:1"
       transform="matrix(1.3333333,0,0,-1.3333333,43.237333,214.39467)" />
    <path
       id="path22"
       d="M 28.3468,113.38724 H 53.85875"
       style="fill:none;stroke:#ff8080;stroke-width:0.79701;stroke-linecap:butt;stroke-linejoin:miter;stroke-miterlimit:10;stroke-dasharray:none;stroke-opacity:1"
       transform="matrix(1.3333333,0,0,-1.3333333,43.237333,214.39467)" />
    <path
       id="path23"
       d="M 28.3468,141.73404 H 53.85875"
       style="fill:none;stroke:#ff8080;stroke-width:0.79701;stroke-linecap:butt;stroke-linejoin:miter;stroke-miterlimit:10;stroke-dasharray:none;stroke-opacity:1"
       transform="matrix(1.3333333,0,0,-1.3333333,43.237333,214.39467)" />
    <path
       id="path24"
       d="M 0.96207,-22.67752 H 55.73154"
       style="fill:none;stroke:#6b7280;stroke-width:0.79701;stroke-linecap:butt;stroke-linejoin:miter;stroke-miterlimit:10;stroke-dasharray:none;stroke-opacity:1"
       transform="matrix(1.3333333,0,0,-1.3333333,43.237333,214.39467)" />
    <path
       id="path25"
       d="M 0,3.08846 3.08846,0 0,-3.08846"
       style="fill:none;stroke:#6b7280;stroke-width:0.79701;stroke-linecap:butt;stroke-linejoin:miter;stroke-miterlimit:10;stroke-dasharray:none;stroke-opacity:1"
       transform="matrix(-1.3333333,0,0,1.3333333,48.106693,244.63136)" />
    <path
       id="path26"
       d="M 0,3.08846 3.08846,0 0,-3.08846"
       style="fill:none;stroke:#6b7280;stroke-width:0.79701;stroke-linecap:butt;stroke-linejoin:miter;stroke-miterlimit:10;stroke-dasharray:none;stroke-opacity:1"
       transform="matrix(1.3333333,0,0,-1.3333333,113.95944,244.63136)" />
    <path
       id="path27"
       d="M 22.43349,-29.45737 H 34.2601 v 13.55971 H 22.43349 Z"
       style="fill:#ffffff;fill-opacity:1;fill-rule:nonzero;stroke:none"
       transform="matrix(1.3333333,0,0,-1.3333333,43.237333,214.39467)" />
    <path
       id="path28"
       d="m 5.1441953,-6.8099531 c 0,0 0,-0.1054688 -0.1289062,-0.1054688 -0.1523438,0 -1.1015625,0.09375 -1.265625,0.1054688 -0.082031,0.011719 -0.140625,0.070312 -0.140625,0.1992187 0,0.1171875 0.082031,0.1171875 0.234375,0.1171875 0.4804687,0 0.5039062,0.070312 0.5039062,0.1640625 l -0.035156,0.1992188 -0.5976563,2.3671875 c -0.1757812,-0.375 -0.46875,-0.6445313 -0.9140625,-0.6445313 -1.171875,0 -2.40234374,1.4648438 -2.40234374,2.9179688 0,0.93749998 0.55078125,1.59374998 1.32421874,1.59374998 0.1992188,0 0.703125,-0.03515625 1.3007813,-0.73828125 0.070312,0.41015625 0.421875,0.73828125 0.9023437,0.73828125 0.3515625,0 0.5742188,-0.22265625 0.7382813,-0.5390625 0.1640625,-0.36328125 0.2929687,-0.97265628 0.2929687,-0.99609378 0,-0.09375 -0.082031,-0.09375 -0.1171875,-0.09375 -0.09375,0 -0.1054687,0.035156 -0.140625,0.1757813 -0.1640625,0.64453123 -0.3515625,1.24218748 -0.75,1.24218748 -0.2695312,0 -0.3046875,-0.2578125 -0.3046875,-0.45703125 0,-0.24609375 0.023437,-0.31640625 0.058594,-0.48046873 z m -2.0742187,5.625 c -0.046875,0.1757812 -0.046875,0.19921873 -0.1992188,0.36328123 -0.4453125,0.55078125 -0.84375,0.71484375 -1.125,0.71484375 -0.5039062,0 -0.6445312,-0.55078125 -0.6445312,-0.93749998 0,-0.5039063 0.328125,-1.7226563 0.5507812,-2.1796875 0.3046875,-0.5976563 0.7617188,-0.9609375 1.1601563,-0.9609375 0.6445312,0 0.7851562,0.8203125 0.7851562,0.8789062 0,0.058594 -0.023437,0.1171875 -0.035156,0.1640625 z m 0,0"
       style="fill:#374151;fill-opacity:1;fill-rule:nonzero;stroke:none"
       aria-label="d"
       transform="matrix(1.3333333,0,0,1.3333333,77.574667,249.244)" />
    <g
       id="g28"
       aria-label="+Q"
       transform="matrix(1.3333333,0,0,1.3333333,17.710667,123.15467)">
      <path
         id="path29"
         d="m 4.0783281,-2.2956875 h 2.7773438 c 0.140625,0 0.328125,0 0.328125,-0.1992188 0,-0.1992187 -0.1875,-0.1992187 -0.328125,-0.1992187 H 4.0783281 v -2.7890625 c 0,-0.1289063 0,-0.328125 -0.1992187,-0.328125 -0.1992188,0 -0.1992188,0.1992187 -0.1992188,0.328125 V -2.694125 H 0.89082812 c -0.140625,0 -0.328125,0 -0.328125,0.1992187 0,0.1992188 0.1875,0.1992188 0.328125,0.1992188 H 3.6798906 v 2.80078125 c 0,0.12890625 0,0.328125 0.1992188,0.328125 0.1992187,0 0.1992187,-0.19921875 0.1992187,-0.328125 z m 0,0"
         style="fill:#000000;fill-opacity:1;fill-rule:nonzero;stroke:none" />
      <path
         id="path30"
         d="m 12.108602,-0.05740625 c 1.546875,-0.5859375 3.011718,-2.36718755 3.011718,-4.28906255 0,-1.59375 -1.054687,-2.671875 -2.542968,-2.671875 -2.144532,0 -4.3359379,2.2617188 -4.3359379,4.5820313 0,1.65234375 1.1132812,2.66015625 2.5429689,2.66015625 0.257812,0 0.585937,-0.046875 0.984375,-0.15234375 -0.04687,0.62109375 -0.04687,0.6328125 -0.04687,0.76171875 0,0.32812495 0,1.10156245 0.832031,1.10156245 1.183594,0 1.664063,-1.82812495 1.664063,-1.9335937 0,-0.0703125 -0.07031,-0.10546875 -0.117188,-0.10546875 -0.07031,0 -0.09375,0.05859375 -0.117187,0.1171875 -0.234375,0.703125 -0.820313,0.94921875 -1.160157,0.94921875 -0.457031,0 -0.609375,-0.2578125 -0.714843,-1.01953125 z m -1.875,-0.08203125 C 9.4484453,-0.444125 9.1086016,-1.2292813 9.1086016,-2.1199063 c 0,-0.6914062 0.2695312,-2.0976562 1.0195314,-3.1757812 0.726562,-1.0195313 1.664062,-1.4765625 2.390625,-1.4765625 0.996094,0 1.722656,0.7734375 1.722656,2.109375 0,0.9960937 -0.503906,3.328125 -2.179687,4.265625 -0.04687,-0.3515625 -0.152344,-1.078125 -0.878907,-1.078125 -0.527343,0 -1.007812,0.50390625 -1.007812,1.01953125 0,0.19921875 0.05859,0.3046875 0.05859,0.31640625 z m 0.609375,0.10546875 c -0.140625,0 -0.457032,0 -0.457032,-0.421875 0,-0.3984375 0.386719,-0.79687505 0.796875,-0.79687505 0.421875,0 0.609375,0.234375 0.609375,0.84375005 0,0.15234375 -0.01172,0.1640625 -0.105468,0.19921875 -0.257813,0.10546875 -0.5625,0.17578125 -0.84375,0.17578125 z m 0,0"
         style="fill:#000000;fill-opacity:1;fill-rule:nonzero;stroke:none" />
    </g>
    <g
       id="g30"
       aria-label="−Q"
       transform="matrix(1.3333333,0,0,1.3333333,123.52,123.15467)">
      <path
         id="path31"
         d="m 6.5621484,-2.2956875 c 0.1757813,0 0.3515625,0 0.3515625,-0.1992188 0,-0.1992187 -0.1757812,-0.1992187 -0.3515625,-0.1992187 h -5.390625 c -0.1640625,0 -0.33984371,0 -0.33984371,0.1992187 0,0.1992188 0.17578121,0.1992188 0.33984371,0.1992188 z m 0,0"
         style="fill:#000000;fill-opacity:1;fill-rule:nonzero;stroke:none" />
      <path
         id="path32"
         d="m 12.108047,-0.05740625 c 1.546875,-0.5859375 3.011719,-2.36718755 3.011719,-4.28906255 0,-1.59375 -1.054688,-2.671875 -2.542969,-2.671875 -2.144531,0 -4.3359376,2.2617188 -4.3359376,4.5820313 0,1.65234375 1.1132812,2.66015625 2.5429686,2.66015625 0.257813,0 0.585938,-0.046875 0.984375,-0.15234375 -0.04687,0.62109375 -0.04687,0.6328125 -0.04687,0.76171875 0,0.32812495 0,1.10156245 0.832031,1.10156245 1.183594,0 1.664063,-1.82812495 1.664063,-1.9335937 0,-0.0703125 -0.07031,-0.10546875 -0.117188,-0.10546875 -0.07031,0 -0.09375,0.05859375 -0.117187,0.1171875 -0.234375,0.703125 -0.820313,0.94921875 -1.160156,0.94921875 -0.457032,0 -0.609375,-0.2578125 -0.714844,-1.01953125 z m -1.875,-0.08203125 C 9.4478906,-0.444125 9.1080469,-1.2292813 9.1080469,-2.1199063 c 0,-0.6914062 0.2695312,-2.0976562 1.0195311,-3.1757812 0.726563,-1.0195313 1.664063,-1.4765625 2.390625,-1.4765625 0.996094,0 1.722656,0.7734375 1.722656,2.109375 0,0.9960937 -0.503906,3.328125 -2.179687,4.265625 -0.04687,-0.3515625 -0.152344,-1.078125 -0.878906,-1.078125 -0.527344,0 -1.007813,0.50390625 -1.007813,1.01953125 0,0.19921875 0.05859,0.3046875 0.05859,0.31640625 z m 0.609375,0.10546875 c -0.140625,0 -0.457031,0 -0.457031,-0.421875 0,-0.3984375 0.386718,-0.79687505 0.796875,-0.79687505 0.421875,0 0.609375,0.234375 0.609375,0.84375005 0,0.15234375 -0.01172,0.1640625 -0.105469,0.19921875 -0.257813,0.10546875 -0.5625,0.17578125 -0.84375,0.17578125 z m 0,0"
         style="fill:#000000;fill-opacity:1;fill-rule:nonzero;stroke:none" />
    </g>
    <path
       id="path33"
       d="M 170.08086,-8.50412 V 150.23816"
       style="fill:none;stroke:#e63946;stroke-width:1.19553;stroke-linecap:butt;stroke-linejoin:miter;stroke-miterlimit:10;stroke-dasharray:none;stroke-opacity:1"
       transform="matrix(1.3333333,0,0,-1.3333333,43.237333,214.39467)" />
    <path
       id="path34"
       d="M 226.77448,-8.50412 V 150.23816"
       style="fill:none;stroke:#457b9d;stroke-width:1.19553;stroke-linecap:butt;stroke-linejoin:miter;stroke-miterlimit:10;stroke-dasharray:none;stroke-opacity:1"
       transform="matrix(1.3333333,0,0,-1.3333333,43.237333,214.39467)" />
    <path
       id="path35"
       d="m 171.49828,-8.50412 v 158.74228 h 53.85876 V -8.50412 Z"
       style="fill:#d9d9d9;fill-opacity:1;fill-rule:nonzero;stroke:#d9d9d9;stroke-width:0.3985;stroke-linecap:butt;stroke-linejoin:miter;stroke-miterlimit:10;stroke-dasharray:none;stroke-opacity:1"
       transform="matrix(1.3333333,0,0,-1.3333333,43.237333,214.39467)" />
    <path
       id="path36"
       d="M 191.75157,70.867 H 209.7662"
       style="fill:none;stroke:#000000;stroke-width:0.79701;stroke-linecap:butt;stroke-linejoin:miter;stroke-miterlimit:10;stroke-dasharray:none;stroke-opacity:1"
       transform="matrix(1.3333333,0,0,-1.3333333,43.237333,214.39467)" />
    <path
       id="path37"
       d="M 4.66248,0 C 3.28098,0.25902 1.0361,1.0361 -0.51805,1.94269 V -1.94269 C 1.0361,-1.0361 3.28098,-0.25902 4.66248,0"
       style="fill:#000000;fill-opacity:1;fill-rule:nonzero;stroke:none"
       transform="matrix(-1.3333333,0,0,1.3333333,298.90609,119.90533)" />
    <g
       id="g37"
       aria-label="⃗&#10;E&#10;ind"
       transform="matrix(1.3333333,0,0,1.3333333,297.248,109.59867)">
      <path
         id="path38"
         d="m 5.3423203,-5.9304453 c -0.1289062,0.1289062 -0.4570312,0.4101562 -0.4570312,0.5859375 0,0.1054687 0.09375,0.1992187 0.1992187,0.1992187 0.082031,0 0.1289063,-0.070312 0.1875,-0.1289062 0.1171875,-0.140625 0.3398438,-0.421875 0.7851563,-0.6445313 0.070312,-0.035156 0.1640625,-0.09375 0.1640625,-0.2109375 0,-0.09375 -0.070312,-0.1523437 -0.140625,-0.1992187 -0.2109375,-0.1523438 -0.328125,-0.328125 -0.3984375,-0.5625 -0.023437,-0.09375 -0.070312,-0.2226563 -0.1992188,-0.2226563 -0.140625,0 -0.1992187,0.1289063 -0.1992187,0.2109375 0,0.046875 0.070312,0.3632813 0.234375,0.5742188 H 2.1548203 c -0.1640625,0 -0.3398437,0 -0.3398437,0.1992187 0,0.1992188 0.1757812,0.1992188 0.3398437,0.1992188 z m 0.1757813,6.12890624 c 0.023437,-0.046875 0.046875,-0.1171875 0.046875,-0.140625 0,-0.01171875 0,-0.10546875 -0.1171875,-0.10546875 -0.09375,0 -0.1054688,0.05859375 -0.1289063,0.1171875 C 4.6743516,1.5461172 4.2993516,2.2140859 2.6001328,2.2140859 h -1.453125 c -0.140625,0 -0.16406249,0 -0.22265624,-0.011719 -0.10546875,-0.011719 -0.12890625,-0.023437 -0.12890625,-0.1054688 0,-0.023437 0,-0.046875 0.046875,-0.2226562 L 1.5220078,-0.84450781 h 0.984375 c 0.84375,0 0.84375,0.2109375 0.84375,0.45703125 0,0.0703125 0,0.1875 -0.070312,0.48046875 -0.011719,0.05859375 -0.023437,0.08203125 -0.023437,0.1171875 0,0.046875 0.035156,0.10546875 0.1289063,0.10546875 0.082031,0 0.1054687,-0.046875 0.1523437,-0.19921875 l 0.5625,-2.33203129 c 0,-0.058594 -0.046875,-0.1054687 -0.1171875,-0.1054687 -0.09375,0 -0.1054687,0.058594 -0.140625,0.1757812 -0.2109375,0.7617188 -0.3867187,0.984375 -1.3007812,0.984375 h -0.9375 l 0.5976562,-2.4023437 c 0.082031,-0.3398438 0.09375,-0.3867188 0.5390625,-0.3867188 h 1.40625 c 1.2070313,0 1.5117188,0.2929688 1.5117188,1.1132813 0,0.234375 0,0.2578125 -0.046875,0.5273437 0,0.058594 -0.011719,0.1289063 -0.011719,0.1757813 0,0.046875 0.035156,0.1171875 0.1289063,0.1171875 0.1054687,0 0.1171875,-0.058594 0.140625,-0.2460938 L 6.0688828,-3.9851328 C 6.0923203,-4.2546641 6.0454453,-4.2546641 5.7993516,-4.2546641 H 0.76028906 c -0.19921875,0 -0.29296875,0 -0.29296875,0.1992188 0,0.1054687 0.09375,0.1054687 0.28125,0.1054687 0.36328129,0 0.64453129,0 0.64453129,0.1875 0,0.035156 0,0.058594 -0.046875,0.234375 L 0.02200781,1.7453359 c -0.09375,0.3867188 -0.1171875,0.46875 -0.90234375,0.46875 -0.16406246,0 -0.28124996,0 -0.28124996,0.1875 0,0.1171875 0.09375,0.1171875 0.28124996,0.1171875 H 4.2876328 c 0.234375,0 0.2460938,-0.011719 0.3164063,-0.1640625 z m 0,0"
         style="fill:#000000;fill-opacity:1;fill-rule:nonzero;stroke:none" />
      <path
         id="path39"
         d="m 7.2934922,-0.28786719 c 0,-0.19921875 -0.1757813,-0.3984375 -0.4101563,-0.3984375 -0.2109375,0 -0.3984375,0.1640625 -0.3984375,0.3984375 0,0.24609375 0.1992188,0.3984375 0.3984375,0.3984375 0.2226563,0 0.4101563,-0.1640625 0.4101563,-0.3984375 z M 6.2270859,1.0129141 v 0.2578125 c 0.4453125,0 0.5039063,0.035156 0.5039063,0.375 v 1.8164062 c 0,0.3046875 -0.070312,0.3046875 -0.5273438,0.3046875 v 0.2460938 c 0.023437,0 0.5039063,-0.023437 0.7851563,-0.023437 0.2460937,0 0.4921875,0 0.7382812,0.023437 V 3.7668203 c -0.3984375,0 -0.46875,0 -0.46875,-0.2929687 V 0.94260156 Z m 5.4316411,0.890625 c 0,-0.609375 -0.292969,-0.96093754 -1.042969,-0.96093754 -0.574219,0 -0.9375002,0.30468754 -1.1367189,0.66796874 V 0.94260156 l -1.03125,0.0703125 v 0.2578125 c 0.46875,0 0.5273437,0.046875 0.5273437,0.3867187 v 1.8046875 c 0,0.3046875 -0.070312,0.3046875 -0.5273437,0.3046875 v 0.2460938 c 0.011719,0 0.5039062,-0.023437 0.796875,-0.023437 0.2578125,0 0.7382812,0.011719 0.7968749,0.023437 V 3.7668203 c -0.4453124,0 -0.5156249,0 -0.5156249,-0.3046875 V 2.2082266 c 0,-0.7382813 0.5742189,-1.078125 1.0312499,-1.078125 0.492188,0 0.550781,0.3867187 0.550781,0.7382812 v 1.59375 c 0,0.3046875 -0.07031,0.3046875 -0.515625,0.3046875 v 0.2460938 c 0.01172,0 0.503907,-0.023437 0.796875,-0.023437 0.257813,0 0.738282,0.011719 0.796875,0.023437 V 3.7668203 c -0.457031,0 -0.527343,0 -0.527343,-0.3046875 z m 3.298828,-2.64843754 v 0.24609375 c 0.46875,0 0.515625,0.046875 0.515625,0.38671875 V 1.3410391 C 15.215367,1.0832266 14.887242,0.94260156 14.500523,0.94260156 c -0.925781,0 -1.710937,0.69140624 -1.710937,1.57031254 0,0.8671875 0.738281,1.5703125 1.628906,1.5703125 0.574219,0 0.914063,-0.3046875 1.03125,-0.4335938 v 0.4335938 l 1.078125,-0.070312 V 3.7668203 c -0.46875,0 -0.527344,-0.058594 -0.527344,-0.3984375 v -4.19531249 z m 0.492187,4.03125004 c -0.175781,0.3164062 -0.539062,0.5976562 -0.984375,0.5976562 -0.398437,0 -0.679687,-0.2226562 -0.808594,-0.4335937 -0.140625,-0.1992188 -0.222656,-0.4804688 -0.222656,-0.9257813 0,-0.1640625 0,-0.6914062 0.28125,-1.0195312 0.28125,-0.3046875 0.621094,-0.375 0.820313,-0.375 0.339843,0 0.632812,0.1523437 0.832031,0.4101562 0.08203,0.1054688 0.08203,0.1171875 0.08203,0.2460938 z m 0,0"
         style="fill:#000000;fill-opacity:1;fill-rule:nonzero;stroke:none" />
    </g>
    <path
       id="path40"
       d="m 218.27034,-2.83484 h 5.66926"
       style="fill:none;stroke:#000000;stroke-width:0.3985;stroke-linecap:butt;stroke-linejoin:miter;stroke-miterlimit:10;stroke-dasharray:none;stroke-opacity:1"
       transform="matrix(1.3333333,0,0,-1.3333333,43.237333,214.39467)" />
    <path
       id="path41"
       d="M 221.10518,-5.6697 V -4.1e-4"
       style="fill:none;stroke:#000000;stroke-width:0.3985;stroke-linecap:butt;stroke-linejoin:miter;stroke-miterlimit:10;stroke-dasharray:none;stroke-opacity:1"
       transform="matrix(1.3333333,0,0,-1.3333333,43.237333,214.39467)" />
    <path
       id="path42"
       d="m 218.27034,8.50412 h 5.66926"
       style="fill:none;stroke:#000000;stroke-width:0.3985;stroke-linecap:butt;stroke-linejoin:miter;stroke-miterlimit:10;stroke-dasharray:none;stroke-opacity:1"
       transform="matrix(1.3333333,0,0,-1.3333333,43.237333,214.39467)" />
    <path
       id="path43"
       d="m 221.10518,5.66927 v 5.66928"
       style="fill:none;stroke:#000000;stroke-width:0.3985;stroke-linecap:butt;stroke-linejoin:miter;stroke-miterlimit:10;stroke-dasharray:none;stroke-opacity:1"
       transform="matrix(1.3333333,0,0,-1.3333333,43.237333,214.39467)" />
    <path
       id="path44"
       d="m 218.27034,19.84267 h 5.66926"
       style="fill:none;stroke:#000000;stroke-width:0.3985;stroke-linecap:butt;stroke-linejoin:miter;stroke-miterlimit:10;stroke-dasharray:none;stroke-opacity:1"
       transform="matrix(1.3333333,0,0,-1.3333333,43.237333,214.39467)" />
    <path
       id="path45"
       d="M 221.10518,17.00781 V 22.6771"
       style="fill:none;stroke:#000000;stroke-width:0.3985;stroke-linecap:butt;stroke-linejoin:miter;stroke-miterlimit:10;stroke-dasharray:none;stroke-opacity:1"
       transform="matrix(1.3333333,0,0,-1.3333333,43.237333,214.39467)" />
    <path
       id="path46"
       d="m 218.27034,31.18166 h 5.66926"
       style="fill:none;stroke:#000000;stroke-width:0.3985;stroke-linecap:butt;stroke-linejoin:miter;stroke-miterlimit:10;stroke-dasharray:none;stroke-opacity:1"
       transform="matrix(1.3333333,0,0,-1.3333333,43.237333,214.39467)" />
    <path
       id="path47"
       d="m 221.10518,28.3468 v 5.66928"
       style="fill:none;stroke:#000000;stroke-width:0.3985;stroke-linecap:butt;stroke-linejoin:miter;stroke-miterlimit:10;stroke-dasharray:none;stroke-opacity:1"
       transform="matrix(1.3333333,0,0,-1.3333333,43.237333,214.39467)" />
    <path
       id="path48"
       d="m 218.27034,42.5202 h 5.66926"
       style="fill:none;stroke:#000000;stroke-width:0.3985;stroke-linecap:butt;stroke-linejoin:miter;stroke-miterlimit:10;stroke-dasharray:none;stroke-opacity:1"
       transform="matrix(1.3333333,0,0,-1.3333333,43.237333,214.39467)" />
    <path
       id="path49"
       d="m 221.10518,39.68535 v 5.66928"
       style="fill:none;stroke:#000000;stroke-width:0.3985;stroke-linecap:butt;stroke-linejoin:miter;stroke-miterlimit:10;stroke-dasharray:none;stroke-opacity:1"
       transform="matrix(1.3333333,0,0,-1.3333333,43.237333,214.39467)" />
    <path
       id="path50"
       d="m 218.27034,53.85875 h 5.66926"
       style="fill:none;stroke:#000000;stroke-width:0.3985;stroke-linecap:butt;stroke-linejoin:miter;stroke-miterlimit:10;stroke-dasharray:none;stroke-opacity:1"
       transform="matrix(1.3333333,0,0,-1.3333333,43.237333,214.39467)" />
    <path
       id="path51"
       d="m 221.10518,51.0239 v 5.66928"
       style="fill:none;stroke:#000000;stroke-width:0.3985;stroke-linecap:butt;stroke-linejoin:miter;stroke-miterlimit:10;stroke-dasharray:none;stroke-opacity:1"
       transform="matrix(1.3333333,0,0,-1.3333333,43.237333,214.39467)" />
    <path
       id="path52"
       d="m 218.27034,65.19774 h 5.66926"
       style="fill:none;stroke:#000000;stroke-width:0.3985;stroke-linecap:butt;stroke-linejoin:miter;stroke-miterlimit:10;stroke-dasharray:none;stroke-opacity:1"
       transform="matrix(1.3333333,0,0,-1.3333333,43.237333,214.39467)" />
    <path
       id="path53"
       d="m 221.10518,62.36288 v 5.66929"
       style="fill:none;stroke:#000000;stroke-width:0.3985;stroke-linecap:butt;stroke-linejoin:miter;stroke-miterlimit:10;stroke-dasharray:none;stroke-opacity:1"
       transform="matrix(1.3333333,0,0,-1.3333333,43.237333,214.39467)" />
    <path
       id="path54"
       d="m 218.27034,76.53629 h 5.66926"
       style="fill:none;stroke:#000000;stroke-width:0.3985;stroke-linecap:butt;stroke-linejoin:miter;stroke-miterlimit:10;stroke-dasharray:none;stroke-opacity:1"
       transform="matrix(1.3333333,0,0,-1.3333333,43.237333,214.39467)" />
    <path
       id="path55"
       d="m 221.10518,73.70143 v 5.66928"
       style="fill:none;stroke:#000000;stroke-width:0.3985;stroke-linecap:butt;stroke-linejoin:miter;stroke-miterlimit:10;stroke-dasharray:none;stroke-opacity:1"
       transform="matrix(1.3333333,0,0,-1.3333333,43.237333,214.39467)" />
    <path
       id="path56"
       d="m 218.27034,87.87527 h 5.66926"
       style="fill:none;stroke:#000000;stroke-width:0.3985;stroke-linecap:butt;stroke-linejoin:miter;stroke-miterlimit:10;stroke-dasharray:none;stroke-opacity:1"
       transform="matrix(1.3333333,0,0,-1.3333333,43.237333,214.39467)" />
    <path
       id="path57"
       d="M 221.10518,85.04042 V 90.7097"
       style="fill:none;stroke:#000000;stroke-width:0.3985;stroke-linecap:butt;stroke-linejoin:miter;stroke-miterlimit:10;stroke-dasharray:none;stroke-opacity:1"
       transform="matrix(1.3333333,0,0,-1.3333333,43.237333,214.39467)" />
    <path
       id="path58"
       d="m 218.27034,99.21382 h 5.66926"
       style="fill:none;stroke:#000000;stroke-width:0.3985;stroke-linecap:butt;stroke-linejoin:miter;stroke-miterlimit:10;stroke-dasharray:none;stroke-opacity:1"
       transform="matrix(1.3333333,0,0,-1.3333333,43.237333,214.39467)" />
    <path
       id="path59"
       d="m 221.10518,96.37897 v 5.66928"
       style="fill:none;stroke:#000000;stroke-width:0.3985;stroke-linecap:butt;stroke-linejoin:miter;stroke-miterlimit:10;stroke-dasharray:none;stroke-opacity:1"
       transform="matrix(1.3333333,0,0,-1.3333333,43.237333,214.39467)" />
    <path
       id="path60"
       d="m 218.27034,110.55237 h 5.66926"
       style="fill:none;stroke:#000000;stroke-width:0.3985;stroke-linecap:butt;stroke-linejoin:miter;stroke-miterlimit:10;stroke-dasharray:none;stroke-opacity:1"
       transform="matrix(1.3333333,0,0,-1.3333333,43.237333,214.39467)" />
    <path
       id="path61"
       d="m 221.10518,107.71751 v 5.66929"
       style="fill:none;stroke:#000000;stroke-width:0.3985;stroke-linecap:butt;stroke-linejoin:miter;stroke-miterlimit:10;stroke-dasharray:none;stroke-opacity:1"
       transform="matrix(1.3333333,0,0,-1.3333333,43.237333,214.39467)" />
    <path
       id="path62"
       d="m 218.27034,121.89136 h 5.66926"
       style="fill:none;stroke:#000000;stroke-width:0.3985;stroke-linecap:butt;stroke-linejoin:miter;stroke-miterlimit:10;stroke-dasharray:none;stroke-opacity:1"
       transform="matrix(1.3333333,0,0,-1.3333333,43.237333,214.39467)" />
    <path
       id="path63"
       d="m 221.10518,119.0565 v 5.66928"
       style="fill:none;stroke:#000000;stroke-width:0.3985;stroke-linecap:butt;stroke-linejoin:miter;stroke-miterlimit:10;stroke-dasharray:none;stroke-opacity:1"
       transform="matrix(1.3333333,0,0,-1.3333333,43.237333,214.39467)" />
    <path
       id="path64"
       d="m 218.27034,133.2299 h 5.66926"
       style="fill:none;stroke:#000000;stroke-width:0.3985;stroke-linecap:butt;stroke-linejoin:miter;stroke-miterlimit:10;stroke-dasharray:none;stroke-opacity:1"
       transform="matrix(1.3333333,0,0,-1.3333333,43.237333,214.39467)" />
    <path
       id="path65"
       d="m 221.10518,130.39505 v 5.66928"
       style="fill:none;stroke:#000000;stroke-width:0.3985;stroke-linecap:butt;stroke-linejoin:miter;stroke-miterlimit:10;stroke-dasharray:none;stroke-opacity:1"
       transform="matrix(1.3333333,0,0,-1.3333333,43.237333,214.39467)" />
    <path
       id="path66"
       d="m 218.27034,144.5689 h 5.66926"
       style="fill:none;stroke:#000000;stroke-width:0.3985;stroke-linecap:butt;stroke-linejoin:miter;stroke-miterlimit:10;stroke-dasharray:none;stroke-opacity:1"
       transform="matrix(1.3333333,0,0,-1.3333333,43.237333,214.39467)" />
    <path
       id="path67"
       d="m 221.10518,141.73404 v 5.66928"
       style="fill:none;stroke:#000000;stroke-width:0.3985;stroke-linecap:butt;stroke-linejoin:miter;stroke-miterlimit:10;stroke-dasharray:none;stroke-opacity:1"
       transform="matrix(1.3333333,0,0,-1.3333333,43.237333,214.39467)" />
    <path
       id="path68"
       d="m 172.91527,-2.83484 h 5.66928"
       style="fill:none;stroke:#000000;stroke-width:0.3985;stroke-linecap:butt;stroke-linejoin:miter;stroke-miterlimit:10;stroke-dasharray:none;stroke-opacity:1"
       transform="matrix(1.3333333,0,0,-1.3333333,43.237333,214.39467)" />
    <path
       id="path69"
       d="m 172.91527,8.50412 h 5.66928"
       style="fill:none;stroke:#000000;stroke-width:0.3985;stroke-linecap:butt;stroke-linejoin:miter;stroke-miterlimit:10;stroke-dasharray:none;stroke-opacity:1"
       transform="matrix(1.3333333,0,0,-1.3333333,43.237333,214.39467)" />
    <path
       id="path70"
       d="m 172.91527,19.84267 h 5.66928"
       style="fill:none;stroke:#000000;stroke-width:0.3985;stroke-linecap:butt;stroke-linejoin:miter;stroke-miterlimit:10;stroke-dasharray:none;stroke-opacity:1"
       transform="matrix(1.3333333,0,0,-1.3333333,43.237333,214.39467)" />
    <path
       id="path71"
       d="m 172.91527,31.18166 h 5.66928"
       style="fill:none;stroke:#000000;stroke-width:0.3985;stroke-linecap:butt;stroke-linejoin:miter;stroke-miterlimit:10;stroke-dasharray:none;stroke-opacity:1"
       transform="matrix(1.3333333,0,0,-1.3333333,43.237333,214.39467)" />
    <path
       id="path72"
       d="m 172.91527,42.5202 h 5.66928"
       style="fill:none;stroke:#000000;stroke-width:0.3985;stroke-linecap:butt;stroke-linejoin:miter;stroke-miterlimit:10;stroke-dasharray:none;stroke-opacity:1"
       transform="matrix(1.3333333,0,0,-1.3333333,43.237333,214.39467)" />
    <path
       id="path73"
       d="m 172.91527,53.85875 h 5.66928"
       style="fill:none;stroke:#000000;stroke-width:0.3985;stroke-linecap:butt;stroke-linejoin:miter;stroke-miterlimit:10;stroke-dasharray:none;stroke-opacity:1"
       transform="matrix(1.3333333,0,0,-1.3333333,43.237333,214.39467)" />
    <path
       id="path74"
       d="m 172.91527,65.19774 h 5.66928"
       style="fill:none;stroke:#000000;stroke-width:0.3985;stroke-linecap:butt;stroke-linejoin:miter;stroke-miterlimit:10;stroke-dasharray:none;stroke-opacity:1"
       transform="matrix(1.3333333,0,0,-1.3333333,43.237333,214.39467)" />
    <path
       id="path75"
       d="m 172.91527,76.53629 h 5.66928"
       style="fill:none;stroke:#000000;stroke-width:0.3985;stroke-linecap:butt;stroke-linejoin:miter;stroke-miterlimit:10;stroke-dasharray:none;stroke-opacity:1"
       transform="matrix(1.3333333,0,0,-1.3333333,43.237333,214.39467)" />
    <path
       id="path76"
       d="m 172.91527,87.87527 h 5.66928"
       style="fill:none;stroke:#000000;stroke-width:0.3985;stroke-linecap:butt;stroke-linejoin:miter;stroke-miterlimit:10;stroke-dasharray:none;stroke-opacity:1"
       transform="matrix(1.3333333,0,0,-1.3333333,43.237333,214.39467)" />
    <path
       id="path77"
       d="m 172.91527,99.21382 h 5.66928"
       style="fill:none;stroke:#000000;stroke-width:0.3985;stroke-linecap:butt;stroke-linejoin:miter;stroke-miterlimit:10;stroke-dasharray:none;stroke-opacity:1"
       transform="matrix(1.3333333,0,0,-1.3333333,43.237333,214.39467)" />
    <path
       id="path78"
       d="m 172.91527,110.55237 h 5.66928"
       style="fill:none;stroke:#000000;stroke-width:0.3985;stroke-linecap:butt;stroke-linejoin:miter;stroke-miterlimit:10;stroke-dasharray:none;stroke-opacity:1"
       transform="matrix(1.3333333,0,0,-1.3333333,43.237333,214.39467)" />
    <path
       id="path79"
       d="m 172.91527,121.89136 h 5.66928"
       style="fill:none;stroke:#000000;stroke-width:0.3985;stroke-linecap:butt;stroke-linejoin:miter;stroke-miterlimit:10;stroke-dasharray:none;stroke-opacity:1"
       transform="matrix(1.3333333,0,0,-1.3333333,43.237333,214.39467)" />
    <path
       id="path80"
       d="m 172.91527,133.2299 h 5.66928"
       style="fill:none;stroke:#000000;stroke-width:0.3985;stroke-linecap:butt;stroke-linejoin:miter;stroke-miterlimit:10;stroke-dasharray:none;stroke-opacity:1"
       transform="matrix(1.3333333,0,0,-1.3333333,43.237333,214.39467)" />
    <path
       id="path81"
       d="m 172.91527,144.5689 h 5.66928"
       style="fill:none;stroke:#000000;stroke-width:0.3985;stroke-linecap:butt;stroke-linejoin:miter;stroke-miterlimit:10;stroke-dasharray:none;stroke-opacity:1"
       transform="matrix(1.3333333,0,0,-1.3333333,43.237333,214.39467)" />
    <path
       id="path82"
       d="m 172.9157,-22.67752 h 47.43736"
       style="fill:none;stroke:#ff8080;stroke-width:0.3985;stroke-linecap:butt;stroke-linejoin:miter;stroke-miterlimit:10;stroke-dasharray:none;stroke-opacity:1"
       transform="matrix(1.3333333,0,0,-1.3333333,43.237333,214.39467)" />
    <path
       id="path83"
       d="M 3.58653,0 C 2.52383,0.19925 0.797,0.797 -0.3985,1.49438 V -1.49438 C 0.797,-0.797 2.52383,-0.19925 3.58653,0"
       style="fill:#ff8080;fill-opacity:1;fill-rule:nonzero;stroke:none"
       transform="matrix(1.3333333,0,0,-1.3333333,337.04141,244.63136)" />
    <g
       id="g83"
       aria-label="⃗&#10;E&#10;0"
       transform="matrix(1.3333333,0,0,1.3333333,301.972,258.04)">
      <path
         id="path84"
         d="m 5.3442422,-5.9303906 c -0.1289063,0.1289062 -0.4570313,0.4101562 -0.4570313,0.5859375 0,0.1054687 0.09375,0.1992187 0.1992188,0.1992187 0.082031,0 0.1289062,-0.070312 0.1875,-0.1289062 0.1171875,-0.140625 0.3398437,-0.421875 0.7851562,-0.6445313 0.070312,-0.035156 0.1640625,-0.09375 0.1640625,-0.2109375 0,-0.09375 -0.070312,-0.1523437 -0.140625,-0.1992187 -0.2109375,-0.1523438 -0.328125,-0.328125 -0.3984375,-0.5625 -0.023437,-0.09375 -0.070312,-0.2226563 -0.1992187,-0.2226563 -0.140625,0 -0.1992188,0.1289063 -0.1992188,0.2109375 0,0.046875 0.070312,0.3632813 0.234375,0.5742188 H 2.1567422 c -0.1640625,0 -0.3398438,0 -0.3398438,0.1992187 0,0.1992188 0.1757813,0.1992188 0.3398438,0.1992188 z m 0.1728516,6.12890622 c 0.023437,-0.046875 0.046875,-0.1171875 0.046875,-0.140625 0,-0.01171875 0,-0.10546875 -0.1171875,-0.10546875 -0.09375,0 -0.1054688,0.05859375 -0.1289063,0.1171875 C 4.6733438,1.5461719 4.2983438,2.2141406 2.599125,2.2141406 H 1.146 c -0.140625,0 -0.1640625,0 -0.22265625,-0.011719 C 0.817875,2.1907031 0.7944375,2.1789844 0.7944375,2.0969531 c 0,-0.023437 0,-0.046875 0.046875,-0.2226562 L 1.521,-0.84445313 h 0.984375 c 0.84375,0 0.84375,0.2109375 0.84375,0.45703125 0,0.0703125 0,0.1875 -0.070312,0.48046875 -0.011719,0.05859375 -0.023437,0.08203125 -0.023437,0.1171875 0,0.046875 0.035156,0.10546875 0.1289063,0.10546875 0.082031,0 0.1054687,-0.046875 0.1523437,-0.19921875 l 0.5625,-2.33203127 c 0,-0.058594 -0.046875,-0.1054687 -0.1171875,-0.1054687 -0.09375,0 -0.1054687,0.058594 -0.140625,0.1757812 -0.2109375,0.7617188 -0.3867187,0.984375 -1.3007812,0.984375 h -0.9375 l 0.5976562,-2.4023437 c 0.082031,-0.3398438 0.09375,-0.3867188 0.5390625,-0.3867188 H 4.146 c 1.2070313,0 1.5117188,0.2929688 1.5117188,1.1132813 0,0.234375 0,0.2578125 -0.046875,0.5273437 0,0.058594 -0.011719,0.1289063 -0.011719,0.1757813 0,0.046875 0.035156,0.1171875 0.1289063,0.1171875 0.1054687,0 0.1171875,-0.058594 0.140625,-0.2460938 L 6.067875,-3.9850781 C 6.0913125,-4.2546094 6.0444375,-4.2546094 5.7983438,-4.2546094 H 0.75928125 c -0.19921875,0 -0.29296875,0 -0.29296875,0.1992188 0,0.1054687 0.09375,0.1054687 0.28125,0.1054687 0.3632813,0 0.6445313,0 0.6445313,0.1875 0,0.035156 0,0.058594 -0.046875,0.234375 L 0.021,1.7453906 c -0.09375,0.3867188 -0.1171875,0.46875 -0.90234375,0.46875 -0.16406245,0 -0.28124995,0 -0.28124995,0.1875 0,0.1171875 0.09375,0.1171875 0.28124995,0.1171875 H 4.286625 c 0.234375,0 0.2460938,-0.011719 0.3164063,-0.1640625 z m 0,0"
         style="fill:#ff0000;fill-opacity:1;fill-rule:nonzero;stroke:none" />
      <path
         id="path85"
         d="m 9.4135781,1.7864062 c 0,-0.7617187 -0.09375,-1.31249995 -0.4101562,-1.80468745 C 8.7807656,-0.3346875 8.3588906,-0.6159375 7.7963906,-0.6159375 c -1.6171875,0 -1.6171875,1.8984375 -1.6171875,2.4023437 0,0.5039063 0,2.3671875 1.6171875,2.3671875 1.6171875,0 1.6171875,-1.8632812 1.6171875,-2.3671875 z M 7.7963906,3.954375 c -0.3164062,0 -0.75,-0.1875 -0.890625,-0.7617188 -0.09375,-0.4101562 -0.09375,-0.984375 -0.09375,-1.5 0,-0.5039062 0,-1.03124995 0.1054688,-1.4179687 0.1523437,-0.55078125 0.5976562,-0.69140625 0.8789062,-0.69140625 0.375,0 0.7382813,0.22265625 0.8671875,0.6328125 0.1054688,0.375 0.1171875,0.87890625 0.1171875,1.47656245 0,0.515625 0,1.0429688 -0.09375,1.4765625 -0.140625,0.6328125 -0.609375,0.7851563 -0.890625,0.7851563 z m 0,0"
         style="fill:#ff0000;fill-opacity:1;fill-rule:nonzero;stroke:none" />
    </g>
  </g>
</svg>
