<?xml version="1.0" encoding="UTF-8" standalone="no"?>
<!-- Created with Inkscape (http://www.inkscape.org/) -->

<svg
   version="1.1"
   id="svg1"
   width="226.77444"
   height="147.21762"
   viewBox="0 0 226.77444 147.21762"
   xmlns="http://www.w3.org/2000/svg"
   xmlns:svg="http://www.w3.org/2000/svg">
  <defs
     id="defs1" />
  <g
     id="g1"
     transform="translate(-14.158106,-17.71875)">
    <path
       id="path1"
       d="m 5.3438125,-5.9283438 c -0.1289063,0.1289063 -0.4570313,0.4101563 -0.4570313,0.5859375 0,0.1054688 0.09375,0.1992188 0.1992188,0.1992188 0.082031,0 0.1289062,-0.070312 0.1875,-0.1289063 0.1171875,-0.140625 0.3398437,-0.421875 0.7851562,-0.6445312 0.070312,-0.035156 0.1640625,-0.09375 0.1640625,-0.2109375 0,-0.09375 -0.070312,-0.1523438 -0.140625,-0.1992188 -0.2109375,-0.1523437 -0.328125,-0.328125 -0.3984375,-0.5625 -0.023437,-0.09375 -0.070312,-0.2226562 -0.1992187,-0.2226562 -0.140625,0 -0.1992188,0.1289062 -0.1992188,0.2109375 0,0.046875 0.070312,0.3632812 0.234375,0.5742187 H 2.1563125 c -0.1640625,0 -0.3398438,0 -0.3398438,0.1992188 0,0.1992187 0.1757813,0.1992187 0.3398438,0.1992187 z m 0.1728516,6.12597661 c 0.023437,-0.046875 0.046875,-0.1171875 0.046875,-0.140625 0,-0.01171875 0,-0.10546875 -0.1171875,-0.10546875 -0.09375,0 -0.1054688,0.05859375 -0.1289063,0.1171875 C 4.6729141,1.5452891 4.2979141,2.2132578 2.5986953,2.2132578 h -1.453125 c -0.140625,0 -0.16406249,0 -0.22265624,-0.011719 C 0.81744531,2.1898198 0.79400781,2.1781018 0.79400781,2.09607 c 0,-0.023437 0,-0.046875 0.046875,-0.2226562 L 1.5205703,-0.84533594 h 0.984375 c 0.84375,0 0.84375,0.2109375 0.84375,0.45703125 0,0.0703125 0,0.1875 -0.070312,0.48046875 -0.011719,0.05859375 -0.023437,0.08203125 -0.023437,0.1171875 0,0.046875 0.035156,0.10546875 0.1289063,0.10546875 0.082031,0 0.1054687,-0.046875 0.1523437,-0.19921875 l 0.5625,-2.33203126 c 0,-0.058594 -0.046875,-0.1054687 -0.1171875,-0.1054687 -0.09375,0 -0.1054687,0.058594 -0.140625,0.1757812 -0.2109375,0.7617188 -0.3867187,0.984375 -1.3007812,0.984375 h -0.9375 l 0.5976562,-2.4023437 c 0.082031,-0.3398438 0.09375,-0.3867188 0.5390625,-0.3867188 h 1.40625 c 1.2070313,0 1.5117188,0.2929688 1.5117188,1.1132813 0,0.234375 0,0.2578125 -0.046875,0.5273437 0,0.058594 -0.011719,0.1289063 -0.011719,0.1757813 0,0.046875 0.035156,0.1171875 0.1289063,0.1171875 0.1054687,0 0.1171875,-0.058594 0.140625,-0.2460938 L 6.0674453,-3.9859609 C 6.0908828,-4.2554922 6.0440078,-4.2554922 5.7979141,-4.2554922 H 0.75885156 c -0.19921875,0 -0.29296875,0 -0.29296875,0.1992188 0,0.1054687 0.09375,0.1054687 0.28125,0.1054687 0.36328129,0 0.64453129,0 0.64453129,0.1875 0,0.035156 0,0.058594 -0.046875,0.234375 L 0.02057031,1.7445078 c -0.09375,0.3867188 -0.1171875,0.46875 -0.90234375,0.46875 -0.16406246,0 -0.28124996,0 -0.28124996,0.1875 0,0.1171875 0.09375,0.1171875 0.28124996,0.1171875 H 4.2861953 c 0.234375,0 0.2460938,-0.011719 0.3164063,-0.1640625 z m 0,0"
       style="fill:#ff0000;fill-opacity:1;fill-rule:nonzero;stroke:none"
       aria-label="⃗&#10;E"
       transform="matrix(1.3333333,0,0,1.3333333,48.718667,27.201333)" />
    <path
       id="path2"
       d="M -85.04042,0 H 80.37794"
       style="fill:none;stroke:#ff8080;stroke-width:0.79701;stroke-linecap:butt;stroke-linejoin:miter;stroke-miterlimit:10;stroke-dasharray:none;stroke-opacity:1"
       transform="matrix(1.3333333,0,0,-1.3333333,127.54533,156.41867)" />
    <path
       id="path3"
       d="M 4.66248,0 C 3.28098,0.25902 1.0361,1.0361 -0.51805,1.94269 V -1.94269 C 1.0361,-1.0361 3.28098,-0.25902 4.66248,0"
       style="fill:#ff8080;fill-opacity:1;fill-rule:nonzero;stroke:none"
       transform="matrix(1.3333333,0,0,-1.3333333,234.71592,156.41867)" />
    <path
       id="path4"
       d="M -85.04042,28.3468 H 80.37794"
       style="fill:none;stroke:#ff8080;stroke-width:0.79701;stroke-linecap:butt;stroke-linejoin:miter;stroke-miterlimit:10;stroke-dasharray:none;stroke-opacity:1"
       transform="matrix(1.3333333,0,0,-1.3333333,127.54533,156.41867)" />
    <path
       id="path5"
       d="M 4.66248,0 C 3.28098,0.25902 1.0361,1.0361 -0.51805,1.94269 V -1.94269 C 1.0361,-1.0361 3.28098,-0.25902 4.66248,0"
       style="fill:#ff8080;fill-opacity:1;fill-rule:nonzero;stroke:none"
       transform="matrix(1.3333333,0,0,-1.3333333,234.71592,118.62293)" />
    <path
       id="path6"
       d="M -85.04042,56.69362 H 80.37794"
       style="fill:none;stroke:#ff8080;stroke-width:0.79701;stroke-linecap:butt;stroke-linejoin:miter;stroke-miterlimit:10;stroke-dasharray:none;stroke-opacity:1"
       transform="matrix(1.3333333,0,0,-1.3333333,127.54533,156.41867)" />
    <path
       id="path7"
       d="M 4.66248,0 C 3.28098,0.25902 1.0361,1.0361 -0.51805,1.94269 V -1.94269 C 1.0361,-1.0361 3.28098,-0.25902 4.66248,0"
       style="fill:#ff8080;fill-opacity:1;fill-rule:nonzero;stroke:none"
       transform="matrix(1.3333333,0,0,-1.3333333,234.71592,80.827173)" />
    <path
       id="path8"
       d="M -85.04042,85.04042 H 80.37794"
       style="fill:none;stroke:#ff8080;stroke-width:0.79701;stroke-linecap:butt;stroke-linejoin:miter;stroke-miterlimit:10;stroke-dasharray:none;stroke-opacity:1"
       transform="matrix(1.3333333,0,0,-1.3333333,127.54533,156.41867)" />
    <path
       id="path9"
       d="M 4.66248,0 C 3.28098,0.25902 1.0361,1.0361 -0.51805,1.94269 V -1.94269 C 1.0361,-1.0361 3.28098,-0.25902 4.66248,0"
       style="fill:#ff8080;fill-opacity:1;fill-rule:nonzero;stroke:none"
       transform="matrix(1.3333333,0,0,-1.3333333,234.71592,43.03144)" />
    <path
       id="path10"
       d="m -42.5202,39.68535 c 5.50621,13.76552 17.33441,21.27048 28.34681,31.18165 11.01241,9.9112 17.33437,18.19082 28.34678,19.8427 11.0124,1.65187 22.8406,-1.97804 28.34681,-11.33856 5.5062,-9.36054 5.5062,-21.43355 0,-36.85094 C 37.01399,27.10281 30.69202,8.25931 14.17339,0 -2.34521,-8.25931 -31.5078,-7.70865 -42.5202,0 c -11.01241,7.70865 -5.5062,25.91983 0,39.68535 z"
       style="fill:#f2f2f2;fill-opacity:1;fill-rule:nonzero;stroke:#000000;stroke-width:0.79701;stroke-linecap:butt;stroke-linejoin:miter;stroke-miterlimit:10;stroke-dasharray:none;stroke-opacity:1"
       transform="matrix(1.3333333,0,0,-1.3333333,127.54533,156.41867)" />
    <path
       id="path11"
       d="M -56.69362,0 H 56.69362"
       style="fill:none;stroke:#ff8080;stroke-width:0.79701;stroke-linecap:butt;stroke-linejoin:miter;stroke-miterlimit:10;stroke-dasharray:2.98883, 2.98883;stroke-dashoffset:0;stroke-opacity:1"
       transform="matrix(1.3333333,0,0,-1.3333333,127.54533,156.41867)" />
    <path
       id="path12"
       d="M -56.69362,28.3468 H 56.69362"
       style="fill:none;stroke:#ff8080;stroke-width:0.79701;stroke-linecap:butt;stroke-linejoin:miter;stroke-miterlimit:10;stroke-dasharray:2.98883, 2.98883;stroke-dashoffset:0;stroke-opacity:1"
       transform="matrix(1.3333333,0,0,-1.3333333,127.54533,156.41867)" />
    <path
       id="path13"
       d="M -56.69362,56.69362 H 56.69362"
       style="fill:none;stroke:#ff8080;stroke-width:0.79701;stroke-linecap:butt;stroke-linejoin:miter;stroke-miterlimit:10;stroke-dasharray:2.98883, 2.98883;stroke-dashoffset:0;stroke-opacity:1"
       transform="matrix(1.3333333,0,0,-1.3333333,127.54533,156.41867)" />
    <path
       id="path14"
       d="M -56.69362,85.04042 H 56.69362"
       style="fill:none;stroke:#ff8080;stroke-width:0.79701;stroke-linecap:butt;stroke-linejoin:miter;stroke-miterlimit:10;stroke-dasharray:2.98883, 2.98883;stroke-dashoffset:0;stroke-opacity:1"
       transform="matrix(1.3333333,0,0,-1.3333333,127.54533,156.41867)" />
    <path
       id="path15"
       d="m -56.69362,0 h 25.51196"
       style="fill:none;stroke:#ff8080;stroke-width:0.79701;stroke-linecap:butt;stroke-linejoin:miter;stroke-miterlimit:10;stroke-dasharray:none;stroke-opacity:1"
       transform="matrix(1.3333333,0,0,-1.3333333,127.54533,156.41867)" />
    <path
       id="path16"
       d="M -56.69362,28.3468 H 0"
       style="fill:none;stroke:#ff8080;stroke-width:0.79701;stroke-linecap:butt;stroke-linejoin:miter;stroke-miterlimit:10;stroke-dasharray:none;stroke-opacity:1"
       transform="matrix(1.3333333,0,0,-1.3333333,127.54533,156.41867)" />
    <path
       id="path17"
       d="M -56.69362,56.69362 H 14.17339"
       style="fill:none;stroke:#ff8080;stroke-width:0.79701;stroke-linecap:butt;stroke-linejoin:miter;stroke-miterlimit:10;stroke-dasharray:none;stroke-opacity:1"
       transform="matrix(1.3333333,0,0,-1.3333333,127.54533,156.41867)" />
    <path
       id="path18"
       d="M -56.69362,85.04042 H 17.00824"
       style="fill:none;stroke:#ff8080;stroke-width:0.79701;stroke-linecap:butt;stroke-linejoin:miter;stroke-miterlimit:10;stroke-dasharray:none;stroke-opacity:1"
       transform="matrix(1.3333333,0,0,-1.3333333,127.54533,156.41867)" />
    <path
       id="path19"
       d="m 37.93483,70.867 c 0,5.29538 -4.29265,9.58803 -9.58803,9.58803 -5.29538,0 -9.58803,-4.29265 -9.58803,-9.58803 0,-5.29538 4.29265,-9.58801 9.58803,-9.58801 5.29538,0 9.58803,4.29263 9.58803,9.58801 z"
       style="fill:#fad7da;fill-opacity:1;fill-rule:nonzero;stroke:#e63946;stroke-width:1.19553;stroke-linecap:butt;stroke-linejoin:miter;stroke-miterlimit:10;stroke-dasharray:none;stroke-opacity:1"
       transform="matrix(1.3333333,0,0,-1.3333333,127.54533,156.41867)" />
    <g
       id="g19"
       aria-label="+q"
       transform="matrix(1.0666667,0,0,1.0666667,158.64427,63.996)">
      <path
         id="path20"
         d="m 4.0725137,-2.2850684 h 2.7832031 c 0.1318359,0 0.3222656,0 0.3222656,-0.2050781 0,-0.2050781 -0.1904297,-0.2050781 -0.3222656,-0.2050781 H 4.0725137 v -2.7832031 c 0,-0.1464844 0,-0.3222657 -0.1904297,-0.3222657 -0.2050781,0 -0.2050781,0.1757813 -0.2050781,0.3222657 v 2.7832031 H 0.89380273 c -0.14648437,0 -0.33691406,0 -0.33691406,0.2050781 0,0.2050781 0.19042969,0.2050781 0.33691406,0.2050781 H 3.6770059 v 2.78320317 c 0,0.14648437 0,0.32226562 0.2050781,0.32226562 0.1904297,0 0.1904297,-0.17578125 0.1904297,-0.32226562 z m 0,0"
         style="fill:#000000;fill-opacity:1;fill-rule:nonzero;stroke:none" />
      <path
         id="path21"
         d="m 12.246342,-4.2919043 c 0,-0.043945 -0.0293,-0.1025391 -0.08789,-0.1025391 -0.117187,0 -0.512695,0.3955079 -0.688476,0.6884766 -0.219727,-0.5419922 -0.600586,-0.703125 -0.922852,-0.703125 -1.171875,0 -2.4023437,1.4794922 -2.4023437,2.9296875 0,0.96679688 0.5859375,1.58203125 1.3183594,1.58203125 0.4248047,0 0.8203123,-0.234375 1.1718753,-0.5859375 -0.08789,0.33691407 -0.410157,1.68457035 -0.439453,1.77246095 -0.08789,0.2783203 -0.161133,0.3222656 -0.7177739,0.3369141 -0.1318359,0 -0.234375,0 -0.234375,0.1904296 0,0.014649 0,0.1171875 0.1318359,0.1171875 0.3222657,0 0.65918,-0.029297 0.996094,-0.029297 0.336914,0 0.688476,0.029297 1.02539,0.029297 0.04395,0 0.175782,0 0.175782,-0.2050781 0,-0.102539 -0.102539,-0.102539 -0.263672,-0.102539 -0.46875,0 -0.46875,-0.073242 -0.46875,-0.1611329 0,-0.073242 0.01465,-0.1318359 0.04394,-0.2197265 z m -2.7539065,4.18945313 c -0.6005859,0 -0.6445312,-0.77636719 -0.6445312,-0.93750003 0,-0.4833984 0.2929687,-1.5673828 0.46875,-1.9921875 0.3076172,-0.7324218 0.8203127,-1.1572265 1.2304687,-1.1572265 0.644531,0 0.791016,0.805664 0.791016,0.8789062 0,0.058594 -0.556641,2.241211 -0.585938,2.2851563 -0.146484,0.27832028 -0.703125,0.92285153 -1.2597655,0.92285153 z m 0,0"
         style="fill:#000000;fill-opacity:1;fill-rule:nonzero;stroke:none" />
    </g>
    <path
       id="path22"
       d="m -18.75877,14.17339 c 0,5.29538 -4.29265,9.58802 -9.58803,9.58802 -5.29538,0 -9.58803,-4.29264 -9.58803,-9.58802 0,-5.29539 4.29265,-9.58803 9.58803,-9.58803 5.29538,0 9.58803,4.29264 9.58803,9.58803 z"
       style="fill:#dae5eb;fill-opacity:1;fill-rule:nonzero;stroke:#457b9d;stroke-width:1.19553;stroke-linecap:butt;stroke-linejoin:miter;stroke-miterlimit:10;stroke-dasharray:none;stroke-opacity:1"
       transform="matrix(1.3333333,0,0,-1.3333333,127.54533,156.41867)" />
    <g
       id="g22"
       aria-label="−q"
       transform="matrix(1.0666667,0,0,1.0666667,83.054667,139.58667)">
      <path
         id="path23"
         d="m 6.5625195,-2.2858398 c 0.1757813,0 0.3515625,0 0.3515625,-0.2050782 0,-0.2050781 -0.1757812,-0.2050781 -0.3515625,-0.2050781 h -5.390625 c -0.1611328,0 -0.35156247,0 -0.35156247,0.2050781 0,0.2050782 0.19042967,0.2050782 0.35156247,0.2050782 z m 0,0"
         style="fill:#000000;fill-opacity:1;fill-rule:nonzero;stroke:none" />
      <path
         id="path24"
         d="m 12.246113,-4.2926758 c 0,-0.043945 -0.0293,-0.102539 -0.08789,-0.102539 -0.117188,0 -0.512696,0.3955078 -0.688477,0.6884765 -0.219726,-0.5419922 -0.600586,-0.703125 -0.922851,-0.703125 -1.1718755,0 -2.4023442,1.4794922 -2.4023442,2.9296875 0,0.96679689 0.5859375,1.58203127 1.3183594,1.58203127 0.4248046,0 0.8203128,-0.234375 1.1718748,-0.5859375 -0.08789,0.33691406 -0.410156,1.68457033 -0.439453,1.77246093 -0.08789,0.2783203 -0.161133,0.3222656 -0.7177734,0.3369141 -0.1318359,0 -0.234375,0 -0.234375,0.1904297 0,0.014648 0,0.1171875 0.1318359,0.1171875 0.3222657,0 0.6591795,-0.029297 0.9960935,-0.029297 0.336914,0 0.688477,0.029297 1.025391,0.029297 0.04394,0 0.175781,0 0.175781,-0.2050782 0,-0.102539 -0.102539,-0.102539 -0.263672,-0.102539 -0.46875,0 -0.46875,-0.073242 -0.46875,-0.1611328 0,-0.073242 0.01465,-0.131836 0.04395,-0.2197266 z m -2.753906,4.18945314 c -0.6005859,0 -0.6445312,-0.77636718 -0.6445312,-0.93750004 0,-0.4833984 0.2929687,-1.5673828 0.46875,-1.9921875 0.3076172,-0.7324218 0.8203122,-1.1572265 1.2304692,-1.1572265 0.644531,0 0.791015,0.805664 0.791015,0.8789062 0,0.058594 -0.55664,2.241211 -0.585937,2.2851563 -0.146485,0.27832029 -0.703125,0.92285154 -1.259766,0.92285154 z m 0,0"
         style="fill:#000000;fill-opacity:1;fill-rule:nonzero;stroke:none" />
    </g>
    <path
       id="path25"
       d="M 38.41304,70.867 H 66.20453"
       style="fill:none;stroke:#1d3557;stroke-width:0.79701;stroke-linecap:butt;stroke-linejoin:miter;stroke-miterlimit:10;stroke-dasharray:none;stroke-opacity:1"
       transform="matrix(1.3333333,0,0,-1.3333333,127.54533,156.41867)" />
    <path
       id="path26"
       d="M 4.66248,0 C 3.28098,0.25902 1.0361,1.0361 -0.51805,1.94269 V -1.94269 C 1.0361,-1.0361 3.28098,-0.25902 4.66248,0"
       style="fill:#1d3557;fill-opacity:1;fill-rule:nonzero;stroke:none"
       transform="matrix(1.3333333,0,0,-1.3333333,215.81804,61.929333)" />
    <path
       id="path27"
       d="m 5.3436641,-5.9296172 c -0.1289063,0.1289063 -0.4570313,0.4101563 -0.4570313,0.5859375 0,0.1054688 0.09375,0.1992188 0.1992188,0.1992188 0.082031,0 0.1289062,-0.070312 0.1875,-0.1289063 0.1171875,-0.140625 0.3398437,-0.421875 0.7851562,-0.6445312 0.070312,-0.035156 0.1640625,-0.09375 0.1640625,-0.2109375 0,-0.09375 -0.070312,-0.1523438 -0.140625,-0.1992188 -0.2109375,-0.1523437 -0.328125,-0.328125 -0.3984375,-0.5625 -0.023437,-0.09375 -0.070312,-0.2226562 -0.1992187,-0.2226562 -0.140625,0 -0.1992188,0.1289062 -0.1992188,0.2109375 0,0.046875 0.070312,0.3632812 0.234375,0.5742187 H 2.1561641 c -0.1640625,0 -0.3398438,0 -0.3398438,0.1992188 0,0.1992187 0.1757813,0.1992187 0.3398438,0.1992187 z m -3.788086,5.21484376 h 0.9609375 c 0.75,0 0.8320313,0.15234375 0.8320313,0.4453125 0,0.0703125 0,0.1875 -0.070312,0.4921875 -0.023437,0.046875 -0.035156,0.0820313 -0.035156,0.10546875 0,0.0820313 0.058594,0.1171875 0.1171875,0.1171875 0.1054688,0 0.1054688,-0.0234375 0.1523438,-0.2109375 L 4.0633906,-1.9218047 c 0.023437,-0.1054687 0.023437,-0.1289062 0.023437,-0.1640625 0,-0.011719 -0.011719,-0.1054687 -0.1171875,-0.1054687 -0.09375,0 -0.1054687,0.046875 -0.1523437,0.2109375 -0.1992188,0.7734375 -0.4335938,0.9492187 -1.2773438,0.9492187 h -0.914062 l 0.6445313,-2.53125 c 0.082031,-0.3398437 0.09375,-0.3867187 0.5390625,-0.3867187 h 1.3125 c 1.21875,0 1.453125,0.328125 1.453125,1.1015625 0,0.2226562 0,0.2695312 -0.035156,0.5390625 -0.011719,0.1289062 -0.011719,0.140625 -0.011719,0.1757812 0,0.046875 0.023437,0.1171875 0.1171875,0.1171875 0.1054687,0 0.1171875,-0.058594 0.140625,-0.2460937 L 5.9852656,-3.9843047 C 6.0087031,-4.2538359 5.9618281,-4.2538359 5.7157344,-4.2538359 H 0.82901563 c -0.19921875,0 -0.29296875,0 -0.29296875,0.1992187 0,0.1054688 0.09375,0.1054688 0.28125,0.1054688 0.36328122,0 0.64453122,0 0.64453122,0.1875 0,0.035156 0,0.058594 -0.046875,0.234375 L 0.09073438,1.7461641 c -0.09375,0.3867187 -0.1171875,0.46875 -0.90234375,0.46875 -0.1640625,0 -0.28125003,0 -0.28125003,0.1875 0,0.1171875 0.12890628,0.1171875 0.15234378,0.1171875 0.29296875,0 1.03125,-0.035156 1.3125,-0.035156 0.328125,0 1.16015622,0.035156 1.48828122,0.035156 0.09375,0 0.2109375,0 0.2109375,-0.1875 0,-0.082031 -0.058594,-0.1054688 -0.058594,-0.1171875 -0.035156,0 -0.058594,0 -0.28125,0 -0.2226563,0 -0.2695313,0 -0.515625,-0.023437 -0.29296877,-0.035156 -0.32812502,-0.070312 -0.32812502,-0.1992188 0,-0.023437 0,-0.082031 0.046875,-0.234375 z m 0,0"
       style="fill:#1d3557;fill-opacity:1;fill-rule:nonzero;stroke:none"
       aria-label="⃗&#10;F"
       transform="matrix(1.3333333,0,0,1.3333333,228.94933,64.996)" />
    <path
       id="path28"
       d="M -38.41304,14.17339 H -66.20453"
       style="fill:none;stroke:#1d3557;stroke-width:0.79701;stroke-linecap:butt;stroke-linejoin:miter;stroke-miterlimit:10;stroke-dasharray:none;stroke-opacity:1"
       transform="matrix(1.3333333,0,0,-1.3333333,127.54533,156.41867)" />
    <path
       id="path29"
       d="M 4.66248,0 C 3.28098,0.25902 1.0361,1.0361 -0.51805,1.94269 V -1.94269 C 1.0361,-1.0361 3.28098,-0.25902 4.66248,0"
       style="fill:#1d3557;fill-opacity:1;fill-rule:nonzero;stroke:none"
       transform="matrix(-1.3333333,0,0,1.3333333,39.272627,137.52081)" />
    <path
       id="path30"
       d="m 5.3427266,-5.9302344 c -0.1289063,0.1289063 -0.4570313,0.4101563 -0.4570313,0.5859375 0,0.1054688 0.09375,0.1992188 0.1992188,0.1992188 0.082031,0 0.1289062,-0.070312 0.1875,-0.1289063 0.1171875,-0.140625 0.3398437,-0.421875 0.7851562,-0.6445312 0.070312,-0.035156 0.1640625,-0.09375 0.1640625,-0.2109375 0,-0.09375 -0.070312,-0.1523438 -0.140625,-0.1992188 -0.2109375,-0.1523437 -0.328125,-0.328125 -0.3984375,-0.5625 -0.023437,-0.09375 -0.070312,-0.2226562 -0.1992187,-0.2226562 -0.140625,0 -0.1992188,0.1289062 -0.1992188,0.2109375 0,0.046875 0.070312,0.3632812 0.234375,0.5742187 H 2.1552266 c -0.1640625,0 -0.3398438,0 -0.3398438,0.1992188 0,0.1992187 0.1757813,0.1992187 0.3398438,0.1992187 z m -3.788086,5.21484378 h 0.9609375 c 0.75,0 0.8320313,0.15234375 0.8320313,0.4453125 0,0.0703125 0,0.1875 -0.070312,0.4921875 -0.023437,0.046875 -0.035156,0.0820313 -0.035156,0.10546875 0,0.0820313 0.058594,0.1171875 0.1171875,0.1171875 0.1054688,0 0.1054688,-0.0234375 0.1523438,-0.2109375 L 4.0624531,-1.9224219 c 0.023437,-0.1054687 0.023437,-0.1289062 0.023437,-0.1640625 0,-0.011719 -0.011719,-0.1054687 -0.1171875,-0.1054687 -0.09375,0 -0.1054687,0.046875 -0.1523437,0.2109375 -0.1992188,0.7734375 -0.4335938,0.9492187 -1.2773438,0.9492187 h -0.914062 l 0.6445313,-2.53125 c 0.082031,-0.3398437 0.09375,-0.3867187 0.5390625,-0.3867187 h 1.3125 c 1.21875,0 1.453125,0.328125 1.453125,1.1015625 0,0.2226562 0,0.2695312 -0.035156,0.5390625 -0.011719,0.1289062 -0.011719,0.140625 -0.011719,0.1757812 0,0.046875 0.023437,0.1171875 0.1171875,0.1171875 0.1054687,0 0.1171875,-0.058594 0.140625,-0.2460937 L 5.9843281,-3.9849219 C 6.0077656,-4.2544531 5.9608906,-4.2544531 5.7147969,-4.2544531 H 0.82807812 c -0.19921875,0 -0.29296875,0 -0.29296875,0.1992187 0,0.1054688 0.09375,0.1054688 0.28125,0.1054688 0.36328123,0 0.64453123,0 0.64453123,0.1875 0,0.035156 0,0.058594 -0.046875,0.234375 L 0.08979687,1.7455469 c -0.09375,0.3867187 -0.1171875,0.46875 -0.90234375,0.46875 -0.1640625,0 -0.28125002,0 -0.28125002,0.1875 0,0.1171875 0.12890627,0.1171875 0.15234377,0.1171875 0.29296875,0 1.03125,-0.035156 1.3125,-0.035156 0.328125,0 1.16015623,0.035156 1.48828123,0.035156 0.09375,0 0.2109375,0 0.2109375,-0.1875 0,-0.082031 -0.058594,-0.1054688 -0.058594,-0.1171875 -0.035156,0 -0.058594,0 -0.28125,0 -0.2226563,0 -0.2695313,0 -0.515625,-0.023437 -0.29296878,-0.035156 -0.32812503,-0.070312 -0.32812503,-0.1992188 0,-0.023437 0,-0.082031 0.046875,-0.234375 z m 0,0"
       style="fill:#1d3557;fill-opacity:1;fill-rule:nonzero;stroke:none"
       aria-label="⃗&#10;F"
       transform="matrix(1.3333333,0,0,1.3333333,19.669333,140.58667)" />
    <path
       id="path31"
       d="M -21.2289,21.29129 17.93204,60.45224"
       style="fill:none;stroke:#800080;stroke-width:0.79701;stroke-linecap:butt;stroke-linejoin:miter;stroke-miterlimit:10;stroke-dasharray:none;stroke-opacity:1"
       transform="matrix(1.3333333,0,0,-1.3333333,127.54533,156.41867)" />
    <path
       id="path32"
       d="M 4.66248,0 C 3.28098,0.25902 1.0361,1.0361 -0.51805,1.94269 V -1.94269 C 1.0361,-1.0361 3.28098,-0.25902 4.66248,0"
       style="fill:#800080;fill-opacity:1;fill-rule:nonzero;stroke:none"
       transform="matrix(0.9428,-0.9428,-0.9428,-0.9428,151.45469,75.815707)" />
    <path
       id="path33"
       d="m 5.3440938,-5.9304687 c -0.1289063,0.1289062 -0.4570313,0.4101562 -0.4570313,0.5859375 0,0.1054687 0.09375,0.1992187 0.1992188,0.1992187 0.082031,0 0.1289062,-0.070312 0.1875,-0.1289062 C 5.3909688,-5.4148437 5.613625,-5.6960937 6.0589375,-5.91875 6.12925,-5.9539062 6.223,-6.0125 6.223,-6.1296875 6.223,-6.2234375 6.152688,-6.2820312 6.082375,-6.3289062 5.8714375,-6.48125 5.75425,-6.6570312 5.6839375,-6.8914062 5.6605,-6.9851562 5.613625,-7.1140625 5.4847188,-7.1140625 c -0.140625,0 -0.1992188,0.1289063 -0.1992188,0.2109375 0,0.046875 0.070312,0.3632813 0.234375,0.5742188 H 2.1565938 c -0.1640625,0 -0.3398438,0 -0.3398438,0.1992187 0,0.1992188 0.1757813,0.1992188 0.3398438,0.1992188 z M 4.3421406,-3.7625 c -0.1757812,-0.375 -0.46875,-0.6445312 -0.9140625,-0.6445312 -1.171875,0 -2.4023437,1.4648437 -2.4023437,2.9179687 0,0.9375 0.5507812,1.59375 1.3242187,1.59375 0.1992188,0 0.703125,-0.03515625 1.3007813,-0.73828125 0.070312,0.41015625 0.421875,0.73828125 0.9023437,0.73828125 0.3515625,0 0.5742188,-0.22265625 0.7382813,-0.5390625 0.1640625,-0.36328125 0.2929687,-0.9726562 0.2929687,-0.9960937 0,-0.09375 -0.082031,-0.09375 -0.1171875,-0.09375 -0.09375,0 -0.1054687,0.035156 -0.140625,0.1757812 -0.1640625,0.64453125 -0.3515625,1.2421875 -0.75,1.2421875 -0.2695312,0 -0.3046875,-0.2578125 -0.3046875,-0.45703125 0,-0.22265625 0.023437,-0.3046875 0.1289063,-0.73828125 0.1171875,-0.421875 0.1289062,-0.5273437 0.2226562,-0.9023437 l 0.3515625,-1.3945313 c 0.070312,-0.28125 0.070312,-0.2929687 0.070312,-0.3398437 0,-0.1640625 -0.1171875,-0.2695313 -0.28125,-0.2695313 -0.2460937,0 -0.3867187,0.2226563 -0.4218745,0.4453125 z m -0.6445312,2.578125 c -0.046875,0.1757813 -0.046875,0.19921875 -0.1992188,0.36328125 -0.4453125,0.55078125 -0.84375,0.71484375 -1.125,0.71484375 -0.5039062,0 -0.6445312,-0.55078125 -0.6445312,-0.9375 0,-0.5039062 0.328125,-1.7226562 0.5507812,-2.1796875 0.3046875,-0.5976562 0.7617188,-0.9609375 1.1601563,-0.9609375 0.6445312,0 0.7851562,0.8203125 0.7851562,0.8789063 0,0.058594 -0.023437,0.1171875 -0.035156,0.1640625 z m 0,0"
       style="fill:#800080;fill-opacity:1;fill-rule:nonzero;stroke:none"
       aria-label="⃗a"
       transform="matrix(1.3333333,0,0,1.3333333,123.20267,94.766667)" />
  </g>
</svg>
