<?xml version="1.0" encoding="UTF-8" standalone="no"?>
<!-- Created with Inkscape (http://www.inkscape.org/) -->

<svg
   version="1.1"
   id="svg1"
   width="680.85474"
   height="300.62943"
   viewBox="0 0 680.85474 300.62943"
   xmlns="http://www.w3.org/2000/svg"
   xmlns:svg="http://www.w3.org/2000/svg">
  <defs
     id="defs1" />
  <g
     id="g1"
     transform="translate(-13.280948,-17.71875)">
    <path
       id="path1"
       d="M -141.73404,79.37114 V -79.37114 H 85.04042 V 79.37114 Z"
       style="fill:#f2f2f2;fill-opacity:1;fill-rule:nonzero;stroke:#000000;stroke-width:0.3985;stroke-linecap:butt;stroke-linejoin:miter;stroke-miterlimit:10;stroke-dasharray:none;stroke-opacity:1"
       transform="matrix(1.3333333,0,0,-1.3333333,202.52533,175.316)" />
    <path
       id="path2"
       d="m -55.83286,-9.84454 c -0.81556,4.62542 -7.72589,7.2731 -15.43489,5.91384 -7.709,-1.35925 -13.29707,-6.2107 -12.4815,-10.83613 0.81555,-4.62543 7.72589,-7.27312 15.43487,-5.91387 7.709,1.35927 13.29708,6.21071 12.48152,10.83616 z"
       style="fill:none;stroke:#000000;stroke-width:0.79701;stroke-linecap:butt;stroke-linejoin:miter;stroke-miterlimit:10;stroke-dasharray:none;stroke-opacity:1"
       transform="matrix(1.3333333,0,0,-1.3333333,202.52533,175.316)" />
    <g
       id="g2"
       aria-label="+−"
       transform="matrix(1.3130933,-0.23153333,0.23153333,1.3130933,95.513333,197.556)">
      <path
         id="path3"
         d="m 4.079848,-2.2921575 2.77442,-0.01057 c 0.1425567,0.00134 0.3312757,0.010815 0.3312474,-0.1914793 -2.82e-5,-0.2022945 -0.1887472,-0.2117719 -0.3313039,-0.2131097 l -2.7744199,0.01057 0.00301,-2.7839256 C 4.0821,-5.6116881 4.0800368,-5.802442 3.8777423,-5.8024138 3.6774828,-5.8139261 3.6795459,-5.6231722 3.6802431,-5.4921561 l -0.00301,2.7839256 -2.78596048,0.00854 c -0.1425567,-0.00134 -0.33331062,7.254e-4 -0.33328237,0.2030199 2.824e-5,0.2022944 0.19078215,0.2002313 0.33333885,0.2015691 l 2.7859605,-0.00854 -0.00504,2.7954662 c 6.972e-4,0.13101613 7.254e-4,0.33331061 0.200985,0.34482295 0.2022984,-2.835e-5 0.2022701,-0.20232283 0.201573,-0.33333896 z m 0,0"
         style="fill:#000000;fill-opacity:1;fill-rule:nonzero;stroke:none" />
      <path
         id="path4"
         d="m 20.947848,-2.2957003 c 0.179213,-0.0041 0.356391,0.00334 0.356363,-0.19895 -2.8e-5,-0.2022945 -0.177207,-0.209737 -0.35642,-0.205639 l -5.390673,0.00143 c -0.154097,-0.00337 -0.33331,7.254e-4 -0.333282,0.2030199 2.8e-5,0.2022945 0.179242,0.1981964 0.333339,0.2015691 z m 0,0"
         style="fill:#000000;fill-opacity:1;fill-rule:nonzero;stroke:none" />
    </g>
    <path
       id="path5"
       d="m -85.92194,49.60692 c 2.34838,4.0675 -1.24337,10.53757 -8.02249,14.45149 -6.77913,3.91391 -14.17824,3.7894 -16.52661,-0.27811 -2.34837,-4.0675 1.24338,-10.53756 8.02249,-14.45149 6.77913,-3.91391 14.17824,-3.7894 16.52661,0.27811 z"
       style="fill:none;stroke:#000000;stroke-width:0.79701;stroke-linecap:butt;stroke-linejoin:miter;stroke-miterlimit:10;stroke-dasharray:none;stroke-opacity:1"
       transform="matrix(1.3333333,0,0,-1.3333333,202.52533,175.316)" />
    <g
       id="g5"
       aria-label="+−"
       transform="matrix(1.1547067,0.66666667,-0.66666667,1.1547067,57.156,95.221333)">
      <path
         id="path6"
         d="m 4.0734304,-2.2965117 2.7820346,-0.00947 c 0.1366431,0.0023 0.3255996,0.00146 0.3247587,-0.1874985 0.00345,-0.2049646 -0.1855081,-0.2041237 -0.3221512,-0.2064227 l -2.7820346,0.00947 6.746e-4,-2.787894 c -0.00785,-0.1307837 -0.0044,-0.3357483 -0.1992171,-0.3450561 -0.1991053,0.0067 -0.2025537,0.2116649 -0.194704,0.3424486 l -6.746e-4,2.787894 -2.787894,-6.747e-4 c -0.14679176,0.00356 -0.32559959,-0.00146 -0.32904804,0.2035066 8.4093e-4,0.1889565 0.17964876,0.1939749 0.32644052,0.1904146 l 2.78789402,6.746e-4 0.00518,2.7980427 c -0.0023,0.13664305 -0.00146,0.32559959 0.1976473,0.31889933 0.1948158,0.009308 0.1939749,-0.17964876 0.1962739,-0.31629182 z m 0,0"
         style="fill:#000000;fill-opacity:1;fill-rule:nonzero;stroke:none" />
      <path
         id="path7"
         d="m 20.95266,-2.2989538 c 0.172949,-0.00513 0.351757,-1.12e-4 0.350916,-0.1890685 0.0034,-0.2049646 -0.17536,-0.209983 -0.348308,-0.2048527 l -5.386832,-0.00219 c -0.172948,0.00513 -0.351756,1.119e-4 -0.355204,0.2050765 8.41e-4,0.1889566 0.179648,0.193975 0.352597,0.1888446 z m 0,0"
         style="fill:#000000;fill-opacity:1;fill-rule:nonzero;stroke:none" />
    </g>
    <path
       id="path8"
       d="m 14.54301,-39.95613 c -4.41352,-1.6064 -5.82096,-8.87152 -3.14364,-16.22733 2.67731,-7.35579 8.42541,-12.01648 12.83894,-10.41006 4.41353,1.60642 5.82097,8.87152 3.14365,16.22732 -2.67731,7.3558 -8.42542,12.01648 -12.83895,10.41007 z"
       style="fill:none;stroke:#000000;stroke-width:0.79701;stroke-linecap:butt;stroke-linejoin:miter;stroke-miterlimit:10;stroke-dasharray:none;stroke-opacity:1"
       transform="matrix(1.3333333,0,0,-1.3333333,202.52533,175.316)" />
    <g
       id="g8"
       aria-label="+−"
       transform="matrix(-0.45604,-1.2529333,1.2529333,-0.45604,236.548,259.08133)">
      <path
         id="path9"
         d="m 4.0773348,-2.2954711 2.7803044,0.00184 c 0.137163,4.14e-5 0.3263898,-0.00591 0.3244478,-0.2061473 C 7.180147,-2.700017 6.9909182,-2.6940669 6.8537552,-2.6941083 l -2.7803044,-0.00184 0.00585,-2.7913162 c -0.00397,-0.1261512 -0.00591,-0.3263898 -0.2061473,-0.3244478 -0.2002386,0.00194 -0.1982966,0.2021806 -0.1943299,0.3283317 l -0.00585,2.7913163 -2.79131623,-0.00585 c -0.13716303,-4.13e-5 -0.32638976,0.00591 -0.32444777,0.2061473 0.001942,0.2002386 0.19116872,0.1942886 0.32833175,0.1943299 l 2.79131625,0.00585 0.00516,2.79532435 C 3.6709685,0.6368922 3.6729105,0.8371308 3.8731491,0.83518881 4.0733877,0.83324682 4.0714457,0.63300821 4.0824989,0.49985326 Z m 0,0"
         style="fill:#000000;fill-opacity:1;fill-rule:nonzero;stroke:none" />
      <path
         id="path10"
         d="m 20.952396,-2.3013949 c 0.174207,0.00105 0.348413,0.00211 0.346471,-0.1981311 -0.0019,-0.2002387 -0.176148,-0.2012924 -0.350355,-0.2023461 l -5.39041,0.00839 c -0.163195,0.00295 -0.337402,0.0019 -0.33546,0.2021393 0.0019,0.2002386 0.176149,0.2012923 0.339344,0.1983379 z m 0,0"
         style="fill:#000000;fill-opacity:1;fill-rule:nonzero;stroke:none" />
    </g>
    <path
       id="path11"
       d="m -2.46114,13.95819 c -4.62542,-0.81555 -7.2731,-7.72589 -5.91384,-15.43487 1.35925,-7.709 6.2107,-13.29706 10.83612,-12.48151 4.62542,0.81555 7.2731,7.72589 5.91384,15.43487 -1.35925,7.709 -6.2107,13.29706 -10.83612,12.48151 z"
       style="fill:none;stroke:#000000;stroke-width:0.79701;stroke-linecap:butt;stroke-linejoin:miter;stroke-miterlimit:10;stroke-dasharray:none;stroke-opacity:1"
       transform="matrix(1.3333333,0,0,-1.3333333,202.52533,175.316)" />
    <g
       id="g11"
       aria-label="+−"
       transform="matrix(-0.23153333,-1.3130933,1.3130933,-0.23153333,208.35867,189.27467)">
      <path
         id="path12"
         d="m 4.0816853,-2.2902945 2.7744199,-0.01057 c 0.1425567,0.00134 0.3312757,0.010815 0.3312474,-0.1914792 -2.82e-5,-0.2022945 -0.1887472,-0.211772 -0.3313039,-0.2131097 l -2.7744199,0.01057 0.00301,-2.7839256 C 4.0839372,-5.6098252 4.081874,-5.8005791 3.8795796,-5.8005509 3.67932,-5.8120632 3.6813831,-5.6213093 3.6820803,-5.4902932 l -0.00301,2.7839256 -2.78596048,0.00854 c -0.1425567,-0.00134 -0.33331061,7.254e-4 -0.33328237,0.2030199 2.824e-5,0.2022945 0.19078215,0.2002313 0.33333886,0.2015691 l 2.78596049,-0.00854 -0.00504,2.79546613 c 6.972e-4,0.13101613 7.254e-4,0.33331062 0.200985,0.34482295 0.2022945,-2.824e-5 0.2022662,-0.20232273 0.2015691,-0.33333886 z m 0,0"
         style="fill:#000000;fill-opacity:1;fill-rule:nonzero;stroke:none" />
      <path
         id="path13"
         d="m 20.9468,-2.2943461 c 0.179213,-0.0041 0.356391,0.00334 0.356363,-0.19895 -2.8e-5,-0.2022945 -0.177206,-0.209737 -0.35642,-0.205639 l -5.390673,0.00143 c -0.154097,-0.00337 -0.33331,7.254e-4 -0.333282,0.2030199 2.8e-5,0.2022945 0.179242,0.1981964 0.333339,0.2015691 z m 0,0"
         style="fill:#000000;fill-opacity:1;fill-rule:nonzero;stroke:none" />
    </g>
    <path
       id="path14"
       d="M 54.28674,45.5527 C 51.26772,49.15057 43.95944,47.9883 37.96303,42.95663 31.9666,37.92497 29.55304,30.9295 32.57205,27.33165 c 3.01903,-3.59787 10.3273,-2.43559 16.32372,2.59607 5.99643,5.03166 8.41,12.02711 5.39097,15.62498 z"
       style="fill:none;stroke:#000000;stroke-width:0.79701;stroke-linecap:butt;stroke-linejoin:miter;stroke-miterlimit:10;stroke-dasharray:none;stroke-opacity:1"
       transform="matrix(1.3333333,0,0,-1.3333333,202.52533,175.316)" />
    <g
       id="g14"
       aria-label="+−"
       transform="matrix(1.0213867,-0.85705333,0.85705333,1.0213867,251.25867,138.75867)">
      <path
         id="path15"
         d="m 4.0829257,-2.2962108 2.7698227,-0.00109 c 0.1410554,-0.00402 0.3330845,0.00413 0.3322622,-0.195429 -8.223e-4,-0.1995618 -0.1928514,-0.2077166 -0.3339068,-0.2036946 l -2.7698227,0.00109 0.005,-2.7953095 c -0.00258,-0.1245456 -0.0034,-0.3241074 -0.2029618,-0.3232851 -0.1995618,8.223e-4 -0.1987395,0.2003841 -0.1961618,0.3249297 l -0.005,2.7953096 -2.79530951,-0.005 c -0.14105537,0.00402 -0.32410738,0.0034 -0.32328508,0.2029618 8.2231e-4,0.1995618 0.18387432,0.2001838 0.32492969,0.1961618 l 2.7953095,0.005 0.00398,2.80284222 c 0.00258,0.12454559 0.0034,0.32410739 0.2029618,0.32328508 C 4.0903053,0.83073889 4.089483,0.63117709 4.0869053,0.50663151 Z m 0,0"
         style="fill:#000000;fill-opacity:1;fill-rule:nonzero;stroke:none" />
      <path
         id="path16"
         d="m 20.952036,-2.2955292 c 0.174075,-0.00691 0.349595,0.00269 0.348772,-0.1968734 -8.22e-4,-0.1995618 -0.176341,-0.2091609 -0.350416,-0.2022502 l -5.389613,0.00569 c -0.166542,-0.00207 -0.342062,-0.011665 -0.341239,0.1878963 8.22e-4,0.1995618 0.176341,0.2091609 0.342883,0.2112273 z m 0,0"
         style="fill:#000000;fill-opacity:1;fill-rule:nonzero;stroke:none" />
    </g>
    <path
       id="path17"
       d="m -110.47104,-63.7803 c 2.34837,-4.06751 9.74748,-4.19202 16.52661,-0.27811 6.77912,3.91392 10.37087,10.38399 8.02249,14.45149 -2.34837,4.06751 -9.74748,4.19202 -16.52661,0.27811 -6.77911,-3.91393 -10.37086,-10.38399 -8.02249,-14.45149 z"
       style="fill:none;stroke:#000000;stroke-width:0.79701;stroke-linecap:butt;stroke-linejoin:miter;stroke-miterlimit:10;stroke-dasharray:none;stroke-opacity:1"
       transform="matrix(1.3333333,0,0,-1.3333333,202.52533,175.316)" />
    <g
       id="g17"
       aria-label="+−"
       transform="matrix(-1.1547067,0.66666667,-0.66666667,-1.1547067,82.72,240.65067)">
      <path
         id="path18"
         d="m 4.0772375,-2.3023325 2.7820347,0.00947 c 0.136643,-0.0023 0.3255996,-0.00146 0.3264405,-0.1904145 -0.00345,-0.2049646 -0.192405,-0.2058056 -0.329048,-0.2035066 L 4.07463,-2.6962537 4.0739554,-5.4841476 c 0.00785,-0.1307838 0.0044,-0.3357483 -0.1904146,-0.3264406 -0.1991053,-0.0067 -0.1956568,0.1982644 -0.2035066,0.3290481 l 6.747e-4,2.787894 -2.78789399,6.746e-4 c -0.14679176,-0.00356 -0.32559959,0.00146 -0.32215114,0.2064226 -8.4093e-4,0.1889566 0.1779669,0.1839382 0.32475866,0.1874985 l 2.78789397,-6.746e-4 -0.00518,2.79804267 c 0.0023,0.13664305 0.00146,0.32559959 0.2005633,0.33229985 0.1948159,-0.009308 0.1956568,-0.19826432 0.1933578,-0.33490737 z m 0,0"
         style="fill:#000000;fill-opacity:1;fill-rule:nonzero;stroke:none" />
      <path
         id="path19"
         d="m 20.956468,-2.2998904 c 0.172948,0.00513 0.351756,1.119e-4 0.352597,-0.1888446 -0.0034,-0.2049646 -0.182257,-0.1999462 -0.355205,-0.2050765 l -5.386831,0.00219 c -0.172949,-0.00513 -0.351757,-1.119e-4 -0.348308,0.2048527 -8.41e-4,0.1889565 0.177967,0.1839381 0.350915,0.1890684 z m 0,0"
         style="fill:#000000;fill-opacity:1;fill-rule:nonzero;stroke:none" />
    </g>
    <path
       id="path20"
       d="m 28.3468,0 c 0,-4.69675 6.34555,-8.50412 14.1734,-8.50412 7.82785,0 14.1734,3.80737 14.1734,8.50412 0,4.69675 -6.34555,8.50412 -14.1734,8.50412 C 34.69235,8.50412 28.3468,4.69675 28.3468,0 Z"
       style="fill:none;stroke:#000000;stroke-width:0.79701;stroke-linecap:butt;stroke-linejoin:miter;stroke-miterlimit:10;stroke-dasharray:none;stroke-opacity:1"
       transform="matrix(1.3333333,0,0,-1.3333333,202.52533,175.316)" />
    <g
       id="g20"
       aria-label="+−"
       transform="matrix(-1.3333333,0,0,-1.3333333,273.97733,171.99467)">
      <path
         id="path21"
         d="m 4.0787031,-2.2979453 h 2.7773438 c 0.140625,0 0.328125,0 0.328125,-0.1992188 0,-0.1992187 -0.1875,-0.1992187 -0.328125,-0.1992187 H 4.0787031 v -2.7890625 c 0,-0.1289063 0,-0.328125 -0.1992187,-0.328125 -0.1992188,0 -0.1992188,0.1992187 -0.1992188,0.328125 v 2.7890625 H 0.89120313 c -0.140625,0 -0.328125,0 -0.328125,0.1992187 0,0.1992188 0.1875,0.1992188 0.328125,0.1992188 H 3.6802656 v 2.80078124 c 0,0.12890625 0,0.328125 0.1992188,0.328125 0.1992187,0 0.1992187,-0.19921875 0.1992187,-0.328125 z m 0,0"
         style="fill:#000000;fill-opacity:1;fill-rule:nonzero;stroke:none" />
      <path
         id="path22"
         d="m 20.953703,-2.2979453 c 0.175781,0 0.351563,0 0.351563,-0.1992188 0,-0.1992187 -0.175782,-0.1992187 -0.351563,-0.1992187 h -5.390625 c -0.164062,0 -0.339844,0 -0.339844,0.1992187 0,0.1992188 0.175782,0.1992188 0.339844,0.1992188 z m 0,0"
         style="fill:#000000;fill-opacity:1;fill-rule:nonzero;stroke:none" />
    </g>
    <path
       id="path23"
       d="m -42.05435,47.42519 c -1.21561,4.53669 -8.33037,6.57199 -15.8915,4.546 -7.56112,-2.02599 -12.70503,-7.34599 -11.48942,-11.8827 1.2156,-4.53672 8.33037,-6.57199 15.89149,-4.54601 7.56113,2.02599 12.70503,7.34599 11.48943,11.88271 z"
       style="fill:none;stroke:#000000;stroke-width:0.79701;stroke-linecap:butt;stroke-linejoin:miter;stroke-miterlimit:10;stroke-dasharray:none;stroke-opacity:1"
       transform="matrix(1.3333333,0,0,-1.3333333,202.52533,175.316)" />
    <g
       id="g23"
       aria-label="+−"
       transform="matrix(1.2879067,-0.34509333,0.34509333,1.2879067,114.80267,124.00133)">
      <path
         id="path24"
         d="m 4.0711334,-2.2950322 2.7771559,0.00408 c 0.1479648,-0.00888 0.3298878,-0.00866 0.3361716,-0.2132254 -0.00807,-0.1962754 -0.1899917,-0.1964931 -0.3379565,-0.1876118 l -2.7771558,-0.00408 0.00711,-2.7884752 c -5.95e-4,-0.1336124 0.00266,-0.3268548 -0.1905866,-0.3301055 -0.2075949,0.00504 -0.2108456,0.198278 -0.2102507,0.3318904 l -0.00711,2.7884752 -2.78847515,-0.00711 c -0.13361242,5.95e-4 -0.32988785,0.00866 -0.3218192,0.204939 -0.006284,0.2045618 0.18999165,0.1964932 0.32360406,0.1958982 l 2.78847519,0.00711 0.00117,2.80282765 c 0.00363,0.12229301 -0.00266,0.32685482 0.204939,0.32181919 0.1932424,0.003251 0.1995262,-0.20131105 0.1958982,-0.32360406 z m 0,0"
         style="fill:#000000;fill-opacity:1;fill-rule:nonzero;stroke:none" />
      <path
         id="path25"
         d="m 20.949801,-2.2946465 c 0.170603,-0.00282 0.352526,-0.0026 0.35881,-0.2071594 -0.0081,-0.1962754 -0.189992,-0.1964931 -0.360595,-0.1936778 l -5.386741,3.467e-4 c -0.170604,0.00282 -0.341207,0.00563 -0.333139,0.201906 -0.0063,0.2045618 0.16432,0.2017466 0.334924,0.1989313 z m 0,0"
         style="fill:#000000;fill-opacity:1;fill-rule:nonzero;stroke:none" />
    </g>
    <path
       id="path26"
       d="m -23.47409,-59.82652 c -1.60641,4.41352 -8.87154,5.82095 -16.22733,3.14364 -7.3558,-2.6773 -12.01648,-8.42542 -10.41008,-12.83896 1.60642,-4.41352 8.87154,-5.82095 16.22733,-3.14364 7.3558,2.67731 12.01648,8.42543 10.41008,12.83896 z"
       style="fill:none;stroke:#000000;stroke-width:0.79701;stroke-linecap:butt;stroke-linejoin:miter;stroke-miterlimit:10;stroke-dasharray:none;stroke-opacity:1"
       transform="matrix(1.3333333,0,0,-1.3333333,202.52533,175.316)" />
    <g
       id="g26"
       aria-label="+−"
       transform="matrix(1.2529333,-0.45604,0.45604,1.2529333,140.73467,269.716)">
      <path
         id="path27"
         d="m 4.0776291,-2.2953889 2.7803044,0.00184 c 0.1371631,4.14e-5 0.3263898,-0.00591 0.3244478,-0.2061473 -0.00194,-0.2002386 -0.1911687,-0.1942885 -0.3283318,-0.1943299 l -2.7803043,-0.00184 0.00585,-2.7913163 c -0.00397,-0.1261511 -0.00591,-0.3263897 -0.2061473,-0.3244477 -0.2002386,0.00194 -0.1982966,0.2021806 -0.1943299,0.3283317 l -0.00585,2.7913163 -2.7913163,-0.00585 c -0.13716304,-4.14e-5 -0.32638976,0.00591 -0.32444777,0.2061473 0.001942,0.2002386 0.19116872,0.1942886 0.32833175,0.1943299 l 2.79131622,0.00585 0.00516,2.79532433 C 3.6712628,0.63697438 3.6732048,0.83721299 3.8734434,0.835271 4.073682,0.83332901 4.07174,0.6330904 4.0827933,0.49993545 Z m 0,0"
         style="fill:#000000;fill-opacity:1;fill-rule:nonzero;stroke:none" />
      <path
         id="path28"
         d="m 20.95269,-2.3013127 c 0.174207,0.00105 0.348414,0.00211 0.346472,-0.1981312 -0.0019,-0.2002386 -0.176149,-0.2012923 -0.350356,-0.202346 l -5.39041,0.00839 c -0.163195,0.00295 -0.337401,0.0019 -0.335459,0.2021392 0.0019,0.2002386 0.176148,0.2012924 0.339343,0.198338 z m 0,0"
         style="fill:#000000;fill-opacity:1;fill-rule:nonzero;stroke:none" />
    </g>
    <path
       id="path29"
       d="m 54.34903,30.71497 c -0.81555,-4.62543 4.77251,-9.47689 12.48151,-10.83614 7.709,-1.35925 14.61932,1.28842 15.43489,5.91387 0.81555,4.62542 -4.77251,9.47688 -12.48151,10.83613 -7.709,1.35925 -14.61934,-1.28843 -15.43489,-5.91386 z"
       style="fill:none;stroke:#000000;stroke-width:0.79701;stroke-linecap:butt;stroke-linejoin:miter;stroke-miterlimit:10;stroke-dasharray:none;stroke-opacity:1"
       transform="matrix(1.3333333,0,0,-1.3333333,202.52533,175.316)" />
    <g
       id="g29"
       aria-label="+−"
       transform="matrix(-1.3130933,-0.23153333,0.23153333,-1.3130933,308.712,136.93733)">
      <path
         id="path30"
         d="m 4.0809162,-2.3023191 2.7744199,0.01057 c 0.1425567,-0.00134 0.3312757,-0.010815 0.331304,-0.2131097 2.82e-5,-0.2022945 -0.1886908,-0.1928171 -0.3312475,-0.1914793 l -2.7744199,-0.01057 -0.00301,-2.7839256 c 6.971e-4,-0.1310161 0.00276,-0.32177 -0.1995342,-0.3217983 -0.2002596,0.011512 -0.2023228,0.2022663 -0.2030199,0.3332824 l 0.00301,2.7839256 -2.78596053,-0.00854 c -0.14255671,0.00134 -0.33331062,-7.253e-4 -0.33333886,0.2015692 -2.824e-5,0.2022944 0.19072567,0.2043576 0.33328237,0.2030198 l 2.78596052,0.00854 0.00504,2.79546618 C 3.6827055,0.63564732 3.6826773,0.8379418 3.8829368,0.82642947 4.0852313,0.82645771 4.0852596,0.62416323 4.0859567,0.49314709 Z m 0,0"
         style="fill:#000000;fill-opacity:1;fill-rule:nonzero;stroke:none" />
      <path
         id="path31"
         d="m 20.946031,-2.2982675 c 0.179213,0.0041 0.356391,-0.00334 0.35642,-0.2056389 2.8e-5,-0.2022945 -0.177151,-0.194852 -0.356364,-0.1989501 l -5.390673,-0.00143 c -0.154097,0.00337 -0.33331,-7.253e-4 -0.333338,0.2015691 -2.9e-5,0.2022945 0.179185,0.2063926 0.333282,0.2030199 z m 0,0"
         style="fill:#000000;fill-opacity:1;fill-rule:nonzero;stroke:none" />
    </g>
    <path
       id="path32"
       d="m 12.45358,-73.35707 c 3.01903,3.59785 0.60546,10.59332 -5.39096,15.62498 -5.99642,5.03165 -13.30469,6.19394 -16.3237,2.59607 -3.01902,-3.59787 -0.60545,-10.59333 5.39096,-15.62498 5.99642,-5.03166 13.30469,-6.19394 16.3237,-2.59607 z"
       style="fill:none;stroke:#000000;stroke-width:0.79701;stroke-linecap:butt;stroke-linejoin:miter;stroke-miterlimit:10;stroke-dasharray:none;stroke-opacity:1"
       transform="matrix(1.3333333,0,0,-1.3333333,202.52533,175.316)" />
    <g
       id="g32"
       aria-label="+−"
       transform="matrix(1.0213867,0.85705333,-0.85705333,1.0213867,191.21333,254.03333)">
      <path
         id="path33"
         d="m 4.0871546,-2.2957384 2.7698227,0.00109 c 0.1410553,0.00402 0.3330844,-0.00413 0.3339067,-0.2036945 8.223e-4,-0.1995618 -0.1912067,-0.191407 -0.3322621,-0.1954291 l -2.7698227,-0.00109 -0.005,-2.7953095 c 0.00258,-0.1245456 0.0034,-0.3241074 -0.1961618,-0.3249297 -0.1995618,-8.223e-4 -0.2003841,0.1987395 -0.2029618,0.3232851 l 0.005,2.7953095 -2.79530953,0.005 c -0.14105537,-0.00402 -0.32410739,-0.0034 -0.32492969,0.1961618 -8.2231e-4,0.1995618 0.1822297,0.1989398 0.32328507,0.2029618 l 2.79530955,-0.005 -0.00398,2.80284229 C 3.681471,0.63000487 3.680651,0.82956667 3.8802128,0.83038898 4.079775,0.83121129 4.0805973,0.63164949 4.083175,0.50710391 Z m 0,0"
         style="fill:#000000;fill-opacity:1;fill-rule:nonzero;stroke:none" />
      <path
         id="path34"
         d="m 20.954021,-2.2945368 c 0.174075,0.00691 0.349594,-0.00269 0.350416,-0.2022502 8.23e-4,-0.1995618 -0.174697,-0.1899627 -0.348772,-0.1968734 l -5.389612,-0.00569 c -0.166543,0.00207 -0.342062,0.011665 -0.342884,0.2112273 -8.23e-4,0.1995618 0.174697,0.1899627 0.341239,0.1878963 z m 0,0"
         style="fill:#000000;fill-opacity:1;fill-rule:nonzero;stroke:none" />
    </g>
    <path
       id="path35"
       d="m 76.26917,-63.95943 c 1.60641,4.41353 -3.05428,10.16164 -10.41007,12.83896 -7.3558,2.67731 -14.62091,1.26988 -16.22733,-3.14366 -1.60639,-4.41353 3.05428,-10.16164 10.41008,-12.83894 7.35579,-2.67731 14.62092,-1.26989 16.22732,3.14364 z"
       style="fill:none;stroke:#000000;stroke-width:0.79701;stroke-linecap:butt;stroke-linejoin:miter;stroke-miterlimit:10;stroke-dasharray:none;stroke-opacity:1"
       transform="matrix(1.3333333,0,0,-1.3333333,202.52533,175.316)" />
    <g
       id="g35"
       aria-label="+−"
       transform="matrix(1.2529333,0.45604,-0.45604,1.2529333,271.45333,252.20267)">
      <path
         id="path36"
         d="m 4.0781271,-2.29458 2.7803044,-0.00184 c 0.137163,-4.13e-5 0.3263898,0.00591 0.3283317,-0.1943299 0.00194,-0.2002386 -0.1872847,-0.2061887 -0.3244477,-0.2061473 l -2.7803044,0.00184 -0.00585,-2.7913163 c 0.00397,-0.1261511 0.00591,-0.3263897 -0.1943299,-0.3283317 -0.2002386,-0.00194 -0.2021806,0.1982966 -0.2061473,0.3244478 l 0.00585,2.7913162 -2.79131627,0.00585 c -0.13716303,4.13e-5 -0.32638976,-0.00591 -0.32833175,0.1943299 -0.001942,0.2002386 0.18728474,0.2061887 0.32444777,0.2061473 l 2.79131625,-0.00585 -0.00516,2.79532436 C 3.683539,0.63001531 3.6815971,0.83025392 3.8818357,0.83219591 4.0820743,0.8341379 4.0840163,0.6338993 4.072963,0.50074435 Z m 0,0"
         style="fill:#000000;fill-opacity:1;fill-rule:nonzero;stroke:none" />
      <path
         id="path37"
         d="m 20.953188,-2.2886562 c 0.174207,-0.00105 0.348414,-0.00211 0.350356,-0.202346 0.0019,-0.2002386 -0.172265,-0.1991849 -0.346472,-0.1981312 l -5.39041,-0.00839 c -0.163195,-0.00295 -0.337402,-0.0019 -0.339344,0.198338 -0.0019,0.2002386 0.172265,0.1991848 0.33546,0.2021392 z m 0,0"
         style="fill:#000000;fill-opacity:1;fill-rule:nonzero;stroke:none" />
    </g>
    <path
       id="path38"
       d="m 13.86803,44.0122 c 4.0675,2.34838 4.19201,9.74749 0.2781,16.52662 C 10.23222,67.31795 3.76215,70.90968 -0.30534,68.56131 -4.37285,66.21294 -4.49736,58.81383 -0.58345,52.03471 3.33046,45.25558 9.80052,41.66385 13.86803,44.0122 Z"
       style="fill:none;stroke:#000000;stroke-width:0.79701;stroke-linecap:butt;stroke-linejoin:miter;stroke-miterlimit:10;stroke-dasharray:none;stroke-opacity:1"
       transform="matrix(1.3333333,0,0,-1.3333333,202.52533,175.316)" />
    <g
       id="g38"
       aria-label="+−"
       transform="matrix(0.66666667,1.1547067,-1.1547067,0.66666667,201.312,89.146667)">
      <path
         id="path39"
         d="m 4.0771344,-2.3013727 2.7820347,0.00947 c 0.136643,-0.0023 0.3255996,-0.00146 0.3264405,-0.1904146 -0.00345,-0.2049646 -0.192405,-0.2058055 -0.3290481,-0.2035065 l -2.7820346,-0.00947 -6.746e-4,-2.787894 c 0.00785,-0.1307837 0.0044,-0.3357483 -0.1904146,-0.3264405 -0.1991053,-0.0067 -0.1956568,0.1982643 -0.2035066,0.329048 l 6.747e-4,2.787894 -2.787894,6.746e-4 c -0.14679176,-0.00356 -0.3255996,0.00146 -0.32215115,0.2064227 -8.4093e-4,0.1889565 0.17796691,0.1839381 0.32475867,0.1874985 l 2.78789398,-6.747e-4 -0.00518,2.79804271 c 0.0023,0.13664306 0.00146,0.3255996 0.2005633,0.33229986 C 4.0734078,0.82226959 4.0742487,0.63331305 4.0719497,0.49667 Z m 0,0"
         style="fill:#000000;fill-opacity:1;fill-rule:nonzero;stroke:none" />
      <path
         id="path40"
         d="m 20.953827,-2.3003954 c 0.172949,0.00513 0.351757,1.12e-4 0.352597,-0.1888446 -0.0034,-0.2049646 -0.182256,-0.1999462 -0.355204,-0.2050765 l -5.386832,0.00219 c -0.172948,-0.00513 -0.351756,-1.119e-4 -0.348308,0.2048527 -8.41e-4,0.1889565 0.177967,0.1839382 0.350916,0.1890685 z m 0,0"
         style="fill:#000000;fill-opacity:1;fill-rule:nonzero;stroke:none" />
    </g>
    <path
       id="path41"
       d="m -21.71469,-18.2211 c -3.01903,3.59787 -10.3273,2.4356 -16.32371,-2.59607 -5.99644,-5.03166 -8.41001,-12.02713 -5.39098,-15.62498 3.01901,-3.59787 10.3273,-2.4356 16.32371,2.59607 5.99642,5.03164 8.40999,12.02711 5.39098,15.62498 z"
       style="fill:none;stroke:#000000;stroke-width:0.79701;stroke-linecap:butt;stroke-linejoin:miter;stroke-miterlimit:10;stroke-dasharray:none;stroke-opacity:1"
       transform="matrix(1.3333333,0,0,-1.3333333,202.52533,175.316)" />
    <g
       id="g41"
       aria-label="+−"
       transform="matrix(1.0213867,-0.85705333,0.85705333,1.0213867,149.92533,223.78933)">
      <path
         id="path42"
         d="m 4.0833926,-2.2952479 2.7698227,-0.00109 c 0.1410554,-0.00402 0.3330844,0.00413 0.3322621,-0.195429 -8.223e-4,-0.1995618 -0.1928513,-0.2077166 -0.3339067,-0.2036946 l -2.7698227,0.00109 0.005,-2.7953095 c -0.00258,-0.1245456 -0.0034,-0.3241074 -0.2029618,-0.3232851 -0.1995618,8.223e-4 -0.1987395,0.2003841 -0.1961618,0.3249297 l -0.005,2.7953095 -2.79530955,-0.005 c -0.14105537,0.00402 -0.32410738,0.0034 -0.32328507,0.2029617 8.2231e-4,0.1995618 0.18387432,0.2001839 0.32492969,0.1961619 l 2.79530953,0.005 0.00398,2.80284229 c 0.00258,0.12454559 0.0034,0.32410739 0.2029618,0.32328508 0.1995618,-8.2231e-4 0.1987395,-0.20038411 0.1961618,-0.32492969 z m 0,0"
         style="fill:#000000;fill-opacity:1;fill-rule:nonzero;stroke:none" />
      <path
         id="path43"
         d="m 20.952503,-2.2945663 c 0.174075,-0.00691 0.349594,0.00269 0.348772,-0.1968734 -8.22e-4,-0.1995618 -0.176342,-0.2091609 -0.350416,-0.2022502 l -5.389613,0.00569 c -0.166543,-0.00207 -0.342062,-0.011665 -0.34124,0.1878964 8.23e-4,0.1995618 0.176342,0.2091609 0.342884,0.2112272 z m 0,0"
         style="fill:#000000;fill-opacity:1;fill-rule:nonzero;stroke:none" />
    </g>
    <path
       id="path44"
       d="m -23.80275,53.37169 c -4.62543,-0.81555 -7.27312,-7.72589 -5.91386,-15.43489 1.35926,-7.709 6.21071,-13.29706 10.83615,-12.48151 4.62542,0.81555 7.2731,7.72589 5.91385,15.43489 -1.35926,7.709 -6.21071,13.29706 -10.83614,12.48151 z"
       style="fill:none;stroke:#000000;stroke-width:0.79701;stroke-linecap:butt;stroke-linejoin:miter;stroke-miterlimit:10;stroke-dasharray:none;stroke-opacity:1"
       transform="matrix(1.3333333,0,0,-1.3333333,202.52533,175.316)" />
    <g
       id="g44"
       aria-label="+−"
       transform="matrix(-0.23153333,-1.3130933,1.3130933,-0.23153333,179.904,136.724)">
      <path
         id="path45"
         d="m 4.0820778,-2.2920261 2.7744199,-0.01057 c 0.1425568,0.00134 0.3312758,0.010815 0.3312475,-0.1914793 C 7.187717,-2.6963698 6.998998,-2.7058472 6.8564413,-2.707185 l -2.77442,0.01057 0.00301,-2.7839256 C 4.0843342,-5.6115568 4.0822713,-5.8023107 3.8799765,-5.8022824 3.679717,-5.8137944 3.6817801,-5.6230408 3.6824772,-5.4920247 l -0.00301,2.7839256 -2.7859605,0.00854 c -0.1425567,-0.00134 -0.33331061,7.254e-4 -0.33328237,0.2030198 2.824e-5,0.2022945 0.19078215,0.2002314 0.33333886,0.2015692 l 2.78596051,-0.00854 -0.00504,2.79546618 c 6.971e-4,0.13101613 7.254e-4,0.33331062 0.200985,0.34482295 0.2022944,-2.824e-5 0.2022662,-0.20232273 0.2015691,-0.33333886 z m 0,0"
         style="fill:#000000;fill-opacity:1;fill-rule:nonzero;stroke:none" />
      <path
         id="path46"
         d="m 20.947192,-2.2960776 c 0.179214,-0.0041 0.356392,0.00334 0.356364,-0.1989501 -2.8e-5,-0.2022945 -0.177207,-0.209737 -0.35642,-0.2056389 l -5.390673,0.00143 c -0.154097,-0.00337 -0.333311,7.254e-4 -0.333282,0.2030199 2.8e-5,0.2022944 0.179241,0.1981964 0.333339,0.2015691 z m 0,0"
         style="fill:#000000;fill-opacity:1;fill-rule:nonzero;stroke:none" />
    </g>
    <path
       id="path47"
       d="m -42.40468,75.06456 c -4.41352,-1.6064 -5.82095,-8.87152 -3.14364,-16.22731 2.6773,-7.3558 8.42541,-12.01648 12.83894,-10.41008 4.41353,1.60641 5.82097,8.87152 3.14365,16.22733 -2.67731,7.35578 -8.42542,12.01647 -12.83895,10.41006 z"
       style="fill:none;stroke:#000000;stroke-width:0.79701;stroke-linecap:butt;stroke-linejoin:miter;stroke-miterlimit:10;stroke-dasharray:none;stroke-opacity:1"
       transform="matrix(1.3333333,0,0,-1.3333333,202.52533,175.316)" />
    <g
       id="g47"
       aria-label="+−"
       transform="matrix(-0.45604,-1.2529333,1.2529333,-0.45604,160.61867,105.72267)">
      <path
         id="path48"
         d="m 4.0779249,-2.295539 2.7803044,0.00184 c 0.137163,4.14e-5 0.3263897,-0.00591 0.3244477,-0.2061473 -0.00194,-0.2002386 -0.1911687,-0.1942885 -0.3283317,-0.1943299 l -2.7803044,-0.00184 0.00585,-2.7913163 c -0.00397,-0.1261511 -0.00591,-0.3263897 -0.2061473,-0.3244477 -0.2002387,0.00194 -0.1982967,0.2021806 -0.1943299,0.3283317 l -0.00585,2.7913163 -2.79131627,-0.00585 c -0.13716304,-4.13e-5 -0.32638976,0.00591 -0.32444777,0.2061473 0.001942,0.2002386 0.19116872,0.1942886 0.32833175,0.1943299 l 2.79131629,0.00585 0.00516,2.79532434 C 3.6715585,0.63682429 3.6735005,0.8370629 3.8737391,0.83512091 4.0739777,0.83317892 4.0720357,0.63294031 4.083089,0.49978536 Z m 0,0"
         style="fill:#000000;fill-opacity:1;fill-rule:nonzero;stroke:none" />
      <path
         id="path49"
         d="m 20.952986,-2.3014628 c 0.174207,0.00105 0.348413,0.00211 0.346471,-0.1981312 -0.0019,-0.2002386 -0.176148,-0.2012923 -0.350355,-0.202346 l -5.39041,0.00839 c -0.163195,0.00295 -0.337402,0.0019 -0.33546,0.2021392 0.0019,0.2002387 0.176149,0.2012924 0.339344,0.198338 z m 0,0"
         style="fill:#000000;fill-opacity:1;fill-rule:nonzero;stroke:none" />
    </g>
    <path
       id="path50"
       d="m -42.5202,0 c 0,-4.69675 6.34555,-8.50412 14.1734,-8.50412 7.82785,0 14.1734,3.80737 14.1734,8.50412 0,4.69675 -6.34555,8.50412 -14.1734,8.50412 -7.82785,0 -14.1734,-3.80737 -14.1734,-8.50412 z"
       style="fill:none;stroke:#000000;stroke-width:0.79701;stroke-linecap:butt;stroke-linejoin:miter;stroke-miterlimit:10;stroke-dasharray:none;stroke-opacity:1"
       transform="matrix(1.3333333,0,0,-1.3333333,202.52533,175.316)" />
    <g
       id="g50"
       aria-label="+−"
       transform="matrix(-1.3333333,0,0,-1.3333333,179.48933,171.99467)">
      <path
         id="path51"
         d="m 4.0789141,-2.2979453 h 2.7773437 c 0.140625,0 0.328125,0 0.328125,-0.1992188 0,-0.1992187 -0.1875,-0.1992187 -0.328125,-0.1992187 H 4.0789141 v -2.7890625 c 0,-0.1289063 0,-0.328125 -0.1992188,-0.328125 -0.1992187,0 -0.1992187,0.1992187 -0.1992187,0.328125 v 2.7890625 H 0.89141406 c -0.140625,0 -0.328125,0 -0.328125,0.1992187 0,0.1992188 0.1875,0.1992188 0.328125,0.1992188 H 3.6804766 v 2.80078124 c 0,0.12890625 0,0.328125 0.1992187,0.328125 0.1992188,0 0.1992188,-0.19921875 0.1992188,-0.328125 z m 0,0"
         style="fill:#000000;fill-opacity:1;fill-rule:nonzero;stroke:none" />
      <path
         id="path52"
         d="m 20.953914,-2.2979453 c 0.175781,0 0.351563,0 0.351563,-0.1992188 0,-0.1992187 -0.175782,-0.1992187 -0.351563,-0.1992187 h -5.390625 c -0.164062,0 -0.339844,0 -0.339844,0.1992187 0,0.1992188 0.175782,0.1992188 0.339844,0.1992188 z m 0,0"
         style="fill:#000000;fill-opacity:1;fill-rule:nonzero;stroke:none" />
    </g>
    <path
       id="path53"
       d="m -97.70749,17.22797 c -0.81555,-4.62543 4.77251,-9.47689 12.48151,-10.83614 7.709,-1.35925 14.61934,1.28844 15.43489,5.91387 0.81555,4.62542 -4.77251,9.47688 -12.48151,10.83613 -7.709,1.35925 -14.61934,-1.28843 -15.43489,-5.91386 z"
       style="fill:none;stroke:#000000;stroke-width:0.79701;stroke-linecap:butt;stroke-linejoin:miter;stroke-miterlimit:10;stroke-dasharray:none;stroke-opacity:1"
       transform="matrix(1.3333333,0,0,-1.3333333,202.52533,175.316)" />
    <g
       id="g53"
       aria-label="+−"
       transform="matrix(-1.3130933,-0.23153333,0.23153333,-1.3130933,105.97333,154.92)">
      <path
         id="path54"
         d="m 4.0804091,-2.3035306 2.7744199,0.01057 c 0.1425567,-0.00134 0.3312757,-0.010815 0.3313039,-0.2131097 2.83e-5,-0.2022945 -0.1886907,-0.192817 -0.3312474,-0.1914793 l -2.7744199,-0.01057 -0.00301,-2.7839256 c 6.971e-4,-0.1310161 0.00276,-0.32177 -0.1995342,-0.3217983 -0.2002596,0.011512 -0.2023227,0.2022663 -0.2030198,0.3332824 l 0.00301,2.7839256 -2.78596048,-0.00853 c -0.14255671,0.00134 -0.33331062,-7.254e-4 -0.33333886,0.2015691 -2.824e-5,0.2022945 0.19072567,0.2043576 0.33328237,0.2030198 l 2.78596047,0.00854 0.00504,2.79546611 C 3.6821979,0.63444564 3.6821697,0.83674013 3.8824293,0.82522779 4.0847238,0.82525603 4.084752,0.62296155 4.0854491,0.49194542 Z m 0,0"
         style="fill:#000000;fill-opacity:1;fill-rule:nonzero;stroke:none" />
      <path
         id="path55"
         d="m 20.945524,-2.2994791 c 0.179213,0.0041 0.356391,-0.00334 0.35642,-0.2056389 2.8e-5,-0.2022945 -0.177151,-0.194852 -0.356364,-0.19895 l -5.390673,-0.00143 c -0.154097,0.00337 -0.33331,-7.254e-4 -0.333339,0.2015691 -2.8e-5,0.2022945 0.179186,0.2063925 0.333283,0.2030198 z m 0,0"
         style="fill:#000000;fill-opacity:1;fill-rule:nonzero;stroke:none" />
    </g>
    <path
       id="path56"
       d="m -123.21426,33.01517 c -1.21561,-4.53672 3.9283,-9.85672 11.48942,-11.88271 7.56113,-2.02598 14.67589,0.0093 15.8915,4.54602 1.21562,4.5367 -3.9283,9.85672 -11.48943,11.88269 -7.56113,2.02599 -14.67589,-0.0093 -15.89149,-4.546 z"
       style="fill:none;stroke:#000000;stroke-width:0.79701;stroke-linecap:butt;stroke-linejoin:miter;stroke-miterlimit:10;stroke-dasharray:none;stroke-opacity:1"
       transform="matrix(1.3333333,0,0,-1.3333333,202.52533,175.316)" />
    <g
       id="g56"
       aria-label="+−"
       transform="matrix(-1.2879067,-0.34509333,0.34509333,-1.2879067,71.612,136.8)">
      <path
         id="path57"
         d="m 4.0792571,-2.2947165 2.7771558,-0.00408 c 0.1479648,0.00888 0.3298878,0.00866 0.323604,-0.1958982 0.00807,-0.1962754 -0.1738543,-0.1960577 -0.3218191,-0.204939 l -2.7771559,0.00408 -0.00711,-2.7884752 c 5.95e-4,-0.1336124 -0.00266,-0.3268549 -0.1958982,-0.3236041 -0.2075948,-0.00504 -0.204344,0.1882068 -0.204939,0.3218192 l 0.00711,2.7884752 -2.78847519,0.00711 c -0.13361241,-5.95e-4 -0.32988784,-0.00866 -0.33795648,0.1876118 0.006284,0.2045618 0.2025592,0.2126305 0.33617161,0.2132254 l 2.78847516,-0.00711 -0.00117,2.80282765 C 3.6736198,0.62861927 3.6799098,0.83318107 3.8875004,0.8382167 4.0807428,0.8349657 4.074459,0.63040414 4.078087,0.50811112 Z m 0,0"
         style="fill:#000000;fill-opacity:1;fill-rule:nonzero;stroke:none" />
      <path
         id="path58"
         d="m 20.957924,-2.2951022 c 0.170604,0.00282 0.352527,0.0026 0.346243,-0.2019643 0.0081,-0.1962754 -0.173854,-0.1960577 -0.344458,-0.198873 l -5.386741,-3.467e-4 c -0.170603,-0.00282 -0.341207,-0.00563 -0.349276,0.1906448 0.0063,0.2045618 0.176888,0.2073771 0.347491,0.2101924 z m 0,0"
         style="fill:#000000;fill-opacity:1;fill-rule:nonzero;stroke:none" />
    </g>
    <path
       id="path59"
       d="m -137.12099,-38.56958 c 0.81555,-4.62544 7.72589,-7.27312 15.43489,-5.91386 7.709,1.35925 13.29706,6.2107 12.48151,10.83613 -0.81555,4.62543 -7.72589,7.27312 -15.43489,5.91387 -7.709,-1.35926 -13.29706,-6.21071 -12.48151,-10.83614 z"
       style="fill:none;stroke:#000000;stroke-width:0.79701;stroke-linecap:butt;stroke-linejoin:miter;stroke-miterlimit:10;stroke-dasharray:none;stroke-opacity:1"
       transform="matrix(1.3333333,0,0,-1.3333333,202.52533,175.316)" />
    <g
       id="g59"
       aria-label="+−"
       transform="matrix(-1.3130933,0.23153333,-0.23153333,-1.3130933,52.269333,217.62667)">
      <path
         id="path60"
         d="m 4.0805064,-2.2897726 2.7744199,-0.01057 c 0.1425567,0.00134 0.3312757,0.010815 0.3312475,-0.1914793 -2.83e-5,-0.2022945 -0.1887473,-0.2117719 -0.331304,-0.2131097 l -2.7744199,0.01057 0.00301,-2.7839256 c -6.972e-4,-0.1310161 -0.00276,-0.32177 -0.2050548,-0.3217418 -0.2002596,-0.011512 -0.1981964,0.1792416 -0.1974993,0.3102577 l -0.00301,2.7839256 -2.78596052,0.00854 c -0.14255671,-0.00134 -0.33331062,7.254e-4 -0.33328238,0.2030199 2.824e-5,0.2022944 0.19078215,0.2002313 0.33333886,0.2015691 l 2.78596044,-0.00854 -0.00504,2.7954662 c 6.971e-4,0.13101613 7.254e-4,0.33331062 0.2009849,0.34482295 0.2022945,-2.824e-5 0.2022663,-0.20232273 0.2015691,-0.33333886 z m 0,0"
         style="fill:#000000;fill-opacity:1;fill-rule:nonzero;stroke:none" />
      <path
         id="path61"
         d="m 20.945621,-2.2938241 c 0.179213,-0.0041 0.356392,0.00334 0.356363,-0.1989501 -2.8e-5,-0.2022945 -0.177206,-0.209737 -0.35642,-0.2056389 l -5.390672,0.00143 c -0.154098,-0.00337 -0.333311,7.254e-4 -0.333283,0.2030199 2.8e-5,0.2022945 0.179242,0.1981964 0.333339,0.2015691 z m 0,0"
         style="fill:#000000;fill-opacity:1;fill-rule:nonzero;stroke:none" />
    </g>
    <path
       id="path62"
       d="m -136.781,-2.26018 c -0.40937,-4.67883 5.58013,-9.02475 13.3781,-9.707 7.798,-0.68225 14.45118,2.55754 14.86054,7.23638 0.40936,4.67883 -5.58015,9.02473 -13.37813,9.70698 -7.79797,0.68225 -14.45115,-2.55754 -14.86051,-7.23636 z"
       style="fill:none;stroke:#000000;stroke-width:0.79701;stroke-linecap:butt;stroke-linejoin:miter;stroke-miterlimit:10;stroke-dasharray:none;stroke-opacity:1"
       transform="matrix(1.3333333,0,0,-1.3333333,202.52533,175.316)" />
    <g
       id="g62"
       aria-label="+−"
       transform="matrix(-1.3282533,-0.11621333,0.11621333,-1.3282533,53.970667,177.95467)">
      <path
         id="path63"
         d="m 4.0824089,-2.2970119 2.7765615,0.0041 c 0.1411118,-5.828e-4 0.3289204,-0.00525 0.3349048,-0.2057555 -0.00569,-0.1994828 -0.1934985,-0.1948144 -0.3346104,-0.1942316 l -2.7765614,-0.0041 0.00308,-2.7882356 c 4.386e-4,-0.1294377 -0.00525,-0.3289205 -0.2047341,-0.3232307 -0.2005042,-0.00598 -0.1948144,0.1934985 -0.195253,0.3229362 l -0.00308,2.7882356 -2.78721422,0.00859 c -0.14111184,5.828e-4 -0.3299419,-0.00642 -0.32425205,0.1930599 -0.005984,0.2005043 0.18284572,0.20751 0.32395756,0.2069273 l 2.78721421,-0.00859 -0.00206,2.79990986 C 3.6799232,0.6320412 3.6856118,0.83152405 3.8861173,0.8375084 4.0856002,0.8318184 4.0799103,0.6323357 4.080349,0.50289806 Z m 0,0"
         style="fill:#000000;fill-opacity:1;fill-rule:nonzero;stroke:none" />
      <path
         id="path64"
         d="m 20.954832,-2.2910269 c 0.176134,-0.00365 0.352269,-0.00729 0.358253,-0.2077984 -0.0057,-0.1994828 -0.181824,-0.1958358 -0.357959,-0.1921888 l -5.387641,8.4e-4 c -0.165482,-0.00905 -0.341616,-0.0054 -0.335926,0.1940813 -0.006,0.2005043 0.17015,0.1968573 0.335631,0.2059059 z m 0,0"
         style="fill:#000000;fill-opacity:1;fill-rule:nonzero;stroke:none" />
    </g>
    <path
       id="path65"
       d="m -75.06456,-42.40468 c 1.6064,-4.41352 8.87152,-5.82095 16.22731,-3.14364 7.3558,2.6773 12.01648,8.42541 10.41008,12.83894 -1.60641,4.41353 -8.87152,5.82097 -16.22733,3.14365 -7.35578,-2.67731 -12.01647,-8.42542 -10.41006,-12.83895 z"
       style="fill:none;stroke:#000000;stroke-width:0.79701;stroke-linecap:butt;stroke-linejoin:miter;stroke-miterlimit:10;stroke-dasharray:none;stroke-opacity:1"
       transform="matrix(1.3333333,0,0,-1.3333333,202.52533,175.316)" />
    <g
       id="g65"
       aria-label="+−"
       transform="matrix(-1.2529333,0.45604,-0.45604,-1.2529333,132.932,217.22267)">
      <path
         id="path66"
         d="m 4.0764122,-2.2949007 2.7803044,0.00184 c 0.137163,4.14e-5 0.3263898,-0.00591 0.3244478,-0.2061473 -0.00194,-0.2002386 -0.1911688,-0.1942885 -0.3283318,-0.1943299 l -2.7803044,-0.00184 0.00585,-2.7913162 c -0.00397,-0.1261512 -0.00591,-0.3263898 -0.2061473,-0.3244478 -0.2002386,0.00194 -0.1982966,0.2021806 -0.1943299,0.3283317 l -0.00585,2.7913163 -2.79131623,-0.00585 c -0.13716303,-4.13e-5 -0.32638976,0.00591 -0.32444777,0.2061473 0.001942,0.2002386 0.19116872,0.1942886 0.32833175,0.1943299 l 2.79131625,0.00585 0.00516,2.79532435 C 3.6700459,0.6374626 3.6719879,0.8377012 3.8722265,0.83575921 4.0724651,0.83381722 4.0705231,0.63357861 4.0815763,0.50042366 Z m 0,0"
         style="fill:#000000;fill-opacity:1;fill-rule:nonzero;stroke:none" />
      <path
         id="path67"
         d="m 20.951473,-2.3008245 c 0.174207,0.00105 0.348414,0.00211 0.346472,-0.1981311 -0.0019,-0.2002387 -0.176149,-0.2012924 -0.350356,-0.2023461 l -5.39041,0.00839 c -0.163195,0.00295 -0.337401,0.0019 -0.335459,0.2021393 0.0019,0.2002386 0.176148,0.2012923 0.339343,0.1983379 z m 0,0"
         style="fill:#000000;fill-opacity:1;fill-rule:nonzero;stroke:none" />
    </g>
    <path
       id="path68"
       d="m 79.37114,62.36288 c 0,4.69677 -6.34555,8.50412 -14.1734,8.50412 -7.82785,0 -14.1734,-3.80735 -14.1734,-8.50412 0,-4.69676 6.34555,-8.50412 14.1734,-8.50412 7.82785,0 14.1734,3.80736 14.1734,8.50412 z"
       style="fill:none;stroke:#000000;stroke-width:0.79701;stroke-linecap:butt;stroke-linejoin:miter;stroke-miterlimit:10;stroke-dasharray:none;stroke-opacity:1"
       transform="matrix(1.3333333,0,0,-1.3333333,202.52533,175.316)" />
    <g
       id="g68"
       aria-label="+−"
       transform="matrix(1.3333333,0,0,1.3333333,274.69467,95.488)">
      <path
         id="path69"
         d="m 4.0786094,-2.2966641 h 2.7773437 c 0.140625,0 0.328125,0 0.328125,-0.1992187 0,-0.1992188 -0.1875,-0.1992188 -0.328125,-0.1992188 H 4.0786094 v -2.7890625 c 0,-0.1289062 0,-0.328125 -0.1992188,-0.328125 -0.1992187,0 -0.1992187,0.1992188 -0.1992187,0.328125 v 2.7890625 H 0.89110938 c -0.140625,0 -0.328125,0 -0.328125,0.1992188 0,0.1992187 0.1875,0.1992187 0.328125,0.1992187 H 3.6801719 v 2.80078129 c 0,0.12890625 0,0.328125 0.1992187,0.328125 0.1992188,0 0.1992188,-0.19921875 0.1992188,-0.328125 z m 0,0"
         style="fill:#000000;fill-opacity:1;fill-rule:nonzero;stroke:none" />
      <path
         id="path70"
         d="m 20.953609,-2.2966641 c 0.175782,0 0.351563,0 0.351563,-0.1992187 0,-0.1992188 -0.175781,-0.1992188 -0.351563,-0.1992188 h -5.390625 c -0.164062,0 -0.339843,0 -0.339843,0.1992188 0,0.1992187 0.175781,0.1992187 0.339843,0.1992187 z m 0,0"
         style="fill:#000000;fill-opacity:1;fill-rule:nonzero;stroke:none" />
    </g>
    <path
       id="path71"
       d="m 79.20908,-27.21556 c -0.40935,4.67883 -7.06255,7.91862 -14.86052,7.23637 -7.79798,-0.68225 -13.78749,-5.02816 -13.37813,-9.707 0.40936,-4.67883 7.06256,-7.91862 14.86053,-7.23637 7.79798,0.68225 13.78748,5.02816 13.37812,9.707 z"
       style="fill:none;stroke:#000000;stroke-width:0.79701;stroke-linecap:butt;stroke-linejoin:miter;stroke-miterlimit:10;stroke-dasharray:none;stroke-opacity:1"
       transform="matrix(1.3333333,0,0,-1.3333333,202.52533,175.316)" />
    <g
       id="g71"
       aria-label="+−"
       transform="matrix(1.3282533,-0.11621333,0.11621333,1.3282533,274.89733,217.844)">
      <path
         id="path72"
         d="m 4.0831464,-2.2897431 2.7765615,-0.0041 c 0.1411118,5.828e-4 0.3289204,0.00525 0.3229361,-0.1952531 0.00569,-0.1994828 -0.1821188,-0.2041513 -0.3232306,-0.204734 l -2.7765615,0.0041 -0.00308,-2.7882357 c -4.387e-4,-0.1294376 0.00525,-0.3289205 -0.1942317,-0.3346103 -0.2005043,0.00598 -0.2061941,0.2054672 -0.2057555,0.3349048 l 0.00308,2.7882356 -2.78721421,-0.00859 c -0.14111184,-5.828e-4 -0.3299419,0.00642 -0.33563176,0.2059059 0.005984,0.2005042 0.19481442,0.1934985 0.33592626,0.1940812 l 2.78721421,0.00859 0.00206,2.7999098 c 4.386e-4,0.12943764 -0.00525,0.32892049 0.195253,0.32293614 0.1994829,0.00569 0.2051727,-0.193793 0.2047341,-0.32323064 z m 0,0"
         style="fill:#000000;fill-opacity:1;fill-rule:nonzero;stroke:none" />
      <path
         id="path73"
         d="m 20.955569,-2.2957281 c 0.176135,0.00365 0.352269,0.00729 0.346285,-0.1932102 0.0057,-0.1994828 -0.170445,-0.2031299 -0.346579,-0.2067769 l -5.387642,-8.4e-4 c -0.165481,0.00905 -0.341616,0.0054 -0.347305,0.2048844 0.006,0.2005043 0.182118,0.2041513 0.3476,0.1951027 z m 0,0"
         style="fill:#000000;fill-opacity:1;fill-rule:nonzero;stroke:none" />
    </g>
    <path
       id="path74"
       d="m 48.14679,-29.93326 c -0.40936,4.67883 -7.06256,7.91861 -14.86054,7.23636 -7.79797,-0.68225 -13.78747,-5.02815 -13.37811,-9.70698 0.40936,-4.67884 7.06255,-7.91863 14.86052,-7.23638 7.79798,0.68225 13.78749,5.02816 13.37813,9.707 z"
       style="fill:none;stroke:#000000;stroke-width:0.79701;stroke-linecap:butt;stroke-linejoin:miter;stroke-miterlimit:10;stroke-dasharray:none;stroke-opacity:1"
       transform="matrix(1.3333333,0,0,-1.3333333,202.52533,175.316)" />
    <g
       id="g74"
       aria-label="+−"
       transform="matrix(1.3282533,-0.11621333,0.11621333,1.3282533,233.48133,221.468)">
      <path
         id="path75"
         d="m 4.0816101,-2.2891247 2.7765614,-0.0041 c 0.1411119,5.828e-4 0.3289205,0.00525 0.3229362,-0.195253 0.00569,-0.1994829 -0.1821188,-0.2041513 -0.3232307,-0.2047341 l -2.7765614,0.0041 -0.00308,-2.7882356 c -4.386e-4,-0.1294377 0.00525,-0.3289205 -0.1942316,-0.3346104 -0.2005043,0.00598 -0.2061941,0.2054672 -0.2057555,0.3349049 l 0.00308,2.7882356 -2.78721423,-0.00859 c -0.14111184,-5.828e-4 -0.3299419,0.00642 -0.33563176,0.2059058 0.005984,0.2005043 0.19481442,0.1934985 0.33592626,0.1940813 l 2.78721423,0.00859 0.00206,2.79990985 c 4.387e-4,0.12943764 -0.00525,0.32892049 0.1952531,0.32293614 0.1994828,0.00569 0.2051727,-0.193793 0.2047341,-0.32323063 z m 0,0"
         style="fill:#000000;fill-opacity:1;fill-rule:nonzero;stroke:none" />
      <path
         id="path76"
         d="m 20.954033,-2.2951096 c 0.176134,0.00365 0.352269,0.00729 0.346284,-0.1932102 0.0057,-0.1994829 -0.170444,-0.2031299 -0.346579,-0.2067769 l -5.387641,-8.4e-4 c -0.165481,0.00905 -0.341616,0.0054 -0.347306,0.2048844 0.006,0.2005042 0.182119,0.2041513 0.347601,0.1951027 z m 0,0"
         style="fill:#000000;fill-opacity:1;fill-rule:nonzero;stroke:none" />
    </g>
    <path
       id="path77"
       d="M 141.73404,79.37114 V -79.37114 H 368.50851 V 79.37114 Z"
       style="fill:#f2f2f2;fill-opacity:1;fill-rule:nonzero;stroke:#000000;stroke-width:0.3985;stroke-linecap:butt;stroke-linejoin:miter;stroke-miterlimit:10;stroke-dasharray:none;stroke-opacity:1"
       transform="matrix(1.3333333,0,0,-1.3333333,202.52533,175.316)" />
    <path
       id="path78"
       d="m 354.33511,-56.69362 c 0,4.69676 -6.34555,8.50414 -14.1734,8.50414 -7.82785,0 -14.1734,-3.80738 -14.1734,-8.50414 0,-4.69675 6.34555,-8.50412 14.1734,-8.50412 7.82785,0 14.1734,3.80737 14.1734,8.50412 z"
       style="fill:none;stroke:#000000;stroke-width:0.79701;stroke-linecap:butt;stroke-linejoin:miter;stroke-miterlimit:10;stroke-dasharray:none;stroke-opacity:1"
       transform="matrix(1.3333333,0,0,-1.3333333,202.52533,175.316)" />
    <g
       id="g78"
       aria-label="−+"
       transform="matrix(1.3333333,0,0,1.3333333,641.30933,254.22667)">
      <path
         id="path79"
         d="m 6.5619453,-2.2969531 c 0.1757813,0 0.3515625,0 0.3515625,-0.1992188 0,-0.1992187 -0.1757812,-0.1992187 -0.3515625,-0.1992187 h -5.390625 c -0.1640625,0 -0.33984374,0 -0.33984374,0.1992187 0,0.1992188 0.17578124,0.1992188 0.33984374,0.1992188 z m 0,0"
         style="fill:#000000;fill-opacity:1;fill-rule:nonzero;stroke:none" />
      <path
         id="path80"
         d="m 18.468195,-2.2969531 h 2.777344 c 0.140625,0 0.328125,0 0.328125,-0.1992188 0,-0.1992187 -0.1875,-0.1992187 -0.328125,-0.1992187 h -2.777344 v -2.7890625 c 0,-0.1289063 0,-0.328125 -0.199218,-0.328125 -0.199219,0 -0.199219,0.1992187 -0.199219,0.328125 v 2.7890625 h -2.789063 c -0.140625,0 -0.328125,0 -0.328125,0.1992187 0,0.1992188 0.1875,0.1992188 0.328125,0.1992188 h 2.789063 v 2.80078123 c 0,0.12890625 0,0.328125 0.199219,0.328125 0.199218,0 0.199218,-0.19921875 0.199218,-0.328125 z m 0,0"
         style="fill:#000000;fill-opacity:1;fill-rule:nonzero;stroke:none" />
    </g>
    <path
       id="path81"
       d="m 354.33511,-28.3468 c 0,4.69676 -6.34555,8.50412 -14.1734,8.50412 -7.82785,0 -14.1734,-3.80736 -14.1734,-8.50412 0,-4.69676 6.34555,-8.50412 14.1734,-8.50412 7.82785,0 14.1734,3.80736 14.1734,8.50412 z"
       style="fill:none;stroke:#000000;stroke-width:0.79701;stroke-linecap:butt;stroke-linejoin:miter;stroke-miterlimit:10;stroke-dasharray:none;stroke-opacity:1"
       transform="matrix(1.3333333,0,0,-1.3333333,202.52533,175.316)" />
    <g
       id="g81"
       aria-label="−+"
       transform="matrix(1.3333333,0,0,1.3333333,641.30933,216.432)">
      <path
         id="path82"
         d="m 6.5619453,-2.2956797 c 0.1757813,0 0.3515625,0 0.3515625,-0.1992187 0,-0.1992188 -0.1757812,-0.1992188 -0.3515625,-0.1992188 h -5.390625 c -0.1640625,0 -0.33984374,0 -0.33984374,0.1992188 0,0.1992187 0.17578124,0.1992187 0.33984374,0.1992187 z m 0,0"
         style="fill:#000000;fill-opacity:1;fill-rule:nonzero;stroke:none" />
      <path
         id="path83"
         d="m 18.468195,-2.2956797 h 2.777344 c 0.140625,0 0.328125,0 0.328125,-0.1992187 0,-0.1992188 -0.1875,-0.1992188 -0.328125,-0.1992188 h -2.777344 v -2.7890625 c 0,-0.1289062 0,-0.328125 -0.199218,-0.328125 -0.199219,0 -0.199219,0.1992188 -0.199219,0.328125 v 2.7890625 h -2.789063 c -0.140625,0 -0.328125,0 -0.328125,0.1992188 0,0.1992187 0.1875,0.1992187 0.328125,0.1992187 h 2.789063 v 2.80078126 c 0,0.12890625 0,0.328125 0.199219,0.328125 0.199218,0 0.199218,-0.19921875 0.199218,-0.328125 z m 0,0"
         style="fill:#000000;fill-opacity:1;fill-rule:nonzero;stroke:none" />
    </g>
    <path
       id="path84"
       d="m 354.33511,0 c 0,4.69675 -6.34555,8.50412 -14.1734,8.50412 -7.82785,0 -14.1734,-3.80737 -14.1734,-8.50412 0,-4.69675 6.34555,-8.50412 14.1734,-8.50412 7.82785,0 14.1734,3.80737 14.1734,8.50412 z"
       style="fill:none;stroke:#000000;stroke-width:0.79701;stroke-linecap:butt;stroke-linejoin:miter;stroke-miterlimit:10;stroke-dasharray:none;stroke-opacity:1"
       transform="matrix(1.3333333,0,0,-1.3333333,202.52533,175.316)" />
    <g
       id="g84"
       aria-label="−+"
       transform="matrix(1.3333333,0,0,1.3333333,641.30933,178.63733)">
      <path
         id="path85"
         d="m 6.5619453,-2.2973359 c 0.1757813,0 0.3515625,0 0.3515625,-0.1992188 0,-0.1992187 -0.1757812,-0.1992187 -0.3515625,-0.1992187 h -5.390625 c -0.1640625,0 -0.33984374,0 -0.33984374,0.1992187 0,0.1992188 0.17578124,0.1992188 0.33984374,0.1992188 z m 0,0"
         style="fill:#000000;fill-opacity:1;fill-rule:nonzero;stroke:none" />
      <path
         id="path86"
         d="m 18.468195,-2.2973359 h 2.777344 c 0.140625,0 0.328125,0 0.328125,-0.1992188 0,-0.1992187 -0.1875,-0.1992187 -0.328125,-0.1992187 h -2.777344 v -2.7890625 c 0,-0.1289063 0,-0.328125 -0.199218,-0.328125 -0.199219,0 -0.199219,0.1992187 -0.199219,0.328125 v 2.7890625 h -2.789063 c -0.140625,0 -0.328125,0 -0.328125,0.1992187 0,0.1992188 0.1875,0.1992188 0.328125,0.1992188 h 2.789063 v 2.80078121 c 0,0.12890625 0,0.328125 0.199219,0.328125 0.199218,0 0.199218,-0.19921875 0.199218,-0.328125 z m 0,0"
         style="fill:#000000;fill-opacity:1;fill-rule:nonzero;stroke:none" />
    </g>
    <path
       id="path87"
       d="m 354.33511,28.3468 c 0,4.69676 -6.34555,8.50412 -14.1734,8.50412 -7.82785,0 -14.1734,-3.80736 -14.1734,-8.50412 0,-4.69676 6.34555,-8.50412 14.1734,-8.50412 7.82785,0 14.1734,3.80736 14.1734,8.50412 z"
       style="fill:none;stroke:#000000;stroke-width:0.79701;stroke-linecap:butt;stroke-linejoin:miter;stroke-miterlimit:10;stroke-dasharray:none;stroke-opacity:1"
       transform="matrix(1.3333333,0,0,-1.3333333,202.52533,175.316)" />
    <g
       id="g87"
       aria-label="−+"
       transform="matrix(1.3333333,0,0,1.3333333,641.30933,140.84133)">
      <path
         id="path88"
         d="m 6.5619453,-2.2979922 c 0.1757813,0 0.3515625,0 0.3515625,-0.1992187 0,-0.1992188 -0.1757812,-0.1992188 -0.3515625,-0.1992188 h -5.390625 c -0.1640625,0 -0.33984374,0 -0.33984374,0.1992188 0,0.1992187 0.17578124,0.1992187 0.33984374,0.1992187 z m 0,0"
         style="fill:#000000;fill-opacity:1;fill-rule:nonzero;stroke:none" />
      <path
         id="path89"
         d="m 18.468195,-2.2979922 h 2.777344 c 0.140625,0 0.328125,0 0.328125,-0.1992187 0,-0.1992188 -0.1875,-0.1992188 -0.328125,-0.1992188 h -2.777344 v -2.7890625 c 0,-0.1289062 0,-0.328125 -0.199218,-0.328125 -0.199219,0 -0.199219,0.1992188 -0.199219,0.328125 v 2.7890625 h -2.789063 c -0.140625,0 -0.328125,0 -0.328125,0.1992188 0,0.1992187 0.1875,0.1992187 0.328125,0.1992187 h 2.789063 v 2.80078126 c 0,0.12890625 0,0.328125 0.199219,0.328125 0.199218,0 0.199218,-0.19921875 0.199218,-0.328125 z m 0,0"
         style="fill:#000000;fill-opacity:1;fill-rule:nonzero;stroke:none" />
    </g>
    <path
       id="path90"
       d="m 354.33511,56.69362 c 0,4.69675 -6.34555,8.50412 -14.1734,8.50412 -7.82785,0 -14.1734,-3.80737 -14.1734,-8.50412 0,-4.69676 6.34555,-8.50414 14.1734,-8.50414 7.82785,0 14.1734,3.80738 14.1734,8.50414 z"
       style="fill:none;stroke:#000000;stroke-width:0.79701;stroke-linecap:butt;stroke-linejoin:miter;stroke-miterlimit:10;stroke-dasharray:none;stroke-opacity:1"
       transform="matrix(1.3333333,0,0,-1.3333333,202.52533,175.316)" />
    <g
       id="g90"
       aria-label="−+"
       transform="matrix(1.3333333,0,0,1.3333333,641.30933,103.04667)">
      <path
         id="path91"
         d="m 6.5619453,-2.2967187 c 0.1757813,0 0.3515625,0 0.3515625,-0.1992188 0,-0.1992187 -0.1757812,-0.1992187 -0.3515625,-0.1992187 h -5.390625 c -0.1640625,0 -0.33984374,0 -0.33984374,0.1992187 0,0.1992188 0.17578124,0.1992188 0.33984374,0.1992188 z m 0,0"
         style="fill:#000000;fill-opacity:1;fill-rule:nonzero;stroke:none" />
      <path
         id="path92"
         d="m 18.468195,-2.2967187 h 2.777344 c 0.140625,0 0.328125,0 0.328125,-0.1992188 0,-0.1992187 -0.1875,-0.1992187 -0.328125,-0.1992187 h -2.777344 v -2.7890625 c 0,-0.1289063 0,-0.328125 -0.199218,-0.328125 -0.199219,0 -0.199219,0.1992187 -0.199219,0.328125 v 2.7890625 h -2.789063 c -0.140625,0 -0.328125,0 -0.328125,0.1992187 0,0.1992188 0.1875,0.1992188 0.328125,0.1992188 h 2.789063 v 2.8007812 c 0,0.12890625 0,0.328125 0.199219,0.328125 0.199218,0 0.199218,-0.19921875 0.199218,-0.328125 z m 0,0"
         style="fill:#000000;fill-opacity:1;fill-rule:nonzero;stroke:none" />
    </g>
    <path
       id="path93"
       d="m 311.81488,-56.69362 c 0,4.69676 -6.34555,8.50414 -14.17338,8.50414 -7.82786,0 -14.1734,-3.80738 -14.1734,-8.50414 0,-4.69675 6.34554,-8.50412 14.1734,-8.50412 7.82783,0 14.17338,3.80737 14.17338,8.50412 z"
       style="fill:none;stroke:#000000;stroke-width:0.79701;stroke-linecap:butt;stroke-linejoin:miter;stroke-miterlimit:10;stroke-dasharray:none;stroke-opacity:1"
       transform="matrix(1.3333333,0,0,-1.3333333,202.52533,175.316)" />
    <g
       id="g93"
       aria-label="−+"
       transform="matrix(1.3333333,0,0,1.3333333,584.616,254.22667)">
      <path
         id="path94"
         d="m 6.5633906,-2.2969531 c 0.1757813,0 0.3515625,0 0.3515625,-0.1992188 0,-0.1992187 -0.1757812,-0.1992187 -0.3515625,-0.1992187 h -5.390625 c -0.1640625,0 -0.33984372,0 -0.33984372,0.1992187 0,0.1992188 0.17578122,0.1992188 0.33984372,0.1992188 z m 0,0"
         style="fill:#000000;fill-opacity:1;fill-rule:nonzero;stroke:none" />
      <path
         id="path95"
         d="m 18.469641,-2.2969531 h 2.777343 c 0.140625,0 0.328125,0 0.328125,-0.1992188 0,-0.1992187 -0.1875,-0.1992187 -0.328125,-0.1992187 h -2.777343 v -2.7890625 c 0,-0.1289063 0,-0.328125 -0.199219,-0.328125 -0.199219,0 -0.199219,0.1992187 -0.199219,0.328125 v 2.7890625 h -2.789062 c -0.140625,0 -0.328125,0 -0.328125,0.1992187 0,0.1992188 0.1875,0.1992188 0.328125,0.1992188 h 2.789062 v 2.80078123 c 0,0.12890625 0,0.328125 0.199219,0.328125 0.199219,0 0.199219,-0.19921875 0.199219,-0.328125 z m 0,0"
         style="fill:#000000;fill-opacity:1;fill-rule:nonzero;stroke:none" />
    </g>
    <path
       id="path96"
       d="m 311.81488,-28.3468 c 0,4.69676 -6.34555,8.50412 -14.17338,8.50412 -7.82786,0 -14.1734,-3.80736 -14.1734,-8.50412 0,-4.69676 6.34554,-8.50412 14.1734,-8.50412 7.82783,0 14.17338,3.80736 14.17338,8.50412 z"
       style="fill:none;stroke:#000000;stroke-width:0.79701;stroke-linecap:butt;stroke-linejoin:miter;stroke-miterlimit:10;stroke-dasharray:none;stroke-opacity:1"
       transform="matrix(1.3333333,0,0,-1.3333333,202.52533,175.316)" />
    <g
       id="g96"
       aria-label="−+"
       transform="matrix(1.3333333,0,0,1.3333333,584.616,216.432)">
      <path
         id="path97"
         d="m 6.5633906,-2.2956797 c 0.1757813,0 0.3515625,0 0.3515625,-0.1992187 0,-0.1992188 -0.1757812,-0.1992188 -0.3515625,-0.1992188 h -5.390625 c -0.1640625,0 -0.33984372,0 -0.33984372,0.1992188 0,0.1992187 0.17578122,0.1992187 0.33984372,0.1992187 z m 0,0"
         style="fill:#000000;fill-opacity:1;fill-rule:nonzero;stroke:none" />
      <path
         id="path98"
         d="m 18.469641,-2.2956797 h 2.777343 c 0.140625,0 0.328125,0 0.328125,-0.1992187 0,-0.1992188 -0.1875,-0.1992188 -0.328125,-0.1992188 h -2.777343 v -2.7890625 c 0,-0.1289062 0,-0.328125 -0.199219,-0.328125 -0.199219,0 -0.199219,0.1992188 -0.199219,0.328125 v 2.7890625 h -2.789062 c -0.140625,0 -0.328125,0 -0.328125,0.1992188 0,0.1992187 0.1875,0.1992187 0.328125,0.1992187 h 2.789062 v 2.80078126 c 0,0.12890625 0,0.328125 0.199219,0.328125 0.199219,0 0.199219,-0.19921875 0.199219,-0.328125 z m 0,0"
         style="fill:#000000;fill-opacity:1;fill-rule:nonzero;stroke:none" />
    </g>
    <path
       id="path99"
       d="m 311.81488,0 c 0,4.69675 -6.34555,8.50412 -14.17338,8.50412 -7.82786,0 -14.1734,-3.80737 -14.1734,-8.50412 0,-4.69675 6.34554,-8.50412 14.1734,-8.50412 7.82783,0 14.17338,3.80737 14.17338,8.50412 z"
       style="fill:none;stroke:#000000;stroke-width:0.79701;stroke-linecap:butt;stroke-linejoin:miter;stroke-miterlimit:10;stroke-dasharray:none;stroke-opacity:1"
       transform="matrix(1.3333333,0,0,-1.3333333,202.52533,175.316)" />
    <g
       id="g99"
       aria-label="−+"
       transform="matrix(1.3333333,0,0,1.3333333,584.616,178.63733)">
      <path
         id="path100"
         d="m 6.5633906,-2.2973359 c 0.1757813,0 0.3515625,0 0.3515625,-0.1992188 0,-0.1992187 -0.1757812,-0.1992187 -0.3515625,-0.1992187 h -5.390625 c -0.1640625,0 -0.33984372,0 -0.33984372,0.1992187 0,0.1992188 0.17578122,0.1992188 0.33984372,0.1992188 z m 0,0"
         style="fill:#000000;fill-opacity:1;fill-rule:nonzero;stroke:none" />
      <path
         id="path101"
         d="m 18.469641,-2.2973359 h 2.777343 c 0.140625,0 0.328125,0 0.328125,-0.1992188 0,-0.1992187 -0.1875,-0.1992187 -0.328125,-0.1992187 h -2.777343 v -2.7890625 c 0,-0.1289063 0,-0.328125 -0.199219,-0.328125 -0.199219,0 -0.199219,0.1992187 -0.199219,0.328125 v 2.7890625 h -2.789062 c -0.140625,0 -0.328125,0 -0.328125,0.1992187 0,0.1992188 0.1875,0.1992188 0.328125,0.1992188 h 2.789062 v 2.80078121 c 0,0.12890625 0,0.328125 0.199219,0.328125 0.199219,0 0.199219,-0.19921875 0.199219,-0.328125 z m 0,0"
         style="fill:#000000;fill-opacity:1;fill-rule:nonzero;stroke:none" />
    </g>
    <path
       id="path102"
       d="m 311.81488,28.3468 c 0,4.69676 -6.34555,8.50412 -14.17338,8.50412 -7.82786,0 -14.1734,-3.80736 -14.1734,-8.50412 0,-4.69676 6.34554,-8.50412 14.1734,-8.50412 7.82783,0 14.17338,3.80736 14.17338,8.50412 z"
       style="fill:none;stroke:#000000;stroke-width:0.79701;stroke-linecap:butt;stroke-linejoin:miter;stroke-miterlimit:10;stroke-dasharray:none;stroke-opacity:1"
       transform="matrix(1.3333333,0,0,-1.3333333,202.52533,175.316)" />
    <g
       id="g102"
       aria-label="−+"
       transform="matrix(1.3333333,0,0,1.3333333,584.616,140.84133)">
      <path
         id="path103"
         d="m 6.5633906,-2.2979922 c 0.1757813,0 0.3515625,0 0.3515625,-0.1992187 0,-0.1992188 -0.1757812,-0.1992188 -0.3515625,-0.1992188 h -5.390625 c -0.1640625,0 -0.33984372,0 -0.33984372,0.1992188 0,0.1992187 0.17578122,0.1992187 0.33984372,0.1992187 z m 0,0"
         style="fill:#000000;fill-opacity:1;fill-rule:nonzero;stroke:none" />
      <path
         id="path104"
         d="m 18.469641,-2.2979922 h 2.777343 c 0.140625,0 0.328125,0 0.328125,-0.1992187 0,-0.1992188 -0.1875,-0.1992188 -0.328125,-0.1992188 h -2.777343 v -2.7890625 c 0,-0.1289062 0,-0.328125 -0.199219,-0.328125 -0.199219,0 -0.199219,0.1992188 -0.199219,0.328125 v 2.7890625 h -2.789062 c -0.140625,0 -0.328125,0 -0.328125,0.1992188 0,0.1992187 0.1875,0.1992187 0.328125,0.1992187 h 2.789062 v 2.80078126 c 0,0.12890625 0,0.328125 0.199219,0.328125 0.199219,0 0.199219,-0.19921875 0.199219,-0.328125 z m 0,0"
         style="fill:#000000;fill-opacity:1;fill-rule:nonzero;stroke:none" />
    </g>
    <path
       id="path105"
       d="m 311.81488,56.69362 c 0,4.69675 -6.34555,8.50412 -14.17338,8.50412 -7.82786,0 -14.1734,-3.80737 -14.1734,-8.50412 0,-4.69676 6.34554,-8.50414 14.1734,-8.50414 7.82783,0 14.17338,3.80738 14.17338,8.50414 z"
       style="fill:none;stroke:#000000;stroke-width:0.79701;stroke-linecap:butt;stroke-linejoin:miter;stroke-miterlimit:10;stroke-dasharray:none;stroke-opacity:1"
       transform="matrix(1.3333333,0,0,-1.3333333,202.52533,175.316)" />
    <g
       id="g105"
       aria-label="−+"
       transform="matrix(1.3333333,0,0,1.3333333,584.616,103.04667)">
      <path
         id="path106"
         d="m 6.5633906,-2.2967187 c 0.1757813,0 0.3515625,0 0.3515625,-0.1992188 0,-0.1992187 -0.1757812,-0.1992187 -0.3515625,-0.1992187 h -5.390625 c -0.1640625,0 -0.33984372,0 -0.33984372,0.1992187 0,0.1992188 0.17578122,0.1992188 0.33984372,0.1992188 z m 0,0"
         style="fill:#000000;fill-opacity:1;fill-rule:nonzero;stroke:none" />
      <path
         id="path107"
         d="m 18.469641,-2.2967187 h 2.777343 c 0.140625,0 0.328125,0 0.328125,-0.1992188 0,-0.1992187 -0.1875,-0.1992187 -0.328125,-0.1992187 h -2.777343 v -2.7890625 c 0,-0.1289063 0,-0.328125 -0.199219,-0.328125 -0.199219,0 -0.199219,0.1992187 -0.199219,0.328125 v 2.7890625 h -2.789062 c -0.140625,0 -0.328125,0 -0.328125,0.1992187 0,0.1992188 0.1875,0.1992188 0.328125,0.1992188 h 2.789062 v 2.8007812 c 0,0.12890625 0,0.328125 0.199219,0.328125 0.199219,0 0.199219,-0.19921875 0.199219,-0.328125 z m 0,0"
         style="fill:#000000;fill-opacity:1;fill-rule:nonzero;stroke:none" />
    </g>
    <path
       id="path108"
       d="m 269.29468,-56.69362 c 0,4.69676 -6.34555,8.50414 -14.1734,8.50414 -7.82785,0 -14.17339,-3.80738 -14.17339,-8.50414 0,-4.69675 6.34554,-8.50412 14.17339,-8.50412 7.82785,0 14.1734,3.80737 14.1734,8.50412 z"
       style="fill:none;stroke:#000000;stroke-width:0.79701;stroke-linecap:butt;stroke-linejoin:miter;stroke-miterlimit:10;stroke-dasharray:none;stroke-opacity:1"
       transform="matrix(1.3333333,0,0,-1.3333333,202.52533,175.316)" />
    <g
       id="g108"
       aria-label="−+"
       transform="matrix(1.3333333,0,0,1.3333333,527.92267,254.22667)">
      <path
         id="path109"
         d="m 6.5619063,-2.2969531 c 0.1757812,0 0.3515625,0 0.3515625,-0.1992188 0,-0.1992187 -0.1757813,-0.1992187 -0.3515625,-0.1992187 h -5.390625 c -0.1640625,0 -0.3398438,0 -0.3398438,0.1992187 0,0.1992188 0.1757813,0.1992188 0.3398438,0.1992188 z m 0,0"
         style="fill:#000000;fill-opacity:1;fill-rule:nonzero;stroke:none" />
      <path
         id="path110"
         d="M 18.468156,-2.2969531 H 21.2455 c 0.140625,0 0.328125,0 0.328125,-0.1992188 0,-0.1992187 -0.1875,-0.1992187 -0.328125,-0.1992187 h -2.777344 v -2.7890625 c 0,-0.1289063 0,-0.328125 -0.199218,-0.328125 -0.199219,0 -0.199219,0.1992187 -0.199219,0.328125 v 2.7890625 h -2.789063 c -0.140625,0 -0.328125,0 -0.328125,0.1992187 0,0.1992188 0.1875,0.1992188 0.328125,0.1992188 h 2.789063 v 2.80078123 c 0,0.12890625 0,0.328125 0.199219,0.328125 0.199218,0 0.199218,-0.19921875 0.199218,-0.328125 z m 0,0"
         style="fill:#000000;fill-opacity:1;fill-rule:nonzero;stroke:none" />
    </g>
    <path
       id="path111"
       d="m 269.29468,-28.3468 c 0,4.69676 -6.34555,8.50412 -14.1734,8.50412 -7.82785,0 -14.17339,-3.80736 -14.17339,-8.50412 0,-4.69676 6.34554,-8.50412 14.17339,-8.50412 7.82785,0 14.1734,3.80736 14.1734,8.50412 z"
       style="fill:none;stroke:#000000;stroke-width:0.79701;stroke-linecap:butt;stroke-linejoin:miter;stroke-miterlimit:10;stroke-dasharray:none;stroke-opacity:1"
       transform="matrix(1.3333333,0,0,-1.3333333,202.52533,175.316)" />
    <g
       id="g111"
       aria-label="−+"
       transform="matrix(1.3333333,0,0,1.3333333,527.92267,216.432)">
      <path
         id="path112"
         d="m 6.5619063,-2.2956797 c 0.1757812,0 0.3515625,0 0.3515625,-0.1992187 0,-0.1992188 -0.1757813,-0.1992188 -0.3515625,-0.1992188 h -5.390625 c -0.1640625,0 -0.3398438,0 -0.3398438,0.1992188 0,0.1992187 0.1757813,0.1992187 0.3398438,0.1992187 z m 0,0"
         style="fill:#000000;fill-opacity:1;fill-rule:nonzero;stroke:none" />
      <path
         id="path113"
         d="M 18.468156,-2.2956797 H 21.2455 c 0.140625,0 0.328125,0 0.328125,-0.1992187 0,-0.1992188 -0.1875,-0.1992188 -0.328125,-0.1992188 h -2.777344 v -2.7890625 c 0,-0.1289062 0,-0.328125 -0.199218,-0.328125 -0.199219,0 -0.199219,0.1992188 -0.199219,0.328125 v 2.7890625 h -2.789063 c -0.140625,0 -0.328125,0 -0.328125,0.1992188 0,0.1992187 0.1875,0.1992187 0.328125,0.1992187 h 2.789063 v 2.80078126 c 0,0.12890625 0,0.328125 0.199219,0.328125 0.199218,0 0.199218,-0.19921875 0.199218,-0.328125 z m 0,0"
         style="fill:#000000;fill-opacity:1;fill-rule:nonzero;stroke:none" />
    </g>
    <path
       id="path114"
       d="m 269.29468,0 c 0,4.69675 -6.34555,8.50412 -14.1734,8.50412 -7.82785,0 -14.17339,-3.80737 -14.17339,-8.50412 0,-4.69675 6.34554,-8.50412 14.17339,-8.50412 7.82785,0 14.1734,3.80737 14.1734,8.50412 z"
       style="fill:none;stroke:#000000;stroke-width:0.79701;stroke-linecap:butt;stroke-linejoin:miter;stroke-miterlimit:10;stroke-dasharray:none;stroke-opacity:1"
       transform="matrix(1.3333333,0,0,-1.3333333,202.52533,175.316)" />
    <g
       id="g114"
       aria-label="−+"
       transform="matrix(1.3333333,0,0,1.3333333,527.92267,178.63733)">
      <path
         id="path115"
         d="m 6.5619063,-2.2973359 c 0.1757812,0 0.3515625,0 0.3515625,-0.1992188 0,-0.1992187 -0.1757813,-0.1992187 -0.3515625,-0.1992187 h -5.390625 c -0.1640625,0 -0.3398438,0 -0.3398438,0.1992187 0,0.1992188 0.1757813,0.1992188 0.3398438,0.1992188 z m 0,0"
         style="fill:#000000;fill-opacity:1;fill-rule:nonzero;stroke:none" />
      <path
         id="path116"
         d="M 18.468156,-2.2973359 H 21.2455 c 0.140625,0 0.328125,0 0.328125,-0.1992188 0,-0.1992187 -0.1875,-0.1992187 -0.328125,-0.1992187 h -2.777344 v -2.7890625 c 0,-0.1289063 0,-0.328125 -0.199218,-0.328125 -0.199219,0 -0.199219,0.1992187 -0.199219,0.328125 v 2.7890625 h -2.789063 c -0.140625,0 -0.328125,0 -0.328125,0.1992187 0,0.1992188 0.1875,0.1992188 0.328125,0.1992188 h 2.789063 v 2.80078121 c 0,0.12890625 0,0.328125 0.199219,0.328125 0.199218,0 0.199218,-0.19921875 0.199218,-0.328125 z m 0,0"
         style="fill:#000000;fill-opacity:1;fill-rule:nonzero;stroke:none" />
    </g>
    <path
       id="path117"
       d="m 269.29468,28.3468 c 0,4.69676 -6.34555,8.50412 -14.1734,8.50412 -7.82785,0 -14.17339,-3.80736 -14.17339,-8.50412 0,-4.69676 6.34554,-8.50412 14.17339,-8.50412 7.82785,0 14.1734,3.80736 14.1734,8.50412 z"
       style="fill:none;stroke:#000000;stroke-width:0.79701;stroke-linecap:butt;stroke-linejoin:miter;stroke-miterlimit:10;stroke-dasharray:none;stroke-opacity:1"
       transform="matrix(1.3333333,0,0,-1.3333333,202.52533,175.316)" />
    <g
       id="g117"
       aria-label="−+"
       transform="matrix(1.3333333,0,0,1.3333333,527.92267,140.84133)">
      <path
         id="path118"
         d="m 6.5619063,-2.2979922 c 0.1757812,0 0.3515625,0 0.3515625,-0.1992187 0,-0.1992188 -0.1757813,-0.1992188 -0.3515625,-0.1992188 h -5.390625 c -0.1640625,0 -0.3398438,0 -0.3398438,0.1992188 0,0.1992187 0.1757813,0.1992187 0.3398438,0.1992187 z m 0,0"
         style="fill:#000000;fill-opacity:1;fill-rule:nonzero;stroke:none" />
      <path
         id="path119"
         d="M 18.468156,-2.2979922 H 21.2455 c 0.140625,0 0.328125,0 0.328125,-0.1992187 0,-0.1992188 -0.1875,-0.1992188 -0.328125,-0.1992188 h -2.777344 v -2.7890625 c 0,-0.1289062 0,-0.328125 -0.199218,-0.328125 -0.199219,0 -0.199219,0.1992188 -0.199219,0.328125 v 2.7890625 h -2.789063 c -0.140625,0 -0.328125,0 -0.328125,0.1992188 0,0.1992187 0.1875,0.1992187 0.328125,0.1992187 h 2.789063 v 2.80078126 c 0,0.12890625 0,0.328125 0.199219,0.328125 0.199218,0 0.199218,-0.19921875 0.199218,-0.328125 z m 0,0"
         style="fill:#000000;fill-opacity:1;fill-rule:nonzero;stroke:none" />
    </g>
    <path
       id="path120"
       d="m 269.29468,56.69362 c 0,4.69675 -6.34555,8.50412 -14.1734,8.50412 -7.82785,0 -14.17339,-3.80737 -14.17339,-8.50412 0,-4.69676 6.34554,-8.50414 14.17339,-8.50414 7.82785,0 14.1734,3.80738 14.1734,8.50414 z"
       style="fill:none;stroke:#000000;stroke-width:0.79701;stroke-linecap:butt;stroke-linejoin:miter;stroke-miterlimit:10;stroke-dasharray:none;stroke-opacity:1"
       transform="matrix(1.3333333,0,0,-1.3333333,202.52533,175.316)" />
    <g
       id="g120"
       aria-label="−+"
       transform="matrix(1.3333333,0,0,1.3333333,527.92267,103.04667)">
      <path
         id="path121"
         d="m 6.5619063,-2.2967187 c 0.1757812,0 0.3515625,0 0.3515625,-0.1992188 0,-0.1992187 -0.1757813,-0.1992187 -0.3515625,-0.1992187 h -5.390625 c -0.1640625,0 -0.3398438,0 -0.3398438,0.1992187 0,0.1992188 0.1757813,0.1992188 0.3398438,0.1992188 z m 0,0"
         style="fill:#000000;fill-opacity:1;fill-rule:nonzero;stroke:none" />
      <path
         id="path122"
         d="M 18.468156,-2.2967187 H 21.2455 c 0.140625,0 0.328125,0 0.328125,-0.1992188 0,-0.1992187 -0.1875,-0.1992187 -0.328125,-0.1992187 h -2.777344 v -2.7890625 c 0,-0.1289063 0,-0.328125 -0.199218,-0.328125 -0.199219,0 -0.199219,0.1992187 -0.199219,0.328125 v 2.7890625 h -2.789063 c -0.140625,0 -0.328125,0 -0.328125,0.1992187 0,0.1992188 0.1875,0.1992188 0.328125,0.1992188 h 2.789063 v 2.8007812 c 0,0.12890625 0,0.328125 0.199219,0.328125 0.199218,0 0.199218,-0.19921875 0.199218,-0.328125 z m 0,0"
         style="fill:#000000;fill-opacity:1;fill-rule:nonzero;stroke:none" />
    </g>
    <path
       id="path123"
       d="m 226.77446,-56.69362 c 0,4.69676 -6.34555,8.50414 -14.1734,8.50414 -7.82785,0 -14.1734,-3.80738 -14.1734,-8.50414 0,-4.69675 6.34555,-8.50412 14.1734,-8.50412 7.82785,0 14.1734,3.80737 14.1734,8.50412 z"
       style="fill:none;stroke:#000000;stroke-width:0.79701;stroke-linecap:butt;stroke-linejoin:miter;stroke-miterlimit:10;stroke-dasharray:none;stroke-opacity:1"
       transform="matrix(1.3333333,0,0,-1.3333333,202.52533,175.316)" />
    <g
       id="g123"
       aria-label="−+"
       transform="matrix(1.3333333,0,0,1.3333333,471.23067,254.22667)">
      <path
         id="path124"
         d="m 6.5623516,-2.2969531 c 0.1757812,0 0.3515625,0 0.3515625,-0.1992188 0,-0.1992187 -0.1757813,-0.1992187 -0.3515625,-0.1992187 h -5.390625 c -0.1640625,0 -0.33984379,0 -0.33984379,0.1992187 0,0.1992188 0.17578129,0.1992188 0.33984379,0.1992188 z m 0,0"
         style="fill:#000000;fill-opacity:1;fill-rule:nonzero;stroke:none" />
      <path
         id="path125"
         d="m 18.468602,-2.2969531 h 2.777343 c 0.140625,0 0.328125,0 0.328125,-0.1992188 0,-0.1992187 -0.1875,-0.1992187 -0.328125,-0.1992187 h -2.777343 v -2.7890625 c 0,-0.1289063 0,-0.328125 -0.199219,-0.328125 -0.199219,0 -0.199219,0.1992187 -0.199219,0.328125 v 2.7890625 h -2.789062 c -0.140625,0 -0.328125,0 -0.328125,0.1992187 0,0.1992188 0.1875,0.1992188 0.328125,0.1992188 h 2.789062 v 2.80078123 c 0,0.12890625 0,0.328125 0.199219,0.328125 0.199219,0 0.199219,-0.19921875 0.199219,-0.328125 z m 0,0"
         style="fill:#000000;fill-opacity:1;fill-rule:nonzero;stroke:none" />
    </g>
    <path
       id="path126"
       d="m 226.77446,-28.3468 c 0,4.69676 -6.34555,8.50412 -14.1734,8.50412 -7.82785,0 -14.1734,-3.80736 -14.1734,-8.50412 0,-4.69676 6.34555,-8.50412 14.1734,-8.50412 7.82785,0 14.1734,3.80736 14.1734,8.50412 z"
       style="fill:none;stroke:#000000;stroke-width:0.79701;stroke-linecap:butt;stroke-linejoin:miter;stroke-miterlimit:10;stroke-dasharray:none;stroke-opacity:1"
       transform="matrix(1.3333333,0,0,-1.3333333,202.52533,175.316)" />
    <g
       id="g126"
       aria-label="−+"
       transform="matrix(1.3333333,0,0,1.3333333,471.23067,216.432)">
      <path
         id="path127"
         d="m 6.5623516,-2.2956797 c 0.1757812,0 0.3515625,0 0.3515625,-0.1992187 0,-0.1992188 -0.1757813,-0.1992188 -0.3515625,-0.1992188 h -5.390625 c -0.1640625,0 -0.33984379,0 -0.33984379,0.1992188 0,0.1992187 0.17578129,0.1992187 0.33984379,0.1992187 z m 0,0"
         style="fill:#000000;fill-opacity:1;fill-rule:nonzero;stroke:none" />
      <path
         id="path128"
         d="m 18.468602,-2.2956797 h 2.777343 c 0.140625,0 0.328125,0 0.328125,-0.1992187 0,-0.1992188 -0.1875,-0.1992188 -0.328125,-0.1992188 h -2.777343 v -2.7890625 c 0,-0.1289062 0,-0.328125 -0.199219,-0.328125 -0.199219,0 -0.199219,0.1992188 -0.199219,0.328125 v 2.7890625 h -2.789062 c -0.140625,0 -0.328125,0 -0.328125,0.1992188 0,0.1992187 0.1875,0.1992187 0.328125,0.1992187 h 2.789062 v 2.80078126 c 0,0.12890625 0,0.328125 0.199219,0.328125 0.199219,0 0.199219,-0.19921875 0.199219,-0.328125 z m 0,0"
         style="fill:#000000;fill-opacity:1;fill-rule:nonzero;stroke:none" />
    </g>
    <path
       id="path129"
       d="m 226.77446,0 c 0,4.69675 -6.34555,8.50412 -14.1734,8.50412 -7.82785,0 -14.1734,-3.80737 -14.1734,-8.50412 0,-4.69675 6.34555,-8.50412 14.1734,-8.50412 7.82785,0 14.1734,3.80737 14.1734,8.50412 z"
       style="fill:none;stroke:#000000;stroke-width:0.79701;stroke-linecap:butt;stroke-linejoin:miter;stroke-miterlimit:10;stroke-dasharray:none;stroke-opacity:1"
       transform="matrix(1.3333333,0,0,-1.3333333,202.52533,175.316)" />
    <g
       id="g129"
       aria-label="−+"
       transform="matrix(1.3333333,0,0,1.3333333,471.23067,178.63733)">
      <path
         id="path130"
         d="m 6.5623516,-2.2973359 c 0.1757812,0 0.3515625,0 0.3515625,-0.1992188 0,-0.1992187 -0.1757813,-0.1992187 -0.3515625,-0.1992187 h -5.390625 c -0.1640625,0 -0.33984379,0 -0.33984379,0.1992187 0,0.1992188 0.17578129,0.1992188 0.33984379,0.1992188 z m 0,0"
         style="fill:#000000;fill-opacity:1;fill-rule:nonzero;stroke:none" />
      <path
         id="path131"
         d="m 18.468602,-2.2973359 h 2.777343 c 0.140625,0 0.328125,0 0.328125,-0.1992188 0,-0.1992187 -0.1875,-0.1992187 -0.328125,-0.1992187 h -2.777343 v -2.7890625 c 0,-0.1289063 0,-0.328125 -0.199219,-0.328125 -0.199219,0 -0.199219,0.1992187 -0.199219,0.328125 v 2.7890625 h -2.789062 c -0.140625,0 -0.328125,0 -0.328125,0.1992187 0,0.1992188 0.1875,0.1992188 0.328125,0.1992188 h 2.789062 v 2.80078121 c 0,0.12890625 0,0.328125 0.199219,0.328125 0.199219,0 0.199219,-0.19921875 0.199219,-0.328125 z m 0,0"
         style="fill:#000000;fill-opacity:1;fill-rule:nonzero;stroke:none" />
    </g>
    <path
       id="path132"
       d="m 226.77446,28.3468 c 0,4.69676 -6.34555,8.50412 -14.1734,8.50412 -7.82785,0 -14.1734,-3.80736 -14.1734,-8.50412 0,-4.69676 6.34555,-8.50412 14.1734,-8.50412 7.82785,0 14.1734,3.80736 14.1734,8.50412 z"
       style="fill:none;stroke:#000000;stroke-width:0.79701;stroke-linecap:butt;stroke-linejoin:miter;stroke-miterlimit:10;stroke-dasharray:none;stroke-opacity:1"
       transform="matrix(1.3333333,0,0,-1.3333333,202.52533,175.316)" />
    <g
       id="g132"
       aria-label="−+"
       transform="matrix(1.3333333,0,0,1.3333333,471.23067,140.84133)">
      <path
         id="path133"
         d="m 6.5623516,-2.2979922 c 0.1757812,0 0.3515625,0 0.3515625,-0.1992187 0,-0.1992188 -0.1757813,-0.1992188 -0.3515625,-0.1992188 h -5.390625 c -0.1640625,0 -0.33984379,0 -0.33984379,0.1992188 0,0.1992187 0.17578129,0.1992187 0.33984379,0.1992187 z m 0,0"
         style="fill:#000000;fill-opacity:1;fill-rule:nonzero;stroke:none" />
      <path
         id="path134"
         d="m 18.468602,-2.2979922 h 2.777343 c 0.140625,0 0.328125,0 0.328125,-0.1992187 0,-0.1992188 -0.1875,-0.1992188 -0.328125,-0.1992188 h -2.777343 v -2.7890625 c 0,-0.1289062 0,-0.328125 -0.199219,-0.328125 -0.199219,0 -0.199219,0.1992188 -0.199219,0.328125 v 2.7890625 h -2.789062 c -0.140625,0 -0.328125,0 -0.328125,0.1992188 0,0.1992187 0.1875,0.1992187 0.328125,0.1992187 h 2.789062 v 2.80078126 c 0,0.12890625 0,0.328125 0.199219,0.328125 0.199219,0 0.199219,-0.19921875 0.199219,-0.328125 z m 0,0"
         style="fill:#000000;fill-opacity:1;fill-rule:nonzero;stroke:none" />
    </g>
    <path
       id="path135"
       d="m 226.77446,56.69362 c 0,4.69675 -6.34555,8.50412 -14.1734,8.50412 -7.82785,0 -14.1734,-3.80737 -14.1734,-8.50412 0,-4.69676 6.34555,-8.50414 14.1734,-8.50414 7.82785,0 14.1734,3.80738 14.1734,8.50414 z"
       style="fill:none;stroke:#000000;stroke-width:0.79701;stroke-linecap:butt;stroke-linejoin:miter;stroke-miterlimit:10;stroke-dasharray:none;stroke-opacity:1"
       transform="matrix(1.3333333,0,0,-1.3333333,202.52533,175.316)" />
    <g
       id="g135"
       aria-label="−+"
       transform="matrix(1.3333333,0,0,1.3333333,471.23067,103.04667)">
      <path
         id="path136"
         d="m 6.5623516,-2.2967187 c 0.1757812,0 0.3515625,0 0.3515625,-0.1992188 0,-0.1992187 -0.1757813,-0.1992187 -0.3515625,-0.1992187 h -5.390625 c -0.1640625,0 -0.33984379,0 -0.33984379,0.1992187 0,0.1992188 0.17578129,0.1992188 0.33984379,0.1992188 z m 0,0"
         style="fill:#000000;fill-opacity:1;fill-rule:nonzero;stroke:none" />
      <path
         id="path137"
         d="m 18.468602,-2.2967187 h 2.777343 c 0.140625,0 0.328125,0 0.328125,-0.1992188 0,-0.1992187 -0.1875,-0.1992187 -0.328125,-0.1992187 h -2.777343 v -2.7890625 c 0,-0.1289063 0,-0.328125 -0.199219,-0.328125 -0.199219,0 -0.199219,0.1992187 -0.199219,0.328125 v 2.7890625 h -2.789062 c -0.140625,0 -0.328125,0 -0.328125,0.1992187 0,0.1992188 0.1875,0.1992188 0.328125,0.1992188 h 2.789062 v 2.8007812 c 0,0.12890625 0,0.328125 0.199219,0.328125 0.199219,0 0.199219,-0.19921875 0.199219,-0.328125 z m 0,0"
         style="fill:#000000;fill-opacity:1;fill-rule:nonzero;stroke:none" />
    </g>
    <path
       id="path138"
       d="m 184.25424,-56.69362 c 0,4.69676 -6.34554,8.50414 -14.17338,8.50414 -7.82786,0 -14.1734,-3.80738 -14.1734,-8.50414 0,-4.69675 6.34554,-8.50412 14.1734,-8.50412 7.82784,0 14.17338,3.80737 14.17338,8.50412 z"
       style="fill:none;stroke:#000000;stroke-width:0.79701;stroke-linecap:butt;stroke-linejoin:miter;stroke-miterlimit:10;stroke-dasharray:none;stroke-opacity:1"
       transform="matrix(1.3333333,0,0,-1.3333333,202.52533,175.316)" />
    <g
       id="g138"
       aria-label="−+"
       transform="matrix(1.3333333,0,0,1.3333333,414.53733,254.22667)">
      <path
         id="path139"
         d="m 6.5637969,-2.2969531 c 0.1757812,0 0.3515625,0 0.3515625,-0.1992188 0,-0.1992187 -0.1757813,-0.1992187 -0.3515625,-0.1992187 h -5.390625 c -0.1640625,0 -0.33984378,0 -0.33984378,0.1992187 0,0.1992188 0.17578128,0.1992188 0.33984378,0.1992188 z m 0,0"
         style="fill:#000000;fill-opacity:1;fill-rule:nonzero;stroke:none" />
      <path
         id="path140"
         d="m 18.470047,-2.2969531 h 2.777344 c 0.140625,0 0.328125,0 0.328125,-0.1992188 0,-0.1992187 -0.1875,-0.1992187 -0.328125,-0.1992187 h -2.777344 v -2.7890625 c 0,-0.1289063 0,-0.328125 -0.199219,-0.328125 -0.199219,0 -0.199219,0.1992187 -0.199219,0.328125 v 2.7890625 h -2.789062 c -0.140625,0 -0.328125,0 -0.328125,0.1992187 0,0.1992188 0.1875,0.1992188 0.328125,0.1992188 h 2.789062 v 2.80078123 c 0,0.12890625 0,0.328125 0.199219,0.328125 0.199219,0 0.199219,-0.19921875 0.199219,-0.328125 z m 0,0"
         style="fill:#000000;fill-opacity:1;fill-rule:nonzero;stroke:none" />
    </g>
    <path
       id="path141"
       d="m 184.25424,-28.3468 c 0,4.69676 -6.34554,8.50412 -14.17338,8.50412 -7.82786,0 -14.1734,-3.80736 -14.1734,-8.50412 0,-4.69676 6.34554,-8.50412 14.1734,-8.50412 7.82784,0 14.17338,3.80736 14.17338,8.50412 z"
       style="fill:none;stroke:#000000;stroke-width:0.79701;stroke-linecap:butt;stroke-linejoin:miter;stroke-miterlimit:10;stroke-dasharray:none;stroke-opacity:1"
       transform="matrix(1.3333333,0,0,-1.3333333,202.52533,175.316)" />
    <g
       id="g141"
       aria-label="−+"
       transform="matrix(1.3333333,0,0,1.3333333,414.53733,216.432)">
      <path
         id="path142"
         d="m 6.5637969,-2.2956797 c 0.1757812,0 0.3515625,0 0.3515625,-0.1992187 0,-0.1992188 -0.1757813,-0.1992188 -0.3515625,-0.1992188 h -5.390625 c -0.1640625,0 -0.33984378,0 -0.33984378,0.1992188 0,0.1992187 0.17578128,0.1992187 0.33984378,0.1992187 z m 0,0"
         style="fill:#000000;fill-opacity:1;fill-rule:nonzero;stroke:none" />
      <path
         id="path143"
         d="m 18.470047,-2.2956797 h 2.777344 c 0.140625,0 0.328125,0 0.328125,-0.1992187 0,-0.1992188 -0.1875,-0.1992188 -0.328125,-0.1992188 h -2.777344 v -2.7890625 c 0,-0.1289062 0,-0.328125 -0.199219,-0.328125 -0.199219,0 -0.199219,0.1992188 -0.199219,0.328125 v 2.7890625 h -2.789062 c -0.140625,0 -0.328125,0 -0.328125,0.1992188 0,0.1992187 0.1875,0.1992187 0.328125,0.1992187 h 2.789062 v 2.80078126 c 0,0.12890625 0,0.328125 0.199219,0.328125 0.199219,0 0.199219,-0.19921875 0.199219,-0.328125 z m 0,0"
         style="fill:#000000;fill-opacity:1;fill-rule:nonzero;stroke:none" />
    </g>
    <path
       id="path144"
       d="m 184.25424,0 c 0,4.69675 -6.34554,8.50412 -14.17338,8.50412 -7.82786,0 -14.1734,-3.80737 -14.1734,-8.50412 0,-4.69675 6.34554,-8.50412 14.1734,-8.50412 7.82784,0 14.17338,3.80737 14.17338,8.50412 z"
       style="fill:none;stroke:#000000;stroke-width:0.79701;stroke-linecap:butt;stroke-linejoin:miter;stroke-miterlimit:10;stroke-dasharray:none;stroke-opacity:1"
       transform="matrix(1.3333333,0,0,-1.3333333,202.52533,175.316)" />
    <g
       id="g144"
       aria-label="−+"
       transform="matrix(1.3333333,0,0,1.3333333,414.53733,178.63733)">
      <path
         id="path145"
         d="m 6.5637969,-2.2973359 c 0.1757812,0 0.3515625,0 0.3515625,-0.1992188 0,-0.1992187 -0.1757813,-0.1992187 -0.3515625,-0.1992187 h -5.390625 c -0.1640625,0 -0.33984378,0 -0.33984378,0.1992187 0,0.1992188 0.17578128,0.1992188 0.33984378,0.1992188 z m 0,0"
         style="fill:#000000;fill-opacity:1;fill-rule:nonzero;stroke:none" />
      <path
         id="path146"
         d="m 18.470047,-2.2973359 h 2.777344 c 0.140625,0 0.328125,0 0.328125,-0.1992188 0,-0.1992187 -0.1875,-0.1992187 -0.328125,-0.1992187 h -2.777344 v -2.7890625 c 0,-0.1289063 0,-0.328125 -0.199219,-0.328125 -0.199219,0 -0.199219,0.1992187 -0.199219,0.328125 v 2.7890625 h -2.789062 c -0.140625,0 -0.328125,0 -0.328125,0.1992187 0,0.1992188 0.1875,0.1992188 0.328125,0.1992188 h 2.789062 v 2.80078121 c 0,0.12890625 0,0.328125 0.199219,0.328125 0.199219,0 0.199219,-0.19921875 0.199219,-0.328125 z m 0,0"
         style="fill:#000000;fill-opacity:1;fill-rule:nonzero;stroke:none" />
    </g>
    <path
       id="path147"
       d="m 184.25424,28.3468 c 0,4.69676 -6.34554,8.50412 -14.17338,8.50412 -7.82786,0 -14.1734,-3.80736 -14.1734,-8.50412 0,-4.69676 6.34554,-8.50412 14.1734,-8.50412 7.82784,0 14.17338,3.80736 14.17338,8.50412 z"
       style="fill:none;stroke:#000000;stroke-width:0.79701;stroke-linecap:butt;stroke-linejoin:miter;stroke-miterlimit:10;stroke-dasharray:none;stroke-opacity:1"
       transform="matrix(1.3333333,0,0,-1.3333333,202.52533,175.316)" />
    <g
       id="g147"
       aria-label="−+"
       transform="matrix(1.3333333,0,0,1.3333333,414.53733,140.84133)">
      <path
         id="path148"
         d="m 6.5637969,-2.2979922 c 0.1757812,0 0.3515625,0 0.3515625,-0.1992187 0,-0.1992188 -0.1757813,-0.1992188 -0.3515625,-0.1992188 h -5.390625 c -0.1640625,0 -0.33984378,0 -0.33984378,0.1992188 0,0.1992187 0.17578128,0.1992187 0.33984378,0.1992187 z m 0,0"
         style="fill:#000000;fill-opacity:1;fill-rule:nonzero;stroke:none" />
      <path
         id="path149"
         d="m 18.470047,-2.2979922 h 2.777344 c 0.140625,0 0.328125,0 0.328125,-0.1992187 0,-0.1992188 -0.1875,-0.1992188 -0.328125,-0.1992188 h -2.777344 v -2.7890625 c 0,-0.1289062 0,-0.328125 -0.199219,-0.328125 -0.199219,0 -0.199219,0.1992188 -0.199219,0.328125 v 2.7890625 h -2.789062 c -0.140625,0 -0.328125,0 -0.328125,0.1992188 0,0.1992187 0.1875,0.1992187 0.328125,0.1992187 h 2.789062 v 2.80078126 c 0,0.12890625 0,0.328125 0.199219,0.328125 0.199219,0 0.199219,-0.19921875 0.199219,-0.328125 z m 0,0"
         style="fill:#000000;fill-opacity:1;fill-rule:nonzero;stroke:none" />
    </g>
    <path
       id="path150"
       d="m 184.25424,56.69362 c 0,4.69675 -6.34554,8.50412 -14.17338,8.50412 -7.82786,0 -14.1734,-3.80737 -14.1734,-8.50412 0,-4.69676 6.34554,-8.50414 14.1734,-8.50414 7.82784,0 14.17338,3.80738 14.17338,8.50414 z"
       style="fill:none;stroke:#000000;stroke-width:0.79701;stroke-linecap:butt;stroke-linejoin:miter;stroke-miterlimit:10;stroke-dasharray:none;stroke-opacity:1"
       transform="matrix(1.3333333,0,0,-1.3333333,202.52533,175.316)" />
    <g
       id="g150"
       aria-label="−+"
       transform="matrix(1.3333333,0,0,1.3333333,414.53733,103.04667)">
      <path
         id="path151"
         d="m 6.5637969,-2.2967187 c 0.1757812,0 0.3515625,0 0.3515625,-0.1992188 0,-0.1992187 -0.1757813,-0.1992187 -0.3515625,-0.1992187 h -5.390625 c -0.1640625,0 -0.33984378,0 -0.33984378,0.1992187 0,0.1992188 0.17578128,0.1992188 0.33984378,0.1992188 z m 0,0"
         style="fill:#000000;fill-opacity:1;fill-rule:nonzero;stroke:none" />
      <path
         id="path152"
         d="m 18.470047,-2.2967187 h 2.777344 c 0.140625,0 0.328125,0 0.328125,-0.1992188 0,-0.1992187 -0.1875,-0.1992187 -0.328125,-0.1992187 h -2.777344 v -2.7890625 c 0,-0.1289063 0,-0.328125 -0.199219,-0.328125 -0.199219,0 -0.199219,0.1992187 -0.199219,0.328125 v 2.7890625 h -2.789062 c -0.140625,0 -0.328125,0 -0.328125,0.1992187 0,0.1992188 0.1875,0.1992188 0.328125,0.1992188 h 2.789062 v 2.8007812 c 0,0.12890625 0,0.328125 0.199219,0.328125 0.199219,0 0.199219,-0.19921875 0.199219,-0.328125 z m 0,0"
         style="fill:#000000;fill-opacity:1;fill-rule:nonzero;stroke:none" />
    </g>
    <path
       id="path153"
       d="M 212.60106,99.21382 H 292.979"
       style="fill:none;stroke:#ff0000;stroke-width:0.79701;stroke-linecap:butt;stroke-linejoin:miter;stroke-miterlimit:10;stroke-dasharray:none;stroke-opacity:1"
       transform="matrix(1.3333333,0,0,-1.3333333,202.52533,175.316)" />
    <path
       id="path154"
       d="M 4.66248,0 C 3.28098,0.25902 1.0361,1.0361 -0.51805,1.94269 V -1.94269 C 1.0361,-1.0361 3.28098,-0.25902 4.66248,0"
       style="fill:#ff0000;fill-opacity:1;fill-rule:nonzero;stroke:none"
       transform="matrix(1.3333333,0,0,-1.3333333,593.164,43.030907)" />
    <path
       id="path155"
       d="m 5.3427344,-5.9283437 c -0.1289063,0.1289062 -0.4570313,0.4101562 -0.4570313,0.5859375 0,0.1054687 0.09375,0.1992187 0.1992188,0.1992187 0.082031,0 0.1289062,-0.070312 0.1875,-0.1289062 0.1171875,-0.140625 0.3398437,-0.421875 0.7851562,-0.6445313 0.070312,-0.035156 0.1640625,-0.09375 0.1640625,-0.2109375 0,-0.09375 -0.070312,-0.1523437 -0.140625,-0.1992187 -0.2109375,-0.1523438 -0.328125,-0.328125 -0.3984375,-0.5625 -0.023437,-0.09375 -0.070312,-0.2226563 -0.1992187,-0.2226563 -0.140625,0 -0.1992188,0.1289063 -0.1992188,0.2109375 0,0.046875 0.070312,0.3632813 0.234375,0.5742188 H 2.1552344 c -0.1640625,0 -0.3398438,0 -0.3398438,0.1992187 0,0.1992188 0.1757813,0.1992188 0.3398438,0.1992188 z m 0.1757812,6.12597651 c 0.023437,-0.046875 0.046875,-0.1171875 0.046875,-0.140625 0,-0.01171875 0,-0.10546875 -0.1171875,-0.10546875 -0.09375,0 -0.1054687,0.05859375 -0.1289062,0.1171875 C 4.6747656,1.5452891 4.2997656,2.2132578 2.6005469,2.2132578 h -1.453125 c -0.140625,0 -0.16406252,0 -0.22265627,-0.011719 C 0.81929688,2.1898198 0.79585938,2.1781018 0.79585938,2.09607 c 0,-0.023437 0,-0.046875 0.046875,-0.2226562 L 1.5224219,-0.84533594 h 0.984375 c 0.84375,0 0.84375,0.2109375 0.84375,0.45703125 0,0.0703125 0,0.1875 -0.070312,0.48046875 -0.011719,0.05859375 -0.023437,0.08203125 -0.023437,0.1171875 0,0.046875 0.035156,0.10546875 0.1289062,0.10546875 0.082031,0 0.1054688,-0.046875 0.1523438,-0.19921875 l 0.5625,-2.33203126 c 0,-0.058594 -0.046875,-0.1054687 -0.1171875,-0.1054687 -0.09375,0 -0.1054688,0.058594 -0.140625,0.1757812 -0.2109375,0.7617188 -0.3867188,0.984375 -1.3007813,0.984375 h -0.9375 l 0.5976563,-2.4023437 c 0.082031,-0.3398438 0.09375,-0.3867188 0.5390625,-0.3867188 h 1.40625 c 1.2070312,0 1.5117187,0.2929688 1.5117187,1.1132813 0,0.234375 0,0.2578125 -0.046875,0.5273437 0,0.058594 -0.011719,0.1289063 -0.011719,0.1757813 0,0.046875 0.035156,0.1171875 0.1289062,0.1171875 0.1054688,0 0.1171875,-0.058594 0.140625,-0.2460938 L 6.0692969,-3.9859609 C 6.0927344,-4.2554922 6.0458594,-4.2554922 5.7997656,-4.2554922 H 0.76070313 c -0.19921875,0 -0.29296875,0 -0.29296875,0.1992188 0,0.1054687 0.09375,0.1054687 0.28125,0.1054687 0.36328122,0 0.64453122,0 0.64453122,0.1875 0,0.035156 0,0.058594 -0.046875,0.234375 L 0.02242188,1.7445078 c -0.09375,0.3867188 -0.1171875,0.46875 -0.90234375,0.46875 -0.16406253,0 -0.28125003,0 -0.28125003,0.1875 0,0.1171875 0.09375,0.1171875 0.28125003,0.1171875 H 4.2880469 c 0.234375,0 0.2460937,-0.011719 0.3164062,-0.1640625 z m 0,0"
       style="fill:#ff0000;fill-opacity:1;fill-rule:nonzero;stroke:none"
       aria-label="⃗&#10;E"
       transform="matrix(1.3333333,0,0,1.3333333,539.44667,27.201333)" />
    <path
       id="path156"
       d="m 240.94788,-104.88309 h 22.60824"
       style="fill:none;stroke:#ff0000;stroke-width:1.19553;stroke-linecap:butt;stroke-linejoin:miter;stroke-miterlimit:10;stroke-dasharray:none;stroke-opacity:1"
       transform="matrix(1.3333333,0,0,-1.3333333,202.52533,175.316)" />
    <path
       id="path157"
       d="M 5.73854,0 C 4.0382,0.31879 1.27522,1.27522 -0.6376,2.39105 v -4.7821 C 1.27522,-1.27522 4.0382,-0.31879 5.73854,0"
       style="fill:#ff0000;fill-opacity:1;fill-rule:nonzero;stroke:none"
       transform="matrix(1.3333333,0,0,-1.3333333,553.93349,315.16012)" />
    <path
       id="path158"
       d="m 5.3427344,-5.9295547 c -0.1289063,0.1289063 -0.4570313,0.4101563 -0.4570313,0.5859375 0,0.1054688 0.09375,0.1992188 0.1992188,0.1992188 0.082031,0 0.1289062,-0.070312 0.1875,-0.1289063 0.1171875,-0.140625 0.3398437,-0.421875 0.7851562,-0.6445312 0.070312,-0.035156 0.1640625,-0.09375 0.1640625,-0.2109375 0,-0.09375 -0.070312,-0.1523438 -0.140625,-0.1992188 -0.2109375,-0.1523437 -0.328125,-0.328125 -0.3984375,-0.5625 -0.023437,-0.09375 -0.070312,-0.2226562 -0.1992187,-0.2226562 -0.140625,0 -0.1992188,0.1289062 -0.1992188,0.2109375 0,0.046875 0.070312,0.3632812 0.234375,0.5742187 H 2.1552344 c -0.1640625,0 -0.3398438,0 -0.3398438,0.1992188 0,0.1992187 0.1757813,0.1992187 0.3398438,0.1992187 z M 0.36519531,1.2188828 c -0.0820313,0.3398438 -0.09375,0.4101563 -0.5390625,0.4101563 -0.1171875,0 -0.22265625,0 -0.22265625,0.1875 0,0.082031 0.046875,0.1171875 0.12890625,0.1171875 0.26953125,0 0.55078125,-0.035156 0.83203125,-0.035156 0.328125,0 0.66796874,0.035156 0.98437504,0.035156 0.058594,0 0.1875,0 0.1875,-0.1992188 0,-0.1054687 -0.1054688,-0.1054687 -0.2460938,-0.1054687 -0.49218749,0 -0.49218749,-0.070312 -0.49218749,-0.1640625 0,-0.1171875 0.42187499,-1.74609379 0.48046879,-1.99218754 0.140625,0.29296875 0.4101562,0.6328125 0.9257812,0.6328125 1.1484375,0 2.4023438,-1.45312496 2.4023438,-2.91796876 0,-0.9375 -0.5742188,-1.59375 -1.3359375,-1.59375 -0.4921875,0 -0.9726563,0.3632813 -1.3007813,0.75 -0.09375,-0.5390625 -0.5273437,-0.75 -0.890625,-0.75 -0.45703124,0 -0.65624999,0.3867188 -0.73828124,0.5742188 -0.1875,0.3398437 -0.31640625,0.9375 -0.31640625,0.9609375 0,0.1054687 0.10546875,0.1054687 0.12890625,0.1054687 0.09375,0 0.10546875,-0.011719 0.1640625,-0.234375 0.1640625,-0.703125 0.36328125,-1.1835937 0.72656254,-1.1835937 0.1757812,0 0.3046875,0.082031 0.3046875,0.4570312 0,0.234375 -0.023437,0.3398438 -0.070312,0.5039063 z M 2.1230078,-3.1053359 c 0.070312,-0.2695313 0.3398438,-0.5507813 0.515625,-0.703125 0.3515625,-0.3046875 0.6328125,-0.375 0.8085938,-0.375 0.3984375,0 0.6328125,0.3515625 0.6328125,0.9375 0,0.5859375 -0.328125,1.734375 -0.5039063,2.109375 -0.3398437,0.70312496 -0.8203125,1.03124996 -1.1835937,1.03124996 -0.65625,0 -0.7851563,-0.83203125 -0.7851563,-0.890625 0,-0.0234375 0,-0.0351563 0.023437,-0.16406246 z m 0,0"
       style="fill:#ff0000;fill-opacity:1;fill-rule:nonzero;stroke:none"
       aria-label="⃗p"
       transform="matrix(1.3333333,0,0,1.3333333,539.44667,299.71467)" />
  </g>
</svg>
