<?xml version="1.0" encoding="UTF-8" standalone="no"?>
<!-- Created with Inkscape (http://www.inkscape.org/) -->

<svg
   version="1.1"
   id="svg1"
   width="194.12891"
   height="207.26933"
   viewBox="0 0 194.12891 207.26934"
   xmlns="http://www.w3.org/2000/svg"
   xmlns:svg="http://www.w3.org/2000/svg">
  <defs
     id="defs1" />
  <g
     id="g1"
     transform="translate(-18.164064,-13.79708)">
    <path
       id="path1"
       d="M 0,0 H 42.5202"
       style="fill:none;stroke:#000000;stroke-width:0.79701;stroke-linecap:butt;stroke-linejoin:miter;stroke-miterlimit:10;stroke-dasharray:none;stroke-opacity:1"
       transform="matrix(1.3333333,0,0,-1.3333333,33.330667,180.11467)" />
    <path
       id="path2"
       d="m 42.5202,-11.33855 v 22.6771"
       style="fill:none;stroke:#000000;stroke-width:0.79701;stroke-linecap:butt;stroke-linejoin:miter;stroke-miterlimit:10;stroke-dasharray:none;stroke-opacity:1"
       transform="matrix(1.3333333,0,0,-1.3333333,33.330667,180.11467)" />
    <path
       id="path3"
       d="M 51.02432,-19.84267 V 19.84267"
       style="fill:none;stroke:#000000;stroke-width:1.99255;stroke-linecap:butt;stroke-linejoin:miter;stroke-miterlimit:10;stroke-dasharray:none;stroke-opacity:1"
       transform="matrix(1.3333333,0,0,-1.3333333,33.330667,180.11467)" />
    <path
       id="path4"
       d="m 51.02432,0 h 76.5363"
       style="fill:none;stroke:#000000;stroke-width:0.79701;stroke-linecap:butt;stroke-linejoin:miter;stroke-miterlimit:10;stroke-dasharray:none;stroke-opacity:1"
       transform="matrix(1.3333333,0,0,-1.3333333,33.330667,180.11467)" />
    <path
       id="path5"
       d="m 1.4074922,-2.2615703 c 0.328125,0.140625 0.6210937,0.140625 0.8554687,0.140625 0.2578125,0 0.8085938,0 0.8085938,-0.3046875 0,-0.2460938 -0.3515625,-0.2695313 -0.7265625,-0.2695313 -0.2109375,0 -0.5625,0.011719 -0.9257813,0.1875 -0.234375,-0.1171875 -0.3984375,-0.3164062 -0.3984375,-0.5859375 0,-0.5976562 0.9726563,-0.9609375 1.875,-0.9609375 0.1523438,0 0.515625,0 0.9140625,0.28125 0.1054688,0.082031 0.1289063,0.09375 0.1992188,0.09375 0.1289062,0 0.2695312,-0.1289062 0.2695312,-0.2695312 0,-0.1875 -0.609375,-0.5625 -1.2890625,-0.5625 -1.1484375,0 -2.22656246,0.6679687 -2.22656246,1.4179687 0,0.4335938 0.36328126,0.6796875 0.39843746,0.7148438 -0.58593746,0.328125 -0.90234371,0.8789062 -0.90234371,1.3476562 0,0.64453129 0.57421875,1.25390629 1.62890621,1.25390629 1.3125,0 1.8632813,-0.87890625 1.8632813,-1.03125 0,-0.0585938 -0.046875,-0.09375 -0.1054688,-0.09375 -0.046875,0 -0.082031,0.0351563 -0.09375,0.0703125 -0.140625,0.22265625 -0.3867187,0.59765625 -1.5820312,0.59765625 -0.609375,0 -1.45312501,-0.15234375 -1.45312501,-0.86718754 0,-0.328125 0.28125,-0.8554687 0.89062501,-1.1601562 z m 0.328125,-0.1289063 c 0.2226562,-0.082031 0.4335937,-0.09375 0.609375,-0.09375 0.2460937,0 0.28125,0.011719 0.46875,0.058594 -0.1523438,0.070312 -0.1757813,0.082031 -0.5507813,0.082031 -0.2226562,0 -0.3398437,0 -0.5273437,-0.046875 z m 0,0"
       style="fill:#000000;fill-opacity:1;fill-rule:nonzero;stroke:none"
       aria-label="ε"
       transform="matrix(1.3333333,0,0,1.3333333,92.596,220.76933)" />
    <path
       id="path6"
       d="M 127.56062,0 V 70.867"
       style="fill:none;stroke:#000000;stroke-width:0.79701;stroke-linecap:butt;stroke-linejoin:miter;stroke-miterlimit:10;stroke-dasharray:none;stroke-opacity:1"
       transform="matrix(1.3333333,0,0,-1.3333333,33.330667,180.11467)" />
    <path
       id="path7"
       d="M 0,0 V 70.867"
       style="fill:none;stroke:#000000;stroke-width:0.79701;stroke-linecap:butt;stroke-linejoin:miter;stroke-miterlimit:10;stroke-dasharray:none;stroke-opacity:1"
       transform="matrix(1.3333333,0,0,-1.3333333,33.330667,180.11467)" />
    <path
       id="path8"
       d="M 0,70.867 H 34.01608"
       style="fill:none;stroke:#000000;stroke-width:0.79701;stroke-linecap:butt;stroke-linejoin:miter;stroke-miterlimit:10;stroke-dasharray:none;stroke-opacity:1"
       transform="matrix(1.3333333,0,0,-1.3333333,33.330667,180.11467)" />
    <path
       id="path9"
       d="m 34.01608,70.867 1.24535,4.98139 2.49069,-9.96277 2.49069,9.96277 2.49069,-9.96277 2.4907,9.96277 2.49069,-9.96277 2.49069,9.96277 2.49069,-9.96277 2.4907,9.96277 2.49069,-9.96277 2.49069,9.96277 2.49069,-9.96277 2.49069,9.96277 2.4907,-9.96277 2.49069,9.96277 2.49069,-9.96277 2.49069,9.96277 2.4907,-9.96277 2.49069,9.96277 2.49069,-9.96277 2.49069,9.96277 2.49069,-9.96277 2.4907,9.96277 L 91.302,70.867 h 2.24254"
       style="fill:none;stroke:#000000;stroke-width:0.79701;stroke-linecap:butt;stroke-linejoin:miter;stroke-miterlimit:10;stroke-dasharray:none;stroke-opacity:1"
       transform="matrix(1.3333333,0,0,-1.3333333,33.330667,180.11467)" />
    <path
       id="path10"
       d="m 93.54454,70.867 h 34.01608"
       style="fill:none;stroke:#000000;stroke-width:0.79701;stroke-linecap:butt;stroke-linejoin:miter;stroke-miterlimit:10;stroke-dasharray:none;stroke-opacity:1"
       transform="matrix(1.3333333,0,0,-1.3333333,33.330667,180.11467)" />
    <path
       id="path11"
       d="m 3.7392891,-6.1173125 c 0.058594,-0.234375 0.082031,-0.3398438 0.28125,-0.3632813 0.082031,-0.011719 0.3984375,-0.011719 0.5976562,-0.011719 0.7148438,0 1.8164063,0 1.8164063,0.984375 0,0.3398437 -0.1523438,1.0195312 -0.5507813,1.4179687 C 5.6260078,-3.8321563 5.0986641,-3.51575 4.2080391,-3.51575 H 3.0947578 Z m 1.4296875,2.7304687 c 1.0078125,-0.2226562 2.1914062,-0.9140625 2.1914062,-1.921875 0,-0.8554687 -0.890625,-1.5 -2.203125,-1.5 H 2.3213203 c -0.1992187,0 -0.2929687,0 -0.2929687,0.1992188 0,0.1171875 0.09375,0.1171875 0.28125,0.1171875 0.023437,0 0.2109375,0 0.3867187,0.011719 0.1757813,0.023437 0.2578125,0.035156 0.2578125,0.1640625 0,0.035156 0,0.070312 -0.035156,0.1875 l -1.3359375,5.3554688 c -0.09375,0.38671875 -0.1171875,0.46875 -0.90234379,0.46875 -0.17578125,0 -0.26953125,0 -0.26953125,0.19921875 0,0.10546875 0.1171875,0.10546875 0.140625,0.10546875 0.28125,0 0.97265624,-0.03515625 1.25390624,-0.03515625 0.28125,0 0.984375,0.03515625 1.265625,0.03515625 0.082031,0 0.1992188,0 0.1992188,-0.19921875 0,-0.10546875 -0.09375,-0.10546875 -0.28125,-0.10546875 -0.3632813,0 -0.6445313,0 -0.6445313,-0.1875 0,-0.0585938 0.011719,-0.10546875 0.023437,-0.1640625 l 0.65625,-2.6367188 h 1.1953125 c 0.9023438,0 1.078125,0.5507813 1.078125,0.9023438 0,0.1523437 -0.082031,0.4570312 -0.140625,0.6914062 -0.070312,0.2695313 -0.1523437,0.6445313 -0.1523437,0.84375005 0,1.078125 1.1953125,1.078125 1.3242187,1.078125 0.84375,0 1.1953125,-1.0078125 1.1953125,-1.1484375 0,-0.11718755 -0.1171875,-0.11718755 -0.1171875,-0.11718755 -0.09375,0 -0.1171875,0.0703126 -0.1289062,0.14062505 C 7.0205391,-0.1641875 6.5986641,-1.25e-4 6.3642891,-1.25e-4 c -0.328125,0 -0.3984375,-0.22265625 -0.3984375,-0.609375 0,-0.3046875 0.058594,-0.8203125 0.1054687,-1.1367188 0.011719,-0.140625 0.035156,-0.328125 0.035156,-0.46875 0,-0.7617187 -0.6679688,-1.078125 -0.9374997,-1.171875 z m 0,0"
       style="fill:#000000;fill-opacity:1;fill-rule:nonzero;stroke:none"
       aria-label="R"
       transform="matrix(1.3333333,0,0,1.3333333,113.276,109.06267)" />
    <path
       id="path12"
       d="M 0,51.02432 V 26.8166"
       style="fill:none;stroke:#800080;stroke-width:0.99628;stroke-linecap:butt;stroke-linejoin:miter;stroke-miterlimit:10;stroke-dasharray:none;stroke-opacity:1"
       transform="matrix(1.3333333,0,0,-1.3333333,33.330667,180.11467)" />
    <path
       id="path13"
       d="M 4.92007,0 C 4.31586,0.15076 1.65996,1.00505 0,1.93475 v -3.8695 C 1.65996,-1.00505 4.31586,-0.15076 4.92007,0 Z"
       style="fill:#800080;fill-opacity:1;fill-rule:nonzero;stroke:#800080;stroke-width:0.99628;stroke-linecap:butt;stroke-linejoin:miter;stroke-miterlimit:10;stroke-dasharray:none;stroke-opacity:1"
       transform="matrix(0,1.3333333,1.3333333,0,33.330667,144.3592)" />
    <path
       id="path14"
       d="m 3.7267656,-6.0345391 c 0.09375,-0.3632812 0.1171875,-0.4570312 0.9023438,-0.4570312 0.2460937,0 0.3164062,0 0.3164062,-0.1875 0,-0.1289063 -0.1054687,-0.1289063 -0.140625,-0.1289063 -0.2929687,0 -1.03125,0.035156 -1.3125,0.035156 -0.3046875,0 -1.03125,-0.035156 -1.3359375,-0.035156 -0.058594,0 -0.1992187,0 -0.1992187,0.1992188 0,0.1171875 0.09375,0.1171875 0.28125,0.1171875 0.421875,0 0.6914062,0 0.6914062,0.1875 0,0.046875 0,0.070312 -0.023437,0.1640625 l -1.3476562,5.36718749 c -0.082031,0.36328125 -0.1171875,0.46875 -0.90234377,0.46875 -0.22265625,0 -0.31640625,0 -0.31640625,0.19921875 0,0.1054687475 0.1171875,0.1054687475 0.15234375,0.1054687475 0.28125,0 1.00781247,-0.0351562475 1.30078127,-0.0351562475 0.3046875,0 1.03125,0.0351562475 1.3359375,0.0351562475 0.082031,0 0.1992187,0 0.1992187,-0.1874999975 0,-0.1171875 -0.082031,-0.1171875 -0.3046875,-0.1171875 -0.1757812,0 -0.2226562,0 -0.421875,-0.0234375 -0.2109375,-0.0234375 -0.2460937,-0.0585938 -0.2460937,-0.17578125 0,-0.0703125 0.011719,-0.15234375 0.035156,-0.22265625 z m 0,0"
       style="fill:#800080;fill-opacity:1;fill-rule:nonzero;stroke:none"
       aria-label="I"
       transform="matrix(1.3333333,0,0,1.3333333,17.710667,137.40933)" />
    <path
       id="path15"
       d="m 42.5202,85.04042 c 0,0.62268 -1.49441,0.93401 -1.49441,1.55668 0,0.45081 0.72928,0.83935 1.49441,1.24535 0.76512,0.40598 1.49442,0.79453 1.49442,1.24535 0,0.4508 -0.7293,0.83934 -1.49442,1.24535 -0.76513,0.40597 -1.49441,0.79452 -1.49441,1.24534 0,0.45081 0.72928,0.83934 1.49441,1.24535 0.76512,0.40597 1.49442,0.79452 1.49442,1.24534 0,0.45081 -0.7293,0.83934 -1.49442,1.24535 -0.76513,0.40597 -1.49441,0.79452 -1.49441,1.24535 0,0.4508 0.72928,0.83934 1.49441,1.24534 0.76512,0.40598 1.49442,0.79453 1.49442,1.24535 0,0.4508 -0.7293,0.83934 -1.49442,1.24534 -0.76513,0.40598 -1.49441,0.79453 -1.49441,1.24535 0,0.45081 0.72928,0.83934 1.49441,1.24534 0.76512,0.40598 1.49442,0.79453 1.49442,1.24535 0,0.45081 -0.7293,0.83934 -1.49442,1.24535 -0.76513,0.40597 -1.49441,0.79452 -1.49441,1.24534 0,0.45081 0.72928,0.83934 1.49441,1.24535 0.76512,0.40598 1.49442,0.79453 1.49442,1.24535 0,0.4508 -0.7293,0.83934 -1.49442,1.24534 -0.76513,0.40598 -1.49441,0.79452 -1.49441,1.24535 0,0.4508 0.72928,0.83934 1.49441,1.24534 0.76512,0.40598 1.49442,0.79453 1.49442,1.24535 0,0.45081 -0.7293,0.83934 -1.49442,1.24535 -0.76513,0.40597 -1.49441,0.79452 -1.49441,1.24534 0,0.62267 1.49441,0.93401 1.49441,1.55669 v 1.0144"
       style="fill:none;stroke:#ff0000;stroke-width:0.79701;stroke-linecap:butt;stroke-linejoin:miter;stroke-miterlimit:10;stroke-dasharray:none;stroke-opacity:1"
       transform="matrix(1.3333333,0,0,-1.3333333,33.330667,180.11467)" />
    <path
       id="path16"
       d="m 63.7803,85.04042 c 0,0.62268 -1.49441,0.93401 -1.49441,1.55668 0,0.45081 0.72928,0.83935 1.49441,1.24535 0.76514,0.40598 1.49442,0.79453 1.49442,1.24535 0,0.4508 -0.72928,0.83934 -1.49442,1.24535 -0.76513,0.40597 -1.49441,0.79452 -1.49441,1.24534 0,0.45081 0.72928,0.83934 1.49441,1.24535 0.76514,0.40597 1.49442,0.79452 1.49442,1.24534 0,0.45081 -0.72928,0.83934 -1.49442,1.24535 -0.76513,0.40597 -1.49441,0.79452 -1.49441,1.24535 0,0.4508 0.72928,0.83934 1.49441,1.24534 0.76514,0.40598 1.49442,0.79453 1.49442,1.24535 0,0.4508 -0.72928,0.83934 -1.49442,1.24534 -0.76513,0.40598 -1.49441,0.79453 -1.49441,1.24535 0,0.45081 0.72928,0.83934 1.49441,1.24534 0.76514,0.40598 1.49442,0.79453 1.49442,1.24535 0,0.45081 -0.72928,0.83934 -1.49442,1.24535 -0.76513,0.40597 -1.49441,0.79452 -1.49441,1.24534 0,0.45081 0.72928,0.83934 1.49441,1.24535 0.76514,0.40598 1.49442,0.79453 1.49442,1.24535 0,0.4508 -0.72928,0.83934 -1.49442,1.24534 -0.76513,0.40598 -1.49441,0.79452 -1.49441,1.24535 0,0.4508 0.72928,0.83934 1.49441,1.24534 0.76514,0.40598 1.49442,0.79453 1.49442,1.24535 0,0.45081 -0.72928,0.83934 -1.49442,1.24535 -0.76513,0.40597 -1.49441,0.79452 -1.49441,1.24534 0,0.62267 1.49441,0.93401 1.49441,1.55669 v 1.0144"
       style="fill:none;stroke:#ff0000;stroke-width:0.79701;stroke-linecap:butt;stroke-linejoin:miter;stroke-miterlimit:10;stroke-dasharray:none;stroke-opacity:1"
       transform="matrix(1.3333333,0,0,-1.3333333,33.330667,180.11467)" />
    <path
       id="path17"
       d="m 85.04042,85.04042 c 0,0.62268 -1.49442,0.93401 -1.49442,1.55668 0,0.45081 0.72928,0.83935 1.49442,1.24535 0.76514,0.40598 1.49442,0.79453 1.49442,1.24535 0,0.4508 -0.72928,0.83934 -1.49442,1.24535 -0.76514,0.40597 -1.49442,0.79452 -1.49442,1.24534 0,0.45081 0.72928,0.83934 1.49442,1.24535 0.76514,0.40597 1.49442,0.79452 1.49442,1.24534 0,0.45081 -0.72928,0.83934 -1.49442,1.24535 -0.76514,0.40597 -1.49442,0.79452 -1.49442,1.24535 0,0.4508 0.72928,0.83934 1.49442,1.24534 0.76514,0.40598 1.49442,0.79453 1.49442,1.24535 0,0.4508 -0.72928,0.83934 -1.49442,1.24534 -0.76514,0.40598 -1.49442,0.79453 -1.49442,1.24535 0,0.45081 0.72928,0.83934 1.49442,1.24534 0.76514,0.40598 1.49442,0.79453 1.49442,1.24535 0,0.45081 -0.72928,0.83934 -1.49442,1.24535 -0.76514,0.40597 -1.49442,0.79452 -1.49442,1.24534 0,0.45081 0.72928,0.83934 1.49442,1.24535 0.76514,0.40598 1.49442,0.79453 1.49442,1.24535 0,0.4508 -0.72928,0.83934 -1.49442,1.24534 -0.76514,0.40598 -1.49442,0.79452 -1.49442,1.24535 0,0.4508 0.72928,0.83934 1.49442,1.24534 0.76514,0.40598 1.49442,0.79453 1.49442,1.24535 0,0.45081 -0.72928,0.83934 -1.49442,1.24535 -0.76514,0.40597 -1.49442,0.79452 -1.49442,1.24534 0,0.62267 1.49442,0.93401 1.49442,1.55669 v 1.0144"
       style="fill:none;stroke:#ff0000;stroke-width:0.79701;stroke-linecap:butt;stroke-linejoin:miter;stroke-miterlimit:10;stroke-dasharray:none;stroke-opacity:1"
       transform="matrix(1.3333333,0,0,-1.3333333,33.330667,180.11467)" />
    <path
       id="path18"
       d="m 42.5202,119.0565 v -0.50766"
       style="fill:none;stroke:#ff0000;stroke-width:0.79701;stroke-linecap:butt;stroke-linejoin:miter;stroke-miterlimit:10;stroke-dasharray:none;stroke-opacity:1"
       transform="matrix(1.3333333,0,0,-1.3333333,33.330667,180.11467)" />
    <path
       id="path19"
       d="M 4.53381,0 C 3.97704,0.13808 1.52963,0.92049 0,1.77196 V -1.77196 C 1.52963,-0.92049 3.97704,-0.13808 4.53381,0 Z"
       style="fill:#ff0000;fill-opacity:1;fill-rule:nonzero;stroke:#ff0000;stroke-width:0.79701;stroke-linecap:butt;stroke-linejoin:miter;stroke-miterlimit:10;stroke-dasharray:none;stroke-opacity:1"
       transform="matrix(0,-1.3333333,-1.3333333,0,90.024267,22.049547)" />
    <path
       id="path20"
       d="m 63.7803,119.0565 v -0.50766"
       style="fill:none;stroke:#ff0000;stroke-width:0.79701;stroke-linecap:butt;stroke-linejoin:miter;stroke-miterlimit:10;stroke-dasharray:none;stroke-opacity:1"
       transform="matrix(1.3333333,0,0,-1.3333333,33.330667,180.11467)" />
    <path
       id="path21"
       d="M 4.53381,0 C 3.97704,0.13808 1.52963,0.92049 0,1.77196 V -1.77196 C 1.52963,-0.92049 3.97704,-0.13808 4.53381,0 Z"
       style="fill:#ff0000;fill-opacity:1;fill-rule:nonzero;stroke:#ff0000;stroke-width:0.79701;stroke-linecap:butt;stroke-linejoin:miter;stroke-miterlimit:10;stroke-dasharray:none;stroke-opacity:1"
       transform="matrix(0,-1.3333333,-1.3333333,0,118.37107,22.049547)" />
    <path
       id="path22"
       d="m 85.04042,119.0565 v -0.50766"
       style="fill:none;stroke:#ff0000;stroke-width:0.79701;stroke-linecap:butt;stroke-linejoin:miter;stroke-miterlimit:10;stroke-dasharray:none;stroke-opacity:1"
       transform="matrix(1.3333333,0,0,-1.3333333,33.330667,180.11467)" />
    <path
       id="path23"
       d="M 4.53381,0 C 3.97704,0.13808 1.52963,0.92049 0,1.77196 V -1.77196 C 1.52963,-0.92049 3.97704,-0.13808 4.53381,0 Z"
       style="fill:#ff0000;fill-opacity:1;fill-rule:nonzero;stroke:#ff0000;stroke-width:0.79701;stroke-linecap:butt;stroke-linejoin:miter;stroke-miterlimit:10;stroke-dasharray:none;stroke-opacity:1"
       transform="matrix(0,-1.3333333,-1.3333333,0,146.71789,22.049547)" />
    <g
       id="g23"
       aria-label="Calor(Q)"
       transform="matrix(1.3333333,0,0,1.3333333,159.23467,36.033333)">
      <path
         id="path24"
         d="m 5.8005625,-1.1353516 c -0.5859375,0.38671879 -0.9257813,0.59765629 -1.9101563,0.59765629 -1.4414062,0 -2.3320312,-1.48828129 -2.3320312,-2.92968749 0,-1.3476563 0.8203125,-2.9179688 2.34375,-2.9179688 0.7148437,0 1.1601562,0.1757813 1.7109375,0.515625 l 0.1289062,-0.8085937 c -0.421875,-0.2109375 -1.1953125,-0.3398438 -1.828125,-0.3398438 -1.8398437,0 -3.25781245,1.546875 -3.25781245,3.6445313 0,1.5703125 1.18359375,3.48046874 3.25781245,3.48046874 0.9140625,0 1.3007813,-0.15234375 1.9453125,-0.55078125 z m 4.5380855,-1.7460937 c 0,-1.0078125 -0.7265621,-1.7109375 -1.6406246,-1.7109375 -0.6445312,0 -1.1015625,0.1640625 -1.5703125,0.4335937 l 0.070312,0.65625 c 0.515625,-0.375 1.0078125,-0.5039062 1.5,-0.5039062 0.46875,0 0.8671875,0.3984375 0.8671875,1.1367187 v 0.4335938 c -1.5,0.011719 -2.765625,0.4335937 -2.765625,1.3125 0,0.42187499 0.2695313,1.23046874 1.1367188,1.23046874 0.140625,0 1.078125,-0.01171875 1.6523437,-0.46875 v 0.36328125 h 0.7499991 z m -0.7734371,1.5703125 c 0,0.1875 0,0.43359374 -0.3398437,0.62109374 -0.2929688,0.1875 -0.6679688,0.1875 -0.7734375,0.1875 -0.4804688,0 -0.9257813,-0.22265625 -0.9257813,-0.64453124 0,-0.6914063 1.6054688,-0.7617188 2.0390625,-0.7851563 z m 3.1464841,-5.6015625 h -0.75 v 6.91406249 h 0.75 z m 5.496094,4.7226562 c 0,-1.3359375 -0.996094,-2.4023437 -2.179687,-2.4023437 -1.230469,0 -2.191407,1.1015625 -2.191407,2.4023437 0,1.31250004 1.007813,2.29687504 2.179688,2.29687504 1.195312,0 2.191406,-1.0078125 2.191406,-2.29687504 z m -2.191406,1.66406254 c -0.691406,0 -1.40625,-0.56250004 -1.40625,-1.76953124 0,-1.1953125 0.75,-1.6875 1.40625,-1.6875 0.691406,0 1.40625,0.515625 1.40625,1.6875 0,1.1835937 -0.667969,1.76953124 -1.40625,1.76953124 z M 19.79275,-2.1314453 c 0,-0.9960938 0.726562,-1.7109375 1.699219,-1.734375 v -0.6679688 c -0.890625,0.011719 -1.429688,0.5039063 -1.746094,0.9609375 v -0.9140625 h -0.691406 v 4.48828129 h 0.738281 z m 7.860352,-5.34375 c -0.316407,0.3046875 -0.984375,0.9140625 -1.441407,2.1328125 -0.398437,1.0664062 -0.46875,2.1210937 -0.46875,2.8476562 0,3.22265629 1.441407,4.546875 1.910157,4.9921875 h 0.609375 c -0.480469,-0.4804687 -1.746094,-1.76953121 -1.746094,-4.9921875 0,-0.5507812 0.03516,-1.7226562 0.445312,-2.8945312 0.410157,-1.1484375 0.972657,-1.7460938 1.300782,-2.0859375 z m 0,0"
         style="fill:#ff0000;fill-opacity:1;fill-rule:nonzero;stroke:none" />
      <path
         id="path25"
         d="m 33.19607,-0.05722656 c 1.546875,-0.5859375 3.011719,-2.36718754 3.011719,-4.28906254 0,-1.59375 -1.054687,-2.671875 -2.542969,-2.671875 -2.144531,0 -4.335937,2.2617188 -4.335937,4.5820313 0,1.65234374 1.113281,2.66015624 2.542969,2.66015624 0.257812,0 0.585937,-0.046875 0.984375,-0.15234375 -0.04687,0.62109375 -0.04687,0.6328125 -0.04687,0.76171875 0,0.32812496 0,1.10156246 0.832031,1.10156246 1.183594,0 1.664062,-1.82812496 1.664062,-1.93359371 0,-0.0703125 -0.07031,-0.10546875 -0.117187,-0.10546875 -0.07031,0 -0.09375,0.05859375 -0.117188,0.1171875 -0.234375,0.703125 -0.820312,0.94921875 -1.160156,0.94921875 -0.457031,0 -0.609375,-0.2578125 -0.714844,-1.01953125 z m -1.875,-0.08203125 c -0.785156,-0.3046875 -1.125,-1.08984379 -1.125,-1.98046879 0,-0.6914062 0.269532,-2.0976562 1.019532,-3.1757812 0.726562,-1.0195313 1.664062,-1.4765625 2.390625,-1.4765625 0.996093,0 1.722656,0.7734375 1.722656,2.109375 0,0.9960937 -0.503906,3.328125 -2.179688,4.26562499 -0.04687,-0.3515625 -0.152343,-1.07812499 -0.878906,-1.07812499 -0.527344,0 -1.007812,0.50390624 -1.007812,1.01953124 0,0.19921875 0.05859,0.3046875 0.05859,0.31640625 z m 0.609375,0.10546875 c -0.140625,0 -0.457031,0 -0.457031,-0.421875 0,-0.3984375 0.386719,-0.79687504 0.796875,-0.79687504 0.421875,0 0.609375,0.234375 0.609375,0.84375004 0,0.15234375 -0.01172,0.1640625 -0.105469,0.19921875 -0.257812,0.10546875 -0.5625,0.17578125 -0.84375,0.17578125 z m 0,0"
         style="fill:#ff0000;fill-opacity:1;fill-rule:nonzero;stroke:none" />
      <path
         id="path26"
         d="m 37.871852,2.4974609 c 0.328125,-0.3046875 0.996093,-0.9140625 1.453125,-2.13281246 0.398437,-1.06640625 0.46875,-2.12109374 0.46875,-2.85937504 0,-3.2109375 -1.441407,-4.5351562 -1.921875,-4.9804687 h -0.597657 c 0.46875,0.4804687 1.734375,1.7695312 1.734375,4.9804687 0,0.5625 -0.02344,1.73437504 -0.433593,2.90625004 C 38.16482,1.5599609 37.60232,2.1576172 37.274195,2.4974609 Z m 0,0"
         style="fill:#ff0000;fill-opacity:1;fill-rule:nonzero;stroke:none" />
    </g>
  </g>
</svg>
