<?xml version="1.0" encoding="UTF-8" standalone="no"?>
<!-- Created with Inkscape (http://www.inkscape.org/) -->

<svg
   version="1.1"
   id="svg1"
   width="154.51294"
   height="128.75"
   viewBox="0 0 154.51294 128.75"
   xmlns="http://www.w3.org/2000/svg"
   xmlns:svg="http://www.w3.org/2000/svg">
  <defs
     id="defs1" />
  <g
     id="g1"
     transform="translate(-13.130368,-17.507812)">
    <path
       id="path1"
       d="m 0,56.69362 h 50.74075 m 11.90572,0 h 50.74077 V 0 H 72.56781 M 40.81941,0 H 0 v 56.69362"
       style="fill:none;stroke:#000000;stroke-width:0.3985;stroke-linecap:butt;stroke-linejoin:miter;stroke-miterlimit:10;stroke-dasharray:none;stroke-opacity:1"
       transform="matrix(1.3333333,0,0,-1.3333333,16.194667,123.928)" />
    <path
       id="path2"
       d="m 58.65805,56.69362 h 3.98842 m -7.9173,0 h -3.98842"
       style="fill:none;stroke:#000000;stroke-width:0.3985;stroke-linecap:butt;stroke-linejoin:miter;stroke-miterlimit:10;stroke-dasharray:none;stroke-opacity:1"
       transform="matrix(1.3333333,0,0,-1.3333333,16.194667,123.928)" />
    <path
       id="path3"
       d="M 58.65805,62.64647 V 50.74075 M 54.72917,68.59933 V 44.78789"
       style="fill:none;stroke:#000000;stroke-width:0.797;stroke-linecap:butt;stroke-linejoin:miter;stroke-miterlimit:10;stroke-dasharray:none;stroke-opacity:1"
       transform="matrix(1.3333333,0,0,-1.3333333,16.194667,123.928)" />
    <path
       id="path4"
       d="m 6.2570078,-5.6724219 c 0.4804688,-0.7734375 0.9023438,-0.8085937 1.2773438,-0.8203125 0.1171875,-0.011719 0.1289062,-0.1875 0.1289062,-0.1875 0,-0.082031 -0.058594,-0.1289062 -0.1289062,-0.1289062 -0.2578125,0 -0.5507813,0.035156 -0.8203125,0.035156 -0.328125,0 -0.6679688,-0.035156 -0.984375,-0.035156 -0.058594,0 -0.1875,0 -0.1875,0.1992187 0,0.1054688 0.082031,0.1171875 0.1523437,0.1171875 0.2695313,0.011719 0.4570313,0.1171875 0.4570313,0.328125 0,0.1523438 -0.140625,0.3632813 -0.140625,0.375 L 2.9523203,-0.92632812 2.2726328,-6.1997656 c 0,-0.1640625 0.2226563,-0.2929688 0.6796875,-0.2929688 0.140625,0 0.2578125,0 0.2578125,-0.1992187 0,-0.09375 -0.082031,-0.1171875 -0.140625,-0.1171875 -0.3984375,0 -0.8320312,0.035156 -1.2421875,0.035156 -0.1757812,0 -0.3632812,-0.011719 -0.5390625,-0.011719 -0.1875,0 -0.37499999,-0.023437 -0.53906249,-0.023437 -0.0703125,0 -0.1875,0 -0.1875,0.1992187 0,0.1171875 0.0820313,0.1171875 0.24609375,0.1171875 0.55078124,0 0.56250004,0.082031 0.59765624,0.3398438 l 0.7851563,6.14062498 c 0.035156,0.19921875 0.070312,0.234375 0.1992187,0.234375 0.1640625,0 0.1992188,-0.0585938 0.28125,-0.1875 z m 0,0"
       style="fill:#000000;fill-opacity:1;fill-rule:nonzero;stroke:none"
       aria-label="V"
       transform="matrix(1.3333333,0,0,1.3333333,86.434667,26.586667)" />
    <path
       id="path5"
       d="M 72.96631,0 69.92212,-5.95285 64.63074,5.95285 59.33936,-5.95285 54.04797,5.95285 48.75658,-5.95285 43.4652,5.95285 40.421,0"
       style="fill:none;stroke:#000000;stroke-width:0.797;stroke-linecap:butt;stroke-linejoin:bevel;stroke-miterlimit:10;stroke-dasharray:none;stroke-opacity:1"
       transform="matrix(1.3333333,0,0,-1.3333333,16.194667,123.928)" />
    <path
       id="path6"
       d="m 3.7388359,-6.1174844 c 0.058594,-0.234375 0.082031,-0.3398437 0.28125,-0.3632812 0.082031,-0.011719 0.3984375,-0.011719 0.5976563,-0.011719 0.7148437,0 1.8164062,0 1.8164062,0.984375 0,0.3398438 -0.1523437,1.0195313 -0.5507812,1.4179688 -0.2578125,0.2578125 -0.7851563,0.5742187 -1.6757813,0.5742187 H 3.0943047 Z m 1.4296875,2.7304688 c 1.0078125,-0.2226563 2.1914063,-0.9140625 2.1914063,-1.921875 0,-0.8554688 -0.890625,-1.5 -2.203125,-1.5 H 2.3208672 c -0.1992188,0 -0.2929688,0 -0.2929688,0.1992187 0,0.1171875 0.09375,0.1171875 0.28125,0.1171875 0.023437,0 0.2109375,0 0.3867188,0.011719 0.1757812,0.023437 0.2578125,0.035156 0.2578125,0.1640625 0,0.035156 0,0.070312 -0.035156,0.1875 l -1.3359375,5.35546873 c -0.09375,0.38671875 -0.1171875,0.46875 -0.90234371,0.46875 -0.17578125,0 -0.26953125,0 -0.26953125,0.19921875 0,0.105468745 0.1171875,0.105468745 0.140625,0.105468745 0.28125,0 0.97265626,-0.035156245 1.25390626,-0.035156245 0.28125,0 0.984375,0.035156245 1.265625,0.035156245 0.082031,0 0.1992187,0 0.1992187,-0.199218745 0,-0.10546875 -0.09375,-0.10546875 -0.28125,-0.10546875 -0.3632812,0 -0.6445312,0 -0.6445312,-0.1875 0,-0.0585938 0.011719,-0.10546875 0.023437,-0.1640625 l 0.65625,-2.63671873 h 1.1953125 c 0.9023437,0 1.078125,0.5507812 1.078125,0.9023437 0,0.1523438 -0.082031,0.4570313 -0.140625,0.6914063 -0.070312,0.2695312 -0.1523438,0.6445312 -0.1523438,0.84374998 0,1.078125 1.1953125,1.078125 1.3242188,1.078125 0.84375,0 1.1953125,-1.0078125 1.1953125,-1.1484375 0,-0.11718748 -0.1171875,-0.11718748 -0.1171875,-0.11718748 -0.09375,0 -0.1171875,0.0703125 -0.1289063,0.14062498 -0.2578125,0.73828125 -0.6796875,0.902343745 -0.9140625,0.902343745 -0.328125,0 -0.3984375,-0.222656245 -0.3984375,-0.609374995 0,-0.3046875 0.058594,-0.82031253 0.1054688,-1.13671873 0.011719,-0.140625 0.035156,-0.328125 0.035156,-0.46875 0,-0.7617188 -0.6679687,-1.078125 -0.9374996,-1.1718752 z m 0,0"
       style="fill:#000000;fill-opacity:1;fill-rule:nonzero;stroke:none"
       aria-label="R"
       transform="matrix(1.3333333,0,0,1.3333333,86.690667,145.96133)" />
    <path
       id="path7"
       d="M 0,56.69362 V 28.3468 m 0,0 V 0"
       style="fill:none;stroke:#000000;stroke-width:0.3985;stroke-linecap:butt;stroke-linejoin:miter;stroke-miterlimit:10;stroke-dasharray:none;stroke-opacity:1"
       transform="matrix(1.3333333,0,0,-1.3333333,16.194667,123.928)" />
    <path
       id="path8"
       d="M 0,30.08302 H -1.98425 L 0,25.86647 1.98425,30.08302 Z"
       style="fill:#000000;fill-opacity:1;fill-rule:nonzero;stroke:#000000;stroke-width:0.3985;stroke-linecap:butt;stroke-linejoin:miter;stroke-miterlimit:10;stroke-dasharray:none;stroke-opacity:1"
       transform="matrix(1.3333333,0,0,-1.3333333,16.194667,123.928)" />
    <path
       id="path9"
       d="m 3.7256016,-6.03425 c 0.09375,-0.3632812 0.1171875,-0.4570312 0.9023437,-0.4570312 0.2460938,0 0.3164063,0 0.3164063,-0.1875 0,-0.1289063 -0.1054688,-0.1289063 -0.140625,-0.1289063 -0.2929688,0 -1.03125,0.035156 -1.3125,0.035156 -0.3046875,0 -1.03125,-0.035156 -1.3359375,-0.035156 -0.058594,0 -0.1992188,0 -0.1992188,0.1992188 0,0.1171875 0.09375,0.1171875 0.28125,0.1171875 0.421875,0 0.6914063,0 0.6914063,0.1875 0,0.046875 0,0.070312 -0.023437,0.1640625 l -1.3476563,5.36718745 c -0.082031,0.36328125 -0.1171875,0.46875 -0.90234374,0.46875 -0.22265625,0 -0.31640625,0 -0.31640625,0.19921875 0,0.10546875 0.1171875,0.10546875 0.15234375,0.10546875 0.28125,0 1.00781254,-0.03515625 1.30078124,-0.03515625 0.3046875,0 1.03125,0.03515625 1.3359375,0.03515625 0.082031,0 0.1992188,0 0.1992188,-0.1875 0,-0.1171875 -0.082031,-0.1171875 -0.3046875,-0.1171875 -0.1757813,0 -0.2226563,0 -0.421875,-0.0234375 C 2.3896641,-0.35065625 2.3545078,-0.3858125 2.3545078,-0.503 c 0,-0.0703125 0.011719,-0.15234375 0.035156,-0.22265625 z m 0,0"
       style="fill:#000000;fill-opacity:1;fill-rule:nonzero;stroke:none"
       aria-label="I"
       transform="matrix(1.3333333,0,0,1.3333333,20.888,90.670667)" />
  </g>
</svg>
