<?xml version="1.0" encoding="UTF-8" standalone="no"?>
<!-- Created with Inkscape (http://www.inkscape.org/) -->

<svg
   version="1.1"
   id="svg1"
   width="219.8351"
   height="221.29198"
   viewBox="0 0 219.8351 221.29197"
   xmlns="http://www.w3.org/2000/svg"
   xmlns:svg="http://www.w3.org/2000/svg">
  <defs
     id="defs1">
    <linearGradient
       x1="0"
       y1="0"
       x2="0"
       y2="100.00128"
       gradientUnits="userSpaceOnUse"
       id="linearGradient5">
      <stop
         style="stop-opacity:1;stop-color:#ff4c4c"
         offset="0"
         id="stop1" />
      <stop
         style="stop-opacity:1;stop-color:#ff4c4c"
         offset="0.25"
         id="stop2" />
      <stop
         style="stop-opacity:1;stop-color:#ffe6e6"
         offset="0.5"
         id="stop3" />
      <stop
         style="stop-opacity:1;stop-color:#ff6666"
         offset="0.75"
         id="stop4" />
      <stop
         style="stop-opacity:1;stop-color:#ff6666"
         offset="1"
         id="stop5" />
    </linearGradient>
    <clipPath
       clipPathUnits="userSpaceOnUse"
       id="clipPath6">
      <path
         d="m 187.67396,144.35733 c 0,-43.83612 -35.53517,-79.37129 -79.37129,-79.37129 -43.836123,0 -79.371297,35.53517 -79.371297,79.37129 0,43.83612 35.535174,79.3713 79.371297,79.3713 43.83612,0 79.37129,-35.53518 79.37129,-79.3713 z"
         id="path6" />
    </clipPath>
    <linearGradient
       x1="0"
       y1="0"
       x2="0"
       y2="100.00128"
       gradientUnits="userSpaceOnUse"
       id="linearGradient11">
      <stop
         style="stop-opacity:1;stop-color:#ffffff"
         offset="0"
         id="stop7" />
      <stop
         style="stop-opacity:1;stop-color:#ffffff"
         offset="0.25"
         id="stop8" />
      <stop
         style="stop-opacity:1;stop-color:#ffffff"
         offset="0.5"
         id="stop9" />
      <stop
         style="stop-opacity:1;stop-color:#ffffff"
         offset="0.75"
         id="stop10" />
      <stop
         style="stop-opacity:1;stop-color:#ffffff"
         offset="1"
         id="stop11" />
    </linearGradient>
    <clipPath
       clipPathUnits="userSpaceOnUse"
       id="clipPath12">
      <path
         d="m 180.11437,144.35733 c 0,-39.66098 -32.15072,-71.811703 -71.8117,-71.811703 -39.66099,0 -71.81171,32.150723 -71.81171,71.811703 0,39.66099 32.15072,71.81171 71.81171,71.81171 39.66098,0 71.8117,-32.15072 71.8117,-71.81171 z"
         id="path12" />
    </clipPath>
  </defs>
  <g
     id="g1"
     transform="translate(-13.813339,-17.554688)">
    <g
       id="g5"
       clip-path="url(#clipPath6)">
      <path
         d="M 0,0 H 100 V 100 H 0 Z"
         transform="matrix(3.1752267,0,0,-3.1752267,-50.458667,303.11867)"
         style="fill:url(#linearGradient5);stroke:none"
         id="path5" />
    </g>
    <path
       id="path7"
       d="M 59.52847,0 C 59.52847,32.87709 32.87709,59.52847 0,59.52847 -32.87709,59.52847 -59.52847,32.87709 -59.52847,0 c 0,-32.87709 26.65138,-59.52847 59.52847,-59.52847 32.87709,0 59.52847,26.65138 59.52847,59.52847 z"
       style="fill:none;stroke:#4c4c4c;stroke-width:0.79701;stroke-linecap:butt;stroke-linejoin:miter;stroke-miterlimit:10;stroke-dasharray:none;stroke-opacity:1"
       transform="matrix(1.3333333,0,0,-1.3333333,108.30267,144.35733)" />
    <g
       id="g11"
       clip-path="url(#clipPath12)">
      <path
         d="M 0,0 H 100 V 100 H 0 Z"
         transform="matrix(2.8728,0,0,-2.8728,-35.337333,287.99733)"
         style="fill:url(#linearGradient11);stroke:none"
         id="path11" />
    </g>
    <path
       id="path13"
       d="M 53.85878,0 C 53.85878,29.74574 29.74574,53.85878 0,53.85878 -29.74574,53.85878 -53.85878,29.74574 -53.85878,0 c 0,-29.74574 24.11304,-53.85878 53.85878,-53.85878 29.74574,0 53.85878,24.11304 53.85878,53.85878 z"
       style="fill:none;stroke:#000000;stroke-width:0.79701;stroke-linecap:butt;stroke-linejoin:miter;stroke-miterlimit:10;stroke-dasharray:none;stroke-opacity:1"
       transform="matrix(1.3333333,0,0,-1.3333333,108.30267,144.35733)" />
    <path
       id="path14"
       d="M -70.867,0 H 84.24341"
       style="fill:none;stroke:#000000;stroke-width:0.79701;stroke-linecap:butt;stroke-linejoin:miter;stroke-miterlimit:10;stroke-dasharray:none;stroke-opacity:1"
       transform="matrix(1.3333333,0,0,-1.3333333,108.30267,144.35733)" />
    <path
       id="path15"
       d="M -2.55046,3.11095 C -2.0845,1.24435 -1.04614,0.36295 0,0 -1.04614,-0.36295 -2.0845,-1.24435 -2.55046,-3.11095"
       style="fill:none;stroke:#000000;stroke-width:0.79701;stroke-linecap:round;stroke-linejoin:round;stroke-miterlimit:10;stroke-dasharray:none;stroke-opacity:1"
       transform="matrix(1.3333333,0,0,-1.3333333,221.15856,144.35733)" />
    <path
       id="path16"
       d="m 3.3284531,-3.0125859 c 0.058594,-0.2578125 0.2929688,-1.171875 0.984375,-1.171875 0.046875,0 0.2929688,0 0.5039063,0.1289062 -0.28125,0.046875 -0.4804688,0.3046875 -0.4804688,0.5390625 0,0.1640625 0.1054688,0.3515625 0.375,0.3515625 0.2226563,0 0.5390625,-0.1875 0.5390625,-0.5859375 0,-0.515625 -0.5859375,-0.65625 -0.9257812,-0.65625 -0.5742188,0 -0.9257813,0.5273438 -1.0429688,0.7617188 -0.2578125,-0.65625 -0.7851562,-0.7617188 -1.078125,-0.7617188 -1.0429687,0 -1.60546872,1.2890625 -1.60546872,1.5351563 0,0.1054687 0.10546875,0.1054687 0.1171875,0.1054687 0.0820313,0 0.1171875,-0.023437 0.12890625,-0.1171875 0.33984377,-1.0546875 0.99609377,-1.3007812 1.33593747,-1.3007812 0.1875,0 0.5390625,0.09375 0.5390625,0.6679687 0,0.3046875 -0.1640625,0.9726563 -0.5390625,2.3671875 -0.1523437,0.62109376 -0.5039062,1.04296876 -0.9492187,1.04296876 -0.058594,0 -0.28125002,0 -0.49218752,-0.12890625 0.24609375,-0.0585938 0.46875002,-0.26953125 0.46875002,-0.5390625 0,-0.26953121 -0.22265627,-0.35156251 -0.37500002,-0.35156251 -0.29296875,0 -0.5390625,0.25781251 -0.5390625,0.57421876 0,0.45703125 0.4921875,0.65625 0.93750002,0.65625 0.65625,0 1.0078125,-0.69140625 1.0429687,-0.75 0.1171875,0.36328125 0.4804688,0.75 1.078125,0.75 1.0195313,0 1.59375,-1.27734376 1.59375,-1.53515626 0,-0.09375 -0.09375,-0.09375 -0.1289062,-0.09375 -0.082031,0 -0.1054688,0.035156 -0.1289063,0.1054688 -0.328125,1.06640621 -0.9960937,1.31249996 -1.3242187,1.31249996 -0.3867188,0 -0.5390625,-0.328125 -0.5390625,-0.65625 0,-0.22265625 0.058594,-0.44531246 0.1640625,-0.87890626 z m 0,0"
       style="fill:#000000;fill-opacity:1;fill-rule:nonzero;stroke:none"
       aria-label="x"
       transform="matrix(1.3333333,0,0,1.3333333,226.648,147.216)" />
    <path
       id="path17"
       d="M 0,-70.867 V 84.24341"
       style="fill:none;stroke:#000000;stroke-width:0.79701;stroke-linecap:butt;stroke-linejoin:miter;stroke-miterlimit:10;stroke-dasharray:none;stroke-opacity:1"
       transform="matrix(1.3333333,0,0,-1.3333333,108.30267,144.35733)" />
    <path
       id="path18"
       d="M -2.55046,3.11095 C -2.0845,1.24435 -1.04614,0.36295 0,0 -1.04614,-0.36295 -2.0845,-1.24435 -2.55046,-3.11095"
       style="fill:none;stroke:#000000;stroke-width:0.79701;stroke-linecap:round;stroke-linejoin:round;stroke-miterlimit:10;stroke-dasharray:none;stroke-opacity:1"
       transform="matrix(0,-1.3333333,-1.3333333,0,108.30267,31.50144)" />
    <path
       id="path19"
       d="m 4.8402891,-3.7966094 c 0.046875,-0.140625 0.046875,-0.1523437 0.046875,-0.2226562 0,-0.1875 -0.140625,-0.2695313 -0.2929688,-0.2695313 -0.1054687,0 -0.2578125,0.058594 -0.3515625,0.1992188 -0.023437,0.058594 -0.09375,0.3632812 -0.140625,0.5390625 -0.070312,0.2578125 -0.140625,0.5273437 -0.1992187,0.796875 l -0.4453125,1.79296873 c -0.035156,0.15234375 -0.46875,0.85546875 -1.125,0.85546875 -0.5039063,0 -0.6210938,-0.4453125 -0.6210938,-0.80859375 0,-0.45703123 0.1757813,-1.07812503 0.515625,-1.95703123 0.1523438,-0.4101563 0.1992188,-0.515625 0.1992188,-0.7148438 0,-0.4453125 -0.328125,-0.8203125 -0.8203125,-0.8203125 -0.94921879,0 -1.31250004,1.453125 -1.31250004,1.5351563 0,0.1054687 0.09375,0.1054687 0.1171875,0.1054687 0.09375,0 0.10546875,-0.023437 0.15234375,-0.1875 0.26953125,-0.9375 0.66796879,-1.2304687 1.00781249,-1.2304687 0.082031,0 0.2578125,0 0.2578125,0.3164062 0,0.2460938 -0.1054687,0.515625 -0.1757812,0.703125 -0.3984375,1.0546875 -0.5742188,1.6171875 -0.5742188,2.0859375 0,0.89062503 0.6210938,1.18359378 1.21875,1.18359378 0.3867188,0 0.7265625,-0.1640625 0.9960938,-0.4453125 -0.1289063,0.515625 -0.2460938,1.0078125 -0.6445313,1.53515622 -0.2578125,0.3398438 -0.6328125,0.6328125 -1.0898437,0.6328125 -0.140625,0 -0.59765629,-0.035156 -0.76171879,-0.421875 0.1640625,0 0.29296879,0 0.43359379,-0.1171875 0.09375,-0.09375 0.1992187,-0.2226562 0.1992187,-0.41015622 0,-0.31640625 -0.2695312,-0.3515625 -0.375,-0.3515625 -0.22265624,0 -0.55078124,0.1640625 -0.55078124,0.64453122 0,0.5039063 0.43359375,0.8671875 1.05468754,0.8671875 1.0195312,0 2.0507812,-0.9023437 2.3320312,-2.02734372 z m 0,0"
       style="fill:#000000;fill-opacity:1;fill-rule:nonzero;stroke:none"
       aria-label="y"
       transform="matrix(1.3333333,0,0,1.3333333,104.808,23.429333)" />
    <path
       id="path20"
       d="m 51.91634,28.3468 c 0,1.5564 -1.26169,2.81809 -2.81809,2.81809 -1.5564,0 -2.81808,-1.26169 -2.81808,-2.81809 0,-1.5564 1.26168,-2.81808 2.81808,-2.81808 1.5564,0 2.81809,1.26168 2.81809,2.81808 z"
       style="fill:#000000;fill-opacity:1;fill-rule:nonzero;stroke:none"
       transform="matrix(1.3333333,0,0,-1.3333333,108.30267,144.35733)" />
    <g
       id="g20"
       aria-label="dq&#10;′"
       transform="matrix(1.3333333,0,0,1.3333333,183.01333,110.264)">
      <path
         id="path21"
         d="m 5.1433203,-6.807375 c 0,0 0,-0.1054687 -0.1289062,-0.1054687 -0.1523438,0 -1.1015625,0.09375 -1.265625,0.1054687 -0.082031,0.011719 -0.140625,0.070312 -0.140625,0.1992188 0,0.1171875 0.082031,0.1171875 0.234375,0.1171875 0.4804687,0 0.5039062,0.070312 0.5039062,0.1640625 L 4.3112891,-6.1276875 3.7136328,-3.7605 c -0.1757812,-0.375 -0.46875,-0.6445312 -0.9140625,-0.6445312 -1.171875,0 -2.40234374,1.4648437 -2.40234374,2.9179687 0,0.9375 0.55078125,1.59375 1.32421874,1.59375 0.1992188,0 0.703125,-0.03515625 1.3007813,-0.73828125 0.070312,0.41015625 0.421875,0.73828125 0.9023437,0.73828125 0.3515625,0 0.5742188,-0.22265625 0.7382813,-0.5390625 0.1640625,-0.36328125 0.2929687,-0.9726562 0.2929687,-0.9960937 0,-0.09375 -0.082031,-0.09375 -0.1171875,-0.09375 -0.09375,0 -0.1054687,0.035156 -0.140625,0.1757812 -0.1640625,0.64453125 -0.3515625,1.2421875 -0.75,1.2421875 -0.2695312,0 -0.3046875,-0.2578125 -0.3046875,-0.45703125 0,-0.24609375 0.023437,-0.31640625 0.058594,-0.48046875 z m -2.0742187,5.625 c -0.046875,0.1757813 -0.046875,0.19921875 -0.1992188,0.36328125 -0.4453125,0.55078125 -0.84375,0.71484375 -1.125,0.71484375 -0.5039062,0 -0.6445312,-0.55078125 -0.6445312,-0.9375 0,-0.5039062 0.328125,-1.7226562 0.5507812,-2.1796875 0.3046875,-0.5976562 0.7617188,-0.9609375 1.1601563,-0.9609375 0.6445312,0 0.7851562,0.8203125 0.7851562,0.8789063 0,0.058594 -0.023437,0.1171875 -0.035156,0.1640625 z m 6.6152343,-3.1054687 c 0,-0.046875 -0.023437,-0.1054688 -0.09375,-0.1054688 -0.1171875,0 -0.515625,0.3984375 -0.6796875,0.6914063 -0.2226562,-0.5390625 -0.609375,-0.703125 -0.9257812,-0.703125 -1.171875,0 -2.4023438,1.4765625 -2.4023438,2.9179687 0,0.984375 0.5859375,1.59375 1.3125,1.59375 0.4335938,0 0.8203125,-0.234375 1.1835938,-0.59765625 C 7.9851172,-0.13940625 7.6569922,1.20825 7.6218359,1.302 7.5398047,1.5715313 7.4694922,1.6184063 6.9069922,1.630125 c -0.1289063,0 -0.2226563,0 -0.2226563,0.1992188 0,0 0,0.1054687 0.1289063,0.1054687 0.3164062,0 0.6679687,-0.035156 0.9960937,-0.035156 0.328125,0 0.6914063,0.035156 1.0195313,0.035156 0.046875,0 0.1757812,0 0.1757812,-0.1992187 0,-0.1054688 -0.09375,-0.1054688 -0.2578125,-0.1054688 -0.46875,0 -0.46875,-0.070312 -0.46875,-0.1640625 0,-0.070312 0.011719,-0.1289062 0.035156,-0.2226562 z M 6.9304297,-0.10425 c -0.5976563,0 -0.6445313,-0.7734375 -0.6445313,-0.9375 0,-0.4804687 0.2929688,-1.5703125 0.4570313,-1.9804687 C 7.0593359,-3.7605 7.5749609,-4.182375 7.9851172,-4.182375 c 0.6445312,0 0.7851562,0.8085938 0.7851562,0.8789063 0,0.058594 -0.5507812,2.2382812 -0.5742187,2.2734375 C 8.0437109,-0.74878125 7.4812109,-0.10425 6.9304297,-0.10425 Z m 0,0"
         style="fill:#000000;fill-opacity:1;fill-rule:nonzero;stroke:none" />
      <path
         id="path22"
         d="m 12.019297,-6.9099141 c 0.04687,-0.1171875 0.05859,-0.1757812 0.05859,-0.2226562 0,-0.2109375 -0.199219,-0.3867188 -0.410157,-0.3867188 -0.269531,0 -0.351562,0.2226563 -0.386718,0.328125 l -0.914063,3.0234375 c -0.01172,0.011719 -0.03516,0.1054688 -0.03516,0.1171875 0,0.082031 0.210937,0.1523438 0.269531,0.1523438 0.04687,0 0.05859,-0.023437 0.105469,-0.1289063 z m 0,0"
         style="fill:#000000;fill-opacity:1;fill-rule:nonzero;stroke:none" />
    </g>
    <path
       id="path23"
       d="M 0,0 45.0605,26.01564"
       style="fill:none;stroke:#6b7280;stroke-width:0.79701;stroke-linecap:butt;stroke-linejoin:miter;stroke-miterlimit:10;stroke-dasharray:none;stroke-opacity:1"
       transform="matrix(1.3333333,0,0,-1.3333333,108.30267,144.35733)" />
    <path
       id="path24"
       d="M 4.66248,0 C 3.28098,0.25902 1.0361,1.0361 -0.51805,1.94269 V -1.94269 C 1.0361,-1.0361 3.28098,-0.25902 4.66248,0"
       style="fill:#6b7280;fill-opacity:1;fill-rule:nonzero;stroke:none"
       transform="matrix(1.15468,-0.66664,-0.66664,-1.15468,168.38332,109.66981)" />
    <g
       id="g24"
       aria-label="⃗r&#10;′"
       transform="matrix(1.3333333,0,0,1.3333333,134.46,120.50133)">
      <path
         id="path25"
         d="m 5.3444531,-5.9306875 c -0.1289062,0.1289063 -0.4570312,0.4101563 -0.4570312,0.5859375 0,0.1054688 0.09375,0.1992188 0.1992187,0.1992188 0.082031,0 0.1289063,-0.070312 0.1875,-0.1289063 0.1171875,-0.140625 0.3398438,-0.421875 0.7851563,-0.6445312 0.070312,-0.035156 0.1640625,-0.09375 0.1640625,-0.2109375 0,-0.09375 -0.070312,-0.1523438 -0.140625,-0.1992188 -0.2109375,-0.1523437 -0.328125,-0.328125 -0.3984375,-0.5625 -0.023437,-0.09375 -0.070312,-0.2226562 -0.1992188,-0.2226562 -0.140625,0 -0.1992187,0.1289062 -0.1992187,0.2109375 0,0.046875 0.070312,0.3632812 0.234375,0.5742187 H 2.1569531 c -0.1640625,0 -0.3398437,0 -0.3398437,0.1992188 0,0.1992187 0.1757812,0.1992187 0.3398437,0.1992187 z m -4.1455078,5.34375 c -0.035156,0.15234375 -0.09375,0.375 -0.09375,0.421875 0,0.1875 0.140625,0.26953125 0.2929688,0.26953125 0.1171875,0 0.2929687,-0.0703125 0.3632812,-0.26953125 0.023437,-0.046875 0.3632813,-1.3945312 0.3984375,-1.5820312 0.082031,-0.328125 0.2578125,-1.0195313 0.3164063,-1.2890625 0.046875,-0.1289063 0.328125,-0.5976563 0.5625,-0.8203125 0.082031,-0.070312 0.375,-0.328125 0.796875,-0.328125 0.2578125,0 0.4101562,0.1171875 0.421875,0.1171875 -0.3046875,0.046875 -0.515625,0.2929687 -0.515625,0.5507812 0,0.1640625 0.1054687,0.3515625 0.375,0.3515625 0.2695312,0 0.5507812,-0.234375 0.5507812,-0.5859375 0,-0.3515625 -0.328125,-0.65625 -0.8320312,-0.65625 -0.6445313,0 -1.0898438,0.4921875 -1.2773438,0.7734375 C 2.4762891,-4.0908437 2.1247266,-4.40725 1.6559766,-4.40725 c -0.4570313,0 -0.6445313,0.3867188 -0.73828129,0.5742188 -0.17578125,0.3398437 -0.3046875,0.9375 -0.3046875,0.9609375 0,0.1054687 0.09375,0.1054687 0.1171875,0.1054687 0.09375,0 0.10546875,-0.011719 0.1640625,-0.234375 0.17578129,-0.703125 0.37499999,-1.1835937 0.72656249,-1.1835937 0.1757813,0 0.3164063,0.082031 0.3164063,0.4570312 0,0.2109375 -0.035156,0.3164063 -0.1640625,0.8320313 z m 0,0"
         style="fill:#6b7280;fill-opacity:1;fill-rule:nonzero;stroke:none" />
      <path
         id="path26"
         d="m 8.7751172,-6.9092031 c 0.046875,-0.1171875 0.058594,-0.1757813 0.058594,-0.2226563 0,-0.2109375 -0.1992187,-0.3867187 -0.4101562,-0.3867187 -0.2695313,0 -0.3515625,0.2226562 -0.3867188,0.328125 l -0.9140625,3.0234375 c -0.011719,0.011719 -0.035156,0.1054687 -0.035156,0.1171875 0,0.082031 0.2109375,0.1523437 0.2695312,0.1523437 0.046875,0 0.058594,-0.023437 0.1054688,-0.1289062 z m 0,0"
         style="fill:#6b7280;fill-opacity:1;fill-rule:nonzero;stroke:none" />
    </g>
    <path
       id="path27"
       d="m 4.5350156,-4.9798438 c 0,-0.65625 -0.1875,-2.0390625 -1.1953125,-2.0390625 -1.3828125,0 -2.91796872,2.8007813 -2.91796872,5.0859375 0,0.93750005 0.28125,2.03906255 1.19531252,2.03906255 1.40625,0 2.9179687,-2.85937505 2.9179687,-5.08593755 z m -3.0585937,1.359375 c 0.1640625,-0.6328125 0.3632812,-1.4296875 0.7617187,-2.1328125 0.2695313,-0.4921875 0.6445313,-1.0546875 1.0898438,-1.0546875 0.4921875,0 0.5507812,0.6445313 0.5507812,1.2070313 0,0.4921875 -0.082031,0.9960937 -0.328125,1.9804687 z m 1.9921875,0.328125 c -0.1171875,0.4570313 -0.3164063,1.3007813 -0.703125,2.015625 -0.3398438,0.67968755 -0.7265625,1.17187505 -1.1484375,1.17187505 -0.328125,0 -0.5390625,-0.29296875 -0.5390625,-1.21875005 0,-0.421875 0.058594,-0.9960937 0.3164062,-1.96875 z m 0,0"
       style="fill:#374151;fill-opacity:1;fill-rule:nonzero;stroke:none"
       aria-label="θ"
       transform="matrix(1.3333333,0,0,1.3333333,141.508,139.18667)" />
    <path
       id="path28"
       d="m 34.01608,0 c 0,5.9695 -1.57272,11.83835 -4.55722,17.00803"
       style="fill:none;stroke:#374151;stroke-width:0.79701;stroke-linecap:butt;stroke-linejoin:miter;stroke-miterlimit:10;stroke-dasharray:none;stroke-opacity:1"
       transform="matrix(1.3333333,0,0,-1.3333333,108.30267,144.35733)" />
    <path
       id="path29"
       d="M 1.49442,0 C 1.49442,0.82533 0.82533,1.49442 0,1.49442 -0.82533,1.49442 -1.49442,0.82533 -1.49442,0 c 0,-0.82533 0.66909,-1.49442 1.49442,-1.49442 0.82533,0 1.49442,0.66909 1.49442,1.49442 z"
       style="fill:#000000;fill-opacity:1;fill-rule:nonzero;stroke:none"
       transform="matrix(1.3333333,0,0,-1.3333333,108.30267,144.35733)" />
    <path
       id="path30"
       d="m 7.3717266,-4.3485078 c 0,-1.59375 -1.0546875,-2.671875 -2.5429688,-2.671875 -2.1445312,0 -4.33593749,2.2617187 -4.33593749,4.5820312 0,1.65234379 1.11328129,2.66015629 2.54296879,2.66015629 2.109375,0 4.3359375,-2.17968749 4.3359375,-4.57031249 z m -4.2773438,4.31249999 c -0.984375,0 -1.6757812,-0.80859375 -1.6757812,-2.12109379 0,-0.4453125 0.140625,-1.8984375 0.9023437,-3.0585937 0.6914063,-1.0429688 1.6640625,-1.5585938 2.4492188,-1.5585938 0.8203125,0 1.7109375,0.5625 1.7109375,2.0390625 0,0.7148438 -0.2695313,2.2734375 -1.2539063,3.5039063 -0.4804687,0.59765624 -1.2890625,1.19531249 -2.1328125,1.19531249 z m 0,0"
       style="fill:#000000;fill-opacity:1;fill-rule:nonzero;stroke:none"
       aria-label="O"
       transform="matrix(1.3333333,0,0,1.3333333,90.964,160.27067)" />
  </g>
</svg>
