<?xml version="1.0" encoding="UTF-8" standalone="no"?>
<!-- Created with Inkscape (http://www.inkscape.org/) -->

<svg
   version="1.1"
   id="svg1"
   width="183.01358"
   height="55.191792"
   viewBox="0 0 183.01358 55.191792"
   xmlns="http://www.w3.org/2000/svg"
   xmlns:svg="http://www.w3.org/2000/svg">
  <defs
     id="defs1" />
  <g
     id="g1"
     transform="translate(-13.283367,-13.283367)">
    <path
       id="path1"
       d="M 11.33871,0 C 11.33871,6.26227 6.26227,11.33871 0,11.33871 -6.26227,11.33871 -11.33871,6.26227 -11.33871,0 c 0,-6.26227 5.07644,-11.33871 11.33871,-11.33871 6.26227,0 11.33871,5.07644 11.33871,11.33871 z"
       style="fill:#dae5eb;fill-opacity:1;fill-rule:nonzero;stroke:#457b9d;stroke-width:1.19553;stroke-linecap:butt;stroke-linejoin:miter;stroke-miterlimit:10;stroke-dasharray:none;stroke-opacity:1"
       transform="matrix(1.3333333,0,0,-1.3333333,29.198667,29.198667)" />
    <g
       id="g2"
       aria-label="q&#10;1"
       transform="matrix(1.3333333,0,0,1.3333333,23.254667,30.766667)">
      <path
         id="path2"
         d="m 4.4994297,-4.2898437 c 0,-0.046875 -0.023437,-0.1054688 -0.09375,-0.1054688 -0.1171875,0 -0.515625,0.3984375 -0.6796875,0.6914063 -0.2226563,-0.5390625 -0.609375,-0.703125 -0.9257813,-0.703125 -1.171875,0 -2.40234371,1.4765625 -2.40234371,2.9179687 0,0.984375 0.5859375,1.59375 1.31250001,1.59375 0.4335937,0 0.8203125,-0.234375 1.1835937,-0.59765625 C 2.8002109,-0.14140625 2.4720859,1.20625 2.4369297,1.3 2.3548984,1.5695313 2.2845859,1.6164063 1.7220859,1.628125 c -0.1289062,0 -0.2226562,0 -0.2226562,0.1992188 0,0 0,0.1054687 0.1289062,0.1054687 0.3164063,0 0.6679688,-0.035156 0.9960938,-0.035156 0.328125,0 0.6914062,0.035156 1.0195312,0.035156 0.046875,0 0.1757813,0 0.1757813,-0.1992187 0,-0.1054688 -0.09375,-0.1054688 -0.2578125,-0.1054688 -0.46875,0 -0.46875,-0.070312 -0.46875,-0.1640625 0,-0.070312 0.011719,-0.1289062 0.035156,-0.2226562 z M 1.7455234,-0.10625 c -0.5976562,0 -0.6445312,-0.7734375 -0.6445312,-0.9375 0,-0.4804687 0.2929687,-1.5703125 0.4570312,-1.9804687 C 1.8744297,-3.7625 2.3900547,-4.184375 2.8002109,-4.184375 c 0.6445313,0 0.7851563,0.8085938 0.7851563,0.8789063 0,0.058594 -0.5507813,2.2382812 -0.5742188,2.2734375 C 2.8588047,-0.75078125 2.2963047,-0.10625 1.7455234,-0.10625 Z m 0,0"
         style="fill:#000000;fill-opacity:1;fill-rule:nonzero;stroke:none" />
      <path
         id="path3"
         d="m 6.7787266,-2.9333984 c 0,-0.1875 -0.011719,-0.1992188 -0.2109375,-0.1992188 -0.4453125,0.4335938 -1.078125,0.4453125 -1.359375,0.4453125 v 0.2460938 c 0.1640625,0 0.6210937,0 1.0078125,-0.1875 v 3.55078121 c 0,0.23437499 0,0.32812499 -0.6914063,0.32812499 H 5.2552891 v 0.2460938 c 0.1289062,-0.011719 0.984375,-0.023437 1.2421875,-0.023437 0.2109375,0 1.0898437,0.011719 1.2421875,0.023437 V 1.2501953 H 7.4818516 c -0.703125,0 -0.703125,-0.09375 -0.703125,-0.32812499 z m 0,0"
         style="fill:#000000;fill-opacity:1;fill-rule:nonzero;stroke:none" />
    </g>
    <path
       id="path4"
       d="m 124.72595,0 c 0,6.26227 -5.07645,11.33871 -11.33871,11.33871 -6.26229,0 -11.33872,-5.07644 -11.33872,-11.33871 0,-6.26227 5.07643,-11.33871 11.33872,-11.33871 6.26226,0 11.33871,5.07644 11.33871,11.33871 z"
       style="fill:#fad7da;fill-opacity:1;fill-rule:nonzero;stroke:#e63946;stroke-width:1.19553;stroke-linecap:butt;stroke-linejoin:miter;stroke-miterlimit:10;stroke-dasharray:none;stroke-opacity:1"
       transform="matrix(1.3333333,0,0,-1.3333333,29.198667,29.198667)" />
    <g
       id="g4"
       aria-label="q&#10;2"
       transform="matrix(1.3333333,0,0,1.3333333,174.43467,30.766667)">
      <path
         id="path5"
         d="m 4.4991953,-4.2898437 c 0,-0.046875 -0.023437,-0.1054688 -0.09375,-0.1054688 -0.1171875,0 -0.515625,0.3984375 -0.6796875,0.6914063 -0.2226562,-0.5390625 -0.609375,-0.703125 -0.9257812,-0.703125 -1.171875,0 -2.40234379,1.4765625 -2.40234379,2.9179687 0,0.984375 0.5859375,1.59375 1.31249999,1.59375 0.4335938,0 0.8203125,-0.234375 1.1835938,-0.59765625 C 2.7999766,-0.14140625 2.4718516,1.20625 2.4366953,1.3 2.3546641,1.5695313 2.2843516,1.6164063 1.7218516,1.628125 c -0.1289063,0 -0.2226563,0 -0.2226563,0.1992188 0,0 0,0.1054687 0.1289063,0.1054687 0.3164062,0 0.6679687,-0.035156 0.9960937,-0.035156 0.328125,0 0.6914063,0.035156 1.0195313,0.035156 0.046875,0 0.1757812,0 0.1757812,-0.1992187 0,-0.1054688 -0.09375,-0.1054688 -0.2578125,-0.1054688 -0.46875,0 -0.46875,-0.070312 -0.46875,-0.1640625 0,-0.070312 0.011719,-0.1289062 0.035156,-0.2226562 z M 1.7452891,-0.10625 c -0.5976563,0 -0.6445313,-0.7734375 -0.6445313,-0.9375 0,-0.4804687 0.2929688,-1.5703125 0.4570313,-1.9804687 C 1.8741953,-3.7625 2.3898203,-4.184375 2.7999766,-4.184375 c 0.6445312,0 0.7851562,0.8085938 0.7851562,0.8789063 0,0.058594 -0.5507812,2.2382812 -0.5742187,2.2734375 C 2.8585703,-0.75078125 2.2960703,-0.10625 1.7452891,-0.10625 Z m 0,0"
         style="fill:#000000;fill-opacity:1;fill-rule:nonzero;stroke:none" />
      <path
         id="path6"
         d="m 7.9650156,0.23066406 h -0.234375 c -0.023437,0.15234375 -0.082031,0.5625 -0.1757812,0.6328125 -0.058594,0.0351563 -0.5976563,0.0351563 -0.6914063,0.0351563 H 5.5743906 c 0.7382813,-0.64453125 0.984375,-0.84375 1.3945313,-1.171875 0.515625,-0.41015625 0.9960937,-0.84374996 0.9960937,-1.49999996 0,-0.84375 -0.7382812,-1.359375 -1.6289062,-1.359375 -0.8671875,0 -1.453125,0.609375 -1.453125,1.2421875 0,0.3632813 0.3046875,0.3984375 0.375,0.3984375 0.1640625,0 0.375,-0.1171875 0.375,-0.375 0,-0.1289062 -0.058594,-0.3632812 -0.421875,-0.3632812 0.2226562,-0.5039063 0.6914062,-0.65625 1.0195312,-0.65625 0.703125,0 1.0664063,0.5507812 1.0664063,1.1132812 0,0.609375 -0.4335938,1.08984371 -0.65625,1.33593746 l -1.6875,1.66406254 c -0.070312,0.058594 -0.070312,0.070312 -0.070312,0.2695313 h 2.8828125 z m 0,0"
         style="fill:#000000;fill-opacity:1;fill-rule:nonzero;stroke:none" />
    </g>
    <path
       id="path7"
       d="m 11.93646,0 h 89.5143"
       style="fill:none;stroke:#6b7280;stroke-width:0.79701;stroke-linecap:butt;stroke-linejoin:miter;stroke-miterlimit:10;stroke-dasharray:2.98883, 2.98883;stroke-dashoffset:0;stroke-opacity:1"
       transform="matrix(1.3333333,0,0,-1.3333333,29.198667,29.198667)" />
    <path
       id="path8"
       d="M 0.96207,-22.67752 H 112.42516"
       style="fill:none;stroke:#6b7280;stroke-width:0.79701;stroke-linecap:butt;stroke-linejoin:miter;stroke-miterlimit:10;stroke-dasharray:none;stroke-opacity:1"
       transform="matrix(1.3333333,0,0,-1.3333333,29.198667,29.198667)" />
    <path
       id="path9"
       d="M 0,3.08846 3.08846,0 0,-3.08846"
       style="fill:none;stroke:#6b7280;stroke-width:0.79701;stroke-linecap:butt;stroke-linejoin:miter;stroke-miterlimit:10;stroke-dasharray:none;stroke-opacity:1"
       transform="matrix(-1.3333333,0,0,1.3333333,34.068027,59.43536)" />
    <path
       id="path10"
       d="M 0,3.08846 3.08846,0 0,-3.08846"
       style="fill:none;stroke:#6b7280;stroke-width:0.79701;stroke-linecap:butt;stroke-linejoin:miter;stroke-miterlimit:10;stroke-dasharray:none;stroke-opacity:1"
       transform="matrix(1.3333333,0,0,-1.3333333,175.51227,59.43536)" />
    <path
       id="path11"
       d="m 50.7803,-29.45737 h 11.82661 v 13.55971 H 50.7803 Z"
       style="fill:#ffffff;fill-opacity:1;fill-rule:nonzero;stroke:none"
       transform="matrix(1.3333333,0,0,-1.3333333,29.198667,29.198667)" />
    <path
       id="path12"
       d="m 5.1445547,-6.8094375 c 0,0 0,-0.1054687 -0.1289063,-0.1054687 -0.1523437,0 -1.1015625,0.09375 -1.265625,0.1054687 -0.082031,0.011719 -0.140625,0.070312 -0.140625,0.1992188 0,0.1171875 0.082031,0.1171875 0.234375,0.1171875 0.4804688,0 0.5039063,0.070312 0.5039063,0.1640625 L 4.3125234,-6.12975 3.7148672,-3.7625625 c -0.1757813,-0.375 -0.46875,-0.6445312 -0.9140625,-0.6445312 -1.171875,0 -2.40234376,1.4648437 -2.40234376,2.9179687 0,0.9375 0.55078125,1.59375 1.32421876,1.59375 0.1992187,0 0.703125,-0.03515625 1.3007812,-0.73828125 C 3.0937734,-0.2235 3.4453359,0.104625 3.9258047,0.104625 c 0.3515625,0 0.5742187,-0.22265625 0.7382812,-0.5390625 0.1640625,-0.36328125 0.2929688,-0.9726562 0.2929688,-0.9960937 0,-0.09375 -0.082031,-0.09375 -0.1171875,-0.09375 -0.09375,0 -0.1054688,0.035156 -0.140625,0.1757812 -0.1640625,0.64453125 -0.3515625,1.2421875 -0.75,1.2421875 -0.2695313,0 -0.3046875,-0.2578125 -0.3046875,-0.45703125 0,-0.24609375 0.023437,-0.31640625 0.058594,-0.48046875 z m -2.0742188,5.625 c -0.046875,0.1757813 -0.046875,0.19921875 -0.1992187,0.36328125 -0.4453125,0.55078125 -0.84375,0.71484375 -1.125,0.71484375 -0.5039063,0 -0.6445313,-0.55078125 -0.6445313,-0.9375 0,-0.5039062 0.328125,-1.7226562 0.5507813,-2.1796875 0.3046875,-0.5976562 0.7617187,-0.9609375 1.1601562,-0.9609375 0.6445313,0 0.7851563,0.8203125 0.7851563,0.8789063 0,0.058594 -0.023437,0.1171875 -0.035156,0.1640625 z m 0,0"
       style="fill:#374151;fill-opacity:1;fill-rule:nonzero;stroke:none"
       aria-label="d"
       transform="matrix(1.3333333,0,0,1.3333333,101.332,64.048)" />
  </g>
</svg>
