<?xml version="1.0" encoding="UTF-8" standalone="no"?>
<!-- Created with Inkscape (http://www.inkscape.org/) -->

<svg
   version="1.1"
   id="svg1"
   width="258.60507"
   height="76.913429"
   viewBox="0 0 258.60507 76.913427"
   xmlns="http://www.w3.org/2000/svg"
   xmlns:svg="http://www.w3.org/2000/svg">
  <defs
     id="defs1" />
  <g
     id="g1"
     transform="translate(-13.283367,-13.283368)">
    <path
       id="path1"
       d="M 11.33871,0 C 11.33871,6.26227 6.26227,11.33871 0,11.33871 -6.26227,11.33871 -11.33871,6.26227 -11.33871,0 c 0,-6.26227 5.07644,-11.33871 11.33871,-11.33871 6.26227,0 11.33871,5.07644 11.33871,11.33871 z"
       style="fill:#fad7da;fill-opacity:1;fill-rule:nonzero;stroke:#e63946;stroke-width:1.19553;stroke-linecap:butt;stroke-linejoin:miter;stroke-miterlimit:10;stroke-dasharray:none;stroke-opacity:1"
       transform="matrix(1.3333333,0,0,-1.3333333,29.198667,29.198667)" />
    <g
       id="g2"
       aria-label="q&#10;1"
       transform="matrix(1.3333333,0,0,1.3333333,23.254667,30.766667)">
      <path
         id="path2"
         d="m 4.4994297,-4.2898437 c 0,-0.046875 -0.023437,-0.1054688 -0.09375,-0.1054688 -0.1171875,0 -0.515625,0.3984375 -0.6796875,0.6914063 -0.2226563,-0.5390625 -0.609375,-0.703125 -0.9257813,-0.703125 -1.171875,0 -2.40234371,1.4765625 -2.40234371,2.9179687 0,0.984375 0.5859375,1.59375 1.31250001,1.59375 0.4335937,0 0.8203125,-0.234375 1.1835937,-0.59765625 C 2.8002109,-0.14140625 2.4720859,1.20625 2.4369297,1.3 2.3548984,1.5695313 2.2845859,1.6164063 1.7220859,1.628125 c -0.1289062,0 -0.2226562,0 -0.2226562,0.1992188 0,0 0,0.1054687 0.1289062,0.1054687 0.3164063,0 0.6679688,-0.035156 0.9960938,-0.035156 0.328125,0 0.6914062,0.035156 1.0195312,0.035156 0.046875,0 0.1757813,0 0.1757813,-0.1992187 0,-0.1054688 -0.09375,-0.1054688 -0.2578125,-0.1054688 -0.46875,0 -0.46875,-0.070312 -0.46875,-0.1640625 0,-0.070312 0.011719,-0.1289062 0.035156,-0.2226562 z M 1.7455234,-0.10625 c -0.5976562,0 -0.6445312,-0.7734375 -0.6445312,-0.9375 0,-0.4804687 0.2929687,-1.5703125 0.4570312,-1.9804687 C 1.8744297,-3.7625 2.3900547,-4.184375 2.8002109,-4.184375 c 0.6445313,0 0.7851563,0.8085938 0.7851563,0.8789063 0,0.058594 -0.5507813,2.2382812 -0.5742188,2.2734375 C 2.8588047,-0.75078125 2.2963047,-0.10625 1.7455234,-0.10625 Z m 0,0"
         style="fill:#000000;fill-opacity:1;fill-rule:nonzero;stroke:none" />
      <path
         id="path3"
         d="m 6.7787266,-2.9333984 c 0,-0.1875 -0.011719,-0.1992188 -0.2109375,-0.1992188 -0.4453125,0.4335938 -1.078125,0.4453125 -1.359375,0.4453125 v 0.2460938 c 0.1640625,0 0.6210937,0 1.0078125,-0.1875 v 3.55078121 c 0,0.23437499 0,0.32812499 -0.6914063,0.32812499 H 5.2552891 v 0.2460938 c 0.1289062,-0.011719 0.984375,-0.023437 1.2421875,-0.023437 0.2109375,0 1.0898437,0.011719 1.2421875,0.023437 V 1.2501953 H 7.4818516 c -0.703125,0 -0.703125,-0.09375 -0.703125,-0.32812499 z m 0,0"
         style="fill:#000000;fill-opacity:1;fill-rule:nonzero;stroke:none" />
    </g>
    <path
       id="path4"
       d="m 181.41957,0 c 0,6.26227 -5.07645,11.33871 -11.33871,11.33871 -6.26229,0 -11.33872,-5.07644 -11.33872,-11.33871 0,-6.26227 5.07643,-11.33871 11.33872,-11.33871 6.26226,0 11.33871,5.07644 11.33871,11.33871 z"
       style="fill:#fad7da;fill-opacity:1;fill-rule:nonzero;stroke:#e63946;stroke-width:1.19553;stroke-linecap:butt;stroke-linejoin:miter;stroke-miterlimit:10;stroke-dasharray:none;stroke-opacity:1"
       transform="matrix(1.3333333,0,0,-1.3333333,29.198667,29.198667)" />
    <g
       id="g4"
       aria-label="q&#10;2"
       transform="matrix(1.3333333,0,0,1.3333333,250.02533,30.766667)">
      <path
         id="path5"
         d="m 4.4985781,-4.2898437 c 0,-0.046875 -0.023437,-0.1054688 -0.09375,-0.1054688 -0.1171875,0 -0.515625,0.3984375 -0.6796875,0.6914063 -0.2226562,-0.5390625 -0.609375,-0.703125 -0.9257812,-0.703125 -1.171875,0 -2.40234378,1.4765625 -2.40234378,2.9179687 0,0.984375 0.5859375,1.59375 1.31249998,1.59375 0.4335938,0 0.8203125,-0.234375 1.1835938,-0.59765625 C 2.7993594,-0.14140625 2.4712344,1.20625 2.4360781,1.3 2.3540469,1.5695313 2.2837344,1.6164063 1.7212344,1.628125 c -0.1289063,0 -0.2226563,0 -0.2226563,0.1992188 0,0 0,0.1054687 0.1289063,0.1054687 0.3164062,0 0.6679687,-0.035156 0.9960937,-0.035156 0.328125,0 0.6914063,0.035156 1.0195313,0.035156 0.046875,0 0.1757812,0 0.1757812,-0.1992187 0,-0.1054688 -0.09375,-0.1054688 -0.2578125,-0.1054688 -0.46875,0 -0.46875,-0.070312 -0.46875,-0.1640625 0,-0.070312 0.011719,-0.1289062 0.035156,-0.2226562 z M 1.7446719,-0.10625 c -0.5976563,0 -0.6445313,-0.7734375 -0.6445313,-0.9375 0,-0.4804687 0.2929688,-1.5703125 0.4570313,-1.9804687 C 1.8735781,-3.7625 2.3892031,-4.184375 2.7993594,-4.184375 c 0.6445312,0 0.7851562,0.8085938 0.7851562,0.8789063 0,0.058594 -0.5507812,2.2382812 -0.5742187,2.2734375 C 2.8579531,-0.75078125 2.2954531,-0.10625 1.7446719,-0.10625 Z m 0,0"
         style="fill:#000000;fill-opacity:1;fill-rule:nonzero;stroke:none" />
      <path
         id="path6"
         d="m 7.9643984,0.23066406 h -0.234375 c -0.023437,0.15234375 -0.082031,0.5625 -0.1757812,0.6328125 -0.058594,0.0351563 -0.5976563,0.0351563 -0.6914063,0.0351563 H 5.5737734 c 0.7382813,-0.64453125 0.984375,-0.84375 1.3945313,-1.171875 0.515625,-0.41015625 0.9960937,-0.84374996 0.9960937,-1.49999996 0,-0.84375 -0.7382812,-1.359375 -1.6289062,-1.359375 -0.8671875,0 -1.453125,0.609375 -1.453125,1.2421875 0,0.3632813 0.3046875,0.3984375 0.375,0.3984375 0.1640625,0 0.375,-0.1171875 0.375,-0.375 0,-0.1289062 -0.058594,-0.3632812 -0.421875,-0.3632812 0.2226562,-0.5039063 0.6914062,-0.65625 1.0195312,-0.65625 0.703125,0 1.0664063,0.5507812 1.0664063,1.1132812 0,0.609375 -0.4335938,1.08984371 -0.65625,1.33593746 l -1.6875,1.66406254 c -0.070312,0.058594 -0.070312,0.070312 -0.070312,0.2695313 h 2.8828125 z m 0,0"
         style="fill:#000000;fill-opacity:1;fill-rule:nonzero;stroke:none" />
    </g>
    <path
       id="path7"
       d="m 81.78053,0 c 0,6.26227 -5.07643,11.33871 -11.33871,11.33871 C 64.17955,11.33871 59.1031,6.26227 59.1031,0 c 0,-6.26227 5.07645,-11.33871 11.33872,-11.33871 6.26228,0 11.33871,5.07644 11.33871,11.33871 z"
       style="fill:#e1e3e6;fill-opacity:1;fill-rule:nonzero;stroke:#6b7280;stroke-width:1.19553;stroke-linecap:butt;stroke-linejoin:miter;stroke-miterlimit:10;stroke-dasharray:none;stroke-opacity:1"
       transform="matrix(1.3333333,0,0,-1.3333333,29.198667,29.198667)" />
    <g
       id="g7"
       aria-label="q&#10;3"
       transform="matrix(1.3333333,0,0,1.3333333,117.17467,30.766667)">
      <path
         id="path8"
         d="m 4.5008359,-4.2898437 c 0,-0.046875 -0.023437,-0.1054688 -0.09375,-0.1054688 -0.1171875,0 -0.515625,0.3984375 -0.6796875,0.6914063 -0.2226562,-0.5390625 -0.609375,-0.703125 -0.9257812,-0.703125 -1.171875,0 -2.40234376,1.4765625 -2.40234376,2.9179687 0,0.984375 0.5859375,1.59375 1.31249996,1.59375 0.4335938,0 0.8203125,-0.234375 1.1835938,-0.59765625 C 2.8016172,-0.14140625 2.4734922,1.20625 2.4383359,1.3 2.3563047,1.5695313 2.2859922,1.6164063 1.7234922,1.628125 c -0.1289063,0 -0.2226563,0 -0.2226563,0.1992188 0,0 0,0.1054687 0.1289063,0.1054687 0.3164062,0 0.6679687,-0.035156 0.9960937,-0.035156 0.328125,0 0.6914063,0.035156 1.0195313,0.035156 0.046875,0 0.1757812,0 0.1757812,-0.1992187 0,-0.1054688 -0.09375,-0.1054688 -0.2578125,-0.1054688 -0.46875,0 -0.46875,-0.070312 -0.46875,-0.1640625 0,-0.070312 0.011719,-0.1289062 0.035156,-0.2226562 z M 1.7469297,-0.10625 c -0.5976563,0 -0.6445313,-0.7734375 -0.6445313,-0.9375 0,-0.4804687 0.2929688,-1.5703125 0.4570313,-1.9804687 C 1.8758359,-3.7625 2.3914609,-4.184375 2.8016172,-4.184375 c 0.6445312,0 0.7851562,0.8085938 0.7851562,0.8789063 0,0.058594 -0.5507812,2.2382812 -0.5742187,2.2734375 C 2.8602109,-0.75078125 2.2977109,-0.10625 1.7469297,-0.10625 Z m 0,0"
         style="fill:#000000;fill-opacity:1;fill-rule:nonzero;stroke:none" />
      <path
         id="path9"
         d="m 6.3465391,-0.83574219 c 0.5507812,0 0.9375,0.375 0.9375,1.125 0,0.86718749 -0.5039063,1.12499999 -0.9023438,1.12499999 -0.28125,0 -0.890625,-0.082031 -1.1835937,-0.49218749 0.328125,-0.0117188 0.3984375,-0.24609375 0.3984375,-0.38671875 0,-0.22265625 -0.1640625,-0.38671875 -0.3867188,-0.38671875 -0.1875,0 -0.3867187,0.1171875 -0.3867187,0.41015625 0,0.65625004 0.7265625,1.07812504 1.5703125,1.07812504 0.9726562,0 1.640625,-0.64453129 1.640625,-1.34765629 0,-0.5390625 -0.4453125,-1.08984375 -1.21875,-1.2421875 0.7382812,-0.26953121 0.9960937,-0.79687501 0.9960937,-1.21875001 0,-0.5507812 -0.6328125,-0.9609375 -1.40625,-0.9609375 -0.7734375,0 -1.359375,0.375 -1.359375,0.9375 0,0.234375 0.1523438,0.3632813 0.3632813,0.3632813 0.2109375,0 0.3515625,-0.1640625 0.3515625,-0.3515625 0,-0.1992188 -0.140625,-0.3515625 -0.3515625,-0.3632813 0.234375,-0.3046875 0.7148437,-0.3867187 0.9726562,-0.3867187 0.3164063,0 0.7617188,0.1523437 0.7617188,0.7617187 0,0.2929688 -0.1054688,0.609375 -0.28125,0.8320313 -0.234375,0.2578125 -0.421875,0.28125 -0.7734375,0.2929687 -0.1757813,0.023437 -0.1875,0.023437 -0.2226563,0.023437 -0.011719,0 -0.070312,0.011719 -0.070312,0.09375 0,0.09375 0.058594,0.09375 0.1757813,0.09375 z m 0,0"
         style="fill:#000000;fill-opacity:1;fill-rule:nonzero;stroke:none" />
    </g>
    <path
       id="path10"
       d="M 11.93646,0 H 158.14438"
       style="fill:none;stroke:#000000;stroke-width:0.3985;stroke-linecap:butt;stroke-linejoin:miter;stroke-miterlimit:10;stroke-dasharray:2.98883, 2.98883;stroke-dashoffset:0;stroke-opacity:1"
       transform="matrix(1.3333333,0,0,-1.3333333,29.198667,29.198667)" />
    <path
       id="path11"
       d="m 81.78053,0 c 0,6.26227 -5.07643,11.33871 -11.33871,11.33871 C 64.17955,11.33871 59.1031,6.26227 59.1031,0 c 0,-6.26227 5.07645,-11.33871 11.33872,-11.33871 6.26228,0 11.33871,5.07644 11.33871,11.33871 z"
       style="fill:#e1e3e6;fill-opacity:1;fill-rule:nonzero;stroke:#6b7280;stroke-width:1.19553;stroke-linecap:butt;stroke-linejoin:miter;stroke-miterlimit:10;stroke-dasharray:none;stroke-opacity:1"
       transform="matrix(1.3333333,0,0,-1.3333333,29.198667,29.198667)" />
    <g
       id="g11"
       aria-label="q&#10;3"
       transform="matrix(1.3333333,0,0,1.3333333,117.17467,30.766667)">
      <path
         id="path12"
         d="m 4.5008359,-4.2898437 c 0,-0.046875 -0.023437,-0.1054688 -0.09375,-0.1054688 -0.1171875,0 -0.515625,0.3984375 -0.6796875,0.6914063 -0.2226562,-0.5390625 -0.609375,-0.703125 -0.9257812,-0.703125 -1.171875,0 -2.40234376,1.4765625 -2.40234376,2.9179687 0,0.984375 0.5859375,1.59375 1.31249996,1.59375 0.4335938,0 0.8203125,-0.234375 1.1835938,-0.59765625 C 2.8016172,-0.14140625 2.4734922,1.20625 2.4383359,1.3 2.3563047,1.5695313 2.2859922,1.6164063 1.7234922,1.628125 c -0.1289063,0 -0.2226563,0 -0.2226563,0.1992188 0,0 0,0.1054687 0.1289063,0.1054687 0.3164062,0 0.6679687,-0.035156 0.9960937,-0.035156 0.328125,0 0.6914063,0.035156 1.0195313,0.035156 0.046875,0 0.1757812,0 0.1757812,-0.1992187 0,-0.1054688 -0.09375,-0.1054688 -0.2578125,-0.1054688 -0.46875,0 -0.46875,-0.070312 -0.46875,-0.1640625 0,-0.070312 0.011719,-0.1289062 0.035156,-0.2226562 z M 1.7469297,-0.10625 c -0.5976563,0 -0.6445313,-0.7734375 -0.6445313,-0.9375 0,-0.4804687 0.2929688,-1.5703125 0.4570313,-1.9804687 C 1.8758359,-3.7625 2.3914609,-4.184375 2.8016172,-4.184375 c 0.6445312,0 0.7851562,0.8085938 0.7851562,0.8789063 0,0.058594 -0.5507812,2.2382812 -0.5742187,2.2734375 C 2.8602109,-0.75078125 2.2977109,-0.10625 1.7469297,-0.10625 Z m 0,0"
         style="fill:#000000;fill-opacity:1;fill-rule:nonzero;stroke:none" />
      <path
         id="path13"
         d="m 6.3465391,-0.83574219 c 0.5507812,0 0.9375,0.375 0.9375,1.125 0,0.86718749 -0.5039063,1.12499999 -0.9023438,1.12499999 -0.28125,0 -0.890625,-0.082031 -1.1835937,-0.49218749 0.328125,-0.0117188 0.3984375,-0.24609375 0.3984375,-0.38671875 0,-0.22265625 -0.1640625,-0.38671875 -0.3867188,-0.38671875 -0.1875,0 -0.3867187,0.1171875 -0.3867187,0.41015625 0,0.65625004 0.7265625,1.07812504 1.5703125,1.07812504 0.9726562,0 1.640625,-0.64453129 1.640625,-1.34765629 0,-0.5390625 -0.4453125,-1.08984375 -1.21875,-1.2421875 0.7382812,-0.26953121 0.9960937,-0.79687501 0.9960937,-1.21875001 0,-0.5507812 -0.6328125,-0.9609375 -1.40625,-0.9609375 -0.7734375,0 -1.359375,0.375 -1.359375,0.9375 0,0.234375 0.1523438,0.3632813 0.3632813,0.3632813 0.2109375,0 0.3515625,-0.1640625 0.3515625,-0.3515625 0,-0.1992188 -0.140625,-0.3515625 -0.3515625,-0.3632813 0.234375,-0.3046875 0.7148437,-0.3867187 0.9726562,-0.3867187 0.3164063,0 0.7617188,0.1523437 0.7617188,0.7617187 0,0.2929688 -0.1054688,0.609375 -0.28125,0.8320313 -0.234375,0.2578125 -0.421875,0.28125 -0.7734375,0.2929687 -0.1757813,0.023437 -0.1875,0.023437 -0.2226563,0.023437 -0.011719,0 -0.070312,0.011719 -0.070312,0.09375 0,0.09375 0.058594,0.09375 0.1757813,0.09375 z m 0,0"
         style="fill:#000000;fill-opacity:1;fill-rule:nonzero;stroke:none" />
    </g>
    <path
       id="path14"
       d="m 0.96207,-20.44058 h 168.1567"
       style="fill:none;stroke:#6b7280;stroke-width:0.79701;stroke-linecap:butt;stroke-linejoin:miter;stroke-miterlimit:10;stroke-dasharray:none;stroke-opacity:1"
       transform="matrix(1.3333333,0,0,-1.3333333,29.198667,29.198667)" />
    <path
       id="path15"
       d="M 0,3.08846 3.08846,0 0,-3.08846"
       style="fill:none;stroke:#6b7280;stroke-width:0.79701;stroke-linecap:butt;stroke-linejoin:miter;stroke-miterlimit:10;stroke-dasharray:none;stroke-opacity:1"
       transform="matrix(-1.3333333,0,0,1.3333333,34.068027,56.452773)" />
    <path
       id="path16"
       d="M 0,3.08846 3.08846,0 0,-3.08846"
       style="fill:none;stroke:#6b7280;stroke-width:0.79701;stroke-linecap:butt;stroke-linejoin:miter;stroke-miterlimit:10;stroke-dasharray:none;stroke-opacity:1"
       transform="matrix(1.3333333,0,0,-1.3333333,251.10376,56.452773)" />
    <path
       id="path17"
       d="m 79.1271,-27.22044 h 11.82661 v 13.55971 H 79.1271 Z"
       style="fill:#ffffff;fill-opacity:1;fill-rule:nonzero;stroke:none"
       transform="matrix(1.3333333,0,0,-1.3333333,29.198667,29.198667)" />
    <path
       id="path18"
       d="m 5.1452109,-6.8077891 c 0,0 0,-0.1054687 -0.1289062,-0.1054687 -0.1523438,0 -1.1015625,0.09375 -1.265625,0.1054687 -0.082031,0.011719 -0.140625,0.070312 -0.140625,0.1992188 0,0.1171875 0.082031,0.1171875 0.234375,0.1171875 0.4804687,0 0.5039062,0.070312 0.5039062,0.1640625 l -0.035156,0.1992187 -0.5976563,2.3671875 c -0.1757812,-0.375 -0.46875,-0.6445312 -0.9140625,-0.6445312 -1.171875,0 -2.40234371,1.4648437 -2.40234371,2.9179687 0,0.93750004 0.55078125,1.59375004 1.32421871,1.59375004 0.1992188,0 0.703125,-0.03515625 1.3007813,-0.73828125 0.070312,0.41015625 0.421875,0.73828125 0.9023437,0.73828125 0.3515625,0 0.5742188,-0.22265625 0.7382813,-0.5390625 0.1640625,-0.36328125 0.2929687,-0.97265624 0.2929687,-0.99609374 0,-0.09375 -0.082031,-0.09375 -0.1171875,-0.09375 -0.09375,0 -0.1054687,0.035156 -0.140625,0.1757812 -0.1640625,0.64453129 -0.3515625,1.24218754 -0.75,1.24218754 -0.2695312,0 -0.3046875,-0.2578125 -0.3046875,-0.45703125 0,-0.24609375 0.023437,-0.31640625 0.058594,-0.48046879 z m -2.0742187,5.625 c -0.046875,0.1757813 -0.046875,0.19921879 -0.1992188,0.36328129 -0.4453125,0.55078125 -0.84375,0.71484375 -1.125,0.71484375 -0.5039062,0 -0.6445312,-0.55078125 -0.6445312,-0.93750004 0,-0.5039062 0.328125,-1.7226562 0.5507812,-2.1796875 0.3046875,-0.5976562 0.7617188,-0.9609375 1.1601563,-0.9609375 0.6445312,0 0.7851562,0.8203125 0.7851562,0.8789063 0,0.058594 -0.023437,0.1171875 -0.035156,0.1640625 z m 0,0"
       style="fill:#374151;fill-opacity:1;fill-rule:nonzero;stroke:none"
       aria-label="d"
       transform="matrix(1.3333333,0,0,1.3333333,139.128,61.065333)" />
    <path
       id="path19"
       d="M 0.96207,-40.28328 H 69.47975"
       style="fill:none;stroke:#6b7280;stroke-width:0.79701;stroke-linecap:butt;stroke-linejoin:miter;stroke-miterlimit:10;stroke-dasharray:none;stroke-opacity:1"
       transform="matrix(1.3333333,0,0,-1.3333333,29.198667,29.198667)" />
    <path
       id="path20"
       d="M 0,3.08846 3.08846,0 0,-3.08846"
       style="fill:none;stroke:#6b7280;stroke-width:0.79701;stroke-linecap:butt;stroke-linejoin:miter;stroke-miterlimit:10;stroke-dasharray:none;stroke-opacity:1"
       transform="matrix(-1.3333333,0,0,1.3333333,34.068027,82.909707)" />
    <path
       id="path21"
       d="M 0,3.08846 3.08846,0 0,-3.08846"
       style="fill:none;stroke:#6b7280;stroke-width:0.79701;stroke-linecap:butt;stroke-linejoin:miter;stroke-miterlimit:10;stroke-dasharray:none;stroke-opacity:1"
       transform="matrix(1.3333333,0,0,-1.3333333,118.25173,82.909707)" />
    <path
       id="path22"
       d="m 29.05334,-45.7486 h 12.33511 v 10.93063 H 29.05334 Z"
       style="fill:#ffffff;fill-opacity:1;fill-rule:nonzero;stroke:none"
       transform="matrix(1.3333333,0,0,-1.3333333,29.198667,29.198667)" />
    <path
       id="path23"
       d="m 3.3285859,-3.0115703 c 0.058594,-0.2578125 0.2929688,-1.171875 0.984375,-1.171875 0.046875,0 0.2929688,0 0.5039063,0.1289062 -0.28125,0.046875 -0.4804688,0.3046875 -0.4804688,0.5390625 0,0.1640625 0.1054688,0.3515625 0.375,0.3515625 0.2226563,0 0.5390625,-0.1875 0.5390625,-0.5859375 0,-0.515625 -0.5859375,-0.65625 -0.9257812,-0.65625 -0.5742188,0 -0.9257813,0.5273438 -1.0429688,0.7617188 -0.2578125,-0.65625 -0.7851562,-0.7617188 -1.078125,-0.7617188 -1.0429687,0 -1.60546871,1.2890625 -1.60546871,1.5351563 0,0.1054687 0.10546875,0.1054687 0.1171875,0.1054687 0.0820313,0 0.1171875,-0.023437 0.12890625,-0.1171875 0.33984376,-1.0546875 0.99609376,-1.3007812 1.33593746,-1.3007812 0.1875,0 0.5390625,0.09375 0.5390625,0.6679687 0,0.3046875 -0.1640625,0.9726563 -0.5390625,2.3671875 -0.1523437,0.62109379 -0.5039062,1.04296879 -0.9492187,1.04296879 -0.058594,0 -0.28125001,0 -0.49218751,-0.12890625 0.24609375,-0.0585937 0.46875001,-0.26953125 0.46875001,-0.5390625 0,-0.26953124 -0.22265626,-0.35156254 -0.37500001,-0.35156254 -0.29296875,0 -0.5390625,0.25781254 -0.5390625,0.57421879 0,0.45703125 0.4921875,0.65625 0.93750001,0.65625 0.65625,0 1.0078125,-0.69140625 1.0429687,-0.75 0.1171875,0.36328125 0.4804688,0.75 1.078125,0.75 1.0195313,0 1.59375,-1.27734379 1.59375,-1.53515629 0,-0.09375 -0.09375,-0.09375 -0.1289062,-0.09375 -0.082031,0 -0.1054688,0.035156 -0.1289063,0.1054688 -0.328125,1.06640624 -0.9960937,1.31249999 -1.3242187,1.31249999 -0.3867188,0 -0.5390625,-0.328125 -0.5390625,-0.65625 0,-0.22265625 0.058594,-0.44531249 0.1640625,-0.87890629 z m 0,0"
       style="fill:#374151;fill-opacity:1;fill-rule:nonzero;stroke:none"
       aria-label="x"
       transform="matrix(1.3333333,0,0,1.3333333,72.362667,85.769333)" />
  </g>
</svg>
