<?xml version="1.0" encoding="UTF-8" standalone="no"?>
<!-- Created with Inkscape (http://www.inkscape.org/) -->

<svg
   version="1.1"
   id="svg1"
   width="258.60507"
   height="81.320717"
   viewBox="0 0 258.60507 81.320717"
   xmlns="http://www.w3.org/2000/svg"
   xmlns:svg="http://www.w3.org/2000/svg">
  <defs
     id="defs1" />
  <g
     id="g1"
     transform="translate(-13.283367,-17.71875)">
    <path
       id="path1"
       d="M 11.33871,0 C 11.33871,6.26227 6.26227,11.33871 0,11.33871 -6.26227,11.33871 -11.33871,6.26227 -11.33871,0 c 0,-6.26227 5.07644,-11.33871 11.33871,-11.33871 6.26227,0 11.33871,5.07644 11.33871,11.33871 z"
       style="fill:#fad7da;fill-opacity:1;fill-rule:nonzero;stroke:#e63946;stroke-width:1.19553;stroke-linecap:butt;stroke-linejoin:miter;stroke-miterlimit:10;stroke-dasharray:none;stroke-opacity:1"
       transform="matrix(1.3333333,0,0,-1.3333333,29.198667,38.041333)" />
    <path
       id="path2"
       d="m 4.5010703,-4.2890313 c 0,-0.046875 -0.023437,-0.1054687 -0.09375,-0.1054687 -0.1171875,0 -0.515625,0.3984375 -0.6796875,0.6914062 -0.2226562,-0.5390625 -0.609375,-0.703125 -0.9257812,-0.703125 -1.171875,0 -2.40234379,1.4765625 -2.40234379,2.9179688 0,0.984375 0.5859375,1.59375 1.31249999,1.59375 0.4335938,0 0.8203125,-0.234375 1.1835938,-0.59765625 -0.09375,0.3515625 -0.421875,1.69921875 -0.4570313,1.79296875 -0.082031,0.2695312 -0.1523437,0.3164062 -0.7148437,0.328125 -0.1289063,0 -0.2226563,0 -0.2226563,0.1992187 0,0 0,0.1054688 0.1289063,0.1054688 0.3164062,0 0.6679687,-0.035156 0.9960937,-0.035156 0.328125,0 0.6914063,0.035156 1.0195313,0.035156 0.046875,0 0.1757812,0 0.1757812,-0.1992188 0,-0.1054687 -0.09375,-0.1054687 -0.2578125,-0.1054687 -0.46875,0 -0.46875,-0.070312 -0.46875,-0.1640625 0,-0.070312 0.011719,-0.1289063 0.035156,-0.2226563 z m -2.7539062,4.1835938 c -0.5976563,0 -0.6445313,-0.7734375 -0.6445313,-0.9375 0,-0.4804688 0.2929688,-1.5703125 0.4570313,-1.9804688 0.3164062,-0.7382812 0.8320312,-1.1601562 1.2421875,-1.1601562 0.6445312,0 0.7851562,0.8085937 0.7851562,0.8789062 0,0.058594 -0.5507812,2.2382813 -0.5742187,2.2734375 -0.1523438,0.28125005 -0.7148438,0.9257813 -1.265625,0.9257813 z m 0,0"
       style="fill:#000000;fill-opacity:1;fill-rule:nonzero;stroke:none"
       aria-label="q"
       transform="matrix(1.3333333,0,0,1.3333333,25.994667,39.609333)" />
    <path
       id="path3"
       d="m 181.41957,0 c 0,6.26227 -5.07645,11.33871 -11.33871,11.33871 -6.26229,0 -11.33872,-5.07644 -11.33872,-11.33871 0,-6.26227 5.07643,-11.33871 11.33872,-11.33871 6.26226,0 11.33871,5.07644 11.33871,11.33871 z"
       style="fill:#fad7da;fill-opacity:1;fill-rule:nonzero;stroke:#e63946;stroke-width:1.19553;stroke-linecap:butt;stroke-linejoin:miter;stroke-miterlimit:10;stroke-dasharray:none;stroke-opacity:1"
       transform="matrix(1.3333333,0,0,-1.3333333,29.198667,38.041333)" />
    <g
       id="g3"
       aria-label="2q"
       transform="matrix(1.3333333,0,0,1.3333333,249.44667,41.030667)">
      <path
         id="path4"
         d="M 1.2646094,-0.76128125 2.3192969,-1.7925313 c 1.5585937,-1.3710937 2.15625,-1.9101562 2.15625,-2.90625 0,-1.1367187 -0.9023438,-1.9335937 -2.1210938,-1.9335937 -1.125,0 -1.85156247,0.9140625 -1.85156247,1.8046875 0,0.5507812 0.4921875,0.5507812 0.52734377,0.5507812 0.1640625,0 0.515625,-0.1171875 0.515625,-0.5273437 0,-0.2578125 -0.1875,-0.515625 -0.5273438,-0.515625 -0.0820312,0 -0.10546872,0 -0.12890622,0.011719 0.22265622,-0.6445312 0.76171872,-1.0195312 1.33593752,-1.0195312 0.9140625,0 1.3359375,0.8085937 1.3359375,1.6289062 0,0.796875 -0.4921875,1.5820313 -1.0429688,2.203125 L 0.60835938,-0.36284375 C 0.50289063,-0.257375 0.50289063,-0.2339375 0.50289063,4.375e-4 H 4.1942969 l 0.28125,-1.734375 H 4.2177344 c -0.046875,0.3046875 -0.1171875,0.73828125 -0.2109375,0.890625 -0.070313,0.0820313 -0.7265625,0.0820313 -0.9492188,0.0820313 z m 0,0"
         style="fill:#000000;fill-opacity:1;fill-rule:nonzero;stroke:none" />
      <path
         id="path5"
         d="m 9.4823828,-4.288625 c 0,-0.046875 -0.023437,-0.1054688 -0.09375,-0.1054688 -0.1171875,0 -0.515625,0.3984375 -0.6796875,0.6914063 -0.2226562,-0.5390625 -0.609375,-0.703125 -0.9257812,-0.703125 -1.171875,0 -2.4023438,1.4765625 -2.4023438,2.9179687 0,0.98437505 0.5859375,1.59375005 1.3125,1.59375005 0.4335938,0 0.8203125,-0.234375 1.1835938,-0.59765625 -0.09375,0.3515625 -0.421875,1.6992187 -0.4570313,1.7929687 -0.082031,0.2695313 -0.1523437,0.3164063 -0.7148437,0.328125 -0.1289063,0 -0.2226563,0 -0.2226563,0.1992188 0,0 0,0.1054687 0.1289063,0.1054687 0.3164062,0 0.6679687,-0.035156 0.9960937,-0.035156 0.328125,0 0.6914063,0.035156 1.0195313,0.035156 0.046875,0 0.1757812,0 0.1757812,-0.1992187 0,-0.1054688 -0.09375,-0.1054688 -0.2578125,-0.1054688 -0.46875,0 -0.46875,-0.070312 -0.46875,-0.1640625 0,-0.070312 0.011719,-0.1289062 0.035156,-0.2226562 z m -2.7539062,4.18359375 c -0.5976563,0 -0.6445313,-0.7734375 -0.6445313,-0.93750005 0,-0.4804687 0.2929688,-1.5703125 0.4570313,-1.9804687 0.3164062,-0.7382813 0.8320312,-1.1601563 1.2421875,-1.1601563 0.6445312,0 0.7851562,0.8085938 0.7851562,0.8789063 0,0.058594 -0.5507812,2.2382812 -0.5742187,2.2734375 -0.1523438,0.28125 -0.7148438,0.92578125 -1.265625,0.92578125 z m 0,0"
         style="fill:#000000;fill-opacity:1;fill-rule:nonzero;stroke:none" />
    </g>
    <path
       id="path6"
       d="M 11.93646,0 H 158.14438"
       style="fill:none;stroke:#000000;stroke-width:0.3985;stroke-linecap:butt;stroke-linejoin:miter;stroke-miterlimit:10;stroke-dasharray:2.98883, 2.98883;stroke-dashoffset:0;stroke-opacity:1"
       transform="matrix(1.3333333,0,0,-1.3333333,29.198667,38.041333)" />
    <path
       id="path7"
       d="m 0.96207,-20.44058 h 168.1567"
       style="fill:none;stroke:#6b7280;stroke-width:0.79701;stroke-linecap:butt;stroke-linejoin:miter;stroke-miterlimit:10;stroke-dasharray:none;stroke-opacity:1"
       transform="matrix(1.3333333,0,0,-1.3333333,29.198667,38.041333)" />
    <path
       id="path8"
       d="M 0,3.08846 3.08846,0 0,-3.08846"
       style="fill:none;stroke:#6b7280;stroke-width:0.79701;stroke-linecap:butt;stroke-linejoin:miter;stroke-miterlimit:10;stroke-dasharray:none;stroke-opacity:1"
       transform="matrix(-1.3333333,0,0,1.3333333,34.068027,65.29544)" />
    <path
       id="path9"
       d="M 0,3.08846 3.08846,0 0,-3.08846"
       style="fill:none;stroke:#6b7280;stroke-width:0.79701;stroke-linecap:butt;stroke-linejoin:miter;stroke-miterlimit:10;stroke-dasharray:none;stroke-opacity:1"
       transform="matrix(1.3333333,0,0,-1.3333333,251.10376,65.29544)" />
    <path
       id="path10"
       d="m 79.1271,-27.22044 h 11.82661 v 13.55971 H 79.1271 Z"
       style="fill:#ffffff;fill-opacity:1;fill-rule:nonzero;stroke:none"
       transform="matrix(1.3333333,0,0,-1.3333333,29.198667,38.041333)" />
    <path
       id="path11"
       d="m 5.1452109,-6.8099062 c 0,0 0,-0.1054688 -0.1289062,-0.1054688 -0.1523438,0 -1.1015625,0.09375 -1.265625,0.1054688 -0.082031,0.011719 -0.140625,0.070312 -0.140625,0.1992187 0,0.1171875 0.082031,0.1171875 0.234375,0.1171875 0.4804687,0 0.5039062,0.070312 0.5039062,0.1640625 l -0.035156,0.1992188 -0.5976563,2.3671875 c -0.1757812,-0.375 -0.46875,-0.6445313 -0.9140625,-0.6445313 -1.171875,0 -2.40234371,1.4648438 -2.40234371,2.9179688 0,0.93749995 0.55078125,1.59374995 1.32421871,1.59374995 0.1992188,0 0.703125,-0.03515625 1.3007813,-0.73828125 0.070312,0.41015625 0.421875,0.73828125 0.9023437,0.73828125 0.3515625,0 0.5742188,-0.22265625 0.7382813,-0.5390625 C 4.8288047,-0.7981875 4.9577109,-1.4075625 4.9577109,-1.431 c 0,-0.09375 -0.082031,-0.09375 -0.1171875,-0.09375 -0.09375,0 -0.1054687,0.035156 -0.140625,0.1757813 -0.1640625,0.6445312 -0.3515625,1.24218745 -0.75,1.24218745 -0.2695312,0 -0.3046875,-0.2578125 -0.3046875,-0.45703125 0,-0.24609375 0.023437,-0.31640625 0.058594,-0.4804687 z m -2.0742187,5.625 c -0.046875,0.1757812 -0.046875,0.1992187 -0.1992188,0.3632812 -0.4453125,0.55078125 -0.84375,0.71484375 -1.125,0.71484375 -0.5039062,0 -0.6445312,-0.55078125 -0.6445312,-0.93749995 0,-0.5039063 0.328125,-1.7226563 0.5507812,-2.1796875 0.3046875,-0.5976563 0.7617188,-0.9609375 1.1601563,-0.9609375 0.6445312,0 0.7851562,0.8203125 0.7851562,0.8789062 0,0.058594 -0.023437,0.1171875 -0.035156,0.1640625 z m 0,0"
       style="fill:#6b7280;fill-opacity:1;fill-rule:nonzero;stroke:none"
       aria-label="d"
       transform="matrix(1.3333333,0,0,1.3333333,139.128,69.908)" />
    <path
       id="path12"
       d="m 81.78053,0 c 0,6.26227 -5.07643,11.33871 -11.33871,11.33871 C 64.17955,11.33871 59.1031,6.26227 59.1031,0 c 0,-6.26227 5.07645,-11.33871 11.33872,-11.33871 6.26228,0 11.33871,5.07644 11.33871,11.33871 z"
       style="fill:#e1e3e6;fill-opacity:1;fill-rule:nonzero;stroke:#6b7280;stroke-width:1.19553;stroke-linecap:butt;stroke-linejoin:miter;stroke-miterlimit:10;stroke-dasharray:none;stroke-opacity:1"
       transform="matrix(1.3333333,0,0,-1.3333333,29.198667,38.041333)" />
    <g
       id="g12"
       aria-label="q&#10;3"
       transform="matrix(1.3333333,0,0,1.3333333,117.17467,39.609333)">
      <path
         id="path13"
         d="m 4.5008359,-4.2890313 c 0,-0.046875 -0.023437,-0.1054687 -0.09375,-0.1054687 -0.1171875,0 -0.515625,0.3984375 -0.6796875,0.6914062 -0.2226562,-0.5390625 -0.609375,-0.703125 -0.9257812,-0.703125 -1.171875,0 -2.40234376,1.4765625 -2.40234376,2.9179688 0,0.984375 0.5859375,1.59375 1.31249996,1.59375 0.4335938,0 0.8203125,-0.234375 1.1835938,-0.59765625 -0.09375,0.3515625 -0.421875,1.69921875 -0.4570313,1.79296875 -0.082031,0.2695312 -0.1523437,0.3164062 -0.7148437,0.328125 -0.1289063,0 -0.2226563,0 -0.2226563,0.1992187 0,0 0,0.1054688 0.1289063,0.1054688 0.3164062,0 0.6679687,-0.035156 0.9960937,-0.035156 0.328125,0 0.6914063,0.035156 1.0195313,0.035156 0.046875,0 0.1757812,0 0.1757812,-0.1992188 0,-0.1054687 -0.09375,-0.1054687 -0.2578125,-0.1054687 -0.46875,0 -0.46875,-0.070312 -0.46875,-0.1640625 0,-0.070312 0.011719,-0.1289063 0.035156,-0.2226563 z m -2.7539062,4.1835938 c -0.5976563,0 -0.6445313,-0.7734375 -0.6445313,-0.9375 0,-0.4804688 0.2929688,-1.5703125 0.4570313,-1.9804688 0.3164062,-0.7382812 0.8320312,-1.1601562 1.2421875,-1.1601562 0.6445312,0 0.7851562,0.8085937 0.7851562,0.8789062 0,0.058594 -0.5507812,2.2382813 -0.5742187,2.2734375 -0.1523438,0.28125005 -0.7148438,0.9257813 -1.265625,0.9257813 z m 0,0"
         style="fill:#000000;fill-opacity:1;fill-rule:nonzero;stroke:none" />
      <path
         id="path14"
         d="m 6.3465391,-0.83785938 c 0.5507812,0 0.9375,0.375 0.9375,1.125 0,0.86718748 -0.5039063,1.12499998 -0.9023438,1.12499998 -0.28125,0 -0.890625,-0.082031 -1.1835937,-0.49218748 0.328125,-0.0117188 0.3984375,-0.24609375 0.3984375,-0.38671875 0,-0.22265625 -0.1640625,-0.38671875 -0.3867188,-0.38671875 -0.1875,0 -0.3867187,0.1171875 -0.3867187,0.41015625 0,0.65625003 0.7265625,1.07812503 1.5703125,1.07812503 0.9726562,0 1.640625,-0.64453128 1.640625,-1.34765628 0,-0.5390625 -0.4453125,-1.08984375 -1.21875,-1.2421875 0.7382812,-0.26953122 0.9960937,-0.79687502 0.9960937,-1.21875002 0,-0.5507812 -0.6328125,-0.9609375 -1.40625,-0.9609375 -0.7734375,0 -1.359375,0.375 -1.359375,0.9375 0,0.234375 0.1523438,0.3632813 0.3632813,0.3632813 0.2109375,0 0.3515625,-0.1640625 0.3515625,-0.3515625 0,-0.1992188 -0.140625,-0.3515625 -0.3515625,-0.3632813 0.234375,-0.3046875 0.7148437,-0.3867187 0.9726562,-0.3867187 0.3164063,0 0.7617188,0.1523437 0.7617188,0.7617187 0,0.2929688 -0.1054688,0.609375 -0.28125,0.8320313 -0.234375,0.2578125 -0.421875,0.28125 -0.7734375,0.2929687 -0.1757813,0.023437 -0.1875,0.023437 -0.2226563,0.023437 -0.011719,0 -0.070312,0.011719 -0.070312,0.09375 0,0.09375 0.058594,0.09375 0.1757813,0.09375 z m 0,0"
         style="fill:#000000;fill-opacity:1;fill-rule:nonzero;stroke:none" />
    </g>
    <path
       id="path15"
       d="M 0.96207,-40.28328 H 69.47975"
       style="fill:none;stroke:#6b7280;stroke-width:0.79701;stroke-linecap:butt;stroke-linejoin:miter;stroke-miterlimit:10;stroke-dasharray:none;stroke-opacity:1"
       transform="matrix(1.3333333,0,0,-1.3333333,29.198667,38.041333)" />
    <path
       id="path16"
       d="M 0,3.08846 3.08846,0 0,-3.08846"
       style="fill:none;stroke:#6b7280;stroke-width:0.79701;stroke-linecap:butt;stroke-linejoin:miter;stroke-miterlimit:10;stroke-dasharray:none;stroke-opacity:1"
       transform="matrix(-1.3333333,0,0,1.3333333,34.068027,91.752373)" />
    <path
       id="path17"
       d="M 0,3.08846 3.08846,0 0,-3.08846"
       style="fill:none;stroke:#6b7280;stroke-width:0.79701;stroke-linecap:butt;stroke-linejoin:miter;stroke-miterlimit:10;stroke-dasharray:none;stroke-opacity:1"
       transform="matrix(1.3333333,0,0,-1.3333333,118.25173,91.752373)" />
    <path
       id="path18"
       d="m 29.05334,-45.7486 h 12.33511 v 10.93063 H 29.05334 Z"
       style="fill:#ffffff;fill-opacity:1;fill-rule:nonzero;stroke:none"
       transform="matrix(1.3333333,0,0,-1.3333333,29.198667,38.041333)" />
    <path
       id="path19"
       d="m 3.3285859,-3.0107578 c 0.058594,-0.2578125 0.2929688,-1.171875 0.984375,-1.171875 0.046875,0 0.2929688,0 0.5039063,0.1289062 -0.28125,0.046875 -0.4804688,0.3046875 -0.4804688,0.5390625 0,0.1640625 0.1054688,0.3515625 0.375,0.3515625 0.2226563,0 0.5390625,-0.1875 0.5390625,-0.5859375 0,-0.515625 -0.5859375,-0.65625 -0.9257812,-0.65625 -0.5742188,0 -0.9257813,0.5273438 -1.0429688,0.7617188 -0.2578125,-0.65625 -0.7851562,-0.7617188 -1.078125,-0.7617188 -1.0429687,0 -1.60546871,1.2890625 -1.60546871,1.5351563 0,0.1054687 0.10546875,0.1054687 0.1171875,0.1054687 0.0820313,0 0.1171875,-0.023437 0.12890625,-0.1171875 0.33984376,-1.0546875 0.99609376,-1.3007812 1.33593746,-1.3007812 0.1875,0 0.5390625,0.09375 0.5390625,0.6679687 0,0.3046875 -0.1640625,0.9726563 -0.5390625,2.3671875 -0.1523437,0.62109379 -0.5039062,1.04296879 -0.9492187,1.04296879 -0.058594,0 -0.28125001,0 -0.49218751,-0.12890625 0.24609375,-0.0585937 0.46875001,-0.26953125 0.46875001,-0.5390625 0,-0.26953124 -0.22265626,-0.35156254 -0.37500001,-0.35156254 -0.29296875,0 -0.5390625,0.25781254 -0.5390625,0.57421879 0,0.45703125 0.4921875,0.65625 0.93750001,0.65625 0.65625,0 1.0078125,-0.69140625 1.0429687,-0.75 0.1171875,0.36328125 0.4804688,0.75 1.078125,0.75 1.0195313,0 1.59375,-1.27734379 1.59375,-1.53515629 0,-0.09375 -0.09375,-0.09375 -0.1289062,-0.09375 -0.082031,0 -0.1054688,0.035156 -0.1289063,0.1054688 -0.328125,1.06640624 -0.9960937,1.31249999 -1.3242187,1.31249999 -0.3867188,0 -0.5390625,-0.328125 -0.5390625,-0.65625 0,-0.22265625 0.058594,-0.44531249 0.1640625,-0.87890629 z m 0,0"
       style="fill:#6b7280;fill-opacity:1;fill-rule:nonzero;stroke:none"
       aria-label="x"
       transform="matrix(1.3333333,0,0,1.3333333,72.362667,94.612)" />
    <path
       id="path20"
       d="M 58.50536,0 H 22.79964"
       style="fill:none;stroke:#1d3557;stroke-width:1.59404;stroke-linecap:butt;stroke-linejoin:miter;stroke-miterlimit:10;stroke-dasharray:none;stroke-opacity:1"
       transform="matrix(1.3333333,0,0,-1.3333333,29.198667,38.041333)" />
    <path
       id="path21"
       d="M 6.81448,0 C 4.79533,0.37857 1.51433,1.51433 -0.75716,2.83936 V -2.83936 C 1.51433,-1.51433 4.79533,-0.37857 6.81448,0"
       style="fill:#1d3557;fill-opacity:1;fill-rule:nonzero;stroke:none"
       transform="matrix(-1.3333333,0,0,1.3333333,59.598187,38.041333)" />
    <g
       id="g21"
       aria-label="⃗&#10;F&#10;31"
       transform="matrix(1.3333333,0,0,1.3333333,59.58,27.201333)">
      <path
         id="path22"
         d="m 5.3423437,-5.9283438 c -0.1289062,0.1289063 -0.4570312,0.4101563 -0.4570312,0.5859375 0,0.1054688 0.09375,0.1992188 0.1992187,0.1992188 0.082031,0 0.1289063,-0.070312 0.1875,-0.1289063 0.1171875,-0.140625 0.3398438,-0.421875 0.7851563,-0.6445312 0.070312,-0.035156 0.1640625,-0.09375 0.1640625,-0.2109375 0,-0.09375 -0.070312,-0.1523438 -0.140625,-0.1992188 -0.2109375,-0.1523437 -0.328125,-0.328125 -0.3984375,-0.5625 -0.023437,-0.09375 -0.070312,-0.2226562 -0.1992188,-0.2226562 -0.140625,0 -0.1992187,0.1289062 -0.1992187,0.2109375 0,0.046875 0.070312,0.3632812 0.234375,0.5742187 H 2.1548437 c -0.1640625,0 -0.3398437,0 -0.3398437,0.1992188 0,0.1992187 0.1757812,0.1992187 0.3398437,0.1992187 z m -3.7880859,5.21191411 h 0.9609375 c 0.75,0 0.8320313,0.15234375 0.8320313,0.4453125 0,0.0703125 0,0.1875 -0.070312,0.4921875 -0.023437,0.046875 -0.035156,0.0820313 -0.035156,0.10546875 0,0.0820313 0.058594,0.1171875 0.1171875,0.1171875 0.1054688,0 0.1054688,-0.0234375 0.1523438,-0.2109375 L 4.0620703,-1.9234609 c 0.023437,-0.1054688 0.023437,-0.1289063 0.023437,-0.1640625 0,-0.011719 -0.011719,-0.1054688 -0.1171875,-0.1054688 -0.09375,0 -0.1054687,0.046875 -0.1523437,0.2109375 -0.1992188,0.7734375 -0.4335938,0.9492188 -1.2773438,0.9492188 h -0.914062 l 0.6445313,-2.53125 c 0.082031,-0.3398438 0.09375,-0.3867188 0.5390625,-0.3867188 h 1.3125 c 1.21875,0 1.453125,0.328125 1.453125,1.1015625 0,0.2226563 0,0.2695313 -0.035156,0.5390625 -0.011719,0.1289063 -0.011719,0.140625 -0.011719,0.1757813 0,0.046875 0.023437,0.1171875 0.1171875,0.1171875 0.1054687,0 0.1171875,-0.058594 0.140625,-0.2460938 L 5.9839453,-3.9859609 C 6.0073828,-4.2554922 5.9605078,-4.2554922 5.7144141,-4.2554922 H 0.82769531 c -0.19921875,0 -0.29296875,0 -0.29296875,0.1992188 0,0.1054687 0.09375,0.1054687 0.28125,0.1054687 0.36328124,0 0.64453124,0 0.64453124,0.1875 0,0.035156 0,0.058594 -0.046875,0.234375 L 0.08941406,1.7445078 c -0.09375,0.3867188 -0.1171875,0.46875 -0.90234375,0.46875 -0.1640625,0 -0.28125001,0 -0.28125001,0.1875 0,0.1171875 0.12890626,0.1171875 0.15234376,0.1171875 0.29296875,0 1.03125,-0.035156 1.3125,-0.035156 0.328125,0 1.16015624,0.035156 1.48828124,0.035156 0.09375,0 0.2109375,0 0.2109375,-0.1875 0,-0.082031 -0.058594,-0.1054687 -0.058594,-0.1171875 -0.035156,0 -0.058594,0 -0.28125,0 -0.2226563,0 -0.2695313,0 -0.515625,-0.023437 -0.29296879,-0.035156 -0.32812504,-0.070312 -0.32812504,-0.1992187 0,-0.023437 0,-0.082031 0.046875,-0.234375 z m 0,0"
         style="fill:#1d3557;fill-opacity:1;fill-rule:nonzero;stroke:none" />
      <path
         id="path23"
         d="m 6.8364844,1.6800547 c 0.5507812,0 0.9375,0.375 0.9375,1.125 0,0.8671875 -0.5039063,1.125 -0.9023438,1.125 -0.28125,0 -0.890625,-0.082031 -1.1835937,-0.4921875 0.328125,-0.011719 0.3984375,-0.2460938 0.3984375,-0.3867188 0,-0.2226562 -0.1640625,-0.3867187 -0.3867188,-0.3867187 -0.1875,0 -0.3867187,0.1171875 -0.3867187,0.4101562 0,0.65625 0.7265625,1.078125 1.5703125,1.078125 0.9726562,0 1.640625,-0.6445312 1.640625,-1.3476562 0,-0.5390625 -0.4453125,-1.0898438 -1.21875,-1.2421875 0.7382812,-0.2695313 0.9960937,-0.79687501 0.9960937,-1.21875001 0,-0.55078125 -0.6328125,-0.9609375 -1.40625,-0.9609375 -0.7734375,0 -1.359375,0.375 -1.359375,0.9375 0,0.234375 0.1523438,0.36328125 0.3632813,0.36328125 0.2109375,0 0.3515625,-0.1640625 0.3515625,-0.3515625 0,-0.19921875 -0.140625,-0.3515625 -0.3515625,-0.36328125 0.234375,-0.3046875 0.7148437,-0.38671875 0.9726562,-0.38671875 0.3164063,0 0.7617188,0.15234375 0.7617188,0.76171875 0,0.29296875 -0.1054688,0.609375 -0.28125,0.83203121 -0.234375,0.2578125 -0.421875,0.28125 -0.7734375,0.2929688 -0.1757813,0.023437 -0.1875,0.023437 -0.2226563,0.023437 -0.011719,0 -0.070312,0.011719 -0.070312,0.09375 0,0.09375 0.058594,0.09375 0.1757813,0.09375 z m 4.4062496,-2.09765626 c 0,-0.1875 -0.01172,-0.19921875 -0.210937,-0.19921875 -0.445313,0.43359375 -1.0781251,0.4453125 -1.3593751,0.4453125 v 0.24609375 c 0.1640625,0 0.6210941,0 1.0078121,-0.1875 V 3.4378672 c 0,0.234375 0,0.328125 -0.6914059,0.328125 H 9.7192969 v 0.2460937 c 0.1289062,-0.011719 0.9843751,-0.023437 1.2421871,-0.023437 0.210938,0 1.089844,0.011719 1.242188,0.023437 V 3.7659922 h -0.257813 c -0.703125,0 -0.703125,-0.09375 -0.703125,-0.328125 z m 0,0"
         style="fill:#1d3557;fill-opacity:1;fill-rule:nonzero;stroke:none" />
    </g>
    <path
       id="path24"
       d="m 82.3783,0 h 35.70571"
       style="fill:none;stroke:#1d3557;stroke-width:1.59404;stroke-linecap:butt;stroke-linejoin:miter;stroke-miterlimit:10;stroke-dasharray:none;stroke-opacity:1"
       transform="matrix(1.3333333,0,0,-1.3333333,29.198667,38.041333)" />
    <path
       id="path25"
       d="M 6.81448,0 C 4.79533,0.37857 1.51433,1.51433 -0.75716,2.83936 V -2.83936 C 1.51433,-1.51433 4.79533,-0.37857 6.81448,0"
       style="fill:#1d3557;fill-opacity:1;fill-rule:nonzero;stroke:none"
       transform="matrix(1.3333333,0,0,-1.3333333,186.64401,38.041333)" />
    <g
       id="g25"
       aria-label="⃗&#10;F&#10;32"
       transform="matrix(1.3333333,0,0,1.3333333,165.11067,27.201333)">
      <path
         id="path26"
         d="M 5.3427813,-5.9283438 C 5.213875,-5.7994375 4.88575,-5.5181875 4.88575,-5.3424063 c 0,0.1054688 0.09375,0.1992188 0.1992188,0.1992188 0.082031,0 0.1289062,-0.070312 0.1875,-0.1289063 0.1171875,-0.140625 0.3398437,-0.421875 0.7851562,-0.6445312 0.070312,-0.035156 0.1640625,-0.09375 0.1640625,-0.2109375 0,-0.09375 -0.070312,-0.1523438 -0.140625,-0.1992188 -0.2109375,-0.1523437 -0.328125,-0.328125 -0.3984375,-0.5625 -0.023437,-0.09375 -0.070312,-0.2226562 -0.1992187,-0.2226562 -0.140625,0 -0.1992188,0.1289062 -0.1992188,0.2109375 0,0.046875 0.070312,0.3632812 0.234375,0.5742187 H 2.1552813 c -0.1640625,0 -0.3398438,0 -0.3398438,0.1992188 0,0.1992187 0.1757813,0.1992187 0.3398438,0.1992187 z m -3.788086,5.21191411 h 0.9609375 c 0.75,0 0.8320313,0.15234375 0.8320313,0.4453125 0,0.0703125 0,0.1875 -0.070312,0.4921875 -0.023437,0.046875 -0.035156,0.0820313 -0.035156,0.10546875 0,0.0820313 0.058594,0.1171875 0.1171875,0.1171875 0.1054688,0 0.1054688,-0.0234375 0.1523438,-0.2109375 L 4.0625078,-1.9234609 c 0.023437,-0.1054688 0.023437,-0.1289063 0.023437,-0.1640625 0,-0.011719 -0.011719,-0.1054688 -0.1171875,-0.1054688 -0.09375,0 -0.1054687,0.046875 -0.1523437,0.2109375 -0.1992188,0.7734375 -0.4335938,0.9492188 -1.2773438,0.9492188 h -0.914062 l 0.6445313,-2.53125 c 0.082031,-0.3398438 0.09375,-0.3867188 0.5390625,-0.3867188 h 1.3125 c 1.21875,0 1.453125,0.328125 1.453125,1.1015625 0,0.2226563 0,0.2695313 -0.035156,0.5390625 -0.011719,0.1289063 -0.011719,0.140625 -0.011719,0.1757813 0,0.046875 0.023437,0.1171875 0.1171875,0.1171875 0.1054687,0 0.1171875,-0.058594 0.140625,-0.2460938 L 5.9843828,-3.9859609 C 6.0078203,-4.2554922 5.9609453,-4.2554922 5.7148516,-4.2554922 H 0.82813281 c -0.19921875,0 -0.29296875,0 -0.29296875,0.1992188 0,0.1054687 0.09375,0.1054687 0.28125,0.1054687 0.36328124,0 0.64453124,0 0.64453124,0.1875 0,0.035156 0,0.058594 -0.046875,0.234375 L 0.08985156,1.7445078 c -0.09375,0.3867188 -0.1171875,0.46875 -0.90234375,0.46875 -0.1640625,0 -0.28125001,0 -0.28125001,0.1875 0,0.1171875 0.12890626,0.1171875 0.15234376,0.1171875 0.29296875,0 1.03125,-0.035156 1.3125,-0.035156 0.328125,0 1.16015624,0.035156 1.48828124,0.035156 0.09375,0 0.2109375,0 0.2109375,-0.1875 0,-0.082031 -0.058594,-0.1054687 -0.058594,-0.1171875 -0.035156,0 -0.058594,0 -0.28125,0 -0.2226563,0 -0.2695313,0 -0.515625,-0.023437 -0.29296879,-0.035156 -0.32812504,-0.070312 -0.32812504,-0.1992187 0,-0.023437 0,-0.082031 0.046875,-0.234375 z m 0,0"
         style="fill:#1d3557;fill-opacity:1;fill-rule:nonzero;stroke:none" />
      <path
         id="path27"
         d="m 6.8369219,1.6800547 c 0.5507812,0 0.9375,0.375 0.9375,1.125 0,0.8671875 -0.5039063,1.125 -0.9023438,1.125 -0.28125,0 -0.890625,-0.082031 -1.1835937,-0.4921875 0.328125,-0.011719 0.3984375,-0.2460938 0.3984375,-0.3867188 0,-0.2226562 -0.1640625,-0.3867187 -0.3867188,-0.3867187 -0.1875,0 -0.3867187,0.1171875 -0.3867187,0.4101562 0,0.65625 0.7265625,1.078125 1.5703125,1.078125 0.9726562,0 1.640625,-0.6445312 1.640625,-1.3476562 0,-0.5390625 -0.4453125,-1.0898438 -1.21875,-1.2421875 0.7382812,-0.2695313 0.9960937,-0.79687501 0.9960937,-1.21875001 0,-0.55078125 -0.6328125,-0.9609375 -1.40625,-0.9609375 -0.7734375,0 -1.359375,0.375 -1.359375,0.9375 0,0.234375 0.1523438,0.36328125 0.3632813,0.36328125 0.2109375,0 0.3515625,-0.1640625 0.3515625,-0.3515625 0,-0.19921875 -0.140625,-0.3515625 -0.3515625,-0.36328125 0.234375,-0.3046875 0.7148437,-0.38671875 0.9726562,-0.38671875 0.3164063,0 0.7617188,0.15234375 0.7617188,0.76171875 0,0.29296875 -0.1054688,0.609375 -0.28125,0.83203121 -0.234375,0.2578125 -0.421875,0.28125 -0.7734375,0.2929688 -0.1757813,0.023437 -0.1875,0.023437 -0.2226563,0.023437 -0.011719,0 -0.070312,0.011719 -0.070312,0.09375 0,0.09375 0.058594,0.09375 0.1757813,0.09375 z m 5.5869141,1.0664062 h -0.234375 c -0.02344,0.1523438 -0.08203,0.5625 -0.175781,0.6328125 -0.05859,0.035156 -0.597657,0.035156 -0.691407,0.035156 h -1.289062 c 0.738281,-0.6445313 0.984375,-0.84375 1.394531,-1.171875 0.515625,-0.4101563 0.996094,-0.84375 0.996094,-1.50000001 0,-0.84375 -0.738281,-1.359375 -1.628906,-1.359375 -0.8671878,0 -1.4531253,0.609375 -1.4531253,1.2421875 0,0.36328125 0.3046875,0.39843751 0.375,0.39843751 0.1640625,0 0.3750003,-0.11718751 0.3750003,-0.37500001 0,-0.12890625 -0.05859,-0.36328125 -0.4218753,-0.36328125 0.2226562,-0.50390625 0.6914063,-0.65625 1.0195313,-0.65625 0.703125,0 1.066406,0.55078125 1.066406,1.11328125 0,0.60937501 -0.433594,1.08984371 -0.65625,1.33593751 L 9.4121172,3.7425547 c -0.070312,0.058594 -0.070312,0.070312 -0.070312,0.2695312 h 2.8828128 z m 0,0"
         style="fill:#1d3557;fill-opacity:1;fill-rule:nonzero;stroke:none" />
    </g>
  </g>
</svg>
