<?xml version="1.0" encoding="UTF-8" standalone="no"?>
<!-- Created with Inkscape (http://www.inkscape.org/) -->

<svg
   version="1.1"
   id="svg1"
   width="376.13568"
   height="306.67096"
   viewBox="0 0 376.13568 306.67096"
   xmlns="http://www.w3.org/2000/svg"
   xmlns:svg="http://www.w3.org/2000/svg">
  <defs
     id="defs1">
    <radialGradient
       fx="50.000641"
       fy="50.000641"
       cx="50.000641"
       cy="50.000641"
       r="50.000641"
       gradientUnits="userSpaceOnUse"
       id="radialGradient3">
      <stop
         style="stop-opacity:1;stop-color:#ffffff"
         offset="0"
         id="stop1" />
      <stop
         style="stop-opacity:1;stop-color:#e63946"
         offset="0.5"
         id="stop2" />
      <stop
         style="stop-opacity:1;stop-color:#e63946"
         offset="1"
         id="stop3" />
    </radialGradient>
    <clipPath
       clipPathUnits="userSpaceOnUse"
       id="clipPath4">
      <path
         d="m 282.01656,173.04267 c 0,-62.62284 -50.76439,-113.38723 -113.38723,-113.38723 -62.62284,0 -113.387223,50.76439 -113.387223,113.38723 0,62.62284 50.764383,113.38722 113.387223,113.38722 62.62284,0 113.38723,-50.76438 113.38723,-113.38722 z"
         id="path4" />
    </clipPath>
    <linearGradient
       x1="0"
       y1="0"
       x2="0"
       y2="100.00128"
       gradientUnits="userSpaceOnUse"
       id="linearGradient26">
      <stop
         style="stop-opacity:1;stop-color:#ffffff"
         offset="0"
         id="stop22" />
      <stop
         style="stop-opacity:1;stop-color:#ffffff"
         offset="0.25"
         id="stop23" />
      <stop
         style="stop-opacity:1;stop-color:#f29ca2"
         offset="0.5"
         id="stop24" />
      <stop
         style="stop-opacity:1;stop-color:#e63946"
         offset="0.75"
         id="stop25" />
      <stop
         style="stop-opacity:1;stop-color:#e63946"
         offset="1"
         id="stop26" />
    </linearGradient>
    <clipPath
       clipPathUnits="userSpaceOnUse"
       id="clipPath27">
      <path
         d="M 376.50592,286.42989 V 59.65544 h -18.89787 v 226.77445 z"
         id="path27" />
    </clipPath>
  </defs>
  <g
     id="g1"
     transform="translate(-17.446348,-17.554687)">
    <g
       id="g3"
       clip-path="url(#clipPath4)">
      <path
         d="M 0,0 H 100 V 100 H 0 Z"
         transform="matrix(4.5360267,0,0,-4.5360267,-58.172,399.844)"
         style="fill:url(#radialGradient3);stroke:none"
         id="path3" />
    </g>
    <path
       id="path5"
       d="M 85.04042,0 C 85.04042,46.96713 46.96713,85.04042 0,85.04042 -46.96713,85.04042 -85.04042,46.96713 -85.04042,0 c 0,-46.96713 38.07329,-85.04042 85.04042,-85.04042 46.96713,0 85.04042,38.07329 85.04042,85.04042 z"
       style="fill:none;stroke:#000000;stroke-width:0.79701;stroke-linecap:butt;stroke-linejoin:miter;stroke-miterlimit:10;stroke-dasharray:none;stroke-opacity:1"
       transform="matrix(1.3333333,0,0,-1.3333333,168.62933,173.04267)" />
    <path
       id="path6"
       d="M -113.38724,0 H 112.59023"
       style="fill:none;stroke:#000000;stroke-width:0.79701;stroke-linecap:butt;stroke-linejoin:miter;stroke-miterlimit:10;stroke-dasharray:none;stroke-opacity:1"
       transform="matrix(1.3333333,0,0,-1.3333333,168.62933,173.04267)" />
    <path
       id="path7"
       d="M -2.55046,3.11095 C -2.0845,1.24435 -1.04614,0.36295 0,0 -1.04614,-0.36295 -2.0845,-1.24435 -2.55046,-3.11095"
       style="fill:none;stroke:#000000;stroke-width:0.79701;stroke-linecap:round;stroke-linejoin:round;stroke-miterlimit:10;stroke-dasharray:none;stroke-opacity:1"
       transform="matrix(1.3333333,0,0,-1.3333333,319.28096,173.04267)" />
    <path
       id="path8"
       d="m 3.3282734,-3.0119609 c 0.058594,-0.2578125 0.2929688,-1.171875 0.984375,-1.171875 0.046875,0 0.2929688,0 0.5039063,0.1289062 -0.28125,0.046875 -0.4804688,0.3046875 -0.4804688,0.5390625 0,0.1640625 0.1054688,0.3515625 0.375,0.3515625 0.2226563,0 0.5390625,-0.1875 0.5390625,-0.5859375 0,-0.515625 -0.5859375,-0.65625 -0.9257812,-0.65625 -0.5742188,0 -0.9257813,0.5273438 -1.0429688,0.7617188 -0.2578125,-0.65625 -0.7851562,-0.7617188 -1.078125,-0.7617188 -1.0429687,0 -1.60546871,1.2890625 -1.60546871,1.5351563 0,0.1054687 0.10546875,0.1054687 0.1171875,0.1054687 0.0820313,0 0.1171875,-0.023437 0.12890625,-0.1171875 0.33984376,-1.0546875 0.99609376,-1.3007812 1.33593746,-1.3007812 0.1875,0 0.5390625,0.09375 0.5390625,0.6679687 0,0.3046875 -0.1640625,0.9726563 -0.5390625,2.3671875 -0.1523437,0.62109376 -0.5039062,1.04296876 -0.9492187,1.04296876 -0.058594,0 -0.28125001,0 -0.49218751,-0.12890625 0.24609375,-0.0585937 0.46875001,-0.26953125 0.46875001,-0.5390625 0,-0.26953121 -0.22265626,-0.35156251 -0.37500001,-0.35156251 -0.29296875,0 -0.5390625,0.25781251 -0.5390625,0.57421876 0,0.45703125 0.4921875,0.65625 0.93750001,0.65625 0.65625,0 1.0078125,-0.69140625 1.0429687,-0.75 0.1171875,0.36328125 0.4804688,0.75 1.078125,0.75 1.0195313,0 1.59375,-1.27734376 1.59375,-1.53515626 0,-0.09375 -0.09375,-0.09375 -0.1289062,-0.09375 -0.082031,0 -0.1054688,0.035156 -0.1289063,0.1054688 -0.328125,1.06640621 -0.9960937,1.31249996 -1.3242187,1.31249996 -0.3867188,0 -0.5390625,-0.328125 -0.5390625,-0.65625 0,-0.22265625 0.058594,-0.44531246 0.1640625,-0.87890626 z m 0,0"
       style="fill:#000000;fill-opacity:1;fill-rule:nonzero;stroke:none"
       aria-label="x"
       transform="matrix(1.3333333,0,0,1.3333333,324.76933,175.90267)" />
    <path
       id="path9"
       d="M 0,-113.38724 V 112.59023"
       style="fill:none;stroke:#000000;stroke-width:0.79701;stroke-linecap:butt;stroke-linejoin:miter;stroke-miterlimit:10;stroke-dasharray:none;stroke-opacity:1"
       transform="matrix(1.3333333,0,0,-1.3333333,168.62933,173.04267)" />
    <path
       id="path10"
       d="M -2.55046,3.11095 C -2.0845,1.24435 -1.04614,0.36295 0,0 -1.04614,-0.36295 -2.0845,-1.24435 -2.55046,-3.11095"
       style="fill:none;stroke:#000000;stroke-width:0.79701;stroke-linecap:round;stroke-linejoin:round;stroke-miterlimit:10;stroke-dasharray:none;stroke-opacity:1"
       transform="matrix(0,-1.3333333,-1.3333333,0,168.62933,22.39104)" />
    <path
       id="path11"
       d="m 4.8386094,-3.7966094 c 0.046875,-0.140625 0.046875,-0.1523437 0.046875,-0.2226562 0,-0.1875 -0.140625,-0.2695313 -0.2929688,-0.2695313 -0.1054687,0 -0.2578125,0.058594 -0.3515625,0.1992188 -0.023437,0.058594 -0.09375,0.3632812 -0.140625,0.5390625 -0.070312,0.2578125 -0.140625,0.5273437 -0.1992187,0.796875 l -0.4453125,1.79296873 c -0.035156,0.15234375 -0.46875,0.85546875 -1.125,0.85546875 -0.5039063,0 -0.6210938,-0.4453125 -0.6210938,-0.80859375 0,-0.45703123 0.1757813,-1.07812503 0.515625,-1.95703123 0.1523438,-0.4101563 0.1992188,-0.515625 0.1992188,-0.7148438 0,-0.4453125 -0.328125,-0.8203125 -0.8203125,-0.8203125 -0.94921877,0 -1.31250002,1.453125 -1.31250002,1.5351563 0,0.1054687 0.09375,0.1054687 0.1171875,0.1054687 0.09375,0 0.10546875,-0.023437 0.15234375,-0.1875 0.26953125,-0.9375 0.66796877,-1.2304687 1.00781247,-1.2304687 0.082031,0 0.2578125,0 0.2578125,0.3164062 0,0.2460938 -0.1054687,0.515625 -0.1757812,0.703125 -0.3984375,1.0546875 -0.5742188,1.6171875 -0.5742188,2.0859375 0,0.89062503 0.6210938,1.18359378 1.21875,1.18359378 0.3867188,0 0.7265625,-0.1640625 0.9960938,-0.4453125 -0.1289063,0.515625 -0.2460938,1.0078125 -0.6445313,1.53515622 -0.2578125,0.3398438 -0.6328125,0.6328125 -1.0898437,0.6328125 -0.140625,0 -0.59765627,-0.035156 -0.76171877,-0.421875 0.1640625,0 0.29296877,0 0.43359377,-0.1171875 0.09375,-0.09375 0.1992187,-0.2226562 0.1992187,-0.41015622 0,-0.31640625 -0.2695312,-0.3515625 -0.375,-0.3515625 -0.22265622,0 -0.55078122,0.1640625 -0.55078122,0.64453122 0,0.5039063 0.43359375,0.8671875 1.05468752,0.8671875 1.0195312,0 2.0507812,-0.9023437 2.3320312,-2.02734372 z m 0,0"
       style="fill:#000000;fill-opacity:1;fill-rule:nonzero;stroke:none"
       aria-label="y"
       transform="matrix(1.3333333,0,0,1.3333333,156.68133,23.429333)" />
    <path
       id="path12"
       d="m 7.3702891,-4.3482812 c 0,-1.59375 -1.0546875,-2.671875 -2.5429688,-2.671875 -2.1445312,0 -4.33593749,2.2617187 -4.33593749,4.5820312 0,1.65234375 1.11328129,2.66015625 2.54296879,2.66015625 2.109375,0 4.3359375,-2.17968745 4.3359375,-4.57031245 z m -4.2773438,4.31249995 c -0.984375,0 -1.6757812,-0.80859375 -1.6757812,-2.12109375 0,-0.4453125 0.140625,-1.8984375 0.9023437,-3.0585937 0.6914063,-1.0429688 1.6640625,-1.5585938 2.4492188,-1.5585938 0.8203125,0 1.7109375,0.5625 1.7109375,2.0390625 0,0.7148438 -0.2695313,2.2734375 -1.2539063,3.5039063 -0.4804687,0.5976562 -1.2890625,1.19531245 -2.1328125,1.19531245 z m 0,0"
       style="fill:#000000;fill-opacity:1;fill-rule:nonzero;stroke:none"
       aria-label="O"
       transform="matrix(1.3333333,0,0,1.3333333,153.43467,186.81333)" />
    <path
       id="path13"
       d="m 3.7375547,-6.1178125 c 0.058594,-0.234375 0.082031,-0.3398437 0.28125,-0.3632812 0.082031,-0.011719 0.3984375,-0.011719 0.5976562,-0.011719 0.7148438,0 1.8164063,0 1.8164063,0.984375 0,0.3398438 -0.1523438,1.0195313 -0.5507813,1.4179688 C 5.6242734,-3.8326562 5.0969297,-3.51625 4.2063047,-3.51625 H 3.0930234 Z m 1.4296875,2.7304688 C 6.1750547,-3.61 7.3586484,-4.3014062 7.3586484,-5.3092187 c 0,-0.8554688 -0.890625,-1.5 -2.203125,-1.5 H 2.3195859 c -0.1992187,0 -0.2929687,0 -0.2929687,0.1992187 0,0.1171875 0.09375,0.1171875 0.28125,0.1171875 0.023437,0 0.2109375,0 0.3867187,0.011719 0.1757813,0.023437 0.2578125,0.035156 0.2578125,0.1640625 0,0.035156 0,0.070312 -0.035156,0.1875 l -1.3359375,5.3554687 c -0.09375,0.38671875 -0.1171875,0.46875 -0.90234376,0.46875 -0.17578125,0 -0.26953125,0 -0.26953125,0.19921875 0,0.10546875 0.1171875,0.10546875 0.140625,0.10546875 0.28125,0 0.97265621,-0.03515625 1.25390621,-0.03515625 0.28125,0 0.984375,0.03515625 1.265625,0.03515625 0.082031,0 0.1992188,0 0.1992188,-0.19921875 0,-0.10546875 -0.09375,-0.10546875 -0.28125,-0.10546875 -0.3632813,0 -0.6445313,0 -0.6445313,-0.1875 0,-0.0585938 0.011719,-0.10546875 0.023437,-0.1640625 l 0.65625,-2.6367187 h 1.1953125 c 0.9023438,0 1.078125,0.5507812 1.078125,0.9023437 0,0.1523438 -0.082031,0.4570313 -0.140625,0.6914063 -0.070312,0.2695312 -0.1523437,0.6445312 -0.1523437,0.84374995 0,1.078125 1.1953125,1.078125 1.3242187,1.078125 0.84375,0 1.1953125,-1.0078125 1.1953125,-1.1484375 0,-0.11718745 -0.1171875,-0.11718745 -0.1171875,-0.11718745 -0.09375,0 -0.1171875,0.0703124 -0.1289062,0.14062495 C 7.0188047,-0.1646875 6.5969297,-6.25e-4 6.3625547,-6.25e-4 c -0.328125,0 -0.3984375,-0.22265625 -0.3984375,-0.609375 0,-0.3046875 0.058594,-0.8203125 0.1054687,-1.1367187 0.011719,-0.140625 0.035156,-0.328125 0.035156,-0.46875 0,-0.7617188 -0.6679688,-1.078125 -0.9374997,-1.171875 z m 0,0"
       style="fill:#000000;fill-opacity:1;fill-rule:nonzero;stroke:none"
       aria-label="R"
       transform="matrix(1.3333333,0,0,1.3333333,286.708,186.81333)" />
    <g
       id="g13"
       aria-label="−R"
       transform="matrix(1.3333333,0,0,1.3333333,30.030667,186.81333)">
      <path
         id="path14"
         d="m 6.5629375,-2.2975 c 0.1757813,0 0.3515625,0 0.3515625,-0.1992187 0,-0.1992188 -0.1757812,-0.1992188 -0.3515625,-0.1992188 h -5.390625 c -0.1640625,0 -0.33984375,0 -0.33984375,0.1992188 0,0.1992187 0.17578125,0.1992187 0.33984375,0.1992187 z m 0,0"
         style="fill:#000000;fill-opacity:1;fill-rule:nonzero;stroke:none" />
      <path
         id="path15"
         d="m 11.487742,-6.1178125 c 0.05859,-0.234375 0.08203,-0.3398437 0.28125,-0.3632812 0.08203,-0.011719 0.398438,-0.011719 0.597656,-0.011719 0.714844,0 1.816407,0 1.816407,0.984375 0,0.3398438 -0.152344,1.0195313 -0.550782,1.4179688 -0.257812,0.2578125 -0.785156,0.5742187 -1.675781,0.5742187 h -1.113281 z m 1.429688,2.7304688 c 1.007812,-0.2226563 2.191406,-0.9140625 2.191406,-1.921875 0,-0.8554688 -0.890625,-1.5 -2.203125,-1.5 h -2.835938 c -0.1992183,0 -0.2929683,0 -0.2929683,0.1992187 0,0.1171875 0.09375,0.1171875 0.2812503,0.1171875 0.02344,0 0.210937,0 0.386718,0.011719 0.175782,0.023437 0.257813,0.035156 0.257813,0.1640625 0,0.035156 0,0.070312 -0.03516,0.1875 l -1.3359378,5.3554687 c -0.09375,0.38671875 -0.1171875,0.46875 -0.9023438,0.46875 -0.1757812,0 -0.2695312,0 -0.2695312,0.19921875 0,0.10546875 0.1171875,0.10546875 0.140625,0.10546875 0.28125,0 0.9726562,-0.03515625 1.2539062,-0.03515625 0.28125,0 0.9843746,0.03515625 1.2656246,0.03515625 0.08203,0 0.199219,0 0.199219,-0.19921875 0,-0.10546875 -0.09375,-0.10546875 -0.28125,-0.10546875 -0.363281,0 -0.644531,0 -0.644531,-0.1875 0,-0.0585938 0.01172,-0.10546875 0.02344,-0.1640625 l 0.65625,-2.6367187 h 1.195313 c 0.902344,0 1.078125,0.5507812 1.078125,0.9023437 0,0.1523438 -0.08203,0.4570313 -0.140625,0.6914063 -0.07031,0.2695312 -0.152344,0.6445312 -0.152344,0.84374995 0,1.078125 1.195313,1.078125 1.324219,1.078125 0.84375,0 1.195312,-1.0078125 1.195312,-1.1484375 0,-0.11718745 -0.117187,-0.11718745 -0.117187,-0.11718745 -0.09375,0 -0.117188,0.0703124 -0.128906,0.14062495 -0.257813,0.73828125 -0.679688,0.90234375 -0.914063,0.90234375 -0.328125,0 -0.398437,-0.22265625 -0.398437,-0.609375 0,-0.3046875 0.05859,-0.8203125 0.105468,-1.1367187 0.01172,-0.140625 0.03516,-0.328125 0.03516,-0.46875 0,-0.7617188 -0.667969,-1.078125 -0.9375,-1.171875 z m 0,0"
         style="fill:#000000;fill-opacity:1;fill-rule:nonzero;stroke:none" />
    </g>
    <g
       id="g15"
       aria-label="σ=σ&#10;0&#10;(r/R)"
       transform="matrix(1.3333333,0,0,1.3333333,17.710667,51.642667)">
      <path
         id="path16"
         d="m 5.1564531,-3.7134453 c 0.1289063,0 0.4921875,0 0.4921875,-0.3398438 0,-0.234375 -0.2109375,-0.234375 -0.3867187,-0.234375 H 2.9884844 c -1.5,0 -2.61328128,1.640625 -2.61328128,2.8242188 0,0.87890624 0.5859375,1.57031249 1.49999998,1.57031249 1.171875,0 2.4960938,-1.20703129 2.4960938,-2.73046879 0,-0.1757812 0,-0.65625 -0.3046875,-1.0898437 z m -3.2695312,3.60937499 c -0.4921875,0 -0.89062503,-0.36328125 -0.89062503,-1.07812499 0,-0.3046875 0.11718753,-1.1132813 0.46875003,-1.7109375 0.421875,-0.6796875 1.0195312,-0.8203125 1.359375,-0.8203125 0.8320312,0 0.9140625,0.65625 0.9140625,0.9609375 0,0.46875 -0.1992188,1.2890625 -0.5390625,1.79296874 -0.3867188,0.59765625 -0.9257813,0.85546875 -1.3125,0.85546875 z m 0,0"
         style="fill:#000000;fill-opacity:1;fill-rule:nonzero;stroke:none" />
      <path
         id="path17"
         d="m 15.662312,-3.2564141 c 0.152344,0 0.339844,0 0.339844,-0.1992187 0,-0.1992188 -0.1875,-0.1992188 -0.328125,-0.1992188 H 9.7091875 c -0.140625,0 -0.328125,0 -0.328125,0.1992188 0,0.1992187 0.1875,0.1992187 0.3398437,0.1992187 z m 0.01172,1.9335938 c 0.140625,0 0.328125,0 0.328125,-0.1992188 0,-0.1992187 -0.1875,-0.1992187 -0.339844,-0.1992187 H 9.7209062 c -0.1523437,0 -0.3398437,0 -0.3398437,0.1992187 0,0.1992188 0.1875,0.1992188 0.328125,0.1992188 z m 0,0"
         style="fill:#000000;fill-opacity:1;fill-rule:nonzero;stroke:none" />
      <path
         id="path18"
         d="m 24.489461,-3.7134453 c 0.128906,0 0.492187,0 0.492187,-0.3398438 0,-0.234375 -0.210937,-0.234375 -0.386718,-0.234375 h -2.273438 c -1.5,0 -2.613281,1.640625 -2.613281,2.8242188 0,0.87890624 0.585937,1.57031249 1.5,1.57031249 1.171875,0 2.496094,-1.20703129 2.496094,-2.73046879 0,-0.1757812 0,-0.65625 -0.304688,-1.0898437 z m -3.269531,3.60937499 c -0.492188,0 -0.890625,-0.36328125 -0.890625,-1.07812499 0,-0.3046875 0.117187,-1.1132813 0.46875,-1.7109375 0.421875,-0.6796875 1.019531,-0.8203125 1.359375,-0.8203125 0.832031,0 0.914062,0.65625 0.914062,0.9609375 0,0.46875 -0.199219,1.2890625 -0.539062,1.79296874 -0.386719,0.59765625 -0.925782,0.85546875 -1.3125,0.85546875 z m 0,0"
         style="fill:#000000;fill-opacity:1;fill-rule:nonzero;stroke:none" />
      <path
         id="path19"
         d="m 28.62325,-0.73102344 c 0,-0.76171876 -0.09375,-1.31249996 -0.410156,-1.80468746 -0.222657,-0.3164063 -0.644532,-0.5976563 -1.207032,-0.5976563 -1.617187,0 -1.617187,1.8984375 -1.617187,2.40234376 0,0.50390625 0,2.36718754 1.617187,2.36718754 1.617188,0 1.617188,-1.86328129 1.617188,-2.36718754 z M 27.006062,1.4369453 c -0.316406,0 -0.75,-0.1875 -0.890625,-0.76171874 -0.09375,-0.41015625 -0.09375,-0.984375 -0.09375,-1.5 0,-0.50390626 0,-1.03124996 0.105469,-1.41796876 0.152344,-0.5507812 0.597656,-0.6914062 0.878906,-0.6914062 0.375,0 0.738282,0.2226562 0.867188,0.6328125 0.105469,0.375 0.117187,0.8789062 0.117187,1.47656246 0,0.515625 0,1.04296875 -0.09375,1.4765625 C 27.756062,1.2846016 27.287312,1.4369453 27.006062,1.4369453 Z m 0,0"
         style="fill:#000000;fill-opacity:1;fill-rule:nonzero;stroke:none" />
      <path
         id="path20"
         d="m 34.450398,2.3920234 c 0,-0.035156 0,-0.046875 -0.164062,-0.2226562 -1.242188,-1.25390626 -1.570313,-3.12890626 -1.570313,-4.6640625 0,-1.7226563 0.386719,-3.4570313 1.605469,-4.7109375 0.128906,-0.1171875 0.128906,-0.1289063 0.128906,-0.1640625 0,-0.070312 -0.03516,-0.1054688 -0.09375,-0.1054688 -0.105468,0 -0.996093,0.6796875 -1.582031,1.9453125 -0.515625,1.1015625 -0.632812,2.203125 -0.632812,3.0351563 0,0.7851562 0.117187,1.99218749 0.65625,3.11718749 0.597656,1.21875001 1.453125,1.87500001 1.558593,1.87500001 0.05859,0 0.09375,-0.035156 0.09375,-0.1054688 z m 0,0"
         style="fill:#000000;fill-opacity:1;fill-rule:nonzero;stroke:none" />
      <path
         id="path21"
         d="m 35.909383,-0.58453906 c -0.03516,0.15234375 -0.09375,0.375 -0.09375,0.421875 0,0.1875 0.140625,0.26953125 0.292969,0.26953125 0.117187,0 0.292968,-0.0703125 0.363281,-0.26953125 0.02344,-0.046875 0.363281,-1.39453124 0.398437,-1.58203124 0.08203,-0.328125 0.257813,-1.0195313 0.316407,-1.2890625 0.04687,-0.1289063 0.328125,-0.5976563 0.5625,-0.8203125 0.08203,-0.070312 0.375,-0.328125 0.796875,-0.328125 0.257812,0 0.410156,0.1171875 0.421875,0.1171875 -0.304688,0.046875 -0.515625,0.2929687 -0.515625,0.5507812 0,0.1640625 0.105468,0.3515625 0.375,0.3515625 0.269531,0 0.550781,-0.234375 0.550781,-0.5859375 0,-0.3515625 -0.328125,-0.65625 -0.832031,-0.65625 -0.644532,0 -1.089844,0.4921875 -1.277344,0.7734375 -0.08203,-0.4570312 -0.433594,-0.7734375 -0.902344,-0.7734375 -0.457031,0 -0.644531,0.3867188 -0.738281,0.5742188 -0.175781,0.3398437 -0.304688,0.9375 -0.304688,0.9609375 0,0.1054687 0.09375,0.1054687 0.117188,0.1054687 0.09375,0 0.105469,-0.011719 0.164062,-0.234375 0.175782,-0.703125 0.375,-1.1835937 0.726563,-1.1835937 0.175781,0 0.316406,0.082031 0.316406,0.4570312 0,0.2109375 -0.03516,0.3164063 -0.164062,0.8320313 z m 8.267578,-6.50390624 c 0.04687,-0.1289063 0.04687,-0.1757813 0.04687,-0.1875 0,-0.1054688 -0.08203,-0.1992188 -0.199219,-0.1992188 -0.07031,0 -0.128906,0.035156 -0.164062,0.09375 l -3.457032,9.4921875 c -0.04687,0.1289063 -0.04687,0.1757813 -0.04687,0.1875 0,0.1054688 0.08203,0.1992188 0.199219,0.1992188 0.128906,0 0.152344,-0.070312 0.210938,-0.2460938 z m 4.347656,0.9726562 c 0.05859,-0.234375 0.08203,-0.3398437 0.28125,-0.3632812 0.08203,-0.011719 0.398438,-0.011719 0.597656,-0.011719 0.714844,0 1.816407,0 1.816407,0.984375 0,0.3398438 -0.152344,1.0195313 -0.550782,1.4179688 -0.257812,0.2578125 -0.785156,0.5742187 -1.675781,0.5742187 h -1.113281 z m 1.429688,2.7304688 c 1.007812,-0.2226563 2.191406,-0.9140625 2.191406,-1.921875 0,-0.8554688 -0.890625,-1.5 -2.203125,-1.5 h -2.835938 c -0.199218,0 -0.292968,0 -0.292968,0.1992187 0,0.1171875 0.09375,0.1171875 0.28125,0.1171875 0.02344,0 0.210937,0 0.386718,0.011719 0.175782,0.023437 0.257813,0.035156 0.257813,0.1640625 0,0.035156 0,0.070312 -0.03516,0.1875 l -1.335938,5.35546874 c -0.09375,0.38671875 -0.117187,0.46875 -0.902344,0.46875 -0.175781,0 -0.269531,0 -0.269531,0.19921875 0,0.10546875 0.117188,0.10546875 0.140625,0.10546875 0.28125,0 0.972656,-0.03515625 1.253906,-0.03515625 0.28125,0 0.984375,0.03515625 1.265625,0.03515625 0.08203,0 0.199219,0 0.199219,-0.19921875 0,-0.10546875 -0.09375,-0.10546875 -0.28125,-0.10546875 -0.363281,0 -0.644531,0 -0.644531,-0.1875 0,-0.0585938 0.01172,-0.10546875 0.02344,-0.1640625 l 0.65625,-2.63671874 h 1.195313 c 0.902344,0 1.078125,0.5507812 1.078125,0.9023437 0,0.1523438 -0.08203,0.4570313 -0.140625,0.6914063 -0.07031,0.2695312 -0.152344,0.6445312 -0.152344,0.84374999 0,1.078125 1.195313,1.078125 1.324219,1.078125 0.84375,0 1.195312,-1.0078125 1.195312,-1.1484375 0,-0.11718749 -0.117187,-0.11718749 -0.117187,-0.11718749 -0.09375,0 -0.117188,0.0703125 -0.128906,0.14062499 -0.257813,0.73828125 -0.679688,0.90234375 -0.914063,0.90234375 -0.328125,0 -0.398437,-0.22265625 -0.398437,-0.609375 0,-0.3046875 0.05859,-0.82031254 0.105468,-1.13671874 0.01172,-0.140625 0.03516,-0.328125 0.03516,-0.46875 0,-0.7617188 -0.667969,-1.078125 -0.9375,-1.171875 z m 0,0"
         style="fill:#000000;fill-opacity:1;fill-rule:nonzero;stroke:none" />
      <path
         id="path22"
         d="m 55.306844,-2.4946953 c 0,-0.7734375 -0.117188,-1.9804688 -0.65625,-3.1054688 -0.597657,-1.21875 -1.464844,-1.875 -1.558594,-1.875 -0.05859,0 -0.105469,0.046875 -0.105469,0.1054688 0,0.035156 0,0.046875 0.199219,0.234375 0.972656,0.984375 1.535156,2.5664062 1.535156,4.640625 0,1.71093749 -0.363281,3.45703124 -1.59375,4.7226562 -0.140625,0.1171875 -0.140625,0.1289063 -0.140625,0.1640625 0,0.058594 0.04687,0.1054688 0.105469,0.1054688 0.09375,0 0.996094,-0.6796875 1.582031,-1.94531251 0.503906,-1.1015625 0.632813,-2.20312499 0.632813,-3.04687499 z m 0,0"
         style="fill:#000000;fill-opacity:1;fill-rule:nonzero;stroke:none" />
    </g>
    <g
       id="g26"
       clip-path="url(#clipPath27)">
      <path
         d="M 0,0 H 100 V 100 H 0 Z"
         transform="matrix(0.378,0,0,-4.5360267,348.15699,399.844)"
         style="fill:url(#linearGradient26);stroke:none"
         id="path26" />
    </g>
    <g
       id="g27"
       aria-label="σ&#10;0"
       transform="matrix(1.3333333,0,0,1.3333333,381.196,61.52)">
      <path
         id="path28"
         d="m 5.1557344,-3.7151953 c 0.1289062,0 0.4921875,0 0.4921875,-0.3398438 0,-0.234375 -0.2109375,-0.234375 -0.3867188,-0.234375 H 2.9877656 c -1.5,0 -2.61328122,1.640625 -2.61328122,2.8242188 0,0.87890624 0.5859375,1.57031249 1.50000002,1.57031249 1.171875,0 2.4960937,-1.20703129 2.4960937,-2.73046879 0,-0.1757812 0,-0.65625 -0.3046875,-1.0898437 z m -3.2695313,3.60937499 c -0.4921875,0 -0.89062497,-0.36328125 -0.89062497,-1.07812499 0,-0.3046875 0.11718747,-1.1132813 0.46874997,-1.7109375 0.421875,-0.6796875 1.0195313,-0.8203125 1.359375,-0.8203125 0.8320313,0 0.9140625,0.65625 0.9140625,0.9609375 0,0.46875 -0.1992187,1.2890625 -0.5390625,1.79296874 -0.3867187,0.59765625 -0.9257812,0.85546875 -1.3125,0.85546875 z m 0,0"
         style="fill:#000000;fill-opacity:1;fill-rule:nonzero;stroke:none" />
      <path
         id="path29"
         d="m 9.2895234,-0.73277344 c 0,-0.76171876 -0.09375,-1.31249996 -0.4101562,-1.80468746 -0.2226563,-0.3164063 -0.6445313,-0.5976563 -1.2070313,-0.5976563 -1.6171875,0 -1.6171875,1.8984375 -1.6171875,2.40234376 0,0.50390625 0,2.36718754 1.6171875,2.36718754 1.6171875,0 1.6171875,-1.86328129 1.6171875,-2.36718754 z M 7.6723359,1.4351953 c -0.3164062,0 -0.75,-0.1875 -0.890625,-0.76171874 -0.09375,-0.41015625 -0.09375,-0.984375 -0.09375,-1.5 0,-0.50390626 0,-1.03124996 0.1054688,-1.41796876 0.1523437,-0.5507812 0.5976562,-0.6914062 0.8789062,-0.6914062 0.375,0 0.7382813,0.2226562 0.8671875,0.6328125 0.1054688,0.375 0.1171875,0.8789062 0.1171875,1.47656246 0,0.515625 0,1.04296875 -0.09375,1.4765625 C 8.4223359,1.2828516 7.9535859,1.4351953 7.6723359,1.4351953 Z m 0,0"
         style="fill:#000000;fill-opacity:1;fill-rule:nonzero;stroke:none" />
    </g>
    <path
       id="path30"
       d="m 4.5815156,-3.1862969 c 0,-0.796875 -0.046875,-1.59375 -0.3984375,-2.3320312 -0.4570312,-0.9609375 -1.2773437,-1.1132813 -1.6875,-1.1132813 -0.5976562,0 -1.3359375,0.2578125 -1.73437497,1.1835938 -0.328125,0.6914062 -0.375,1.4648437 -0.375,2.2617187 0,0.75 0.046875,1.640625 0.4453125,2.40234378 0.43359377,0.80859375 1.16015627,1.0078125 1.65234377,1.0078125 0.5390625,0 1.2890625,-0.2109375 1.734375,-1.16015625 C 4.5346406,-1.6277031 4.5815156,-2.4011406 4.5815156,-3.1862969 Z M 2.4838594,0.00120313 c -0.3867188,0 -0.984375,-0.24609375 -1.1601563,-1.20703123 -0.1054687,-0.5976563 -0.1054687,-1.5117188 -0.1054687,-2.0976563 0,-0.6445312 0,-1.3007812 0.082031,-1.8398437 0.1875,-1.1835938 0.9257813,-1.265625 1.1835938,-1.265625 0.328125,0 0.984375,0.1757812 1.171875,1.1601562 0.09375,0.5625 0.09375,1.3125 0.09375,1.9453125 0,0.75 0,1.4179688 -0.1054688,2.0625 -0.1523437,0.93750003 -0.7148437,1.24218753 -1.160156,1.24218753 z m 0,0"
       style="fill:#000000;fill-opacity:1;fill-rule:nonzero;stroke:none"
       aria-label="0"
       transform="matrix(1.3333333,0,0,1.3333333,381.196,290.70933)" />
  </g>
</svg>
