<?xml version="1.0" encoding="UTF-8" standalone="no"?>
<!-- Created with Inkscape (http://www.inkscape.org/) -->

<svg
   version="1.1"
   id="svg1"
   width="276.04245"
   height="177.60547"
   viewBox="0 0 276.04245 177.60547"
   xmlns="http://www.w3.org/2000/svg"
   xmlns:svg="http://www.w3.org/2000/svg">
  <defs
     id="defs1" />
  <g
     id="g1"
     transform="translate(-13.281779,-17.554687)">
    <path
       id="path1"
       d="M 0,0 V 84.64192"
       style="fill:none;stroke:#000000;stroke-width:0.3985;stroke-linecap:butt;stroke-linejoin:miter;stroke-miterlimit:10;stroke-dasharray:none;stroke-opacity:1"
       transform="matrix(1.3333333,0,0,-1.3333333,126.93467,133.956)" />
    <path
       id="path2"
       d="M -2.07224,2.39104 C -1.69365,0.95639 -0.84999,0.27895 0,0 -0.84999,-0.27895 -1.69365,-0.95639 -2.07224,-2.39104"
       style="fill:none;stroke:#000000;stroke-width:0.3985;stroke-linecap:round;stroke-linejoin:round;stroke-miterlimit:10;stroke-dasharray:none;stroke-opacity:1"
       transform="matrix(0,-1.3333333,-1.3333333,0,126.93467,20.83444)" />
    <path
       id="path3"
       d="M 1.3248984,-0.83276563 C 1.8639609,-1.4069844 2.1569297,-1.6530781 2.5084922,-1.9577656 c 0,-0.011719 0.6210937,-0.5390625 0.984375,-0.9023438 0.9375,-0.9257812 1.1601562,-1.40625 1.1601562,-1.4414062 0,-0.1054688 -0.09375,-0.1054688 -0.1054687,-0.1054688 -0.070312,0 -0.1054688,0.023437 -0.1523438,0.1171875 -0.3046875,0.46875 -0.5039062,0.6328125 -0.75,0.6328125 -0.234375,0 -0.3515625,-0.1523437 -0.5039062,-0.3164062 -0.1875,-0.234375 -0.3632813,-0.4335938 -0.6914063,-0.4335938 -0.75,0 -1.2070312,0.9257813 -1.2070312,1.1367188 0,0.046875 0.035156,0.1171875 0.1171875,0.1171875 0.09375,0 0.1171875,-0.058594 0.140625,-0.1171875 0.1875,-0.4570313 0.7617187,-0.46875 0.84375,-0.46875 0.2109375,0 0.3984375,0.070312 0.6210937,0.1523437 0.3984375,0.1523438 0.515625,0.1523438 0.7734375,0.1523438 -0.3632812,0.421875 -1.1953125,1.1367187 -1.3828125,1.3007812 l -0.9023437,0.8320313 c -0.67968751,0.66796872 -1.01953126,1.24218747 -1.01953126,1.31249997 0,0.09375 0.09375,0.09375 0.1171875,0.09375 0.0820313,0 0.09375,-0.01171875 0.15234375,-0.12890625 0.234375,-0.33984375 0.52734371,-0.609375 0.85546871,-0.609375 0.2226563,0 0.328125,0.0820313 0.5742188,0.375 0.1640625,0.2109375 0.3515625,0.36328125 0.6328125,0.36328125 0.984375,0 1.5703125,-1.26562497 1.5703125,-1.53515627 0,-0.046875 -0.046875,-0.09375 -0.1171875,-0.09375 -0.09375,0 -0.1171875,0.058594 -0.140625,0.1289063 -0.234375,0.64453122 -0.8671875,0.83203122 -1.1953125,0.83203122 -0.1992188,0 -0.3867188,-0.0585938 -0.5859375,-0.12890625 -0.3398438,-0.12890625 -0.4921875,-0.1640625 -0.703125,-0.1640625 -0.023437,0 -0.1757813,0 -0.2695313,0.0234375 z m 0,0"
       style="fill:#000000;fill-opacity:1;fill-rule:nonzero;stroke:none"
       aria-label="z"
       transform="matrix(1.3333333,0,0,1.3333333,131.628,23.430667)" />
    <path
       id="path4"
       d="M 0,0 H 112.98872"
       style="fill:none;stroke:#000000;stroke-width:0.3985;stroke-linecap:butt;stroke-linejoin:miter;stroke-miterlimit:10;stroke-dasharray:none;stroke-opacity:1"
       transform="matrix(1.3333333,0,0,-1.3333333,126.93467,133.956)" />
    <path
       id="path5"
       d="M -2.07224,2.39104 C -1.69365,0.95639 -0.84999,0.27895 0,0 -0.84999,-0.27895 -1.69365,-0.95639 -2.07224,-2.39104"
       style="fill:none;stroke:#000000;stroke-width:0.3985;stroke-linecap:round;stroke-linejoin:round;stroke-miterlimit:10;stroke-dasharray:none;stroke-opacity:1"
       transform="matrix(1.3333333,0,0,-1.3333333,277.85196,133.956)" />
    <path
       id="path6"
       d="m 4.8392891,-3.7972969 c 0.046875,-0.140625 0.046875,-0.1523437 0.046875,-0.2226562 0,-0.1875 -0.140625,-0.2695313 -0.2929688,-0.2695313 -0.1054687,0 -0.2578125,0.058594 -0.3515625,0.1992188 -0.023437,0.058594 -0.09375,0.3632812 -0.140625,0.5390625 -0.070312,0.2578125 -0.140625,0.5273437 -0.1992187,0.796875 l -0.4453125,1.79296872 c -0.035156,0.15234375 -0.46875,0.85546875 -1.125,0.85546875 -0.5039063,0 -0.6210938,-0.4453125 -0.6210938,-0.80859375 0,-0.45703122 0.1757813,-1.07812502 0.515625,-1.95703122 0.1523438,-0.4101563 0.1992188,-0.515625 0.1992188,-0.7148438 0,-0.4453125 -0.328125,-0.8203125 -0.8203125,-0.8203125 -0.94921879,0 -1.31250004,1.453125 -1.31250004,1.5351563 0,0.1054687 0.09375,0.1054687 0.1171875,0.1054687 0.09375,0 0.10546875,-0.023437 0.15234375,-0.1875 0.26953125,-0.9375 0.66796879,-1.2304687 1.00781249,-1.2304687 0.082031,0 0.2578125,0 0.2578125,0.3164062 0,0.2460938 -0.1054687,0.515625 -0.1757812,0.703125 -0.3984375,1.0546875 -0.5742188,1.6171875 -0.5742188,2.0859375 0,0.89062502 0.6210938,1.18359377 1.21875,1.18359377 0.3867188,0 0.7265625,-0.1640625 0.9960938,-0.4453125 -0.1289063,0.515625 -0.2460938,1.0078125 -0.6445313,1.53515623 -0.2578125,0.3398438 -0.6328125,0.6328125 -1.0898437,0.6328125 -0.140625,0 -0.59765629,-0.035156 -0.76171879,-0.421875 0.1640625,0 0.29296879,0 0.43359379,-0.1171875 0.09375,-0.09375 0.1992187,-0.2226562 0.1992187,-0.41015623 0,-0.31640625 -0.2695312,-0.3515625 -0.375,-0.3515625 -0.22265624,0 -0.55078124,0.1640625 -0.55078124,0.64453123 0,0.5039063 0.43359375,0.8671875 1.05468754,0.8671875 1.0195312,0 2.0507812,-0.9023437 2.3320312,-2.02734373 z m 0,0"
       style="fill:#000000;fill-opacity:1;fill-rule:nonzero;stroke:none"
       aria-label="y"
       transform="matrix(1.3333333,0,0,1.3333333,282.80933,135.524)" />
    <path
       id="path7"
       d="M 0,0 -43.37166,-43.37166"
       style="fill:none;stroke:#000000;stroke-width:0.3985;stroke-linecap:butt;stroke-linejoin:miter;stroke-miterlimit:10;stroke-dasharray:none;stroke-opacity:1"
       transform="matrix(1.3333333,0,0,-1.3333333,126.93467,133.956)" />
    <path
       id="path8"
       d="M -2.07224,2.39104 C -1.69365,0.95639 -0.84999,0.27895 0,0 -0.84999,-0.27895 -1.69365,-0.95639 -2.07224,-2.39104"
       style="fill:none;stroke:#000000;stroke-width:0.3985;stroke-linecap:round;stroke-linejoin:round;stroke-miterlimit:10;stroke-dasharray:none;stroke-opacity:1"
       transform="matrix(-0.9428,0.9428,0.9428,0.9428,68.91792,191.97275)" />
    <path
       id="path9"
       d="m 3.3294609,-3.0120703 c 0.058594,-0.2578125 0.2929688,-1.171875 0.984375,-1.171875 0.046875,0 0.2929688,0 0.5039063,0.1289062 -0.28125,0.046875 -0.4804688,0.3046875 -0.4804688,0.5390625 0,0.1640625 0.1054688,0.3515625 0.375,0.3515625 0.2226563,0 0.5390625,-0.1875 0.5390625,-0.5859375 0,-0.515625 -0.5859375,-0.65625 -0.9257812,-0.65625 -0.5742188,0 -0.9257813,0.5273438 -1.0429688,0.7617188 -0.2578125,-0.65625 -0.7851562,-0.7617188 -1.078125,-0.7617188 -1.0429687,0 -1.60546871,1.2890625 -1.60546871,1.5351563 0,0.1054687 0.10546875,0.1054687 0.1171875,0.1054687 0.0820313,0 0.1171875,-0.023437 0.12890625,-0.1171875 0.33984376,-1.0546875 0.99609376,-1.3007812 1.33593746,-1.3007812 0.1875,0 0.5390625,0.09375 0.5390625,0.6679687 0,0.3046875 -0.1640625,0.9726563 -0.5390625,2.3671875 -0.1523437,0.62109379 -0.5039062,1.04296879 -0.9492187,1.04296879 -0.058594,0 -0.28125001,0 -0.49218751,-0.12890625 0.24609375,-0.0585937 0.46875001,-0.26953125 0.46875001,-0.5390625 0,-0.26953124 -0.22265626,-0.35156254 -0.37500001,-0.35156254 -0.29296875,0 -0.5390625,0.25781254 -0.5390625,0.57421879 0,0.45703125 0.4921875,0.65625 0.93750001,0.65625 0.65625,0 1.0078125,-0.69140625 1.0429687,-0.75 0.1171875,0.36328125 0.4804688,0.75 1.078125,0.75 1.0195313,0 1.59375,-1.27734379 1.59375,-1.53515629 0,-0.09375 -0.09375,-0.09375 -0.1289062,-0.09375 -0.082031,0 -0.1054688,0.035156 -0.1289063,0.1054688 -0.328125,1.06640624 -0.9960937,1.31249999 -1.3242187,1.31249999 -0.3867188,0 -0.5390625,-0.328125 -0.5390625,-0.65625 0,-0.22265625 0.058594,-0.44531249 0.1640625,-0.87890629 z m 0,0"
       style="fill:#000000;fill-opacity:1;fill-rule:nonzero;stroke:none"
       aria-label="x"
       transform="matrix(1.3333333,0,0,1.3333333,73.424,195.02)" />
    <path
       id="path10"
       d="M 0,0 H 85.04042 C 85.04042,15.6557 46.96713,28.3468 0,28.3468 -46.96713,28.3468 -85.04042,15.6557 -85.04042,0"
       style="fill:#c7d7e2;fill-opacity:0.8;fill-rule:nonzero;stroke:#c7d7e2;stroke-width:0.3985;stroke-linecap:butt;stroke-linejoin:miter;stroke-miterlimit:10;stroke-dasharray:none;stroke-opacity:0.8"
       transform="matrix(1.3333333,0,0,-1.3333333,126.93467,133.956)" />
    <g
       id="g10"
       aria-label="σ&lt;0"
       transform="matrix(1.3333333,0,0,1.3333333,18.242667,128.744)">
      <path
         id="path11"
         d="m 5.1558906,-3.7162031 c 0.1289063,0 0.4921875,0 0.4921875,-0.3398438 0,-0.234375 -0.2109375,-0.234375 -0.3867187,-0.234375 H 2.9879219 c -1.5,0 -2.61328127,1.640625 -2.61328127,2.8242188 0,0.87890623 0.5859375,1.57031248 1.49999997,1.57031248 1.171875,0 2.4960938,-1.20703128 2.4960938,-2.73046878 0,-0.1757812 0,-0.65625 -0.3046875,-1.0898437 z m -3.2695312,3.60937498 c -0.4921875,0 -0.89062502,-0.36328125 -0.89062502,-1.07812498 0,-0.3046875 0.11718752,-1.1132813 0.46875002,-1.7109375 0.421875,-0.6796875 1.0195312,-0.8203125 1.359375,-0.8203125 0.8320312,0 0.9140625,0.65625 0.9140625,0.9609375 0,0.46875 -0.1992188,1.2890625 -0.5390625,1.79296873 -0.3867188,0.59765625 -0.9257813,0.85546875 -1.3125,0.85546875 z M 15.547492,-4.9583906 c 0.117188,-0.058594 0.1875,-0.1171875 0.1875,-0.2226563 0,-0.1054687 -0.09375,-0.1992187 -0.199219,-0.1992187 -0.03516,0 -0.04687,0 -0.175781,0.070312 l -5.5195311,2.6015625 c -0.1171875,0.046875 -0.1875,0.09375 -0.1875,0.2109375 0,0.1289062 0.070312,0.1757812 0.1875,0.2226562 l 5.5195311,2.60156253 c 0.128906,0.0703125 0.140625,0.0703125 0.175781,0.0703125 0.105469,0 0.199219,-0.09375 0.199219,-0.19921875 0,-0.10546875 -0.07031,-0.1640625 -0.1875,-0.22265625 L 10.32093,-2.4974531 Z m 0,0"
         style="fill:#000000;fill-opacity:0.8;fill-rule:nonzero;stroke:none" />
      <path
         id="path12"
         d="m 23.91468,-3.1888594 c 0,-0.796875 -0.04687,-1.59375 -0.398438,-2.3320312 -0.457031,-0.9609375 -1.277344,-1.1132813 -1.6875,-1.1132813 -0.597656,0 -1.335937,0.2578125 -1.734375,1.1835938 -0.328125,0.6914062 -0.375,1.4648437 -0.375,2.2617187 0,0.75 0.04687,1.640625 0.445313,2.40234378 0.433593,0.80859375 1.160156,1.0078125 1.652343,1.0078125 0.539063,0 1.289063,-0.2109375 1.734375,-1.16015625 0.316407,-0.69140623 0.363282,-1.46484373 0.363282,-2.25000003 z m -2.097657,3.18750003 c -0.386718,0 -0.984375,-0.24609375 -1.160156,-1.20703123 -0.105469,-0.5976563 -0.105469,-1.5117188 -0.105469,-2.0976563 0,-0.6445312 0,-1.3007812 0.08203,-1.8398437 0.1875,-1.1835938 0.925781,-1.265625 1.183593,-1.265625 0.328125,0 0.984375,0.1757812 1.171875,1.1601562 0.09375,0.5625 0.09375,1.3125 0.09375,1.9453125 0,0.75 0,1.4179688 -0.105468,2.0625 -0.152344,0.93750003 -0.714844,1.24218753 -1.160157,1.24218753 z m 0,0"
         style="fill:#000000;fill-opacity:0.8;fill-rule:nonzero;stroke:none" />
    </g>
    <path
       id="path13"
       d="M 0,0 H 85.04042 C 85.04042,-15.6557 46.96713,-28.3468 0,-28.3468 -46.96713,-28.3468 -85.04042,-15.6557 -85.04042,0"
       style="fill:#f8c4c8;fill-opacity:0.8;fill-rule:nonzero;stroke:#f8c4c8;stroke-width:0.3985;stroke-linecap:butt;stroke-linejoin:miter;stroke-miterlimit:10;stroke-dasharray:none;stroke-opacity:0.8"
       transform="matrix(1.3333333,0,0,-1.3333333,126.93467,133.956)" />
    <g
       id="g13"
       aria-label="σ&gt;0"
       transform="matrix(1.3333333,0,0,1.3333333,18.242667,147.20933)">
      <path
         id="path14"
         d="m 5.1558906,-3.7136406 c 0.1289063,0 0.4921875,0 0.4921875,-0.3398438 0,-0.234375 -0.2109375,-0.234375 -0.3867187,-0.234375 H 2.9879219 c -1.5,0 -2.61328127,1.640625 -2.61328127,2.8242188 0,0.87890623 0.5859375,1.57031248 1.49999997,1.57031248 1.171875,0 2.4960938,-1.20703128 2.4960938,-2.73046878 0,-0.1757812 0,-0.65625 -0.3046875,-1.0898437 z m -3.2695312,3.60937498 c -0.4921875,0 -0.89062502,-0.36328125 -0.89062502,-1.07812498 0,-0.3046875 0.11718752,-1.1132813 0.46875002,-1.7109375 0.421875,-0.6796875 1.0195312,-0.8203125 1.359375,-0.8203125 0.8320312,0 0.9140625,0.65625 0.9140625,0.9609375 0,0.46875 -0.1992188,1.2890625 -0.5390625,1.79296873 -0.3867188,0.59765625 -0.9257813,0.85546875 -1.3125,0.85546875 z M 15.547492,-2.2722344 c 0.105469,-0.046875 0.1875,-0.09375 0.1875,-0.2226562 0,-0.1171875 -0.08203,-0.1640625 -0.1875,-0.2109375 l -5.519531,-2.6015625 c -0.1289063,-0.070312 -0.1523438,-0.070312 -0.1757813,-0.070312 -0.1171875,0 -0.1992188,0.09375 -0.1992188,0.1992187 0,0.09375 0.046875,0.1523438 0.1875,0.2226563 l 5.2265621,2.4609375 -5.2265621,2.47265623 c -0.140625,0.0703125 -0.1875,0.12890625 -0.1875,0.22265625 0,0.10546875 0.082031,0.19921875 0.1992188,0.19921875 0.023437,0 0.046875,0 0.1757813,-0.0703125 z m 0,0"
         style="fill:#000000;fill-opacity:0.8;fill-rule:nonzero;stroke:none" />
      <path
         id="path15"
         d="m 23.91468,-3.1862969 c 0,-0.796875 -0.04687,-1.59375 -0.398438,-2.3320312 -0.457031,-0.9609375 -1.277344,-1.1132813 -1.6875,-1.1132813 -0.597656,0 -1.335937,0.2578125 -1.734375,1.1835938 -0.328125,0.6914062 -0.375,1.4648437 -0.375,2.2617187 0,0.75 0.04687,1.640625 0.445313,2.40234378 0.433593,0.80859375 1.160156,1.0078125 1.652343,1.0078125 0.539063,0 1.289063,-0.2109375 1.734375,-1.16015625 0.316407,-0.69140623 0.363282,-1.46484373 0.363282,-2.25000003 z m -2.097657,3.18750003 c -0.386718,0 -0.984375,-0.24609375 -1.160156,-1.20703123 -0.105469,-0.5976563 -0.105469,-1.5117188 -0.105469,-2.0976563 0,-0.6445312 0,-1.3007812 0.08203,-1.8398437 0.1875,-1.1835938 0.925781,-1.265625 1.183593,-1.265625 0.328125,0 0.984375,0.1757812 1.171875,1.1601562 0.09375,0.5625 0.09375,1.3125 0.09375,1.9453125 0,0.75 0,1.4179688 -0.105468,2.0625 -0.152344,0.93750003 -0.714844,1.24218753 -1.160157,1.24218753 z m 0,0"
         style="fill:#000000;fill-opacity:0.8;fill-rule:nonzero;stroke:none" />
    </g>
    <path
       id="path16"
       d="m 1.49442,56.69362 c 0,0.82533 -0.66909,1.49441 -1.49442,1.49441 -0.82533,0 -1.49442,-0.66908 -1.49442,-1.49441 0,-0.82535 0.66909,-1.49442 1.49442,-1.49442 0.82533,0 1.49442,0.66907 1.49442,1.49442 z"
       style="fill:#000000;fill-opacity:1;fill-rule:nonzero;stroke:none"
       transform="matrix(1.3333333,0,0,-1.3333333,126.93467,133.956)" />
    <path
       id="path17"
       d="m 3.0241172,-3.1535859 h 1.6875 c 1.4179687,0 2.8007812,-1.03125 2.8007812,-2.1445313 0,-0.7734375 -0.65625,-1.5117187 -1.96875,-1.5117187 H 2.3209922 c -0.1875,0 -0.2929688,0 -0.2929688,0.1992187 0,0.1171875 0.082031,0.1171875 0.28125,0.1171875 0.1289063,0 0.3164063,0.011719 0.4335938,0.011719 0.1523437,0.023437 0.2109375,0.058594 0.2109375,0.1640625 0,0.035156 0,0.070312 -0.035156,0.1875 l -1.3359375,5.35546871 c -0.09375,0.38671875 -0.1171875,0.46875 -0.90234371,0.46875 -0.17578125,0 -0.28125,0 -0.28125,0.1875 0,0.1171875 0.1171875,0.1171875 0.15234375,0.1171875 0.28125,0 0.98437496,-0.03515625 1.26562496,-0.03515625 0.2109375,0 0.421875,0.01171875 0.6328125,0.01171875 0.2226563,0 0.4453125,0.0234375 0.6445313,0.0234375 0.070312,0 0.1992187,0 0.1992187,-0.19921875 0,-0.10546875 -0.082031,-0.10546875 -0.2695312,-0.10546875 -0.375,0 -0.65625,0 -0.65625,-0.1875 0,-0.0585938 0.023437,-0.10546875 0.035156,-0.1640625 z m 0.7148437,-2.9648438 c 0.082031,-0.3515625 0.1054688,-0.375 0.5390625,-0.375 h 0.9492188 c 0.8320312,0 1.359375,0.2695313 1.359375,0.9492188 0,0.3984375 -0.1992188,1.2539062 -0.5859375,1.6054687 -0.5039063,0.4453125 -1.1015625,0.5273438 -1.5351563,0.5273438 h -1.40625 z m 0,0"
       style="fill:#000000;fill-opacity:1;fill-rule:nonzero;stroke:none"
       aria-label="P"
       transform="matrix(1.3333333,0,0,1.3333333,131.628,62.904)" />
    <path
       id="path18"
       d="m 48.27094,-10.91336 c 0,1.37558 -1.11512,2.49069 -2.4907,2.49069 -1.37558,0 -2.49069,-1.11511 -2.49069,-2.49069 0,-1.37558 1.11511,-2.49069 2.49069,-2.49069 1.37558,0 2.4907,1.11511 2.4907,2.49069 z"
       style="fill:#000000;fill-opacity:1;fill-rule:nonzero;stroke:none"
       transform="matrix(1.3333333,0,0,-1.3333333,126.93467,133.956)" />
    <g
       id="g18"
       aria-label="dq&#10;′"
       transform="matrix(1.3333333,0,0,1.3333333,192.668,152.20933)">
      <path
         id="path19"
         d="m 5.1445078,-6.8073906 c 0,0 0,-0.1054688 -0.1289062,-0.1054688 -0.1523438,0 -1.1015625,0.09375 -1.265625,0.1054688 -0.082031,0.011719 -0.140625,0.070312 -0.140625,0.1992187 0,0.1171875 0.082031,0.1171875 0.234375,0.1171875 0.4804687,0 0.5039062,0.070312 0.5039062,0.1640625 l -0.035156,0.1992188 -0.5976563,2.3671875 c -0.1757812,-0.375 -0.46875,-0.6445313 -0.9140625,-0.6445313 -1.171875,0 -2.40234374,1.4648438 -2.40234374,2.9179688 0,0.93749998 0.55078125,1.59374998 1.32421874,1.59374998 0.1992188,0 0.703125,-0.03515625 1.3007813,-0.73828125 0.070312,0.41015625 0.421875,0.73828125 0.9023437,0.73828125 0.3515625,0 0.5742188,-0.22265625 0.7382813,-0.5390625 0.1640625,-0.36328125 0.2929687,-0.97265628 0.2929687,-0.99609378 0,-0.09375 -0.082031,-0.09375 -0.1171875,-0.09375 -0.09375,0 -0.1054687,0.035156 -0.140625,0.1757813 -0.1640625,0.64453123 -0.3515625,1.24218748 -0.75,1.24218748 -0.2695312,0 -0.3046875,-0.2578125 -0.3046875,-0.45703125 0,-0.24609375 0.023437,-0.31640625 0.058594,-0.48046873 z m -2.0742187,5.625 c -0.046875,0.1757812 -0.046875,0.19921873 -0.1992188,0.36328123 -0.4453125,0.55078125 -0.84375,0.71484375 -1.125,0.71484375 -0.5039062,0 -0.6445312,-0.55078125 -0.6445312,-0.93749998 0,-0.5039063 0.328125,-1.7226563 0.5507812,-2.1796875 0.3046875,-0.5976563 0.7617188,-0.9609375 1.1601563,-0.9609375 0.6445312,0 0.7851562,0.8203125 0.7851562,0.8789062 0,0.058594 -0.023437,0.1171875 -0.035156,0.1640625 z m 6.6152343,-3.1054688 c 0,-0.046875 -0.023437,-0.1054687 -0.09375,-0.1054687 -0.1171875,0 -0.515625,0.3984375 -0.6796875,0.6914062 -0.2226562,-0.5390625 -0.609375,-0.703125 -0.9257812,-0.703125 -1.171875,0 -2.4023438,1.4765625 -2.4023438,2.9179688 0,0.98437498 0.5859375,1.59374998 1.3125,1.59374998 0.4335938,0 0.8203125,-0.234375 1.1835938,-0.59765625 -0.09375,0.3515625 -0.421875,1.69921877 -0.4570313,1.79296877 -0.082031,0.2695312 -0.1523437,0.3164062 -0.7148437,0.328125 -0.1289063,0 -0.2226563,0 -0.2226563,0.1992187 0,0 0,0.1054688 0.1289063,0.1054688 0.3164062,0 0.6679687,-0.035156 0.9960937,-0.035156 0.328125,0 0.6914063,0.035156 1.0195313,0.035156 0.046875,0 0.1757812,0 0.1757812,-0.1992188 0,-0.1054687 -0.09375,-0.1054687 -0.2578125,-0.1054687 -0.46875,0 -0.46875,-0.070312 -0.46875,-0.1640625 0,-0.070312 0.011719,-0.1289063 0.035156,-0.2226563 z m -2.7539062,4.18359378 c -0.5976563,0 -0.6445313,-0.7734375 -0.6445313,-0.93749998 0,-0.4804688 0.2929688,-1.5703125 0.4570313,-1.9804688 0.3164062,-0.7382812 0.8320312,-1.1601562 1.2421875,-1.1601562 0.6445312,0 0.7851562,0.8085937 0.7851562,0.8789062 0,0.058594 -0.5507812,2.2382813 -0.5742187,2.2734375 -0.1523438,0.28125003 -0.7148438,0.92578128 -1.265625,0.92578128 z m 0,0"
         style="fill:#000000;fill-opacity:1;fill-rule:nonzero;stroke:none" />
      <path
         id="path20"
         d="m 12.017555,-6.9099297 c 0.04687,-0.1171875 0.05859,-0.1757812 0.05859,-0.2226562 0,-0.2109375 -0.199218,-0.3867188 -0.410156,-0.3867188 -0.269531,0 -0.351562,0.2226563 -0.386719,0.328125 l -0.914062,3.0234375 c -0.01172,0.011719 -0.03516,0.1054688 -0.03516,0.1171875 0,0.082031 0.210937,0.1523438 0.269531,0.1523438 0.04687,0 0.05859,-0.023437 0.105469,-0.1289063 z m 0,0"
         style="fill:#000000;fill-opacity:1;fill-rule:nonzero;stroke:none" />
    </g>
    <path
       id="path21"
       d="M 0,0 41.24506,-9.83232"
       style="fill:none;stroke:#6b7280;stroke-width:0.79701;stroke-linecap:butt;stroke-linejoin:miter;stroke-miterlimit:10;stroke-dasharray:none;stroke-opacity:1"
       transform="matrix(1.3333333,0,0,-1.3333333,126.93467,133.956)" />
    <path
       id="path22"
       d="M 4.66248,0 C 3.28098,0.25902 1.0361,1.0361 -0.51805,1.94269 V -1.94269 C 1.0361,-1.0361 3.28098,-0.25902 4.66248,0"
       style="fill:#6b7280;fill-opacity:1;fill-rule:nonzero;stroke:none"
       transform="matrix(1.2969333,0.30914667,0.30914667,-1.2969333,181.92805,147.06576)" />
    <g
       id="g22"
       aria-label="⃗r&#10;′"
       transform="matrix(1.3333333,0,0,1.3333333,170.28933,163.452)">
      <path
         id="path23"
         d="m 5.3435469,-5.9288437 c -0.1289063,0.1289062 -0.4570313,0.4101562 -0.4570313,0.5859375 0,0.1054687 0.09375,0.1992187 0.1992188,0.1992187 0.082031,0 0.1289062,-0.070312 0.1875,-0.1289062 0.1171875,-0.140625 0.3398437,-0.421875 0.7851562,-0.6445313 0.070312,-0.035156 0.1640625,-0.09375 0.1640625,-0.2109375 0,-0.09375 -0.070312,-0.1523437 -0.140625,-0.1992187 -0.2109375,-0.1523438 -0.328125,-0.328125 -0.3984375,-0.5625 -0.023437,-0.09375 -0.070312,-0.2226563 -0.1992187,-0.2226563 -0.140625,0 -0.1992188,0.1289063 -0.1992188,0.2109375 0,0.046875 0.070312,0.3632813 0.234375,0.5742188 H 2.1560469 c -0.1640625,0 -0.3398438,0 -0.3398438,0.1992187 0,0.1992188 0.1757813,0.1992188 0.3398438,0.1992188 z m -4.1455078,5.34374995 c -0.035156,0.15234375 -0.09375,0.375 -0.09375,0.421875 0,0.1875 0.140625,0.26953125 0.2929687,0.26953125 0.1171875,0 0.2929688,-0.0703125 0.3632813,-0.26953125 0.023437,-0.046875 0.3632812,-1.39453125 0.3984375,-1.58203125 0.082031,-0.328125 0.2578125,-1.0195312 0.3164062,-1.2890625 0.046875,-0.1289062 0.328125,-0.5976562 0.5625,-0.8203125 0.082031,-0.070312 0.375,-0.328125 0.796875,-0.328125 0.2578125,0 0.4101563,0.1171875 0.421875,0.1171875 -0.3046875,0.046875 -0.515625,0.2929688 -0.515625,0.5507813 0,0.1640625 0.1054688,0.3515625 0.375,0.3515625 0.2695313,0 0.5507813,-0.234375 0.5507813,-0.5859375 0,-0.3515625 -0.328125,-0.65625 -0.8320313,-0.65625 -0.6445312,0 -1.0898437,0.4921875 -1.2773437,0.7734375 C 2.4753828,-4.089 2.1238203,-4.4054062 1.6550703,-4.4054062 c -0.4570312,0 -0.6445312,0.3867187 -0.73828124,0.5742187 -0.17578125,0.3398438 -0.3046875,0.9375 -0.3046875,0.9609375 0,0.1054688 0.09375,0.1054688 0.1171875,0.1054688 0.09375,0 0.10546875,-0.011719 0.1640625,-0.234375 C 1.0691328,-3.7022812 1.2683516,-4.18275 1.6199141,-4.18275 c 0.1757812,0 0.3164062,0.082031 0.3164062,0.4570313 0,0.2109375 -0.035156,0.3164062 -0.1640625,0.8320312 z m 0,0"
         style="fill:#6b7280;fill-opacity:1;fill-rule:nonzero;stroke:none" />
      <path
         id="path24"
         d="m 8.7771406,-6.9073594 c 0.046875,-0.1171875 0.058594,-0.1757812 0.058594,-0.2226562 0,-0.2109375 -0.1992188,-0.3867188 -0.4101563,-0.3867188 -0.2695312,0 -0.3515625,0.2226563 -0.3867187,0.328125 l -0.9140625,3.0234375 c -0.011719,0.011719 -0.035156,0.1054688 -0.035156,0.1171875 0,0.082031 0.2109375,0.1523438 0.2695313,0.1523438 0.046875,0 0.058594,-0.023437 0.1054687,-0.1289063 z m 0,0"
         style="fill:#6b7280;fill-opacity:1;fill-rule:nonzero;stroke:none" />
    </g>
    <path
       id="path25"
       d="m 4.5365078,-4.9796484 c 0,-0.65625 -0.1875,-2.0390625 -1.1953125,-2.0390625 -1.3828125,0 -2.91796874,2.8007812 -2.91796874,5.0859375 0,0.93749996 0.28125,2.03906246 1.19531254,2.03906246 1.40625,0 2.9179687,-2.85937496 2.9179687,-5.08593746 z m -3.0585937,1.359375 c 0.1640625,-0.6328125 0.3632812,-1.4296875 0.7617187,-2.1328125 0.2695313,-0.4921875 0.6445313,-1.0546875 1.0898438,-1.0546875 0.4921875,0 0.5507812,0.6445312 0.5507812,1.2070312 0,0.4921875 -0.082031,0.9960938 -0.328125,1.9804688 z m 1.9921875,0.328125 c -0.1171875,0.4570312 -0.3164063,1.3007812 -0.703125,2.015625 -0.3398438,0.67968746 -0.7265625,1.17187496 -1.1484375,1.17187496 -0.328125,0 -0.5390625,-0.29296875 -0.5390625,-1.21874996 0,-0.421875 0.058594,-0.9960938 0.3164062,-1.96875 z m 0,0"
       style="fill:#374151;fill-opacity:1;fill-rule:nonzero;stroke:none"
       aria-label="θ"
       transform="matrix(1.3333333,0,0,1.3333333,127.97867,153.12)" />
    <path
       id="path26"
       d="m -6.54807,-6.54807 c 8.10093,0 15.58906,1.29705 19.63935,3.40171"
       style="fill:none;stroke:#374151;stroke-width:0.3985;stroke-linecap:butt;stroke-linejoin:miter;stroke-miterlimit:10;stroke-dasharray:none;stroke-opacity:1"
       transform="matrix(1.3333333,0,0,-1.3333333,126.93467,133.956)" />
    <path
       id="path27"
       d="M 0,0 V 52.03113"
       style="fill:none;stroke:#6b7280;stroke-width:0.79701;stroke-linecap:butt;stroke-linejoin:miter;stroke-miterlimit:10;stroke-dasharray:none;stroke-opacity:1"
       transform="matrix(1.3333333,0,0,-1.3333333,126.93467,133.956)" />
    <path
       id="path28"
       d="M 4.66248,0 C 3.28098,0.25902 1.0361,1.0361 -0.51805,1.94269 V -1.94269 C 1.0361,-1.0361 3.28098,-0.25902 4.66248,0"
       style="fill:#6b7280;fill-opacity:1;fill-rule:nonzero;stroke:none"
       transform="matrix(0,-1.3333333,-1.3333333,0,126.93467,64.58116)" />
    <path
       id="path29"
       d="M 5.3443047,-5.9306562 C 5.2153984,-5.80175 4.8872734,-5.5205 4.8872734,-5.3447187 c 0,0.1054687 0.09375,0.1992187 0.1992188,0.1992187 0.082031,0 0.1289062,-0.070312 0.1875,-0.1289062 0.1171875,-0.140625 0.3398437,-0.421875 0.7851562,-0.6445313 0.070312,-0.035156 0.1640625,-0.09375 0.1640625,-0.2109375 0,-0.09375 -0.070312,-0.1523437 -0.140625,-0.1992187 -0.2109375,-0.1523438 -0.328125,-0.328125 -0.3984375,-0.5625 -0.023437,-0.09375 -0.070312,-0.2226563 -0.1992187,-0.2226563 -0.140625,0 -0.1992188,0.1289063 -0.1992188,0.2109375 0,0.046875 0.070312,0.3632813 0.234375,0.5742188 H 2.1568047 c -0.1640625,0 -0.3398438,0 -0.3398438,0.1992187 0,0.1992188 0.1757813,0.1992188 0.3398438,0.1992188 z m -4.1455078,5.34374995 c -0.035156,0.15234375 -0.09375,0.375 -0.09375,0.421875 0,0.1875 0.140625,0.26953125 0.2929687,0.26953125 0.1171875,0 0.2929688,-0.0703125 0.3632813,-0.26953125 0.023437,-0.046875 0.3632812,-1.39453125 0.3984375,-1.58203125 0.082031,-0.328125 0.2578125,-1.0195312 0.3164062,-1.2890625 0.046875,-0.1289062 0.328125,-0.5976562 0.5625,-0.8203125 0.082031,-0.070312 0.375,-0.328125 0.796875,-0.328125 0.2578125,0 0.4101563,0.1171875 0.421875,0.1171875 -0.3046875,0.046875 -0.515625,0.2929688 -0.515625,0.5507813 0,0.1640625 0.1054688,0.3515625 0.375,0.3515625 0.2695313,0 0.5507813,-0.234375 0.5507813,-0.5859375 0,-0.3515625 -0.328125,-0.65625 -0.8320313,-0.65625 -0.6445312,0 -1.0898437,0.4921875 -1.2773437,0.7734375 -0.082031,-0.4570313 -0.4335938,-0.7734375 -0.9023438,-0.7734375 -0.4570312,0 -0.6445312,0.3867187 -0.73828122,0.5742187 -0.17578125,0.3398438 -0.3046875,0.9375 -0.3046875,0.9609375 0,0.1054688 0.09375,0.1054688 0.1171875,0.1054688 0.09375,0 0.10546875,-0.011719 0.1640625,-0.234375 0.17578122,-0.703125 0.37500002,-1.1835938 0.72656252,-1.1835938 0.1757812,0 0.3164062,0.082031 0.3164062,0.4570313 0,0.2109375 -0.035156,0.3164062 -0.1640625,0.8320312 z m 0,0"
       style="fill:#6b7280;fill-opacity:1;fill-rule:nonzero;stroke:none"
       aria-label="⃗r"
       transform="matrix(1.3333333,0,0,1.3333333,115.19067,110.61067)" />
  </g>
</svg>
