<?xml version="1.0" encoding="UTF-8" standalone="no"?>
<!-- Created with Inkscape (http://www.inkscape.org/) -->

<svg
   version="1.1"
   id="svg1"
   width="388.55557"
   height="306.67096"
   viewBox="0 0 388.55557 306.67096"
   xmlns="http://www.w3.org/2000/svg"
   xmlns:svg="http://www.w3.org/2000/svg">
  <defs
     id="defs1">
    <radialGradient
       fx="50.000641"
       fy="50.000641"
       cx="50.000641"
       cy="50.000641"
       r="50.000641"
       gradientUnits="userSpaceOnUse"
       id="radialGradient3">
      <stop
         style="stop-opacity:1;stop-color:#e63946"
         offset="0"
         id="stop1" />
      <stop
         style="stop-opacity:1;stop-color:#fad7da"
         offset="0.5"
         id="stop2" />
      <stop
         style="stop-opacity:1;stop-color:#fad7da"
         offset="1"
         id="stop3" />
    </radialGradient>
    <clipPath
       clipPathUnits="userSpaceOnUse"
       id="clipPath4">
      <path
         d="m 280.37789,173.04267 c 0,-62.62284 -50.76438,-113.38723 -113.38722,-113.38723 -62.62284,0 -113.38723,50.76439 -113.38723,113.38723 0,62.62284 50.76439,113.38722 113.38723,113.38722 62.62284,0 113.38722,-50.76438 113.38722,-113.38722 z"
         id="path4" />
    </clipPath>
    <linearGradient
       x1="0"
       y1="0"
       x2="0"
       y2="100.00128"
       gradientUnits="userSpaceOnUse"
       id="linearGradient27">
      <stop
         style="stop-opacity:1;stop-color:#fad7da"
         offset="0"
         id="stop23" />
      <stop
         style="stop-opacity:1;stop-color:#fad7da"
         offset="0.25"
         id="stop24" />
      <stop
         style="stop-opacity:1;stop-color:#f08890"
         offset="0.5"
         id="stop25" />
      <stop
         style="stop-opacity:1;stop-color:#e63946"
         offset="0.75"
         id="stop26" />
      <stop
         style="stop-opacity:1;stop-color:#e63946"
         offset="1"
         id="stop27" />
    </linearGradient>
    <clipPath
       clipPathUnits="userSpaceOnUse"
       id="clipPath28">
      <path
         d="M 374.86725,286.42989 V 59.65544 h -18.89786 v 226.77445 z"
         id="path28" />
    </clipPath>
  </defs>
  <g
     id="g1"
     transform="translate(-15.807687,-17.554687)">
    <g
       id="g3"
       clip-path="url(#clipPath4)">
      <path
         d="M 0,0 H 100 V 100 H 0 Z"
         transform="matrix(4.5360267,0,0,-4.5360267,-59.810667,399.844)"
         style="fill:url(#radialGradient3);stroke:none"
         id="path3" />
    </g>
    <path
       id="path5"
       d="M 85.04042,0 C 85.04042,46.96713 46.96713,85.04042 0,85.04042 -46.96713,85.04042 -85.04042,46.96713 -85.04042,0 c 0,-46.96713 38.07329,-85.04042 85.04042,-85.04042 46.96713,0 85.04042,38.07329 85.04042,85.04042 z"
       style="fill:none;stroke:#000000;stroke-width:0.79701;stroke-linecap:butt;stroke-linejoin:miter;stroke-miterlimit:10;stroke-dasharray:none;stroke-opacity:1"
       transform="matrix(1.3333333,0,0,-1.3333333,166.99067,173.04267)" />
    <path
       id="path6"
       d="M -113.38724,0 H 112.59023"
       style="fill:none;stroke:#000000;stroke-width:0.79701;stroke-linecap:butt;stroke-linejoin:miter;stroke-miterlimit:10;stroke-dasharray:none;stroke-opacity:1"
       transform="matrix(1.3333333,0,0,-1.3333333,166.99067,173.04267)" />
    <path
       id="path7"
       d="M -2.55046,3.11095 C -2.0845,1.24435 -1.04614,0.36295 0,0 -1.04614,-0.36295 -2.0845,-1.24435 -2.55046,-3.11095"
       style="fill:none;stroke:#000000;stroke-width:0.79701;stroke-linecap:round;stroke-linejoin:round;stroke-miterlimit:10;stroke-dasharray:none;stroke-opacity:1"
       transform="matrix(1.3333333,0,0,-1.3333333,317.64229,173.04267)" />
    <path
       id="path8"
       d="m 3.3268047,-3.0119609 c 0.058594,-0.2578125 0.2929687,-1.171875 0.984375,-1.171875 0.046875,0 0.2929687,0 0.5039062,0.1289062 -0.28125,0.046875 -0.4804687,0.3046875 -0.4804687,0.5390625 0,0.1640625 0.1054687,0.3515625 0.375,0.3515625 0.2226562,0 0.5390625,-0.1875 0.5390625,-0.5859375 0,-0.515625 -0.5859375,-0.65625 -0.9257813,-0.65625 -0.5742187,0 -0.9257812,0.5273438 -1.0429687,0.7617188 -0.2578125,-0.65625 -0.7851563,-0.7617188 -1.078125,-0.7617188 -1.0429688,0 -1.60546876,1.2890625 -1.60546876,1.5351563 0,0.1054687 0.10546875,0.1054687 0.1171875,0.1054687 0.0820313,0 0.1171875,-0.023437 0.12890625,-0.1171875 0.33984371,-1.0546875 0.99609371,-1.3007812 1.33593751,-1.3007812 0.1875,0 0.5390625,0.09375 0.5390625,0.6679687 0,0.3046875 -0.1640625,0.9726563 -0.5390625,2.3671875 -0.1523438,0.62109376 -0.5039063,1.04296876 -0.9492188,1.04296876 -0.058594,0 -0.28124996,0 -0.49218746,-0.12890625 0.24609375,-0.0585937 0.46874996,-0.26953125 0.46874996,-0.5390625 0,-0.26953121 -0.22265621,-0.35156251 -0.37499996,-0.35156251 -0.29296875,0 -0.5390625,0.25781251 -0.5390625,0.57421876 0,0.45703125 0.4921875,0.65625 0.93749996,0.65625 0.65625,0 1.0078125,-0.69140625 1.0429688,-0.75 0.1171875,0.36328125 0.4804687,0.75 1.078125,0.75 1.0195312,0 1.59375,-1.27734376 1.59375,-1.53515626 0,-0.09375 -0.09375,-0.09375 -0.1289063,-0.09375 -0.082031,0 -0.1054687,0.035156 -0.1289062,0.1054688 -0.328125,1.06640621 -0.9960938,1.31249996 -1.3242188,1.31249996 -0.3867187,0 -0.5390625,-0.328125 -0.5390625,-0.65625 0,-0.22265625 0.058594,-0.44531246 0.1640625,-0.87890626 z m 0,0"
       style="fill:#000000;fill-opacity:1;fill-rule:nonzero;stroke:none"
       aria-label="x"
       transform="matrix(1.3333333,0,0,1.3333333,323.13067,175.90267)" />
    <path
       id="path9"
       d="M 0,-113.38724 V 112.59023"
       style="fill:none;stroke:#000000;stroke-width:0.79701;stroke-linecap:butt;stroke-linejoin:miter;stroke-miterlimit:10;stroke-dasharray:none;stroke-opacity:1"
       transform="matrix(1.3333333,0,0,-1.3333333,166.99067,173.04267)" />
    <path
       id="path10"
       d="M -2.55046,3.11095 C -2.0845,1.24435 -1.04614,0.36295 0,0 -1.04614,-0.36295 -2.0845,-1.24435 -2.55046,-3.11095"
       style="fill:none;stroke:#000000;stroke-width:0.79701;stroke-linecap:round;stroke-linejoin:round;stroke-miterlimit:10;stroke-dasharray:none;stroke-opacity:1"
       transform="matrix(0,-1.3333333,-1.3333333,0,166.99067,22.39104)" />
    <path
       id="path11"
       d="m 4.8400703,-3.7966094 c 0.046875,-0.140625 0.046875,-0.1523437 0.046875,-0.2226562 0,-0.1875 -0.140625,-0.2695313 -0.2929687,-0.2695313 -0.1054688,0 -0.2578125,0.058594 -0.3515625,0.1992188 -0.023437,0.058594 -0.09375,0.3632812 -0.140625,0.5390625 -0.070312,0.2578125 -0.140625,0.5273437 -0.1992188,0.796875 l -0.4453125,1.79296873 c -0.035156,0.15234375 -0.46875,0.85546875 -1.125,0.85546875 -0.5039062,0 -0.6210937,-0.4453125 -0.6210937,-0.80859375 0,-0.45703123 0.1757812,-1.07812503 0.515625,-1.95703123 0.1523437,-0.4101563 0.1992187,-0.515625 0.1992187,-0.7148438 0,-0.4453125 -0.328125,-0.8203125 -0.8203125,-0.8203125 -0.94921874,0 -1.31249999,1.453125 -1.31249999,1.5351563 0,0.1054687 0.09375,0.1054687 0.1171875,0.1054687 0.09375,0 0.10546875,-0.023437 0.15234375,-0.1875 0.26953125,-0.9375 0.66796874,-1.2304687 1.00781254,-1.2304687 0.082031,0 0.2578125,0 0.2578125,0.3164062 0,0.2460938 -0.1054688,0.515625 -0.1757813,0.703125 -0.3984375,1.0546875 -0.5742187,1.6171875 -0.5742187,2.0859375 0,0.89062503 0.6210937,1.18359378 1.21875,1.18359378 0.3867187,0 0.7265625,-0.1640625 0.9960937,-0.4453125 -0.1289062,0.515625 -0.2460937,1.0078125 -0.6445312,1.53515622 -0.2578125,0.3398438 -0.6328125,0.6328125 -1.0898438,0.6328125 -0.140625,0 -0.59765624,-0.035156 -0.76171874,-0.421875 0.1640625,0 0.29296874,0 0.43359374,-0.1171875 0.09375,-0.09375 0.1992188,-0.2226562 0.1992188,-0.41015622 0,-0.31640625 -0.2695313,-0.3515625 -0.375,-0.3515625 -0.22265629,0 -0.55078129,0.1640625 -0.55078129,0.64453122 0,0.5039063 0.43359375,0.8671875 1.05468749,0.8671875 1.0195313,0 2.0507813,-0.9023437 2.3320313,-2.02734372 z m 0,0"
       style="fill:#000000;fill-opacity:1;fill-rule:nonzero;stroke:none"
       aria-label="y"
       transform="matrix(1.3333333,0,0,1.3333333,155.04267,23.429333)" />
    <path
       id="path12"
       d="m 7.37175,-4.3482812 c 0,-1.59375 -1.0546875,-2.671875 -2.5429687,-2.671875 -2.1445313,0 -4.33593755,2.2617187 -4.33593755,4.5820312 0,1.65234375 1.11328125,2.66015625 2.54296875,2.66015625 2.109375,0 4.3359375,-2.17968745 4.3359375,-4.57031245 z m -4.2773437,4.31249995 c -0.984375,0 -1.6757813,-0.80859375 -1.6757813,-2.12109375 0,-0.4453125 0.140625,-1.8984375 0.9023438,-3.0585937 0.6914062,-1.0429688 1.6640625,-1.5585938 2.4492187,-1.5585938 0.8203125,0 1.7109375,0.5625 1.7109375,2.0390625 0,0.7148438 -0.2695312,2.2734375 -1.2539062,3.5039063 -0.4804688,0.5976562 -1.2890625,1.19531245 -2.1328125,1.19531245 z m 0,0"
       style="fill:#000000;fill-opacity:1;fill-rule:nonzero;stroke:none"
       aria-label="O"
       transform="matrix(1.3333333,0,0,1.3333333,151.796,186.81333)" />
    <path
       id="path13"
       d="m 3.7390156,-6.1178125 c 0.058594,-0.234375 0.082031,-0.3398437 0.28125,-0.3632812 0.082031,-0.011719 0.3984375,-0.011719 0.5976563,-0.011719 0.7148437,0 1.8164062,0 1.8164062,0.984375 0,0.3398438 -0.1523437,1.0195313 -0.5507812,1.4179688 C 5.6257344,-3.8326562 5.0983906,-3.51625 4.2077656,-3.51625 H 3.0944844 Z m 1.4296875,2.7304688 C 6.1765156,-3.61 7.3601094,-4.3014062 7.3601094,-5.3092187 c 0,-0.8554688 -0.890625,-1.5 -2.203125,-1.5 H 2.3210469 c -0.1992188,0 -0.2929688,0 -0.2929688,0.1992187 0,0.1171875 0.09375,0.1171875 0.28125,0.1171875 0.023437,0 0.2109375,0 0.3867188,0.011719 0.1757812,0.023437 0.2578125,0.035156 0.2578125,0.1640625 0,0.035156 0,0.070312 -0.035156,0.1875 l -1.3359375,5.3554687 c -0.09375,0.38671875 -0.1171875,0.46875 -0.90234373,0.46875 -0.17578125,0 -0.26953125,0 -0.26953125,0.19921875 0,0.10546875 0.1171875,0.10546875 0.140625,0.10546875 0.28125,0 0.97265628,-0.03515625 1.25390628,-0.03515625 0.28125,0 0.984375,0.03515625 1.265625,0.03515625 0.082031,0 0.1992187,0 0.1992187,-0.19921875 0,-0.10546875 -0.09375,-0.10546875 -0.28125,-0.10546875 -0.3632812,0 -0.6445312,0 -0.6445312,-0.1875 0,-0.0585938 0.011719,-0.10546875 0.023437,-0.1640625 l 0.65625,-2.6367187 h 1.1953125 c 0.9023437,0 1.078125,0.5507812 1.078125,0.9023437 0,0.1523438 -0.082031,0.4570313 -0.140625,0.6914063 -0.070312,0.2695312 -0.1523438,0.6445312 -0.1523438,0.84374995 0,1.078125 1.1953125,1.078125 1.3242188,1.078125 0.84375,0 1.1953125,-1.0078125 1.1953125,-1.1484375 0,-0.11718745 -0.1171875,-0.11718745 -0.1171875,-0.11718745 -0.09375,0 -0.1171875,0.0703124 -0.1289063,0.14062495 C 7.0202656,-0.1646875 6.5983906,-6.25e-4 6.3640156,-6.25e-4 c -0.328125,0 -0.3984375,-0.22265625 -0.3984375,-0.609375 0,-0.3046875 0.058594,-0.8203125 0.1054688,-1.1367187 0.011719,-0.140625 0.035156,-0.328125 0.035156,-0.46875 0,-0.7617188 -0.6679687,-1.078125 -0.9374998,-1.171875 z m 0,0"
       style="fill:#000000;fill-opacity:1;fill-rule:nonzero;stroke:none"
       aria-label="R"
       transform="matrix(1.3333333,0,0,1.3333333,285.06933,186.81333)" />
    <g
       id="g13"
       aria-label="−R"
       transform="matrix(1.3333333,0,0,1.3333333,28.392,186.81333)">
      <path
         id="path14"
         d="m 6.5614688,-2.2975 c 0.1757812,0 0.3515625,0 0.3515625,-0.1992187 0,-0.1992188 -0.1757813,-0.1992188 -0.3515625,-0.1992188 h -5.390625 c -0.1640625,0 -0.3398438,0 -0.3398438,0.1992188 0,0.1992187 0.1757813,0.1992187 0.3398438,0.1992187 z m 0,0"
         style="fill:#000000;fill-opacity:1;fill-rule:nonzero;stroke:none" />
      <path
         id="path15"
         d="m 11.486273,-6.1178125 c 0.05859,-0.234375 0.08203,-0.3398437 0.28125,-0.3632812 0.08203,-0.011719 0.398438,-0.011719 0.597657,-0.011719 0.714843,0 1.816406,0 1.816406,0.984375 0,0.3398438 -0.152344,1.0195313 -0.550781,1.4179688 -0.257813,0.2578125 -0.785157,0.5742187 -1.675782,0.5742187 h -1.113281 z m 1.429688,2.7304688 c 1.007812,-0.2226563 2.191406,-0.9140625 2.191406,-1.921875 0,-0.8554688 -0.890625,-1.5 -2.203125,-1.5 h -2.835937 c -0.1992191,0 -0.2929691,0 -0.2929691,0.1992187 0,0.1171875 0.09375,0.1171875 0.2812501,0.1171875 0.02344,0 0.210937,0 0.386719,0.011719 0.175781,0.023437 0.257812,0.035156 0.257812,0.1640625 0,0.035156 0,0.070312 -0.03516,0.1875 l -1.3359376,5.3554687 c -0.09375,0.38671875 -0.1171875,0.46875 -0.9023437,0.46875 -0.1757813,0 -0.2695313,0 -0.2695313,0.19921875 0,0.10546875 0.1171875,0.10546875 0.140625,0.10546875 0.28125,0 0.9726563,-0.03515625 1.2539063,-0.03515625 0.28125,0 0.9843753,0.03515625 1.2656253,0.03515625 0.08203,0 0.199218,0 0.199218,-0.19921875 0,-0.10546875 -0.09375,-0.10546875 -0.28125,-0.10546875 -0.363281,0 -0.644531,0 -0.644531,-0.1875 0,-0.0585938 0.01172,-0.10546875 0.02344,-0.1640625 l 0.65625,-2.6367187 h 1.195312 c 0.902344,0 1.078125,0.5507812 1.078125,0.9023437 0,0.1523438 -0.08203,0.4570313 -0.140625,0.6914063 -0.07031,0.2695312 -0.152344,0.6445312 -0.152344,0.84374995 0,1.078125 1.195313,1.078125 1.324219,1.078125 0.84375,0 1.195313,-1.0078125 1.195313,-1.1484375 0,-0.11718745 -0.117188,-0.11718745 -0.117188,-0.11718745 -0.09375,0 -0.117187,0.0703124 -0.128906,0.14062495 -0.257813,0.73828125 -0.679688,0.90234375 -0.914063,0.90234375 -0.328125,0 -0.398437,-0.22265625 -0.398437,-0.609375 0,-0.3046875 0.05859,-0.8203125 0.105469,-1.1367187 0.01172,-0.140625 0.03516,-0.328125 0.03516,-0.46875 0,-0.7617188 -0.667969,-1.078125 -0.9375,-1.171875 z m 0,0"
         style="fill:#000000;fill-opacity:1;fill-rule:nonzero;stroke:none" />
    </g>
    <g
       id="g15"
       aria-label="σ=σ&#10;0&#10;e&#10;−αr&#10;2"
       transform="matrix(1.3333333,0,0,1.3333333,17.710667,52.972)">
      <path
         id="path16"
         d="m 5.1564531,-3.7143516 c 0.1289063,0 0.4921875,0 0.4921875,-0.3398437 0,-0.234375 -0.2109375,-0.234375 -0.3867187,-0.234375 H 2.9884844 c -1.5,0 -2.61328128,1.640625 -2.61328128,2.8242187 0,0.87890629 0.5859375,1.57031254 1.49999998,1.57031254 1.171875,0 2.4960938,-1.20703124 2.4960938,-2.73046874 0,-0.1757813 0,-0.65625 -0.3046875,-1.0898438 z m -3.2695312,3.60937504 c -0.4921875,0 -0.89062503,-0.36328125 -0.89062503,-1.07812504 0,-0.3046875 0.11718753,-1.1132812 0.46875003,-1.7109375 0.421875,-0.6796875 1.0195312,-0.8203125 1.359375,-0.8203125 0.8320312,0 0.9140625,0.65625 0.9140625,0.9609375 0,0.46875 -0.1992188,1.2890625 -0.5390625,1.79296879 -0.3867188,0.59765625 -0.9257813,0.85546875 -1.3125,0.85546875 z m 0,0"
         style="fill:#000000;fill-opacity:1;fill-rule:nonzero;stroke:none" />
      <path
         id="path17"
         d="m 15.662312,-3.2573203 c 0.152344,0 0.339844,0 0.339844,-0.1992188 0,-0.1992187 -0.1875,-0.1992187 -0.328125,-0.1992187 H 9.7091875 c -0.140625,0 -0.328125,0 -0.328125,0.1992187 0,0.1992188 0.1875,0.1992188 0.3398437,0.1992188 z m 0.01172,1.9335937 c 0.140625,0 0.328125,0 0.328125,-0.1992187 0,-0.1992188 -0.1875,-0.1992188 -0.339844,-0.1992188 H 9.7209062 c -0.1523437,0 -0.3398437,0 -0.3398437,0.1992188 0,0.1992187 0.1875,0.1992187 0.328125,0.1992187 z m 0,0"
         style="fill:#000000;fill-opacity:1;fill-rule:nonzero;stroke:none" />
      <path
         id="path18"
         d="m 24.489461,-3.7143516 c 0.128906,0 0.492187,0 0.492187,-0.3398437 0,-0.234375 -0.210937,-0.234375 -0.386718,-0.234375 h -2.273438 c -1.5,0 -2.613281,1.640625 -2.613281,2.8242187 0,0.87890629 0.585937,1.57031254 1.5,1.57031254 1.171875,0 2.496094,-1.20703124 2.496094,-2.73046874 0,-0.1757813 0,-0.65625 -0.304688,-1.0898438 z m -3.269531,3.60937504 c -0.492188,0 -0.890625,-0.36328125 -0.890625,-1.07812504 0,-0.3046875 0.117187,-1.1132812 0.46875,-1.7109375 0.421875,-0.6796875 1.019531,-0.8203125 1.359375,-0.8203125 0.832031,0 0.914062,0.65625 0.914062,0.9609375 0,0.46875 -0.199219,1.2890625 -0.539062,1.79296879 -0.386719,0.59765625 -0.925782,0.85546875 -1.3125,0.85546875 z m 0,0"
         style="fill:#000000;fill-opacity:1;fill-rule:nonzero;stroke:none" />
      <path
         id="path19"
         d="m 28.62325,-0.73192969 c 0,-0.76171871 -0.09375,-1.31250001 -0.410156,-1.80468751 -0.222657,-0.3164062 -0.644532,-0.5976562 -1.207032,-0.5976562 -1.617187,0 -1.617187,1.8984375 -1.617187,2.40234371 0,0.50390625 0,2.36718749 1.617187,2.36718749 1.617188,0 1.617188,-1.86328124 1.617188,-2.36718749 z M 27.006062,1.4360391 c -0.316406,0 -0.75,-0.1875 -0.890625,-0.76171879 -0.09375,-0.41015625 -0.09375,-0.984375 -0.09375,-1.5 0,-0.50390621 0,-1.03125001 0.105469,-1.41796871 0.152344,-0.5507813 0.597656,-0.6914063 0.878906,-0.6914063 0.375,0 0.738282,0.2226563 0.867188,0.6328125 0.105469,0.375 0.117187,0.8789063 0.117187,1.47656251 0,0.515625 0,1.04296875 -0.09375,1.4765625 C 27.756062,1.2836953 27.287312,1.4360391 27.006062,1.4360391 Z m 0,0"
         style="fill:#000000;fill-opacity:1;fill-rule:nonzero;stroke:none" />
      <path
         id="path20"
         d="m 31.359578,-2.2963828 c 0.292969,0 1.03125,-0.023437 1.523438,-0.234375 0.703125,-0.2929688 0.75,-0.890625 0.75,-1.0195313 0,-0.4453125 -0.386719,-0.8554687 -1.066407,-0.8554687 -1.113281,0 -2.613281,0.9726562 -2.613281,2.7070312 0,1.01953129 0.585938,1.80468754 1.570313,1.80468754 1.417968,0 2.261718,-1.0546875 2.261718,-1.17187504 0,-0.058594 -0.07031,-0.1289062 -0.128906,-0.1289062 -0.04687,0 -0.07031,0.023437 -0.128906,0.09375 -0.785156,0.99609374 -1.875,0.99609374 -1.992188,0.99609374 -0.773437,0 -0.867187,-0.84375 -0.867187,-1.16015624 0,-0.1171875 0.01172,-0.4335938 0.164062,-1.03125 z m -0.46875,-0.2226563 c 0.386719,-1.5117187 1.417969,-1.6640625 1.675781,-1.6640625 0.46875,0 0.738282,0.2929688 0.738282,0.6328125 0,1.03125 -1.59375,1.03125 -2.003907,1.03125 z m 0,0"
         style="fill:#000000;fill-opacity:1;fill-rule:nonzero;stroke:none" />
      <path
         id="path21"
         d="m 39.325398,-5.1850547 c 0.105469,0 0.269532,0 0.269532,-0.1757812 0,-0.1757813 -0.152344,-0.1757813 -0.269532,-0.1757813 h -4.160156 c -0.105469,0 -0.28125,0 -0.28125,0.1757813 0,0.1757812 0.164063,0.1757812 0.28125,0.1757812 z m 0,0"
         style="fill:#000000;fill-opacity:1;fill-rule:nonzero;stroke:none" />
      <path
         id="path22"
         d="m 44.171102,-4.5991172 c 0.644531,-0.65625 0.902343,-1.59375 0.902343,-1.6640625 0,-0.09375 -0.08203,-0.09375 -0.117187,-0.09375 -0.09375,0 -0.09375,0.023437 -0.140625,0.1757813 -0.128906,0.4570312 -0.363281,0.890625 -0.65625,1.265625 0,-0.1054688 -0.02344,-0.5742188 -0.03516,-0.6328125 -0.105469,-0.6914063 -0.621094,-1.1367188 -1.324219,-1.1367188 -1.019531,0 -2.003906,0.9492188 -2.003906,1.921875 0,0.6445313 0.46875,1.21875 1.277343,1.21875 0.644532,0 1.21875,-0.2929687 1.605469,-0.5976562 0.164063,0.515625 0.515625,0.5976562 0.726563,0.5976562 0.410156,0 0.65625,-0.3398437 0.65625,-0.4921875 0,-0.082031 -0.08203,-0.082031 -0.117188,-0.082031 -0.09375,0 -0.105469,0.035156 -0.117187,0.070312 -0.105469,0.2695312 -0.316407,0.3046875 -0.398438,0.3046875 -0.09375,0 -0.222656,0 -0.257812,-0.8554688 z m -0.539063,0.234375 c -0.679687,0.5625 -1.277344,0.6210938 -1.535156,0.6210938 -0.46875,0 -0.726563,-0.3046875 -0.726563,-0.7734375 0,-0.1992188 0.105469,-0.9609375 0.46875,-1.4414063 0.316407,-0.421875 0.714844,-0.5390625 0.960938,-0.5390625 0.550781,0 0.714844,0.5390625 0.773437,0.9726563 0.03516,0.3046875 0.02344,0.796875 0.05859,1.1601562 z m 3.550781,-0.65625 c 0,-0.046875 0.164063,-0.6679687 0.175782,-0.703125 0.01172,-0.058594 0.222656,-0.4101562 0.445312,-0.5742187 0.07031,-0.058594 0.257813,-0.1992188 0.5625,-0.1992188 0.07031,0 0.246094,0.011719 0.386719,0.1054688 -0.222656,0.058594 -0.304688,0.2578125 -0.304688,0.375 0,0.1523437 0.117188,0.2578125 0.269532,0.2578125 0.164062,0 0.398437,-0.1289063 0.398437,-0.421875 0,-0.3632813 -0.386719,-0.5039063 -0.738281,-0.5039063 -0.363281,0 -0.679688,0.140625 -0.984375,0.4921875 -0.128906,-0.421875 -0.550781,-0.4921875 -0.726563,-0.4921875 -0.257812,0 -0.421875,0.1523438 -0.539062,0.3515625 -0.164063,0.2695313 -0.257813,0.6796875 -0.257813,0.7148438 0,0.082031 0.09375,0.082031 0.117188,0.082031 0.09375,0 0.105469,-0.011719 0.152344,-0.1992187 0.105468,-0.4335938 0.234375,-0.7617188 0.515625,-0.7617188 0.175781,0 0.222656,0.1523438 0.222656,0.3398438 0,0.140625 -0.05859,0.3984375 -0.105469,0.5859375 -0.04687,0.1875 -0.117187,0.46875 -0.152344,0.6210937 l -0.222656,0.9023438 c -0.03516,0.082031 -0.07031,0.2578125 -0.07031,0.28125 0,0.1523437 0.117187,0.2226562 0.234375,0.2226562 0.105468,0 0.246093,-0.058594 0.292968,-0.1992187 0.02344,-0.046875 0.09375,-0.3515625 0.140625,-0.5273438 z m 0,0"
         style="fill:#000000;fill-opacity:1;fill-rule:nonzero;stroke:none" />
      <path
         id="path23"
         d="m 52.383016,-7.5815391 h -0.210938 c -0.01172,0.09375 -0.05859,0.3984375 -0.140625,0.4570313 -0.03516,0.023437 -0.457031,0.023437 -0.527344,0.023437 h -0.984375 c 0.328125,-0.2460938 0.703125,-0.515625 0.996094,-0.7148438 0.457031,-0.3164062 0.867188,-0.5976562 0.867188,-1.125 0,-0.6445312 -0.597657,-0.9960937 -1.3125,-0.9960937 -0.667969,0 -1.160157,0.3867187 -1.160157,0.8789062 0,0.2578125 0.210938,0.3046875 0.28125,0.3046875 0.140625,0 0.292969,-0.09375 0.292969,-0.2929687 0,-0.1875 -0.128906,-0.28125 -0.28125,-0.2929688 0.140625,-0.234375 0.433594,-0.375 0.761719,-0.375 0.480469,0 0.890625,0.28125 0.890625,0.7734375 0,0.421875 -0.292969,0.7382813 -0.679688,1.0546875 l -1.207031,1.03125 c -0.04687,0.046875 -0.05859,0.046875 -0.05859,0.082031 v 0.1523437 h 2.308594 z m 0,0"
         style="fill:#000000;fill-opacity:1;fill-rule:nonzero;stroke:none" />
    </g>
    <g
       id="g27"
       clip-path="url(#clipPath28)">
      <path
         d="M 0,0 H 100 V 100 H 0 Z"
         transform="matrix(0.378,0,0,-4.5360267,346.51832,399.844)"
         style="fill:url(#linearGradient27);stroke:none"
         id="path27" />
    </g>
    <g
       id="g28"
       aria-label="σ&#10;0"
       transform="matrix(1.3333333,0,0,1.3333333,379.55733,61.52)">
      <path
         id="path29"
         d="m 5.1571953,-3.7151953 c 0.1289063,0 0.4921875,0 0.4921875,-0.3398438 0,-0.234375 -0.2109375,-0.234375 -0.3867187,-0.234375 H 2.9892266 c -1.5,0 -2.61328129,1.640625 -2.61328129,2.8242188 0,0.87890624 0.5859375,1.57031249 1.49999999,1.57031249 1.171875,0 2.4960938,-1.20703129 2.4960938,-2.73046879 0,-0.1757812 0,-0.65625 -0.3046875,-1.0898437 z m -3.2695312,3.60937499 c -0.4921875,0 -0.89062504,-0.36328125 -0.89062504,-1.07812499 0,-0.3046875 0.11718754,-1.1132813 0.46875004,-1.7109375 0.421875,-0.6796875 1.0195312,-0.8203125 1.359375,-0.8203125 0.8320312,0 0.9140625,0.65625 0.9140625,0.9609375 0,0.46875 -0.1992188,1.2890625 -0.5390625,1.79296874 -0.3867188,0.59765625 -0.9257813,0.85546875 -1.3125,0.85546875 z m 0,0"
         style="fill:#000000;fill-opacity:1;fill-rule:nonzero;stroke:none" />
      <path
         id="path30"
         d="m 9.2909844,-0.73277344 c 0,-0.76171876 -0.09375,-1.31249996 -0.4101563,-1.80468746 -0.2226562,-0.3164063 -0.6445312,-0.5976563 -1.2070312,-0.5976563 -1.6171875,0 -1.6171875,1.8984375 -1.6171875,2.40234376 0,0.50390625 0,2.36718754 1.6171875,2.36718754 1.6171875,0 1.6171875,-1.86328129 1.6171875,-2.36718754 z M 7.6737969,1.4351953 c -0.3164063,0 -0.75,-0.1875 -0.890625,-0.76171874 -0.09375,-0.41015625 -0.09375,-0.984375 -0.09375,-1.5 0,-0.50390626 0,-1.03124996 0.1054687,-1.41796876 0.1523438,-0.5507812 0.5976563,-0.6914062 0.8789063,-0.6914062 0.375,0 0.7382812,0.2226562 0.8671875,0.6328125 0.1054687,0.375 0.1171875,0.8789062 0.1171875,1.47656246 0,0.515625 0,1.04296875 -0.09375,1.4765625 C 8.4237969,1.2828516 7.9550469,1.4351953 7.6737969,1.4351953 Z m 0,0"
         style="fill:#000000;fill-opacity:1;fill-rule:nonzero;stroke:none" />
    </g>
    <g
       id="g30"
       aria-label="σ&#10;m´ın"
       transform="matrix(1.3333333,0,0,1.3333333,379.55733,288.292)">
      <path
         id="path31"
         d="m 5.1571953,-3.7141172 c 0.1289063,0 0.4921875,0 0.4921875,-0.3398437 0,-0.234375 -0.2109375,-0.234375 -0.3867187,-0.234375 H 2.9892266 c -1.5,0 -2.61328129,1.640625 -2.61328129,2.8242187 0,0.87890626 0.5859375,1.57031251 1.49999999,1.57031251 1.171875,0 2.4960938,-1.20703121 2.4960938,-2.73046871 0,-0.1757813 0,-0.65625 -0.3046875,-1.0898438 z m -3.2695312,3.60937501 c -0.4921875,0 -0.89062504,-0.36328125 -0.89062504,-1.07812501 0,-0.3046875 0.11718754,-1.1132812 0.46875004,-1.7109375 0.421875,-0.6796875 1.0195312,-0.8203125 1.359375,-0.8203125 0.8320312,0 0.9140625,0.65625 0.9140625,0.9609375 0,0.46875 -0.1992188,1.2890625 -0.5390625,1.79296876 -0.3867188,0.59765625 -0.9257813,0.85546875 -1.3125,0.85546875 z m 0,0"
         style="fill:#000000;fill-opacity:1;fill-rule:nonzero;stroke:none" />
      <path
         id="path32"
         d="m 11.423797,-0.61450781 c 0,-0.60937499 -0.292969,-0.96093749 -1.042969,-0.96093749 -0.5507811,0 -0.9257811,0.2929687 -1.1132811,0.64453124 -0.140625,-0.49218754 -0.515625,-0.64453124 -1.03125,-0.64453124 -0.5742188,0 -0.9375,0.3046875 -1.1367188,0.66796874 V -1.5754453 l -1.03125,0.070312 v 0.2578125 c 0.46875,0 0.5273438,0.046875 0.5273438,0.38671874 v 1.8046875 c 0,0.30468746 -0.070312,0.30468746 -0.5273438,0.30468746 v 0.2460938 c 0.011719,0 0.5039063,-0.023437 0.796875,-0.023437 0.2578125,0 0.7382813,0.011719 0.796875,0.023437 V 1.2487734 c -0.4453125,0 -0.515625,0 -0.515625,-0.30468746 v -1.25390625 c 0,-0.73828129 0.5742188,-1.07812499 1.03125,-1.07812499 0.4921875,0 0.5507813,0.3867187 0.5507813,0.73828124 v 1.59375 c 0,0.30468746 -0.070312,0.30468746 -0.515625,0.30468746 v 0.2460938 c 0.011719,0 0.5039062,-0.023437 0.796875,-0.023437 0.2578125,0 0.7382812,0.011719 0.796875,0.023437 V 1.2487734 c -0.4570313,0 -0.5273438,0 -0.5273438,-0.30468746 v -1.25390625 c 0,-0.73828129 0.5859375,-1.07812499 1.0429684,-1.07812499 0.492188,0 0.550782,0.3867187 0.550782,0.73828124 v 1.59375 c 0,0.30468746 -0.07031,0.30468746 -0.527344,0.30468746 v 0.2460938 c 0.02344,0 0.503906,-0.023437 0.796875,-0.023437 0.257812,0 0.738281,0.011719 0.808594,0.023437 V 1.2487734 c -0.457032,0 -0.527344,0 -0.527344,-0.30468746 z m 1.760742,-1.41796879 c 0.539063,-0.3984375 0.960938,-0.6914062 1.101563,-0.796875 0.105468,-0.070312 0.164062,-0.1289062 0.164062,-0.2578125 0,-0.1289062 -0.117187,-0.28125 -0.28125,-0.28125 -0.117187,0 -0.164062,0.058594 -0.234375,0.140625 l -0.914062,1.0078125 z m 0.492188,0.4570313 -1.03125,0.070312 v 0.2578125 c 0.445312,0 0.503906,0.035156 0.503906,0.37499999 v 1.81640625 c 0,0.30468746 -0.07031,0.30468746 -0.527344,0.30468746 v 0.2460938 c 0.02344,0 0.503906,-0.023437 0.785156,-0.023437 0.246094,0 0.492188,0 0.738282,0.023437 V 1.2487734 c -0.398438,0 -0.46875,0 -0.46875,-0.29296871 z m 4.40039,0.96093749 c 0,-0.60937499 -0.292969,-0.96093749 -1.042969,-0.96093749 -0.574218,0 -0.9375,0.3046875 -1.136718,0.66796874 V -1.5754453 l -1.03125,0.070312 v 0.2578125 c 0.46875,0 0.527343,0.046875 0.527343,0.38671874 v 1.8046875 c 0,0.30468746 -0.07031,0.30468746 -0.527343,0.30468746 v 0.2460938 c 0.01172,0 0.503906,-0.023437 0.796875,-0.023437 0.257812,0 0.738281,0.011719 0.796875,0.023437 V 1.2487734 c -0.445313,0 -0.515625,0 -0.515625,-0.30468746 v -1.25390625 c 0,-0.73828129 0.574218,-1.07812499 1.03125,-1.07812499 0.492187,0 0.550781,0.3867187 0.550781,0.73828124 v 1.59375 c 0,0.30468746 -0.07031,0.30468746 -0.515625,0.30468746 v 0.2460938 c 0.01172,0 0.503906,-0.023437 0.796875,-0.023437 0.257812,0 0.738281,0.011719 0.796875,0.023437 V 1.2487734 c -0.457031,0 -0.527344,0 -0.527344,-0.30468746 z m 0,0"
         style="fill:#000000;fill-opacity:1;fill-rule:nonzero;stroke:none" />
    </g>
  </g>
</svg>
