<?xml version="1.0" encoding="UTF-8" standalone="no"?>
<!-- Created with Inkscape (http://www.inkscape.org/) -->

<svg
   version="1.1"
   id="svg1"
   width="211.11058"
   height="234.30414"
   viewBox="0 0 211.11058 234.30414"
   xmlns="http://www.w3.org/2000/svg"
   xmlns:svg="http://www.w3.org/2000/svg">
  <defs
     id="defs1" />
  <g
     id="g1"
     transform="translate(-16.558626,-13.813707)">
    <path
       id="path1"
       d="M 3.62335,-31.48505 55.35309,110.63948"
       style="fill:none;stroke:#6b7280;stroke-width:0.79701;stroke-linecap:butt;stroke-linejoin:miter;stroke-miterlimit:10;stroke-dasharray:none;stroke-opacity:1"
       transform="matrix(1.3333333,0,0,-1.3333333,36.908,167.17467)" />
    <path
       id="path2"
       d="M 4.66248,0 C 3.28098,0.25902 1.0361,1.0361 -0.51805,1.94269 V -1.94269 C 1.0361,-1.0361 3.28098,-0.25902 4.66248,0"
       style="fill:#6b7280;fill-opacity:1;fill-rule:nonzero;stroke:none"
       transform="matrix(0.45601333,-1.2529067,-1.2529067,-0.45601333,110.71212,19.65536)" />
    <path
       id="path3"
       d="M 30.26077,-41.1804 81.99051,100.94412"
       style="fill:none;stroke:#6b7280;stroke-width:0.79701;stroke-linecap:butt;stroke-linejoin:miter;stroke-miterlimit:10;stroke-dasharray:none;stroke-opacity:1"
       transform="matrix(1.3333333,0,0,-1.3333333,36.908,167.17467)" />
    <path
       id="path4"
       d="M 4.66248,0 C 3.28098,0.25902 1.0361,1.0361 -0.51805,1.94269 V -1.94269 C 1.0361,-1.0361 3.28098,-0.25902 4.66248,0"
       style="fill:#6b7280;fill-opacity:1;fill-rule:nonzero;stroke:none"
       transform="matrix(0.45601333,-1.2529067,-1.2529067,-0.45601333,146.22868,32.582507)" />
    <path
       id="path5"
       d="M 56.89818,-50.87573 108.62791,91.2488"
       style="fill:none;stroke:#6b7280;stroke-width:0.79701;stroke-linecap:butt;stroke-linejoin:miter;stroke-miterlimit:10;stroke-dasharray:none;stroke-opacity:1"
       transform="matrix(1.3333333,0,0,-1.3333333,36.908,167.17467)" />
    <path
       id="path6"
       d="M 4.66248,0 C 3.28098,0.25902 1.0361,1.0361 -0.51805,1.94269 V -1.94269 C 1.0361,-1.0361 3.28098,-0.25902 4.66248,0"
       style="fill:#6b7280;fill-opacity:1;fill-rule:nonzero;stroke:none"
       transform="matrix(0.45601333,-1.2529067,-1.2529067,-0.45601333,181.74521,45.5096)" />
    <path
       id="path7"
       d="M 83.53561,-60.57108 135.26534,81.55345"
       style="fill:none;stroke:#6b7280;stroke-width:0.79701;stroke-linecap:butt;stroke-linejoin:miter;stroke-miterlimit:10;stroke-dasharray:none;stroke-opacity:1"
       transform="matrix(1.3333333,0,0,-1.3333333,36.908,167.17467)" />
    <path
       id="path8"
       d="M 4.66248,0 C 3.28098,0.25902 1.0361,1.0361 -0.51805,1.94269 V -1.94269 C 1.0361,-1.0361 3.28098,-0.25902 4.66248,0"
       style="fill:#6b7280;fill-opacity:1;fill-rule:nonzero;stroke:none"
       transform="matrix(0.45601333,-1.2529067,-1.2529067,-0.45601333,217.26179,58.436733)" />
    <path
       id="path9"
       d="M 3.62335,-31.48505 32.70937,48.42717"
       style="fill:none;stroke:#6b7280;stroke-width:0.3985;stroke-linecap:butt;stroke-linejoin:miter;stroke-miterlimit:10;stroke-dasharray:2.98883, 2.98883;stroke-dashoffset:0;stroke-opacity:1"
       transform="matrix(1.3333333,0,0,-1.3333333,36.908,167.17467)" />
    <path
       id="path10"
       d="M 30.26077,-41.1804 59.34679,38.73183"
       style="fill:none;stroke:#6b7280;stroke-width:0.3985;stroke-linecap:butt;stroke-linejoin:miter;stroke-miterlimit:10;stroke-dasharray:2.98883, 2.98883;stroke-dashoffset:0;stroke-opacity:1"
       transform="matrix(1.3333333,0,0,-1.3333333,36.908,167.17467)" />
    <path
       id="path11"
       d="M 56.89818,-50.87573 85.98419,29.03648"
       style="fill:none;stroke:#6b7280;stroke-width:0.3985;stroke-linecap:butt;stroke-linejoin:miter;stroke-miterlimit:10;stroke-dasharray:2.98883, 2.98883;stroke-dashoffset:0;stroke-opacity:1"
       transform="matrix(1.3333333,0,0,-1.3333333,36.908,167.17467)" />
    <path
       id="path12"
       d="m 83.53561,-60.57108 29.086,79.91224"
       style="fill:none;stroke:#6b7280;stroke-width:0.3985;stroke-linecap:butt;stroke-linejoin:miter;stroke-miterlimit:10;stroke-dasharray:2.98883, 2.98883;stroke-dashoffset:0;stroke-opacity:1"
       transform="matrix(1.3333333,0,0,-1.3333333,36.908,167.17467)" />
    <path
       id="path13"
       d="m 28.3468,56.69362 c 15.7314,6.29254 23.64253,12.28561 42.5202,14.17338 18.87769,1.88779 26.78882,0.6233 42.52024,-5.66926 15.7314,-6.29256 25.20053,-11.35091 28.3468,-22.67754 C 144.88033,31.19357 140.14575,23.61223 127.56062,14.17339 114.97551,4.73456 103.9181,6.29254 85.04042,0 66.16273,-6.29254 58.2516,-14.17339 42.5202,-14.17339 26.7888,-14.17339 26.7585,-8.18033 14.17339,0 1.58829,8.18033 -11.02711,13.23868 -14.17339,22.67752 -17.31967,32.11635 -9.43883,34.96915 0,42.5202 c 9.43883,7.55104 12.6154,7.88086 28.3468,14.17342 z"
       style="fill:#f2f2f2;fill-opacity:1;fill-rule:nonzero;stroke:#000000;stroke-width:0.79701;stroke-linecap:butt;stroke-linejoin:miter;stroke-miterlimit:10;stroke-dasharray:none;stroke-opacity:1"
       transform="matrix(1.3333333,0,0,-1.3333333,36.908,167.17467)" />
    <path
       id="path14"
       d="M 3.62335,-31.48505 32.70937,48.42717"
       style="fill:none;stroke:#6b7280;stroke-width:0.3985;stroke-linecap:butt;stroke-linejoin:miter;stroke-miterlimit:10;stroke-dasharray:2.98883, 2.98883;stroke-dashoffset:0;stroke-opacity:1"
       transform="matrix(1.3333333,0,0,-1.3333333,36.908,167.17467)" />
    <path
       id="path15"
       d="M 30.26077,-41.1804 59.34679,38.73183"
       style="fill:none;stroke:#6b7280;stroke-width:0.3985;stroke-linecap:butt;stroke-linejoin:miter;stroke-miterlimit:10;stroke-dasharray:2.98883, 2.98883;stroke-dashoffset:0;stroke-opacity:1"
       transform="matrix(1.3333333,0,0,-1.3333333,36.908,167.17467)" />
    <path
       id="path16"
       d="M 56.89818,-50.87573 85.98419,29.03648"
       style="fill:none;stroke:#6b7280;stroke-width:0.3985;stroke-linecap:butt;stroke-linejoin:miter;stroke-miterlimit:10;stroke-dasharray:2.98883, 2.98883;stroke-dashoffset:0;stroke-opacity:1"
       transform="matrix(1.3333333,0,0,-1.3333333,36.908,167.17467)" />
    <path
       id="path17"
       d="m 83.53561,-60.57108 29.086,79.91224"
       style="fill:none;stroke:#6b7280;stroke-width:0.3985;stroke-linecap:butt;stroke-linejoin:miter;stroke-miterlimit:10;stroke-dasharray:2.98883, 2.98883;stroke-dashoffset:0;stroke-opacity:1"
       transform="matrix(1.3333333,0,0,-1.3333333,36.908,167.17467)" />
    <path
       id="path18"
       d="m 32.70937,48.42717 22.64372,62.21231"
       style="fill:none;stroke:#6b7280;stroke-width:0.79701;stroke-linecap:butt;stroke-linejoin:miter;stroke-miterlimit:10;stroke-dasharray:none;stroke-opacity:1"
       transform="matrix(1.3333333,0,0,-1.3333333,36.908,167.17467)" />
    <path
       id="path19"
       d="M 4.66248,0 C 3.28098,0.25902 1.0361,1.0361 -0.51805,1.94269 V -1.94269 C 1.0361,-1.0361 3.28098,-0.25902 4.66248,0"
       style="fill:#6b7280;fill-opacity:1;fill-rule:nonzero;stroke:none"
       transform="matrix(0.45601333,-1.2529067,-1.2529067,-0.45601333,110.71212,19.65536)" />
    <path
       id="path20"
       d="m 59.34679,38.73183 22.64372,62.21229"
       style="fill:none;stroke:#6b7280;stroke-width:0.79701;stroke-linecap:butt;stroke-linejoin:miter;stroke-miterlimit:10;stroke-dasharray:none;stroke-opacity:1"
       transform="matrix(1.3333333,0,0,-1.3333333,36.908,167.17467)" />
    <path
       id="path21"
       d="M 4.66248,0 C 3.28098,0.25902 1.0361,1.0361 -0.51805,1.94269 V -1.94269 C 1.0361,-1.0361 3.28098,-0.25902 4.66248,0"
       style="fill:#6b7280;fill-opacity:1;fill-rule:nonzero;stroke:none"
       transform="matrix(0.45601333,-1.2529067,-1.2529067,-0.45601333,146.22868,32.582507)" />
    <path
       id="path22"
       d="M 85.98419,29.03648 108.62791,91.2488"
       style="fill:none;stroke:#6b7280;stroke-width:0.79701;stroke-linecap:butt;stroke-linejoin:miter;stroke-miterlimit:10;stroke-dasharray:none;stroke-opacity:1"
       transform="matrix(1.3333333,0,0,-1.3333333,36.908,167.17467)" />
    <path
       id="path23"
       d="M 4.66248,0 C 3.28098,0.25902 1.0361,1.0361 -0.51805,1.94269 V -1.94269 C 1.0361,-1.0361 3.28098,-0.25902 4.66248,0"
       style="fill:#6b7280;fill-opacity:1;fill-rule:nonzero;stroke:none"
       transform="matrix(0.45601333,-1.2529067,-1.2529067,-0.45601333,181.74521,45.5096)" />
    <path
       id="path24"
       d="m 112.62161,19.34116 22.64373,62.21229"
       style="fill:none;stroke:#6b7280;stroke-width:0.79701;stroke-linecap:butt;stroke-linejoin:miter;stroke-miterlimit:10;stroke-dasharray:none;stroke-opacity:1"
       transform="matrix(1.3333333,0,0,-1.3333333,36.908,167.17467)" />
    <path
       id="path25"
       d="M 4.66248,0 C 3.28098,0.25902 1.0361,1.0361 -0.51805,1.94269 V -1.94269 C 1.0361,-1.0361 3.28098,-0.25902 4.66248,0"
       style="fill:#6b7280;fill-opacity:1;fill-rule:nonzero;stroke:none"
       transform="matrix(0.45601333,-1.2529067,-1.2529067,-0.45601333,217.26179,58.436733)" />
    <path
       id="path26"
       d="M 85.32373,28.3468 V 80.37794"
       style="fill:none;stroke:#ff0000;stroke-width:0.79701;stroke-linecap:butt;stroke-linejoin:miter;stroke-miterlimit:10;stroke-dasharray:none;stroke-opacity:1"
       transform="matrix(1.3333333,0,0,-1.3333333,36.908,167.17467)" />
    <path
       id="path27"
       d="M 4.66248,0 C 3.28098,0.25902 1.0361,1.0361 -0.51805,1.94269 V -1.94269 C 1.0361,-1.0361 3.28098,-0.25902 4.66248,0"
       style="fill:#ff0000;fill-opacity:1;fill-rule:nonzero;stroke:none"
       transform="matrix(0,-1.3333333,-1.3333333,0,150.67297,60.00408)" />
    <path
       id="path28"
       d="m 4.5361875,-4.9809844 c 0,-0.65625 -0.1875,-2.0390625 -1.1953125,-2.0390625 -1.3828125,0 -2.91796875,2.8007813 -2.91796875,5.0859375 0,0.93750003 0.28125,2.03906253 1.19531245,2.03906253 1.40625,0 2.9179688,-2.85937503 2.9179688,-5.08593753 z m -3.0585938,1.359375 c 0.1640625,-0.6328125 0.3632813,-1.4296875 0.7617188,-2.1328125 0.2695312,-0.4921875 0.6445312,-1.0546875 1.0898437,-1.0546875 0.4921875,0 0.5507813,0.6445313 0.5507813,1.2070313 0,0.4921875 -0.082031,0.9960937 -0.328125,1.9804687 z m 1.9921875,0.328125 c -0.1171875,0.4570313 -0.3164062,1.3007813 -0.703125,2.015625 -0.3398437,0.67968753 -0.7265625,1.17187503 -1.1484375,1.17187503 -0.328125,0 -0.5390625,-0.29296875 -0.5390625,-1.21875003 0,-0.421875 0.058594,-0.9960937 0.3164063,-1.96875 z m 0,0"
       style="fill:#000000;fill-opacity:1;fill-rule:nonzero;stroke:none"
       aria-label="θ"
       transform="matrix(1.3333333,0,0,1.3333333,154.608,96.196)" />
    <path
       id="path29"
       d="m 5.3437734,-5.9299141 c -0.1289062,0.1289063 -0.4570312,0.4101563 -0.4570312,0.5859375 0,0.1054688 0.09375,0.1992188 0.1992187,0.1992188 0.082031,0 0.1289063,-0.070312 0.1875,-0.1289063 0.1171875,-0.140625 0.3398438,-0.421875 0.7851563,-0.6445312 0.070312,-0.035156 0.1640625,-0.09375 0.1640625,-0.2109375 0,-0.09375 -0.070312,-0.1523438 -0.140625,-0.1992188 -0.2109375,-0.1523437 -0.328125,-0.328125 -0.3984375,-0.5625 -0.023437,-0.09375 -0.070312,-0.2226562 -0.1992188,-0.2226562 -0.140625,0 -0.1992187,0.1289062 -0.1992187,0.2109375 0,0.046875 0.070312,0.3632812 0.234375,0.5742187 H 2.1562734 c -0.1640625,0 -0.3398437,0 -0.3398437,0.1992188 0,0.1992187 0.1757812,0.1992187 0.3398437,0.1992187 z M 5.516625,0.19899219 c 0.023437,-0.046875 0.046875,-0.1171875 0.046875,-0.140625 0,-0.01171875 0,-0.10546875 -0.1171875,-0.10546875 -0.09375,0 -0.1054687,0.05859375 -0.1289062,0.1171875 C 4.672875,1.5466484 4.297875,2.2146172 2.5986563,2.2146172 h -1.453125 c -0.140625,0 -0.16406255,0 -0.2226563,-0.011719 -0.10546875,-0.011719 -0.12890625,-0.023437 -0.12890625,-0.1054687 0,-0.023437 0,-0.046875 0.046875,-0.2226563 L 1.5205313,-0.84397656 h 0.984375 c 0.84375,0 0.84375,0.2109375 0.84375,0.45703125 0,0.0703125 0,0.1875 -0.070312,0.48046875 -0.011719,0.05859375 -0.023437,0.08203125 -0.023437,0.1171875 0,0.046875 0.035156,0.10546875 0.1289062,0.10546875 0.082031,0 0.1054688,-0.046875 0.1523438,-0.19921875 l 0.5625,-2.33203124 c 0,-0.058594 -0.046875,-0.1054688 -0.1171875,-0.1054688 -0.09375,0 -0.1054688,0.058594 -0.140625,0.1757813 -0.2109375,0.7617187 -0.3867188,0.984375 -1.3007813,0.984375 h -0.9375 l 0.5976563,-2.4023438 c 0.082031,-0.3398437 0.09375,-0.3867187 0.5390625,-0.3867187 h 1.40625 c 1.2070312,0 1.5117187,0.2929687 1.5117187,1.1132812 0,0.234375 0,0.2578125 -0.046875,0.5273438 0,0.058594 -0.011719,0.1289062 -0.011719,0.1757812 0,0.046875 0.035156,0.1171875 0.1289062,0.1171875 0.1054688,0 0.1171875,-0.058594 0.140625,-0.2460937 L 6.0674063,-3.9846016 C 6.0908438,-4.2541328 6.0439688,-4.2541328 5.797875,-4.2541328 H 0.7588125 c -0.19921875,0 -0.29296875,0 -0.29296875,0.1992187 0,0.1054688 0.09375,0.1054688 0.28125,0.1054688 0.36328125,0 0.64453125,0 0.64453125,0.1875 0,0.035156 0,0.058594 -0.046875,0.234375 L 0.02053125,1.7458672 c -0.09375,0.3867187 -0.1171875,0.46875 -0.90234375,0.46875 -0.1640625,0 -0.28125,0 -0.28125,0.1875 0,0.1171875 0.09375,0.1171875 0.28125,0.1171875 h 5.1679688 c 0.234375,0 0.2460937,-0.011719 0.3164062,-0.1640625 z m 0,0"
       style="fill:#000000;fill-opacity:1;fill-rule:nonzero;stroke:none"
       aria-label="⃗&#10;E"
       transform="matrix(1.3333333,0,0,1.3333333,194.832,37.957333)" />
    <path
       id="path30"
       d="M 8.50412,28.3468 V 66.20453"
       style="fill:none;stroke:#ff0000;stroke-width:0.79701;stroke-linecap:butt;stroke-linejoin:miter;stroke-miterlimit:10;stroke-dasharray:none;stroke-opacity:1"
       transform="matrix(1.3333333,0,0,-1.3333333,36.908,167.17467)" />
    <path
       id="path31"
       d="M 4.66248,0 C 3.28098,0.25902 1.0361,1.0361 -0.51805,1.94269 V -1.94269 C 1.0361,-1.0361 3.28098,-0.25902 4.66248,0"
       style="fill:#ff0000;fill-opacity:1;fill-rule:nonzero;stroke:none"
       transform="matrix(0,-1.3333333,-1.3333333,0,48.246827,78.90196)" />
    <path
       id="path32"
       d="m 5.1443672,-6.8087344 c 0,0 0,-0.1054687 -0.1289063,-0.1054687 -0.1523437,0 -1.1015625,0.09375 -1.265625,0.1054687 -0.082031,0.011719 -0.140625,0.070312 -0.140625,0.1992188 0,0.1171875 0.082031,0.1171875 0.234375,0.1171875 0.4804688,0 0.5039063,0.070312 0.5039063,0.1640625 L 4.3123362,-6.1290469 3.71468,-3.7618594 c -0.1757813,-0.375 -0.46875,-0.6445312 -0.9140625,-0.6445312 -1.171875,0 -2.40234376,1.4648437 -2.40234376,2.9179687 0,0.93750003 0.55078125,1.59375003 1.32421876,1.59375003 0.1992187,0 0.703125,-0.03515625 1.3007812,-0.73828125 0.070312,0.41015625 0.421875,0.73828125 0.9023438,0.73828125 0.3515625,0 0.5742187,-0.22265625 0.7382812,-0.5390625 0.1640625,-0.36328125 0.2929688,-0.97265623 0.2929688,-0.99609373 0,-0.09375 -0.082031,-0.09375 -0.1171875,-0.09375 -0.09375,0 -0.1054688,0.035156 -0.140625,0.1757812 -0.1640625,0.64453128 -0.3515625,1.24218753 -0.75,1.24218753 -0.2695313,0 -0.3046875,-0.2578125 -0.3046875,-0.45703125 0,-0.24609375 0.023437,-0.31640625 0.058594,-0.48046878 z m -2.0742188,5.625 c -0.046875,0.1757813 -0.046875,0.19921878 -0.1992187,0.36328128 -0.4453125,0.55078125 -0.84375,0.71484375 -1.125,0.71484375 -0.5039063,0 -0.6445313,-0.55078125 -0.6445313,-0.93750003 0,-0.5039062 0.328125,-1.7226562 0.5507813,-2.1796875 0.3046875,-0.5976562 0.7617187,-0.9609375 1.1601562,-0.9609375 0.6445313,0 0.7851563,0.8203125 0.7851563,0.8789063 0,0.058594 -0.023437,0.1171875 -0.035156,0.1640625 z m 9.3222656,-7.265625 c -0.128906,0.1289063 -0.457031,0.4101563 -0.457031,0.5859375 0,0.1054688 0.09375,0.1992188 0.199219,0.1992188 0.08203,0 0.128906,-0.070312 0.1875,-0.1289063 0.117187,-0.140625 0.339843,-0.421875 0.785156,-0.6445312 0.07031,-0.035156 0.164062,-0.09375 0.164062,-0.2109375 0,-0.09375 -0.07031,-0.1523438 -0.140625,-0.1992188 -0.210937,-0.1523437 -0.328125,-0.328125 -0.398437,-0.5625 -0.02344,-0.09375 -0.07031,-0.2226562 -0.199219,-0.2226562 -0.140625,0 -0.199219,0.1289062 -0.199219,0.2109375 0,0.046875 0.07031,0.3632812 0.234375,0.5742187 H 9.2049141 c -0.1640625,0 -0.3398438,0 -0.3398438,0.1992188 0,0.1992187 0.1757813,0.1992187 0.3398438,0.1992187 z m -5.4257812,7.3007813 c -0.3984375,0.66796873 -0.7851562,0.80859373 -1.21875,0.84374998 -0.1289062,0 -0.2109375,0 -0.2109375,0.19921875 0,0.05859375 0.046875,0.105468745 0.1289063,0.105468745 0.2695312,0 0.5742187,-0.035156245 0.8554687,-0.035156245 0.328125,0 0.6796875,0.035156245 0.9960938,0.035156245 0.058594,0 0.1875,0 0.1875,-0.187499995 0,-0.1171875 -0.09375,-0.1171875 -0.1640625,-0.1171875 -0.2226563,-0.0234375 -0.4570313,-0.10546875 -0.4570313,-0.3515625 0,-0.1171875 0.058594,-0.234375 0.1289063,-0.37499998 l 0.7617187,-1.265625 h 2.4960937 c 0.02344,0.1992187 0.164063,1.55859373 0.164063,1.66406248 0,0.29296875 -0.515625,0.328125 -0.7148442,0.328125 -0.140625,0 -0.2460937,0 -0.2460937,0.19921875 0,0.105468745 0.1289062,0.105468745 0.140625,0.105468745 0.4101559,0 0.8437499,-0.035156245 1.2539059,-0.035156245 0.246094,0 0.867188,0.035156245 1.125,0.035156245 0.05859,0 0.175782,0 0.175782,-0.199218745 0,-0.10546875 -0.105469,-0.10546875 -0.234375,-0.10546875 -0.609375,0 -0.609375,-0.0703125 -0.644532,-0.36328125 L 10.880695,-6.8907656 c -0.01172,-0.1992188 -0.01172,-0.2460938 -0.1875,-0.2460938 -0.164062,0 -0.199218,0.070312 -0.257812,0.1757813 z m 1.1953125,-1.4648438 1.9687497,-3.28125 0.316407,3.28125 z m 0,0"
       style="fill:#ff0000;fill-opacity:1;fill-rule:nonzero;stroke:none"
       aria-label="d&#10;⃗&#10;A"
       transform="matrix(1.3333333,0,0,1.3333333,26.676,98.008)" />
  </g>
</svg>
