<?xml version="1.0" encoding="UTF-8" standalone="no"?>
<!-- Created with Inkscape (http://www.inkscape.org/) -->

<svg
   version="1.1"
   id="svg1"
   width="212.71916"
   height="212.70535"
   viewBox="0 0 212.71916 212.70536"
   xmlns="http://www.w3.org/2000/svg"
   xmlns:svg="http://www.w3.org/2000/svg">
  <defs
     id="defs1" />
  <g
     id="g1"
     transform="translate(-13.2817,-13.294582)">
    <path
       id="path1"
       d="m 56.69362,0 c 0,31.31142 -25.3822,56.69362 -56.69362,56.69362 -31.31142,0 -56.69362,-25.3822 -56.69362,-56.69362 0,-31.31142 25.3822,-56.69362 56.69362,-56.69362 31.31142,0 56.69362,25.3822 56.69362,56.69362 z"
       style="fill:none;stroke:#000000;stroke-width:0.79701;stroke-linecap:butt;stroke-linejoin:miter;stroke-miterlimit:10;stroke-dasharray:none;stroke-opacity:1"
       transform="matrix(1.3333333,0,0,-1.3333333,119.64133,119.64267)" />
    <path
       id="path2"
       d="M 42.5202,0 H 53.85875"
       style="fill:none;stroke:#fad7da;stroke-width:0.79701;stroke-linecap:butt;stroke-linejoin:miter;stroke-miterlimit:10;stroke-dasharray:none;stroke-opacity:1"
       transform="matrix(1.3333333,0,0,-1.3333333,119.64133,119.64267)" />
    <path
       id="path3"
       d="M 48.18947,-5.66927 V 5.66927"
       style="fill:none;stroke:#fad7da;stroke-width:0.79701;stroke-linecap:butt;stroke-linejoin:miter;stroke-miterlimit:10;stroke-dasharray:none;stroke-opacity:1"
       transform="matrix(1.3333333,0,0,-1.3333333,119.64133,119.64267)" />
    <path
       id="path4"
       d="M 39.61398,16.48184 H 50.95253"
       style="fill:none;stroke:#fad7da;stroke-width:0.79701;stroke-linecap:butt;stroke-linejoin:miter;stroke-miterlimit:10;stroke-dasharray:none;stroke-opacity:1"
       transform="matrix(1.3333333,0,0,-1.3333333,119.64133,119.64267)" />
    <path
       id="path5"
       d="M 45.28325,10.81256 V 22.15111"
       style="fill:none;stroke:#fad7da;stroke-width:0.79701;stroke-linecap:butt;stroke-linejoin:miter;stroke-miterlimit:10;stroke-dasharray:none;stroke-opacity:1"
       transform="matrix(1.3333333,0,0,-1.3333333,119.64133,119.64267)" />
    <path
       id="path6"
       d="M 31.24522,30.97575 H 42.58377"
       style="fill:none;stroke:#fad7da;stroke-width:0.79701;stroke-linecap:butt;stroke-linejoin:miter;stroke-miterlimit:10;stroke-dasharray:none;stroke-opacity:1"
       transform="matrix(1.3333333,0,0,-1.3333333,119.64133,119.64267)" />
    <path
       id="path7"
       d="M 36.9145,25.30649 V 36.64503"
       style="fill:none;stroke:#fad7da;stroke-width:0.79701;stroke-linecap:butt;stroke-linejoin:miter;stroke-miterlimit:10;stroke-dasharray:none;stroke-opacity:1"
       transform="matrix(1.3333333,0,0,-1.3333333,119.64133,119.64267)" />
    <path
       id="path8"
       d="M 18.42525,41.7334 H 29.7638"
       style="fill:none;stroke:#fad7da;stroke-width:0.79701;stroke-linecap:butt;stroke-linejoin:miter;stroke-miterlimit:10;stroke-dasharray:none;stroke-opacity:1"
       transform="matrix(1.3333333,0,0,-1.3333333,119.64133,119.64267)" />
    <path
       id="path9"
       d="M 24.09451,36.06413 V 47.40268"
       style="fill:none;stroke:#fad7da;stroke-width:0.79701;stroke-linecap:butt;stroke-linejoin:miter;stroke-miterlimit:10;stroke-dasharray:none;stroke-opacity:1"
       transform="matrix(1.3333333,0,0,-1.3333333,119.64133,119.64267)" />
    <path
       id="path10"
       d="M 2.69817,47.45763 H 14.03671"
       style="fill:none;stroke:#fad7da;stroke-width:0.79701;stroke-linecap:butt;stroke-linejoin:miter;stroke-miterlimit:10;stroke-dasharray:none;stroke-opacity:1"
       transform="matrix(1.3333333,0,0,-1.3333333,119.64133,119.64267)" />
    <path
       id="path11"
       d="M 8.36743,41.78835 V 53.12689"
       style="fill:none;stroke:#fad7da;stroke-width:0.79701;stroke-linecap:butt;stroke-linejoin:miter;stroke-miterlimit:10;stroke-dasharray:none;stroke-opacity:1"
       transform="matrix(1.3333333,0,0,-1.3333333,119.64133,119.64267)" />
    <path
       id="path12"
       d="M -14.03671,47.45763 H -2.69817"
       style="fill:none;stroke:#fad7da;stroke-width:0.79701;stroke-linecap:butt;stroke-linejoin:miter;stroke-miterlimit:10;stroke-dasharray:none;stroke-opacity:1"
       transform="matrix(1.3333333,0,0,-1.3333333,119.64133,119.64267)" />
    <path
       id="path13"
       d="M -8.36743,41.78835 V 53.12689"
       style="fill:none;stroke:#fad7da;stroke-width:0.79701;stroke-linecap:butt;stroke-linejoin:miter;stroke-miterlimit:10;stroke-dasharray:none;stroke-opacity:1"
       transform="matrix(1.3333333,0,0,-1.3333333,119.64133,119.64267)" />
    <path
       id="path14"
       d="m -29.7638,41.7334 h 11.33855"
       style="fill:none;stroke:#fad7da;stroke-width:0.79701;stroke-linecap:butt;stroke-linejoin:miter;stroke-miterlimit:10;stroke-dasharray:none;stroke-opacity:1"
       transform="matrix(1.3333333,0,0,-1.3333333,119.64133,119.64267)" />
    <path
       id="path15"
       d="M -24.09451,36.06413 V 47.40268"
       style="fill:none;stroke:#fad7da;stroke-width:0.79701;stroke-linecap:butt;stroke-linejoin:miter;stroke-miterlimit:10;stroke-dasharray:none;stroke-opacity:1"
       transform="matrix(1.3333333,0,0,-1.3333333,119.64133,119.64267)" />
    <path
       id="path16"
       d="m -42.58377,30.97575 h 11.33855"
       style="fill:none;stroke:#fad7da;stroke-width:0.79701;stroke-linecap:butt;stroke-linejoin:miter;stroke-miterlimit:10;stroke-dasharray:none;stroke-opacity:1"
       transform="matrix(1.3333333,0,0,-1.3333333,119.64133,119.64267)" />
    <path
       id="path17"
       d="M -36.9145,25.30649 V 36.64503"
       style="fill:none;stroke:#fad7da;stroke-width:0.79701;stroke-linecap:butt;stroke-linejoin:miter;stroke-miterlimit:10;stroke-dasharray:none;stroke-opacity:1"
       transform="matrix(1.3333333,0,0,-1.3333333,119.64133,119.64267)" />
    <path
       id="path18"
       d="m -50.95253,16.48184 h 11.33855"
       style="fill:none;stroke:#fad7da;stroke-width:0.79701;stroke-linecap:butt;stroke-linejoin:miter;stroke-miterlimit:10;stroke-dasharray:none;stroke-opacity:1"
       transform="matrix(1.3333333,0,0,-1.3333333,119.64133,119.64267)" />
    <path
       id="path19"
       d="M -45.28325,10.81256 V 22.15111"
       style="fill:none;stroke:#fad7da;stroke-width:0.79701;stroke-linecap:butt;stroke-linejoin:miter;stroke-miterlimit:10;stroke-dasharray:none;stroke-opacity:1"
       transform="matrix(1.3333333,0,0,-1.3333333,119.64133,119.64267)" />
    <path
       id="path20"
       d="M -53.85875,0 H -42.5202"
       style="fill:none;stroke:#fad7da;stroke-width:0.79701;stroke-linecap:butt;stroke-linejoin:miter;stroke-miterlimit:10;stroke-dasharray:none;stroke-opacity:1"
       transform="matrix(1.3333333,0,0,-1.3333333,119.64133,119.64267)" />
    <path
       id="path21"
       d="M -48.18947,-5.66927 V 5.66927"
       style="fill:none;stroke:#fad7da;stroke-width:0.79701;stroke-linecap:butt;stroke-linejoin:miter;stroke-miterlimit:10;stroke-dasharray:none;stroke-opacity:1"
       transform="matrix(1.3333333,0,0,-1.3333333,119.64133,119.64267)" />
    <path
       id="path22"
       d="m -50.95253,-16.48184 h 11.33855"
       style="fill:none;stroke:#fad7da;stroke-width:0.79701;stroke-linecap:butt;stroke-linejoin:miter;stroke-miterlimit:10;stroke-dasharray:none;stroke-opacity:1"
       transform="matrix(1.3333333,0,0,-1.3333333,119.64133,119.64267)" />
    <path
       id="path23"
       d="m -45.28325,-22.15111 v 11.33855"
       style="fill:none;stroke:#fad7da;stroke-width:0.79701;stroke-linecap:butt;stroke-linejoin:miter;stroke-miterlimit:10;stroke-dasharray:none;stroke-opacity:1"
       transform="matrix(1.3333333,0,0,-1.3333333,119.64133,119.64267)" />
    <path
       id="path24"
       d="m -42.58377,-30.97575 h 11.33855"
       style="fill:none;stroke:#fad7da;stroke-width:0.79701;stroke-linecap:butt;stroke-linejoin:miter;stroke-miterlimit:10;stroke-dasharray:none;stroke-opacity:1"
       transform="matrix(1.3333333,0,0,-1.3333333,119.64133,119.64267)" />
    <path
       id="path25"
       d="m -36.9145,-36.64503 v 11.33854"
       style="fill:none;stroke:#fad7da;stroke-width:0.79701;stroke-linecap:butt;stroke-linejoin:miter;stroke-miterlimit:10;stroke-dasharray:none;stroke-opacity:1"
       transform="matrix(1.3333333,0,0,-1.3333333,119.64133,119.64267)" />
    <path
       id="path26"
       d="m -29.7638,-41.7334 h 11.33855"
       style="fill:none;stroke:#fad7da;stroke-width:0.79701;stroke-linecap:butt;stroke-linejoin:miter;stroke-miterlimit:10;stroke-dasharray:none;stroke-opacity:1"
       transform="matrix(1.3333333,0,0,-1.3333333,119.64133,119.64267)" />
    <path
       id="path27"
       d="m -24.09451,-47.40268 v 11.33855"
       style="fill:none;stroke:#fad7da;stroke-width:0.79701;stroke-linecap:butt;stroke-linejoin:miter;stroke-miterlimit:10;stroke-dasharray:none;stroke-opacity:1"
       transform="matrix(1.3333333,0,0,-1.3333333,119.64133,119.64267)" />
    <path
       id="path28"
       d="M -14.03671,-47.45763 H -2.69817"
       style="fill:none;stroke:#fad7da;stroke-width:0.79701;stroke-linecap:butt;stroke-linejoin:miter;stroke-miterlimit:10;stroke-dasharray:none;stroke-opacity:1"
       transform="matrix(1.3333333,0,0,-1.3333333,119.64133,119.64267)" />
    <path
       id="path29"
       d="m -8.36743,-53.12689 v 11.33854"
       style="fill:none;stroke:#fad7da;stroke-width:0.79701;stroke-linecap:butt;stroke-linejoin:miter;stroke-miterlimit:10;stroke-dasharray:none;stroke-opacity:1"
       transform="matrix(1.3333333,0,0,-1.3333333,119.64133,119.64267)" />
    <path
       id="path30"
       d="M 2.69817,-47.45763 H 14.03671"
       style="fill:none;stroke:#fad7da;stroke-width:0.79701;stroke-linecap:butt;stroke-linejoin:miter;stroke-miterlimit:10;stroke-dasharray:none;stroke-opacity:1"
       transform="matrix(1.3333333,0,0,-1.3333333,119.64133,119.64267)" />
    <path
       id="path31"
       d="m 8.36743,-53.12689 v 11.33854"
       style="fill:none;stroke:#fad7da;stroke-width:0.79701;stroke-linecap:butt;stroke-linejoin:miter;stroke-miterlimit:10;stroke-dasharray:none;stroke-opacity:1"
       transform="matrix(1.3333333,0,0,-1.3333333,119.64133,119.64267)" />
    <path
       id="path32"
       d="M 18.42525,-41.7334 H 29.7638"
       style="fill:none;stroke:#fad7da;stroke-width:0.79701;stroke-linecap:butt;stroke-linejoin:miter;stroke-miterlimit:10;stroke-dasharray:none;stroke-opacity:1"
       transform="matrix(1.3333333,0,0,-1.3333333,119.64133,119.64267)" />
    <path
       id="path33"
       d="m 24.09451,-47.40268 v 11.33855"
       style="fill:none;stroke:#fad7da;stroke-width:0.79701;stroke-linecap:butt;stroke-linejoin:miter;stroke-miterlimit:10;stroke-dasharray:none;stroke-opacity:1"
       transform="matrix(1.3333333,0,0,-1.3333333,119.64133,119.64267)" />
    <path
       id="path34"
       d="M 31.24522,-30.97575 H 42.58377"
       style="fill:none;stroke:#fad7da;stroke-width:0.79701;stroke-linecap:butt;stroke-linejoin:miter;stroke-miterlimit:10;stroke-dasharray:none;stroke-opacity:1"
       transform="matrix(1.3333333,0,0,-1.3333333,119.64133,119.64267)" />
    <path
       id="path35"
       d="m 36.9145,-36.64503 v 11.33854"
       style="fill:none;stroke:#fad7da;stroke-width:0.79701;stroke-linecap:butt;stroke-linejoin:miter;stroke-miterlimit:10;stroke-dasharray:none;stroke-opacity:1"
       transform="matrix(1.3333333,0,0,-1.3333333,119.64133,119.64267)" />
    <path
       id="path36"
       d="M 39.61398,-16.48184 H 50.95253"
       style="fill:none;stroke:#fad7da;stroke-width:0.79701;stroke-linecap:butt;stroke-linejoin:miter;stroke-miterlimit:10;stroke-dasharray:none;stroke-opacity:1"
       transform="matrix(1.3333333,0,0,-1.3333333,119.64133,119.64267)" />
    <path
       id="path37"
       d="m 45.28325,-22.15111 v 11.33855"
       style="fill:none;stroke:#fad7da;stroke-width:0.79701;stroke-linecap:butt;stroke-linejoin:miter;stroke-miterlimit:10;stroke-dasharray:none;stroke-opacity:1"
       transform="matrix(1.3333333,0,0,-1.3333333,119.64133,119.64267)" />
    <path
       id="path38"
       d="M 25.51237,0 H 36.85092"
       style="fill:none;stroke:#fad7da;stroke-width:0.79701;stroke-linecap:butt;stroke-linejoin:miter;stroke-miterlimit:10;stroke-dasharray:none;stroke-opacity:1"
       transform="matrix(1.3333333,0,0,-1.3333333,119.64133,119.64267)" />
    <path
       id="path39"
       d="M 31.18166,-5.66927 V 5.66927"
       style="fill:none;stroke:#fad7da;stroke-width:0.79701;stroke-linecap:butt;stroke-linejoin:miter;stroke-miterlimit:10;stroke-dasharray:none;stroke-opacity:1"
       transform="matrix(1.3333333,0,0,-1.3333333,119.64133,119.64267)" />
    <path
       id="path40"
       d="M 21.33449,15.59082 H 32.67303"
       style="fill:none;stroke:#fad7da;stroke-width:0.79701;stroke-linecap:butt;stroke-linejoin:miter;stroke-miterlimit:10;stroke-dasharray:none;stroke-opacity:1"
       transform="matrix(1.3333333,0,0,-1.3333333,119.64133,119.64267)" />
    <path
       id="path41"
       d="M 27.00377,9.92155 V 21.2601"
       style="fill:none;stroke:#fad7da;stroke-width:0.79701;stroke-linecap:butt;stroke-linejoin:miter;stroke-miterlimit:10;stroke-dasharray:none;stroke-opacity:1"
       transform="matrix(1.3333333,0,0,-1.3333333,119.64133,119.64267)" />
    <path
       id="path42"
       d="M 9.92155,27.00377 H 21.2601"
       style="fill:none;stroke:#fad7da;stroke-width:0.79701;stroke-linecap:butt;stroke-linejoin:miter;stroke-miterlimit:10;stroke-dasharray:none;stroke-opacity:1"
       transform="matrix(1.3333333,0,0,-1.3333333,119.64133,119.64267)" />
    <path
       id="path43"
       d="M 15.59082,21.33449 V 32.67303"
       style="fill:none;stroke:#fad7da;stroke-width:0.79701;stroke-linecap:butt;stroke-linejoin:miter;stroke-miterlimit:10;stroke-dasharray:none;stroke-opacity:1"
       transform="matrix(1.3333333,0,0,-1.3333333,119.64133,119.64267)" />
    <path
       id="path44"
       d="M -5.66927,31.18166 H 5.66927"
       style="fill:none;stroke:#fad7da;stroke-width:0.79701;stroke-linecap:butt;stroke-linejoin:miter;stroke-miterlimit:10;stroke-dasharray:none;stroke-opacity:1"
       transform="matrix(1.3333333,0,0,-1.3333333,119.64133,119.64267)" />
    <path
       id="path45"
       d="M 0,25.51237 V 36.85092"
       style="fill:none;stroke:#fad7da;stroke-width:0.79701;stroke-linecap:butt;stroke-linejoin:miter;stroke-miterlimit:10;stroke-dasharray:none;stroke-opacity:1"
       transform="matrix(1.3333333,0,0,-1.3333333,119.64133,119.64267)" />
    <path
       id="path46"
       d="M -21.2601,27.00377 H -9.92155"
       style="fill:none;stroke:#fad7da;stroke-width:0.79701;stroke-linecap:butt;stroke-linejoin:miter;stroke-miterlimit:10;stroke-dasharray:none;stroke-opacity:1"
       transform="matrix(1.3333333,0,0,-1.3333333,119.64133,119.64267)" />
    <path
       id="path47"
       d="M -15.59082,21.33449 V 32.67303"
       style="fill:none;stroke:#fad7da;stroke-width:0.79701;stroke-linecap:butt;stroke-linejoin:miter;stroke-miterlimit:10;stroke-dasharray:none;stroke-opacity:1"
       transform="matrix(1.3333333,0,0,-1.3333333,119.64133,119.64267)" />
    <path
       id="path48"
       d="m -32.67303,15.59082 h 11.33854"
       style="fill:none;stroke:#fad7da;stroke-width:0.79701;stroke-linecap:butt;stroke-linejoin:miter;stroke-miterlimit:10;stroke-dasharray:none;stroke-opacity:1"
       transform="matrix(1.3333333,0,0,-1.3333333,119.64133,119.64267)" />
    <path
       id="path49"
       d="M -27.00377,9.92155 V 21.2601"
       style="fill:none;stroke:#fad7da;stroke-width:0.79701;stroke-linecap:butt;stroke-linejoin:miter;stroke-miterlimit:10;stroke-dasharray:none;stroke-opacity:1"
       transform="matrix(1.3333333,0,0,-1.3333333,119.64133,119.64267)" />
    <path
       id="path50"
       d="m -36.85092,0 h 11.33855"
       style="fill:none;stroke:#fad7da;stroke-width:0.79701;stroke-linecap:butt;stroke-linejoin:miter;stroke-miterlimit:10;stroke-dasharray:none;stroke-opacity:1"
       transform="matrix(1.3333333,0,0,-1.3333333,119.64133,119.64267)" />
    <path
       id="path51"
       d="M -31.18166,-5.66927 V 5.66927"
       style="fill:none;stroke:#fad7da;stroke-width:0.79701;stroke-linecap:butt;stroke-linejoin:miter;stroke-miterlimit:10;stroke-dasharray:none;stroke-opacity:1"
       transform="matrix(1.3333333,0,0,-1.3333333,119.64133,119.64267)" />
    <path
       id="path52"
       d="m -32.67303,-15.59082 h 11.33854"
       style="fill:none;stroke:#fad7da;stroke-width:0.79701;stroke-linecap:butt;stroke-linejoin:miter;stroke-miterlimit:10;stroke-dasharray:none;stroke-opacity:1"
       transform="matrix(1.3333333,0,0,-1.3333333,119.64133,119.64267)" />
    <path
       id="path53"
       d="M -27.00377,-21.2601 V -9.92155"
       style="fill:none;stroke:#fad7da;stroke-width:0.79701;stroke-linecap:butt;stroke-linejoin:miter;stroke-miterlimit:10;stroke-dasharray:none;stroke-opacity:1"
       transform="matrix(1.3333333,0,0,-1.3333333,119.64133,119.64267)" />
    <path
       id="path54"
       d="M -21.2601,-27.00377 H -9.92155"
       style="fill:none;stroke:#fad7da;stroke-width:0.79701;stroke-linecap:butt;stroke-linejoin:miter;stroke-miterlimit:10;stroke-dasharray:none;stroke-opacity:1"
       transform="matrix(1.3333333,0,0,-1.3333333,119.64133,119.64267)" />
    <path
       id="path55"
       d="m -15.59082,-32.67303 v 11.33854"
       style="fill:none;stroke:#fad7da;stroke-width:0.79701;stroke-linecap:butt;stroke-linejoin:miter;stroke-miterlimit:10;stroke-dasharray:none;stroke-opacity:1"
       transform="matrix(1.3333333,0,0,-1.3333333,119.64133,119.64267)" />
    <path
       id="path56"
       d="M -5.66927,-31.18166 H 5.66927"
       style="fill:none;stroke:#fad7da;stroke-width:0.79701;stroke-linecap:butt;stroke-linejoin:miter;stroke-miterlimit:10;stroke-dasharray:none;stroke-opacity:1"
       transform="matrix(1.3333333,0,0,-1.3333333,119.64133,119.64267)" />
    <path
       id="path57"
       d="m 0,-36.85092 v 11.33855"
       style="fill:none;stroke:#fad7da;stroke-width:0.79701;stroke-linecap:butt;stroke-linejoin:miter;stroke-miterlimit:10;stroke-dasharray:none;stroke-opacity:1"
       transform="matrix(1.3333333,0,0,-1.3333333,119.64133,119.64267)" />
    <path
       id="path58"
       d="M 9.92155,-27.00377 H 21.2601"
       style="fill:none;stroke:#fad7da;stroke-width:0.79701;stroke-linecap:butt;stroke-linejoin:miter;stroke-miterlimit:10;stroke-dasharray:none;stroke-opacity:1"
       transform="matrix(1.3333333,0,0,-1.3333333,119.64133,119.64267)" />
    <path
       id="path59"
       d="m 15.59082,-32.67303 v 11.33854"
       style="fill:none;stroke:#fad7da;stroke-width:0.79701;stroke-linecap:butt;stroke-linejoin:miter;stroke-miterlimit:10;stroke-dasharray:none;stroke-opacity:1"
       transform="matrix(1.3333333,0,0,-1.3333333,119.64133,119.64267)" />
    <path
       id="path60"
       d="M 21.33449,-15.59082 H 32.67303"
       style="fill:none;stroke:#fad7da;stroke-width:0.79701;stroke-linecap:butt;stroke-linejoin:miter;stroke-miterlimit:10;stroke-dasharray:none;stroke-opacity:1"
       transform="matrix(1.3333333,0,0,-1.3333333,119.64133,119.64267)" />
    <path
       id="path61"
       d="M 27.00377,-21.2601 V -9.92155"
       style="fill:none;stroke:#fad7da;stroke-width:0.79701;stroke-linecap:butt;stroke-linejoin:miter;stroke-miterlimit:10;stroke-dasharray:none;stroke-opacity:1"
       transform="matrix(1.3333333,0,0,-1.3333333,119.64133,119.64267)" />
    <path
       id="path62"
       d="M 8.50412,0 H 19.84267"
       style="fill:none;stroke:#fad7da;stroke-width:0.79701;stroke-linecap:butt;stroke-linejoin:miter;stroke-miterlimit:10;stroke-dasharray:none;stroke-opacity:1"
       transform="matrix(1.3333333,0,0,-1.3333333,119.64133,119.64267)" />
    <path
       id="path63"
       d="M 14.17339,-5.66927 V 5.66927"
       style="fill:none;stroke:#fad7da;stroke-width:0.79701;stroke-linecap:butt;stroke-linejoin:miter;stroke-miterlimit:10;stroke-dasharray:none;stroke-opacity:1"
       transform="matrix(1.3333333,0,0,-1.3333333,119.64133,119.64267)" />
    <path
       id="path64"
       d="M 1.4174,12.27454 H 12.75595"
       style="fill:none;stroke:#fad7da;stroke-width:0.79701;stroke-linecap:butt;stroke-linejoin:miter;stroke-miterlimit:10;stroke-dasharray:none;stroke-opacity:1"
       transform="matrix(1.3333333,0,0,-1.3333333,119.64133,119.64267)" />
    <path
       id="path65"
       d="M 7.08669,6.60527 V 17.94382"
       style="fill:none;stroke:#fad7da;stroke-width:0.79701;stroke-linecap:butt;stroke-linejoin:miter;stroke-miterlimit:10;stroke-dasharray:none;stroke-opacity:1"
       transform="matrix(1.3333333,0,0,-1.3333333,119.64133,119.64267)" />
    <path
       id="path66"
       d="M -12.75595,12.27454 H -1.4174"
       style="fill:none;stroke:#fad7da;stroke-width:0.79701;stroke-linecap:butt;stroke-linejoin:miter;stroke-miterlimit:10;stroke-dasharray:none;stroke-opacity:1"
       transform="matrix(1.3333333,0,0,-1.3333333,119.64133,119.64267)" />
    <path
       id="path67"
       d="M -7.08669,6.60527 V 17.94382"
       style="fill:none;stroke:#fad7da;stroke-width:0.79701;stroke-linecap:butt;stroke-linejoin:miter;stroke-miterlimit:10;stroke-dasharray:none;stroke-opacity:1"
       transform="matrix(1.3333333,0,0,-1.3333333,119.64133,119.64267)" />
    <path
       id="path68"
       d="M -19.84267,0 H -8.50412"
       style="fill:none;stroke:#fad7da;stroke-width:0.79701;stroke-linecap:butt;stroke-linejoin:miter;stroke-miterlimit:10;stroke-dasharray:none;stroke-opacity:1"
       transform="matrix(1.3333333,0,0,-1.3333333,119.64133,119.64267)" />
    <path
       id="path69"
       d="M -14.17339,-5.66927 V 5.66927"
       style="fill:none;stroke:#fad7da;stroke-width:0.79701;stroke-linecap:butt;stroke-linejoin:miter;stroke-miterlimit:10;stroke-dasharray:none;stroke-opacity:1"
       transform="matrix(1.3333333,0,0,-1.3333333,119.64133,119.64267)" />
    <path
       id="path70"
       d="M -12.75595,-12.27454 H -1.4174"
       style="fill:none;stroke:#fad7da;stroke-width:0.79701;stroke-linecap:butt;stroke-linejoin:miter;stroke-miterlimit:10;stroke-dasharray:none;stroke-opacity:1"
       transform="matrix(1.3333333,0,0,-1.3333333,119.64133,119.64267)" />
    <path
       id="path71"
       d="M -7.08669,-17.94382 V -6.60527"
       style="fill:none;stroke:#fad7da;stroke-width:0.79701;stroke-linecap:butt;stroke-linejoin:miter;stroke-miterlimit:10;stroke-dasharray:none;stroke-opacity:1"
       transform="matrix(1.3333333,0,0,-1.3333333,119.64133,119.64267)" />
    <path
       id="path72"
       d="M 1.4174,-12.27454 H 12.75595"
       style="fill:none;stroke:#fad7da;stroke-width:0.79701;stroke-linecap:butt;stroke-linejoin:miter;stroke-miterlimit:10;stroke-dasharray:none;stroke-opacity:1"
       transform="matrix(1.3333333,0,0,-1.3333333,119.64133,119.64267)" />
    <path
       id="path73"
       d="M 7.08669,-17.94382 V -6.60527"
       style="fill:none;stroke:#fad7da;stroke-width:0.79701;stroke-linecap:butt;stroke-linejoin:miter;stroke-miterlimit:10;stroke-dasharray:none;stroke-opacity:1"
       transform="matrix(1.3333333,0,0,-1.3333333,119.64133,119.64267)" />
    <path
       id="path74"
       d="M 0,0 49.09824,28.3468"
       style="fill:none;stroke:#000000;stroke-width:0.79701;stroke-linecap:butt;stroke-linejoin:miter;stroke-miterlimit:10;stroke-dasharray:none;stroke-opacity:1"
       transform="matrix(1.3333333,0,0,-1.3333333,119.64133,119.64267)" />
    <path
       id="path75"
       d="m 3.7382031,-6.1183203 c 0.058594,-0.234375 0.082031,-0.3398438 0.28125,-0.3632813 0.082031,-0.011719 0.3984375,-0.011719 0.5976563,-0.011719 0.7148437,0 1.8164062,0 1.8164062,0.984375 0,0.3398437 -0.1523437,1.0195312 -0.5507812,1.4179687 -0.2578125,0.2578125 -0.7851563,0.5742188 -1.6757813,0.5742188 H 3.0936719 Z m 1.4296875,2.7304687 c 1.0078125,-0.2226562 2.1914063,-0.9140625 2.1914063,-1.921875 0,-0.8554687 -0.890625,-1.5 -2.203125,-1.5 H 2.3202344 c -0.1992188,0 -0.2929688,0 -0.2929688,0.1992188 0,0.1171875 0.09375,0.1171875 0.28125,0.1171875 0.023437,0 0.2109375,0 0.3867188,0.011719 0.1757812,0.023437 0.2578125,0.035156 0.2578125,0.1640625 0,0.035156 0,0.070312 -0.035156,0.1875 l -1.3359375,5.35546879 c -0.09375,0.38671875 -0.1171875,0.46875 -0.90234372,0.46875 -0.17578125,0 -0.26953125,0 -0.26953125,0.19921875 0,0.10546875 0.1171875,0.10546875 0.140625,0.10546875 0.28125,0 0.97265627,-0.03515625 1.25390627,-0.03515625 0.28125,0 0.984375,0.03515625 1.265625,0.03515625 0.082031,0 0.1992187,0 0.1992187,-0.19921875 0,-0.10546875 -0.09375,-0.10546875 -0.28125,-0.10546875 -0.3632812,0 -0.6445312,0 -0.6445312,-0.1875 0,-0.0585938 0.011719,-0.10546875 0.023437,-0.1640625 l 0.65625,-2.63671879 h 1.1953125 c 0.9023437,0 1.078125,0.5507813 1.078125,0.9023438 0,0.1523437 -0.082031,0.4570312 -0.140625,0.6914062 -0.070312,0.2695313 -0.1523438,0.6445313 -0.1523438,0.84375004 0,1.078125 1.1953125,1.078125 1.3242188,1.078125 0.84375,0 1.1953125,-1.0078125 1.1953125,-1.1484375 0,-0.11718754 -0.1171875,-0.11718754 -0.1171875,-0.11718754 -0.09375,0 -0.1171875,0.0703125 -0.1289063,0.14062504 -0.2578125,0.73828125 -0.6796875,0.90234375 -0.9140625,0.90234375 -0.328125,0 -0.3984375,-0.22265625 -0.3984375,-0.609375 0,-0.3046875 0.058594,-0.82031249 0.1054688,-1.13671879 0.011719,-0.140625 0.035156,-0.328125 0.035156,-0.46875 0,-0.7617187 -0.6679687,-1.078125 -0.9374996,-1.1718753 z m 0,0"
       style="fill:#000000;fill-opacity:1;fill-rule:nonzero;stroke:none"
       aria-label="R"
       transform="matrix(1.3333333,0,0,1.3333333,137.22667,95.786667)" />
    <path
       id="path76"
       d="M 79.37114,0 C 79.37114,43.83603 43.83603,79.37114 0,79.37114 -43.83603,79.37114 -79.37114,43.83603 -79.37114,0 c 0,-43.83603 35.53511,-79.37114 79.37114,-79.37114 43.83603,0 79.37114,35.53511 79.37114,79.37114 z"
       style="fill:none;stroke:#f73bc5;stroke-width:0.79701;stroke-linecap:butt;stroke-linejoin:miter;stroke-miterlimit:10;stroke-dasharray:2.98883, 2.98883;stroke-dashoffset:0;stroke-opacity:1"
       transform="matrix(1.3333333,0,0,-1.3333333,119.64133,119.64267)" />
    <path
       id="path77"
       d="M 0,0 68.73761,-39.68556"
       style="fill:none;stroke:#f73bc5;stroke-width:0.79701;stroke-linecap:butt;stroke-linejoin:miter;stroke-miterlimit:10;stroke-dasharray:none;stroke-opacity:1"
       transform="matrix(1.3333333,0,0,-1.3333333,119.64133,119.64267)" />
    <path
       id="path78"
       d="m 0.87940625,-0.58515625 c -0.0351563,0.15234375 -0.09375,0.375 -0.09375,0.421875 0,0.1875 0.140625,0.26953125 0.29296875,0.26953125 0.1171875,0 0.2929687,-0.0703125 0.3632812,-0.26953125 0.023437,-0.046875 0.3632813,-1.39453125 0.3984375,-1.58203125 0.082031,-0.328125 0.2578125,-1.0195312 0.3164063,-1.2890625 0.046875,-0.1289062 0.328125,-0.5976562 0.5625,-0.8203125 0.082031,-0.070312 0.375,-0.328125 0.796875,-0.328125 0.2578125,0 0.4101562,0.1171875 0.421875,0.1171875 -0.3046875,0.046875 -0.515625,0.2929688 -0.515625,0.5507813 0,0.1640625 0.1054687,0.3515625 0.375,0.3515625 0.2695312,0 0.5507812,-0.234375 0.5507812,-0.5859375 0,-0.3515625 -0.328125,-0.65625 -0.8320312,-0.65625 -0.6445313,0 -1.0898438,0.4921875 -1.2773438,0.7734375 -0.082031,-0.4570313 -0.4335937,-0.7734375 -0.9023437,-0.7734375 -0.45703125,0 -0.64453125,0.3867187 -0.73828125,0.5742187 -0.17578125,0.3398438 -0.3046875,0.9375 -0.3046875,0.9609375 0,0.1054688 0.09375,0.1054688 0.1171875,0.1054688 0.09375,0 0.10546875,-0.011719 0.1640625,-0.234375 0.17578125,-0.703125 0.375,-1.1835938 0.72656245,-1.1835938 0.1757813,0 0.3164063,0.082031 0.3164063,0.4570313 0,0.2109375 -0.035156,0.3164062 -0.1640625,0.8320312 z m 0,0"
       style="fill:#f73bc5;fill-opacity:1;fill-rule:nonzero;stroke:none"
       aria-label="r"
       transform="matrix(1.3333333,0,0,1.3333333,216.24933,183.23333)" />
    <path
       id="path79"
       d="M 1.4174,0 C 1.4174,0.78282 0.78282,1.4174 0,1.4174 -0.78282,1.4174 -1.4174,0.78282 -1.4174,0 c 0,-0.78282 0.63458,-1.4174 1.4174,-1.4174 0.78282,0 1.4174,0.63458 1.4174,1.4174 z"
       style="fill:#000000;fill-opacity:1;fill-rule:nonzero;stroke:none"
       transform="matrix(1.3333333,0,0,-1.3333333,119.64133,119.64267)" />
  </g>
</svg>
