<?xml version="1.0" encoding="UTF-8" standalone="no"?>
<!-- Created with Inkscape (http://www.inkscape.org/) -->

<svg
   version="1.1"
   id="svg1"
   width="159.09521"
   height="184.21608"
   viewBox="0 0 159.09522 184.21608"
   xmlns="http://www.w3.org/2000/svg"
   xmlns:svg="http://www.w3.org/2000/svg">
  <defs
     id="defs1" />
  <g
     id="g1"
     transform="translate(-13.331981,-17.71875)">
    <path
       id="path1"
       d="M 13.3187,-4.84764 50.13739,96.30962"
       style="fill:none;stroke:#6b7280;stroke-width:1.19553;stroke-linecap:butt;stroke-linejoin:miter;stroke-miterlimit:10;stroke-dasharray:none;stroke-opacity:1"
       transform="matrix(1.3333333,0,0,-1.3333333,-3.6773333,156.41733)" />
    <path
       id="path2"
       d="M 5.73854,0 C 4.0382,0.31879 1.27522,1.27522 -0.6376,2.39105 v -4.7821 C 1.27522,-1.27522 4.0382,-0.31879 5.73854,0"
       style="fill:#6b7280;fill-opacity:1;fill-rule:nonzero;stroke:none"
       transform="matrix(0.45601333,-1.2529067,-1.2529067,-0.45601333,63.172493,28.004507)" />
    <path
       id="path3"
       d="M 39.95612,-14.543 76.77481,86.61427"
       style="fill:none;stroke:#6b7280;stroke-width:1.19553;stroke-linecap:butt;stroke-linejoin:miter;stroke-miterlimit:10;stroke-dasharray:none;stroke-opacity:1"
       transform="matrix(1.3333333,0,0,-1.3333333,-3.6773333,156.41733)" />
    <path
       id="path4"
       d="M 5.73854,0 C 4.0382,0.31879 1.27522,1.27522 -0.6376,2.39105 v -4.7821 C 1.27522,-1.27522 4.0382,-0.31879 5.73854,0"
       style="fill:#6b7280;fill-opacity:1;fill-rule:nonzero;stroke:none"
       transform="matrix(0.45601333,-1.2529067,-1.2529067,-0.45601333,98.689067,40.93164)" />
    <path
       id="path5"
       d="M 66.59352,-24.23833 103.41223,76.91893"
       style="fill:none;stroke:#6b7280;stroke-width:1.19553;stroke-linecap:butt;stroke-linejoin:miter;stroke-miterlimit:10;stroke-dasharray:none;stroke-opacity:1"
       transform="matrix(1.3333333,0,0,-1.3333333,-3.6773333,156.41733)" />
    <path
       id="path6"
       d="M 5.73854,0 C 4.0382,0.31879 1.27522,1.27522 -0.6376,2.39105 v -4.7821 C 1.27522,-1.27522 4.0382,-0.31879 5.73854,0"
       style="fill:#6b7280;fill-opacity:1;fill-rule:nonzero;stroke:none"
       transform="matrix(0.45601333,-1.2529067,-1.2529067,-0.45601333,134.20563,53.85876)" />
    <path
       id="path7"
       d="M 93.23094,-33.93367 130.04965,67.2236"
       style="fill:none;stroke:#6b7280;stroke-width:1.19553;stroke-linecap:butt;stroke-linejoin:miter;stroke-miterlimit:10;stroke-dasharray:none;stroke-opacity:1"
       transform="matrix(1.3333333,0,0,-1.3333333,-3.6773333,156.41733)" />
    <path
       id="path8"
       d="M 5.73854,0 C 4.0382,0.31879 1.27522,1.27522 -0.6376,2.39105 v -4.7821 C 1.27522,-1.27522 4.0382,-0.31879 5.73854,0"
       style="fill:#6b7280;fill-opacity:1;fill-rule:nonzero;stroke:none"
       transform="matrix(0.45601333,-1.2529067,-1.2529067,-0.45601333,169.72219,66.785867)" />
    <path
       id="path9"
       d="m 5.3433203,-5.9283438 c -0.1289062,0.1289063 -0.4570312,0.4101563 -0.4570312,0.5859375 0,0.1054688 0.09375,0.1992188 0.1992187,0.1992188 0.082031,0 0.1289063,-0.070312 0.1875,-0.1289063 0.1171875,-0.140625 0.3398438,-0.421875 0.7851563,-0.6445312 0.070312,-0.035156 0.1640625,-0.09375 0.1640625,-0.2109375 0,-0.09375 -0.070312,-0.1523438 -0.140625,-0.1992188 -0.2109375,-0.1523437 -0.328125,-0.328125 -0.3984375,-0.5625 -0.023437,-0.09375 -0.070312,-0.2226562 -0.1992188,-0.2226562 -0.140625,0 -0.1992187,0.1289062 -0.1992187,0.2109375 0,0.046875 0.070312,0.3632812 0.234375,0.5742187 H 2.1558203 c -0.1640625,0 -0.3398437,0 -0.3398437,0.1992188 0,0.1992187 0.1757812,0.1992187 0.3398437,0.1992187 z m 0.1728516,6.12597661 c 0.023437,-0.046875 0.046875,-0.1171875 0.046875,-0.140625 0,-0.01171875 0,-0.10546875 -0.1171875,-0.10546875 -0.09375,0 -0.1054688,0.05859375 -0.1289063,0.1171875 C 4.6724219,1.5452891 4.2974219,2.2132578 2.5982031,2.2132578 h -1.453125 c -0.140625,0 -0.16406247,0 -0.22265622,-0.011719 C 0.81695313,2.1898198 0.79351563,2.1781018 0.79351563,2.09607 c 0,-0.023437 0,-0.046875 0.046875,-0.2226562 L 1.5200781,-0.84533594 h 0.984375 c 0.84375,0 0.84375,0.2109375 0.84375,0.45703125 0,0.0703125 0,0.1875 -0.070312,0.48046875 -0.011719,0.05859375 -0.023437,0.08203125 -0.023437,0.1171875 0,0.046875 0.035156,0.10546875 0.1289063,0.10546875 0.082031,0 0.1054687,-0.046875 0.1523437,-0.19921875 l 0.5625,-2.33203126 c 0,-0.058594 -0.046875,-0.1054687 -0.1171875,-0.1054687 -0.09375,0 -0.1054687,0.058594 -0.140625,0.1757812 -0.2109375,0.7617188 -0.3867187,0.984375 -1.3007812,0.984375 h -0.9375 l 0.5976562,-2.4023437 c 0.082031,-0.3398438 0.09375,-0.3867188 0.5390625,-0.3867188 h 1.40625 c 1.2070313,0 1.5117188,0.2929688 1.5117188,1.1132813 0,0.234375 0,0.2578125 -0.046875,0.5273437 0,0.058594 -0.011719,0.1289063 -0.011719,0.1757813 0,0.046875 0.035156,0.1171875 0.1289063,0.1171875 0.1054687,0 0.1171875,-0.058594 0.140625,-0.2460938 L 6.0669531,-3.9859609 C 6.0903906,-4.2554922 6.0435156,-4.2554922 5.7974219,-4.2554922 H 0.75835938 c -0.19921875,0 -0.29296875,0 -0.29296875,0.1992188 0,0.1054687 0.09375,0.1054687 0.28125,0.1054687 0.36328127,0 0.64453127,0 0.64453127,0.1875 0,0.035156 0,0.058594 -0.046875,0.234375 L 0.02007813,1.7445078 c -0.09375,0.3867188 -0.1171875,0.46875 -0.90234375,0.46875 -0.16406248,0 -0.28124998,0 -0.28124998,0.1875 0,0.1171875 0.09375,0.1171875 0.28124998,0.1171875 H 4.2857031 c 0.234375,0 0.2460938,-0.011719 0.3164063,-0.1640625 z m 0,0"
       style="fill:#000000;fill-opacity:1;fill-rule:nonzero;stroke:none"
       aria-label="⃗&#10;E"
       transform="matrix(1.3333333,0,0,1.3333333,154.24667,27.201333)" />
    <path
       id="path10"
       d="m 43.93762,28.3468 c 0,0.78282 -0.6346,1.41742 -1.41742,1.41742 -0.78282,0 -1.41742,-0.6346 -1.41742,-1.41742 0,-0.78282 0.6346,-1.41742 1.41742,-1.41742 0.78282,0 1.41742,0.6346 1.41742,1.41742 z"
       style="fill:#ff0000;fill-opacity:1;fill-rule:nonzero;stroke:none"
       transform="matrix(1.3333333,0,0,-1.3333333,-3.6773333,156.41733)" />
    <path
       id="path11"
       d="m 2.8241406,-6.2223906 c 0,-0.1992188 -0.1289062,-0.3632813 -0.3632812,-0.3632813 -0.2695313,0 -0.5390625,0.2578125 -0.5390625,0.5273438 0,0.1875 0.140625,0.3632812 0.375,0.3632812 0.234375,0 0.5273437,-0.234375 0.5273437,-0.5273437 z m -0.75,3.7382812 c 0.1171875,-0.28125 0.1171875,-0.3046875 0.2226563,-0.5742187 0.070312,-0.1992188 0.1289062,-0.3398438 0.1289062,-0.5273438 0,-0.4453125 -0.328125,-0.8203125 -0.8203125,-0.8203125 -0.93749997,0 -1.31249997,1.453125 -1.31249997,1.5351563 0,0.1054687 0.09375,0.1054687 0.1171875,0.1054687 0.09375,0 0.10546875,-0.023437 0.15234375,-0.1875 0.26953125,-0.9375 0.66796872,-1.2304687 1.00781252,-1.2304687 0.082031,0 0.2578125,0 0.2578125,0.3164062 0,0.2109375 -0.070312,0.421875 -0.1171875,0.515625 -0.082031,0.2578125 -0.5273438,1.4179688 -0.6796875,1.8515625 -0.10546877,0.2578125 -0.23437502,0.58593752 -0.23437502,0.79687502 0,0.46875 0.33984372,0.80859375 0.82031252,0.80859375 0.9375,0 1.3007812,-1.44140627 1.3007812,-1.53515627 0,-0.09375 -0.09375,-0.09375 -0.1171875,-0.09375 -0.1054687,0 -0.1054687,0.023437 -0.1523437,0.1757813 -0.1757813,0.63281247 -0.5039063,1.24218747 -1.0195313,1.24218747 -0.1640625,0 -0.234375,-0.10546875 -0.234375,-0.328125 0,-0.2578125 0.058594,-0.3984375 0.2929688,-0.99609377 z m 0,0"
       style="fill:#ff0000;fill-opacity:1;fill-rule:nonzero;stroke:none"
       aria-label="i"
       transform="matrix(1.3333333,0,0,1.3333333,50.726667,113.92933)" />
    <path
       id="path12"
       d="m 114.80464,56.69362 c 0,0.78282 -0.63458,1.4174 -1.4174,1.4174 -0.78284,0 -1.41742,-0.63458 -1.41742,-1.4174 0,-0.78284 0.63458,-1.41742 1.41742,-1.41742 0.78282,0 1.4174,0.63458 1.4174,1.41742 z"
       style="fill:#ff0000;fill-opacity:1;fill-rule:nonzero;stroke:none"
       transform="matrix(1.3333333,0,0,-1.3333333,-3.6773333,156.41733)" />
    <path
       id="path13"
       d="m 3.6575469,-3.9852891 h 0.8554687 c 0.1992188,0 0.3046875,0 0.3046875,-0.1992187 0,-0.1054688 -0.1054687,-0.1054688 -0.2695312,-0.1054688 H 3.7161406 l 0.2109375,-1.1367187 c 0.035156,-0.2109375 0.1757813,-0.9140625 0.234375,-1.0429688 0.09375,-0.1875 0.2578125,-0.3398437 0.46875,-0.3398437 0.046875,0 0.3046875,0 0.4921875,0.1875 -0.4335937,0.035156 -0.5390625,0.3867187 -0.5390625,0.5390625 0,0.2226562 0.1757813,0.3398437 0.3632813,0.3398437 0.2695312,0 0.5507812,-0.2109375 0.5507812,-0.5976562 0,-0.4570313 -0.4570312,-0.6796875 -0.8671875,-0.6796875 -0.3398437,0 -0.9609375,0.1757812 -1.265625,1.1601562 -0.058594,0.2109375 -0.082031,0.3164063 -0.328125,1.5703125 H 2.3567656 c -0.1992187,0 -0.3046875,0 -0.3046875,0.1875 0,0.1171875 0.09375,0.1171875 0.28125,0.1171875 h 0.65625 l -0.75,3.93750004 C 2.0637969,0.91314844 1.8997344,1.8272109 1.3723906,1.8272109 c -0.035156,0 -0.28125,0 -0.46874998,-0.1875 C 1.3606719,1.6162734 1.4427031,1.2529922 1.4427031,1.1006484 c 0,-0.22265621 -0.1757812,-0.33984371 -0.3632812,-0.33984371 -0.25781253,0 -0.55078128,0.2109375 -0.55078128,0.59765621 0,0.4453125 0.43359375,0.6796875 0.84374998,0.6796875 0.5507813,0 0.9492188,-0.5859375 1.125,-0.9609375 0.328125,-0.63281246 0.5507813,-1.83984371 0.5625,-1.91015621 z m 0,0"
       style="fill:#ff0000;fill-opacity:1;fill-rule:nonzero;stroke:none"
       aria-label="f"
       transform="matrix(1.3333333,0,0,1.3333333,143.53733,73.552)" />
    <path
       id="path14"
       d="m 42.5202,28.3468 70.86704,28.34682"
       style="fill:none;stroke:#ff0000;stroke-width:0.79701;stroke-linecap:butt;stroke-linejoin:miter;stroke-miterlimit:10;stroke-dasharray:none;stroke-opacity:1"
       transform="matrix(1.3333333,0,0,-1.3333333,-3.6773333,156.41733)" />
    <path
       id="path15"
       d="m 5.1450859,-6.809375 c 0,0 0,-0.1054688 -0.1289062,-0.1054688 -0.1523438,0 -1.1015625,0.09375 -1.265625,0.1054688 -0.082031,0.011719 -0.140625,0.070312 -0.140625,0.1992187 0,0.1171875 0.082031,0.1171875 0.234375,0.1171875 0.4804687,0 0.5039062,0.070312 0.5039062,0.1640625 L 4.3130547,-6.1296875 3.7153984,-3.7625 c -0.1757812,-0.375 -0.46875,-0.6445313 -0.9140625,-0.6445313 -1.171875,0 -2.40234371,1.4648438 -2.40234371,2.9179688 0,0.9375 0.55078125,1.59375 1.32421871,1.59375 0.1992188,0 0.703125,-0.03515625 1.3007813,-0.73828125 0.070312,0.41015625 0.421875,0.73828125 0.9023437,0.73828125 0.3515625,0 0.5742188,-0.22265625 0.7382813,-0.5390625 0.1640625,-0.36328125 0.2929687,-0.9726563 0.2929687,-0.9960938 0,-0.09375 -0.082031,-0.09375 -0.1171875,-0.09375 -0.09375,0 -0.1054687,0.035156 -0.140625,0.1757813 -0.1640625,0.64453125 -0.3515625,1.2421875 -0.75,1.2421875 -0.2695312,0 -0.3046875,-0.2578125 -0.3046875,-0.45703125 0,-0.24609375 0.023437,-0.31640625 0.058594,-0.48046875 z m -2.0742187,5.625 c -0.046875,0.1757812 -0.046875,0.19921875 -0.1992188,0.36328125 -0.4453125,0.55078125 -0.84375,0.71484375 -1.125,0.71484375 -0.5039062,0 -0.6445312,-0.55078125 -0.6445312,-0.9375 0,-0.5039063 0.328125,-1.7226563 0.5507812,-2.1796875 0.3046875,-0.5976563 0.7617188,-0.9609375 1.1601563,-0.9609375 0.6445312,0 0.7851562,0.8203125 0.7851562,0.8789062 0,0.058594 -0.023437,0.1171875 -0.035156,0.1640625 z m 6.6152344,-7.3740234 c -0.1289063,0.1289062 -0.4570313,0.4101562 -0.4570313,0.5859375 0,0.1054687 0.09375,0.1992187 0.1992188,0.1992187 0.082031,0 0.1289062,-0.070312 0.1875,-0.1289062 0.1171875,-0.140625 0.3398437,-0.421875 0.7851559,-0.6445313 0.07031,-0.035156 0.164063,-0.09375 0.164063,-0.2109375 0,-0.09375 -0.07031,-0.1523437 -0.140625,-0.1992187 -0.210938,-0.1523438 -0.328125,-0.328125 -0.398438,-0.5625 -0.02344,-0.09375 -0.070312,-0.2226563 -0.1992184,-0.2226563 -0.140625,0 -0.1992188,0.1289063 -0.1992188,0.2109375 0,0.046875 0.070312,0.3632813 0.234375,0.5742188 H 6.4986016 c -0.1640625,0 -0.3398438,0 -0.3398438,0.1992187 0,0.1992188 0.1757813,0.1992188 0.3398438,0.1992188 z M 7.7525078,-6.809375 c 0,0 0,-0.1054688 -0.1289062,-0.1054688 -0.2226563,0 -0.9492188,0.082031 -1.2070313,0.1054688 -0.082031,0 -0.1992187,0.011719 -0.1992187,0.1992187 0,0.1171875 0.1054687,0.1171875 0.2578125,0.1171875 0.46875,0 0.4804687,0.082031 0.4804687,0.1640625 l -0.023437,0.1992188 -1.2539062,4.9804687 c -0.035156,0.1171875 -0.058594,0.18750005 -0.058594,0.3398438 0,0.57421875 0.4453125,0.9140625 0.9140625,0.9140625 0.328125,0 0.5742188,-0.19921875 0.75,-0.55078125 0.1757813,-0.38671875 0.2929688,-0.96093755 0.2929688,-0.98437505 0,-0.09375 -0.09375,-0.09375 -0.1171875,-0.09375 -0.1054688,0 -0.1171875,0.035156 -0.140625,0.1757813 -0.1757813,0.64453125 -0.3632813,1.2421875 -0.7617188,1.2421875 -0.2929687,0 -0.2929687,-0.328125 -0.2929687,-0.45703125 0,-0.24609375 0.011719,-0.29296875 0.058594,-0.48046875 z m 0,0"
       style="fill:#ff0000;fill-opacity:1;fill-rule:nonzero;stroke:none"
       aria-label="d&#10;⃗&#10;l"
       transform="matrix(1.3333333,0,0,1.3333333,94.690667,94.766667)" />
    <path
       id="path16"
       d="M 42.5202,28.3468 73.62491,40.78871"
       style="fill:none;stroke:#ff0000;stroke-width:0.79701;stroke-linecap:butt;stroke-linejoin:miter;stroke-miterlimit:10;stroke-dasharray:none;stroke-opacity:1"
       transform="matrix(1.3333333,0,0,-1.3333333,-3.6773333,156.41733)" />
    <path
       id="path17"
       d="M 4.66248,0 C 3.28098,0.25902 1.0361,1.0361 -0.51805,1.94269 V -1.94269 C 1.0361,-1.0361 3.28098,-0.25902 4.66248,0"
       style="fill:#ff0000;fill-opacity:1;fill-rule:nonzero;stroke:none"
       transform="matrix(1.23792,-0.49516,-0.49516,-1.23792,94.489213,102.03239)" />
  </g>
</svg>
