<?xml version="1.0" encoding="UTF-8" standalone="no"?>
<!-- Created with Inkscape (http://www.inkscape.org/) -->

<svg
   version="1.1"
   id="svg1"
   width="219.99037"
   height="163.31879"
   viewBox="0 0 219.99037 163.31878"
   xmlns="http://www.w3.org/2000/svg"
   xmlns:svg="http://www.w3.org/2000/svg">
  <defs
     id="defs1">
    <linearGradient
       x1="0"
       y1="0"
       x2="0"
       y2="100.00128"
       gradientUnits="userSpaceOnUse"
       id="linearGradient5">
      <stop
         style="stop-opacity:1;stop-color:#d3d5d9"
         offset="0"
         id="stop1" />
      <stop
         style="stop-opacity:1;stop-color:#d3d5d9"
         offset="0.25"
         id="stop2" />
      <stop
         style="stop-opacity:1;stop-color:#f0f1f2"
         offset="0.5"
         id="stop3" />
      <stop
         style="stop-opacity:1;stop-color:#d3d5d9"
         offset="0.75"
         id="stop4" />
      <stop
         style="stop-opacity:1;stop-color:#d3d5d9"
         offset="1"
         id="stop5" />
    </linearGradient>
    <clipPath
       clipPathUnits="userSpaceOnUse"
       id="clipPath6">
      <path
         d="m 127.2016,70.508 c 0,-31.3114 -25.3822,-56.6936 -56.6936,-56.6936 -31.3114,0 -56.6936,25.3822 -56.6936,56.6936 0,31.3114 25.3822,56.6936 56.6936,56.6936 31.3114,0 56.6936,-25.3822 56.6936,-56.6936 z"
         id="path6" />
    </clipPath>
  </defs>
  <g
     id="g1"
     transform="translate(-13.283061,-13.283061)">
    <path
       id="path1"
       d="M 42.5202,0 C 42.5202,23.48355 23.48355,42.5202 0,42.5202 -23.48355,42.5202 -42.5202,23.48355 -42.5202,0 c 0,-23.48355 19.03665,-42.5202 42.5202,-42.5202 23.48355,0 42.5202,19.03665 42.5202,42.5202 z"
       style="fill:#d3d5d9;fill-opacity:1;fill-rule:nonzero;stroke:none"
       transform="matrix(1.3333333,0,0,-1.3333333,70.508,70.508)" />
    <g
       id="g5"
       clip-path="url(#clipPath6)">
      <path
         d="M 0,0 H 100 V 100 H 0 Z"
         transform="matrix(1.9517198,-1.12682,-1.12682,-1.9517198,29.263008,224.43499)"
         style="fill:url(#linearGradient5);stroke:none"
         id="path5" />
    </g>
    <path
       id="path7"
       d="M 42.5202,0 C 42.5202,23.48355 23.48355,42.5202 0,42.5202 -23.48355,42.5202 -42.5202,23.48355 -42.5202,0 c 0,-23.48355 19.03665,-42.5202 42.5202,-42.5202 23.48355,0 42.5202,19.03665 42.5202,42.5202 z"
       style="fill:none;stroke:#000000;stroke-width:0.79701;stroke-linecap:butt;stroke-linejoin:miter;stroke-miterlimit:10;stroke-dasharray:none;stroke-opacity:1"
       transform="matrix(1.3333333,0,0,-1.3333333,70.508,70.508)" />
    <path
       id="path8"
       d="M 0.99628,0 C 0.99628,0.55023 0.55023,0.99628 0,0.99628 -0.55023,0.99628 -0.99628,0.55023 -0.99628,0 c 0,-0.55023 0.44605,-0.99628 0.99628,-0.99628 0.55023,0 0.99628,0.44605 0.99628,0.99628 z"
       style="fill:#000000;fill-opacity:1;fill-rule:nonzero;stroke:none"
       transform="matrix(1.3333333,0,0,-1.3333333,70.508,70.508)" />
    <path
       id="path9"
       d="M 0,0 30.04755,30.04755"
       style="fill:none;stroke:#000000;stroke-width:0.3985;stroke-linecap:butt;stroke-linejoin:miter;stroke-miterlimit:10;stroke-dasharray:none;stroke-opacity:1"
       transform="matrix(1.3333333,0,0,-1.3333333,70.508,70.508)" />
    <path
       id="path10"
       d="m 3.7374688,-6.1163203 c 0.058594,-0.234375 0.082031,-0.3398438 0.28125,-0.3632813 0.082031,-0.011719 0.3984375,-0.011719 0.5976562,-0.011719 0.7148438,0 1.8164063,0 1.8164063,0.984375 0,0.3398437 -0.1523438,1.0195312 -0.5507813,1.4179687 -0.2578125,0.2578125 -0.7851562,0.5742188 -1.6757812,0.5742188 H 3.0929375 Z m 1.4296875,2.7304687 c 1.0078125,-0.2226562 2.1914062,-0.9140625 2.1914062,-1.921875 0,-0.8554687 -0.890625,-1.5 -2.203125,-1.5 H 2.3195 c -0.1992187,0 -0.2929687,0 -0.2929687,0.1992188 0,0.1171875 0.09375,0.1171875 0.28125,0.1171875 0.023437,0 0.2109375,0 0.3867187,0.011719 0.1757813,0.023437 0.2578125,0.035156 0.2578125,0.1640625 0,0.035156 0,0.070312 -0.035156,0.1875 L 1.581219,-0.77257001 c -0.09375,0.38671875 -0.1171875,0.46875 -0.9023438,0.46875 -0.17578125,0 -0.26953125,0 -0.26953125,0.19921875 0,0.1054687475 0.1171875,0.1054687475 0.140625,0.1054687475 0.28125,0 0.97265625,-0.0351562475 1.25390625,-0.0351562475 0.28125,0 0.984375,0.0351562475 1.265625,0.0351562475 0.082031,0 0.1992188,0 0.1992188,-0.1992187475 0,-0.10546875 -0.09375,-0.10546875 -0.28125,-0.10546875 -0.3632813,0 -0.6445313,0 -0.6445313,-0.1875 0,-0.0585938 0.011719,-0.10546875 0.023437,-0.1640625 l 0.65625,-2.63671879 h 1.1953125 c 0.9023438,0 1.078125,0.5507813 1.078125,0.9023438 0,0.1523437 -0.082031,0.4570312 -0.140625,0.6914062 -0.070312,0.2695313 -0.1523437,0.6445313 -0.1523437,0.84375004 0,1.078125 1.1953125,1.078125 1.3242187,1.078125 0.84375,0 1.1953125,-1.0078125 1.1953125,-1.1484375 0,-0.11718754 -0.1171875,-0.11718754 -0.1171875,-0.11718754 -0.09375,0 -0.1171875,0.0703125 -0.1289062,0.14062504 -0.2578125,0.73828125 -0.6796875,0.9023437475 -0.9140625,0.9023437475 -0.328125,0 -0.3984375,-0.2226562475 -0.3984375,-0.6093749975 0,-0.3046875 0.058594,-0.82031249 0.1054687,-1.13671879 0.011719,-0.140625 0.035156,-0.328125 0.035156,-0.46875 0,-0.7617187 -0.6679688,-1.078125 -0.9374994,-1.1718753 z m 0,0"
       style="fill:#000000;fill-opacity:1;fill-rule:nonzero;stroke:none"
       aria-label="R"
       transform="matrix(1.3333333,0,0,1.3333333,75.657333,45.784)" />
    <path
       id="path11"
       d="M 0,-42.5202 V -70.867"
       style="fill:none;stroke:#000000;stroke-width:0.3985;stroke-linecap:butt;stroke-linejoin:miter;stroke-miterlimit:10;stroke-dasharray:none;stroke-opacity:1"
       transform="matrix(1.3333333,0,0,-1.3333333,70.508,70.508)" />
    <path
       id="path12"
       d="M -14.17339,-70.867 H 14.17339"
       style="fill:none;stroke:#000000;stroke-width:0.3985;stroke-linecap:butt;stroke-linejoin:miter;stroke-miterlimit:10;stroke-dasharray:none;stroke-opacity:1"
       transform="matrix(1.3333333,0,0,-1.3333333,70.508,70.508)" />
    <path
       id="path13"
       d="M -8.50412,-75.11885 H 8.50412"
       style="fill:none;stroke:#000000;stroke-width:0.3985;stroke-linecap:butt;stroke-linejoin:miter;stroke-miterlimit:10;stroke-dasharray:none;stroke-opacity:1"
       transform="matrix(1.3333333,0,0,-1.3333333,70.508,70.508)" />
    <path
       id="path14"
       d="M -2.83484,-79.37114 H 2.83484"
       style="fill:none;stroke:#000000;stroke-width:0.3985;stroke-linecap:butt;stroke-linejoin:miter;stroke-miterlimit:10;stroke-dasharray:none;stroke-opacity:1"
       transform="matrix(1.3333333,0,0,-1.3333333,70.508,70.508)" />
    <g
       id="g14"
       aria-label="V=0⇒Q=0"
       transform="matrix(1.3333333,0,0,1.3333333,143.232,73.754667)">
      <path
         id="path15"
         d="m 6.2566641,-5.6724453 c 0.4804687,-0.7734375 0.9023437,-0.8085938 1.2773437,-0.8203125 0.1171875,-0.011719 0.1289063,-0.1875 0.1289063,-0.1875 0,-0.082031 -0.058594,-0.1289063 -0.1289063,-0.1289063 -0.2578125,0 -0.5507812,0.035156 -0.8203125,0.035156 -0.328125,0 -0.6679687,-0.035156 -0.984375,-0.035156 -0.058594,0 -0.1875,0 -0.1875,0.1992188 0,0.1054687 0.082031,0.1171875 0.1523438,0.1171875 0.2695312,0.011719 0.4570312,0.1171875 0.4570312,0.328125 0,0.1523437 -0.140625,0.3632812 -0.140625,0.375 L 2.9519766,-0.92635156 2.2722891,-6.1997891 c 0,-0.1640625 0.2226562,-0.2929687 0.6796875,-0.2929687 0.140625,0 0.2578125,0 0.2578125,-0.1992188 0,-0.09375 -0.082031,-0.1171875 -0.140625,-0.1171875 -0.3984375,0 -0.8320313,0.035156 -1.2421875,0.035156 -0.1757813,0 -0.3632813,-0.011719 -0.5390625,-0.011719 -0.1875,0 -0.37500004,-0.023437 -0.53906254,-0.023437 -0.0703125,0 -0.1875,0 -0.1875,0.1992188 0,0.1171875 0.0820313,0.1171875 0.24609375,0.1171875 0.55078129,0 0.56249999,0.082031 0.59765629,0.3398437 l 0.7851562,6.14062504 c 0.035156,0.19921875 0.070312,0.234375 0.1992188,0.234375 0.1640625,0 0.1992187,-0.0585938 0.28125,-0.1875 z m 0,0"
         style="fill:#000000;fill-opacity:1;fill-rule:nonzero;stroke:none" />
      <path
         id="path16"
         d="m 17.63557,-3.2583828 c 0.152344,0 0.339844,0 0.339844,-0.1992188 0,-0.1992187 -0.1875,-0.1992187 -0.328125,-0.1992187 h -5.964844 c -0.140625,0 -0.328125,0 -0.328125,0.1992187 0,0.1992188 0.1875,0.1992188 0.339844,0.1992188 z m 0.01172,1.9335937 c 0.140625,0 0.328125,0 0.328125,-0.1992187 0,-0.1992188 -0.1875,-0.1992188 -0.339844,-0.1992188 h -5.941406 c -0.152344,0 -0.339844,0 -0.339844,0.1992188 0,0.1992187 0.1875,0.1992187 0.328125,0.1992187 z m 8.24707,-1.8632812 c 0,-0.796875 -0.04687,-1.59375 -0.398437,-2.3320313 -0.457031,-0.9609375 -1.277344,-1.1132812 -1.6875,-1.1132812 -0.597656,0 -1.335938,0.2578125 -1.734375,1.1835937 -0.328125,0.6914063 -0.375,1.4648438 -0.375,2.2617188 0,0.75 0.04687,1.640625 0.445312,2.40234374 0.433594,0.80859375 1.160157,1.0078125 1.652344,1.0078125 0.539063,0 1.289063,-0.2109375 1.734375,-1.16015625 0.316406,-0.69140629 0.363281,-1.46484379 0.363281,-2.24999999 z m -2.097656,3.1874999875 c -0.386719,0 -0.984375,-0.2460937475 -1.160156,-1.2070312875 -0.105469,-0.5976562 -0.105469,-1.5117187 -0.105469,-2.0976562 0,-0.6445313 0,-1.3007813 0.08203,-1.8398438 0.1875,-1.1835937 0.925782,-1.265625 1.183594,-1.265625 0.328125,0 0.984375,0.1757813 1.171875,1.1601563 0.09375,0.5625 0.09375,1.3125 0.09375,1.9453125 0,0.75 0,1.4179687 -0.105469,2.0625 -0.152343,0.93749999 -0.714843,1.2421874875 -1.160156,1.2421874875 z m 0,0"
         style="fill:#000000;fill-opacity:1;fill-rule:nonzero;stroke:none" />
      <path
         id="path17"
         d="m 36.288891,-3.2583828 c 0.421875,0.3632812 0.925781,0.6210937 1.253906,0.7617187 -0.351563,0.1640625 -0.84375,0.421875 -1.253906,0.7734375 h -6.328125 c -0.164063,0 -0.351563,0 -0.351563,0.1992188 0,0.1992187 0.175781,0.1992187 0.351563,0.1992187 h 5.882812 c -0.480469,0.45703129 -0.996094,1.33593754 -0.996094,1.46484379 0,0.10546875 0.128907,0.10546875 0.1875,0.10546875 0.08203,0 0.152344,0 0.1875,-0.0820313 0.210938,-0.375 0.492188,-0.90234375 1.136719,-1.47656254 0.691406,-0.609375 1.359375,-0.8789063 1.875,-1.03125 0.164063,-0.058594 0.175781,-0.070312 0.199219,-0.082031 0.02344,-0.011719 0.02344,-0.046875 0.02344,-0.070312 0,-0.011719 0,-0.035156 -0.01172,-0.058594 l -0.03516,-0.011719 c -0.02344,-0.011719 -0.02344,-0.023437 -0.222656,-0.082031 -1.335937,-0.3984375 -2.332031,-1.3007813 -2.894531,-2.3671874 -0.105469,-0.1992188 -0.117188,-0.2109375 -0.257813,-0.2109375 -0.05859,0 -0.1875,0 -0.1875,0.1054687 0,0.1289063 0.503907,0.9960938 0.996094,1.4648438 h -5.882812 c -0.175782,0 -0.351563,0 -0.351563,0.1992186 0,0.1992189 0.1875,0.1992189 0.351563,0.1992189 z m 0,0"
         style="fill:#000000;fill-opacity:1;fill-rule:nonzero;stroke:none" />
      <path
         id="path18"
         d="m 46.147289,-0.05916406 c 1.546875,-0.5859375 3.011719,-2.36718754 3.011719,-4.28906254 0,-1.59375 -1.054688,-2.671875 -2.542969,-2.671875 -2.144531,0 -4.335937,2.2617188 -4.335937,4.5820313 0,1.65234374 1.113281,2.66015624 2.542968,2.66015624 0.257813,0 0.585938,-0.046875 0.984375,-0.15234375 -0.04687,0.62109375 -0.04687,0.6328125 -0.04687,0.76171875 0,0.32812496 0,1.10156246 0.832032,1.10156246 1.183593,0 1.664062,-1.82812496 1.664062,-1.9335937125 0,-0.0703124975 -0.07031,-0.1054687475 -0.117187,-0.1054687475 -0.07031,0 -0.09375,0.05859375 -0.117188,0.1171875 -0.234375,0.703125 -0.820312,0.94921875 -1.160156,0.94921875 -0.457031,0 -0.609375,-0.2578125 -0.714844,-1.01953125 z m -1.875,-0.08203125 c -0.785156,-0.3046875 -1.125,-1.08984379 -1.125,-1.98046879 0,-0.6914062 0.269531,-2.0976562 1.019531,-3.1757812 0.726563,-1.0195313 1.664063,-1.4765625 2.390625,-1.4765625 0.996094,0 1.722657,0.7734375 1.722657,2.109375 0,0.9960937 -0.503907,3.328125 -2.179688,4.26562499 -0.04687,-0.3515625 -0.152344,-1.07812499 -0.878906,-1.07812499 -0.527344,0 -1.007813,0.50390624 -1.007813,1.01953124 0,0.19921875 0.05859,0.3046875 0.05859,0.31640625 z m 0.609375,0.10546875 c -0.140625,0 -0.457031,0 -0.457031,-0.421875 0,-0.3984375 0.386719,-0.79687504 0.796875,-0.79687504 0.421875,0 0.609375,0.234375 0.609375,0.84375004 0,0.15234375 -0.01172,0.1640625 -0.105469,0.19921875 -0.257812,0.10546875 -0.5625,0.17578125 -0.84375,0.17578125 z m 0,0"
         style="fill:#000000;fill-opacity:1;fill-rule:nonzero;stroke:none" />
      <path
         id="path19"
         d="m 59.275219,-3.2583828 c 0.152344,0 0.339844,0 0.339844,-0.1992188 0,-0.1992187 -0.1875,-0.1992187 -0.328125,-0.1992187 h -5.964844 c -0.140625,0 -0.328125,0 -0.328125,0.1992187 0,0.1992188 0.1875,0.1992188 0.339844,0.1992188 z m 0.01172,1.9335937 c 0.140625,0 0.328125,0 0.328125,-0.1992187 0,-0.1992188 -0.1875,-0.1992188 -0.339844,-0.1992188 h -5.941406 c -0.152344,0 -0.339844,0 -0.339844,0.1992188 0,0.1992187 0.1875,0.1992187 0.328125,0.1992187 z m 8.24414,-1.8632812 c 0,-0.796875 -0.04687,-1.59375 -0.398437,-2.3320313 -0.457032,-0.9609375 -1.277344,-1.1132812 -1.6875,-1.1132812 -0.597657,0 -1.335938,0.2578125 -1.734375,1.1835937 -0.328125,0.6914063 -0.375,1.4648438 -0.375,2.2617188 0,0.75 0.04687,1.640625 0.445312,2.40234374 0.433594,0.80859375 1.160156,1.0078125 1.652344,1.0078125 0.539062,0 1.289062,-0.2109375 1.734375,-1.16015625 0.316406,-0.69140629 0.363281,-1.46484379 0.363281,-2.24999999 z m -2.097656,3.1874999875 c -0.386719,0 -0.984375,-0.2460937475 -1.160156,-1.2070312875 -0.105469,-0.5976562 -0.105469,-1.5117187 -0.105469,-2.0976562 0,-0.6445313 0,-1.3007813 0.08203,-1.8398438 0.1875,-1.1835937 0.925781,-1.265625 1.183594,-1.265625 0.328125,0 0.984375,0.1757813 1.171875,1.1601563 0.09375,0.5625 0.09375,1.3125 0.09375,1.9453125 0,0.75 0,1.4179687 -0.105469,2.0625 -0.152344,0.93749999 -0.714844,1.2421874875 -1.160155,1.2421874875 z m 0,0"
         style="fill:#000000;fill-opacity:1;fill-rule:nonzero;stroke:none" />
    </g>
  </g>
</svg>
