<?xml version="1.0" encoding="UTF-8" standalone="no"?>
<!-- Created with Inkscape (http://www.inkscape.org/) -->

<svg
   version="1.1"
   id="svg1"
   width="331.88644"
   height="162.61665"
   viewBox="0 0 331.88644 162.61665"
   xmlns="http://www.w3.org/2000/svg"
   xmlns:svg="http://www.w3.org/2000/svg">
  <defs
     id="defs1" />
  <g
     id="g1"
     transform="translate(-16.101563,-13.281779)">
    <path
       id="path1"
       d="M 85.04042,85.04042 V 70.867 l -2e-5,-24.37834 m 0,-7.93695 2e-5,-24.37832 V 0 m 0,85.04042 h 85.04044 V 70.867 46.48866 m 0,-7.93695 V 14.17339 0 H 155.90744 131.5291 m -7.93695,0 H 99.21382 92.1271 m 0,0 h -7.08668"
       style="fill:none;stroke:#000000;stroke-width:0.3985;stroke-linecap:butt;stroke-linejoin:miter;stroke-miterlimit:10;stroke-dasharray:none;stroke-opacity:1"
       transform="matrix(1.3333333,0,0,-1.3333333,9.1066667,126.93467)" />
    <path
       id="path2"
       d="M 96.94612,46.48866 H 73.13469 M 96.94612,38.55171 H 73.13469"
       style="fill:none;stroke:#000000;stroke-width:0.797;stroke-linecap:butt;stroke-linejoin:miter;stroke-miterlimit:10;stroke-dasharray:none;stroke-opacity:1"
       transform="matrix(1.3333333,0,0,-1.3333333,9.1066667,126.93467)" />
    <g
       id="g2"
       aria-label="C&#10;0&#10;,&#10;2"
       transform="matrix(1.3333333,0,0,1.3333333,15.428,73.101333)">
      <path
         id="path3"
         d="m 7.5715781,-6.9256094 c 0,-0.023437 -0.023437,-0.09375 -0.1054687,-0.09375 -0.035156,0 -0.046875,0.011719 -0.1523438,0.1171875 l -0.703125,0.7617188 c -0.082031,-0.140625 -0.5390625,-0.8789063 -1.6523437,-0.8789063 -2.2148438,0 -4.45312502,2.203125 -4.45312502,4.5117188 0,1.64062497 1.17187502,2.73046872 2.69531252,2.73046872 0.8671875,0 1.6171875,-0.3984375 2.1445312,-0.85546875 0.9375,-0.82031247 1.1015625,-1.72265627 1.1015625,-1.75781247 0,-0.1054688 -0.1054687,-0.1054688 -0.1171875,-0.1054688 -0.058594,0 -0.1171875,0.023437 -0.1289062,0.1054688 -0.09375,0.2929687 -0.3164063,0.9960937 -1.0078125,1.57031247 -0.6914063,0.5625 -1.3125,0.7265625 -1.8398438,0.7265625 -0.890625,0 -1.9453125,-0.515625 -1.9453125,-2.06249997 0,-0.5742188 0.2109375,-2.1914063 1.2070313,-3.3515625 0.609375,-0.703125 1.5351562,-1.2070313 2.4257812,-1.2070313 1.0195313,0 1.6054688,0.7734375 1.6054688,1.921875 0,0.3984375 -0.035156,0.4101563 -0.035156,0.5039063 0,0.1054687 0.1171875,0.1054687 0.1523438,0.1054687 0.1289062,0 0.1289062,-0.023437 0.1757812,-0.1992187 z m 0,0"
         style="fill:#000000;fill-opacity:1;fill-rule:nonzero;stroke:none" />
      <path
         id="path4"
         d="m 10.718063,-0.73225 c 0,-0.7617188 -0.09375,-1.3125 -0.410157,-1.8046875 -0.222656,-0.3164063 -0.644531,-0.5976563 -1.207031,-0.5976563 -1.6171875,0 -1.6171875,1.8984375 -1.6171875,2.4023438 0,0.50390625 0,2.3671875 1.6171875,2.3671875 1.617188,0 1.617188,-1.86328125 1.617188,-2.3671875 z M 9.100875,1.4357187 c -0.3164062,0 -0.75,-0.1875 -0.890625,-0.7617187 C 8.1165,0.26384375 8.1165,-0.310375 8.1165,-0.826 c 0,-0.5039063 0,-1.03125 0.1054688,-1.4179688 C 8.3743125,-2.79475 8.819625,-2.935375 9.100875,-2.935375 c 0.375,0 0.7382813,0.2226562 0.8671875,0.6328125 0.1054685,0.375 0.1171875,0.8789062 0.1171875,1.4765625 0,0.515625 0,1.04296875 -0.09375,1.4765625 C 9.850875,1.283375 9.382125,1.4357187 9.100875,1.4357187 Z m 0,0"
         style="fill:#000000;fill-opacity:1;fill-rule:nonzero;stroke:none" />
      <path
         id="path5"
         d="m 13.618453,-0.01154688 c 0,-0.6328125 -0.246094,-1.04296872 -0.644531,-1.04296872 -0.351563,0 -0.527344,0.26953122 -0.527344,0.52734372 0,0.2578125 0.175781,0.527343755 0.527344,0.527343755 0.164062,0 0.28125,-0.058593755 0.375,-0.140625005 l 0.02344,-0.0234375 c 0.01172,0 0.02344,0.0117188 0.02344,0.15234375 0,0.64453125 -0.28125,1.24218748 -0.714844,1.71093748 -0.05859,0.058594 -0.07031,0.070312 -0.07031,0.1171875 0,0.070312 0.04687,0.1054688 0.09375,0.1054688 0.117187,0 0.914062,-0.7851563 0.914062,-1.93359378 z m 6.521485,-7.49121092 1.054687,-1.03125 c 1.558594,-1.3710938 2.15625,-1.9101562 2.15625,-2.9062502 0,-1.136719 -0.902344,-1.933594 -2.121094,-1.933594 -1.125,0 -1.851562,0.914063 -1.851562,1.804688 0,0.550781 0.492187,0.550781 0.527344,0.550781 0.164062,0 0.515625,-0.117187 0.515625,-0.527344 0,-0.257812 -0.1875,-0.515625 -0.527344,-0.515625 -0.08203,0 -0.105469,0 -0.128906,0.01172 0.222656,-0.644531 0.761718,-1.019531 1.335937,-1.019531 0.914063,0 1.335938,0.808594 1.335938,1.628906 0,0.796875 -0.492188,1.5820314 -1.042969,2.2031252 l -1.910156,2.1328125 c -0.105469,0.1054687 -0.105469,0.1289062 -0.105469,0.3632812 h 3.691406 l 0.28125,-1.734375 h -0.257812 c -0.04687,0.3046875 -0.117188,0.7382813 -0.210938,0.890625 -0.07031,0.082031 -0.726562,0.082031 -0.949219,0.082031 z m 0,0"
         style="fill:#000000;fill-opacity:1;fill-rule:nonzero;stroke:none" />
    </g>
    <path
       id="path6"
       d="M 0,0 H 4.981"
       style="fill:none;stroke:#000000;stroke-width:0.398;stroke-linecap:butt;stroke-linejoin:miter;stroke-miterlimit:10;stroke-dasharray:none;stroke-opacity:1"
       transform="matrix(1.3333333,0,0,-1.3333333,40.593333,69.781333)" />
    <g
       id="g6"
       aria-label="5&#10;Q&#10;0&#10;,&#10;2"
       transform="matrix(1.3333333,0,0,1.3333333,40.593333,82.213333)">
      <path
         id="path7"
         d="m 4.476875,-2.0027734 c 0,-1.1835938 -0.8203125,-2.1796875 -1.8984375,-2.1796875 -0.4804687,0 -0.9023437,0.1640625 -1.265625,0.5039062 v -1.9335937 c 0.1992188,0.058594 0.5273438,0.1289062 0.84375,0.1289062 1.2304688,0 1.9335938,-0.9140625 1.9335938,-1.0429687 0,-0.058594 -0.035156,-0.1054688 -0.1054688,-0.1054688 -0.011719,0 -0.035156,0 -0.082031,0.023437 -0.1992188,0.09375 -0.6796875,0.2929688 -1.3476563,0.2929688 -0.3984375,0 -0.8554687,-0.070312 -1.3242187,-0.28125 -0.082031,-0.023437 -0.1054688,-0.023437 -0.1289063,-0.023437 -0.09375,0 -0.09375,0.082031 -0.09375,0.234375 v 2.953125 c 0,0.1757812 0,0.2578125 0.140625,0.2578125 0.070312,0 0.082031,-0.035156 0.1289063,-0.09375 C 1.383125,-3.4207422 1.758125,-3.9598047 2.555,-3.9598047 c 0.5273438,0 0.7734375,0.4570313 0.8554688,0.6328125 0.1523437,0.375 0.1757812,0.7617188 0.1757812,1.2539063 0,0.3515625 0,0.9492187 -0.234375,1.37109371 -0.2460937,0.38671875 -0.609375,0.64453125 -1.0664062,0.64453125 -0.7265625,0 -1.3007813,-0.52734375 -1.4648438,-1.11328126 0.0234375,0.011719 0.0585938,0.011719 0.1640625,0.011719 0.328125,0 0.5039063,-0.2460938 0.5039063,-0.4804688 0,-0.2460937 -0.1757813,-0.4921875 -0.5039063,-0.4921875 -0.140625,0 -0.48046875,0.070312 -0.48046875,0.5273438 0,0.85546871 0.67968755,1.82812496 1.79296875,1.82812496 1.1601563,0 2.1796875,-0.9609375 2.1796875,-2.22656266 z m 0,0"
         style="fill:#000000;fill-opacity:1;fill-rule:nonzero;stroke:none" />
      <path
         id="path8"
         d="m 10.535469,-6.8924219 c 1.546875,-0.5859375 3.011719,-2.3671875 3.011719,-4.2890621 0,-1.59375 -1.054688,-2.671875 -2.542969,-2.671875 -2.1445315,0 -4.3359377,2.261718 -4.3359377,4.5820309 0,1.6523437 1.1132812,2.6601562 2.5429687,2.6601562 0.2578125,0 0.5859375,-0.046875 0.984375,-0.1523437 -0.04687,0.6210937 -0.04687,0.6328125 -0.04687,0.7617187 0,0.328125 0,1.1015625 0.832031,1.1015625 1.183594,0 1.664063,-1.828125 1.664063,-1.9335937 0,-0.070312 -0.07031,-0.1054688 -0.117188,-0.1054688 -0.07031,0 -0.09375,0.058594 -0.117187,0.1171875 -0.234375,0.703125 -0.820313,0.9492188 -1.160156,0.9492188 -0.457032,0 -0.609375,-0.2578125 -0.714844,-1.0195313 z m -1.8750002,-0.082031 c -0.7851563,-0.3046875 -1.125,-1.0898438 -1.125,-1.9804688 0,-0.6914062 0.2695312,-2.0976563 1.0195312,-3.1757813 0.7265625,-1.019531 1.664063,-1.476563 2.390625,-1.476563 0.996094,0 1.722656,0.773438 1.722656,2.109375 0,0.996094 -0.503906,3.3281256 -2.179687,4.2656256 -0.04687,-0.3515625 -0.152344,-1.078125 -0.8789065,-1.078125 -0.5273437,0 -1.0078125,0.5039062 -1.0078125,1.0195312 0,0.1992188 0.058594,0.3046875 0.058594,0.3164063 z m 0.609375,0.1054687 c -0.140625,0 -0.4570313,0 -0.4570313,-0.421875 0,-0.3984375 0.3867188,-0.796875 0.796875,-0.796875 0.4218755,0 0.6093755,0.234375 0.6093755,0.84375 0,0.1523438 -0.01172,0.1640625 -0.105469,0.1992188 -0.2578127,0.1054687 -0.5625002,0.1757812 -0.8437502,0.1757812 z m 0,0"
         style="fill:#000000;fill-opacity:1;fill-rule:nonzero;stroke:none" />
      <path
         id="path9"
         d="m 17.65168,-7.56625 c 0,-0.7617188 -0.09375,-1.3125 -0.410157,-1.8046875 -0.222656,-0.3164063 -0.644531,-0.5976563 -1.207031,-0.5976563 -1.617187,0 -1.617187,1.8984375 -1.617187,2.4023438 0,0.5039062 0,2.3671875 1.617187,2.3671875 1.617188,0 1.617188,-1.8632813 1.617188,-2.3671875 z m -1.617188,2.1679687 c -0.316406,0 -0.75,-0.1875 -0.890625,-0.7617187 -0.09375,-0.4101563 -0.09375,-0.984375 -0.09375,-1.5 0,-0.5039063 0,-1.03125 0.105469,-1.4179688 0.152344,-0.5507812 0.597656,-0.6914062 0.878906,-0.6914062 0.375,0 0.738281,0.2226562 0.867188,0.6328125 0.105468,0.375 0.117187,0.8789062 0.117187,1.4765625 0,0.515625 0,1.0429687 -0.09375,1.4765625 -0.140625,0.6328125 -0.609375,0.7851562 -0.890625,0.7851562 z m 0,0"
         style="fill:#000000;fill-opacity:1;fill-rule:nonzero;stroke:none" />
      <path
         id="path10"
         d="m 20.549141,-6.8455469 c 0,-0.6328125 -0.246094,-1.0429687 -0.644532,-1.0429687 -0.351562,0 -0.527343,0.2695312 -0.527343,0.5273437 0,0.2578125 0.175781,0.5273438 0.527343,0.5273438 0.164063,0 0.28125,-0.058594 0.375,-0.140625 l 0.02344,-0.023437 c 0.01172,0 0.02344,0.011719 0.02344,0.1523437 0,0.6445313 -0.28125,1.2421875 -0.714843,1.7109375 -0.05859,0.058594 -0.07031,0.070312 -0.07031,0.1171875 0,0.070312 0.04687,0.1054688 0.09375,0.1054688 0.117188,0 0.914063,-0.7851563 0.914063,-1.9335938 z m 6.521484,-7.4912111 1.054688,-1.03125 c 1.558593,-1.371094 2.15625,-1.910156 2.15625,-2.90625 0,-1.136719 -0.902344,-1.933594 -2.121094,-1.933594 -1.125,0 -1.851563,0.914063 -1.851563,1.804688 0,0.550781 0.492188,0.550781 0.527344,0.550781 0.164063,0 0.515625,-0.117187 0.515625,-0.527344 0,-0.257812 -0.1875,-0.515625 -0.527344,-0.515625 -0.08203,0 -0.105468,0 -0.128906,0.01172 0.222656,-0.644531 0.761719,-1.019531 1.335938,-1.019531 0.914062,0 1.335937,0.808594 1.335937,1.628906 0,0.796875 -0.492187,1.582031 -1.042969,2.203125 l -1.910156,2.132813 c -0.105469,0.105468 -0.105469,0.128906 -0.105469,0.363281 h 3.691407 l 0.28125,-1.734375 H 30.02375 c -0.04687,0.304687 -0.117187,0.738281 -0.210937,0.890625 -0.07031,0.08203 -0.726563,0.08203 -0.949219,0.08203 z m 0,0"
         style="fill:#000000;fill-opacity:1;fill-rule:nonzero;stroke:none" />
    </g>
    <path
       id="path11"
       d="M 0,0 H 4.981"
       style="fill:none;stroke:#000000;stroke-width:0.398;stroke-linecap:butt;stroke-linejoin:miter;stroke-miterlimit:10;stroke-dasharray:none;stroke-opacity:1"
       transform="matrix(1.3333333,0,0,-1.3333333,75.001333,69.781333)" />
    <g
       id="g11"
       aria-label="5&#10;Q&#10;0"
       transform="matrix(1.3333333,0,0,1.3333333,75.001333,82.213333)">
      <path
         id="path12"
         d="m 4.4755625,-2.0027734 c 0,-1.1835938 -0.8203125,-2.1796875 -1.8984375,-2.1796875 -0.4804687,0 -0.9023437,0.1640625 -1.265625,0.5039062 v -1.9335937 c 0.1992188,0.058594 0.5273438,0.1289062 0.84375,0.1289062 1.2304688,0 1.9335938,-0.9140625 1.9335938,-1.0429687 0,-0.058594 -0.035156,-0.1054688 -0.1054688,-0.1054688 -0.011719,0 -0.035156,0 -0.082031,0.023437 -0.1992188,0.09375 -0.6796875,0.2929688 -1.3476563,0.2929688 -0.3984375,0 -0.8554687,-0.070312 -1.3242187,-0.28125 -0.082031,-0.023437 -0.1054688,-0.023437 -0.1289063,-0.023437 -0.09375,0 -0.09375,0.082031 -0.09375,0.234375 v 2.953125 c 0,0.1757812 0,0.2578125 0.140625,0.2578125 0.070312,0 0.082031,-0.035156 0.1289063,-0.09375 0.1054687,-0.1523438 0.4804687,-0.6914063 1.2773437,-0.6914063 0.5273438,0 0.7734375,0.4570313 0.8554688,0.6328125 0.1523437,0.375 0.1757812,0.7617188 0.1757812,1.2539063 0,0.3515625 0,0.9492187 -0.234375,1.37109371 -0.2460937,0.38671875 -0.609375,0.64453125 -1.0664062,0.64453125 -0.7265625,0 -1.3007813,-0.52734375 -1.4648438,-1.11328126 0.0234375,0.011719 0.0585938,0.011719 0.1640625,0.011719 0.328125,0 0.5039063,-0.2460938 0.5039063,-0.4804688 0,-0.2460937 -0.1757813,-0.4921875 -0.5039063,-0.4921875 -0.140625,0 -0.48046875,0.070312 -0.48046875,0.5273438 0,0.85546871 0.67968755,1.82812496 1.79296875,1.82812496 1.1601563,0 2.1796875,-0.9609375 2.1796873,-2.22656266 z m 0,0"
         style="fill:#000000;fill-opacity:1;fill-rule:nonzero;stroke:none" />
      <path
         id="path13"
         d="m 11.732398,-13.633633 c 1.546875,-0.585937 3.011719,-2.367187 3.011719,-4.289062 0,-1.59375 -1.054687,-2.671875 -2.542969,-2.671875 -2.144531,0 -4.3359371,2.261718 -4.3359371,4.582031 0,1.652344 1.1132813,2.660156 2.5429691,2.660156 0.257812,0 0.585937,-0.04687 0.984375,-0.152344 -0.04687,0.621094 -0.04687,0.632813 -0.04687,0.761719 0,0.328125 0,1.101563 0.832031,1.101563 1.183594,0 1.664062,-1.828125 1.664062,-1.933594 0,-0.07031 -0.07031,-0.105469 -0.117187,-0.105469 -0.07031,0 -0.09375,0.05859 -0.117188,0.117188 -0.234375,0.703125 -0.820312,0.949218 -1.160156,0.949218 -0.457031,0 -0.609375,-0.257812 -0.714844,-1.019531 z m -1.8749996,-0.08203 c -0.7851562,-0.304688 -1.125,-1.089844 -1.125,-1.980469 0,-0.691406 0.2695313,-2.097656 1.0195313,-3.175781 0.7265623,-1.019531 1.6640623,-1.476563 2.3906253,-1.476563 0.996093,0 1.722656,0.773438 1.722656,2.109375 0,0.996094 -0.503906,3.328125 -2.179688,4.265625 -0.04687,-0.351562 -0.152343,-1.078125 -0.878906,-1.078125 -0.527344,0 -1.0078123,0.503907 -1.0078123,1.019532 0,0.199218 0.058594,0.304687 0.058594,0.316406 z m 0.6093746,0.105469 c -0.140625,0 -0.457031,0 -0.457031,-0.421875 0,-0.398438 0.386719,-0.796875 0.796875,-0.796875 0.421875,0 0.609375,0.234375 0.609375,0.84375 0,0.152343 -0.01172,0.164062 -0.105469,0.199218 -0.257812,0.105469 -0.5625,0.175782 -0.84375,0.175782 z m 0,0"
         style="fill:#000000;fill-opacity:1;fill-rule:nonzero;stroke:none" />
      <path
         id="path14"
         d="m 18.84568,-14.304531 c 0,-0.761719 -0.09375,-1.3125 -0.410157,-1.804688 -0.222656,-0.316406 -0.644531,-0.597656 -1.207031,-0.597656 -1.617187,0 -1.617187,1.898437 -1.617187,2.402344 0,0.503906 0,2.367187 1.617187,2.367187 1.617188,0 1.617188,-1.863281 1.617188,-2.367187 z m -1.617188,2.167968 c -0.316406,0 -0.75,-0.1875 -0.890625,-0.761718 -0.09375,-0.410157 -0.09375,-0.984375 -0.09375,-1.5 0,-0.503907 0,-1.03125 0.105469,-1.417969 0.152344,-0.550781 0.597656,-0.691406 0.878906,-0.691406 0.375,0 0.738281,0.222656 0.867188,0.632812 0.105468,0.375 0.117187,0.878906 0.117187,1.476563 0,0.515625 0,1.042968 -0.09375,1.476562 -0.140625,0.632813 -0.609375,0.785156 -0.890625,0.785156 z m 0,0"
         style="fill:#000000;fill-opacity:1;fill-rule:nonzero;stroke:none" />
    </g>
    <path
       id="path15"
       d="M 0,0 H 12.345"
       style="fill:none;stroke:#000000;stroke-width:0.398;stroke-linecap:butt;stroke-linejoin:miter;stroke-miterlimit:10;stroke-dasharray:none;stroke-opacity:1"
       transform="matrix(1.3333333,0,0,-1.3333333,84.830667,69.781333)" />
    <g
       id="g15"
       aria-label="C&#10;0"
       transform="matrix(1.3333333,0,0,1.3333333,85.334667,82.213333)">
      <path
         id="path16"
         d="m 7.5712656,-6.9246484 c 0,-0.023437 -0.023437,-0.09375 -0.1054687,-0.09375 -0.035156,0 -0.046875,0.011719 -0.1523438,0.1171875 l -0.703125,0.7617187 c -0.082031,-0.140625 -0.5390625,-0.8789062 -1.6523437,-0.8789062 -2.2148438,0 -4.45312503,2.203125 -4.45312503,4.5117187 0,1.64062501 1.17187503,2.73046876 2.69531253,2.73046876 0.8671875,0 1.6171875,-0.3984375 2.1445312,-0.85546875 0.9375,-0.82031251 1.1015625,-1.72265621 1.1015625,-1.75781251 0,-0.1054687 -0.1054687,-0.1054687 -0.1171875,-0.1054687 -0.058594,0 -0.1171875,0.023437 -0.1289062,0.1054687 -0.09375,0.2929688 -0.3164063,0.9960938 -1.0078125,1.57031251 -0.6914063,0.5625 -1.3125,0.7265625 -1.8398438,0.7265625 -0.890625,0 -1.9453125,-0.515625 -1.9453125,-2.06250001 0,-0.5742187 0.2109375,-2.1914062 1.2070313,-3.3515625 0.609375,-0.703125 1.5351562,-1.2070312 2.4257812,-1.2070312 1.0195313,0 1.6054688,0.7734375 1.6054688,1.921875 0,0.3984375 -0.035156,0.4101562 -0.035156,0.5039062 0,0.1054688 0.1171875,0.1054688 0.1523438,0.1054688 0.1289062,0 0.1289062,-0.023437 0.1757812,-0.1992188 z m 0,0"
         style="fill:#000000;fill-opacity:1;fill-rule:nonzero;stroke:none" />
      <path
         id="path17"
         d="m 10.71775,-0.73128906 c 0,-0.76171874 -0.09375,-1.31250004 -0.410156,-1.80468754 -0.222657,-0.3164062 -0.6445315,-0.5976562 -1.2070315,-0.5976562 -1.6171875,0 -1.6171875,1.8984375 -1.6171875,2.40234374 0,0.50390625 0,2.36718746 1.6171875,2.36718746 1.6171875,0 1.6171875,-1.86328121 1.6171875,-2.36718746 z M 9.1005625,1.4366797 c -0.3164063,0 -0.75,-0.1875 -0.890625,-0.76171876 -0.09375,-0.41015625 -0.09375,-0.984375 -0.09375,-1.5 0,-0.50390624 0,-1.03125004 0.1054687,-1.41796874 0.1523438,-0.5507813 0.5976563,-0.6914063 0.8789063,-0.6914063 0.375,0 0.7382812,0.2226563 0.8671875,0.6328125 0.105469,0.375 0.117187,0.8789063 0.117187,1.47656254 0,0.515625 0,1.04296875 -0.093749,1.4765625 C 9.8505625,1.2843359 9.3818125,1.4366797 9.1005625,1.4366797 Z m 0,0"
         style="fill:#000000;fill-opacity:1;fill-rule:nonzero;stroke:none" />
    </g>
    <path
       id="path18"
       d="m 181.98657,46.48866 h -23.81143 m 23.81143,-7.93695 h -23.81143"
       style="fill:none;stroke:#000000;stroke-width:0.797;stroke-linecap:butt;stroke-linejoin:miter;stroke-miterlimit:10;stroke-dasharray:none;stroke-opacity:1"
       transform="matrix(1.3333333,0,0,-1.3333333,9.1066667,126.93467)" />
    <g
       id="g18"
       aria-label="C&#10;1&#10;,&#10;3"
       transform="matrix(1.3333333,0,0,1.3333333,255.484,73.101333)">
      <path
         id="path19"
         d="m 7.5705938,-6.9256094 c 0,-0.023437 -0.023437,-0.09375 -0.1054688,-0.09375 -0.035156,0 -0.046875,0.011719 -0.1523437,0.1171875 l -0.703125,0.7617188 c -0.082031,-0.140625 -0.5390625,-0.8789063 -1.6523438,-0.8789063 -2.2148437,0 -4.453125,2.203125 -4.453125,4.5117188 0,1.64062497 1.171875,2.73046872 2.6953125,2.73046872 0.8671875,0 1.6171875,-0.3984375 2.1445313,-0.85546875 0.9375,-0.82031247 1.1015625,-1.72265627 1.1015625,-1.75781247 0,-0.1054688 -0.1054688,-0.1054688 -0.1171875,-0.1054688 -0.058594,0 -0.1171875,0.023437 -0.1289063,0.1054688 -0.09375,0.2929687 -0.3164062,0.9960937 -1.0078125,1.57031247 -0.6914062,0.5625 -1.3125,0.7265625 -1.8398437,0.7265625 -0.890625,0 -1.9453125,-0.515625 -1.9453125,-2.06249997 0,-0.5742188 0.2109375,-2.1914063 1.2070312,-3.3515625 0.609375,-0.703125 1.5351563,-1.2070313 2.4257813,-1.2070313 1.0195312,0 1.6054687,0.7734375 1.6054687,1.921875 0,0.3984375 -0.035156,0.4101563 -0.035156,0.5039063 0,0.1054687 0.1171875,0.1054687 0.1523437,0.1054687 0.1289063,0 0.1289063,-0.023437 0.1757813,-0.1992187 z m 0,0"
         style="fill:#000000;fill-opacity:1;fill-rule:nonzero;stroke:none" />
      <path
         id="path20"
         d="m 9.4514531,-2.935375 c 0,-0.1875 -0.011719,-0.1992188 -0.2109375,-0.1992188 -0.4453125,0.4335938 -1.078125,0.4453125 -1.359375,0.4453125 v 0.2460938 c 0.1640625,0 0.6210938,0 1.0078125,-0.1875 v 3.55078125 c 0,0.23437495 0,0.32812495 -0.6914062,0.32812495 H 7.9280156 v 0.2460938 c 0.1289063,-0.011719 0.984375,-0.023437 1.2421875,-0.023437 0.2109375,0 1.0898439,0.011719 1.2421879,0.023437 V 1.2482187 h -0.257813 c -0.7031249,0 -0.7031249,-0.09375 -0.7031249,-0.32812495 z m 0,0"
         style="fill:#000000;fill-opacity:1;fill-rule:nonzero;stroke:none" />
      <path
         id="path21"
         d="m 13.617469,-0.01154688 c 0,-0.6328125 -0.246094,-1.04296872 -0.644531,-1.04296872 -0.351563,0 -0.527344,0.26953122 -0.527344,0.52734372 0,0.2578125 0.175781,0.527343755 0.527344,0.527343755 0.164062,0 0.28125,-0.058593755 0.375,-0.140625005 l 0.02344,-0.0234375 c 0.01172,0 0.02344,0.0117188 0.02344,0.15234375 0,0.64453125 -0.28125,1.24218748 -0.714844,1.71093748 -0.05859,0.058594 -0.07031,0.070312 -0.07031,0.1171875 0,0.070312 0.04687,0.1054688 0.09375,0.1054688 0.117188,0 0.914063,-0.7851563 0.914063,-1.93359378 z m 8.15039,-10.23339812 c 0.808594,-0.269532 1.394532,-0.972657 1.394532,-1.757813 0,-0.820312 -0.878907,-1.371094 -1.839844,-1.371094 -1.007813,0 -1.757813,0.597657 -1.757813,1.347657 0,0.339843 0.210938,0.527343 0.503907,0.527343 0.304687,0 0.503906,-0.222656 0.503906,-0.515625 0,-0.492187 -0.46875,-0.492187 -0.609375,-0.492187 0.304687,-0.492188 0.960937,-0.621094 1.324219,-0.621094 0.410156,0 0.949218,0.222656 0.949218,1.113281 0,0.128907 -0.01172,0.703125 -0.269531,1.136719 -0.304687,0.480469 -0.644531,0.515625 -0.890625,0.515625 -0.08203,0.01172 -0.316406,0.03516 -0.386719,0.03516 -0.08203,0.01172 -0.152343,0.02344 -0.152343,0.117188 0,0.117187 0.07031,0.117187 0.234375,0.117187 h 0.445312 c 0.808594,0 1.183594,0.6679692 1.183594,1.6523442 0,1.3476562 -0.691406,1.640625 -1.125,1.640625 -0.433594,0 -1.171875,-0.1757813 -1.523438,-0.7617188 0.351563,0.058594 0.65625,-0.1640625 0.65625,-0.5390625 0,-0.3632812 -0.269531,-0.5625 -0.5625,-0.5625 -0.234375,0 -0.550781,0.140625 -0.550781,0.5742188 0,0.9140625 0.925781,1.5703125 2.003906,1.5703125 1.21875,0 2.121094,-0.9140625 2.121094,-1.921875 0,-0.8203125 -0.621094,-1.5937502 -1.652344,-1.8046872 z m 0,0"
         style="fill:#000000;fill-opacity:1;fill-rule:nonzero;stroke:none" />
    </g>
    <path
       id="path22"
       d="M 0,0 H 4.981"
       style="fill:none;stroke:#000000;stroke-width:0.398;stroke-linecap:butt;stroke-linejoin:miter;stroke-miterlimit:10;stroke-dasharray:none;stroke-opacity:1"
       transform="matrix(1.3333333,0,0,-1.3333333,280.64933,69.781333)" />
    <g
       id="g22"
       aria-label="5&#10;Q&#10;0&#10;,&#10;3"
       transform="matrix(1.3333333,0,0,1.3333333,280.64933,82.213333)">
      <path
         id="path23"
         d="m 4.4758906,-2.0027734 c 0,-1.1835938 -0.8203125,-2.1796875 -1.8984375,-2.1796875 -0.4804687,0 -0.9023437,0.1640625 -1.265625,0.5039062 v -1.9335937 c 0.1992188,0.058594 0.5273438,0.1289062 0.84375,0.1289062 1.2304688,0 1.9335938,-0.9140625 1.9335938,-1.0429687 0,-0.058594 -0.035156,-0.1054688 -0.1054688,-0.1054688 -0.011719,0 -0.035156,0 -0.082031,0.023437 -0.1992188,0.09375 -0.6796875,0.2929688 -1.3476563,0.2929688 -0.3984375,0 -0.8554687,-0.070312 -1.3242187,-0.28125 -0.082031,-0.023437 -0.1054688,-0.023437 -0.1289063,-0.023437 -0.09375,0 -0.09375,0.082031 -0.09375,0.234375 v 2.953125 c 0,0.1757812 0,0.2578125 0.140625,0.2578125 0.070312,0 0.082031,-0.035156 0.1289063,-0.09375 0.1054687,-0.1523438 0.4804687,-0.6914063 1.2773437,-0.6914063 0.5273438,0 0.7734375,0.4570313 0.8554688,0.6328125 0.1523437,0.375 0.1757812,0.7617188 0.1757812,1.2539063 0,0.3515625 0,0.9492187 -0.234375,1.37109371 -0.2460937,0.38671875 -0.609375,0.64453125 -1.0664062,0.64453125 -0.7265625,0 -1.30078128,-0.52734375 -1.46484378,-1.11328126 0.0234375,0.011719 0.0585938,0.011719 0.1640625,0.011719 0.32812498,0 0.50390628,-0.2460938 0.50390628,-0.4804688 0,-0.2460937 -0.1757813,-0.4921875 -0.50390628,-0.4921875 -0.140625,0 -0.48046875,0.070312 -0.48046875,0.5273438 0,0.85546871 0.67968753,1.82812496 1.79296873,1.82812496 1.1601563,0 2.1796875,-0.9609375 2.1796873,-2.22656266 z m 0,0"
         style="fill:#000000;fill-opacity:1;fill-rule:nonzero;stroke:none" />
      <path
         id="path24"
         d="m 10.534484,-6.8924219 c 1.546875,-0.5859375 3.011719,-2.3671875 3.011719,-4.2890621 0,-1.59375 -1.054687,-2.671875 -2.542969,-2.671875 -2.1445309,0 -4.3359371,2.261718 -4.3359371,4.5820309 0,1.6523437 1.1132812,2.6601562 2.5429687,2.6601562 0.2578125,0 0.5859375,-0.046875 0.9843754,-0.1523437 -0.04687,0.6210937 -0.04687,0.6328125 -0.04687,0.7617187 0,0.328125 0,1.1015625 0.832031,1.1015625 1.183594,0 1.664062,-1.828125 1.664062,-1.9335937 0,-0.070312 -0.07031,-0.1054688 -0.117187,-0.1054688 -0.07031,0 -0.09375,0.058594 -0.117188,0.1171875 -0.234375,0.703125 -0.820312,0.9492188 -1.160156,0.9492188 -0.457031,0 -0.609375,-0.2578125 -0.714844,-1.0195313 z m -1.8749996,-0.082031 c -0.7851563,-0.3046875 -1.125,-1.0898438 -1.125,-1.9804688 0,-0.6914062 0.2695312,-2.0976563 1.0195312,-3.1757813 0.7265625,-1.019531 1.6640624,-1.476563 2.3906254,-1.476563 0.996093,0 1.722656,0.773438 1.722656,2.109375 0,0.996094 -0.503906,3.3281256 -2.179688,4.2656256 -0.04687,-0.3515625 -0.152343,-1.078125 -0.8789059,-1.078125 -0.5273437,0 -1.0078125,0.5039062 -1.0078125,1.0195312 0,0.1992188 0.058594,0.3046875 0.058594,0.3164063 z m 0.609375,0.1054687 c -0.140625,0 -0.4570313,0 -0.4570313,-0.421875 0,-0.3984375 0.3867188,-0.796875 0.796875,-0.796875 0.4218749,0 0.6093749,0.234375 0.6093749,0.84375 0,0.1523438 -0.01172,0.1640625 -0.105469,0.1992188 -0.2578121,0.1054687 -0.5624996,0.1757812 -0.8437496,0.1757812 z m 0,0"
         style="fill:#000000;fill-opacity:1;fill-rule:nonzero;stroke:none" />
      <path
         id="path25"
         d="m 17.650695,-7.56625 c 0,-0.7617188 -0.09375,-1.3125 -0.410156,-1.8046875 -0.222656,-0.3164063 -0.644531,-0.5976563 -1.207031,-0.5976563 -1.617188,0 -1.617188,1.8984375 -1.617188,2.4023438 0,0.5039062 0,2.3671875 1.617188,2.3671875 1.617187,0 1.617187,-1.8632813 1.617187,-2.3671875 z m -1.617187,2.1679687 c -0.316406,0 -0.75,-0.1875 -0.890625,-0.7617187 -0.09375,-0.4101563 -0.09375,-0.984375 -0.09375,-1.5 0,-0.5039063 0,-1.03125 0.105469,-1.4179688 0.152343,-0.5507812 0.597656,-0.6914062 0.878906,-0.6914062 0.375,0 0.738281,0.2226562 0.867187,0.6328125 0.105469,0.375 0.117188,0.8789062 0.117188,1.4765625 0,0.515625 0,1.0429687 -0.09375,1.4765625 -0.140625,0.6328125 -0.609375,0.7851562 -0.890625,0.7851562 z m 0,0"
         style="fill:#000000;fill-opacity:1;fill-rule:nonzero;stroke:none" />
      <path
         id="path26"
         d="m 20.548156,-6.8455469 c 0,-0.6328125 -0.246094,-1.0429687 -0.644531,-1.0429687 -0.351563,0 -0.527344,0.2695312 -0.527344,0.5273437 0,0.2578125 0.175781,0.5273438 0.527344,0.5273438 0.164062,0 0.28125,-0.058594 0.375,-0.140625 l 0.02344,-0.023437 c 0.01172,0 0.02344,0.011719 0.02344,0.1523437 0,0.6445313 -0.28125,1.2421875 -0.714844,1.7109375 -0.05859,0.058594 -0.07031,0.070312 -0.07031,0.1171875 0,0.070312 0.04687,0.1054688 0.09375,0.1054688 0.117187,0 0.914062,-0.7851563 0.914062,-1.9335938 z M 31.191711,-17.078945 c 0.808594,-0.269532 1.394531,-0.972657 1.394531,-1.757813 0,-0.820312 -0.878906,-1.371094 -1.839844,-1.371094 -1.007812,0 -1.757812,0.597657 -1.757812,1.347657 0,0.339843 0.210937,0.527343 0.503906,0.527343 0.304688,0 0.503906,-0.222656 0.503906,-0.515625 0,-0.492187 -0.46875,-0.492187 -0.609375,-0.492187 0.304688,-0.492188 0.960938,-0.621094 1.324219,-0.621094 0.410156,0 0.949219,0.222656 0.949219,1.113281 0,0.128907 -0.01172,0.703125 -0.269531,1.136719 -0.304688,0.480469 -0.644532,0.515625 -0.890625,0.515625 -0.08203,0.01172 -0.316407,0.03516 -0.386719,0.03516 -0.08203,0.01172 -0.152344,0.02344 -0.152344,0.117188 0,0.117187 0.07031,0.117187 0.234375,0.117187 h 0.445313 c 0.808593,0 1.183593,0.667969 1.183593,1.652344 0,1.347656 -0.691406,1.640625 -1.125,1.640625 -0.433593,0 -1.171875,-0.175781 -1.523437,-0.761719 0.351562,0.05859 0.65625,-0.164062 0.65625,-0.539062 0,-0.363281 -0.269531,-0.5625 -0.5625,-0.5625 -0.234375,0 -0.550781,0.140625 -0.550781,0.574219 0,0.914062 0.925781,1.570312 2.003906,1.570312 1.21875,0 2.121094,-0.914062 2.121094,-1.921875 0,-0.820312 -0.621094,-1.59375 -1.652344,-1.804687 z m 0,0"
         style="fill:#000000;fill-opacity:1;fill-rule:nonzero;stroke:none" />
    </g>
    <path
       id="path27"
       d="M 0,0 H 9.963"
       style="fill:none;stroke:#000000;stroke-width:0.398;stroke-linecap:butt;stroke-linejoin:miter;stroke-miterlimit:10;stroke-dasharray:none;stroke-opacity:1"
       transform="matrix(1.3333333,0,0,-1.3333333,315.05733,69.781333)" />
    <g
       id="g27"
       aria-label="10&#10;Q&#10;0"
       transform="matrix(1.3333333,0,0,1.3333333,315.05733,82.213333)">
      <path
         id="path28"
         d="m 2.9306328,-6.3738672 c 0,-0.234375 0,-0.2578125 -0.234375,-0.2578125 -0.609375,0.6328125 -1.4882812,0.6328125 -1.80468749,0.6328125 v 0.3164063 c 0.19921879,0 0.78515629,0 1.30078129,-0.2578125 v 5.15624996 c 0,0.3515625 -0.035156,0.48046875 -0.9257813,0.48046875 H 0.95016406 v 0.3046875 C 1.3017266,-0.03402344 2.1571953,-0.03402344 2.5556328,-0.03402344 c 0.3984375,0 1.265625,0 1.6171875,0.03515625 v -0.3046875 H 3.8564141 c -0.9023438,0 -0.9257813,-0.1171875 -0.9257813,-0.48046875 z m 6.6328125,3.1875 c 0,-0.796875 -0.046875,-1.59375 -0.3984375,-2.3320312 -0.4570312,-0.9609375 -1.2773437,-1.1132813 -1.6875,-1.1132813 -0.5976562,0 -1.3359375,0.2578125 -1.734375,1.1835938 -0.328125,0.6914062 -0.375,1.4648437 -0.375,2.2617187 0,0.75 0.046875,1.640625 0.4453125,2.40234376 0.4335938,0.80859375 1.1601563,1.0078125 1.6523438,1.0078125 0.5390625,0 1.2890625,-0.2109375 1.734375,-1.16015625 C 9.5165703,-1.6277734 9.5634453,-2.4012109 9.5634453,-3.1863672 Z M 7.4657891,0.00113281 c -0.3867188,0 -0.984375,-0.24609375 -1.1601563,-1.20703121 -0.1054687,-0.5976563 -0.1054687,-1.5117188 -0.1054687,-2.0976563 0,-0.6445312 0,-1.3007812 0.082031,-1.8398437 0.1875,-1.1835938 0.9257813,-1.265625 1.1835938,-1.265625 0.328125,0 0.984375,0.1757812 1.171875,1.1601562 0.09375,0.5625 0.09375,1.3125 0.09375,1.9453125 0,0.75 0,1.4179688 -0.1054688,2.0625 -0.1523437,0.93750001 -0.7148437,1.24218751 -1.160156,1.24218751 z m 0,0"
         style="fill:#000000;fill-opacity:1;fill-rule:nonzero;stroke:none" />
      <path
         id="path29"
         d="m 16.711883,-13.633633 c 1.546875,-0.585937 3.011719,-2.367187 3.011719,-4.289062 0,-1.59375 -1.054688,-2.671875 -2.542969,-2.671875 -2.144531,0 -4.335938,2.261718 -4.335938,4.582031 0,1.652344 1.113282,2.660156 2.542969,2.660156 0.257813,0 0.585938,-0.04687 0.984375,-0.152344 -0.04687,0.621094 -0.04687,0.632813 -0.04687,0.761719 0,0.328125 0,1.101563 0.832031,1.101563 1.183594,0 1.664063,-1.828125 1.664063,-1.933594 0,-0.07031 -0.07031,-0.105469 -0.117188,-0.105469 -0.07031,0 -0.09375,0.05859 -0.117187,0.117188 -0.234375,0.703125 -0.820313,0.949218 -1.160156,0.949218 -0.457032,0 -0.609375,-0.257812 -0.714844,-1.019531 z m -1.875,-0.08203 c -0.785156,-0.304688 -1.125,-1.089844 -1.125,-1.980469 0,-0.691406 0.269531,-2.097656 1.019531,-3.175781 0.726563,-1.019531 1.664063,-1.476563 2.390625,-1.476563 0.996094,0 1.722656,0.773438 1.722656,2.109375 0,0.996094 -0.503906,3.328125 -2.179687,4.265625 -0.04687,-0.351562 -0.152344,-1.078125 -0.878906,-1.078125 -0.527344,0 -1.007813,0.503907 -1.007813,1.019532 0,0.199218 0.05859,0.304687 0.05859,0.316406 z m 0.609375,0.105469 c -0.140625,0 -0.457031,0 -0.457031,-0.421875 0,-0.398438 0.386718,-0.796875 0.796875,-0.796875 0.421875,0 0.609375,0.234375 0.609375,0.84375 0,0.152343 -0.01172,0.164062 -0.105469,0.199218 -0.257813,0.105469 -0.5625,0.175782 -0.84375,0.175782 z m 0,0"
         style="fill:#000000;fill-opacity:1;fill-rule:nonzero;stroke:none" />
      <path
         id="path30"
         d="m 23.828094,-14.304531 c 0,-0.761719 -0.09375,-1.3125 -0.410156,-1.804688 -0.222657,-0.316406 -0.644532,-0.597656 -1.207032,-0.597656 -1.617187,0 -1.617187,1.898437 -1.617187,2.402344 0,0.503906 0,2.367187 1.617187,2.367187 1.617188,0 1.617188,-1.863281 1.617188,-2.367187 z m -1.617188,2.167968 c -0.316406,0 -0.75,-0.1875 -0.890625,-0.761718 -0.09375,-0.410157 -0.09375,-0.984375 -0.09375,-1.5 0,-0.503907 0,-1.03125 0.105469,-1.417969 0.152344,-0.550781 0.597656,-0.691406 0.878906,-0.691406 0.375,0 0.738282,0.222656 0.867188,0.632812 0.105469,0.375 0.117187,0.878906 0.117187,1.476563 0,0.515625 0,1.042968 -0.09375,1.476562 -0.140625,0.632813 -0.609375,0.785156 -0.890625,0.785156 z m 0,0"
         style="fill:#000000;fill-opacity:1;fill-rule:nonzero;stroke:none" />
    </g>
    <path
       id="path31"
       d="M 0,0 H 12.345"
       style="fill:none;stroke:#000000;stroke-width:0.398;stroke-linecap:butt;stroke-linejoin:miter;stroke-miterlimit:10;stroke-dasharray:none;stroke-opacity:1"
       transform="matrix(1.3333333,0,0,-1.3333333,331.528,69.781333)" />
    <g
       id="g31"
       aria-label="C&#10;0"
       transform="matrix(1.3333333,0,0,1.3333333,332.032,82.213333)">
      <path
         id="path32"
         d="m 7.56975,-6.9246484 c 0,-0.023437 -0.023437,-0.09375 -0.1054688,-0.09375 -0.035156,0 -0.046875,0.011719 -0.1523437,0.1171875 l -0.703125,0.7617187 C 6.5267812,-6.2801172 6.06975,-7.0183984 4.9564687,-7.0183984 c -2.2148437,0 -4.45312495,2.203125 -4.45312495,4.5117187 0,1.64062501 1.17187495,2.73046876 2.69531245,2.73046876 0.8671875,0 1.6171875,-0.3984375 2.1445313,-0.85546875 0.9375,-0.82031251 1.1015625,-1.72265621 1.1015625,-1.75781251 0,-0.1054687 -0.1054688,-0.1054687 -0.1171875,-0.1054687 -0.058594,0 -0.1171875,0.023437 -0.1289063,0.1054687 -0.09375,0.2929688 -0.3164062,0.9960938 -1.0078125,1.57031251 -0.6914062,0.5625 -1.3125,0.7265625 -1.8398437,0.7265625 -0.890625,0 -1.9453125,-0.515625 -1.9453125,-2.06250001 0,-0.5742187 0.2109375,-2.1914062 1.2070312,-3.3515625 0.609375,-0.703125 1.5351563,-1.2070312 2.4257813,-1.2070312 1.0195312,0 1.6054687,0.7734375 1.6054687,1.921875 0,0.3984375 -0.035156,0.4101562 -0.035156,0.5039062 0,0.1054688 0.1171875,0.1054688 0.1523437,0.1054688 0.1289063,0 0.1289063,-0.023437 0.1757813,-0.1992188 z m 0,0"
         style="fill:#000000;fill-opacity:1;fill-rule:nonzero;stroke:none" />
      <path
         id="path33"
         d="m 10.719164,-0.73128906 c 0,-0.76171874 -0.09375,-1.31250004 -0.410156,-1.80468754 -0.222656,-0.3164062 -0.6445314,-0.5976562 -1.2070314,-0.5976562 -1.6171875,0 -1.6171875,1.8984375 -1.6171875,2.40234374 0,0.50390625 0,2.36718746 1.6171875,2.36718746 1.6171874,0 1.6171874,-1.86328121 1.6171874,-2.36718746 z M 9.1019766,1.4366797 c -0.3164063,0 -0.75,-0.1875 -0.890625,-0.76171876 -0.09375,-0.41015625 -0.09375,-0.984375 -0.09375,-1.5 0,-0.50390624 0,-1.03125004 0.1054687,-1.41796874 0.1523438,-0.5507813 0.5976563,-0.6914063 0.8789063,-0.6914063 0.375,0 0.7382812,0.2226563 0.8671875,0.6328125 0.1054689,0.375 0.1171879,0.8789063 0.1171879,1.47656254 0,0.515625 0,1.04296875 -0.09375,1.4765625 C 9.8519766,1.2843359 9.3832266,1.4366797 9.1019766,1.4366797 Z m 0,0"
         style="fill:#000000;fill-opacity:1;fill-rule:nonzero;stroke:none" />
    </g>
    <path
       id="path34"
       d="m 131.5291,-11.90572 v 23.81144 m -7.93695,-23.81144 v 23.81144"
       style="fill:none;stroke:#000000;stroke-width:0.797;stroke-linecap:butt;stroke-linejoin:miter;stroke-miterlimit:10;stroke-dasharray:none;stroke-opacity:1"
       transform="matrix(1.3333333,0,0,-1.3333333,9.1066667,126.93467)" />
    <g
       id="g34"
       aria-label="C&#10;2&#10;,&#10;3"
       transform="matrix(1.3333333,0,0,1.3333333,132.13467,164.604)">
      <path
         id="path35"
         d="m 7.5689219,-6.9246797 c 0,-0.023437 -0.023437,-0.09375 -0.1054688,-0.09375 -0.035156,0 -0.046875,0.011719 -0.1523437,0.1171875 l -0.703125,0.7617188 c -0.082031,-0.140625 -0.5390625,-0.8789063 -1.6523438,-0.8789063 -2.2148437,0 -4.45312497,2.203125 -4.45312497,4.5117188 0,1.64062496 1.17187497,2.73046871 2.69531247,2.73046871 0.8671875,0 1.6171875,-0.3984375 2.1445313,-0.85546875 0.9375,-0.82031246 1.1015625,-1.72265626 1.1015625,-1.75781246 0,-0.1054688 -0.1054688,-0.1054688 -0.1171875,-0.1054688 -0.058594,0 -0.1171875,0.023437 -0.1289063,0.1054688 -0.09375,0.2929687 -0.3164062,0.9960937 -1.0078125,1.57031246 -0.6914062,0.5625 -1.3125,0.7265625 -1.8398437,0.7265625 -0.890625,0 -1.9453125,-0.515625 -1.9453125,-2.06249996 0,-0.5742188 0.2109375,-2.1914063 1.2070312,-3.3515625 0.609375,-0.703125 1.5351563,-1.2070313 2.4257813,-1.2070313 1.0195312,0 1.6054687,0.7734375 1.6054687,1.921875 0,0.3984375 -0.035156,0.4101563 -0.035156,0.5039063 0,0.1054687 0.1171875,0.1054687 0.1523437,0.1054687 0.1289063,0 0.1289063,-0.023437 0.1757813,-0.1992187 z m 0,0"
         style="fill:#000000;fill-opacity:1;fill-rule:nonzero;stroke:none" />
      <path
         id="path36"
         d="M 10.636305,0.22961719 H 10.40193 c -0.02344,0.15234375 -0.08203,0.5625 -0.175782,0.6328125 -0.05859,0.0351563 -0.5976558,0.0351563 -0.6914058,0.0351563 H 8.2456797 c 0.7382812,-0.64453125 0.984375,-0.84375 1.3945312,-1.171875 0.5156251,-0.41015625 0.9960941,-0.84374999 0.9960941,-1.49999999 0,-0.8437501 -0.7382816,-1.3593751 -1.6289066,-1.3593751 -0.8671875,0 -1.453125,0.609375 -1.453125,1.2421875 0,0.3632813 0.3046875,0.3984375 0.375,0.3984375 0.1640625,0 0.375,-0.1171875 0.375,-0.375 0,-0.1289062 -0.058594,-0.3632812 -0.421875,-0.3632812 0.2226563,-0.5039063 0.6914063,-0.65625 1.0195313,-0.65625 0.703125,0 1.0664062,0.5507812 1.0664062,1.1132813 0,0.609375 -0.4335937,1.08984374 -0.65625,1.33593749 l -1.6875,1.66406241 c -0.070312,0.058594 -0.070312,0.070312 -0.070312,0.2695313 h 2.8828131 z m 0,0"
         style="fill:#000000;fill-opacity:1;fill-rule:nonzero;stroke:none" />
      <path
         id="path37"
         d="m 13.618727,-0.01061719 c 0,-0.6328125 -0.246094,-1.04296871 -0.644532,-1.04296871 -0.351562,0 -0.527343,0.26953121 -0.527343,0.52734371 0,0.2578125 0.175781,0.52734375 0.527343,0.52734375 0.164063,0 0.28125,-0.05859375 0.375,-0.140625 l 0.02344,-0.0234375 c 0.01172,0 0.02344,0.0117188 0.02344,0.15234375 0,0.64453125 -0.28125,1.24218749 -0.714843,1.71093749 -0.05859,0.058594 -0.07031,0.070312 -0.07031,0.1171875 0,0.070312 0.04687,0.1054688 0.09375,0.1054688 0.117188,0 0.914063,-0.7851563 0.914063,-1.93359379 z m 8.15039,-10.23339881 c 0.808594,-0.269531 1.394531,-0.972656 1.394531,-1.757812 0,-0.820313 -0.878906,-1.371094 -1.839843,-1.371094 -1.007813,0 -1.757813,0.597656 -1.757813,1.347656 0,0.339844 0.210938,0.527344 0.503906,0.527344 0.304688,0 0.503907,-0.222656 0.503907,-0.515625 0,-0.492187 -0.46875,-0.492187 -0.609375,-0.492187 0.304687,-0.492188 0.960937,-0.621094 1.324218,-0.621094 0.410157,0 0.949219,0.222656 0.949219,1.113281 0,0.128906 -0.01172,0.703125 -0.269531,1.136719 -0.304688,0.480469 -0.644531,0.515625 -0.890625,0.515625 -0.08203,0.01172 -0.316406,0.03516 -0.386719,0.03516 -0.08203,0.01172 -0.152344,0.02344 -0.152344,0.117188 0,0.117187 0.07031,0.117187 0.234375,0.117187 h 0.445313 c 0.808594,0 1.183594,0.6679689 1.183594,1.6523439 0,1.3476562 -0.691407,1.640625 -1.125,1.640625 -0.433594,0 -1.171875,-0.1757813 -1.523438,-0.7617188 0.351563,0.058594 0.65625,-0.1640625 0.65625,-0.5390625 0,-0.3632812 -0.269531,-0.5625 -0.5625,-0.5625 -0.234375,0 -0.550781,0.140625 -0.550781,0.5742188 0,0.9140625 0.925781,1.5703125 2.003906,1.5703125 1.21875,0 2.121094,-0.9140625 2.121094,-1.921875 0,-0.8203125 -0.621094,-1.5937499 -1.652344,-1.8046879 z m 0,0"
         style="fill:#000000;fill-opacity:1;fill-rule:nonzero;stroke:none" />
    </g>
    <path
       id="path38"
       d="M 0,0 H 4.981"
       style="fill:none;stroke:#000000;stroke-width:0.398;stroke-linecap:butt;stroke-linejoin:miter;stroke-miterlimit:10;stroke-dasharray:none;stroke-opacity:1"
       transform="matrix(1.3333333,0,0,-1.3333333,157.3,161.284)" />
    <g
       id="g38"
       aria-label="5&#10;Q&#10;0&#10;,&#10;3"
       transform="matrix(1.3333333,0,0,1.3333333,157.3,173.716)">
      <path
         id="path39"
         d="m 4.4771484,-2.0047734 c 0,-1.1835938 -0.8203125,-2.1796875 -1.8984375,-2.1796875 -0.4804687,0 -0.9023437,0.1640625 -1.265625,0.5039062 v -1.9335937 c 0.1992188,0.058594 0.5273438,0.1289062 0.84375,0.1289062 1.2304688,0 1.9335938,-0.9140625 1.9335938,-1.0429687 0,-0.058594 -0.035156,-0.1054688 -0.1054688,-0.1054688 -0.011719,0 -0.035156,0 -0.082031,0.023437 -0.1992188,0.09375 -0.6796875,0.2929688 -1.3476563,0.2929688 -0.3984375,0 -0.8554687,-0.070312 -1.3242187,-0.28125 -0.082031,-0.023437 -0.1054688,-0.023437 -0.1289063,-0.023437 -0.09375,0 -0.09375,0.082031 -0.09375,0.234375 v 2.953125 c 0,0.1757812 0,0.2578125 0.140625,0.2578125 0.070312,0 0.082031,-0.035156 0.1289063,-0.09375 0.1054687,-0.1523438 0.4804687,-0.6914063 1.2773437,-0.6914063 0.5273438,0 0.7734375,0.4570313 0.8554688,0.6328125 0.1523437,0.375 0.1757812,0.7617188 0.1757812,1.2539063 0,0.3515625 0,0.9492187 -0.234375,1.37109371 -0.2460937,0.38671875 -0.609375,0.64453125 -1.0664062,0.64453125 -0.7265625,0 -1.30078126,-0.52734375 -1.46484376,-1.11328126 0.0234375,0.011719 0.0585938,0.011719 0.1640625,0.011719 0.32812496,0 0.50390626,-0.2460938 0.50390626,-0.4804688 0,-0.2460937 -0.1757813,-0.4921875 -0.50390626,-0.4921875 -0.140625,0 -0.48046875,0.070312 -0.48046875,0.5273438 0,0.85546871 0.67968751,1.82812496 1.79296871,1.82812496 1.1601563,0 2.1796875,-0.9609375 2.1796873,-2.22656266 z m 0,0"
         style="fill:#000000;fill-opacity:1;fill-rule:nonzero;stroke:none" />
      <path
         id="path40"
         d="m 10.535742,-6.8914922 c 1.546875,-0.5859375 3.011719,-2.3671875 3.011719,-4.2890628 0,-1.59375 -1.054688,-2.671875 -2.542969,-2.671875 -2.1445311,0 -4.3359373,2.261719 -4.3359373,4.5820316 0,1.6523437 1.1132812,2.6601562 2.5429687,2.6601562 0.2578125,0 0.5859375,-0.046875 0.9843746,-0.1523437 -0.04687,0.6210937 -0.04687,0.6328125 -0.04687,0.7617187 0,0.328125 0,1.1015625 0.832032,1.1015625 1.183593,0 1.664062,-1.828125 1.664062,-1.9335937 0,-0.070312 -0.07031,-0.1054688 -0.117187,-0.1054688 -0.07031,0 -0.09375,0.058594 -0.117188,0.1171875 -0.234375,0.703125 -0.820312,0.9492188 -1.160156,0.9492188 -0.457031,0 -0.609375,-0.2578125 -0.714844,-1.0195313 z m -1.8749998,-0.082031 c -0.7851563,-0.3046875 -1.125,-1.0898438 -1.125,-1.9804688 0,-0.6914062 0.2695312,-2.097656 1.0195312,-3.175781 0.7265625,-1.019532 1.6640626,-1.476563 2.3906246,-1.476563 0.996094,0 1.722657,0.773438 1.722657,2.109375 0,0.996094 -0.503907,3.3281253 -2.179688,4.2656253 -0.04687,-0.3515625 -0.152344,-1.078125 -0.8789061,-1.078125 -0.5273437,0 -1.0078125,0.5039062 -1.0078125,1.0195312 0,0.1992188 0.058594,0.3046875 0.058594,0.3164063 z m 0.609375,0.1054687 c -0.140625,0 -0.4570313,0 -0.4570313,-0.421875 0,-0.3984375 0.3867188,-0.796875 0.796875,-0.796875 0.4218751,0 0.6093751,0.234375 0.6093751,0.84375 0,0.1523438 -0.01172,0.1640625 -0.105469,0.1992188 -0.2578123,0.1054687 -0.5624998,0.1757812 -0.8437498,0.1757812 z m 0,0"
         style="fill:#000000;fill-opacity:1;fill-rule:nonzero;stroke:none" />
      <path
         id="path41"
         d="m 17.651953,-7.5653203 c 0,-0.7617188 -0.09375,-1.3125 -0.410156,-1.8046875 -0.222656,-0.3164063 -0.644531,-0.5976563 -1.207031,-0.5976563 -1.617188,0 -1.617188,1.8984375 -1.617188,2.4023438 0,0.5039062 0,2.3671875 1.617188,2.3671875 1.617187,0 1.617187,-1.8632813 1.617187,-2.3671875 z m -1.617187,2.1679687 c -0.316407,0 -0.75,-0.1875 -0.890625,-0.7617187 -0.09375,-0.4101563 -0.09375,-0.984375 -0.09375,-1.5 0,-0.5039063 0,-1.03125 0.105468,-1.4179688 0.152344,-0.5507812 0.597657,-0.6914062 0.878907,-0.6914062 0.375,0 0.738281,0.2226562 0.867187,0.6328125 0.105469,0.375 0.117188,0.8789062 0.117188,1.4765625 0,0.515625 0,1.0429687 -0.09375,1.4765625 -0.140625,0.6328125 -0.609375,0.7851562 -0.890625,0.7851562 z m 0,0"
         style="fill:#000000;fill-opacity:1;fill-rule:nonzero;stroke:none" />
      <path
         id="path42"
         d="m 20.549414,-6.8446172 c 0,-0.6328125 -0.246094,-1.0429687 -0.644531,-1.0429687 -0.351563,0 -0.527344,0.2695312 -0.527344,0.5273437 0,0.2578125 0.175781,0.5273438 0.527344,0.5273438 0.164062,0 0.28125,-0.058594 0.375,-0.140625 l 0.02344,-0.023437 c 0.01172,0 0.02344,0.011719 0.02344,0.1523437 0,0.6445313 -0.28125,1.2421875 -0.714844,1.7109375 -0.05859,0.058594 -0.07031,0.070312 -0.07031,0.1171875 0,0.070312 0.04687,0.1054688 0.09375,0.1054688 0.117187,0 0.914062,-0.7851563 0.914062,-1.9335938 z M 31.192969,-17.078016 c 0.808594,-0.269531 1.394531,-0.972656 1.394531,-1.757812 0,-0.820313 -0.878906,-1.371094 -1.839844,-1.371094 -1.007812,0 -1.757812,0.597656 -1.757812,1.347656 0,0.339844 0.210937,0.527344 0.503906,0.527344 0.304688,0 0.503906,-0.222656 0.503906,-0.515625 0,-0.492187 -0.46875,-0.492187 -0.609375,-0.492187 0.304688,-0.492188 0.960938,-0.621094 1.324219,-0.621094 0.410156,0 0.949219,0.222656 0.949219,1.113281 0,0.128906 -0.01172,0.703125 -0.269531,1.136719 -0.304688,0.480469 -0.644532,0.515625 -0.890625,0.515625 -0.08203,0.01172 -0.316407,0.03516 -0.386719,0.03516 -0.08203,0.01172 -0.152344,0.02344 -0.152344,0.117188 0,0.117187 0.07031,0.117187 0.234375,0.117187 h 0.445313 c 0.808593,0 1.183593,0.667969 1.183593,1.652344 0,1.347656 -0.691406,1.640625 -1.125,1.640625 -0.433593,0 -1.171875,-0.175781 -1.523437,-0.761719 0.351562,0.05859 0.65625,-0.164062 0.65625,-0.539062 0,-0.363282 -0.269531,-0.5625 -0.5625,-0.5625 -0.234375,0 -0.550781,0.140625 -0.550781,0.574218 0,0.914063 0.925781,1.570313 2.003906,1.570313 1.21875,0 2.121094,-0.914063 2.121094,-1.921875 0,-0.820313 -0.621094,-1.59375 -1.652344,-1.804688 z m 0,0"
         style="fill:#000000;fill-opacity:1;fill-rule:nonzero;stroke:none" />
    </g>
    <path
       id="path43"
       d="M 0,0 H 9.963"
       style="fill:none;stroke:#000000;stroke-width:0.398;stroke-linecap:butt;stroke-linejoin:miter;stroke-miterlimit:10;stroke-dasharray:none;stroke-opacity:1"
       transform="matrix(1.3333333,0,0,-1.3333333,191.708,161.284)" />
    <g
       id="g43"
       aria-label="30&#10;Q&#10;0"
       transform="matrix(1.3333333,0,0,1.3333333,191.708,173.716)">
      <path
         id="path44"
         d="m 2.8938047,-3.5047734 c 0.8085937,-0.2695313 1.3945312,-0.9726563 1.3945312,-1.7578125 0,-0.8203125 -0.8789062,-1.3710938 -1.8398437,-1.3710938 -1.0078125,0 -1.75781251,0.5976563 -1.75781251,1.3476563 0,0.3398437 0.2109375,0.5273437 0.50390621,0.5273437 0.3046875,0 0.5039063,-0.2226562 0.5039063,-0.515625 0,-0.4921875 -0.46875,-0.4921875 -0.609375,-0.4921875 0.3046875,-0.4921875 0.9609375,-0.6210937 1.3242187,-0.6210937 0.4101563,0 0.9492188,0.2226562 0.9492188,1.1132812 0,0.1289063 -0.011719,0.703125 -0.2695313,1.1367188 -0.3046875,0.4804687 -0.6445312,0.515625 -0.890625,0.515625 -0.082031,0.011719 -0.3164062,0.035156 -0.3867187,0.035156 -0.082031,0.011719 -0.1523438,0.023437 -0.1523438,0.1171875 0,0.1171875 0.070312,0.1171875 0.234375,0.1171875 h 0.4453125 c 0.8085938,0 1.1835938,0.6679688 1.1835938,1.6523438 0,1.34765621 -0.6914063,1.64062496 -1.125,1.64062496 -0.4335938,0 -1.171875,-0.17578125 -1.52343751,-0.76171875 0.35156251,0.0585938 0.65625001,-0.1640625 0.65625001,-0.53906251 0,-0.3632812 -0.2695313,-0.5625 -0.56250001,-0.5625 -0.234375,0 -0.55078125,0.140625 -0.55078125,0.5742188 0,0.91406246 0.92578126,1.57031246 2.00390626,1.57031246 1.21875,0 2.1210937,-0.9140625 2.1210937,-1.92187496 0,-0.8203125 -0.6210937,-1.59375 -1.6523437,-1.8046873 z m 6.6708984,0.3164062 c 0,-0.796875 -0.046875,-1.59375 -0.3984375,-2.3320312 -0.4570312,-0.9609375 -1.2773437,-1.1132813 -1.6875,-1.1132813 -0.5976562,0 -1.3359375,0.2578125 -1.734375,1.1835938 -0.328125,0.6914062 -0.375,1.4648437 -0.375,2.2617187 0,0.75 0.046875,1.640625 0.4453125,2.40234376 0.4335938,0.80859375 1.1601563,1.0078125 1.6523438,1.0078125 0.5390625,0 1.2890625,-0.2109375 1.734375,-1.16015625 C 9.5178281,-1.6297734 9.5647031,-2.4032109 9.5647031,-3.1883672 Z M 7.4670469,-8.671875e-4 c -0.3867188,0 -0.984375,-0.2460937525 -1.1601563,-1.2070312125 -0.1054687,-0.5976563 -0.1054687,-1.5117188 -0.1054687,-2.0976563 0,-0.6445312 0,-1.3007812 0.082031,-1.8398437 0.1875,-1.1835938 0.9257813,-1.265625 1.1835938,-1.265625 0.328125,0 0.984375,0.1757812 1.171875,1.1601562 0.09375,0.5625 0.09375,1.3125 0.09375,1.9453125 0,0.75 0,1.4179688 -0.1054688,2.0625 -0.1523437,0.93750001 -0.7148437,1.2421875125 -1.160156,1.2421875125 z m 0,0"
         style="fill:#000000;fill-opacity:1;fill-rule:nonzero;stroke:none" />
      <path
         id="path45"
         d="m 16.713141,-13.632703 c 1.546875,-0.585938 3.011718,-2.367188 3.011718,-4.289063 0,-1.59375 -1.054687,-2.671875 -2.542968,-2.671875 -2.144532,0 -4.335938,2.261719 -4.335938,4.582032 0,1.652343 1.113281,2.660156 2.542969,2.660156 0.257812,0 0.585937,-0.04687 0.984375,-0.152344 -0.04687,0.621094 -0.04687,0.632813 -0.04687,0.761719 0,0.328125 0,1.101562 0.832031,1.101562 1.183594,0 1.664063,-1.828125 1.664063,-1.933593 0,-0.07031 -0.07031,-0.105469 -0.117188,-0.105469 -0.07031,0 -0.09375,0.05859 -0.117187,0.117187 -0.234375,0.703125 -0.820313,0.949219 -1.160157,0.949219 -0.457031,0 -0.609375,-0.257812 -0.714843,-1.019531 z m -1.875,-0.08203 c -0.785157,-0.304688 -1.125,-1.089844 -1.125,-1.980469 0,-0.691406 0.269531,-2.097656 1.019531,-3.175781 0.726562,-1.019532 1.664062,-1.476563 2.390625,-1.476563 0.996094,0 1.722656,0.773438 1.722656,2.109375 0,0.996094 -0.503906,3.328125 -2.179687,4.265625 -0.04687,-0.351562 -0.152344,-1.078125 -0.878907,-1.078125 -0.527343,0 -1.007812,0.503906 -1.007812,1.019531 0,0.199219 0.05859,0.304688 0.05859,0.316407 z m 0.609375,0.105468 c -0.140625,0 -0.457032,0 -0.457032,-0.421875 0,-0.398437 0.386719,-0.796875 0.796875,-0.796875 0.421875,0 0.609375,0.234375 0.609375,0.84375 0,0.152344 -0.01172,0.164063 -0.105468,0.199219 -0.257813,0.105469 -0.5625,0.175781 -0.84375,0.175781 z m 0,0"
         style="fill:#000000;fill-opacity:1;fill-rule:nonzero;stroke:none" />
      <path
         id="path46"
         d="m 23.826422,-14.306531 c 0,-0.761719 -0.09375,-1.3125 -0.410156,-1.804688 -0.222657,-0.316406 -0.644532,-0.597656 -1.207032,-0.597656 -1.617187,0 -1.617187,1.898437 -1.617187,2.402344 0,0.503906 0,2.367187 1.617187,2.367187 1.617188,0 1.617188,-1.863281 1.617188,-2.367187 z m -1.617188,2.167968 c -0.316406,0 -0.75,-0.1875 -0.890625,-0.761718 -0.09375,-0.410157 -0.09375,-0.984375 -0.09375,-1.5 0,-0.503907 0,-1.03125 0.105469,-1.417969 0.152344,-0.550781 0.597656,-0.691406 0.878906,-0.691406 0.375,0 0.738282,0.222656 0.867188,0.632812 0.105469,0.375 0.117187,0.878906 0.117187,1.476563 0,0.515625 0,1.042968 -0.09375,1.476562 -0.140625,0.632813 -0.609375,0.785156 -0.890625,0.785156 z m 0,0"
         style="fill:#000000;fill-opacity:1;fill-rule:nonzero;stroke:none" />
    </g>
    <path
       id="path47"
       d="M 0,0 H 12.345"
       style="fill:none;stroke:#000000;stroke-width:0.398;stroke-linecap:butt;stroke-linejoin:miter;stroke-miterlimit:10;stroke-dasharray:none;stroke-opacity:1"
       transform="matrix(1.3333333,0,0,-1.3333333,208.18,161.284)" />
    <g
       id="g47"
       aria-label="C&#10;0"
       transform="matrix(1.3333333,0,0,1.3333333,208.684,173.716)">
      <path
         id="path48"
         d="m 7.5700078,-6.9266484 c 0,-0.023437 -0.023437,-0.09375 -0.1054687,-0.09375 -0.035156,0 -0.046875,0.011719 -0.1523438,0.1171875 l -0.703125,0.7617187 c -0.082031,-0.140625 -0.5390625,-0.8789062 -1.6523437,-0.8789062 -2.2148438,0 -4.45312504,2.203125 -4.45312504,4.5117187 0,1.64062501 1.17187504,2.73046876 2.69531254,2.73046876 0.8671875,0 1.6171875,-0.3984375 2.1445312,-0.85546875 0.9375,-0.82031251 1.1015625,-1.72265621 1.1015625,-1.75781251 0,-0.1054687 -0.1054687,-0.1054687 -0.1171875,-0.1054687 -0.058594,0 -0.1171875,0.023437 -0.1289062,0.1054687 -0.09375,0.2929688 -0.3164063,0.9960938 -1.0078125,1.57031251 -0.6914063,0.5625 -1.3125,0.7265625 -1.8398438,0.7265625 -0.890625,0 -1.9453125,-0.515625 -1.9453125,-2.06250001 0,-0.5742187 0.2109375,-2.1914062 1.2070313,-3.3515625 0.609375,-0.703125 1.5351562,-1.2070312 2.4257812,-1.2070312 1.0195313,0 1.6054688,0.7734375 1.6054688,1.921875 0,0.3984375 -0.035156,0.4101562 -0.035156,0.5039062 0,0.1054688 0.1171875,0.1054688 0.1523438,0.1054688 0.1289062,0 0.1289062,-0.023437 0.1757812,-0.1992188 z m 0,0"
         style="fill:#000000;fill-opacity:1;fill-rule:nonzero;stroke:none" />
      <path
         id="path49"
         d="m 10.716492,-0.73035938 c 0,-0.76171872 -0.09375,-1.31250002 -0.410156,-1.80468752 -0.222656,-0.3164062 -0.6445313,-0.5976562 -1.2070313,-0.5976562 -1.6171875,0 -1.6171875,1.8984375 -1.6171875,2.40234372 0,0.50390625 0,2.36718748 1.6171875,2.36718748 1.6171873,0 1.6171873,-1.86328123 1.6171873,-2.36718748 z M 9.0993047,1.4376094 c -0.3164063,0 -0.75,-0.1875 -0.890625,-0.76171878 -0.09375,-0.41015625 -0.09375,-0.984375 -0.09375,-1.5 0,-0.50390622 0,-1.03125002 0.1054687,-1.41796872 0.1523438,-0.5507813 0.5976563,-0.6914063 0.8789063,-0.6914063 0.375,0 0.7382812,0.2226563 0.8671875,0.6328125 0.1054688,0.375 0.1171878,0.8789063 0.1171878,1.47656252 0,0.515625 0,1.04296875 -0.09375,1.4765625 C 9.8493047,1.2852656 9.3805547,1.4376094 9.0993047,1.4376094 Z m 0,0"
         style="fill:#000000;fill-opacity:1;fill-rule:nonzero;stroke:none" />
    </g>
  </g>
</svg>
