<?xml version="1.0" encoding="UTF-8" standalone="no"?>
<!-- Created with Inkscape (http://www.inkscape.org/) -->

<svg
   version="1.1"
   id="svg1"
   width="152.24567"
   height="152.24567"
   viewBox="0 0 152.24567 152.24567"
   xmlns="http://www.w3.org/2000/svg"
   xmlns:svg="http://www.w3.org/2000/svg">
  <defs
     id="defs1">
    <linearGradient
       x1="0"
       y1="0"
       x2="0"
       y2="100.00128"
       gradientUnits="userSpaceOnUse"
       id="linearGradient5">
      <stop
         style="stop-opacity:1;stop-color:#f8c4c8"
         offset="0"
         id="stop1" />
      <stop
         style="stop-opacity:1;stop-color:#f8c4c8"
         offset="0.25"
         id="stop2" />
      <stop
         style="stop-opacity:1;stop-color:#fdebec"
         offset="0.5"
         id="stop3" />
      <stop
         style="stop-opacity:1;stop-color:#f8c4c8"
         offset="0.75"
         id="stop4" />
      <stop
         style="stop-opacity:1;stop-color:#f8c4c8"
         offset="1"
         id="stop5" />
    </linearGradient>
    <clipPath
       clipPathUnits="userSpaceOnUse"
       id="clipPath6">
      <path
         d="m 14.34584,89.405333 c 0,41.748557 33.842933,75.591497 75.591493,75.591497 41.748557,0 75.591497,-33.84294 75.591497,-75.591497 h -37.79576 c 0,20.874267 -16.92147,37.795737 -37.795737,37.795737 -20.874266,0 -37.795733,-16.92147 -37.795733,-37.795737 z"
         id="path6" />
    </clipPath>
  </defs>
  <g
     id="g1"
     transform="translate(-13.814502,-13.282501)">
    <path
       id="path1"
       d="m -56.69362,0 c 0,-31.31142 25.3822,-56.69362 56.69362,-56.69362 31.31142,0 56.69362,25.3822 56.69362,56.69362 H 28.3468 c 0,-15.6557 -12.6911,-28.3468 -28.3468,-28.3468 -15.6557,0 -28.3468,12.6911 -28.3468,28.3468 z"
       style="fill:#f8c4c8;fill-opacity:1;fill-rule:nonzero;stroke:none"
       transform="matrix(1.3333333,0,0,-1.3333333,89.937333,89.405333)" />
    <g
       id="g5"
       clip-path="url(#clipPath6)">
      <path
         d="M 0,0 H 100 V 100 H 0 Z"
         transform="matrix(2.1260459,-1.2274667,-1.0261733,-1.7773938,34.943704,277.44409)"
         style="fill:url(#linearGradient5);stroke:none"
         id="path5" />
    </g>
    <path
       id="path7"
       d="M 28.3468,0 C 28.3468,15.6557 15.6557,28.3468 0,28.3468 -15.6557,28.3468 -28.3468,15.6557 -28.3468,0 c 0,-15.6557 12.6911,-28.3468 28.3468,-28.3468 15.6557,0 28.3468,12.6911 28.3468,28.3468 z"
       style="fill:none;stroke:#000000;stroke-width:0.79701;stroke-linecap:butt;stroke-linejoin:miter;stroke-miterlimit:10;stroke-dasharray:none;stroke-opacity:1"
       transform="matrix(1.3333333,0,0,-1.3333333,89.937333,89.405333)" />
    <path
       id="path8"
       d="m 56.69362,0 c 0,31.31142 -25.3822,56.69362 -56.69362,56.69362 -31.31142,0 -56.69362,-25.3822 -56.69362,-56.69362 0,-31.31142 25.3822,-56.69362 56.69362,-56.69362 31.31142,0 56.69362,25.3822 56.69362,56.69362 z"
       style="fill:none;stroke:#000000;stroke-width:0.79701;stroke-linecap:butt;stroke-linejoin:miter;stroke-miterlimit:10;stroke-dasharray:none;stroke-opacity:1"
       transform="matrix(1.3333333,0,0,-1.3333333,89.937333,89.405333)" />
    <path
       id="path9"
       d="M -56.69362,0 H -28.3468"
       style="fill:none;stroke:#000000;stroke-width:1.59404;stroke-linecap:butt;stroke-linejoin:miter;stroke-miterlimit:10;stroke-dasharray:none;stroke-opacity:1"
       transform="matrix(1.3333333,0,0,-1.3333333,89.937333,89.405333)" />
    <path
       id="path10"
       d="M 28.3468,0 H 56.69362"
       style="fill:none;stroke:#000000;stroke-width:1.59404;stroke-linecap:butt;stroke-linejoin:miter;stroke-miterlimit:10;stroke-dasharray:none;stroke-opacity:1"
       transform="matrix(1.3333333,0,0,-1.3333333,89.937333,89.405333)" />
    <path
       id="path11"
       d="m 6.1872344,-5.8231172 c 0.140625,-0.375 0.4101562,-0.65625 1.0898437,-0.6679687 v -0.3164063 c -0.3164062,0.023437 -0.7148437,0.035156 -0.9726562,0.035156 -0.2929688,0 -0.8789063,-0.023437 -1.1367188,-0.035156 v 0.3164063 c 0.515625,0.011719 0.7265625,0.2695312 0.7265625,0.4921875 0,0.082031 -0.023437,0.140625 -0.046875,0.1992187 L 4.0192656,-0.99499219 2.1208281,-6.0223359 c -0.058594,-0.140625 -0.058594,-0.1640625 -0.058594,-0.1875 0,-0.28125 0.5625,-0.28125 0.8203125,-0.28125 v -0.3164063 c -0.3632813,0.035156 -1.0546875,0.035156 -1.4296875,0.035156 -0.48046877,0 -0.90234377,-0.023437 -1.26562502,-0.035156 v 0.3164063 c 0.64453125,0 0.84375002,0 0.97265622,0.375 l 2.3203125,6.11718746 c 0.070312,0.1875 0.1171875,0.22265625 0.2460938,0.22265625 0.1640625,0 0.1875,-0.0585938 0.234375,-0.1875 z m 3.7734375,5.06250001 c 0.035156,0.3984375 0.3046871,0.8203125 0.7734371,0.8203125 0.210938,0 0.820313,-0.140625 0.820313,-0.94921875 V -1.4403047 h -0.246094 v 0.55078126 c 0,0.5859375 -0.246094,0.64453125 -0.363281,0.64453125 -0.328125,0 -0.363281,-0.45703125 -0.363281,-0.50390625 V -2.7410859 c 0,-0.4101563 0,-0.8085938 -0.363282,-1.171875 -0.3867184,-0.3867188 -0.8789059,-0.5507813 -1.3593746,-0.5507813 -0.8203125,0 -1.5117188,0.46875 -1.5117188,1.125 0,0.3046875 0.1992188,0.46875 0.4570313,0.46875 0.28125,0 0.46875,-0.1992187 0.46875,-0.4570312 0,-0.1171875 -0.058594,-0.4453125 -0.515625,-0.4570313 0.2695312,-0.3515625 0.7617187,-0.4570312 1.078125,-0.4570312 0.4921875,0 1.0546875,0.3867187 1.0546875,1.2773437 v 0.3632813 c -0.5039063,0.035156 -1.2070313,0.058594 -1.828125,0.3632812 -0.75,0.3398438 -0.9960938,0.8554688 -0.9960938,1.28906251 0,0.80859375 0.9609375,1.0546875 1.59375,1.0546875 0.65625,0 1.1132813,-0.3984375 1.3007813,-0.8671875 z M 9.8903594,-2.3895234 v 0.9960937 c 0,0.94921876 -0.7148438,1.28906251 -1.1601563,1.28906251 -0.4921875,0 -0.9023437,-0.3515625 -0.9023437,-0.85546875 0,-0.53906246 0.421875,-1.37109376 2.0625,-1.42968746 z m 2.8974606,0.2226562 c 0,-1.6289062 0.820313,-2.0507812 1.347657,-2.0507812 0.09375,0 0.714843,0.011719 1.066406,0.375 -0.410156,0.023437 -0.46875,0.328125 -0.46875,0.4570312 0,0.2578125 0.1875,0.4570313 0.457031,0.4570313 0.257813,0 0.457031,-0.1640625 0.457031,-0.46875 0,-0.6796875 -0.75,-1.0664063 -1.523437,-1.0664063 -1.242188,0 -2.15625,1.078125 -2.15625,2.3085938 0,1.27734371 0.984375,2.26171871 2.144531,2.26171871 1.335938,0 1.652344,-1.19531251 1.652344,-1.28906251 0,-0.1054687 -0.105469,-0.1054687 -0.128906,-0.1054687 -0.09375,0 -0.117188,0.046875 -0.128907,0.1054687 -0.292968,0.92578126 -0.9375,1.04296876 -1.3125,1.04296876 -0.527343,0 -1.40625,-0.421875 -1.40625,-2.02734376 z m 5.897461,-4.125 c 0.08203,-0.070312 0.164063,-0.1875 0.164063,-0.3046875 0,-0.1757812 -0.175781,-0.3515625 -0.351563,-0.3515625 -0.152343,0 -0.257812,0.1054688 -0.304687,0.1640625 l -1.195313,1.5234375 0.175782,0.1757813 z m -0.873047,1.8867188 -1.394531,0.1171875 v 0.3046875 c 0.65625,0 0.738281,0.058594 0.738281,0.5507812 v 2.67187501 c 0,0.45703125 -0.105468,0.45703125 -0.773437,0.45703125 v 0.3046875 c 0.316406,-0.01171875 0.855469,-0.03515625 1.101562,-0.03515625 0.339844,0 0.691407,0.0234375 1.03125,0.03515625 v -0.3046875 c -0.65625,0 -0.703125,-0.0585938 -0.703125,-0.4453125 z m 5.695313,2.2734375 c 0,-1.2773438 -0.996094,-2.3320313 -2.191406,-2.3320313 -1.253907,0 -2.214844,1.0898438 -2.214844,2.3320313 0,1.28906246 1.03125,2.23828121 2.203125,2.23828121 1.207031,0 2.203125,-0.97265625 2.203125,-2.23828121 z m -2.191406,1.99218746 c -0.433594,0 -0.867188,-0.2109375 -1.136719,-0.66796875 -0.257813,-0.43359371 -0.257813,-1.04296871 -0.257813,-1.40625001 0,-0.3867187 0,-0.9257812 0.246094,-1.359375 0.269531,-0.4570312 0.738281,-0.6679687 1.136719,-0.6679687 0.433594,0 0.867187,0.2226562 1.125,0.6445312 0.257812,0.4335938 0.257812,1.0078125 0.257812,1.3828125 0,0.3632813 0,0.9023438 -0.222656,1.33593751 -0.222656,0.4453125 -0.65625,0.73828125 -1.148437,0.73828125 z m 0,0"
       style="fill:#000000;fill-opacity:1;fill-rule:nonzero;stroke:none"
       aria-label="Vac´ıo"
       transform="matrix(1.3333333,0,0,1.3333333,74.070667,41.104)" />
    <g
       id="g11"
       aria-label="Diel´ectricoK"
       transform="matrix(1.3333333,0,0,1.3333333,50.685333,146.93067)">
      <path
         id="path12"
         d="m 0.35025781,-6.8093281 v 0.3164062 h 0.234375 c 0.77343749,0 0.78515629,0.1054688 0.78515629,0.46875 v 5.25000002 c 0,0.3515625 -0.011719,0.46875 -0.78515629,0.46875 h -0.234375 V -7.34375e-4 H 3.9947891 c 1.6757812,0 3.046875,-1.476562525 3.046875,-3.351562525 0,-1.8867187 -1.3476563,-3.4570312 -3.046875,-3.4570312 z m 2.36718749,6.50390622 c -0.46875,0 -0.4921875,-0.0703125 -0.4921875,-0.3984375 V -6.0944844 c 0,-0.328125 0.023437,-0.3984375 0.4921875,-0.3984375 h 0.9960938 c 0.6210937,0 1.3007812,0.2109375 1.8164062,0.9257813 0.421875,0.5859375 0.515625,1.4414062 0.515625,2.2148437 0,1.1132813 -0.1875,1.7109375 -0.5507812,2.1914063 -0.1992188,0.26953122 -0.7617188,0.85546872 -1.7695313,0.85546872 z M 9.3678359,-4.4069844 7.9733047,-4.2897969 v 0.3046875 c 0.65625,0 0.7382812,0.058594 0.7382812,0.5507813 v 2.67187497 c 0,0.45703125 -0.1054687,0.45703125 -0.7734375,0.45703125 V -7.34375e-4 C 8.2545547,-0.01245313 8.7936172,-0.03589063 9.0397109,-0.03589063 c 0.3398438,0 0.6914063,0.0234375 1.0312501,0.035156255 V -0.30542188 c -0.6562501,0 -0.7031251,-0.0585938 -0.7031251,-0.4453125 z m 0.046875,-1.734375 c 0,-0.3164062 -0.2460937,-0.5273437 -0.5273437,-0.5273437 -0.3164063,0 -0.5273438,0.2695312 -0.5273438,0.5273437 0,0.2695313 0.2109375,0.5273438 0.5273438,0.5273438 0.28125,0 0.5273437,-0.1992188 0.5273437,-0.5273438 z m 2.0771481,3.6328125 c 0.05859,-1.4882812 0.902344,-1.734375 1.242188,-1.734375 1.019531,0 1.125,1.3476563 1.125,1.734375 z m -0.01172,0.2109375 h 2.789062 c 0.210938,0 0.246094,0 0.246094,-0.2109375 0,-0.984375 -0.539063,-1.9570312 -1.78125,-1.9570312 -1.160156,0 -2.074219,1.03125 -2.074219,2.2734375 0,1.33593747 1.042969,2.29687497 2.191406,2.29687497 1.21875,0 1.664063,-1.1015625 1.664063,-1.28906247 0,-0.1054688 -0.08203,-0.1171875 -0.128906,-0.1171875 -0.09375,0 -0.117188,0.058594 -0.128907,0.140625 -0.351562,1.01953122 -1.253906,1.01953122 -1.347656,1.01953122 -0.503906,0 -0.902344,-0.29296875 -1.125,-0.66796875 C 11.480141,-1.2897969 11.480141,-1.9460469 11.480141,-2.2976094 Z m 5.083007,-4.6171875 -1.429687,0.1054688 v 0.3164062 c 0.703125,0 0.773437,0.070312 0.773437,0.5507813 v 5.17968747 c 0,0.45703125 -0.105468,0.45703125 -0.773437,0.45703125 v 0.304687505 c 0.328125,-0.011718755 0.855469,-0.035156255 1.101562,-0.035156255 0.257813,0 0.738282,0.0234375 1.113282,0.035156255 V -0.30542188 c -0.667969,0 -0.785157,0 -0.785157,-0.45703125 z m 4.467774,0.6210938 c 0.08203,-0.070312 0.164062,-0.1875 0.164062,-0.3046875 0,-0.1757813 -0.175781,-0.3515625 -0.351562,-0.3515625 -0.152344,0 -0.257813,0.1054687 -0.304688,0.1640625 l -1.195312,1.5234375 0.175781,0.1757812 z m -2.34375,3.7851562 c 0.05859,-1.4882812 0.902344,-1.734375 1.242187,-1.734375 1.019532,0 1.125,1.3476563 1.125,1.734375 z m -0.01172,0.2109375 h 2.789063 c 0.210937,0 0.246093,0 0.246093,-0.2109375 0,-0.984375 -0.539062,-1.9570312 -1.78125,-1.9570312 -1.160156,0 -2.074218,1.03125 -2.074218,2.2734375 0,1.33593747 1.042968,2.29687497 2.191406,2.29687497 1.21875,0 1.664062,-1.1015625 1.664062,-1.28906247 0,-0.1054688 -0.08203,-0.1171875 -0.128906,-0.1171875 -0.09375,0 -0.117187,0.058594 -0.128906,0.140625 -0.351563,1.01953122 -1.253906,1.01953122 -1.347656,1.01953122 -0.503907,0 -0.902344,-0.29296875 -1.125,-0.66796875 C 18.675453,-1.2897969 18.675453,-1.9460469 18.675453,-2.2976094 Z m 4.485352,0.1289063 c 0,-1.6289063 0.820312,-2.0507813 1.347656,-2.0507813 0.09375,0 0.714844,0.011719 1.066406,0.375 -0.410156,0.023437 -0.46875,0.328125 -0.46875,0.4570313 0,0.2578125 0.1875,0.4570312 0.457031,0.4570312 0.257813,0 0.457032,-0.1640625 0.457032,-0.46875 0,-0.6796875 -0.75,-1.0664062 -1.523438,-1.0664062 -1.242187,0 -2.15625,1.078125 -2.15625,2.3085937 0,1.27734377 0.984375,2.26171877 2.144531,2.26171877 1.335938,0 1.652344,-1.19531247 1.652344,-1.28906247 0,-0.1054688 -0.105469,-0.1054688 -0.128906,-0.1054688 -0.09375,0 -0.117188,0.046875 -0.128906,0.1054688 -0.292969,0.92578122 -0.9375,1.04296872 -1.3125,1.04296872 -0.527344,0 -1.40625,-0.421875 -1.40625,-2.02734372 z m 4.989258,-1.8164063 h 1.429687 V -4.2897969 H 28.15006 v -1.8398437 h -0.246094 c -0.01172,0.8203125 -0.316406,1.8867187 -1.289063,1.921875 v 0.2226562 h 0.84375 v 2.7539063 c 0,1.21874997 0.925782,1.33593747 1.289063,1.33593747 0.703125,0 0.984375,-0.703125 0.984375,-1.33593747 V -1.8054219 H 29.486 v 0.5507813 c 0,0.73828122 -0.304687,1.11328122 -0.667969,1.11328122 -0.667968,0 -0.667968,-0.90234372 -0.667968,-1.07812502 z m 3.817382,0.6796875 v -1.1015625 l -1.382812,0.1171875 v 0.3046875 c 0.691406,0 0.773437,0.070312 0.773437,0.5625 v 2.66015627 c 0,0.45703125 -0.105468,0.45703125 -0.773437,0.45703125 v 0.304687505 c 0.386719,-0.011718755 0.855469,-0.035156255 1.136719,-0.035156255 0.398437,0 0.867187,0 1.265625,0.035156255 V -0.30542188 h -0.210938 c -0.738281,0 -0.761719,-0.1171875 -0.761719,-0.46875 V -2.3093281 c 0,-0.984375 0.421875,-1.875 1.183594,-1.875 0.05859,0 0.08203,0 0.105469,0.011719 -0.03516,0.011719 -0.234375,0.1289063 -0.234375,0.3867188 0,0.28125 0.210937,0.4335937 0.433594,0.4335937 0.175781,0 0.421875,-0.1289062 0.421875,-0.4453125 0,-0.3164062 -0.304688,-0.609375 -0.726563,-0.609375 -0.738281,0 -1.089844,0.6679688 -1.230469,1.1015622 z m 3.996094,-1.1015625 -1.394531,0.1171875 v 0.3046875 c 0.65625,0 0.738281,0.058594 0.738281,0.5507813 v 2.67187497 c 0,0.45703125 -0.105469,0.45703125 -0.773437,0.45703125 v 0.304687505 c 0.316406,-0.011718755 0.855468,-0.035156255 1.101562,-0.035156255 0.339844,0 0.691406,0.0234375 1.03125,0.035156255 V -0.30542188 c -0.65625,0 -0.703125,-0.0585938 -0.703125,-0.4453125 z m 0.04687,-1.734375 c 0,-0.3164062 -0.246094,-0.5273437 -0.527344,-0.5273437 -0.316406,0 -0.527343,0.2695312 -0.527343,0.5273437 0,0.2695313 0.210937,0.5273438 0.527343,0.5273438 0.28125,0 0.527344,-0.1992188 0.527344,-0.5273438 z m 2.121094,3.9726563 c 0,-1.6289063 0.820312,-2.0507813 1.347656,-2.0507813 0.09375,0 0.714844,0.011719 1.066406,0.375 -0.410156,0.023437 -0.46875,0.328125 -0.46875,0.4570313 0,0.2578125 0.1875,0.4570312 0.457032,0.4570312 0.257812,0 0.457031,-0.1640625 0.457031,-0.46875 0,-0.6796875 -0.75,-1.0664062 -1.523438,-1.0664062 -1.242187,0 -2.15625,1.078125 -2.15625,2.3085937 0,1.27734377 0.984375,2.26171877 2.144532,2.26171877 1.335937,0 1.652343,-1.19531247 1.652343,-1.28906247 0,-0.1054688 -0.105468,-0.1054688 -0.128906,-0.1054688 -0.09375,0 -0.117187,0.046875 -0.128906,0.1054688 -0.292969,0.92578122 -0.9375,1.04296872 -1.3125,1.04296872 -0.527344,0 -1.40625,-0.421875 -1.40625,-2.02734372 z m 7.957031,0.035156 c 0,-1.2773437 -0.996094,-2.3320312 -2.191406,-2.3320312 -1.253906,0 -2.214844,1.0898437 -2.214844,2.3320312 0,1.28906252 1.03125,2.23828127 2.203125,2.23828127 1.207031,0 2.203125,-0.97265625 2.203125,-2.23828127 z m -2.191406,1.99218752 c -0.433594,0 -0.867188,-0.2109375 -1.136719,-0.66796875 -0.257812,-0.43359377 -0.257812,-1.04296877 -0.257812,-1.40624997 0,-0.3867188 0,-0.9257813 0.246093,-1.359375 0.269532,-0.4570313 0.738282,-0.6679688 1.136719,-0.6679688 0.433594,0 0.867188,0.2226563 1.125,0.6445313 0.257813,0.4335937 0.257813,1.0078125 0.257813,1.3828125 0,0.3632812 0,0.9023437 -0.222657,1.33593747 -0.222656,0.4453125 -0.65625,0.73828125 -1.148437,0.73828125 z m 0,0"
         style="fill:#000000;fill-opacity:1;fill-rule:nonzero;stroke:none" />
      <path
         id="path13"
         d="m 54.777992,-4.0202656 c -0.01172,-0.035156 -0.05859,-0.1171875 -0.05859,-0.140625 0,-0.011719 0.1875,-0.1523438 0.292969,-0.234375 l 1.746094,-1.3476563 c 0.9375,-0.6796875 1.324219,-0.7265625 1.617187,-0.75 0.08203,-0.011719 0.1875,-0.023437 0.1875,-0.1992187 0,-0.046875 -0.03516,-0.1171875 -0.117187,-0.1171875 -0.210938,0 -0.46875,0.035156 -0.703125,0.035156 -0.363281,0 -0.75,-0.035156 -1.101563,-0.035156 -0.07031,0 -0.199218,0 -0.199218,0.1992187 0,0.070312 0.05859,0.1054688 0.128906,0.1171875 0.210937,0.011719 0.304687,0.070312 0.304687,0.2109375 0,0.1757813 -0.292968,0.3984375 -0.363281,0.4570313 l -3.878906,2.9882812 0.796875,-3.1992187 c 0.09375,-0.3632813 0.105469,-0.4570313 0.832031,-0.4570313 0.257813,0 0.339844,0 0.339844,-0.1992187 0,-0.09375 -0.08203,-0.1171875 -0.140625,-0.1171875 -0.269531,0 -0.996094,0.035156 -1.265625,0.035156 -0.292969,0 -0.996094,-0.035156 -1.289063,-0.035156 -0.07031,0 -0.199218,0 -0.199218,0.1992187 0,0.1171875 0.09375,0.1171875 0.292968,0.1171875 0.128907,0 0.304688,0.011719 0.421875,0.011719 0.164063,0.023437 0.222657,0.058594 0.222657,0.1640625 0,0.035156 -0.01172,0.070312 -0.04687,0.1875 l -1.335938,5.35546872 c -0.09375,0.38671875 -0.117187,0.46875 -0.902344,0.46875 -0.164062,0 -0.28125,0 -0.28125,0.1875 0,0.117187505 0.128907,0.117187505 0.152344,0.117187505 0.28125,0 0.984375,-0.035156255 1.265625,-0.035156255 0.210938,0 0.433594,0.01171875 0.632813,0.01171875 0.222656,0 0.445312,0.023437505 0.65625,0.023437505 0.07031,0 0.199218,0 0.199218,-0.199218755 0,-0.10546875 -0.09375,-0.10546875 -0.28125,-0.10546875 -0.375,0 -0.644531,0 -0.644531,-0.1875 0,-0.0703125 0.05859,-0.28125 0.08203,-0.43359375 0.140625,-0.51562497 0.269532,-1.04296877 0.398438,-1.57031247 l 1.488281,-1.1484375 1.160156,2.68359372 c 0.117188,0.2578125 0.117188,0.28125 0.117188,0.33984375 0,0.3046875 -0.433594,0.31640625 -0.515625,0.31640625 -0.117188,0 -0.222656,0 -0.222656,0.19921875 0,0.105468755 0.117187,0.105468755 0.140625,0.105468755 0.398437,0 0.808593,-0.035156255 1.207031,-0.035156255 0.222656,0 0.761719,0.035156255 0.984375,0.035156255 0.04687,0 0.175781,0 0.175781,-0.199218755 0,-0.10546875 -0.105469,-0.10546875 -0.199219,-0.10546875 -0.410156,-0.0117188 -0.539062,-0.10546875 -0.691406,-0.45703125 z m 0,0"
         style="fill:#000000;fill-opacity:1;fill-rule:nonzero;stroke:none" />
    </g>
    <path
       id="path14"
       d="M 0.99628,0 C 0.99628,0.55023 0.55023,0.99628 0,0.99628 -0.55023,0.99628 -0.99628,0.55023 -0.99628,0 c 0,-0.55023 0.44605,-0.99628 0.99628,-0.99628 0.55023,0 0.99628,0.44605 0.99628,0.99628 z"
       style="fill:#000000;fill-opacity:1;fill-rule:nonzero;stroke:#000000;stroke-width:0.3985;stroke-linecap:butt;stroke-linejoin:miter;stroke-miterlimit:10;stroke-dasharray:none;stroke-opacity:1"
       transform="matrix(1.3333333,0,0,-1.3333333,89.937333,89.405333)" />
    <path
       id="path15"
       d="M 0,0 24.5491,14.17339"
       style="fill:none;stroke:#000000;stroke-width:0.3985;stroke-linecap:butt;stroke-linejoin:miter;stroke-miterlimit:10;stroke-dasharray:2.98883, 2.98883;stroke-dashoffset:0;stroke-opacity:1"
       transform="matrix(1.3333333,0,0,-1.3333333,89.937333,89.405333)" />
    <path
       id="path16"
       d="M 3.7163047,-3.7604687 C 3.5405234,-4.1354687 3.2475547,-4.405 2.8022422,-4.405 c -1.171875,0 -2.40234376,1.4648438 -2.40234376,2.9179688 0,0.93749995 0.55078125,1.59374995 1.32421876,1.59374995 0.1992187,0 0.703125,-0.03515625 1.3007812,-0.73828125 0.070312,0.41015625 0.421875,0.73828125 0.9023438,0.73828125 0.3515625,0 0.5742187,-0.22265625 0.7382812,-0.5390625 C 4.8295859,-0.795625 4.9584922,-1.405 4.9584922,-1.4284375 c 0,-0.09375 -0.082031,-0.09375 -0.1171875,-0.09375 -0.09375,0 -0.1054688,0.035156 -0.140625,0.1757813 -0.1640625,0.6445312 -0.3515625,1.24218745 -0.75,1.24218745 -0.2695313,0 -0.3046875,-0.2578125 -0.3046875,-0.45703125 0,-0.22265625 0.023437,-0.3046875 0.1289062,-0.7382812 0.1171875,-0.421875 0.1289063,-0.5273438 0.2226563,-0.9023438 l 0.3515625,-1.3945312 c 0.070312,-0.28125 0.070312,-0.2929688 0.070312,-0.3398438 0,-0.1640625 -0.1171875,-0.2695312 -0.28125,-0.2695312 -0.2460938,0 -0.3867188,0.2226562 -0.4218745,0.4453125 z m -0.6445313,2.578125 c -0.046875,0.1757812 -0.046875,0.1992187 -0.1992187,0.3632812 -0.4453125,0.55078125 -0.84375,0.71484375 -1.125,0.71484375 -0.5039063,0 -0.6445313,-0.55078125 -0.6445313,-0.93749995 0,-0.5039063 0.328125,-1.7226563 0.5507813,-2.1796875 0.3046875,-0.5976563 0.7617187,-0.9609375 1.1601562,-0.9609375 0.6445313,0 0.7851563,0.8203125 0.7851563,0.8789062 0,0.058594 -0.023437,0.1171875 -0.035156,0.1640625 z m 0,0"
       style="fill:#000000;fill-opacity:1;fill-rule:nonzero;stroke:none"
       aria-label="a"
       transform="matrix(1.3333333,0,0,1.3333333,97.861333,73.373333)" />
    <path
       id="path17"
       d="M 0,0 -43.4294,36.44217"
       style="fill:none;stroke:#000000;stroke-width:0.3985;stroke-linecap:butt;stroke-linejoin:miter;stroke-miterlimit:10;stroke-dasharray:2.98883, 2.98883;stroke-dashoffset:0;stroke-opacity:1"
       transform="matrix(1.3333333,0,0,-1.3333333,89.937333,89.405333)" />
    <path
       id="path18"
       d="m 2.3777656,-6.8072187 c 0,0 0,-0.1054688 -0.1289062,-0.1054688 -0.2226563,0 -0.9492188,0.082031 -1.21875,0.1054688 -0.0703125,0 -0.18750002,0.011719 -0.18750002,0.1992187 0,0.1171875 0.09375,0.1171875 0.24609372,0.1171875 0.46875,0 0.4921875,0.070312 0.4921875,0.1640625 0,0.070312 -0.082031,0.4101563 -0.140625,0.6210938 l -0.80859372,3.2460937 c -0.12890625,0.5039063 -0.1640625,0.65625 -0.1640625,1.0078125 0,0.94921875 0.52734375,1.55859375 1.26562502,1.55859375 1.171875,0 2.4023437,-1.47656245 2.4023437,-2.91796875 0,-0.9023437 -0.5273437,-1.59375 -1.3242187,-1.59375 -0.4570313,0 -0.8671875,0.2929688 -1.171875,0.5976563 z m -0.9375,3.7734375 c 0.058594,-0.2226563 0.058594,-0.2460938 0.1523438,-0.3515625 0.4921875,-0.6445313 0.9375,-0.796875 1.1953125,-0.796875 0.3632812,0 0.6328125,0.2929687 0.6328125,0.9375 0,0.5859375 -0.328125,1.734375 -0.515625,2.109375 -0.328125,0.6679687 -0.7851563,1.03124995 -1.171875,1.03124995 -0.3398438,0 -0.6679688,-0.26953125 -0.6679688,-1.00781245 0,-0.1875 0,-0.3867188 0.1640625,-1.0078125 z m 0,0"
       style="fill:#000000;fill-opacity:1;fill-rule:nonzero;stroke:none"
       aria-label="b"
       transform="matrix(1.3333333,0,0,1.3333333,39.009333,69.310667)" />
  </g>
</svg>
