<?xml version="1.0" encoding="UTF-8" standalone="no"?>
<!-- Created with Inkscape (http://www.inkscape.org/) -->

<svg
   version="1.1"
   id="svg1"
   width="664.90625"
   height="181.45924"
   viewBox="0 0 664.90625 181.45924"
   xmlns="http://www.w3.org/2000/svg"
   xmlns:svg="http://www.w3.org/2000/svg">
  <defs
     id="defs1" />
  <g
     id="g1"
     transform="translate(-18.273438,-17.507813)">
    <path
       id="path1"
       d="m 0,0 h 54.99281 m 31.7484,0 h 54.99283"
       style="fill:none;stroke:#000000;stroke-width:0.3985;stroke-linecap:butt;stroke-linejoin:miter;stroke-miterlimit:10;stroke-dasharray:none;stroke-opacity:1"
       transform="matrix(1.3333333,0,0,-1.3333333,29.045333,190.788)" />
    <path
       id="path2"
       d="m 3.3166094,-0.76039062 c 0.035156,0.3984375 0.3046875,0.8203125 0.7734375,0.8203125 0.2109375,0 0.8203125,-0.140625 0.8203125,-0.94921875 V -1.4400781 H 4.6642656 v 0.55078123 c 0,0.5859375 -0.2460937,0.64453125 -0.3632812,0.64453125 -0.328125,0 -0.3632813,-0.45703125 -0.3632813,-0.50390625 V -2.7408594 c 0,-0.4101562 0,-0.8085937 -0.3632812,-1.171875 -0.3867188,-0.3867187 -0.8789063,-0.5507812 -1.359375,-0.5507812 -0.8203125,0 -1.51171878,0.46875 -1.51171878,1.125 0,0.3046875 0.19921875,0.46875 0.45703128,0.46875 0.28125,0 0.46875,-0.1992188 0.46875,-0.4570313 0,-0.1171875 -0.058594,-0.4453125 -0.515625,-0.4570312 0.2695312,-0.3515625 0.7617187,-0.4570313 1.078125,-0.4570313 0.4921875,0 1.0546875,0.3867188 1.0546875,1.2773438 v 0.3632812 c -0.5039063,0.035156 -1.2070313,0.058594 -1.828125,0.3632813 -0.75000003,0.3398437 -0.99609378,0.8554687 -0.99609378,1.28906248 0,0.80859375 0.96093748,1.0546875 1.59374998,1.0546875 0.65625,0 1.1132813,-0.3984375 1.3007813,-0.8671875 z M 3.2462969,-2.3892969 v 0.9960938 c 0,0.94921873 -0.7148438,1.28906248 -1.1601563,1.28906248 -0.4921875,0 -0.9023437,-0.3515625 -0.9023437,-0.85546875 0,-0.53906253 0.421875,-1.37109373 2.0625,-1.42968753 z m 0,0"
       style="fill:#000000;fill-opacity:1;fill-rule:nonzero;stroke:none"
       aria-label="a"
       transform="matrix(1.3333333,0,0,1.3333333,17.710667,193.64667)" />
    <path
       id="path3"
       d="m 54.59431,0 3.04419,5.95285 5.29139,-11.9057 5.29138,11.9057 5.29138,-11.9057 5.29138,11.9057 5.2914,-11.9057 L 87.13962,0"
       style="fill:none;stroke:#000000;stroke-width:0.797;stroke-linecap:butt;stroke-linejoin:bevel;stroke-miterlimit:10;stroke-dasharray:none;stroke-opacity:1"
       transform="matrix(1.3333333,0,0,-1.3333333,29.045333,190.788)" />
    <path
       id="path4"
       d="M 1.58714,0 C 1.58714,0.87656 0.87656,1.58714 0,1.58714 -0.87656,1.58714 -1.58714,0.87656 -1.58714,0 c 0,-0.87656 0.71058,-1.58714 1.58714,-1.58714 0.87656,0 1.58714,0.71058 1.58714,1.58714 z"
       style="fill:#000000;fill-opacity:1;fill-rule:nonzero;stroke:#000000;stroke-width:0.3985;stroke-linecap:butt;stroke-linejoin:miter;stroke-miterlimit:10;stroke-dasharray:none;stroke-opacity:1"
       transform="matrix(1.3333333,0,0,-1.3333333,29.045333,190.788)" />
    <path
       id="path5"
       d="m 143.32118,0 c 0,0.87656 -0.71058,1.58714 -1.58714,1.58714 -0.87656,0 -1.58714,-0.71058 -1.58714,-1.58714 0,-0.87656 0.71058,-1.58714 1.58714,-1.58714 0.87656,0 1.58714,0.71058 1.58714,1.58714 z"
       style="fill:#000000;fill-opacity:1;fill-rule:nonzero;stroke:#000000;stroke-width:0.3985;stroke-linecap:butt;stroke-linejoin:miter;stroke-miterlimit:10;stroke-dasharray:none;stroke-opacity:1"
       transform="matrix(1.3333333,0,0,-1.3333333,29.045333,190.788)" />
    <path
       id="path6"
       d="m 3.7393359,-6.1179687 c 0.058594,-0.234375 0.082031,-0.3398438 0.28125,-0.3632813 0.082031,-0.011719 0.3984375,-0.011719 0.5976563,-0.011719 0.7148437,0 1.8164062,0 1.8164062,0.984375 0,0.3398437 -0.1523437,1.0195312 -0.5507812,1.4179687 -0.2578125,0.2578125 -0.7851563,0.5742188 -1.6757813,0.5742188 H 3.0948047 Z M 5.1690234,-3.3875 c 1.0078125,-0.2226562 2.1914063,-0.9140625 2.1914063,-1.921875 0,-0.8554687 -0.890625,-1.5 -2.203125,-1.5 H 2.3213672 c -0.1992188,0 -0.2929688,0 -0.2929688,0.1992188 0,0.1171875 0.09375,0.1171875 0.28125,0.1171875 0.023437,0 0.2109375,0 0.3867188,0.011719 0.1757812,0.023437 0.2578125,0.035156 0.2578125,0.1640625 0,0.035156 0,0.070312 -0.035156,0.1875 l -1.3359375,5.35546875 c -0.09375,0.38671875 -0.1171875,0.46875 -0.90234371,0.46875 -0.17578125,0 -0.26953125,0 -0.26953125,0.19921875 0,0.10546875 0.1171875,0.10546875 0.140625,0.10546875 0.28125,0 0.97265626,-0.03515625 1.25390626,-0.03515625 0.28125,0 0.984375,0.03515625 1.265625,0.03515625 0.082031,0 0.1992187,0 0.1992187,-0.19921875 0,-0.10546875 -0.09375,-0.10546875 -0.28125,-0.10546875 -0.3632812,0 -0.6445312,0 -0.6445312,-0.1875 0,-0.0585937 0.011719,-0.10546875 0.023437,-0.1640625 L 3.0244922,-3.29375 h 1.1953125 c 0.9023437,0 1.078125,0.5507813 1.078125,0.9023438 0,0.1523437 -0.082031,0.4570312 -0.140625,0.6914062 -0.070312,0.2695313 -0.1523438,0.6445313 -0.1523438,0.84375 0,1.078125 1.1953125,1.078125 1.3242188,1.078125 0.84375,0 1.1953125,-1.0078125 1.1953125,-1.1484375 0,-0.1171875 -0.1171875,-0.1171875 -0.1171875,-0.1171875 -0.09375,0 -0.1171875,0.0703125 -0.1289063,0.140625 -0.2578125,0.73828125 -0.6796875,0.90234375 -0.9140625,0.90234375 -0.328125,0 -0.3984375,-0.22265625 -0.3984375,-0.609375 0,-0.3046875 0.058594,-0.82031245 0.1054688,-1.13671875 0.011719,-0.140625 0.035156,-0.328125 0.035156,-0.46875 0,-0.7617187 -0.6679687,-1.078125 -0.9374998,-1.171875 z m 0,0"
       style="fill:#000000;fill-opacity:1;fill-rule:nonzero;stroke:none"
       aria-label="R"
       transform="matrix(1.3333333,0,0,1.3333333,118.44,177.76667)" />
    <path
       id="path7"
       d="m 1.7110703,-3.7511719 v -3.1640625 l -1.42968749,0.1054688 v 0.3164062 c 0.69140625,0 0.77343749,0.070312 0.77343749,0.5507813 v 5.94140623 h 0.2460938 c 0.011719,-0.01171875 0.09375,-0.15234375 0.3632812,-0.62109375 0.1523438,0.234375 0.5625,0.7265625 1.3007813,0.7265625 1.1835937,0 2.2265625,-0.97265625 2.2265625,-2.26171878 0,-1.265625 -0.9726563,-2.25 -2.109375,-2.25 -0.7851563,0 -1.2070313,0.46875 -1.3710938,0.65625 z m 0.035156,2.6132813 v -2.0507813 c 0,-0.1875 0,-0.1992187 0.1054687,-0.3632812 0.3867188,-0.5507813 0.9375,-0.6328125 1.171875,-0.6328125 0.4570313,0 0.8085938,0.2578125 1.0546875,0.6328125 0.2578125,0.4101562 0.28125,0.984375 0.28125,1.3945312 0,0.3632813 -0.011719,0.9609375 -0.3046875,1.40625003 -0.2109375,0.31640625 -0.5859375,0.64453125 -1.125,0.64453125 -0.4453125,0 -0.8085937,-0.24609375 -1.0429687,-0.609375 -0.140625,-0.2109375 -0.140625,-0.24609375 -0.140625,-0.42187498 z m 0,0"
       style="fill:#000000;fill-opacity:1;fill-rule:nonzero;stroke:none"
       aria-label="b"
       transform="matrix(1.3333333,0,0,1.3333333,222.71467,195.4)" />
    <path
       id="path8"
       d="M 0,0 21.82188,13.09314 M 49.0451,29.42705 70.867,42.5202 92.6889,29.42705 M 119.91212,13.09314 141.73404,0"
       style="fill:none;stroke:#000000;stroke-width:0.3985;stroke-linecap:butt;stroke-linejoin:miter;stroke-miterlimit:10;stroke-dasharray:none;stroke-opacity:1"
       transform="matrix(1.3333333,0,0,-1.3333333,29.045333,190.788)" />
    <path
       id="path9"
       d="m 21.4802,12.8881 -0.45232,6.67055 10.66241,-7.4864 -1.58804,12.93105 10.66241,-7.48645 -1.58804,12.93104 10.66242,-7.4864 -0.45232,6.67053"
       style="fill:none;stroke:#000000;stroke-width:0.797;stroke-linecap:butt;stroke-linejoin:bevel;stroke-miterlimit:10;stroke-dasharray:none;stroke-opacity:1"
       transform="matrix(1.3333333,0,0,-1.3333333,29.045333,190.788)" />
    <path
       id="path10"
       d="m 3.7286711,-6.1131303 c 0.076526,-0.2411205 0.084633,-0.3456222 0.291654,-0.3716151 0.084412,-0.00396 0.3999439,-0.00577 0.6049383,-0.00564 0.7094401,0.00247 1.818824,-8.338e-4 1.8161789,0.9819321 -2.209e-4,0.3416573 -0.1634511,1.0228569 -0.5616334,1.4124909 -0.257422,0.26914 -0.7861874,0.5803093 -1.6744964,0.579735 l -1.1194288,-0.00273 z m 1.4392293,2.7241414 C 6.1729151,-3.6053921 7.3571081,-4.3020096 7.3557442,-5.3008561 7.3542919,-6.1630396 6.4684071,-6.8047225 5.1600645,-6.8115977 l -2.8337511,0.00621 c -0.2049944,-1.325e-4 -0.2994513,-0.0022 -0.2995838,0.2027911 0.00194,0.1105374 0.096395,0.1126083 0.285309,0.1167499 0.026125,0.00203 0.2110301,-0.00991 0.3778276,0.00828 0.1768423,0.024231 0.2652634,0.036347 0.261166,0.1569293 0.00198,0.042206 -4.42e-5,0.068331 -0.036303,0.196932 l -1.32386,5.34306863 C 1.4861024,-0.37875457 1.4639419,-0.29636916 0.68617039,-0.29888178 0.50730144,-0.29698768 0.41284454,-0.2990585 0.4087029,-0.1101447 0.41064118,3.9278415e-4 0.53122352,0.00449025 0.54730411,4.8114355e-4 0.83671054,-0.00335124 1.5180427,-0.04511547 1.8014134,-0.03890301 c 0.2894064,-0.0038324 0.9907841,0.03480634 1.2741548,0.0410188 0.084412,-0.00396492 0.1949495,-0.0059032 0.195082,-0.21089759 0.00207,-0.0944569 -0.092386,-0.0965277 -0.2772907,-0.0845888 -0.3677828,-0.002248 -0.6511535,-0.00846 -0.6570567,-0.20340953 0.00405,-0.0522509 0.024187,-0.10851085 0.02824,-0.16076172 l 0.6568855,-2.64038635 1.1978051,0.00881 c 0.9043896,-0.00343 1.0728603,0.5352871 1.0766485,0.893025 0.00392,0.1527435 -0.08873,0.4662046 -0.1431405,0.6932711 -0.062472,0.2632368 -0.1451229,0.6510651 -0.1492645,0.83997883 0.00533,1.08325853 1.1930891,1.08603623 1.329752,1.08612459 0.846103,0.002557 1.1823873,-1.01214938 1.1885114,-1.15885714 C 7.5198025,-1.0461099 7.409265,-1.0441716 7.409265,-1.0441716 7.3087724,-1.0361976 7.2826027,-0.96989275 7.2725137,-0.90759704 7.0208182,-0.17018163 6.6026787,0.0023865 6.361514,-0.00580843 6.0299016,6.4168765e-6 5.9576936,-0.22111274 5.9619677,-0.61502091 c 0.0022,-0.29945128 0.068862,-0.81993339 0.1092619,-1.13744769 0.010133,-0.1306272 0.0404,-0.3175143 0.040489,-0.4541773 -0.00352,-0.7677266 -0.6725629,-1.0877094 -0.9438182,-1.182343 z m 0,0"
       style="fill:#000000;fill-opacity:1;fill-rule:nonzero;stroke:none"
       aria-label="R"
       transform="matrix(1.14288,-0.68673333,0.68673333,1.14288,65.686667,154.45733)" />
    <path
       id="path11"
       d="m 92.34721,29.63208 5.67292,3.53819 -1.58806,-12.93106 10.66244,7.48642 -1.58807,-12.93103 10.66243,7.48644 -1.58806,-12.93106 5.67293,3.53819"
       style="fill:none;stroke:#000000;stroke-width:0.797;stroke-linecap:butt;stroke-linejoin:bevel;stroke-miterlimit:10;stroke-dasharray:none;stroke-opacity:1"
       transform="matrix(1.3333333,0,0,-1.3333333,29.045333,190.788)" />
    <path
       id="path12"
       d="m 3.7346236,-6.114034 c 0.060137,-0.2412088 0.084191,-0.3376924 0.2871588,-0.3639503 0.072341,-0.016125 0.3878725,-0.014319 0.5928669,-0.014452 0.70944,-0.00247 1.818824,8.338e-4 1.8214691,0.9835997 2.209e-4,0.3416573 -0.1621256,1.0270869 -0.5517596,1.4252693 -0.26914,0.2574219 -0.7814272,0.5652449 -1.6697362,0.5658192 l -1.1194288,0.00273 z m 1.4306921,2.7222859 c 1.0127679,-0.2257468 2.1840058,-0.9158482 2.1853697,-1.9146947 0.00145,-0.8621836 -0.8892809,-1.5027178 -2.1976235,-1.4958427 l -2.8337511,-0.00621 c -0.2049944,1.325e-4 -0.2994513,0.0022 -0.2993188,0.2071977 -0.00194,0.1105375 0.092519,0.1084667 0.2814324,0.1043251 0.026126,-0.00203 0.2110302,0.00991 0.3898991,0.011806 0.1808956,0.02802 0.2612985,0.048065 0.265396,0.1686474 -0.00198,0.042206 4.42e-5,0.068331 -0.048109,0.192967 L 1.583624,-0.77474805 C 1.487406,-0.3888139 1.4573152,-0.30237521 0.67954367,-0.29986259 0.50067472,-0.30175659 0.40621782,-0.29968587 0.41035946,-0.11077207 0.40842146,-2.3458834e-4 0.52900351,-0.00433205 0.5450841,-3.2294773e-4 0.83449054,0.00350944 1.5197876,-0.03913839 1.8031583,-0.04535085 c 0.2894064,0.0038324 0.9868192,0.04960572 1.2701899,0.04339325 0.084412,0.00396493 0.1949495,0.00590321 0.194817,-0.19909118 -0.00207,-0.0944569 -0.096528,-0.0923861 -0.2814324,-0.10432502 -0.3677828,0.002248 -0.6511535,0.00846 -0.6452503,-0.18648954 -0.00405,-0.0522509 0.00797,-0.10049264 0.02401,-0.16481499 L 3.0229853,-3.293895 4.2207904,-3.302705 c 0.9043896,0.00343 1.0735671,0.5580163 1.0697789,0.9157542 -0.00392,0.1527435 -0.080094,0.4582747 -0.1301854,0.6934478 -0.074191,0.2633252 -0.1603641,0.6432236 -0.1562224,0.83213742 -0.00533,1.08325853 1.1824314,1.08048083 1.3190943,1.08039247 0.846103,-0.002557 1.2052048,-0.99761507 1.1990807,-1.14432284 C 7.5242753,-1.0358369 7.4137378,-1.0377752 7.4137378,-1.0377752 7.3132452,-1.0457492 7.2871639,-0.97539114 7.2771632,-0.90102394 7.0143682,-0.15523689 6.6004587,-0.0022283 6.359294,0.00596662 6.0276816,1.5177894e-4 5.9632267,-0.22087901 5.9589525,-0.61478719 c -0.0022,-0.29945128 0.067801,-0.82002171 0.1118131,-1.13357111 0.00996,-0.1426987 0.03194,-0.3336391 0.031852,-0.470302 0.00352,-0.7677267 -0.6619052,-1.0788077 -0.9373019,-1.1730878 z m 0,0"
       style="fill:#000000;fill-opacity:1;fill-rule:nonzero;stroke:none"
       aria-label="R"
       transform="matrix(1.14288,0.68673333,-0.68673333,1.14288,172.744,149.26667)" />
    <path
       id="path13"
       d="M 0,0 27.72432,49.90395 M 43.14265,77.65665 70.867,127.56062 98.59134,77.65665 M 114.00967,49.90395 141.73404,0"
       style="fill:none;stroke:#000000;stroke-width:0.3985;stroke-linecap:butt;stroke-linejoin:miter;stroke-miterlimit:10;stroke-dasharray:none;stroke-opacity:1"
       transform="matrix(1.3333333,0,0,-1.3333333,29.045333,190.788)" />
    <path
       id="path14"
       d="m 27.5308,49.5556 -3.72526,5.55202 12.97702,-1.15645 -7.83758,10.40732 12.97699,-1.15645 -7.83759,10.40732 12.97704,-1.15645 -3.72528,5.552"
       style="fill:none;stroke:#000000;stroke-width:0.797;stroke-linecap:butt;stroke-linejoin:bevel;stroke-miterlimit:10;stroke-dasharray:none;stroke-opacity:1"
       transform="matrix(1.3333333,0,0,-1.3333333,29.045333,190.788)" />
    <path
       id="path15"
       d="m 3.7371499,-6.1181049 c 0.058269,-0.2332801 0.079995,-0.339114 0.2780736,-0.3685208 0.08879,-0.00902 0.4086325,-0.012135 0.607824,-0.015361 0.713658,0.00636 1.8097684,0.00171 1.8099707,0.9930985 -0.00146,0.3357735 -0.1455156,1.0185696 -0.5533763,1.418838 -0.2460982,0.2570054 -0.7881999,0.584301 -1.6748694,0.5800493 l -1.1120411,8.83e-5 z m 1.4327185,2.7296662 C 6.172849,-3.6094447 7.354978,-4.3049194 7.3593437,-5.31224 7.3544596,-6.1670479 6.4774955,-6.8064174 5.1605814,-6.8133517 l -2.8375877,0.00529 c -0.1991916,0.00323 -0.2936627,0.002 -0.3006855,0.2068722 0.00445,0.1047204 0.098925,0.1059478 0.2878674,0.1084027 0.020499,-0.011363 0.2094409,-0.00891 0.3835659,0.015159 0.1741249,0.024067 0.2583467,0.030976 0.2536649,0.1675579 0.00111,0.02618 -0.00234,0.068291 -0.018386,0.1843743 l -1.3515605,5.34494383 c -0.088018,0.39715572 -0.1108575,0.47680957 -0.8928065,0.4681038 -0.17301145,0.002113 -0.26748256,8.8569e-4 -0.2745053,0.20575868 0.004454,0.10472046 0.1148559,0.11051579 0.14103601,0.10940228 0.27773191,-0.00656712 0.96866419,-0.04119964 1.25207749,-0.03751741 0.277732,-0.0065671 0.9822541,0.03165927 1.2656674,0.0353414971 0.07854,-0.003340507 0.1991916,-0.003226607 0.195965,-0.2024181671 0.0058,-0.11040188 -0.088676,-0.11162929 -0.2719366,-0.10383477 -0.3619536,-3.4171e-4 -0.645367,-0.004024 -0.6531615,-0.18728473 0.00802,-0.0580417 0.016045,-0.11608331 0.029748,-0.16387561 l 0.6535544,-2.6400536 1.1962629,0.00682 c 0.8969188,-0.00143 1.0671337,0.5473531 1.0770413,0.9036254 9.996e-4,0.1468313 -0.080109,0.4597653 -0.1440603,0.6827961 -0.067405,0.2651416 -0.1508553,0.6463666 -0.1578781,0.85123955 0.00922,1.08017959 1.2100551,1.07106929 1.3363877,1.08143254 C 7.1754104,0.22958113 7.5098682,-0.78653367 7.51455,-0.92311567 7.5146639,-1.0437669 7.404262,-1.0495622 7.404262,-1.0495622 7.315472,-1.0405422 7.2869513,-0.9711358 7.274361,-0.89716336 7.0221266,-0.1678035 6.593995,0.00252532 6.3629419,-0.00338391 6.0328498,0.00541021 5.9602187,-0.22230238 5.9651283,-0.60018682 5.9676971,-0.90978027 6.0239673,-1.4367231 6.0686469,-1.7428621 6.0835781,-1.8851255 6.112213,-2.0751812 6.1168949,-2.2117632 6.1107834,-2.9721 5.4361235,-3.2948532 5.1698684,-3.3884387 Z m 0,0"
       style="fill:#000000;fill-opacity:1;fill-rule:nonzero;stroke:none"
       aria-label="R"
       transform="matrix(0.64642667,-1.16616,1.16616,0.64642667,63.117333,104.13333)" />
    <path
       id="path16"
       d="m 98.39783,78.005 6.68203,0.22988 -7.83758,-10.40733 12.977,1.15645 -7.8376,-10.40732 12.97702,1.15646 -7.83758,-10.40734 6.68204,0.2299"
       style="fill:none;stroke:#000000;stroke-width:0.797;stroke-linecap:butt;stroke-linejoin:bevel;stroke-miterlimit:10;stroke-dasharray:none;stroke-opacity:1"
       transform="matrix(1.3333333,0,0,-1.3333333,29.045333,190.788)" />
    <path
       id="path17"
       d="m 3.7436249,-6.1245975 c 0.046451,-0.2288261 0.077085,-0.332433 0.2773902,-0.3553865 0.079654,-0.02284 0.3994966,-0.019727 0.5986882,-0.0165 0.713658,-0.00636 1.8097684,-0.00171 1.8095661,0.9896813 0.00146,0.3357736 -0.1481471,1.0165704 -0.5484155,1.4244311 -0.2570054,0.2460982 -0.7848339,0.569851 -1.6715034,0.5741028 l -1.1120411,-8.84e-5 z m 1.4310493,2.7360683 c 1.000298,-0.2092386 2.1788332,-0.9092184 2.1744675,-1.9165391 0.00488,-0.8548079 -0.8801279,-1.5061725 -2.197042,-1.4992381 L 2.314512,-6.809595 c -0.1991916,-0.00323 -0.2936627,-0.002 -0.2866399,0.2028738 -0.00445,0.1047204 0.090017,0.103493 0.2789593,0.1010382 0.020499,0.011363 0.2094409,0.00891 0.3927017,0.016703 0.1718979,0.028293 0.2447568,0.041883 0.2494387,0.178465 -0.00111,0.02618 0.00234,0.068291 -0.033975,0.1821473 l -1.334628,5.35658564 c -0.089561,0.37911185 -0.1190821,0.45653869 -0.90103107,0.46524445 -0.17301145,-0.002113 -0.26748256,-8.8569e-4 -0.26045982,0.2039873 -0.004454,0.10472045 0.10594786,0.09892512 0.13212798,0.10003863 C 0.82873779,0.00405544 1.53326,-0.03417096 1.8166733,-0.03785318 2.0944052,-0.03128608 2.7853375,0.00334646 3.0687508,-3.357675e-4 3.1472915,0.00300434 3.2679427,0.00289044 3.2711693,-0.19630113 3.265374,-0.30670301 3.1709029,-0.3054756 2.9876421,-0.31327012 c -0.3619537,3.4171e-4 -0.645367,0.004024 -0.6375725,-0.17923686 -0.00802,-0.0580416 0.00445,-0.10472045 0.022612,-0.1616486 l 0.6576783,-2.63673872 1.1962629,-0.00682 c 0.8969188,0.00143 1.0727268,0.5544386 1.0628192,0.9107109 -9.996e-4,0.1468313 -0.076971,0.4530843 -0.1291037,0.6921597 -0.069177,0.2698235 -0.163306,0.6330046 -0.1562833,0.83787754 C 4.994835,0.22321343 6.1956616,0.23232372 6.3219943,0.22196048 7.1665526,0.22116274 7.5241406,-0.78649965 7.5194588,-0.92308164 7.5193449,-1.0437329 7.408943,-1.0379375 7.408943,-1.0379375 7.3201533,-1.0469595 7.2963141,-0.97978198 7.2770429,-0.89667372 7.0148117,-0.1577213 6.5938167,-0.00252591 6.3627636,0.00338332 6.0326715,-0.0054108 5.9687206,-0.22844157 5.963811,-0.60632601 5.961241,-0.91591945 6.030191,-1.4270454 6.0697333,-1.7400932 c 0.01693,-0.1513993 0.040656,-0.339228 0.035974,-0.47581 0.00611,-0.7603368 -0.6623229,-1.0772692 -0.9310331,-1.172626 z m 0,0"
       style="fill:#000000;fill-opacity:1;fill-rule:nonzero;stroke:none"
       aria-label="R"
       transform="matrix(0.64642667,1.16616,-1.16616,0.64642667,179.06667,95.32)" />
    <path
       id="path18"
       d="m 70.867,42.5202 -1e-5,26.64601 m 0,31.74839 1e-5,26.64602"
       style="fill:none;stroke:#000000;stroke-width:0.3985;stroke-linecap:butt;stroke-linejoin:miter;stroke-miterlimit:10;stroke-dasharray:none;stroke-opacity:1"
       transform="matrix(1.3333333,0,0,-1.3333333,29.045333,190.788)" />
    <path
       id="path19"
       d="m 70.86699,68.7677 -5.95285,3.0442 11.9057,5.29139 -11.9057,5.29138 11.9057,5.29138 -11.9057,5.29138 11.9057,5.29138 -5.95285,3.04421"
       style="fill:none;stroke:#000000;stroke-width:0.797;stroke-linecap:butt;stroke-linejoin:bevel;stroke-miterlimit:10;stroke-dasharray:none;stroke-opacity:1"
       transform="matrix(1.3333333,0,0,-1.3333333,29.045333,190.788)" />
    <path
       id="path20"
       d="m 3.7378437,-6.1168984 c 0.058594,-0.234375 0.082031,-0.3398438 0.28125,-0.3632813 0.082031,-0.011719 0.3984375,-0.011719 0.5976563,-0.011719 0.7148437,0 1.8164062,0 1.8164062,0.984375 0,0.3398437 -0.1523437,1.0195312 -0.5507812,1.4179687 -0.2578125,0.2578125 -0.7851563,0.5742188 -1.6757813,0.5742188 H 3.0933125 Z m 1.4296875,2.7304687 c 1.0078125,-0.2226562 2.1914063,-0.9140625 2.1914063,-1.921875 0,-0.8554687 -0.890625,-1.5 -2.203125,-1.5 H 2.319875 c -0.1992188,0 -0.2929688,0 -0.2929688,0.1992188 0,0.1171875 0.09375,0.1171875 0.28125,0.1171875 0.023437,0 0.2109375,0 0.3867188,0.011719 0.1757812,0.023437 0.2578125,0.035156 0.2578125,0.1640625 0,0.035156 0,0.070312 -0.035156,0.1875 L 1.581594,-0.77314814 c -0.09375,0.38671875 -0.1171875,0.46875 -0.9023437,0.46875 -0.17578125,0 -0.26953125,0 -0.26953125,0.19921875 0,0.1054687525 0.1171875,0.1054687525 0.140625,0.1054687525 0.28125,0 0.97265625,-0.0351562525 1.25390625,-0.0351562525 0.28125,0 0.984375,0.0351562525 1.265625,0.0351562525 0.082031,0 0.1992187,0 0.1992187,-0.1992187525 0,-0.10546875 -0.09375,-0.10546875 -0.28125,-0.10546875 -0.3632812,0 -0.6445312,0 -0.6445312,-0.1875 0,-0.0585938 0.011719,-0.10546875 0.023437,-0.1640625 L 3.023,-3.2926797 h 1.1953125 c 0.9023437,0 1.078125,0.5507813 1.078125,0.9023438 0,0.1523437 -0.082031,0.4570312 -0.140625,0.6914062 -0.070312,0.2695313 -0.1523438,0.6445313 -0.1523438,0.84375001 0,1.078125 1.1953125,1.078125 1.3242188,1.078125 0.84375,0 1.1953125,-1.0078125 1.1953125,-1.1484375 0,-0.11718751 -0.1171875,-0.11718751 -0.1171875,-0.11718751 -0.09375,0 -0.1171875,0.0703125 -0.1289063,0.14062501 -0.2578125,0.73828125 -0.6796875,0.9023437525 -0.9140625,0.9023437525 -0.328125,0 -0.3984375,-0.2226562525 -0.3984375,-0.6093750025 0,-0.3046875 0.058594,-0.82031246 0.1054688,-1.13671876 0.011719,-0.140625 0.035156,-0.328125 0.035156,-0.46875 0,-0.7617187 -0.6679687,-1.078125 -0.9374998,-1.171875 z m 0,0"
       style="fill:#000000;fill-opacity:1;fill-rule:nonzero;stroke:none"
       aria-label="R"
       transform="matrix(1.3333333,0,0,1.3333333,102.46933,80.261333)" />
    <path
       id="path21"
       d="m 6.8433906,-3.2579453 c 0.1464844,0 0.3398438,0 0.3398438,-0.1992188 0,-0.1992187 -0.1933594,-0.1992187 -0.328125,-0.1992187 H 0.88440625 c -0.140625,0 -0.328125,0 -0.328125,0.1992187 0,0.1992188 0.1875,0.1992188 0.33984375,0.1992188 z m 0.011719,1.9335937 c 0.1347656,0 0.328125,0 0.328125,-0.1992187 0,-0.1992188 -0.1933594,-0.1992188 -0.3398438,-0.1992188 H 0.896125 c -0.15234375,0 -0.33984375,0 -0.33984375,0.1992188 0,0.1992187 0.1875,0.1992187 0.328125,0.1992187 z m 0,0"
       style="fill:#000000;fill-opacity:1;fill-rule:nonzero;stroke:none"
       aria-label="="
       transform="matrix(2.6666667,0,0,2.6666667,245.48533,120.07067)" />
    <path
       id="path22"
       d="m 198.42766,0 h 54.99283 m 31.74838,0 h 54.99284"
       style="fill:none;stroke:#000000;stroke-width:0.3985;stroke-linecap:butt;stroke-linejoin:miter;stroke-miterlimit:10;stroke-dasharray:none;stroke-opacity:1"
       transform="matrix(1.3333333,0,0,-1.3333333,29.045333,190.788)" />
    <path
       id="path23"
       d="m 3.3164141,-0.76039062 c 0.035156,0.3984375 0.3046875,0.8203125 0.7734375,0.8203125 0.2109375,0 0.8203125,-0.140625 0.8203125,-0.94921875 V -1.4400781 H 4.6640703 v 0.55078123 c 0,0.5859375 -0.2460937,0.64453125 -0.3632812,0.64453125 -0.328125,0 -0.3632813,-0.45703125 -0.3632813,-0.50390625 V -2.7408594 c 0,-0.4101562 0,-0.8085937 -0.3632812,-1.171875 -0.3867188,-0.3867187 -0.8789063,-0.5507812 -1.359375,-0.5507812 -0.8203125,0 -1.51171879,0.46875 -1.51171879,1.125 0,0.3046875 0.19921875,0.46875 0.45703129,0.46875 0.28125,0 0.46875,-0.1992188 0.46875,-0.4570313 0,-0.1171875 -0.058594,-0.4453125 -0.515625,-0.4570312 0.2695312,-0.3515625 0.7617187,-0.4570313 1.078125,-0.4570313 0.4921875,0 1.0546875,0.3867188 1.0546875,1.2773438 v 0.3632812 c -0.5039063,0.035156 -1.2070313,0.058594 -1.828125,0.3632813 -0.75000004,0.3398437 -0.99609379,0.8554687 -0.99609379,1.28906248 0,0.80859375 0.96093749,1.0546875 1.59374999,1.0546875 0.65625,0 1.1132813,-0.3984375 1.3007813,-0.8671875 z M 3.2461016,-2.3892969 v 0.9960938 c 0,0.94921873 -0.7148438,1.28906248 -1.1601563,1.28906248 -0.4921875,0 -0.9023437,-0.3515625 -0.9023437,-0.85546875 0,-0.53906253 0.421875,-1.37109373 2.0625,-1.42968753 z m 0,0"
       style="fill:#000000;fill-opacity:1;fill-rule:nonzero;stroke:none"
       aria-label="a"
       transform="matrix(1.3333333,0,0,1.3333333,282.27733,193.64667)" />
    <path
       id="path24"
       d="m 253.02197,0 3.04421,5.95285 5.29138,-11.9057 5.29138,11.9057 5.29138,-11.9057 5.29138,11.9057 5.29139,-11.9057 L 285.56729,0"
       style="fill:none;stroke:#000000;stroke-width:0.797;stroke-linecap:butt;stroke-linejoin:bevel;stroke-miterlimit:10;stroke-dasharray:none;stroke-opacity:1"
       transform="matrix(1.3333333,0,0,-1.3333333,29.045333,190.788)" />
    <path
       id="path25"
       d="m 200.01482,0 c 0,0.87656 -0.71059,1.58714 -1.58716,1.58714 -0.87656,0 -1.58714,-0.71058 -1.58714,-1.58714 0,-0.87656 0.71058,-1.58714 1.58714,-1.58714 0.87657,0 1.58716,0.71058 1.58716,1.58714 z"
       style="fill:#000000;fill-opacity:1;fill-rule:nonzero;stroke:#000000;stroke-width:0.3985;stroke-linecap:butt;stroke-linejoin:miter;stroke-miterlimit:10;stroke-dasharray:none;stroke-opacity:1"
       transform="matrix(1.3333333,0,0,-1.3333333,29.045333,190.788)" />
    <path
       id="path26"
       d="m 341.74886,0 c 0,0.87656 -0.71059,1.58714 -1.58715,1.58714 -0.87655,0 -1.58714,-0.71058 -1.58714,-1.58714 0,-0.87656 0.71059,-1.58714 1.58714,-1.58714 0.87656,0 1.58715,0.71058 1.58715,1.58714 z"
       style="fill:#000000;fill-opacity:1;fill-rule:nonzero;stroke:#000000;stroke-width:0.3985;stroke-linecap:butt;stroke-linejoin:miter;stroke-miterlimit:10;stroke-dasharray:none;stroke-opacity:1"
       transform="matrix(1.3333333,0,0,-1.3333333,29.045333,190.788)" />
    <path
       id="path27"
       d="m 3.7391406,-6.1179687 c 0.058594,-0.234375 0.082031,-0.3398438 0.28125,-0.3632813 0.082031,-0.011719 0.3984375,-0.011719 0.5976563,-0.011719 0.7148437,0 1.8164062,0 1.8164062,0.984375 0,0.3398437 -0.1523437,1.0195312 -0.5507812,1.4179687 -0.2578125,0.2578125 -0.7851563,0.5742188 -1.6757813,0.5742188 H 3.0946094 Z M 5.1688281,-3.3875 c 1.0078125,-0.2226562 2.1914063,-0.9140625 2.1914063,-1.921875 0,-0.8554687 -0.890625,-1.5 -2.203125,-1.5 H 2.3211719 c -0.1992188,0 -0.2929688,0 -0.2929688,0.1992188 0,0.1171875 0.09375,0.1171875 0.28125,0.1171875 0.023437,0 0.2109375,0 0.3867188,0.011719 0.1757812,0.023437 0.2578125,0.035156 0.2578125,0.1640625 0,0.035156 0,0.070312 -0.035156,0.1875 l -1.3359375,5.35546875 c -0.09375,0.38671875 -0.1171875,0.46875 -0.90234372,0.46875 -0.17578125,0 -0.26953125,0 -0.26953125,0.19921875 0,0.10546875 0.1171875,0.10546875 0.140625,0.10546875 0.28125,0 0.97265627,-0.03515625 1.25390627,-0.03515625 0.28125,0 0.984375,0.03515625 1.265625,0.03515625 0.082031,0 0.1992187,0 0.1992187,-0.19921875 0,-0.10546875 -0.09375,-0.10546875 -0.28125,-0.10546875 -0.3632812,0 -0.6445312,0 -0.6445312,-0.1875 0,-0.0585937 0.011719,-0.10546875 0.023437,-0.1640625 L 3.0242969,-3.29375 h 1.1953125 c 0.9023437,0 1.078125,0.5507813 1.078125,0.9023438 0,0.1523437 -0.082031,0.4570312 -0.140625,0.6914062 -0.070312,0.2695313 -0.1523438,0.6445313 -0.1523438,0.84375 0,1.078125 1.1953125,1.078125 1.3242188,1.078125 0.84375,0 1.1953125,-1.0078125 1.1953125,-1.1484375 0,-0.1171875 -0.1171875,-0.1171875 -0.1171875,-0.1171875 -0.09375,0 -0.1171875,0.0703125 -0.1289063,0.140625 -0.2578125,0.73828125 -0.6796875,0.90234375 -0.9140625,0.90234375 -0.328125,0 -0.3984375,-0.22265625 -0.3984375,-0.609375 0,-0.3046875 0.058594,-0.82031245 0.1054688,-1.13671875 0.011719,-0.140625 0.035156,-0.328125 0.035156,-0.46875 0,-0.7617187 -0.6679687,-1.078125 -0.9374998,-1.171875 z m 0,0"
       style="fill:#000000;fill-opacity:1;fill-rule:nonzero;stroke:none"
       aria-label="R"
       transform="matrix(1.3333333,0,0,1.3333333,383.00667,177.76667)" />
    <path
       id="path28"
       d="m 1.710875,-3.7511719 v -3.1640625 l -1.4296875,0.1054688 v 0.3164062 c 0.69140625,0 0.7734375,0.070312 0.7734375,0.5507813 v 5.94140623 h 0.2460937 c 0.011719,-0.01171875 0.09375,-0.15234375 0.3632813,-0.62109375 0.1523437,0.234375 0.5625,0.7265625 1.3007812,0.7265625 1.1835938,0 2.2265625,-0.97265625 2.2265625,-2.26171878 0,-1.265625 -0.9726562,-2.25 -2.109375,-2.25 -0.7851562,0 -1.2070312,0.46875 -1.3710937,0.65625 z m 0.035156,2.6132813 v -2.0507813 c 0,-0.1875 0,-0.1992187 0.1054688,-0.3632812 0.3867187,-0.5507813 0.9375,-0.6328125 1.171875,-0.6328125 0.4570312,0 0.8085937,0.2578125 1.0546875,0.6328125 0.2578125,0.4101562 0.28125,0.984375 0.28125,1.3945312 0,0.3632813 -0.011719,0.9609375 -0.3046875,1.40625003 -0.2109375,0.31640625 -0.5859375,0.64453125 -1.125,0.64453125 -0.4453125,0 -0.8085938,-0.24609375 -1.0429688,-0.609375 C 1.746031,-0.92695312 1.746031,-0.96210937 1.746031,-1.1378906 Z m 0,0"
       style="fill:#000000;fill-opacity:1;fill-rule:nonzero;stroke:none"
       aria-label="b"
       transform="matrix(1.3333333,0,0,1.3333333,487.28133,195.4)" />
    <path
       id="path29"
       d="m 198.42766,0 v 113.38724 h 19.55931 m 31.74838,0 h 19.55933 19.55932 m 31.74839,0 h 19.55932 V 0"
       style="fill:none;stroke:#000000;stroke-width:0.3985;stroke-linecap:butt;stroke-linejoin:miter;stroke-miterlimit:10;stroke-dasharray:none;stroke-opacity:1"
       transform="matrix(1.3333333,0,0,-1.3333333,29.045333,190.788)" />
    <path
       id="path30"
       d="m 217.58847,113.38724 3.04419,5.95285 5.29138,-11.9057 5.29138,11.9057 5.29138,-11.9057 5.29139,11.9057 5.29138,-11.9057 3.0442,5.95285"
       style="fill:none;stroke:#000000;stroke-width:0.797;stroke-linecap:butt;stroke-linejoin:bevel;stroke-miterlimit:10;stroke-dasharray:none;stroke-opacity:1"
       transform="matrix(1.3333333,0,0,-1.3333333,29.045333,190.788)" />
    <path
       id="path31"
       d="m 3.7385703,-6.1177344 c 0.058594,-0.234375 0.082031,-0.3398437 0.28125,-0.3632812 0.082031,-0.011719 0.3984375,-0.011719 0.5976563,-0.011719 0.7148437,0 1.8164062,0 1.8164062,0.984375 0,0.3398438 -0.1523437,1.0195313 -0.5507812,1.4179688 -0.2578125,0.2578125 -0.7851563,0.5742187 -1.6757813,0.5742187 H 3.0940391 Z m 1.4296875,2.7304688 c 1.0078125,-0.2226563 2.1914063,-0.9140625 2.1914063,-1.921875 0,-0.8554688 -0.890625,-1.5 -2.203125,-1.5 H 2.3206016 c -0.1992188,0 -0.2929688,0 -0.2929688,0.1992187 0,0.1171875 0.09375,0.1171875 0.28125,0.1171875 0.023437,0 0.2109375,0 0.3867188,0.011719 0.1757812,0.023437 0.2578125,0.035156 0.2578125,0.1640625 0,0.035156 0,0.070312 -0.035156,0.1875 l -1.3359375,5.35546872 c -0.09375,0.38671875 -0.1171875,0.46875 -0.90234374,0.46875 -0.17578125,0 -0.26953125,0 -0.26953125,0.19921875 0,0.105468755 0.1171875,0.105468755 0.140625,0.105468755 0.28125,0 0.97265629,-0.035156255 1.25390629,-0.035156255 0.28125,0 0.984375,0.035156255 1.265625,0.035156255 0.082031,0 0.1992187,0 0.1992187,-0.199218755 0,-0.10546875 -0.09375,-0.10546875 -0.28125,-0.10546875 -0.3632812,0 -0.6445312,0 -0.6445312,-0.1875 0,-0.0585938 0.011719,-0.10546875 0.023437,-0.1640625 l 0.65625,-2.63671872 h 1.1953125 c 0.9023437,0 1.078125,0.5507812 1.078125,0.9023437 0,0.1523438 -0.082031,0.4570313 -0.140625,0.6914063 -0.070312,0.2695312 -0.1523438,0.6445312 -0.1523438,0.84374997 0,1.078125 1.1953125,1.078125 1.3242188,1.078125 0.84375,0 1.1953125,-1.0078125 1.1953125,-1.1484375 0,-0.11718747 -0.1171875,-0.11718747 -0.1171875,-0.11718747 -0.09375,0 -0.1171875,0.0703125 -0.1289063,0.14062497 -0.2578125,0.73828125 -0.6796875,0.902343755 -0.9140625,0.902343755 -0.328125,0 -0.3984375,-0.222656255 -0.3984375,-0.609375005 0,-0.3046875 0.058594,-0.82031252 0.1054688,-1.13671872 0.011719,-0.140625 0.035156,-0.328125 0.035156,-0.46875 0,-0.7617188 -0.6679687,-1.078125 -0.9374996,-1.1718752 z m 0,0"
       style="fill:#000000;fill-opacity:1;fill-rule:nonzero;stroke:none"
       aria-label="R"
       transform="matrix(1.3333333,0,0,1.3333333,335.76133,26.586667)" />
    <path
       id="path32"
       d="m 288.45549,113.38724 3.04421,5.95285 5.29138,-11.9057 5.29138,11.9057 5.29138,-11.9057 5.29138,11.9057 5.29138,-11.9057 3.04421,5.95285"
       style="fill:none;stroke:#000000;stroke-width:0.797;stroke-linecap:butt;stroke-linejoin:bevel;stroke-miterlimit:10;stroke-dasharray:none;stroke-opacity:1"
       transform="matrix(1.3333333,0,0,-1.3333333,29.045333,190.788)" />
    <path
       id="path33"
       d="m 3.7377813,-6.1177344 c 0.058594,-0.234375 0.082031,-0.3398437 0.28125,-0.3632812 0.082031,-0.011719 0.3984375,-0.011719 0.5976562,-0.011719 0.7148438,0 1.8164063,0 1.8164063,0.984375 0,0.3398438 -0.1523438,1.0195313 -0.5507813,1.4179688 C 5.6245,-3.8325781 5.0971563,-3.5161719 4.2065313,-3.5161719 H 3.09325 Z m 1.4296875,2.7304688 c 1.0078125,-0.2226563 2.1914062,-0.9140625 2.1914062,-1.921875 0,-0.8554688 -0.890625,-1.5 -2.203125,-1.5 H 2.3198125 c -0.1992187,0 -0.2929687,0 -0.2929687,0.1992187 0,0.1171875 0.09375,0.1171875 0.28125,0.1171875 0.023437,0 0.2109375,0 0.3867187,0.011719 0.1757813,0.023437 0.2578125,0.035156 0.2578125,0.1640625 0,0.035156 0,0.070312 -0.035156,0.1875 l -1.3359375,5.35546872 c -0.09375,0.38671875 -0.1171875,0.46875 -0.9023438,0.46875 -0.17578125,0 -0.26953125,0 -0.26953125,0.19921875 0,0.105468755 0.1171875,0.105468755 0.140625,0.105468755 0.28125,0 0.97265625,-0.035156255 1.25390625,-0.035156255 0.28125,0 0.984375,0.035156255 1.265625,0.035156255 0.082031,0 0.1992188,0 0.1992188,-0.199218755 0,-0.10546875 -0.09375,-0.10546875 -0.28125,-0.10546875 -0.3632813,0 -0.6445313,0 -0.6445313,-0.1875 0,-0.0585938 0.011719,-0.10546875 0.023437,-0.1640625 l 0.65625,-2.63671872 H 4.21825 c 0.9023438,0 1.078125,0.5507812 1.078125,0.9023437 0,0.1523438 -0.082031,0.4570313 -0.140625,0.6914063 -0.070312,0.2695312 -0.1523437,0.6445312 -0.1523437,0.84374997 0,1.078125 1.1953125,1.078125 1.3242187,1.078125 0.84375,0 1.1953125,-1.0078125 1.1953125,-1.1484375 0,-0.11718747 -0.1171875,-0.11718747 -0.1171875,-0.11718747 -0.09375,0 -0.1171875,0.0703125 -0.1289062,0.14062497 -0.2578125,0.73828125 -0.6796875,0.902343755 -0.9140625,0.902343755 -0.328125,0 -0.3984375,-0.222656255 -0.3984375,-0.609375005 0,-0.3046875 0.058594,-0.82031252 0.1054687,-1.13671872 0.011719,-0.140625 0.035156,-0.328125 0.035156,-0.46875 0,-0.7617188 -0.6679688,-1.078125 -0.9374997,-1.1718752 z m 0,0"
       style="fill:#000000;fill-opacity:1;fill-rule:nonzero;stroke:none"
       aria-label="R"
       transform="matrix(1.3333333,0,0,1.3333333,430.25067,26.586667)" />
    <path
       id="path34"
       d="m 198.42766,56.69362 h 19.55931 m 31.74838,0 h 19.55933 19.55932 m 31.74839,0 h 19.55932"
       style="fill:none;stroke:#000000;stroke-width:0.3985;stroke-linecap:butt;stroke-linejoin:miter;stroke-miterlimit:10;stroke-dasharray:none;stroke-opacity:1"
       transform="matrix(1.3333333,0,0,-1.3333333,29.045333,190.788)" />
    <path
       id="path35"
       d="m 217.58847,56.69362 3.04419,5.95285 5.29138,-11.90572 5.29138,11.90572 5.29138,-11.90572 5.29139,11.90572 5.29138,-11.90572 3.0442,5.95287"
       style="fill:none;stroke:#000000;stroke-width:0.797;stroke-linecap:butt;stroke-linejoin:bevel;stroke-miterlimit:10;stroke-dasharray:none;stroke-opacity:1"
       transform="matrix(1.3333333,0,0,-1.3333333,29.045333,190.788)" />
    <path
       id="path36"
       d="m 3.7385703,-6.1183516 c 0.058594,-0.234375 0.082031,-0.3398437 0.28125,-0.3632812 0.082031,-0.011719 0.3984375,-0.011719 0.5976563,-0.011719 0.7148437,0 1.8164062,0 1.8164062,0.984375 0,0.3398438 -0.1523437,1.0195313 -0.5507812,1.4179688 -0.2578125,0.2578125 -0.7851563,0.5742187 -1.6757813,0.5742187 H 3.0940391 Z m 1.4296875,2.7304688 c 1.0078125,-0.2226563 2.1914063,-0.9140625 2.1914063,-1.921875 0,-0.8554688 -0.890625,-1.5 -2.203125,-1.5 H 2.3206016 c -0.1992188,0 -0.2929688,0 -0.2929688,0.1992187 0,0.1171875 0.09375,0.1171875 0.28125,0.1171875 0.023437,0 0.2109375,0 0.3867188,0.011719 0.1757812,0.023437 0.2578125,0.035156 0.2578125,0.1640625 0,0.035156 0,0.070312 -0.035156,0.1875 l -1.3359375,5.35546874 c -0.09375,0.38671875 -0.1171875,0.46875 -0.90234374,0.46875 -0.17578125,0 -0.26953125,0 -0.26953125,0.19921875 0,0.10546875 0.1171875,0.10546875 0.140625,0.10546875 0.28125,0 0.97265629,-0.03515625 1.25390629,-0.03515625 0.28125,0 0.984375,0.03515625 1.265625,0.03515625 0.082031,0 0.1992187,0 0.1992187,-0.19921875 0,-0.10546875 -0.09375,-0.10546875 -0.28125,-0.10546875 -0.3632812,0 -0.6445312,0 -0.6445312,-0.1875 0,-0.0585938 0.011719,-0.10546875 0.023437,-0.1640625 l 0.65625,-2.63671874 h 1.1953125 c 0.9023437,0 1.078125,0.5507812 1.078125,0.9023437 0,0.1523438 -0.082031,0.4570313 -0.140625,0.6914063 -0.070312,0.2695312 -0.1523438,0.6445312 -0.1523438,0.84374999 0,1.078125 1.1953125,1.078125 1.3242188,1.078125 0.84375,0 1.1953125,-1.0078125 1.1953125,-1.1484375 0,-0.11718749 -0.1171875,-0.11718749 -0.1171875,-0.11718749 -0.09375,0 -0.1171875,0.0703125 -0.1289063,0.14062499 -0.2578125,0.73828125 -0.6796875,0.90234375 -0.9140625,0.90234375 -0.328125,0 -0.3984375,-0.22265625 -0.3984375,-0.609375 0,-0.3046875 0.058594,-0.82031254 0.1054688,-1.13671874 0.011719,-0.140625 0.035156,-0.328125 0.035156,-0.46875 0,-0.7617188 -0.6679687,-1.078125 -0.9374996,-1.1718752 z m 0,0"
       style="fill:#000000;fill-opacity:1;fill-rule:nonzero;stroke:none"
       aria-label="R"
       transform="matrix(1.3333333,0,0,1.3333333,335.76133,102.17733)" />
    <path
       id="path37"
       d="m 288.45549,56.69362 3.04421,5.95285 5.29138,-11.90572 5.29138,11.90572 5.29138,-11.90572 5.29138,11.90572 5.29138,-11.90572 3.04421,5.95287"
       style="fill:none;stroke:#000000;stroke-width:0.797;stroke-linecap:butt;stroke-linejoin:bevel;stroke-miterlimit:10;stroke-dasharray:none;stroke-opacity:1"
       transform="matrix(1.3333333,0,0,-1.3333333,29.045333,190.788)" />
    <path
       id="path38"
       d="m 3.7377813,-6.1183516 c 0.058594,-0.234375 0.082031,-0.3398437 0.28125,-0.3632812 0.082031,-0.011719 0.3984375,-0.011719 0.5976562,-0.011719 0.7148438,0 1.8164063,0 1.8164063,0.984375 0,0.3398438 -0.1523438,1.0195313 -0.5507813,1.4179688 C 5.6245,-3.8331953 5.0971563,-3.5167891 4.2065313,-3.5167891 H 3.09325 Z m 1.4296875,2.7304688 c 1.0078125,-0.2226563 2.1914062,-0.9140625 2.1914062,-1.921875 0,-0.8554688 -0.890625,-1.5 -2.203125,-1.5 H 2.3198125 c -0.1992187,0 -0.2929687,0 -0.2929687,0.1992187 0,0.1171875 0.09375,0.1171875 0.28125,0.1171875 0.023437,0 0.2109375,0 0.3867187,0.011719 0.1757813,0.023437 0.2578125,0.035156 0.2578125,0.1640625 0,0.035156 0,0.070312 -0.035156,0.1875 l -1.3359375,5.35546874 c -0.09375,0.38671875 -0.1171875,0.46875 -0.9023438,0.46875 -0.17578125,0 -0.26953125,0 -0.26953125,0.19921875 0,0.10546875 0.1171875,0.10546875 0.140625,0.10546875 0.28125,0 0.97265625,-0.03515625 1.25390625,-0.03515625 0.28125,0 0.984375,0.03515625 1.265625,0.03515625 0.082031,0 0.1992188,0 0.1992188,-0.19921875 0,-0.10546875 -0.09375,-0.10546875 -0.28125,-0.10546875 -0.3632813,0 -0.6445313,0 -0.6445313,-0.1875 0,-0.0585938 0.011719,-0.10546875 0.023437,-0.1640625 l 0.65625,-2.63671874 H 4.21825 c 0.9023438,0 1.078125,0.5507812 1.078125,0.9023437 0,0.1523438 -0.082031,0.4570313 -0.140625,0.6914063 -0.070312,0.2695312 -0.1523437,0.6445312 -0.1523437,0.84374999 0,1.078125 1.1953125,1.078125 1.3242187,1.078125 0.84375,0 1.1953125,-1.0078125 1.1953125,-1.1484375 0,-0.11718749 -0.1171875,-0.11718749 -0.1171875,-0.11718749 -0.09375,0 -0.1171875,0.0703125 -0.1289062,0.14062499 -0.2578125,0.73828125 -0.6796875,0.90234375 -0.9140625,0.90234375 -0.328125,0 -0.3984375,-0.22265625 -0.3984375,-0.609375 0,-0.3046875 0.058594,-0.82031254 0.1054687,-1.13671874 0.011719,-0.140625 0.035156,-0.328125 0.035156,-0.46875 0,-0.7617188 -0.6679688,-1.078125 -0.9374997,-1.1718752 z m 0,0"
       style="fill:#000000;fill-opacity:1;fill-rule:nonzero;stroke:none"
       aria-label="R"
       transform="matrix(1.3333333,0,0,1.3333333,430.25067,102.17733)" />
    <path
       id="path39"
       d="m 269.29468,56.69362 v 12.47261 m 0,31.74838 v 12.47263"
       style="fill:none;stroke:#000000;stroke-width:0.3985;stroke-linecap:butt;stroke-linejoin:miter;stroke-miterlimit:10;stroke-dasharray:none;stroke-opacity:1"
       transform="matrix(1.3333333,0,0,-1.3333333,29.045333,190.788)" />
    <path
       id="path40"
       d="m 269.29468,68.76772 -5.95285,3.0442 11.9057,5.29138 -11.9057,5.29138 11.9057,5.29139 -11.9057,5.29138 11.9057,5.29138 -5.95285,3.0442"
       style="fill:none;stroke:#000000;stroke-width:0.797;stroke-linecap:butt;stroke-linejoin:bevel;stroke-miterlimit:10;stroke-dasharray:none;stroke-opacity:1"
       transform="matrix(1.3333333,0,0,-1.3333333,29.045333,190.788)" />
    <path
       id="path41"
       d="m 3.7376484,-6.1168984 c 0.058594,-0.234375 0.082031,-0.3398438 0.28125,-0.3632813 0.082031,-0.011719 0.3984375,-0.011719 0.5976563,-0.011719 0.7148437,0 1.8164062,0 1.8164062,0.984375 0,0.3398437 -0.1523437,1.0195312 -0.5507812,1.4179687 -0.2578125,0.2578125 -0.7851563,0.5742188 -1.6757813,0.5742188 H 3.0931172 Z m 1.4296875,2.7304687 c 1.0078125,-0.2226562 2.1914063,-0.9140625 2.1914063,-1.921875 0,-0.8554687 -0.890625,-1.5 -2.203125,-1.5 H 2.3196797 c -0.1992188,0 -0.2929688,0 -0.2929688,0.1992188 0,0.1171875 0.09375,0.1171875 0.28125,0.1171875 0.023437,0 0.2109375,0 0.3867188,0.011719 0.1757812,0.023437 0.2578125,0.035156 0.2578125,0.1640625 0,0.035156 0,0.070312 -0.035156,0.1875 l -1.3359375,5.35546876 c -0.09375,0.38671875 -0.1171875,0.46875 -0.90234371,0.46875 -0.17578125,0 -0.26953125,0 -0.26953125,0.19921875 0,0.1054687525 0.1171875,0.1054687525 0.140625,0.1054687525 0.28125,0 0.97265626,-0.0351562525 1.25390626,-0.0351562525 0.28125,0 0.984375,0.0351562525 1.265625,0.0351562525 0.082031,0 0.1992187,0 0.1992187,-0.1992187525 0,-0.10546875 -0.09375,-0.10546875 -0.28125,-0.10546875 -0.3632812,0 -0.6445312,0 -0.6445312,-0.1875 0,-0.0585938 0.011719,-0.10546875 0.023437,-0.1640625 l 0.65625,-2.63671876 H 4.218117 c 0.9023437,0 1.078125,0.5507813 1.078125,0.9023438 0,0.1523437 -0.082031,0.4570312 -0.140625,0.6914062 -0.070312,0.2695313 -0.1523438,0.6445313 -0.1523438,0.84375001 0,1.078125 1.1953125,1.078125 1.3242188,1.078125 0.84375,0 1.1953125,-1.0078125 1.1953125,-1.1484375 0,-0.11718751 -0.1171875,-0.11718751 -0.1171875,-0.11718751 -0.09375,0 -0.1171875,0.0703125 -0.1289063,0.14062501 -0.2578125,0.73828125 -0.6796875,0.9023437525 -0.9140625,0.9023437525 -0.328125,0 -0.3984375,-0.2226562525 -0.3984375,-0.6093750025 0,-0.3046875 0.058594,-0.82031246 0.1054688,-1.13671876 0.011719,-0.140625 0.035156,-0.328125 0.035156,-0.46875 0,-0.7617187 -0.6679687,-1.078125 -0.9374996,-1.1718753 z m 0,0"
       style="fill:#000000;fill-opacity:1;fill-rule:nonzero;stroke:none"
       aria-label="R"
       transform="matrix(1.3333333,0,0,1.3333333,367.036,80.261333)" />
    <path
       id="path42"
       d="m 7.1889961,-4.5005195 c 0,-0.2109375 -0.070312,-0.2988282 -0.1347656,-0.2988282 -0.041016,0 -0.1347657,0.035156 -0.140625,0.2695313 -0.041016,0.6855469 -0.7382813,1.0957031 -1.3886719,1.0957031 -0.5742188,0 -1.0722656,-0.3105469 -1.59375,-0.6621094 -0.5332031,-0.3574218 -1.0722656,-0.7148437 -1.7226563,-0.7148437 -0.9257812,0 -1.66406246,0.7089844 -1.66406246,1.6230469 0,0.2167968 0.0820313,0.2988281 0.140625,0.2988281 0.0996094,0 0.140625,-0.1875 0.140625,-0.2285156 0.0527344,-0.8378907 0.86718746,-1.1367188 1.38281246,-1.1367188 0.5800782,0 1.078125,0.3105469 1.59375,0.65625 0.5390625,0.3632813 1.078125,0.7207031 1.7226563,0.7207031 0.9316406,0 1.6640625,-0.7089843 1.6640625,-1.6230468 z m 0,2.3261718 c 0,-0.2871093 -0.1171875,-0.3046875 -0.1347656,-0.3046875 -0.041016,0 -0.1347657,0.046875 -0.140625,0.2695313 -0.041016,0.6855469 -0.7382813,1.0957031 -1.3886719,1.0957031 -0.5742188,0 -1.0722656,-0.3105469 -1.59375,-0.6621094 C 3.3979805,-2.133332 2.858918,-2.4907539 2.2085273,-2.4907539 c -0.9257812,0 -1.66406246,0.7089844 -1.66406246,1.62304687 0,0.22265625 0.0820313,0.29882812 0.140625,0.29882812 0.0996094,0 0.140625,-0.1875 0.140625,-0.22851562 0.0527344,-0.83789067 0.86718746,-1.13671877 1.38281246,-1.13671877 0.5800782,0 1.078125,0.3105469 1.59375,0.65625 0.5390625,0.36328127 1.078125,0.72070314 1.7226563,0.72070314 0.9492187,0 1.6640625,-0.73828124 1.6640625,-1.61718754 z m 0,0"
       style="fill:#000000;fill-opacity:1;fill-rule:nonzero;stroke:none"
       aria-label="≈"
       transform="matrix(2.6666667,0,0,2.6666667,510.052,121.61467)" />
    <path
       id="path43"
       d="m 396.85533,0 h 26.64601 m 31.74839,0 h 26.64604"
       style="fill:none;stroke:#000000;stroke-width:0.3985;stroke-linecap:butt;stroke-linejoin:miter;stroke-miterlimit:10;stroke-dasharray:none;stroke-opacity:1"
       transform="matrix(1.3333333,0,0,-1.3333333,29.045333,190.788)" />
    <path
       id="path44"
       d="m 3.3162187,-0.76039062 c 0.035156,0.3984375 0.3046875,0.8203125 0.7734375,0.8203125 0.2109375,0 0.8203125,-0.140625 0.8203125,-0.94921875 V -1.4400781 H 4.663875 v 0.55078123 c 0,0.5859375 -0.2460938,0.64453125 -0.3632813,0.64453125 -0.328125,0 -0.3632812,-0.45703125 -0.3632812,-0.50390625 V -2.7408594 c 0,-0.4101562 0,-0.8085937 -0.3632813,-1.171875 -0.3867187,-0.3867187 -0.8789062,-0.5507812 -1.359375,-0.5507812 -0.8203125,0 -1.5117187,0.46875 -1.5117187,1.125 0,0.3046875 0.19921875,0.46875 0.4570312,0.46875 0.28125,0 0.46875,-0.1992188 0.46875,-0.4570313 0,-0.1171875 -0.058594,-0.4453125 -0.515625,-0.4570312 0.2695313,-0.3515625 0.7617188,-0.4570313 1.078125,-0.4570313 0.4921875,0 1.0546875,0.3867188 1.0546875,1.2773438 v 0.3632812 c -0.5039062,0.035156 -1.2070312,0.058594 -1.828125,0.3632813 -0.74999995,0.3398437 -0.9960937,0.8554687 -0.9960937,1.28906248 0,0.80859375 0.9609375,1.0546875 1.59375,1.0546875 0.65625,0 1.1132812,-0.3984375 1.3007812,-0.8671875 z M 3.2459062,-2.3892969 v 0.9960938 c 0,0.94921873 -0.7148437,1.28906248 -1.1601562,1.28906248 -0.4921875,0 -0.9023438,-0.3515625 -0.9023438,-0.85546875 0,-0.53906253 0.421875,-1.37109373 2.0625,-1.42968753 z m 0,0"
       style="fill:#000000;fill-opacity:1;fill-rule:nonzero;stroke:none"
       aria-label="a"
       transform="matrix(1.3333333,0,0,1.3333333,546.844,193.64667)" />
    <path
       id="path45"
       d="m 423.10284,0 3.04419,5.95285 5.29139,-11.9057 5.29138,11.9057 5.29138,-11.9057 5.29138,11.9057 5.29138,-11.9057 L 455.64815,0"
       style="fill:none;stroke:#000000;stroke-width:0.797;stroke-linecap:butt;stroke-linejoin:bevel;stroke-miterlimit:10;stroke-dasharray:none;stroke-opacity:1"
       transform="matrix(1.3333333,0,0,-1.3333333,29.045333,190.788)" />
    <path
       id="path46"
       d="m 398.44247,0 c 0,0.87656 -0.71058,1.58714 -1.58714,1.58714 -0.87655,0 -1.58714,-0.71058 -1.58714,-1.58714 0,-0.87656 0.71059,-1.58714 1.58714,-1.58714 0.87656,0 1.58714,0.71058 1.58714,1.58714 z"
       style="fill:#000000;fill-opacity:1;fill-rule:nonzero;stroke:#000000;stroke-width:0.3985;stroke-linecap:butt;stroke-linejoin:miter;stroke-miterlimit:10;stroke-dasharray:none;stroke-opacity:1"
       transform="matrix(1.3333333,0,0,-1.3333333,29.045333,190.788)" />
    <path
       id="path47"
       d="m 483.48291,0 c 0,0.87656 -0.71059,1.58714 -1.58714,1.58714 -0.87657,0 -1.58716,-0.71058 -1.58716,-1.58714 0,-0.87656 0.71059,-1.58714 1.58716,-1.58714 0.87655,0 1.58714,0.71058 1.58714,1.58714 z"
       style="fill:#000000;fill-opacity:1;fill-rule:nonzero;stroke:#000000;stroke-width:0.3985;stroke-linecap:butt;stroke-linejoin:miter;stroke-miterlimit:10;stroke-dasharray:none;stroke-opacity:1"
       transform="matrix(1.3333333,0,0,-1.3333333,29.045333,190.788)" />
    <path
       id="path48"
       d="m 3.7382891,-6.1160391 c 0.058594,-0.234375 0.082031,-0.3398437 0.28125,-0.3632812 0.082031,-0.011719 0.3984375,-0.011719 0.5976562,-0.011719 0.7148438,0 1.8164063,0 1.8164063,0.984375 0,0.3398438 -0.1523438,1.0195313 -0.5507813,1.4179688 -0.2578125,0.2578125 -0.7851562,0.5742187 -1.6757812,0.5742187 H 3.0937578 Z m 1.4296875,2.7304688 c 1.0078125,-0.2226563 2.1914062,-0.9140625 2.1914062,-1.921875 0,-0.8554688 -0.890625,-1.5 -2.203125,-1.5 H 2.3203203 c -0.1992187,0 -0.2929687,0 -0.2929687,0.1992187 0,0.1171875 0.09375,0.1171875 0.28125,0.1171875 0.023437,0 0.2109375,0 0.3867187,0.011719 0.1757813,0.023437 0.2578125,0.035156 0.2578125,0.1640625 0,0.035156 0,0.070312 -0.035156,0.1875 l -1.3359375,5.35546874 c -0.09375,0.38671875 -0.1171875,0.46875 -0.90234379,0.46875 -0.17578125,0 -0.26953125,0 -0.26953125,0.19921875 0,0.10546875 0.1171875,0.10546875 0.140625,0.10546875 0.28125,0 0.97265624,-0.03515625 1.25390624,-0.03515625 0.28125,0 0.984375,0.03515625 1.265625,0.03515625 0.082031,0 0.1992188,0 0.1992188,-0.19921875 0,-0.10546875 -0.09375,-0.10546875 -0.28125,-0.10546875 -0.3632813,0 -0.6445313,0 -0.6445313,-0.1875 0,-0.0585937 0.011719,-0.10546875 0.023437,-0.1640625 l 0.65625,-2.63671874 h 1.1953125 c 0.9023438,0 1.078125,0.5507812 1.078125,0.9023437 0,0.1523438 -0.082031,0.4570313 -0.140625,0.6914063 -0.070312,0.2695312 -0.1523437,0.6445312 -0.1523437,0.84374999 0,1.078125 1.1953125,1.078125 1.3242187,1.078125 0.84375,0 1.1953125,-1.0078125 1.1953125,-1.1484375 0,-0.11718749 -0.1171875,-0.11718749 -0.1171875,-0.11718749 -0.09375,0 -0.1171875,0.0703125 -0.1289062,0.14062499 -0.2578125,0.73828125 -0.6796875,0.90234375 -0.9140625,0.90234375 -0.328125,0 -0.3984375,-0.22265625 -0.3984375,-0.609375 0,-0.3046875 0.058594,-0.82031254 0.1054687,-1.13671874 0.011719,-0.140625 0.035156,-0.328125 0.035156,-0.46875 0,-0.7617188 -0.6679688,-1.078125 -0.9374994,-1.1718752 z m 0,0"
       style="fill:#000000;fill-opacity:1;fill-rule:nonzero;stroke:none"
       aria-label="R"
       transform="matrix(1.3333333,0,0,1.3333333,609.77733,177.768)" />
    <path
       id="path49"
       d="m 1.7112969,-3.7511719 v -3.1640625 l -1.42968752,0.1054688 v 0.3164062 c 0.69140625,0 0.77343752,0.070312 0.77343752,0.5507813 v 5.94140623 h 0.2460937 c 0.011719,-0.01171875 0.09375,-0.15234375 0.3632813,-0.62109375 0.1523437,0.234375 0.5625,0.7265625 1.3007812,0.7265625 1.1835938,0 2.2265625,-0.97265625 2.2265625,-2.26171878 0,-1.265625 -0.9726562,-2.25 -2.109375,-2.25 -0.7851562,0 -1.2070312,0.46875 -1.3710937,0.65625 z m 0.035156,2.6132813 v -2.0507813 c 0,-0.1875 0,-0.1992187 0.1054688,-0.3632812 0.3867187,-0.5507813 0.9375,-0.6328125 1.171875,-0.6328125 0.4570312,0 0.8085937,0.2578125 1.0546875,0.6328125 0.2578125,0.4101562 0.28125,0.984375 0.28125,1.3945312 0,0.3632813 -0.011719,0.9609375 -0.3046875,1.40625003 -0.2109375,0.31640625 -0.5859375,0.64453125 -1.125,0.64453125 -0.4453125,0 -0.8085938,-0.24609375 -1.0429688,-0.609375 -0.140625,-0.2109375 -0.140625,-0.24609375 -0.140625,-0.42187498 z m 0,0"
       style="fill:#000000;fill-opacity:1;fill-rule:nonzero;stroke:none"
       aria-label="b"
       transform="matrix(1.3333333,0,0,1.3333333,676.25733,195.4)" />
    <path
       id="path50"
       d="m 396.85533,0 v 113.38724 h 26.64601 m 31.74839,0 h 26.64604 V 0"
       style="fill:none;stroke:#000000;stroke-width:0.3985;stroke-linecap:butt;stroke-linejoin:miter;stroke-miterlimit:10;stroke-dasharray:none;stroke-opacity:1"
       transform="matrix(1.3333333,0,0,-1.3333333,29.045333,190.788)" />
    <path
       id="path51"
       d="m 423.10284,113.38724 3.04419,5.95285 5.29139,-11.9057 5.29138,11.9057 5.29138,-11.9057 5.29138,11.9057 5.29138,-11.9057 3.04421,5.95285"
       style="fill:none;stroke:#000000;stroke-width:0.797;stroke-linecap:butt;stroke-linejoin:bevel;stroke-miterlimit:10;stroke-dasharray:none;stroke-opacity:1"
       transform="matrix(1.3333333,0,0,-1.3333333,29.045333,190.788)" />
    <g
       id="g51"
       aria-label="2R"
       transform="matrix(1.3333333,0,0,1.3333333,606.456,26.586667)">
      <path
         id="path52"
         d="M 1.2663984,-0.76226563 2.3210859,-1.7935156 c 1.5585938,-1.3710938 2.15625,-1.9101563 2.15625,-2.90625 0,-1.1367188 -0.9023437,-1.9335938 -2.1210937,-1.9335938 -1.125,0 -1.85156251,0.9140625 -1.85156251,1.8046875 0,0.5507813 0.4921875,0.5507813 0.52734371,0.5507813 0.1640625,0 0.515625,-0.1171875 0.515625,-0.5273438 0,-0.2578125 -0.1875,-0.515625 -0.5273437,-0.515625 -0.0820313,0 -0.10546876,0 -0.12890626,0.011719 0.22265626,-0.6445313 0.76171876,-1.0195313 1.33593746,-1.0195313 0.9140625,0 1.3359375,0.8085938 1.3359375,1.6289063 0,0.796875 -0.4921875,1.5820312 -1.0429687,2.203125 L 0.61014844,-0.36382813 C 0.50467969,-0.25835938 0.50467969,-0.23492188 0.50467969,-5.46875e-4 H 4.1960859 L 4.4773359,-1.7349219 H 4.2195234 c -0.046875,0.3046875 -0.1171875,0.73828127 -0.2109375,0.89062502 -0.070312,0.0820313 -0.7265625,0.0820313 -0.9492187,0.0820313 z m 0,0"
         style="fill:#000000;fill-opacity:1;fill-rule:nonzero;stroke:none" />
      <path
         id="path53"
         d="m 8.7195234,-6.1177344 c 0.058594,-0.234375 0.082031,-0.3398437 0.28125,-0.3632812 0.082031,-0.011719 0.3984375,-0.011719 0.5976563,-0.011719 0.7148433,0 1.8164063,0 1.8164063,0.984375 0,0.3398438 -0.152344,1.0195313 -0.550781,1.4179688 -0.257813,0.2578125 -0.785157,0.5742187 -1.6757816,0.5742187 H 8.0749922 Z m 1.4296876,2.7304688 c 1.007812,-0.2226563 2.191406,-0.9140625 2.191406,-1.921875 0,-0.8554688 -0.890625,-1.5 -2.203125,-1.5 H 7.3015547 c -0.1992188,0 -0.2929688,0 -0.2929688,0.1992187 0,0.1171875 0.09375,0.1171875 0.28125,0.1171875 0.023437,0 0.2109375,0 0.3867188,0.011719 0.1757812,0.023437 0.2578125,0.035156 0.2578125,0.1640625 0,0.035156 0,0.070312 -0.035156,0.1875 l -1.3359375,5.35546872 c -0.09375,0.38671875 -0.1171875,0.46875 -0.9023437,0.46875 -0.1757813,0 -0.2695313,0 -0.2695313,0.19921875 0,0.105468755 0.1171875,0.105468755 0.140625,0.105468755 0.28125,0 0.9726563,-0.035156255 1.2539063,-0.035156255 0.28125,0 0.984375,0.035156255 1.265625,0.035156255 0.082031,0 0.1992187,0 0.1992187,-0.199218755 0,-0.10546875 -0.09375,-0.10546875 -0.28125,-0.10546875 -0.3632812,0 -0.6445312,0 -0.6445312,-0.1875 0,-0.0585938 0.011719,-0.10546875 0.023437,-0.1640625 l 0.65625,-2.63671872 H 9.199992 c 0.902344,0 1.078125,0.5507812 1.078125,0.9023437 0,0.1523438 -0.08203,0.4570313 -0.140625,0.6914063 -0.07031,0.2695312 -0.1523438,0.6445312 -0.1523438,0.84374997 0,1.078125 1.1953128,1.078125 1.3242188,1.078125 0.84375,0 1.195313,-1.0078125 1.195313,-1.1484375 0,-0.11718747 -0.117188,-0.11718747 -0.117188,-0.11718747 -0.09375,0 -0.117187,0.0703125 -0.128906,0.14062497 -0.257813,0.73828125 -0.679688,0.902343755 -0.914063,0.902343755 -0.328125,0 -0.398437,-0.222656255 -0.398437,-0.609375005 0,-0.3046875 0.05859,-0.82031252 0.105469,-1.13671872 0.01172,-0.140625 0.03516,-0.328125 0.03516,-0.46875 0,-0.7617188 -0.667969,-1.078125 -0.9375,-1.171875 z m 0,0"
         style="fill:#000000;fill-opacity:1;fill-rule:nonzero;stroke:none" />
    </g>
    <path
       id="path54"
       d="m 396.85533,56.69362 h 26.64601 m 31.74839,0 h 26.64604"
       style="fill:none;stroke:#000000;stroke-width:0.3985;stroke-linecap:butt;stroke-linejoin:miter;stroke-miterlimit:10;stroke-dasharray:none;stroke-opacity:1"
       transform="matrix(1.3333333,0,0,-1.3333333,29.045333,190.788)" />
    <path
       id="path55"
       d="m 423.10284,56.69362 3.04419,5.95285 5.29139,-11.90572 5.29138,11.90572 5.29138,-11.90572 5.29138,11.90572 5.29138,-11.90572 3.04421,5.95287"
       style="fill:none;stroke:#000000;stroke-width:0.797;stroke-linecap:butt;stroke-linejoin:bevel;stroke-miterlimit:10;stroke-dasharray:none;stroke-opacity:1"
       transform="matrix(1.3333333,0,0,-1.3333333,29.045333,190.788)" />
    <g
       id="g55"
       aria-label="2R"
       transform="matrix(1.3333333,0,0,1.3333333,606.456,102.17733)">
      <path
         id="path56"
         d="M 1.2663984,-0.76288281 2.3210859,-1.7941328 c 1.5585938,-1.3710938 2.15625,-1.9101563 2.15625,-2.90625 0,-1.1367188 -0.9023437,-1.9335938 -2.1210937,-1.9335938 -1.125,0 -1.85156251,0.9140625 -1.85156251,1.8046875 0,0.5507813 0.4921875,0.5507813 0.52734371,0.5507813 0.1640625,0 0.515625,-0.1171875 0.515625,-0.5273438 0,-0.2578125 -0.1875,-0.515625 -0.5273437,-0.515625 -0.0820313,0 -0.10546876,0 -0.12890626,0.011719 0.22265626,-0.6445313 0.76171876,-1.0195313 1.33593746,-1.0195313 0.9140625,0 1.3359375,0.8085938 1.3359375,1.6289063 0,0.796875 -0.4921875,1.5820312 -1.0429687,2.203125 L 0.61014844,-0.36444531 C 0.50467969,-0.25897656 0.50467969,-0.23553906 0.50467969,-0.00116406 H 4.1960859 l 0.28125,-1.73437504 H 4.2195234 c -0.046875,0.3046875 -0.1171875,0.73828129 -0.2109375,0.89062504 -0.070312,0.0820313 -0.7265625,0.0820313 -0.9492187,0.0820313 z m 0,0"
         style="fill:#000000;fill-opacity:1;fill-rule:nonzero;stroke:none" />
      <path
         id="path57"
         d="m 8.7195234,-6.1183516 c 0.058594,-0.234375 0.082031,-0.3398437 0.28125,-0.3632812 0.082031,-0.011719 0.3984375,-0.011719 0.5976563,-0.011719 0.7148433,0 1.8164063,0 1.8164063,0.984375 0,0.3398438 -0.152344,1.0195313 -0.550781,1.4179688 -0.257813,0.2578125 -0.785157,0.5742187 -1.6757816,0.5742187 H 8.0749922 Z m 1.4296876,2.7304688 c 1.007812,-0.2226563 2.191406,-0.9140625 2.191406,-1.921875 0,-0.8554688 -0.890625,-1.5 -2.203125,-1.5 H 7.3015547 c -0.1992188,0 -0.2929688,0 -0.2929688,0.1992187 0,0.1171875 0.09375,0.1171875 0.28125,0.1171875 0.023437,0 0.2109375,0 0.3867188,0.011719 0.1757812,0.023437 0.2578125,0.035156 0.2578125,0.1640625 0,0.035156 0,0.070312 -0.035156,0.1875 l -1.3359375,5.35546874 c -0.09375,0.38671875 -0.1171875,0.46875 -0.9023437,0.46875 -0.1757813,0 -0.2695313,0 -0.2695313,0.19921875 0,0.10546875 0.1171875,0.10546875 0.140625,0.10546875 0.28125,0 0.9726563,-0.03515625 1.2539063,-0.03515625 0.28125,0 0.984375,0.03515625 1.265625,0.03515625 0.082031,0 0.1992187,0 0.1992187,-0.19921875 0,-0.10546875 -0.09375,-0.10546875 -0.28125,-0.10546875 -0.3632812,0 -0.6445312,0 -0.6445312,-0.1875 0,-0.0585938 0.011719,-0.10546875 0.023437,-0.1640625 l 0.65625,-2.63671874 H 9.199992 c 0.902344,0 1.078125,0.5507812 1.078125,0.9023437 0,0.1523438 -0.08203,0.4570313 -0.140625,0.6914063 -0.07031,0.2695312 -0.1523438,0.6445312 -0.1523438,0.84374999 0,1.078125 1.1953128,1.078125 1.3242188,1.078125 0.84375,0 1.195313,-1.0078125 1.195313,-1.1484375 0,-0.11718749 -0.117188,-0.11718749 -0.117188,-0.11718749 -0.09375,0 -0.117187,0.0703125 -0.128906,0.14062499 -0.257813,0.73828125 -0.679688,0.90234375 -0.914063,0.90234375 -0.328125,0 -0.398437,-0.22265625 -0.398437,-0.609375 0,-0.3046875 0.05859,-0.82031254 0.105469,-1.13671874 0.01172,-0.140625 0.03516,-0.328125 0.03516,-0.46875 0,-0.7617188 -0.667969,-1.078125 -0.9375,-1.171875 z m 0,0"
         style="fill:#000000;fill-opacity:1;fill-rule:nonzero;stroke:none" />
    </g>
  </g>
</svg>
