<?xml version="1.0" encoding="UTF-8" standalone="no"?>
<!-- Created with Inkscape (http://www.inkscape.org/) -->

<svg
   version="1.1"
   id="svg1"
   width="578.32312"
   height="243.02448"
   viewBox="0 0 578.32312 243.02448"
   xmlns="http://www.w3.org/2000/svg"
   xmlns:svg="http://www.w3.org/2000/svg">
  <defs
     id="defs1" />
  <g
     id="g1"
     transform="translate(-18.164064,-13.169816)">
    <path
       id="path1"
       d="m 0,0 h 64.91415 m 11.9057,0 h 64.91419 V 113.38724 H 86.74121 m -31.7484,0 H 0 V 0"
       style="fill:none;stroke:#000000;stroke-width:0.3985;stroke-linecap:butt;stroke-linejoin:miter;stroke-miterlimit:10;stroke-dasharray:none;stroke-opacity:1"
       transform="matrix(1.3333333,0,0,-1.3333333,29.285333,240.32)" />
    <path
       id="path2"
       d="m 72.83145,0 h 3.9884 m -7.91729,0 h -3.98841"
       style="fill:none;stroke:#000000;stroke-width:0.3985;stroke-linecap:butt;stroke-linejoin:miter;stroke-miterlimit:10;stroke-dasharray:none;stroke-opacity:1"
       transform="matrix(1.3333333,0,0,-1.3333333,29.285333,240.32)" />
    <path
       id="path3"
       d="M 72.83145,5.95285 V -5.95285 M 68.90256,11.90572 V -11.90572"
       style="fill:none;stroke:#000000;stroke-width:0.797;stroke-linecap:butt;stroke-linejoin:miter;stroke-miterlimit:10;stroke-dasharray:none;stroke-opacity:1"
       transform="matrix(1.3333333,0,0,-1.3333333,29.285333,240.32)" />
    <g
       id="g3"
       aria-label="V&#10;0"
       transform="matrix(1.3333333,0,0,1.3333333,116.92,218.56933)">
      <path
         id="path4"
         d="m 6.2592188,-5.6711406 c 0.4804687,-0.7734375 0.9023437,-0.8085938 1.2773437,-0.8203125 0.1171875,-0.011719 0.1289063,-0.1875 0.1289063,-0.1875 0,-0.082031 -0.058594,-0.1289063 -0.1289063,-0.1289063 -0.2578125,0 -0.5507812,0.035156 -0.8203125,0.035156 -0.328125,0 -0.6679687,-0.035156 -0.984375,-0.035156 -0.058594,0 -0.1875,0 -0.1875,0.1992188 0,0.1054687 0.082031,0.1171875 0.1523438,0.1171875 0.2695312,0.011719 0.4570312,0.1171875 0.4570312,0.328125 0,0.1523437 -0.140625,0.3632812 -0.140625,0.375 L 2.9545313,-0.92504687 2.2748438,-6.1984844 c 0,-0.1640625 0.2226562,-0.2929687 0.6796875,-0.2929687 0.140625,0 0.2578125,0 0.2578125,-0.1992188 0,-0.09375 -0.082031,-0.1171875 -0.140625,-0.1171875 -0.3984375,0 -0.8320313,0.035156 -1.2421875,0.035156 -0.1757813,0 -0.3632813,-0.011719 -0.5390625,-0.011719 -0.1875,0 -0.37500005,-0.023437 -0.53906255,-0.023437 -0.0703125,0 -0.1875,0 -0.1875,0.1992188 0,0.1171875 0.0820313,0.1171875 0.24609375,0.1171875 0.5507813,0 0.5625,0.082031 0.5976563,0.3398437 l 0.7851562,6.14062503 c 0.035156,0.19921875 0.070312,0.234375 0.1992188,0.234375 0.1640625,0 0.1992187,-0.0585938 0.28125,-0.1875 z m 0,0"
         style="fill:#000000;fill-opacity:1;fill-rule:nonzero;stroke:none" />
      <path
         id="path5"
         d="m 9.4086328,-0.7316875 c 0,-0.7617187 -0.09375,-1.3125 -0.4101562,-1.8046875 -0.2226563,-0.3164062 -0.6445313,-0.5976562 -1.2070313,-0.5976562 -1.6171875,0 -1.6171875,1.8984375 -1.6171875,2.4023437 0,0.50390625 0,2.3671875 1.6171875,2.3671875 1.6171875,0 1.6171875,-1.86328125 1.6171875,-2.3671875 z M 7.7914453,1.4362813 c -0.3164062,0 -0.75,-0.1875 -0.890625,-0.7617188 -0.09375,-0.41015625 -0.09375,-0.984375 -0.09375,-1.5 0,-0.5039062 0,-1.03125 0.1054688,-1.4179687 0.1523437,-0.5507813 0.5976562,-0.6914063 0.8789062,-0.6914063 0.375,0 0.7382813,0.2226563 0.8671875,0.6328125 0.1054688,0.375 0.1171875,0.8789063 0.1171875,1.4765625 0,0.515625 0,1.04296875 -0.09375,1.4765625 -0.140625,0.6328125 -0.609375,0.7851563 -0.890625,0.7851563 z m 0,0"
         style="fill:#000000;fill-opacity:1;fill-rule:nonzero;stroke:none" />
    </g>
    <path
       id="path6"
       d="m 87.13971,113.38724 -3.04419,-5.95285 -5.2914,11.9057 -5.29138,-11.9057 -5.29138,11.9057 -5.29138,-11.9057 -5.29138,11.9057 -3.0442,-5.95285"
       style="fill:none;stroke:#000000;stroke-width:0.797;stroke-linecap:butt;stroke-linejoin:bevel;stroke-miterlimit:10;stroke-dasharray:none;stroke-opacity:1"
       transform="matrix(1.3333333,0,0,-1.3333333,29.285333,240.32)" />
    <path
       id="path7"
       d="m 3.7390469,-6.1182812 c 0.058594,-0.234375 0.082031,-0.3398438 0.28125,-0.3632813 0.082031,-0.011719 0.3984375,-0.011719 0.5976562,-0.011719 0.7148438,0 1.8164063,0 1.8164063,0.984375 0,0.3398437 -0.1523438,1.0195312 -0.5507813,1.4179687 C 5.6257656,-3.8331253 5.0984219,-3.516719 4.2077969,-3.516719 H 3.0945156 Z m 1.4296875,2.7304687 c 1.0078125,-0.2226562 2.1914062,-0.9140625 2.1914062,-1.921875 0,-0.8554687 -0.890625,-1.5 -2.203125,-1.5 H 2.3210781 c -0.1992187,0 -0.2929687,0 -0.2929687,0.1992188 0,0.1171875 0.09375,0.1171875 0.28125,0.1171875 0.023437,0 0.2109375,0 0.3867187,0.011719 0.1757813,0.023437 0.2578125,0.035156 0.2578125,0.1640625 0,0.035156 0,0.070312 -0.035156,0.1875 l -1.3359375,5.35546875 c -0.09375,0.38671875 -0.1171875,0.46875 -0.90234377,0.46875 -0.17578125,0 -0.26953125,0 -0.26953125,0.19921875 0,0.10546875 0.1171875,0.10546875 0.140625,0.10546875 0.28125,0 0.97265622,-0.03515625 1.25390622,-0.03515625 0.28125,0 0.984375,0.03515625 1.265625,0.03515625 0.082031,0 0.1992188,0 0.1992188,-0.19921875 0,-0.10546875 -0.09375,-0.10546875 -0.28125,-0.10546875 -0.3632813,0 -0.6445313,0 -0.6445313,-0.1875 0,-0.0585938 0.011719,-0.10546875 0.023437,-0.1640625 l 0.65625,-2.63671875 h 1.1953125 c 0.9023438,0 1.078125,0.5507813 1.078125,0.9023438 0,0.1523437 -0.082031,0.4570312 -0.140625,0.6914062 -0.070312,0.2695313 -0.1523437,0.6445313 -0.1523437,0.84375 0,1.078125 1.1953125,1.078125 1.3242187,1.078125 0.84375,0 1.1953125,-1.0078125 1.1953125,-1.1484375 0,-0.1171875 -0.1171875,-0.1171875 -0.1171875,-0.1171875 -0.09375,0 -0.1171875,0.0703125 -0.1289062,0.140625 -0.2578125,0.73828125 -0.6796875,0.90234375 -0.9140625,0.90234375 -0.328125,0 -0.3984375,-0.22265625 -0.3984375,-0.609375 0,-0.3046875 0.058594,-0.82031245 0.1054687,-1.13671875 0.011719,-0.140625 0.035156,-0.328125 0.035156,-0.46875 0,-0.7617187 -0.6679688,-1.078125 -0.9374994,-1.1718753 z m 0,0"
       style="fill:#000000;fill-opacity:1;fill-rule:nonzero;stroke:none"
       aria-label="R"
       transform="matrix(1.3333333,0,0,1.3333333,118.67867,111.17333)" />
    <path
       id="path8"
       d="M 14.17339,113.38724 31.29543,96.26518 M 53.74495,73.81566 70.867,56.69362 87.98904,73.81566 m 22.44953,22.44952 17.12205,17.12206"
       style="fill:none;stroke:#000000;stroke-width:0.3985;stroke-linecap:butt;stroke-linejoin:miter;stroke-miterlimit:10;stroke-dasharray:none;stroke-opacity:1"
       transform="matrix(1.3333333,0,0,-1.3333333,29.285333,240.32)" />
    <path
       id="path9"
       d="m 31.01364,96.54697 6.36189,2.05671 -4.67704,-12.16018 12.16018,4.67704 -4.67703,-12.16018 12.16017,4.67704 -4.67703,-12.16018 6.36189,2.05672"
       style="fill:none;stroke:#000000;stroke-width:0.797;stroke-linecap:butt;stroke-linejoin:bevel;stroke-miterlimit:10;stroke-dasharray:none;stroke-opacity:1"
       transform="matrix(1.3333333,0,0,-1.3333333,29.285333,240.32)" />
    <path
       id="path10"
       d="m 3.7449784,-6.1167809 c 0.049719,-0.2320216 0.082865,-0.3480325 0.2817405,-0.3646054 0.066292,-0.016573 0.3977514,-0.016573 0.5966271,-0.016573 0.7126379,0 1.8064542,0 1.8064542,0.9943784 0,0.3314595 -0.1491568,1.0109515 -0.5469081,1.4087028 C 5.6177245,-3.8297105 5.1039623,-3.514824 4.2090217,-3.514824 H 3.0986324 Z m 1.4252758,2.7345407 c 1.0109514,-0.2320216 2.1876325,-0.9280865 2.1876325,-1.922465 0,-0.8617946 -0.8949406,-1.5081406 -2.2042055,-1.5081406 H 2.3197026 c -0.1988757,0 -0.2983135,0 -0.2983135,0.1988757 0,0.1160108 0.099438,0.1160108 0.2817405,0.1160108 0.033146,0 0.2154487,0 0.3977514,0.016573 0.1657298,0.016573 0.2485946,0.033146 0.2485946,0.1657297 0,0.033146 0,0.066292 -0.033146,0.1823027 l -1.3424109,5.35307066 c -0.082865,0.39775138 -0.1160108,0.48061625 -0.89494062,0.48061625 -0.18230272,0 -0.26516759,0 -0.26516759,0.19887569 0,0.09943784 0.11601082,0.09943784 0.13258379,0.09943784 0.28174056,0 0.97780552,-0.03314595 1.25954602,-0.03314595 0.2817406,0 0.9778055,0.03314595 1.259546,0.03314595 0.082865,0 0.1988757,0 0.1988757,-0.19887569 0,-0.0994378 -0.082865,-0.0994378 -0.2817405,-0.0994378 -0.3646055,0 -0.646346,0 -0.646346,-0.19887569 0,-0.0497189 0.016573,-0.0994378 0.033146,-0.16572974 l 0.646346,-2.63510292 h 1.2098271 c 0.8949406,0 1.0772434,0.5634811 1.0772434,0.9115136 0,0.1491567 -0.082865,0.4474703 -0.1491568,0.6794919 -0.066292,0.2817406 -0.1491568,0.646346 -0.1491568,0.84522173 0,1.07724331 1.1932542,1.07724331 1.325838,1.07724331 0.8452216,0 1.1932541,-0.99437844 1.1932541,-1.14353521 0,-0.11601083 -0.1160108,-0.11601083 -0.1160108,-0.11601083 -0.099438,0 -0.1160108,0.0662919 -0.1325838,0.14915678 -0.2485946,0.72921086 -0.679492,0.8949406 -0.9115136,0.8949406 -0.3314595,0 -0.3977514,-0.21544866 -0.3977514,-0.61320004 0,-0.29831354 0.049719,-0.81207574 0.099438,-1.12696224 0.016573,-0.1491568 0.033146,-0.3314595 0.033146,-0.4806163 0,-0.7623568 -0.662919,-1.0772433 -0.9280867,-1.1601082 z m 0,0"
       style="fill:#000000;fill-opacity:1;fill-rule:nonzero;stroke:none"
       aria-label="R"
       transform="matrix(0.9428,0.9428,-0.9428,0.9428,91.077333,114.63067)" />
    <path
       id="path11"
       d="m 87.70726,73.53387 -2.05672,6.3619 12.16017,-4.67704 -4.67703,12.16017 12.16019,-4.67703 -4.67705,12.16019 12.16019,-4.67705 -2.05672,6.36189"
       style="fill:none;stroke:#000000;stroke-width:0.797;stroke-linecap:butt;stroke-linejoin:bevel;stroke-miterlimit:10;stroke-dasharray:none;stroke-opacity:1"
       transform="matrix(1.3333333,0,0,-1.3333333,29.285333,240.32)" />
    <path
       id="path12"
       d="m 3.74568,-6.1153059 c 0.049719,-0.2320217 0.082865,-0.3480325 0.2817405,-0.3646054 0.066292,-0.016573 0.3977514,-0.016573 0.5966271,-0.016573 0.7126379,0 1.8064542,0 1.8064542,0.9943784 0,0.3314595 -0.1491568,1.0109514 -0.5469082,1.4087028 C 5.6184261,-3.8282355 5.1046639,-3.513349 4.2097233,-3.513349 H 3.099334 Z m 1.4252758,2.7345407 c 1.0109514,-0.2320216 2.1876325,-0.9280865 2.1876325,-1.922465 0,-0.8617946 -0.8949406,-1.5081406 -2.2042055,-1.5081406 H 2.3204042 c -0.1988757,0 -0.2983135,0 -0.2983135,0.1988757 0,0.1160108 0.099438,0.1160108 0.2817405,0.1160108 0.033146,0 0.2154487,0 0.3977514,0.016573 0.1657297,0.016573 0.2485946,0.033146 0.2485946,0.1657297 0,0.033146 0,0.066292 -0.033146,0.1823027 L 1.5746204,-0.77880825 C 1.4917555,-0.38105687 1.4586095,-0.298192 0.67967977,-0.298192 c -0.18230272,0 -0.26516759,0 -0.26516759,0.19887569 0,0.0994378451 0.11601082,0.0994378451 0.13258379,0.0994378451 0.28174056,0 0.97780543,-0.0331459451 1.25954603,-0.0331459451 0.2817406,0 0.9778055,0.0331459451 1.259546,0.0331459451 0.082865,0 0.1988757,0 0.1988757,-0.1988756851 0,-0.0994379 -0.082865,-0.0994379 -0.2817405,-0.0994379 -0.3646055,0 -0.646346,0 -0.646346,-0.19887569 0,-0.0497189 0.016573,-0.0994378 0.033146,-0.16572974 l 0.646346,-2.63510292 h 1.2098271 c 0.8949406,0 1.0772433,0.5634811 1.0772433,0.9115136 0,0.1491567 -0.082865,0.4474703 -0.1491567,0.6794919 -0.066292,0.2817406 -0.1491568,0.646346 -0.1491568,0.84522173 0,1.07724332 1.1932541,1.07724332 1.3258379,1.07724332 0.8452217,0 1.1932542,-0.99437845 1.1932542,-1.14353522 0,-0.11601083 -0.1160108,-0.11601083 -0.1160108,-0.11601083 -0.099438,0 -0.1160109,0.0662919 -0.1325838,0.14915678 C 7.027129,-0.16560826 6.5962316,1.214851e-4 6.36421,1.214851e-4 c -0.3314595,0 -0.3977514,-0.2154486651 -0.3977514,-0.6132000451 0,-0.29831353 0.049719,-0.81207574 0.099438,-1.12696224 0.016573,-0.1491568 0.033146,-0.3314595 0.033146,-0.4806163 0,-0.7623568 -0.662919,-1.0772433 -0.9280868,-1.1601081 z m 0,0"
       style="fill:#000000;fill-opacity:1;fill-rule:nonzero;stroke:none"
       aria-label="R"
       transform="matrix(0.9428,-0.9428,0.9428,0.9428,149.26533,121.836)" />
    <path
       id="path13"
       d="m 14.17339,113.38724 17.12204,17.12204 M 53.74495,152.9588 70.867,170.08086 87.98904,152.9588 m 22.44953,-22.44952 17.12205,-17.12204"
       style="fill:none;stroke:#000000;stroke-width:0.3985;stroke-linecap:butt;stroke-linejoin:miter;stroke-miterlimit:10;stroke-dasharray:none;stroke-opacity:1"
       transform="matrix(1.3333333,0,0,-1.3333333,29.285333,240.32)" />
    <path
       id="path14"
       d="m 31.01364,130.2275 -2.05672,6.36189 12.16018,-4.67704 -4.67704,12.16018 12.16019,-4.67703 -4.67705,12.16018 12.16019,-4.67705 -2.05672,6.36189"
       style="fill:none;stroke:#000000;stroke-width:0.797;stroke-linecap:butt;stroke-linejoin:bevel;stroke-miterlimit:10;stroke-dasharray:none;stroke-opacity:1"
       transform="matrix(1.3333333,0,0,-1.3333333,29.285333,240.32)" />
    <path
       id="path15"
       d="m 3.74568,-6.1144331 c 0.049719,-0.2320216 0.082865,-0.3480324 0.2817405,-0.3646054 0.066292,-0.016573 0.3977514,-0.016573 0.5966271,-0.016573 0.7126379,0 1.8064542,0 1.8064542,0.9943785 0,0.3314595 -0.1491568,1.0109514 -0.5469082,1.4087028 -0.2651675,0.2651676 -0.7789297,0.5800541 -1.6738703,0.5800541 H 3.099334 Z m 1.4252758,2.7345408 c 1.0109514,-0.2320217 2.1876325,-0.9280866 2.1876325,-1.922465 0,-0.8617947 -0.8949406,-1.5081407 -2.2042055,-1.5081407 H 2.3204042 c -0.1988757,0 -0.2983135,0 -0.2983135,0.1988757 0,0.1160108 0.099438,0.1160108 0.2817405,0.1160108 0.033146,0 0.2154487,0 0.3977514,0.016573 0.1657297,0.016573 0.2485946,0.033146 0.2485946,0.1657297 0,0.033146 0,0.066292 -0.033146,0.1823028 l -1.3424109,5.35307059 c -0.082865,0.39775138 -0.1160109,0.48061625 -0.89494063,0.48061625 -0.18230272,0 -0.26516759,0 -0.26516759,0.19887569 0,0.0994378485 0.11601082,0.0994378485 0.13258379,0.0994378485 0.28174056,0 0.97780543,-0.0331459485 1.25954603,-0.0331459485 0.2817406,0 0.9778055,0.0331459485 1.259546,0.0331459485 0.082865,0 0.1988757,0 0.1988757,-0.1988756885 0,-0.0994379 -0.082865,-0.0994379 -0.2817405,-0.0994379 -0.3646055,0 -0.646346,0 -0.646346,-0.19887569 0,-0.0497189 0.016573,-0.0994378 0.033146,-0.16572974 l 0.646346,-2.63510286 h 1.2098271 c 0.8949406,0 1.0772433,0.5634811 1.0772433,0.9115136 0,0.1491568 -0.082865,0.4474703 -0.1491567,0.6794919 -0.066292,0.2817406 -0.1491568,0.646346 -0.1491568,0.84522167 0,1.07724332 1.1932541,1.07724332 1.3258379,1.07724332 0.8452217,0 1.1932542,-0.99437845 1.1932542,-1.14353521 0,-0.11601078 -0.1160108,-0.11601078 -0.1160108,-0.11601078 -0.099438,0 -0.1160109,0.0662918 -0.1325838,0.14915673 -0.2485946,0.72921086 -0.679492,0.8949405985 -0.9115136,0.8949405985 -0.3314595,0 -0.3977514,-0.2154486685 -0.3977514,-0.6132000385 0,-0.29831354 0.049719,-0.81207569 0.099438,-1.12696219 0.016573,-0.1491568 0.033146,-0.3314595 0.033146,-0.4806163 0,-0.7623568 -0.662919,-1.0772433 -0.9280867,-1.1601081 z m 0,0"
       style="fill:#000000;fill-opacity:1;fill-rule:nonzero;stroke:none"
       aria-label="R"
       transform="matrix(0.9428,-0.9428,0.9428,0.9428,73.674667,46.245333)" />
    <path
       id="path16"
       d="m 87.70726,153.24059 6.36189,2.05671 -4.67705,-12.16017 12.16019,4.67703 -4.67703,-12.16018 12.16017,4.67704 -4.67703,-12.16018 6.36189,2.05671"
       style="fill:none;stroke:#000000;stroke-width:0.797;stroke-linecap:butt;stroke-linejoin:bevel;stroke-miterlimit:10;stroke-dasharray:none;stroke-opacity:1"
       transform="matrix(1.3333333,0,0,-1.3333333,29.285333,240.32)" />
    <path
       id="path17"
       d="m 3.7449784,-6.1169081 c 0.049719,-0.2320216 0.082865,-0.3480324 0.2817405,-0.3646054 0.066292,-0.016573 0.3977514,-0.016573 0.5966271,-0.016573 0.7126379,0 1.8064542,0 1.8064542,0.9943785 0,0.3314595 -0.1491568,1.0109514 -0.5469081,1.4087028 -0.2651676,0.2651676 -0.7789298,0.5800541 -1.6738704,0.5800541 H 3.0986324 Z m 1.4252758,2.7345408 c 1.0109514,-0.2320217 2.1876325,-0.9280866 2.1876325,-1.922465 0,-0.8617947 -0.8949406,-1.5081407 -2.2042055,-1.5081407 H 2.3197026 c -0.1988757,0 -0.2983135,0 -0.2983135,0.1988757 0,0.1160108 0.099438,0.1160108 0.2817405,0.1160108 0.033146,0 0.2154487,0 0.3977514,0.016573 0.1657298,0.016573 0.2485946,0.033146 0.2485946,0.1657297 0,0.033146 0,0.066292 -0.033146,0.1823028 l -1.3424109,5.3530706 c -0.082865,0.39775138 -0.1160108,0.48061625 -0.89494062,0.48061625 -0.18230272,0 -0.26516759,0 -0.26516759,0.19887569 0,0.09943784 0.11601082,0.09943784 0.13258379,0.09943784 0.28174056,0 0.97780552,-0.03314594 1.25954602,-0.03314594 0.2817406,0 0.9778055,0.03314594 1.259546,0.03314594 0.082865,0 0.1988757,0 0.1988757,-0.19887569 0,-0.0994378 -0.082865,-0.0994378 -0.2817405,-0.0994378 -0.3646055,0 -0.646346,0 -0.646346,-0.19887569 0,-0.0497189 0.016573,-0.0994378 0.033146,-0.16572974 l 0.646346,-2.63510296 h 1.2098271 c 0.8949406,0 1.0772434,0.5634812 1.0772434,0.9115136 0,0.1491568 -0.082865,0.4474703 -0.1491568,0.6794919 -0.066292,0.2817406 -0.1491568,0.646346 -0.1491568,0.84522177 0,1.07724332 1.1932542,1.07724332 1.325838,1.07724332 0.8452216,0 1.1932541,-0.99437845 1.1932541,-1.14353522 0,-0.11601087 -0.1160108,-0.11601087 -0.1160108,-0.11601087 -0.099438,0 -0.1160108,0.0662919 -0.1325838,0.14915682 -0.2485946,0.72921086 -0.679492,0.8949406 -0.9115136,0.8949406 -0.3314595,0 -0.3977514,-0.21544866 -0.3977514,-0.61320004 0,-0.29831353 0.049719,-0.81207578 0.099438,-1.12696228 0.016573,-0.1491568 0.033146,-0.3314595 0.033146,-0.4806162 0,-0.7623569 -0.662919,-1.0772434 -0.9280867,-1.1601082 z m 0,0"
       style="fill:#000000;fill-opacity:1;fill-rule:nonzero;stroke:none"
       aria-label="R"
       transform="matrix(0.9428,0.9428,-0.9428,0.9428,166.66706,39.040943)" />
    <path
       id="path18"
       d="m 0,0 v 42.5202 m 0,0 v 42.52022"
       style="fill:none;stroke:#000000;stroke-width:0.3985;stroke-linecap:butt;stroke-linejoin:miter;stroke-miterlimit:10;stroke-dasharray:none;stroke-opacity:1"
       transform="matrix(1.3333333,0,0,-1.3333333,29.285333,240.32)" />
    <path
       id="path19"
       d="M 0,40.78398 H 1.98425 L 0,45.00052 -1.98425,40.78398 Z"
       style="fill:#000000;fill-opacity:1;fill-rule:nonzero;stroke:#000000;stroke-width:0.3985;stroke-linecap:butt;stroke-linejoin:miter;stroke-miterlimit:10;stroke-dasharray:none;stroke-opacity:1"
       transform="matrix(1.3333333,0,0,-1.3333333,29.285333,240.32)" />
    <path
       id="path20"
       d="m 3.7267656,-6.0341797 c 0.09375,-0.3632812 0.1171875,-0.4570312 0.9023438,-0.4570312 0.2460937,0 0.3164062,0 0.3164062,-0.1875 0,-0.1289063 -0.1054687,-0.1289063 -0.140625,-0.1289063 -0.2929687,0 -1.03125,0.035156 -1.3125,0.035156 -0.3046875,0 -1.03125,-0.035156 -1.3359375,-0.035156 -0.058594,0 -0.1992187,0 -0.1992187,0.1992188 0,0.1171875 0.09375,0.1171875 0.28125,0.1171875 0.421875,0 0.6914062,0 0.6914062,0.1875 0,0.046875 0,0.070312 -0.023437,0.1640625 l -1.3476562,5.36718746 c -0.082031,0.36328125 -0.1171875,0.46875 -0.90234377,0.46875 -0.22265625,0 -0.31640625,0 -0.31640625,0.19921875 0,0.1054687525 0.1171875,0.1054687525 0.15234375,0.1054687525 0.28125,0 1.00781247,-0.0351562525 1.30078127,-0.0351562525 0.3046875,0 1.03125,0.0351562525 1.3359375,0.0351562525 0.082031,0 0.1992187,0 0.1992187,-0.1875000025 0,-0.1171875 -0.082031,-0.1171875 -0.3046875,-0.1171875 -0.1757812,0 -0.2226562,0 -0.421875,-0.0234375 -0.2109375,-0.0234375 -0.2460937,-0.0585938 -0.2460937,-0.17578125 0,-0.0703125 0.011719,-0.15234375 0.035156,-0.22265625 z m 0,0"
       style="fill:#000000;fill-opacity:1;fill-rule:nonzero;stroke:none"
       aria-label="I"
       transform="matrix(1.3333333,0,0,1.3333333,17.710667,188.16667)" />
    <path
       id="path21"
       d="m 7.1899141,-4.4998359 c 0,-0.2109375 -0.070312,-0.2988282 -0.1347657,-0.2988282 -0.041016,0 -0.1347656,0.035156 -0.140625,0.2695313 -0.041016,0.6855469 -0.7382812,1.0957031 -1.3886718,1.0957031 -0.5742188,0 -1.0722657,-0.3105469 -1.59375,-0.6621094 -0.5332032,-0.3574218 -1.0722657,-0.7148437 -1.7226563,-0.7148437 -0.9257812,0 -1.66406249,0.7089844 -1.66406249,1.6230469 0,0.2167968 0.0820313,0.2988281 0.140625,0.2988281 0.0996094,0 0.140625,-0.1875 0.140625,-0.2285156 0.0527344,-0.8378907 0.86718749,-1.1367188 1.38281249,-1.1367188 0.5800781,0 1.078125,0.3105469 1.59375,0.65625 0.5390625,0.3632813 1.078125,0.7207031 1.7226563,0.7207031 0.9316406,0 1.6640625,-0.7089843 1.6640625,-1.6230468 z m 0,2.3261718 c 0,-0.2871093 -0.1171875,-0.3046875 -0.1347657,-0.3046875 -0.041016,0 -0.1347656,0.046875 -0.140625,0.2695313 -0.041016,0.6855469 -0.7382812,1.0957031 -1.3886718,1.0957031 -0.5742188,0 -1.0722657,-0.3105469 -1.59375,-0.6621094 -0.5332032,-0.3574218 -1.0722657,-0.7148437 -1.7226563,-0.7148437 -0.9257812,0 -1.66406249,0.7089844 -1.66406249,1.62304686 0,0.22265625 0.0820313,0.29882813 0.140625,0.29882813 0.0996094,0 0.140625,-0.1875 0.140625,-0.22851563 0.0527344,-0.83789066 0.86718749,-1.13671876 1.38281249,-1.13671876 0.5800781,0 1.078125,0.3105469 1.59375,0.65625 0.5390625,0.36328126 1.078125,0.72070314 1.7226563,0.72070314 0.9492187,0 1.6640625,-0.73828124 1.6640625,-1.61718754 z m 0,0"
       style="fill:#000000;fill-opacity:1;fill-rule:nonzero;stroke:none"
       aria-label="≈"
       transform="matrix(2.6666667,0,0,2.6666667,245.72533,171.148)" />
    <path
       id="path22"
       d="m 198.42766,0 h 36.56735 m 11.90572,0 h 36.56737 v 113.38724 h -26.64603 m -31.7484,0 H 198.42766 V 0"
       style="fill:none;stroke:#000000;stroke-width:0.3985;stroke-linecap:butt;stroke-linejoin:miter;stroke-miterlimit:10;stroke-dasharray:none;stroke-opacity:1"
       transform="matrix(1.3333333,0,0,-1.3333333,29.285333,240.32)" />
    <path
       id="path23"
       d="m 242.91231,0 h 3.98842 m -7.9173,0 h -3.98842"
       style="fill:none;stroke:#000000;stroke-width:0.3985;stroke-linecap:butt;stroke-linejoin:miter;stroke-miterlimit:10;stroke-dasharray:none;stroke-opacity:1"
       transform="matrix(1.3333333,0,0,-1.3333333,29.285333,240.32)" />
    <path
       id="path24"
       d="m 242.91231,5.95285 v -11.9057 m -3.92888,17.85857 v -23.81144"
       style="fill:none;stroke:#000000;stroke-width:0.797;stroke-linecap:butt;stroke-linejoin:miter;stroke-miterlimit:10;stroke-dasharray:none;stroke-opacity:1"
       transform="matrix(1.3333333,0,0,-1.3333333,29.285333,240.32)" />
    <g
       id="g24"
       aria-label="V&#10;0"
       transform="matrix(1.3333333,0,0,1.3333333,343.69067,218.56933)">
      <path
         id="path25"
         d="m 6.2583672,-5.6711406 c 0.4804687,-0.7734375 0.9023437,-0.8085938 1.2773437,-0.8203125 0.1171875,-0.011719 0.1289063,-0.1875 0.1289063,-0.1875 0,-0.082031 -0.058594,-0.1289063 -0.1289063,-0.1289063 -0.2578125,0 -0.5507812,0.035156 -0.8203125,0.035156 -0.328125,0 -0.6679687,-0.035156 -0.984375,-0.035156 -0.058594,0 -0.1875,0 -0.1875,0.1992188 0,0.1054687 0.082031,0.1171875 0.1523438,0.1171875 0.2695312,0.011719 0.4570312,0.1171875 0.4570312,0.328125 0,0.1523437 -0.140625,0.3632812 -0.140625,0.375 L 2.9536797,-0.92504687 2.2739922,-6.1984844 c 0,-0.1640625 0.2226562,-0.2929687 0.6796875,-0.2929687 0.140625,0 0.2578125,0 0.2578125,-0.1992188 0,-0.09375 -0.082031,-0.1171875 -0.140625,-0.1171875 -0.3984375,0 -0.8320313,0.035156 -1.2421875,0.035156 -0.1757813,0 -0.3632813,-0.011719 -0.5390625,-0.011719 -0.1875,0 -0.37500001,-0.023437 -0.53906251,-0.023437 -0.0703125,0 -0.1875,0 -0.1875,0.1992188 0,0.1171875 0.0820313,0.1171875 0.24609375,0.1171875 0.55078126,0 0.56249996,0.082031 0.59765626,0.3398437 l 0.7851562,6.14062503 c 0.035156,0.19921875 0.070312,0.234375 0.1992188,0.234375 0.1640625,0 0.1992187,-0.0585938 0.28125,-0.1875 z m 0,0"
         style="fill:#000000;fill-opacity:1;fill-rule:nonzero;stroke:none" />
      <path
         id="path26"
         d="m 9.4107109,-0.7316875 c 0,-0.7617187 -0.09375,-1.3125 -0.4101562,-1.8046875 -0.2226563,-0.3164062 -0.6445313,-0.5976562 -1.2070313,-0.5976562 -1.6171875,0 -1.6171875,1.8984375 -1.6171875,2.4023437 0,0.50390625 0,2.3671875 1.6171875,2.3671875 1.6171875,0 1.6171875,-1.86328125 1.6171875,-2.3671875 z M 7.7935234,1.4362813 c -0.3164062,0 -0.75,-0.1875 -0.890625,-0.7617188 -0.09375,-0.41015625 -0.09375,-0.984375 -0.09375,-1.5 0,-0.5039062 0,-1.03125 0.1054688,-1.4179687 0.1523437,-0.5507813 0.5976562,-0.6914063 0.8789062,-0.6914063 0.375,0 0.7382813,0.2226563 0.8671875,0.6328125 0.1054688,0.375 0.1171875,0.8789063 0.1171875,1.4765625 0,0.515625 0,1.04296875 -0.09375,1.4765625 -0.140625,0.6328125 -0.609375,0.7851563 -0.890625,0.7851563 z m 0,0"
         style="fill:#000000;fill-opacity:1;fill-rule:nonzero;stroke:none" />
    </g>
    <path
       id="path27"
       d="m 257.22057,113.38724 -3.04419,-5.95285 -5.29138,11.9057 -5.29139,-11.9057 -5.29139,11.9057 -5.29139,-11.9057 -5.29138,11.9057 -3.04419,-5.95285"
       style="fill:none;stroke:#000000;stroke-width:0.797;stroke-linecap:butt;stroke-linejoin:bevel;stroke-miterlimit:10;stroke-dasharray:none;stroke-opacity:1"
       transform="matrix(1.3333333,0,0,-1.3333333,29.285333,240.32)" />
    <path
       id="path28"
       d="m 3.7371953,-6.1182812 c 0.058594,-0.234375 0.082031,-0.3398438 0.28125,-0.3632813 0.082031,-0.011719 0.3984375,-0.011719 0.5976563,-0.011719 0.7148437,0 1.8164062,0 1.8164062,0.984375 0,0.3398437 -0.1523437,1.0195312 -0.5507812,1.4179687 C 5.6239141,-3.8331253 5.0965703,-3.516719 4.2059453,-3.516719 H 3.0926641 Z m 1.4296875,2.7304687 c 1.0078125,-0.2226562 2.1914063,-0.9140625 2.1914063,-1.921875 0,-0.8554687 -0.890625,-1.5 -2.203125,-1.5 H 2.3192266 c -0.1992188,0 -0.2929688,0 -0.2929688,0.1992188 0,0.1171875 0.09375,0.1171875 0.28125,0.1171875 0.023437,0 0.2109375,0 0.3867188,0.011719 0.1757812,0.023437 0.2578125,0.035156 0.2578125,0.1640625 0,0.035156 0,0.070312 -0.035156,0.1875 l -1.3359375,5.35546875 c -0.09375,0.38671875 -0.1171875,0.46875 -0.90234374,0.46875 -0.17578125,0 -0.26953125,0 -0.26953125,0.19921875 0,0.10546875 0.1171875,0.10546875 0.140625,0.10546875 0.28125,0 0.97265629,-0.03515625 1.25390629,-0.03515625 0.28125,0 0.984375,0.03515625 1.265625,0.03515625 0.082031,0 0.1992187,0 0.1992187,-0.19921875 0,-0.10546875 -0.09375,-0.10546875 -0.28125,-0.10546875 -0.3632812,0 -0.6445312,0 -0.6445312,-0.1875 0,-0.0585938 0.011719,-0.10546875 0.023437,-0.1640625 l 0.65625,-2.63671875 h 1.1953125 c 0.9023437,0 1.078125,0.5507813 1.078125,0.9023438 0,0.1523437 -0.082031,0.4570312 -0.140625,0.6914062 -0.070312,0.2695313 -0.1523438,0.6445313 -0.1523438,0.84375 0,1.078125 1.1953125,1.078125 1.3242188,1.078125 0.84375,0 1.1953125,-1.0078125 1.1953125,-1.1484375 0,-0.1171875 -0.1171875,-0.1171875 -0.1171875,-0.1171875 -0.09375,0 -0.1171875,0.0703125 -0.1289063,0.140625 -0.2578125,0.73828125 -0.6796875,0.90234375 -0.9140625,0.90234375 -0.328125,0 -0.3984375,-0.22265625 -0.3984375,-0.609375 0,-0.3046875 0.058594,-0.82031245 0.1054688,-1.13671875 0.011719,-0.140625 0.035156,-0.328125 0.035156,-0.46875 0,-0.7617187 -0.6679687,-1.078125 -0.9374996,-1.1718753 z m 0,0"
       style="fill:#000000;fill-opacity:1;fill-rule:nonzero;stroke:none"
       aria-label="R"
       transform="matrix(1.3333333,0,0,1.3333333,345.45067,111.17333)" />
    <path
       id="path29"
       d="m 283.4681,85.04042 -26.64603,-2e-5 m -31.7484,0 -26.64601,2e-5"
       style="fill:none;stroke:#000000;stroke-width:0.3985;stroke-linecap:butt;stroke-linejoin:miter;stroke-miterlimit:10;stroke-dasharray:none;stroke-opacity:1"
       transform="matrix(1.3333333,0,0,-1.3333333,29.285333,240.32)" />
    <path
       id="path30"
       d="m 257.22057,85.0404 -3.04419,-5.95285 -5.29138,11.90571 -5.29139,-11.90571 -5.29139,11.90571 -5.29139,-11.90571 -5.29138,11.90571 -3.04419,-5.95286"
       style="fill:none;stroke:#000000;stroke-width:0.797;stroke-linecap:butt;stroke-linejoin:bevel;stroke-miterlimit:10;stroke-dasharray:none;stroke-opacity:1"
       transform="matrix(1.3333333,0,0,-1.3333333,29.285333,240.32)" />
    <g
       id="g30"
       aria-label="2R"
       transform="matrix(1.3333333,0,0,1.3333333,342.12933,148.968)">
      <path
         id="path31"
         d="M 1.2653047,-0.76115625 2.3199922,-1.7924062 c 1.5585937,-1.3710938 2.15625,-1.9101563 2.15625,-2.90625 0,-1.1367188 -0.9023438,-1.9335938 -2.1210938,-1.9335938 -1.125,0 -1.85156246,0.9140625 -1.85156246,1.8046875 0,0.5507813 0.4921875,0.5507813 0.52734376,0.5507813 0.1640625,0 0.515625,-0.1171875 0.515625,-0.5273438 0,-0.2578125 -0.1875,-0.515625 -0.5273438,-0.515625 -0.0820312,0 -0.10546871,0 -0.12890621,0.011719 0.22265621,-0.6445313 0.76171871,-1.0195313 1.33593751,-1.0195313 0.9140625,0 1.3359375,0.8085938 1.3359375,1.6289063 0,0.796875 -0.4921875,1.5820312 -1.0429688,2.203125 L 0.60905469,-0.36271875 C 0.50358594,-0.25725 0.50358594,-0.2338125 0.50358594,5.625e-4 H 4.1949922 l 0.28125,-1.734375 H 4.2184297 c -0.046875,0.3046875 -0.1171875,0.73828125 -0.2109375,0.890625 -0.070312,0.0820313 -0.7265625,0.0820313 -0.9492188,0.0820313 z m 0,0"
         style="fill:#000000;fill-opacity:1;fill-rule:nonzero;stroke:none" />
      <path
         id="path32"
         d="m 8.7213594,-6.116625 c 0.058594,-0.234375 0.082031,-0.3398437 0.28125,-0.3632812 0.082031,-0.011719 0.3984375,-0.011719 0.5976562,-0.011719 0.7148434,0 1.8164064,0 1.8164064,0.984375 0,0.3398438 -0.152344,1.0195313 -0.550781,1.4179688 -0.257813,0.2578125 -0.785157,0.5742187 -1.6757816,0.5742187 H 8.0768281 Z m 1.4296876,2.7304688 c 1.007812,-0.2226563 2.191406,-0.9140625 2.191406,-1.921875 0,-0.8554688 -0.890625,-1.5 -2.203125,-1.5 H 7.3033906 c -0.1992187,0 -0.2929687,0 -0.2929687,0.1992187 0,0.1171875 0.09375,0.1171875 0.28125,0.1171875 0.023437,0 0.2109375,0 0.3867187,0.011719 0.1757813,0.023437 0.2578125,0.035156 0.2578125,0.1640625 0,0.035156 0,0.070312 -0.035156,0.1875 L 6.5651094,-0.772875 c -0.09375,0.38671875 -0.1171875,0.46875 -0.9023438,0.46875 -0.1757812,0 -0.2695312,0 -0.2695312,0.19921875 0,0.10546875 0.1171875,0.10546875 0.140625,0.10546875 0.28125,0 0.9726562,-0.03515625 1.2539062,-0.03515625 0.28125,0 0.984375,0.03515625 1.265625,0.03515625 0.082031,0 0.1992188,0 0.1992188,-0.19921875 0,-0.10546875 -0.09375,-0.10546875 -0.28125,-0.10546875 -0.3632813,0 -0.6445313,0 -0.6445313,-0.1875 0,-0.0585938 0.011719,-0.10546875 0.023437,-0.1640625 l 0.65625,-2.6367187 h 1.1953125 c 0.9023444,0 1.0781254,0.5507812 1.0781254,0.9023437 0,0.1523438 -0.08203,0.4570313 -0.140625,0.6914063 -0.07031,0.2695312 -0.1523441,0.6445312 -0.1523441,0.84374995 0,1.078125 1.1953131,1.078125 1.3242191,1.078125 0.84375,0 1.195313,-1.0078125 1.195313,-1.1484375 0,-0.11718745 -0.117188,-0.11718745 -0.117188,-0.11718745 -0.09375,0 -0.117187,0.0703125 -0.128906,0.14062495 C 12.002609,-0.1635 11.580734,5.625e-4 11.346359,5.625e-4 c -0.328125,0 -0.398437,-0.22265625 -0.398437,-0.609375 0,-0.3046875 0.05859,-0.8203125 0.105469,-1.1367187 0.01172,-0.140625 0.03516,-0.328125 0.03516,-0.46875 0,-0.7617188 -0.667969,-1.078125 -0.9375,-1.171875 z m 0,0"
         style="fill:#000000;fill-opacity:1;fill-rule:nonzero;stroke:none" />
    </g>
    <path
       id="path33"
       d="m 283.4681,113.38724 v 28.3468 l -26.64603,-2e-5 m -31.7484,0 -26.64601,2e-5 v -28.3468"
       style="fill:none;stroke:#000000;stroke-width:0.3985;stroke-linecap:butt;stroke-linejoin:miter;stroke-miterlimit:10;stroke-dasharray:none;stroke-opacity:1"
       transform="matrix(1.3333333,0,0,-1.3333333,29.285333,240.32)" />
    <path
       id="path34"
       d="m 257.22057,141.73402 -3.04419,-5.95285 -5.29138,11.9057 -5.29139,-11.9057 -5.29139,11.9057 -5.29139,-11.9057 -5.29138,11.9057 -3.04419,-5.95285"
       style="fill:none;stroke:#000000;stroke-width:0.797;stroke-linecap:butt;stroke-linejoin:bevel;stroke-miterlimit:10;stroke-dasharray:none;stroke-opacity:1"
       transform="matrix(1.3333333,0,0,-1.3333333,29.285333,240.32)" />
    <g
       id="g34"
       aria-label="2R"
       transform="matrix(1.3333333,0,0,1.3333333,342.12933,73.377333)">
      <path
         id="path35"
         d="M 1.2653047,-0.76053906 2.3199922,-1.7917891 c 1.5585937,-1.3710937 2.15625,-1.9101562 2.15625,-2.90625 0,-1.1367187 -0.9023438,-1.9335937 -2.1210938,-1.9335937 -1.125,0 -1.85156246,0.9140625 -1.85156246,1.8046875 0,0.5507812 0.4921875,0.5507812 0.52734376,0.5507812 0.1640625,0 0.515625,-0.1171875 0.515625,-0.5273437 0,-0.2578125 -0.1875,-0.515625 -0.5273438,-0.515625 -0.0820312,0 -0.10546871,0 -0.12890621,0.011719 C 1.1129609,-5.951945 1.6520234,-6.326945 2.2262422,-6.326945 c 0.9140625,0 1.3359375,0.8085937 1.3359375,1.6289062 0,0.796875 -0.4921875,1.5820313 -1.0429688,2.203125 L 0.60905469,-0.36210156 C 0.50358594,-0.25663281 0.50358594,-0.23319531 0.50358594,0.00117969 H 4.1949922 l 0.28125,-1.73437499 H 4.2184297 c -0.046875,0.3046875 -0.1171875,0.73828124 -0.2109375,0.89062499 -0.070312,0.0820313 -0.7265625,0.0820313 -0.9492188,0.0820313 z m 0,0"
         style="fill:#000000;fill-opacity:1;fill-rule:nonzero;stroke:none" />
      <path
         id="path36"
         d="m 8.7213594,-6.1160078 c 0.058594,-0.234375 0.082031,-0.3398438 0.28125,-0.3632813 0.082031,-0.011719 0.3984375,-0.011719 0.5976562,-0.011719 0.7148434,0 1.8164064,0 1.8164064,0.984375 0,0.3398437 -0.152344,1.0195312 -0.550781,1.4179687 -0.257813,0.2578125 -0.785157,0.5742188 -1.6757816,0.5742188 H 8.0768281 Z m 1.4296876,2.7304687 c 1.007812,-0.2226562 2.191406,-0.9140625 2.191406,-1.921875 0,-0.8554687 -0.890625,-1.5 -2.203125,-1.5 H 7.3033906 c -0.1992187,0 -0.2929687,0 -0.2929687,0.1992188 0,0.1171875 0.09375,0.1171875 0.28125,0.1171875 0.023437,0 0.2109375,0 0.3867187,0.011719 0.1757813,0.023437 0.2578125,0.035156 0.2578125,0.1640625 0,0.035156 0,0.070312 -0.035156,0.1875 l -1.3359375,5.35546879 c -0.09375,0.38671875 -0.1171875,0.46875 -0.9023438,0.46875 -0.1757812,0 -0.2695312,0 -0.2695312,0.19921875 0,0.10546875 0.1171875,0.10546875 0.140625,0.10546875 0.28125,0 0.9726562,-0.03515625 1.2539062,-0.03515625 0.28125,0 0.984375,0.03515625 1.265625,0.03515625 0.082031,0 0.1992188,0 0.1992188,-0.19921875 0,-0.10546875 -0.09375,-0.10546875 -0.28125,-0.10546875 -0.3632813,0 -0.6445313,0 -0.6445313,-0.1875 0,-0.0585938 0.011719,-0.10546875 0.023437,-0.1640625 l 0.65625,-2.63671879 h 1.1953125 c 0.9023442,0 1.0781252,0.5507813 1.0781252,0.9023438 0,0.1523437 -0.08203,0.4570312 -0.140625,0.6914062 -0.07031,0.2695313 -0.1523439,0.6445313 -0.1523439,0.84375004 0,1.078125 1.1953129,1.078125 1.3242189,1.078125 0.84375,0 1.195313,-1.0078125 1.195313,-1.1484375 0,-0.11718754 -0.117188,-0.11718754 -0.117188,-0.11718754 -0.09375,0 -0.117187,0.0703125 -0.128906,0.14062504 -0.257813,0.73828125 -0.679688,0.90234375 -0.914063,0.90234375 -0.328125,0 -0.398437,-0.22265625 -0.398437,-0.609375 0,-0.3046875 0.05859,-0.82031249 0.105469,-1.13671879 0.01172,-0.140625 0.03516,-0.328125 0.03516,-0.46875 0,-0.7617187 -0.667969,-1.078125 -0.9375,-1.171875 z m 0,0"
         style="fill:#000000;fill-opacity:1;fill-rule:nonzero;stroke:none" />
    </g>
    <path
       id="path37"
       d="m 198.42766,0 -2e-5,42.5202 m 0,0 2e-5,42.52022"
       style="fill:none;stroke:#000000;stroke-width:0.3985;stroke-linecap:butt;stroke-linejoin:miter;stroke-miterlimit:10;stroke-dasharray:none;stroke-opacity:1"
       transform="matrix(1.3333333,0,0,-1.3333333,29.285333,240.32)" />
    <path
       id="path38"
       d="m 198.42764,40.78398 h 1.98426 l -1.98426,4.21654 -1.98425,-4.21654 z"
       style="fill:#000000;fill-opacity:1;fill-rule:nonzero;stroke:#000000;stroke-width:0.3985;stroke-linecap:butt;stroke-linejoin:miter;stroke-miterlimit:10;stroke-dasharray:none;stroke-opacity:1"
       transform="matrix(1.3333333,0,0,-1.3333333,29.285333,240.32)" />
    <path
       id="path39"
       d="m 3.7265703,-6.0361094 c 0.09375,-0.3632812 0.1171875,-0.4570312 0.9023438,-0.4570312 0.2460937,0 0.3164062,0 0.3164062,-0.1875 0,-0.1289063 -0.1054687,-0.1289063 -0.140625,-0.1289063 -0.2929687,0 -1.03125,0.035156 -1.3125,0.035156 -0.3046875,0 -1.03125,-0.035156 -1.3359375,-0.035156 -0.058594,0 -0.1992187,0 -0.1992187,0.1992188 0,0.1171875 0.09375,0.1171875 0.28125,0.1171875 0.421875,0 0.6914062,0 0.6914062,0.1875 0,0.046875 0,0.070312 -0.023437,0.1640625 l -1.3476562,5.36718748 c -0.082031,0.36328125 -0.1171875,0.46875 -0.90234379,0.46875 -0.22265625,0 -0.31640625,0 -0.31640625,0.19921875 0,0.105468745 0.1171875,0.105468745 0.15234375,0.105468745 0.28125,0 1.00781249,-0.035156245 1.30078129,-0.035156245 0.3046875,0 1.03125,0.035156245 1.3359375,0.035156245 0.082031,0 0.1992187,0 0.1992187,-0.187499995 0,-0.1171875 -0.082031,-0.1171875 -0.3046875,-0.1171875 -0.1757812,0 -0.2226562,0 -0.421875,-0.0234375 -0.2109375,-0.0234375 -0.2460937,-0.0585938 -0.2460937,-0.17578125 0,-0.0703125 0.011719,-0.15234375 0.035156,-0.22265625 z m 0,0"
       style="fill:#000000;fill-opacity:1;fill-rule:nonzero;stroke:none"
       aria-label="I"
       transform="matrix(1.3333333,0,0,1.3333333,282.27733,188.16533)" />
    <path
       id="path40"
       d="m 7.190125,-4.4993359 c 0,-0.2109375 -0.070312,-0.2988282 -0.1347656,-0.2988282 -0.041016,0 -0.1347656,0.035156 -0.140625,0.2695313 -0.041016,0.6855469 -0.7382813,1.0957031 -1.3886719,1.0957031 -0.5742187,0 -1.0722656,-0.3105469 -1.59375,-0.6621094 -0.5332031,-0.3574218 -1.0722656,-0.7148437 -1.7226562,-0.7148437 -0.9257813,0 -1.66406255,0.7089844 -1.66406255,1.6230469 0,0.2167968 0.0820313,0.2988281 0.140625,0.2988281 0.0996094,0 0.140625,-0.1875 0.140625,-0.2285156 0.0527344,-0.8378907 0.86718755,-1.1367188 1.38281255,-1.1367188 0.5800781,0 1.078125,0.3105469 1.59375,0.65625 0.5390625,0.3632813 1.078125,0.7207031 1.7226562,0.7207031 0.9316406,0 1.6640625,-0.7089843 1.6640625,-1.6230468 z m 0,2.3261718 c 0,-0.2871093 -0.1171875,-0.3046875 -0.1347656,-0.3046875 -0.041016,0 -0.1347656,0.046875 -0.140625,0.2695313 -0.041016,0.6855469 -0.7382813,1.0957031 -1.3886719,1.0957031 -0.5742187,0 -1.0722656,-0.3105469 -1.59375,-0.6621094 -0.5332031,-0.3574218 -1.0722656,-0.7148437 -1.7226562,-0.7148437 -0.9257813,0 -1.66406255,0.7089844 -1.66406255,1.62304686 0,0.22265625 0.0820313,0.29882813 0.140625,0.29882813 0.0996094,0 0.140625,-0.1875 0.140625,-0.22851563 0.0527344,-0.83789066 0.86718755,-1.13671876 1.38281255,-1.13671876 0.5800781,0 1.078125,0.3105469 1.59375,0.65625 0.5390625,0.36328126 1.078125,0.72070314 1.7226562,0.72070314 0.9492188,0 1.6640625,-0.73828124 1.6640625,-1.61718754 z m 0,0"
       style="fill:#000000;fill-opacity:1;fill-rule:nonzero;stroke:none"
       aria-label="≈"
       transform="matrix(2.6666667,0,0,2.6666667,434.70133,171.14667)" />
    <path
       id="path41"
       d="m 340.16171,0 h 36.56735 m 11.90571,0 h 36.56736 v 85.04042 l -26.64603,-2e-5 m -31.74838,0 -26.64601,2e-5 V 0"
       style="fill:none;stroke:#000000;stroke-width:0.3985;stroke-linecap:butt;stroke-linejoin:miter;stroke-miterlimit:10;stroke-dasharray:none;stroke-opacity:1"
       transform="matrix(1.3333333,0,0,-1.3333333,29.285333,240.32)" />
    <path
       id="path42"
       d="m 384.64636,0 h 3.98841 m -7.9173,0 h -3.98841"
       style="fill:none;stroke:#000000;stroke-width:0.3985;stroke-linecap:butt;stroke-linejoin:miter;stroke-miterlimit:10;stroke-dasharray:none;stroke-opacity:1"
       transform="matrix(1.3333333,0,0,-1.3333333,29.285333,240.32)" />
    <path
       id="path43"
       d="m 384.64636,5.95285 v -11.9057 m -3.92889,17.85857 v -23.81144"
       style="fill:none;stroke:#000000;stroke-width:0.797;stroke-linecap:butt;stroke-linejoin:miter;stroke-miterlimit:10;stroke-dasharray:none;stroke-opacity:1"
       transform="matrix(1.3333333,0,0,-1.3333333,29.285333,240.32)" />
    <g
       id="g43"
       aria-label="V&#10;0"
       transform="matrix(1.3333333,0,0,1.3333333,532.668,218.56933)">
      <path
         id="path44"
         d="m 6.2577891,-5.6711406 c 0.4804687,-0.7734375 0.9023437,-0.8085938 1.2773437,-0.8203125 0.1171875,-0.011719 0.1289063,-0.1875 0.1289063,-0.1875 0,-0.082031 -0.058594,-0.1289063 -0.1289063,-0.1289063 -0.2578125,0 -0.5507812,0.035156 -0.8203125,0.035156 -0.328125,0 -0.6679687,-0.035156 -0.984375,-0.035156 -0.058594,0 -0.1875,0 -0.1875,0.1992188 0,0.1054687 0.082031,0.1171875 0.1523438,0.1171875 0.2695312,0.011719 0.4570312,0.1171875 0.4570312,0.328125 0,0.1523437 -0.140625,0.3632812 -0.140625,0.375 L 2.9531016,-0.92504687 2.2734141,-6.1984844 c 0,-0.1640625 0.2226562,-0.2929687 0.6796875,-0.2929687 0.140625,0 0.2578125,0 0.2578125,-0.1992188 0,-0.09375 -0.082031,-0.1171875 -0.140625,-0.1171875 -0.3984375,0 -0.8320313,0.035156 -1.2421875,0.035156 -0.1757813,0 -0.3632813,-0.011719 -0.5390625,-0.011719 -0.1875,0 -0.37500004,-0.023437 -0.53906254,-0.023437 -0.0703125,0 -0.1875,0 -0.1875,0.1992188 0,0.1171875 0.0820313,0.1171875 0.24609375,0.1171875 0.55078129,0 0.56249999,0.082031 0.59765629,0.3398437 l 0.7851562,6.14062503 c 0.035156,0.19921875 0.070312,0.234375 0.1992188,0.234375 0.1640625,0 0.1992187,-0.0585938 0.28125,-0.1875 z m 0,0"
         style="fill:#000000;fill-opacity:1;fill-rule:nonzero;stroke:none" />
      <path
         id="path45"
         d="m 9.4072031,-0.7316875 c 0,-0.7617187 -0.09375,-1.3125 -0.4101562,-1.8046875 -0.2226563,-0.3164062 -0.6445313,-0.5976562 -1.2070313,-0.5976562 -1.6171875,0 -1.6171875,1.8984375 -1.6171875,2.4023437 0,0.50390625 0,2.3671875 1.6171875,2.3671875 1.6171875,0 1.6171875,-1.86328125 1.6171875,-2.3671875 z M 7.7900156,1.4362813 c -0.3164062,0 -0.75,-0.1875 -0.890625,-0.7617188 -0.09375,-0.41015625 -0.09375,-0.984375 -0.09375,-1.5 0,-0.5039062 0,-1.03125 0.1054688,-1.4179687 0.1523437,-0.5507813 0.5976562,-0.6914063 0.8789062,-0.6914063 0.375,0 0.7382813,0.2226563 0.8671875,0.6328125 0.1054688,0.375 0.1171875,0.8789063 0.1171875,1.4765625 0,0.515625 0,1.04296875 -0.09375,1.4765625 -0.140625,0.6328125 -0.609375,0.7851563 -0.890625,0.7851563 z m 0,0"
         style="fill:#000000;fill-opacity:1;fill-rule:nonzero;stroke:none" />
    </g>
    <path
       id="path46"
       d="m 398.95462,85.0404 -3.0442,-5.95285 -5.29139,11.90571 -5.29138,-11.90571 -5.29138,11.90571 -5.29138,-11.90571 -5.29139,11.90571 -3.04418,-5.95286"
       style="fill:none;stroke:#000000;stroke-width:0.797;stroke-linecap:butt;stroke-linejoin:bevel;stroke-miterlimit:10;stroke-dasharray:none;stroke-opacity:1"
       transform="matrix(1.3333333,0,0,-1.3333333,29.285333,240.32)" />
    <g
       id="g46"
       aria-label="R&#10;eq"
       transform="matrix(1.3333333,0,0,1.3333333,529.02533,148.968)">
      <path
         id="path47"
         d="m 3.7368594,-6.116625 c 0.058594,-0.234375 0.082031,-0.3398437 0.28125,-0.3632812 0.082031,-0.011719 0.3984375,-0.011719 0.5976562,-0.011719 0.7148438,0 1.8164063,0 1.8164063,0.984375 0,0.3398438 -0.1523438,1.0195313 -0.5507813,1.4179688 -0.2578125,0.2578125 -0.7851562,0.5742187 -1.6757812,0.5742187 H 3.0923281 Z m 1.4296875,2.7304688 c 1.0078125,-0.2226563 2.1914062,-0.9140625 2.1914062,-1.921875 0,-0.8554688 -0.890625,-1.5 -2.203125,-1.5 H 2.3188906 c -0.1992187,0 -0.2929687,0 -0.2929687,0.1992187 0,0.1171875 0.09375,0.1171875 0.28125,0.1171875 0.023437,0 0.2109375,0 0.3867187,0.011719 0.1757813,0.023437 0.2578125,0.035156 0.2578125,0.1640625 0,0.035156 0,0.070312 -0.035156,0.1875 L 1.5806094,-0.772875 c -0.09375,0.38671875 -0.1171875,0.46875 -0.90234378,0.46875 -0.17578125,0 -0.26953125,0 -0.26953125,0.19921875 0,0.10546875 0.1171875,0.10546875 0.140625,0.10546875 0.28125,0 0.97265623,-0.03515625 1.25390623,-0.03515625 0.28125,0 0.984375,0.03515625 1.265625,0.03515625 0.082031,0 0.1992188,0 0.1992188,-0.19921875 0,-0.10546875 -0.09375,-0.10546875 -0.28125,-0.10546875 -0.3632813,0 -0.6445313,0 -0.6445313,-0.1875 0,-0.0585938 0.011719,-0.10546875 0.023437,-0.1640625 l 0.65625,-2.6367187 h 1.1953125 c 0.9023438,0 1.078125,0.5507812 1.078125,0.9023437 0,0.1523438 -0.082031,0.4570313 -0.140625,0.6914063 -0.070312,0.2695312 -0.1523437,0.6445312 -0.1523437,0.84374995 0,1.078125 1.1953125,1.078125 1.3242187,1.078125 0.84375,0 1.1953125,-1.0078125 1.1953125,-1.1484375 0,-0.11718745 -0.1171875,-0.11718745 -0.1171875,-0.11718745 -0.09375,0 -0.1171875,0.0703125 -0.1289062,0.14062495 C 7.0181094,-0.1635 6.5962344,5.625e-4 6.3618594,5.625e-4 c -0.328125,0 -0.3984375,-0.22265625 -0.3984375,-0.609375 0,-0.3046875 0.058594,-0.8203125 0.1054687,-1.1367187 0.011719,-0.140625 0.035156,-0.328125 0.035156,-0.46875 0,-0.7617188 -0.6679688,-1.078125 -0.9374997,-1.171875 z m 0,0"
         style="fill:#000000;fill-opacity:1;fill-rule:nonzero;stroke:none" />
      <path
         id="path48"
         d="m 9.121625,-0.09904687 c 0.1992187,0 0.75,-0.01171875 1.125,-0.140625 0.515625,-0.1875 0.609375,-0.515625 0.609375,-0.7265625 0,-0.38671873 -0.375,-0.60937503 -0.855469,-0.60937503 -0.8437498,0 -1.9687498,0.63281253 -1.9687498,1.82812503 0,0.703125 0.4335938,1.31249997 1.2539063,1.31249997 1.1835935,0 1.7343745,-0.69140622 1.7343745,-0.78515622 0,-0.046875 -0.07031,-0.1171875 -0.128906,-0.1171875 -0.03516,0 -0.04687,0.0117188 -0.105469,0.0703125 C 10.234906,1.3657969 9.4263125,1.3657969 9.2974062,1.3657969 8.8755312,1.3657969 8.606,1.0845469 8.606,0.52204688 c 0,-0.09375 0,-0.234375 0.082031,-0.62109375 z m -0.375,-0.1875 c 0.28125,-1.01953123 1.0546875,-1.10156253 1.253906,-1.10156253 0.304688,0 0.5625,0.1523438 0.5625,0.42187503 0,0.6796875 -1.1835935,0.6796875 -1.4765623,0.6796875 z m 6.149414,-1.08984373 c 0,-0.035156 0.01172,-0.070312 0.01172,-0.1054688 0,-0.046875 -0.02344,-0.09375 -0.09375,-0.09375 -0.07031,0 -0.363281,0.234375 -0.503906,0.4570313 -0.05859,-0.140625 -0.292969,-0.4570313 -0.738282,-0.4570313 -0.890625,0 -1.804687,0.97265628 -1.804687,1.98046878 0,0.67968752 0.457031,1.16015622 1.054687,1.16015622 0.398438,0 0.726563,-0.2460937 0.878907,-0.3867187 0,0.023437 -0.222657,0.9023437 -0.246094,1.0195312 -0.105469,0.3867188 -0.105469,0.3867188 -0.539063,0.3984375 -0.08203,0 -0.1875,0 -0.1875,0.1523438 0,0.046875 0.03516,0.09375 0.105469,0.09375 0.234375,0 0.492188,-0.023437 0.726563,-0.023437 0.234375,0 0.527343,0.023437 0.75,0.023437 0.05859,0 0.140625,-0.011719 0.140625,-0.1523438 0,-0.09375 -0.105469,-0.09375 -0.1875,-0.09375 -0.152344,0 -0.339844,0 -0.339844,-0.082031 0,-0.023437 0,-0.035156 0.03516,-0.1523438 z m -1.054687,1.99218748 c -0.03516,0.1171875 -0.03516,0.12890625 -0.128907,0.24609375 -0.269531,0.31640627 -0.597656,0.50390627 -0.867187,0.50390627 -0.257813,0 -0.515625,-0.1757813 -0.515625,-0.66796877 0,-0.375 0.210937,-1.13671875 0.363281,-1.41796875 0.328125,-0.56249998 0.679688,-0.66796878 0.878906,-0.66796878 0.480469,0 0.621094,0.53906253 0.621094,0.60937503 0,0.0351563 -0.01172,0.0820313 -0.02344,0.10546875 z m 0,0"
         style="fill:#000000;fill-opacity:1;fill-rule:nonzero;stroke:none" />
    </g>
    <path
       id="path49"
       d="m 340.16171,0 v 42.5202 m 0,0 v 42.52022"
       style="fill:none;stroke:#000000;stroke-width:0.3985;stroke-linecap:butt;stroke-linejoin:miter;stroke-miterlimit:10;stroke-dasharray:none;stroke-opacity:1"
       transform="matrix(1.3333333,0,0,-1.3333333,29.285333,240.32)" />
    <path
       id="path50"
       d="m 340.16171,40.78398 h 1.98426 l -1.98426,4.21654 -1.98425,-4.21654 z"
       style="fill:#000000;fill-opacity:1;fill-rule:nonzero;stroke:#000000;stroke-width:0.3985;stroke-linecap:butt;stroke-linejoin:miter;stroke-miterlimit:10;stroke-dasharray:none;stroke-opacity:1"
       transform="matrix(1.3333333,0,0,-1.3333333,29.285333,240.32)" />
    <path
       id="path51"
       d="m 3.7269922,-6.0361094 c 0.09375,-0.3632812 0.1171875,-0.4570312 0.9023437,-0.4570312 0.2460938,0 0.3164063,0 0.3164063,-0.1875 0,-0.1289063 -0.1054688,-0.1289063 -0.140625,-0.1289063 -0.2929688,0 -1.03125,0.035156 -1.3125,0.035156 -0.3046875,0 -1.03125,-0.035156 -1.3359375,-0.035156 -0.058594,0 -0.1992188,0 -0.1992188,0.1992188 0,0.1171875 0.09375,0.1171875 0.28125,0.1171875 0.421875,0 0.6914063,0 0.6914063,0.1875 0,0.046875 0,0.070312 -0.023437,0.1640625 l -1.3476563,5.36718748 c -0.082031,0.36328125 -0.1171875,0.46875 -0.90234371,0.46875 -0.22265625,0 -0.31640625,0 -0.31640625,0.19921875 0,0.105468745 0.1171875,0.105468745 0.15234375,0.105468745 0.28125,0 1.00781251,-0.035156245 1.30078121,-0.035156245 0.3046875,0 1.03125,0.035156245 1.3359375,0.035156245 0.082031,0 0.1992188,0 0.1992188,-0.187499995 0,-0.1171875 -0.082031,-0.1171875 -0.3046875,-0.1171875 -0.1757813,0 -0.2226563,0 -0.421875,-0.0234375 -0.2109375,-0.0234375 -0.2460938,-0.0585938 -0.2460938,-0.17578125 0,-0.0703125 0.011719,-0.15234375 0.035156,-0.22265625 z m 0,0"
       style="fill:#000000;fill-opacity:1;fill-rule:nonzero;stroke:none"
       aria-label="I"
       transform="matrix(1.3333333,0,0,1.3333333,471.25333,188.16533)" />
  </g>
</svg>
