<?xml version="1.0" encoding="UTF-8" standalone="no"?>
<!-- Created with Inkscape (http://www.inkscape.org/) -->

<svg
   version="1.1"
   id="svg1"
   width="578.32312"
   height="256.55554"
   viewBox="0 0 578.32312 256.55554"
   xmlns="http://www.w3.org/2000/svg"
   xmlns:svg="http://www.w3.org/2000/svg">
  <defs
     id="defs1" />
  <g
     id="g1"
     transform="translate(-18.164064,-17.71875)">
    <path
       id="path1"
       d="m 0,0 h 64.91415 m 11.9057,0 h 64.91419 v 113.38724 h -14.17342"
       style="fill:none;stroke:#000000;stroke-width:0.3985;stroke-linecap:butt;stroke-linejoin:miter;stroke-miterlimit:10;stroke-dasharray:none;stroke-opacity:1"
       transform="matrix(1.3333333,0,0,-1.3333333,29.285333,258.4)" />
    <path
       id="path2"
       d="m 72.83145,0 h 3.9884 m -7.91729,0 h -3.98841"
       style="fill:none;stroke:#000000;stroke-width:0.3985;stroke-linecap:butt;stroke-linejoin:miter;stroke-miterlimit:10;stroke-dasharray:none;stroke-opacity:1"
       transform="matrix(1.3333333,0,0,-1.3333333,29.285333,258.4)" />
    <path
       id="path3"
       d="M 72.83145,5.95285 V -5.95285 M 68.90256,11.90572 V -11.90572"
       style="fill:none;stroke:#000000;stroke-width:0.797;stroke-linecap:butt;stroke-linejoin:miter;stroke-miterlimit:10;stroke-dasharray:none;stroke-opacity:1"
       transform="matrix(1.3333333,0,0,-1.3333333,29.285333,258.4)" />
    <g
       id="g3"
       aria-label="V&#10;0"
       transform="matrix(1.3333333,0,0,1.3333333,116.92,236.64933)">
      <path
         id="path4"
         d="m 6.2592188,-5.6725469 c 0.4804687,-0.7734375 0.9023437,-0.8085937 1.2773437,-0.8203125 0.1171875,-0.011719 0.1289063,-0.1875 0.1289063,-0.1875 0,-0.082031 -0.058594,-0.1289062 -0.1289063,-0.1289062 -0.2578125,0 -0.5507812,0.035156 -0.8203125,0.035156 -0.328125,0 -0.6679687,-0.035156 -0.984375,-0.035156 -0.058594,0 -0.1875,0 -0.1875,0.1992187 0,0.1054688 0.082031,0.1171875 0.1523438,0.1171875 0.2695312,0.011719 0.4570312,0.1171875 0.4570312,0.328125 0,0.1523438 -0.140625,0.3632813 -0.140625,0.375 L 2.9545313,-0.92645313 2.2748438,-6.1998906 c 0,-0.1640625 0.2226562,-0.2929688 0.6796875,-0.2929688 0.140625,0 0.2578125,0 0.2578125,-0.1992187 0,-0.09375 -0.082031,-0.1171875 -0.140625,-0.1171875 -0.3984375,0 -0.8320313,0.035156 -1.2421875,0.035156 -0.1757813,0 -0.3632813,-0.011719 -0.5390625,-0.011719 -0.1875,0 -0.37500005,-0.023437 -0.53906255,-0.023437 -0.0703125,0 -0.1875,0 -0.1875,0.1992187 0,0.1171875 0.0820313,0.1171875 0.24609375,0.1171875 0.5507813,0 0.5625,0.082031 0.5976563,0.3398438 l 0.7851562,6.14062497 c 0.035156,0.19921875 0.070312,0.234375 0.1992188,0.234375 0.1640625,0 0.1992187,-0.0585938 0.28125,-0.1875 z m 0,0"
         style="fill:#000000;fill-opacity:1;fill-rule:nonzero;stroke:none" />
      <path
         id="path5"
         d="m 9.4086328,-0.73309375 c 0,-0.76171875 -0.09375,-1.31250005 -0.4101562,-1.80468755 -0.2226563,-0.3164062 -0.6445313,-0.5976562 -1.2070313,-0.5976562 -1.6171875,0 -1.6171875,1.8984375 -1.6171875,2.40234375 0,0.50390625 0,2.36718745 1.6171875,2.36718745 1.6171875,0 1.6171875,-1.8632812 1.6171875,-2.36718745 z M 7.7914453,1.434875 c -0.3164062,0 -0.75,-0.1875 -0.890625,-0.76171875 -0.09375,-0.41015625 -0.09375,-0.984375 -0.09375,-1.5 0,-0.50390625 0,-1.03125005 0.1054688,-1.41796875 0.1523437,-0.5507813 0.5976562,-0.6914063 0.8789062,-0.6914063 0.375,0 0.7382813,0.2226563 0.8671875,0.6328125 0.1054688,0.375 0.1171875,0.8789063 0.1171875,1.47656255 0,0.515625 0,1.04296875 -0.09375,1.4765625 C 8.5414453,1.2825312 8.0726953,1.434875 7.7914453,1.434875 Z m 0,0"
         style="fill:#000000;fill-opacity:1;fill-rule:nonzero;stroke:none" />
    </g>
    <path
       id="path6"
       d="M 0,0 V 113.38724 H 14.17339"
       style="fill:none;stroke:#000000;stroke-width:0.3985;stroke-linecap:butt;stroke-linejoin:miter;stroke-miterlimit:10;stroke-dasharray:none;stroke-opacity:1"
       transform="matrix(1.3333333,0,0,-1.3333333,29.285333,258.4)" />
    <path
       id="path7"
       d="M 14.17339,113.38724 31.29543,96.26518 M 53.74495,73.81566 70.867,56.69362 87.98904,73.81566 m 22.44953,22.44952 17.12205,17.12206"
       style="fill:none;stroke:#000000;stroke-width:0.3985;stroke-linecap:butt;stroke-linejoin:miter;stroke-miterlimit:10;stroke-dasharray:none;stroke-opacity:1"
       transform="matrix(1.3333333,0,0,-1.3333333,29.285333,258.4)" />
    <path
       id="path8"
       d="m 31.01364,96.54697 6.36189,2.05671 -4.67704,-12.16018 12.16018,4.67704 -4.67703,-12.16018 12.16017,4.67704 -4.67703,-12.16018 6.36189,2.05672"
       style="fill:none;stroke:#000000;stroke-width:0.797;stroke-linecap:butt;stroke-linejoin:bevel;stroke-miterlimit:10;stroke-dasharray:none;stroke-opacity:1"
       transform="matrix(1.3333333,0,0,-1.3333333,29.285333,258.4)" />
    <path
       id="path9"
       d="m 3.7460556,-6.1157037 c 0.049719,-0.2320216 0.082865,-0.3480324 0.2817406,-0.3646054 0.066292,-0.016573 0.3977514,-0.016573 0.5966271,-0.016573 0.7126378,0 1.8064541,0 1.8064541,0.9943785 0,0.3314595 -0.1491567,1.0109514 -0.5469081,1.4087028 -0.2651676,0.2651676 -0.7789298,0.5800541 -1.6738704,0.5800541 H 3.0997096 Z m 1.4252758,2.7345408 c 1.0109514,-0.2320217 2.1876326,-0.9280866 2.1876326,-1.922465 0,-0.8617947 -0.8949406,-1.5081407 -2.2042056,-1.5081407 H 2.3207799 c -0.1988757,0 -0.2983136,0 -0.2983136,0.1988757 0,0.1160108 0.099438,0.1160108 0.2817406,0.1160108 0.033146,0 0.2154486,0 0.3977514,0.016573 0.1657297,0.016573 0.2485946,0.033146 0.2485946,0.1657297 0,0.033146 0,0.066292 -0.033146,0.1823028 L 1.574996,-0.779206 c -0.082865,0.39775138 -0.1160108,0.48061625 -0.89494058,0.48061625 -0.18230272,0 -0.26516759,0 -0.26516759,0.19887569 0,0.0994378438 0.11601082,0.0994378438 0.1325838,0.0994378438 0.28174056,0 0.97780547,-0.0331459438 1.25954607,-0.0331459438 0.2817405,0 0.9778054,0.0331459438 1.259546,0.0331459438 0.082865,0 0.1988757,0 0.1988757,-0.1988756938 0,-0.0994378 -0.082865,-0.0994378 -0.2817406,-0.0994378 -0.3646054,0 -0.646346,0 -0.646346,-0.19887569 0,-0.0497189 0.016573,-0.0994378 0.033146,-0.16572974 l 0.646346,-2.63510296 h 1.2098271 c 0.8949406,0 1.0772433,0.5634812 1.0772433,0.9115136 0,0.1491568 -0.082865,0.4474703 -0.1491568,0.6794919 -0.066292,0.2817406 -0.1491567,0.646346 -0.1491567,0.84522177 0,1.07724332 1.1932541,1.07724332 1.3258379,1.07724332 0.8452217,0 1.1932541,-0.99437845 1.1932541,-1.14353522 0,-0.11601087 -0.1160108,-0.11601087 -0.1160108,-0.11601087 -0.099438,0 -0.1160108,0.0662919 -0.1325838,0.14915682 -0.2485946,0.72921086 -0.6794919,0.8949406038 -0.9115136,0.8949406038 -0.3314594,0 -0.3977513,-0.2154486638 -0.3977513,-0.6132000438 0,-0.29831353 0.049719,-0.81207578 0.099438,-1.12696228 0.016573,-0.1491568 0.033146,-0.3314595 0.033146,-0.4806162 0,-0.7623569 -0.662919,-1.0772434 -0.9280868,-1.1601082 z m 0,0"
       style="fill:#000000;fill-opacity:1;fill-rule:nonzero;stroke:none"
       aria-label="R"
       transform="matrix(0.9428,0.9428,-0.9428,0.9428,91.077333,132.71067)" />
    <path
       id="path10"
       d="m 87.70726,73.53387 -2.05672,6.3619 12.16017,-4.67704 -4.67703,12.16017 12.16019,-4.67703 -4.67705,12.16019 12.16019,-4.67705 -2.05672,6.36189"
       style="fill:none;stroke:#000000;stroke-width:0.797;stroke-linecap:butt;stroke-linejoin:bevel;stroke-miterlimit:10;stroke-dasharray:none;stroke-opacity:1"
       transform="matrix(1.3333333,0,0,-1.3333333,29.285333,258.4)" />
    <path
       id="path11"
       d="m 3.7466744,-6.1163003 c 0.049719,-0.2320216 0.082865,-0.3480324 0.2817405,-0.3646054 0.066292,-0.016573 0.3977514,-0.016573 0.5966271,-0.016573 0.7126379,0 1.8064542,0 1.8064542,0.9943784 0,0.3314595 -0.1491568,1.0109515 -0.5469082,1.4087028 -0.2651676,0.2651676 -0.7789298,0.5800541 -1.6738704,0.5800541 H 3.1003284 Z m 1.4252757,2.7345407 c 1.0109515,-0.2320216 2.1876326,-0.9280865 2.1876326,-1.922465 0,-0.8617946 -0.8949406,-1.5081406 -2.2042055,-1.5081406 H 2.3213986 c -0.1988757,0 -0.2983136,0 -0.2983136,0.1988757 0,0.1160108 0.099438,0.1160108 0.2817406,0.1160108 0.033146,0 0.2154487,0 0.3977514,0.016573 0.1657297,0.016573 0.2485946,0.033146 0.2485946,0.1657297 0,0.033146 0,0.066292 -0.033146,0.1823027 l -1.342411,5.35307067 c -0.082865,0.39775138 -0.1160108,0.48061625 -0.89494056,0.48061625 -0.18230271,0 -0.26516758,0 -0.26516758,0.19887569 0,0.0994378467 0.11601082,0.0994378467 0.13258379,0.0994378467 0.28174056,0 0.97780545,-0.0331459467 1.25954605,-0.0331459467 0.2817405,0 0.9778055,0.0331459467 1.259546,0.0331459467 0.082865,0 0.1988757,0 0.1988757,-0.1988756867 0,-0.0994378 -0.082865,-0.0994378 -0.2817406,-0.0994378 -0.3646054,0 -0.6463459,0 -0.6463459,-0.19887569 0,-0.0497189 0.016573,-0.0994378 0.033146,-0.16572974 l 0.646346,-2.63510284 h 1.2098271 c 0.8949406,0 1.0772433,0.5634811 1.0772433,0.9115136 0,0.1491568 -0.082865,0.4474703 -0.1491567,0.6794919 -0.066292,0.2817406 -0.1491568,0.646346 -0.1491568,0.84522165 0,1.07724332 1.1932541,1.07724332 1.3258379,1.07724332 0.8452217,0 1.1932542,-0.99437845 1.1932542,-1.14353521 0,-0.11601076 -0.1160109,-0.11601076 -0.1160109,-0.11601076 -0.099438,0 -0.1160108,0.0662919 -0.1325838,0.1491567 -0.2485946,0.72921087 -0.6794919,0.8949406067 -0.9115135,0.8949406067 -0.3314595,0 -0.3977514,-0.2154486667 -0.3977514,-0.6132000467 0,-0.29831353 0.049719,-0.81207566 0.099438,-1.12696216 0.016573,-0.1491568 0.033146,-0.3314595 0.033146,-0.4806163 0,-0.7623568 -0.662919,-1.0772433 -0.9280868,-1.1601083 z m 0,0"
       style="fill:#000000;fill-opacity:1;fill-rule:nonzero;stroke:none"
       aria-label="R"
       transform="matrix(0.9428,-0.9428,0.9428,0.9428,149.26533,139.916)" />
    <path
       id="path12"
       d="m 14.17339,113.38724 17.12204,17.12204 M 53.74495,152.9588 70.867,170.08086 87.98904,152.9588 m 22.44953,-22.44952 17.12205,-17.12204"
       style="fill:none;stroke:#000000;stroke-width:0.3985;stroke-linecap:butt;stroke-linejoin:miter;stroke-miterlimit:10;stroke-dasharray:none;stroke-opacity:1"
       transform="matrix(1.3333333,0,0,-1.3333333,29.285333,258.4)" />
    <path
       id="path13"
       d="m 31.01364,130.2275 -2.05672,6.36189 12.16018,-4.67704 -4.67704,12.16018 12.16019,-4.67703 -4.67705,12.16018 12.16019,-4.67705 -2.05672,6.36189"
       style="fill:none;stroke:#000000;stroke-width:0.797;stroke-linecap:butt;stroke-linejoin:bevel;stroke-miterlimit:10;stroke-dasharray:none;stroke-opacity:1"
       transform="matrix(1.3333333,0,0,-1.3333333,29.285333,258.4)" />
    <path
       id="path14"
       d="m 3.7466744,-6.1154275 c 0.049719,-0.2320216 0.082865,-0.3480324 0.2817405,-0.3646054 0.066292,-0.016573 0.3977514,-0.016573 0.5966271,-0.016573 0.7126379,0 1.8064542,0 1.8064542,0.9943785 0,0.3314595 -0.1491568,1.0109514 -0.5469082,1.4087028 -0.2651676,0.2651676 -0.7789298,0.5800541 -1.6738704,0.5800541 H 3.1003284 Z m 1.4252757,2.7345408 c 1.0109515,-0.2320217 2.1876326,-0.9280866 2.1876326,-1.922465 0,-0.8617947 -0.8949406,-1.5081407 -2.2042055,-1.5081407 H 2.3213986 c -0.1988757,0 -0.2983136,0 -0.2983136,0.1988757 0,0.1160108 0.099438,0.1160108 0.2817406,0.1160108 0.033146,0 0.2154487,0 0.3977514,0.016573 0.1657297,0.016573 0.2485946,0.033146 0.2485946,0.1657298 0,0.033146 0,0.066292 -0.033146,0.1823027 l -1.342411,5.35307062 c -0.082865,0.39775138 -0.1160108,0.48061625 -0.89494056,0.48061625 -0.18230271,0 -0.26516758,0 -0.26516758,0.19887569 C 0.41550656,0 0.53151738,0 0.54809035,0 0.82983091,0 1.5258958,-0.03314595 1.8076364,-0.03314595 2.0893769,-0.03314595 2.7854419,0 3.0671824,0 c 0.082865,0 0.1988757,0 0.1988757,-0.19887569 0,-0.0994378 -0.082865,-0.0994378 -0.2817406,-0.0994378 -0.3646054,0 -0.6463459,0 -0.6463459,-0.19887569 0,-0.0497189 0.016573,-0.0994379 0.033146,-0.16572974 l 0.646346,-2.63510288 h 1.2098271 c 0.8949406,0 1.0772433,0.5634811 1.0772433,0.9115135 0,0.1491568 -0.082865,0.4474703 -0.1491567,0.679492 -0.066292,0.2817405 -0.1491568,0.646346 -0.1491568,0.84522169 0,1.07724331 1.1932541,1.07724331 1.3258379,1.07724331 0.8452217,0 1.1932542,-0.99437844 1.1932542,-1.14353521 0,-0.11601089 -0.1160109,-0.11601089 -0.1160109,-0.11601089 -0.099438,0 -0.1160108,0.0662919 -0.1325838,0.14915684 C 7.0281232,-0.16572974 6.5972259,0 6.3652043,0 6.0337448,0 5.9674529,-0.21544866 5.9674529,-0.61320004 c 0,-0.29831354 0.049719,-0.81207576 0.099438,-1.12696226 0.016573,-0.1491567 0.033146,-0.3314595 0.033146,-0.4806162 0,-0.7623568 -0.662919,-1.0772433 -0.9280868,-1.1601082 z m 0,0"
       style="fill:#000000;fill-opacity:1;fill-rule:nonzero;stroke:none"
       aria-label="R"
       transform="matrix(0.9428,-0.9428,0.9428,0.9428,73.674667,64.325333)" />
    <path
       id="path15"
       d="m 87.70726,153.24059 6.36189,2.05671 -4.67705,-12.16017 12.16019,4.67703 -4.67703,-12.16018 12.16017,4.67704 -4.67703,-12.16018 6.36189,2.05671"
       style="fill:none;stroke:#000000;stroke-width:0.797;stroke-linecap:butt;stroke-linejoin:bevel;stroke-miterlimit:10;stroke-dasharray:none;stroke-opacity:1"
       transform="matrix(1.3333333,0,0,-1.3333333,29.285333,258.4)" />
    <path
       id="path16"
       d="m 3.7460556,-6.1158308 c 0.049719,-0.2320217 0.082865,-0.3480325 0.2817406,-0.3646055 0.066292,-0.016573 0.3977514,-0.016573 0.5966271,-0.016573 0.7126378,0 1.8064541,0 1.8064541,0.9943784 0,0.3314595 -0.1491567,1.0109514 -0.5469081,1.4087028 C 5.6188017,-3.8287605 5.1050395,-3.513874 4.2100989,-3.513874 H 3.0997096 Z m 1.4252758,2.7345407 c 1.0109514,-0.2320216 2.1876326,-0.9280865 2.1876326,-1.922465 0,-0.8617946 -0.8949406,-1.5081406 -2.2042056,-1.5081406 H 2.3207799 c -0.1988757,0 -0.2983136,0 -0.2983136,0.1988757 0,0.1160108 0.099438,0.1160108 0.2817406,0.1160108 0.033146,0 0.2154486,0 0.3977514,0.016573 0.1657297,0.016573 0.2485946,0.033146 0.2485946,0.1657298 0,0.033146 0,0.066292 -0.033146,0.1823027 L 1.574996,-0.77933316 c -0.082865,0.39775138 -0.1160108,0.48061625 -0.89494058,0.48061625 -0.18230272,0 -0.26516759,0 -0.26516759,0.19887569 0,0.0994378471 0.11601082,0.0994378471 0.1325838,0.0994378471 0.28174056,0 0.97780547,-0.0331459471 1.25954607,-0.0331459471 0.2817405,0 0.9778054,0.0331459471 1.259546,0.0331459471 0.082865,0 0.1988757,0 0.1988757,-0.1988756871 0,-0.0994378 -0.082865,-0.0994378 -0.2817406,-0.0994378 -0.3646054,0 -0.646346,0 -0.646346,-0.19887569 0,-0.0497189 0.016573,-0.0994378 0.033146,-0.16572974 l 0.646346,-2.63510281 h 1.2098271 c 0.8949406,0 1.0772433,0.5634811 1.0772433,0.9115136 0,0.1491567 -0.082865,0.4474703 -0.1491568,0.6794919 -0.066292,0.2817406 -0.1491567,0.646346 -0.1491567,0.84522162 0,1.07724332 1.1932541,1.07724332 1.3258379,1.07724332 0.8452217,0 1.1932541,-0.99437845 1.1932541,-1.14353521 0,-0.11601073 -0.1160108,-0.11601073 -0.1160108,-0.11601073 -0.099438,0 -0.1160108,0.0662917 -0.1325838,0.14915667 -0.2485946,0.72921087 -0.6794919,0.8949406071 -0.9115136,0.8949406071 -0.3314594,0 -0.3977513,-0.2154486671 -0.3977513,-0.6132000471 0,-0.29831353 0.049719,-0.81207563 0.099438,-1.12696223 0.016573,-0.1491567 0.033146,-0.3314594 0.033146,-0.4806162 0,-0.7623568 -0.662919,-1.0772433 -0.9280868,-1.1601083 z m 0,0"
       style="fill:#000000;fill-opacity:1;fill-rule:nonzero;stroke:none"
       aria-label="R"
       transform="matrix(0.9428,0.9428,-0.9428,0.9428,166.66706,57.120943)" />
    <path
       id="path17"
       d="m 0,0 v 42.5202 m 0,0 v 42.52022"
       style="fill:none;stroke:#000000;stroke-width:0.3985;stroke-linecap:butt;stroke-linejoin:miter;stroke-miterlimit:10;stroke-dasharray:none;stroke-opacity:1"
       transform="matrix(1.3333333,0,0,-1.3333333,29.285333,258.4)" />
    <path
       id="path18"
       d="M 0,40.78398 H 1.98425 L 0,45.00052 -1.98425,40.78398 Z"
       style="fill:#000000;fill-opacity:1;fill-rule:nonzero;stroke:#000000;stroke-width:0.3985;stroke-linecap:butt;stroke-linejoin:miter;stroke-miterlimit:10;stroke-dasharray:none;stroke-opacity:1"
       transform="matrix(1.3333333,0,0,-1.3333333,29.285333,258.4)" />
    <path
       id="path19"
       d="m 3.7267656,-6.0355859 c 0.09375,-0.3632813 0.1171875,-0.4570313 0.9023438,-0.4570313 0.2460937,0 0.3164062,0 0.3164062,-0.1875 0,-0.1289062 -0.1054687,-0.1289062 -0.140625,-0.1289062 -0.2929687,0 -1.03125,0.035156 -1.3125,0.035156 -0.3046875,0 -1.03125,-0.035156 -1.3359375,-0.035156 -0.058594,0 -0.1992187,0 -0.1992187,0.1992187 0,0.1171875 0.09375,0.1171875 0.28125,0.1171875 0.421875,0 0.6914062,0 0.6914062,0.1875 0,0.046875 0,0.070312 -0.023437,0.1640625 l -1.3476562,5.36718751 c -0.082031,0.36328125 -0.1171875,0.46875 -0.90234377,0.46875 -0.22265625,0 -0.31640625,0 -0.31640625,0.19921875 0,0.1054687525 0.1171875,0.1054687525 0.15234375,0.1054687525 0.28125,0 1.00781247,-0.0351562525 1.30078127,-0.0351562525 0.3046875,0 1.03125,0.0351562525 1.3359375,0.0351562525 0.082031,0 0.1992187,0 0.1992187,-0.1875000025 0,-0.1171875 -0.082031,-0.1171875 -0.3046875,-0.1171875 -0.1757812,0 -0.2226562,0 -0.421875,-0.0234375 -0.2109375,-0.0234375 -0.2460937,-0.0585938 -0.2460937,-0.17578125 0,-0.0703125 0.011719,-0.15234375 0.035156,-0.22265625 z m 0,0"
       style="fill:#000000;fill-opacity:1;fill-rule:nonzero;stroke:none"
       aria-label="I"
       transform="matrix(1.3333333,0,0,1.3333333,17.710667,206.24667)" />
    <path
       id="path20"
       d="m 70.867,56.69362 -1e-5,40.81941 m 0,31.7484 1e-5,40.81943"
       style="fill:none;stroke:#000000;stroke-width:0.3985;stroke-linecap:butt;stroke-linejoin:miter;stroke-miterlimit:10;stroke-dasharray:none;stroke-opacity:1"
       transform="matrix(1.3333333,0,0,-1.3333333,29.285333,258.4)" />
    <path
       id="path21"
       d="m 3.31625,-0.76172656 c 0.035156,0.3984375 0.3046875,0.8203125 0.7734375,0.8203125 0.2109375,0 0.8203125,-0.140625 0.8203125,-0.94921875 V -1.4414141 H 4.6639063 v 0.55078129 c 0,0.5859375 -0.2460938,0.64453125 -0.3632813,0.64453125 -0.328125,0 -0.3632812,-0.45703125 -0.3632812,-0.50390625 V -2.7421953 c 0,-0.4101563 0,-0.8085938 -0.3632813,-1.171875 -0.3867187,-0.3867188 -0.8789062,-0.5507813 -1.359375,-0.5507813 -0.8203125,0 -1.51171875,0.46875 -1.51171875,1.125 0,0.3046875 0.19921875,0.46875 0.45703125,0.46875 0.28125,0 0.46875,-0.1992187 0.46875,-0.4570312 0,-0.1171875 -0.058594,-0.4453125 -0.515625,-0.4570313 0.2695313,-0.3515625 0.7617188,-0.4570312 1.078125,-0.4570312 0.4921875,0 1.0546875,0.3867187 1.0546875,1.2773437 v 0.3632813 c -0.5039062,0.035156 -1.2070312,0.058594 -1.828125,0.3632812 -0.75,0.3398438 -0.99609375,0.8554688 -0.99609375,1.28906254 0,0.80859375 0.96093755,1.0546875 1.59375005,1.0546875 0.65625,0 1.1132812,-0.3984375 1.3007812,-0.8671875 z M 3.2459375,-2.3906328 v 0.9960937 c 0,0.94921879 -0.7148437,1.28906254 -1.1601562,1.28906254 -0.4921875,0 -0.9023438,-0.3515625 -0.9023438,-0.85546875 0,-0.53906249 0.421875,-1.37109379 2.0625,-1.42968749 z m 0,0"
       style="fill:#000000;fill-opacity:1;fill-rule:nonzero;stroke:none"
       aria-label="a"
       transform="matrix(1.3333333,0,0,1.3333333,120.45333,193.22267)" />
    <path
       id="path22"
       d="m 70.86699,97.11453 -5.95285,3.04419 11.9057,5.2914 -11.9057,5.29138 11.9057,5.29138 -11.9057,5.29138 11.9057,5.29139 -5.95285,3.04419"
       style="fill:none;stroke:#000000;stroke-width:0.797;stroke-linecap:butt;stroke-linejoin:bevel;stroke-miterlimit:10;stroke-dasharray:none;stroke-opacity:1"
       transform="matrix(1.3333333,0,0,-1.3333333,29.285333,258.4)" />
    <path
       id="path23"
       d="m 3.7394844,-6.1175937 c 0.058594,-0.234375 0.082031,-0.3398438 0.28125,-0.3632813 0.082031,-0.011719 0.3984375,-0.011719 0.5976562,-0.011719 0.7148438,0 1.8164063,0 1.8164063,0.984375 0,0.3398437 -0.1523438,1.0195312 -0.5507813,1.4179687 -0.2578125,0.2578125 -0.7851562,0.5742188 -1.6757812,0.5742188 H 3.0949531 Z M 5.1691719,-3.387125 C 6.1769844,-3.6097812 7.3605781,-4.3011875 7.3605781,-5.309 c 0,-0.8554687 -0.890625,-1.5 -2.203125,-1.5 H 2.3215156 c -0.1992187,0 -0.2929687,0 -0.2929687,0.1992188 0,0.1171875 0.09375,0.1171875 0.28125,0.1171875 0.023437,0 0.2109375,0 0.3867187,0.011719 0.1757813,0.023437 0.2578125,0.035156 0.2578125,0.1640625 0,0.035156 0,0.070312 -0.035156,0.1875 l -1.3359375,5.35546875 c -0.09375,0.38671875 -0.1171875,0.46875 -0.90234377,0.46875 -0.17578125,0 -0.26953125,0 -0.26953125,0.19921875 0,0.10546875 0.1171875,0.10546875 0.140625,0.10546875 0.28125,0 0.97265622,-0.03515625 1.25390622,-0.03515625 0.28125,0 0.984375,0.03515625 1.265625,0.03515625 0.082031,0 0.1992188,0 0.1992188,-0.19921875 0,-0.10546875 -0.09375,-0.10546875 -0.28125,-0.10546875 -0.3632813,0 -0.6445313,0 -0.6445313,-0.1875 0,-0.0585938 0.011719,-0.10546875 0.023437,-0.1640625 l 0.65625,-2.63671875 h 1.1953125 c 0.9023438,0 1.078125,0.5507813 1.078125,0.9023438 0,0.1523437 -0.082031,0.4570312 -0.140625,0.6914062 -0.070312,0.2695313 -0.1523437,0.6445313 -0.1523437,0.84375 0,1.078125 1.1953125,1.078125 1.3242187,1.078125 0.84375,0 1.1953125,-1.0078125 1.1953125,-1.1484375 0,-0.1171875 -0.1171875,-0.1171875 -0.1171875,-0.1171875 -0.09375,0 -0.1171875,0.0703125 -0.1289062,0.140625 -0.2578125,0.73828125 -0.6796875,0.90234375 -0.9140625,0.90234375 -0.328125,0 -0.3984375,-0.22265625 -0.3984375,-0.609375 0,-0.3046875 0.058594,-0.82031245 0.1054687,-1.13671875 0.011719,-0.140625 0.035156,-0.328125 0.035156,-0.46875 0,-0.7617187 -0.6679688,-1.078125 -0.9374994,-1.1718753 z m 0,0"
       style="fill:#000000;fill-opacity:1;fill-rule:nonzero;stroke:none"
       aria-label="R"
       transform="matrix(1.3333333,0,0,1.3333333,102.70933,110.07867)" />
    <path
       id="path24"
       d="m 1.7123906,-3.748875 v -3.1640625 l -1.42968747,0.1054687 v 0.3164063 c 0.69140625,0 0.77343747,0.070312 0.77343747,0.5507812 V 0.001125 h 0.2460938 c 0.011719,-0.01171875 0.09375,-0.15234375 0.3632812,-0.62109375 0.1523438,0.234375 0.5625,0.7265625 1.3007813,0.7265625 1.1835937,0 2.2265625,-0.97265625 2.2265625,-2.26171875 0,-1.265625 -0.9726563,-2.25 -2.109375,-2.25 -0.7851563,0 -1.2070313,0.46875 -1.3710938,0.65625 z m 0.035156,2.6132812 V -3.186375 c 0,-0.1875 0,-0.1992188 0.1054687,-0.3632813 0.3867188,-0.5507812 0.9375,-0.6328125 1.171875,-0.6328125 0.4570313,0 0.8085938,0.2578125 1.0546875,0.6328125 0.2578125,0.4101563 0.28125,0.984375 0.28125,1.3945313 0,0.3632812 -0.011719,0.9609375 -0.3046875,1.40625 -0.2109375,0.31640625 -0.5859375,0.64453125 -1.125,0.64453125 -0.4453125,0 -0.8085937,-0.24609375 -1.0429687,-0.609375 -0.140625,-0.2109375 -0.140625,-0.24609375 -0.140625,-0.42187505 z m 0,0"
       style="fill:#000000;fill-opacity:1;fill-rule:nonzero;stroke:none"
       aria-label="b"
       transform="matrix(1.3333333,0,0,1.3333333,120.084,26.936)" />
    <path
       id="path25"
       d="m 72.85956,56.69362 c 0,1.10046 -0.89208,1.99255 -1.99256,1.99255 -1.10046,0 -1.99255,-0.89209 -1.99255,-1.99255 0,-1.10048 0.89209,-1.99255 1.99255,-1.99255 1.10048,0 1.99256,0.89207 1.99256,1.99255 z"
       style="fill:#000000;fill-opacity:1;fill-rule:nonzero;stroke:none"
       transform="matrix(1.3333333,0,0,-1.3333333,29.285333,258.4)" />
    <path
       id="path26"
       d="m 72.85956,170.08086 c 0,1.10046 -0.89208,1.99255 -1.99256,1.99255 -1.10046,0 -1.99255,-0.89209 -1.99255,-1.99255 0,-1.10048 0.89209,-1.99256 1.99255,-1.99256 1.10048,0 1.99256,0.89208 1.99256,1.99256 z"
       style="fill:#000000;fill-opacity:1;fill-rule:nonzero;stroke:none"
       transform="matrix(1.3333333,0,0,-1.3333333,29.285333,258.4)" />
    <path
       id="path27"
       d="m 7.1899141,-4.5005391 c 0,-0.2109375 -0.070312,-0.2988281 -0.1347657,-0.2988281 -0.041016,0 -0.1347656,0.035156 -0.140625,0.2695313 -0.041016,0.6855468 -0.7382812,1.0957031 -1.3886718,1.0957031 -0.5742188,0 -1.0722657,-0.3105469 -1.59375,-0.6621094 -0.5332032,-0.3574219 -1.0722657,-0.7148437 -1.7226563,-0.7148437 -0.9257812,0 -1.66406249,0.7089843 -1.66406249,1.6230468 0,0.2167969 0.0820313,0.2988282 0.140625,0.2988282 0.0996094,0 0.140625,-0.1875 0.140625,-0.2285157 0.0527344,-0.8378906 0.86718749,-1.1367187 1.38281249,-1.1367187 0.5800781,0 1.078125,0.3105469 1.59375,0.65625 0.5390625,0.3632812 1.078125,0.7207031 1.7226563,0.7207031 0.9316406,0 1.6640625,-0.7089844 1.6640625,-1.6230469 z m 0,2.3261719 c 0,-0.2871094 -0.1171875,-0.3046875 -0.1347657,-0.3046875 -0.041016,0 -0.1347656,0.046875 -0.140625,0.2695313 -0.041016,0.6855468 -0.7382812,1.0957031 -1.3886718,1.0957031 -0.5742188,0 -1.0722657,-0.3105469 -1.59375,-0.6621094 -0.5332032,-0.3574219 -1.0722657,-0.7148437 -1.7226563,-0.7148437 -0.9257812,0 -1.66406249,0.7089843 -1.66406249,1.62304684 0,0.22265625 0.0820313,0.29882812 0.140625,0.29882812 0.0996094,0 0.140625,-0.1875 0.140625,-0.22851562 0.0527344,-0.83789064 0.86718749,-1.13671874 1.38281249,-1.13671874 0.5800781,0 1.078125,0.3105469 1.59375,0.65625 0.5390625,0.36328124 1.078125,0.72070311 1.7226563,0.72070311 0.9492187,0 1.6640625,-0.73828121 1.6640625,-1.61718751 z m 0,0"
       style="fill:#000000;fill-opacity:1;fill-rule:nonzero;stroke:none"
       aria-label="≈"
       transform="matrix(2.6666667,0,0,2.6666667,245.72533,189.228)" />
    <path
       id="path28"
       d="m 198.42766,0 h 36.56735 m 11.90572,0 h 36.56737 v 141.73404"
       style="fill:none;stroke:#000000;stroke-width:0.3985;stroke-linecap:butt;stroke-linejoin:miter;stroke-miterlimit:10;stroke-dasharray:none;stroke-opacity:1"
       transform="matrix(1.3333333,0,0,-1.3333333,29.285333,258.4)" />
    <path
       id="path29"
       d="m 242.91231,0 h 3.98842 m -7.9173,0 h -3.98842"
       style="fill:none;stroke:#000000;stroke-width:0.3985;stroke-linecap:butt;stroke-linejoin:miter;stroke-miterlimit:10;stroke-dasharray:none;stroke-opacity:1"
       transform="matrix(1.3333333,0,0,-1.3333333,29.285333,258.4)" />
    <path
       id="path30"
       d="m 242.91231,5.95285 v -11.9057 m -3.92888,17.85857 v -23.81144"
       style="fill:none;stroke:#000000;stroke-width:0.797;stroke-linecap:butt;stroke-linejoin:miter;stroke-miterlimit:10;stroke-dasharray:none;stroke-opacity:1"
       transform="matrix(1.3333333,0,0,-1.3333333,29.285333,258.4)" />
    <g
       id="g30"
       aria-label="V&#10;0"
       transform="matrix(1.3333333,0,0,1.3333333,343.69067,236.64933)">
      <path
         id="path31"
         d="m 6.2583672,-5.6725469 c 0.4804687,-0.7734375 0.9023437,-0.8085937 1.2773437,-0.8203125 0.1171875,-0.011719 0.1289063,-0.1875 0.1289063,-0.1875 0,-0.082031 -0.058594,-0.1289062 -0.1289063,-0.1289062 -0.2578125,0 -0.5507812,0.035156 -0.8203125,0.035156 -0.328125,0 -0.6679687,-0.035156 -0.984375,-0.035156 -0.058594,0 -0.1875,0 -0.1875,0.1992187 0,0.1054688 0.082031,0.1171875 0.1523438,0.1171875 0.2695312,0.011719 0.4570312,0.1171875 0.4570312,0.328125 0,0.1523438 -0.140625,0.3632813 -0.140625,0.375 L 2.9536797,-0.92645313 2.2739922,-6.1998906 c 0,-0.1640625 0.2226562,-0.2929688 0.6796875,-0.2929688 0.140625,0 0.2578125,0 0.2578125,-0.1992187 0,-0.09375 -0.082031,-0.1171875 -0.140625,-0.1171875 -0.3984375,0 -0.8320313,0.035156 -1.2421875,0.035156 -0.1757813,0 -0.3632813,-0.011719 -0.5390625,-0.011719 -0.1875,0 -0.37500001,-0.023437 -0.53906251,-0.023437 -0.0703125,0 -0.1875,0 -0.1875,0.1992187 0,0.1171875 0.0820313,0.1171875 0.24609375,0.1171875 0.55078126,0 0.56249996,0.082031 0.59765626,0.3398438 l 0.7851562,6.14062497 c 0.035156,0.19921875 0.070312,0.234375 0.1992188,0.234375 0.1640625,0 0.1992187,-0.0585938 0.28125,-0.1875 z m 0,0"
         style="fill:#000000;fill-opacity:1;fill-rule:nonzero;stroke:none" />
      <path
         id="path32"
         d="m 9.4107109,-0.73309375 c 0,-0.76171875 -0.09375,-1.31250005 -0.4101562,-1.80468755 -0.2226563,-0.3164062 -0.6445313,-0.5976562 -1.2070313,-0.5976562 -1.6171875,0 -1.6171875,1.8984375 -1.6171875,2.40234375 0,0.50390625 0,2.36718745 1.6171875,2.36718745 1.6171875,0 1.6171875,-1.8632812 1.6171875,-2.36718745 z M 7.7935234,1.434875 c -0.3164062,0 -0.75,-0.1875 -0.890625,-0.76171875 -0.09375,-0.41015625 -0.09375,-0.984375 -0.09375,-1.5 0,-0.50390625 0,-1.03125005 0.1054688,-1.41796875 0.1523437,-0.5507813 0.5976562,-0.6914063 0.8789062,-0.6914063 0.375,0 0.7382813,0.2226563 0.8671875,0.6328125 0.1054688,0.375 0.1171875,0.8789063 0.1171875,1.47656255 0,0.515625 0,1.04296875 -0.09375,1.4765625 C 8.5435234,1.2825312 8.0747734,1.434875 7.7935234,1.434875 Z m 0,0"
         style="fill:#000000;fill-opacity:1;fill-rule:nonzero;stroke:none" />
    </g>
    <path
       id="path33"
       d="m 283.4681,85.04042 -26.64603,-2e-5 m -31.7484,0 -26.64601,2e-5"
       style="fill:none;stroke:#000000;stroke-width:0.3985;stroke-linecap:butt;stroke-linejoin:miter;stroke-miterlimit:10;stroke-dasharray:none;stroke-opacity:1"
       transform="matrix(1.3333333,0,0,-1.3333333,29.285333,258.4)" />
    <path
       id="path34"
       d="m 257.22057,85.0404 -3.04419,-5.95285 -5.29138,11.90571 -5.29139,-11.90571 -5.29139,11.90571 -5.29139,-11.90571 -5.29138,11.90571 -3.04419,-5.95286"
       style="fill:none;stroke:#000000;stroke-width:0.797;stroke-linecap:butt;stroke-linejoin:bevel;stroke-miterlimit:10;stroke-dasharray:none;stroke-opacity:1"
       transform="matrix(1.3333333,0,0,-1.3333333,29.285333,258.4)" />
    <g
       id="g34"
       aria-label="2R"
       transform="matrix(1.3333333,0,0,1.3333333,342.12933,167.048)">
      <path
         id="path35"
         d="m 1.2653047,-0.7625625 1.0546875,-1.03125 c 1.5585937,-1.3710938 2.15625,-1.9101563 2.15625,-2.90625 0,-1.1367188 -0.9023438,-1.9335938 -2.1210938,-1.9335938 -1.125,0 -1.85156246,0.9140625 -1.85156246,1.8046875 0,0.5507813 0.4921875,0.5507813 0.52734376,0.5507813 0.1640625,0 0.515625,-0.1171875 0.515625,-0.5273438 0,-0.2578125 -0.1875,-0.515625 -0.5273438,-0.515625 -0.0820312,0 -0.10546871,0 -0.12890621,0.011719 0.22265621,-0.6445313 0.76171871,-1.0195313 1.33593751,-1.0195313 0.9140625,0 1.3359375,0.8085938 1.3359375,1.6289063 0,0.796875 -0.4921875,1.5820312 -1.0429688,2.203125 L 0.60905469,-0.364125 C 0.50358594,-0.25865625 0.50358594,-0.23521875 0.50358594,-8.4375e-4 H 4.1949922 l 0.28125,-1.73437505 H 4.2184297 c -0.046875,0.3046875 -0.1171875,0.7382813 -0.2109375,0.89062505 -0.070312,0.0820313 -0.7265625,0.0820313 -0.9492188,0.0820313 z m 0,0"
         style="fill:#000000;fill-opacity:1;fill-rule:nonzero;stroke:none" />
      <path
         id="path36"
         d="m 8.7213594,-6.1180313 c 0.058594,-0.234375 0.082031,-0.3398437 0.28125,-0.3632812 0.082031,-0.011719 0.3984375,-0.011719 0.5976562,-0.011719 0.7148434,0 1.8164064,0 1.8164064,0.984375 0,0.3398438 -0.152344,1.0195313 -0.550781,1.4179688 -0.257813,0.2578125 -0.785157,0.5742187 -1.6757816,0.5742187 H 8.0768281 Z m 1.4296876,2.7304688 c 1.007812,-0.2226563 2.191406,-0.9140625 2.191406,-1.921875 0,-0.8554688 -0.890625,-1.5 -2.203125,-1.5 H 7.3033906 c -0.1992187,0 -0.2929687,0 -0.2929687,0.1992187 0,0.1171875 0.09375,0.1171875 0.28125,0.1171875 0.023437,0 0.2109375,0 0.3867187,0.011719 0.1757813,0.023437 0.2578125,0.035156 0.2578125,0.1640625 0,0.035156 0,0.070312 -0.035156,0.1875 l -1.3359375,5.35546875 c -0.09375,0.38671875 -0.1171875,0.46875 -0.9023438,0.46875 -0.1757812,0 -0.2695312,0 -0.2695312,0.19921875 0,0.10546875 0.1171875,0.10546875 0.140625,0.10546875 0.28125,0 0.9726562,-0.03515625 1.2539062,-0.03515625 0.28125,0 0.984375,0.03515625 1.265625,0.03515625 0.082031,0 0.1992188,0 0.1992188,-0.19921875 0,-0.10546875 -0.09375,-0.10546875 -0.28125,-0.10546875 -0.3632813,0 -0.6445313,0 -0.6445313,-0.1875 0,-0.0585938 0.011719,-0.10546875 0.023437,-0.1640625 l 0.65625,-2.63671875 h 1.1953125 c 0.9023442,0 1.0781252,0.5507812 1.0781252,0.9023437 0,0.1523438 -0.08203,0.4570313 -0.140625,0.6914063 -0.07031,0.2695312 -0.1523439,0.6445312 -0.1523439,0.84375 0,1.078125 1.1953129,1.078125 1.3242189,1.078125 0.84375,0 1.195313,-1.0078125 1.195313,-1.1484375 0,-0.1171875 -0.117188,-0.1171875 -0.117188,-0.1171875 -0.09375,0 -0.117187,0.0703125 -0.128906,0.140625 -0.257813,0.73828125 -0.679688,0.90234375 -0.914063,0.90234375 -0.328125,0 -0.398437,-0.22265625 -0.398437,-0.609375 0,-0.3046875 0.05859,-0.82031255 0.105469,-1.13671875 0.01172,-0.140625 0.03516,-0.328125 0.03516,-0.46875 0,-0.7617188 -0.667969,-1.078125 -0.9375,-1.171875 z m 0,0"
         style="fill:#000000;fill-opacity:1;fill-rule:nonzero;stroke:none" />
    </g>
    <path
       id="path37"
       d="m 283.4681,141.73404 -26.64603,-2e-5 m -31.7484,0 -26.64601,2e-5 V 85.04042"
       style="fill:none;stroke:#000000;stroke-width:0.3985;stroke-linecap:butt;stroke-linejoin:miter;stroke-miterlimit:10;stroke-dasharray:none;stroke-opacity:1"
       transform="matrix(1.3333333,0,0,-1.3333333,29.285333,258.4)" />
    <path
       id="path38"
       d="m 257.22057,141.73402 -3.04419,-5.95285 -5.29138,11.9057 -5.29139,-11.9057 -5.29139,11.9057 -5.29139,-11.9057 -5.29138,11.9057 -3.04419,-5.95285"
       style="fill:none;stroke:#000000;stroke-width:0.797;stroke-linecap:butt;stroke-linejoin:bevel;stroke-miterlimit:10;stroke-dasharray:none;stroke-opacity:1"
       transform="matrix(1.3333333,0,0,-1.3333333,29.285333,258.4)" />
    <g
       id="g38"
       aria-label="2R"
       transform="matrix(1.3333333,0,0,1.3333333,342.12933,91.457333)">
      <path
         id="path39"
         d="M 1.2653047,-0.76194531 2.3199922,-1.7931953 c 1.5585937,-1.3710938 2.15625,-1.9101563 2.15625,-2.90625 0,-1.1367188 -0.9023438,-1.9335938 -2.1210938,-1.9335938 -1.125,0 -1.85156246,0.9140625 -1.85156246,1.8046875 0,0.5507813 0.4921875,0.5507813 0.52734376,0.5507813 0.1640625,0 0.515625,-0.1171875 0.515625,-0.5273438 0,-0.2578125 -0.1875,-0.515625 -0.5273438,-0.515625 -0.0820312,0 -0.10546871,0 -0.12890621,0.011719 0.22265621,-0.6445313 0.76171871,-1.0195313 1.33593751,-1.0195313 0.9140625,0 1.3359375,0.8085938 1.3359375,1.6289063 0,0.796875 -0.4921875,1.5820312 -1.0429688,2.203125 L 0.60905469,-0.36350781 C 0.50358594,-0.25803906 0.50358594,-0.23460156 0.50358594,-2.265625e-4 H 4.1949922 L 4.4762422,-1.7346016 H 4.2184297 c -0.046875,0.3046875 -0.1171875,0.73828129 -0.2109375,0.89062504 -0.070312,0.0820313 -0.7265625,0.0820313 -0.9492188,0.0820313 z m 0,0"
         style="fill:#000000;fill-opacity:1;fill-rule:nonzero;stroke:none" />
      <path
         id="path40"
         d="m 8.7213594,-6.1174141 c 0.058594,-0.234375 0.082031,-0.3398437 0.28125,-0.3632812 0.082031,-0.011719 0.3984375,-0.011719 0.5976562,-0.011719 0.7148434,0 1.8164064,0 1.8164064,0.984375 0,0.3398438 -0.152344,1.0195313 -0.550781,1.4179688 -0.257813,0.2578125 -0.785157,0.5742187 -1.6757816,0.5742187 H 8.0768281 Z m 1.4296876,2.7304688 c 1.007812,-0.2226563 2.191406,-0.9140625 2.191406,-1.921875 0,-0.8554688 -0.890625,-1.5 -2.203125,-1.5 H 7.3033906 c -0.1992187,0 -0.2929687,0 -0.2929687,0.1992187 0,0.1171875 0.09375,0.1171875 0.28125,0.1171875 0.023437,0 0.2109375,0 0.3867187,0.011719 0.1757813,0.023437 0.2578125,0.035156 0.2578125,0.1640625 0,0.035156 0,0.070312 -0.035156,0.1875 l -1.3359375,5.35546874 c -0.09375,0.38671875 -0.1171875,0.46875 -0.9023438,0.46875 -0.1757812,0 -0.2695312,0 -0.2695312,0.19921875 0,0.1054687475 0.1171875,0.1054687475 0.140625,0.1054687475 0.28125,0 0.9726562,-0.0351562475 1.2539062,-0.0351562475 0.28125,0 0.984375,0.0351562475 1.265625,0.0351562475 0.082031,0 0.1992188,0 0.1992188,-0.1992187475 0,-0.10546875 -0.09375,-0.10546875 -0.28125,-0.10546875 -0.3632813,0 -0.6445313,0 -0.6445313,-0.1875 0,-0.0585938 0.011719,-0.10546875 0.023437,-0.1640625 l 0.65625,-2.63671874 h 1.1953125 c 0.9023442,0 1.0781252,0.5507812 1.0781252,0.9023437 0,0.1523438 -0.08203,0.4570313 -0.140625,0.6914063 -0.07031,0.2695312 -0.1523439,0.6445312 -0.1523439,0.84374999 0,1.078125 1.1953129,1.078125 1.3242189,1.078125 0.84375,0 1.195313,-1.0078125 1.195313,-1.1484375 0,-0.11718749 -0.117188,-0.11718749 -0.117188,-0.11718749 -0.09375,0 -0.117187,0.0703125 -0.128906,0.14062499 -0.257813,0.73828125 -0.679688,0.9023437475 -0.914063,0.9023437475 -0.328125,0 -0.398437,-0.2226562475 -0.398437,-0.6093749975 0,-0.3046875 0.05859,-0.82031254 0.105469,-1.13671874 0.01172,-0.140625 0.03516,-0.328125 0.03516,-0.46875 0,-0.7617188 -0.667969,-1.078125 -0.9375,-1.171875 z m 0,0"
         style="fill:#000000;fill-opacity:1;fill-rule:nonzero;stroke:none" />
    </g>
    <path
       id="path41"
       d="m 198.42766,0 -2e-5,42.5202 m 0,0 2e-5,42.52022"
       style="fill:none;stroke:#000000;stroke-width:0.3985;stroke-linecap:butt;stroke-linejoin:miter;stroke-miterlimit:10;stroke-dasharray:none;stroke-opacity:1"
       transform="matrix(1.3333333,0,0,-1.3333333,29.285333,258.4)" />
    <path
       id="path42"
       d="m 198.42764,40.78398 h 1.98426 l -1.98426,4.21654 -1.98425,-4.21654 z"
       style="fill:#000000;fill-opacity:1;fill-rule:nonzero;stroke:#000000;stroke-width:0.3985;stroke-linecap:butt;stroke-linejoin:miter;stroke-miterlimit:10;stroke-dasharray:none;stroke-opacity:1"
       transform="matrix(1.3333333,0,0,-1.3333333,29.285333,258.4)" />
    <path
       id="path43"
       d="m 3.7265703,-6.0345859 c 0.09375,-0.3632813 0.1171875,-0.4570313 0.9023438,-0.4570313 0.2460937,0 0.3164062,0 0.3164062,-0.1875 0,-0.1289062 -0.1054687,-0.1289062 -0.140625,-0.1289062 -0.2929687,0 -1.03125,0.035156 -1.3125,0.035156 -0.3046875,0 -1.03125,-0.035156 -1.3359375,-0.035156 -0.058594,0 -0.1992187,0 -0.1992187,0.1992187 0,0.1171875 0.09375,0.1171875 0.28125,0.1171875 0.421875,0 0.6914062,0 0.6914062,0.1875 0,0.046875 0,0.070312 -0.023437,0.1640625 l -1.3476562,5.36718751 c -0.082031,0.36328125 -0.1171875,0.46875 -0.90234379,0.46875 -0.22265625,0 -0.31640625,0 -0.31640625,0.19921875 0,0.1054687525 0.1171875,0.1054687525 0.15234375,0.1054687525 0.28125,0 1.00781249,-0.0351562525 1.30078129,-0.0351562525 0.3046875,0 1.03125,0.0351562525 1.3359375,0.0351562525 0.082031,0 0.1992187,0 0.1992187,-0.1875000025 0,-0.1171875 -0.082031,-0.1171875 -0.3046875,-0.1171875 -0.1757812,0 -0.2226562,0 -0.421875,-0.0234375 -0.2109375,-0.0234375 -0.2460937,-0.0585938 -0.2460937,-0.17578125 0,-0.0703125 0.011719,-0.15234375 0.035156,-0.22265625 z m 0,0"
       style="fill:#000000;fill-opacity:1;fill-rule:nonzero;stroke:none"
       aria-label="I"
       transform="matrix(1.3333333,0,0,1.3333333,282.27733,206.24533)" />
    <path
       id="path44"
       d="m 7.190125,-4.5000391 c 0,-0.2109375 -0.070312,-0.2988281 -0.1347656,-0.2988281 -0.041016,0 -0.1347656,0.035156 -0.140625,0.2695313 -0.041016,0.6855468 -0.7382813,1.0957031 -1.3886719,1.0957031 -0.5742187,0 -1.0722656,-0.3105469 -1.59375,-0.6621094 -0.5332031,-0.3574219 -1.0722656,-0.7148437 -1.7226562,-0.7148437 -0.9257813,0 -1.66406255,0.7089843 -1.66406255,1.6230468 0,0.2167969 0.0820313,0.2988282 0.140625,0.2988282 0.0996094,0 0.140625,-0.1875 0.140625,-0.2285157 0.0527344,-0.8378906 0.86718755,-1.1367187 1.38281255,-1.1367187 0.5800781,0 1.078125,0.3105469 1.59375,0.65625 0.5390625,0.3632812 1.078125,0.7207031 1.7226562,0.7207031 0.9316406,0 1.6640625,-0.7089844 1.6640625,-1.6230469 z m 0,2.3261719 c 0,-0.2871094 -0.1171875,-0.3046875 -0.1347656,-0.3046875 -0.041016,0 -0.1347656,0.046875 -0.140625,0.2695313 -0.041016,0.6855468 -0.7382813,1.0957031 -1.3886719,1.0957031 -0.5742187,0 -1.0722656,-0.3105469 -1.59375,-0.6621094 -0.5332031,-0.3574219 -1.0722656,-0.7148437 -1.7226562,-0.7148437 -0.9257813,0 -1.66406255,0.7089843 -1.66406255,1.62304684 0,0.22265625 0.0820313,0.29882812 0.140625,0.29882812 0.0996094,0 0.140625,-0.1875 0.140625,-0.22851562 0.0527344,-0.83789064 0.86718755,-1.13671874 1.38281255,-1.13671874 0.5800781,0 1.078125,0.3105469 1.59375,0.65625 0.5390625,0.36328124 1.078125,0.72070311 1.7226562,0.72070311 0.9492188,0 1.6640625,-0.73828121 1.6640625,-1.61718751 z m 0,0"
       style="fill:#000000;fill-opacity:1;fill-rule:nonzero;stroke:none"
       aria-label="≈"
       transform="matrix(2.6666667,0,0,2.6666667,434.70133,189.22667)" />
    <path
       id="path45"
       d="m 340.16171,0 h 36.56735 m 11.90571,0 h 36.56736 v 85.04042 l -26.64603,-2e-5 m -31.74838,0 -26.64601,2e-5 V 0"
       style="fill:none;stroke:#000000;stroke-width:0.3985;stroke-linecap:butt;stroke-linejoin:miter;stroke-miterlimit:10;stroke-dasharray:none;stroke-opacity:1"
       transform="matrix(1.3333333,0,0,-1.3333333,29.285333,258.4)" />
    <path
       id="path46"
       d="m 384.64636,0 h 3.98841 m -7.9173,0 h -3.98841"
       style="fill:none;stroke:#000000;stroke-width:0.3985;stroke-linecap:butt;stroke-linejoin:miter;stroke-miterlimit:10;stroke-dasharray:none;stroke-opacity:1"
       transform="matrix(1.3333333,0,0,-1.3333333,29.285333,258.4)" />
    <path
       id="path47"
       d="m 384.64636,5.95285 v -11.9057 m -3.92889,17.85857 v -23.81144"
       style="fill:none;stroke:#000000;stroke-width:0.797;stroke-linecap:butt;stroke-linejoin:miter;stroke-miterlimit:10;stroke-dasharray:none;stroke-opacity:1"
       transform="matrix(1.3333333,0,0,-1.3333333,29.285333,258.4)" />
    <g
       id="g47"
       aria-label="V&#10;0"
       transform="matrix(1.3333333,0,0,1.3333333,532.668,236.64933)">
      <path
         id="path48"
         d="m 6.2577891,-5.6725469 c 0.4804687,-0.7734375 0.9023437,-0.8085937 1.2773437,-0.8203125 0.1171875,-0.011719 0.1289063,-0.1875 0.1289063,-0.1875 0,-0.082031 -0.058594,-0.1289062 -0.1289063,-0.1289062 -0.2578125,0 -0.5507812,0.035156 -0.8203125,0.035156 -0.328125,0 -0.6679687,-0.035156 -0.984375,-0.035156 -0.058594,0 -0.1875,0 -0.1875,0.1992187 0,0.1054688 0.082031,0.1171875 0.1523438,0.1171875 0.2695312,0.011719 0.4570312,0.1171875 0.4570312,0.328125 0,0.1523438 -0.140625,0.3632813 -0.140625,0.375 L 2.9531016,-0.92645313 2.2734141,-6.1998906 c 0,-0.1640625 0.2226562,-0.2929688 0.6796875,-0.2929688 0.140625,0 0.2578125,0 0.2578125,-0.1992187 0,-0.09375 -0.082031,-0.1171875 -0.140625,-0.1171875 -0.3984375,0 -0.8320313,0.035156 -1.2421875,0.035156 -0.1757813,0 -0.3632813,-0.011719 -0.5390625,-0.011719 -0.1875,0 -0.37500004,-0.023437 -0.53906254,-0.023437 -0.0703125,0 -0.1875,0 -0.1875,0.1992187 0,0.1171875 0.0820313,0.1171875 0.24609375,0.1171875 0.55078129,0 0.56249999,0.082031 0.59765629,0.3398438 l 0.7851562,6.14062497 c 0.035156,0.19921875 0.070312,0.234375 0.1992188,0.234375 0.1640625,0 0.1992187,-0.0585938 0.28125,-0.1875 z m 0,0"
         style="fill:#000000;fill-opacity:1;fill-rule:nonzero;stroke:none" />
      <path
         id="path49"
         d="m 9.4072031,-0.73309375 c 0,-0.76171875 -0.09375,-1.31250005 -0.4101562,-1.80468755 -0.2226563,-0.3164062 -0.6445313,-0.5976562 -1.2070313,-0.5976562 -1.6171875,0 -1.6171875,1.8984375 -1.6171875,2.40234375 0,0.50390625 0,2.36718745 1.6171875,2.36718745 1.6171875,0 1.6171875,-1.8632812 1.6171875,-2.36718745 z M 7.7900156,1.434875 c -0.3164062,0 -0.75,-0.1875 -0.890625,-0.76171875 -0.09375,-0.41015625 -0.09375,-0.984375 -0.09375,-1.5 0,-0.50390625 0,-1.03125005 0.1054688,-1.41796875 0.1523437,-0.5507813 0.5976562,-0.6914063 0.8789062,-0.6914063 0.375,0 0.7382813,0.2226563 0.8671875,0.6328125 0.1054688,0.375 0.1171875,0.8789063 0.1171875,1.47656255 0,0.515625 0,1.04296875 -0.09375,1.4765625 C 8.5400156,1.2825312 8.0712656,1.434875 7.7900156,1.434875 Z m 0,0"
         style="fill:#000000;fill-opacity:1;fill-rule:nonzero;stroke:none" />
    </g>
    <path
       id="path50"
       d="m 398.95462,85.0404 -3.0442,-5.95285 -5.29139,11.90571 -5.29138,-11.90571 -5.29138,11.90571 -5.29138,-11.90571 -5.29139,11.90571 -3.04418,-5.95286"
       style="fill:none;stroke:#000000;stroke-width:0.797;stroke-linecap:butt;stroke-linejoin:bevel;stroke-miterlimit:10;stroke-dasharray:none;stroke-opacity:1"
       transform="matrix(1.3333333,0,0,-1.3333333,29.285333,258.4)" />
    <g
       id="g50"
       aria-label="R&#10;eq"
       transform="matrix(1.3333333,0,0,1.3333333,529.02533,167.048)">
      <path
         id="path51"
         d="m 3.7368594,-6.1180313 c 0.058594,-0.234375 0.082031,-0.3398437 0.28125,-0.3632812 0.082031,-0.011719 0.3984375,-0.011719 0.5976562,-0.011719 0.7148438,0 1.8164063,0 1.8164063,0.984375 0,0.3398438 -0.1523438,1.0195313 -0.5507813,1.4179688 C 5.6235781,-3.8328752 5.0962344,-3.516469 4.2056094,-3.516469 H 3.0923281 Z m 1.4296875,2.7304688 c 1.0078125,-0.2226563 2.1914062,-0.9140625 2.1914062,-1.921875 0,-0.8554688 -0.890625,-1.5 -2.203125,-1.5 H 2.3188906 c -0.1992187,0 -0.2929687,0 -0.2929687,0.1992187 0,0.1171875 0.09375,0.1171875 0.28125,0.1171875 0.023437,0 0.2109375,0 0.3867187,0.011719 0.1757813,0.023437 0.2578125,0.035156 0.2578125,0.1640625 0,0.035156 0,0.070312 -0.035156,0.1875 l -1.3359375,5.35546875 c -0.09375,0.38671875 -0.1171875,0.46875 -0.90234378,0.46875 -0.17578125,0 -0.26953125,0 -0.26953125,0.19921875 0,0.10546875 0.1171875,0.10546875 0.140625,0.10546875 0.28125,0 0.97265623,-0.03515625 1.25390623,-0.03515625 0.28125,0 0.984375,0.03515625 1.265625,0.03515625 0.082031,0 0.1992188,0 0.1992188,-0.19921875 0,-0.10546875 -0.09375,-0.10546875 -0.28125,-0.10546875 -0.3632813,0 -0.6445313,0 -0.6445313,-0.1875 0,-0.0585938 0.011719,-0.10546875 0.023437,-0.1640625 l 0.65625,-2.63671875 h 1.1953125 c 0.9023438,0 1.078125,0.5507812 1.078125,0.9023437 0,0.1523438 -0.082031,0.4570313 -0.140625,0.6914063 -0.070312,0.2695312 -0.1523437,0.6445312 -0.1523437,0.84375 0,1.078125 1.1953125,1.078125 1.3242187,1.078125 0.84375,0 1.1953125,-1.0078125 1.1953125,-1.1484375 0,-0.1171875 -0.1171875,-0.1171875 -0.1171875,-0.1171875 -0.09375,0 -0.1171875,0.0703125 -0.1289062,0.140625 -0.2578125,0.73828125 -0.6796875,0.90234375 -0.9140625,0.90234375 -0.328125,0 -0.3984375,-0.22265625 -0.3984375,-0.609375 0,-0.3046875 0.058594,-0.82031255 0.1054687,-1.13671875 0.011719,-0.140625 0.035156,-0.328125 0.035156,-0.46875 0,-0.7617188 -0.6679688,-1.078125 -0.9374994,-1.1718752 z m 0,0"
         style="fill:#000000;fill-opacity:1;fill-rule:nonzero;stroke:none" />
      <path
         id="path52"
         d="m 9.121625,-0.10045313 c 0.1992187,0 0.75,-0.0117188 1.125,-0.140625 0.515625,-0.1875 0.609375,-0.515625 0.609375,-0.7265625 0,-0.38671877 -0.375,-0.60937497 -0.855469,-0.60937497 -0.8437498,0 -1.9687498,0.63281247 -1.9687498,1.82812497 0,0.703125 0.4335938,1.31250003 1.2539063,1.31250003 1.1835935,0 1.7343745,-0.69140628 1.7343745,-0.78515628 0,-0.046875 -0.07031,-0.1171875 -0.128906,-0.1171875 -0.03516,0 -0.04687,0.0117188 -0.105469,0.0703125 C 10.234906,1.3643906 9.4263125,1.3643906 9.2974062,1.3643906 8.8755312,1.3643906 8.606,1.0831406 8.606,0.52064062 c 0,-0.09375 0,-0.234375 0.082031,-0.62109375 z m -0.375,-0.1875 c 0.28125,-1.01953127 1.0546875,-1.10156247 1.253906,-1.10156247 0.304688,0 0.5625,0.1523437 0.5625,0.42187497 0,0.6796875 -1.1835935,0.6796875 -1.4765623,0.6796875 z m 6.149414,-1.08984377 c 0,-0.035156 0.01172,-0.070312 0.01172,-0.1054687 0,-0.046875 -0.02344,-0.09375 -0.09375,-0.09375 -0.07031,0 -0.363281,0.234375 -0.503906,0.4570312 -0.05859,-0.140625 -0.292969,-0.4570312 -0.738282,-0.4570312 -0.890625,0 -1.804687,0.97265622 -1.804687,1.98046872 0,0.67968748 0.457031,1.16015628 1.054687,1.16015628 0.398438,0 0.726563,-0.2460938 0.878907,-0.3867188 0,0.023437 -0.222657,0.9023438 -0.246094,1.0195313 -0.105469,0.3867187 -0.105469,0.3867187 -0.539063,0.3984375 -0.08203,0 -0.1875,0 -0.1875,0.1523437 0,0.046875 0.03516,0.09375 0.105469,0.09375 0.234375,0 0.492188,-0.023437 0.726563,-0.023437 0.234375,0 0.527343,0.023437 0.75,0.023437 0.05859,0 0.140625,-0.011719 0.140625,-0.1523437 0,-0.09375 -0.105469,-0.09375 -0.1875,-0.09375 -0.152344,0 -0.339844,0 -0.339844,-0.082031 0,-0.023437 0,-0.035156 0.03516,-0.1523437 z m -1.054687,1.99218752 c -0.03516,0.1171875 -0.03516,0.12890625 -0.128907,0.24609375 -0.269531,0.31640623 -0.597656,0.50390623 -0.867187,0.50390623 -0.257813,0 -0.515625,-0.1757812 -0.515625,-0.66796873 0,-0.375 0.210937,-1.13671875 0.363281,-1.41796875 0.328125,-0.56250002 0.679688,-0.66796872 0.878906,-0.66796872 0.480469,0 0.621094,0.53906247 0.621094,0.60937497 0,0.0351563 -0.01172,0.0820313 -0.02344,0.10546875 z m 0,0"
         style="fill:#000000;fill-opacity:1;fill-rule:nonzero;stroke:none" />
    </g>
    <path
       id="path53"
       d="m 340.16171,0 v 42.5202 m 0,0 v 42.52022"
       style="fill:none;stroke:#000000;stroke-width:0.3985;stroke-linecap:butt;stroke-linejoin:miter;stroke-miterlimit:10;stroke-dasharray:none;stroke-opacity:1"
       transform="matrix(1.3333333,0,0,-1.3333333,29.285333,258.4)" />
    <path
       id="path54"
       d="m 340.16171,40.78398 h 1.98426 l -1.98426,4.21654 -1.98425,-4.21654 z"
       style="fill:#000000;fill-opacity:1;fill-rule:nonzero;stroke:#000000;stroke-width:0.3985;stroke-linecap:butt;stroke-linejoin:miter;stroke-miterlimit:10;stroke-dasharray:none;stroke-opacity:1"
       transform="matrix(1.3333333,0,0,-1.3333333,29.285333,258.4)" />
    <path
       id="path55"
       d="m 3.7269922,-6.0345859 c 0.09375,-0.3632813 0.1171875,-0.4570313 0.9023437,-0.4570313 0.2460938,0 0.3164063,0 0.3164063,-0.1875 0,-0.1289062 -0.1054688,-0.1289062 -0.140625,-0.1289062 -0.2929688,0 -1.03125,0.035156 -1.3125,0.035156 -0.3046875,0 -1.03125,-0.035156 -1.3359375,-0.035156 -0.058594,0 -0.1992188,0 -0.1992188,0.1992187 0,0.1171875 0.09375,0.1171875 0.28125,0.1171875 0.421875,0 0.6914063,0 0.6914063,0.1875 0,0.046875 0,0.070312 -0.023437,0.1640625 l -1.3476563,5.36718751 c -0.082031,0.36328125 -0.1171875,0.46875 -0.90234371,0.46875 -0.22265625,0 -0.31640625,0 -0.31640625,0.19921875 0,0.1054687525 0.1171875,0.1054687525 0.15234375,0.1054687525 0.28125,0 1.00781251,-0.0351562525 1.30078121,-0.0351562525 0.3046875,0 1.03125,0.0351562525 1.3359375,0.0351562525 0.082031,0 0.1992188,0 0.1992188,-0.1875000025 0,-0.1171875 -0.082031,-0.1171875 -0.3046875,-0.1171875 -0.1757813,0 -0.2226563,0 -0.421875,-0.0234375 -0.2109375,-0.0234375 -0.2460938,-0.0585938 -0.2460938,-0.17578125 0,-0.0703125 0.011719,-0.15234375 0.035156,-0.22265625 z m 0,0"
       style="fill:#000000;fill-opacity:1;fill-rule:nonzero;stroke:none"
       aria-label="I"
       transform="matrix(1.3333333,0,0,1.3333333,471.25333,206.24533)" />
  </g>
</svg>
